<?xml version="1.0" standalone="no"?>
 <!DOCTYPE svg PUBLIC "-//W3C//DTD SVG 1.1//EN" 
 "http://www.w3.org/Graphics/SVG/1.1/DTD/svg11.dtd"> 
<svg
  xmlns:svg="http://www.w3.org/2000/svg"
  xmlns="http://www.w3.org/2000/svg"
  xmlns:xlink="http://www.w3.org/1999/xlink"
  version="1.1"
  width="29.700220cm" height="21.000720cm" viewBox="0 0 297002200 210007200">
<title>SVG Picture created as redshift-frame.svg date 2022/10/07 14:19:04 </title>
  <desc>Picture generated by PCBNEW </desc>
<g style="fill:#000000; fill-opacity:1.000000;stroke:#000000; stroke-opacity:1.000000;
stroke-linecap:round; stroke-linejoin:round;"
 transform="translate(0 0) scale(1 1)">
</g>
<g style="fill:#000000; fill-opacity:0.0; 
stroke:#000000; stroke-width:0.000000; stroke-opacity:1; 
stroke-linecap:round; stroke-linejoin:round;">
</g>
<g style="fill:#000000; fill-opacity:0.0; 
stroke:#000000; stroke-width:150000.000000; stroke-opacity:1; 
stroke-linecap:round; stroke-linejoin:round;">
<path d="M261000000 191500000
L261000000 198000000
" />
<path d="M197000000 191500000
L197000000 194500000
" />
<text x="178000000.000000" y="168750000.000000"
textLength="64552143.000000" font-size="2000000.000000" lengthAdjust="spacingAndGlyphs"
text-anchor="start" opacity="0">Copyright (c) Dekanova LLC &lt;dekanova_co@gmail.com&gt;</text>
<g class="stroked-text"><desc>Copyright (c) Dekanova LLC &lt;dekanova_co@gmail.com&gt;</desc>
<path d="M179311785 168535714
L179240357 168607142
L179026071 168678571
L178883214 168678571
L178668928 168607142
L178526071 168464285
L178454642 168321428
L178383214 168035714
L178383214 167821428
L178454642 167535714
L178526071 167392857
L178668928 167250000
L178883214 167178571
L179026071 167178571
L179240357 167250000
L179311785 167321428
" />
<path d="M180168928 168678571
L180026071 168607142
L179954642 168535714
L179883214 168392857
L179883214 167964285
L179954642 167821428
L180026071 167750000
L180168928 167678571
L180383214 167678571
L180526071 167750000
L180597500 167821428
L180668928 167964285
L180668928 168392857
L180597500 168535714
L180526071 168607142
L180383214 168678571
L180168928 168678571
" />
<path d="M181311785 167678571
L181311785 169178571
" />
<path d="M181311785 167750000
L181454642 167678571
L181740357 167678571
L181883214 167750000
L181954642 167821428
L182026071 167964285
L182026071 168392857
L181954642 168535714
L181883214 168607142
L181740357 168678571
L181454642 168678571
L181311785 168607142
" />
<path d="M182526071 167678571
L182883214 168678571
" />
<path d="M183240357 167678571
L182883214 168678571
L182740357 169035714
L182668928 169107142
L182526071 169178571
" />
<path d="M183811785 168678571
L183811785 167678571
" />
<path d="M183811785 167964285
L183883214 167821428
L183954642 167750000
L184097500 167678571
L184240357 167678571
" />
<path d="M184740357 168678571
L184740357 167678571
" />
<path d="M184740357 167178571
L184668928 167250000
L184740357 167321428
L184811785 167250000
L184740357 167178571
L184740357 167321428
" />
<path d="M186097500 167678571
L186097500 168892857
L186026071 169035714
L185954642 169107142
L185811785 169178571
L185597500 169178571
L185454642 169107142
" />
<path d="M186097500 168607142
L185954642 168678571
L185668928 168678571
L185526071 168607142
L185454642 168535714
L185383214 168392857
L185383214 167964285
L185454642 167821428
L185526071 167750000
L185668928 167678571
L185954642 167678571
L186097500 167750000
" />
<path d="M186811785 168678571
L186811785 167178571
" />
<path d="M187454642 168678571
L187454642 167892857
L187383214 167750000
L187240357 167678571
L187026071 167678571
L186883214 167750000
L186811785 167821428
" />
<path d="M187954642 167678571
L188526071 167678571
" />
<path d="M188168928 167178571
L188168928 168464285
L188240357 168607142
L188383214 168678571
L188526071 168678571
" />
<path d="M190597500 169250000
L190526071 169178571
L190383214 168964285
L190311785 168821428
L190240357 168607142
L190168928 168250000
L190168928 167964285
L190240357 167607142
L190311785 167392857
L190383214 167250000
L190526071 167035714
L190597500 166964285
" />
<path d="M191811785 168607142
L191668928 168678571
L191383214 168678571
L191240357 168607142
L191168928 168535714
L191097500 168392857
L191097500 167964285
L191168928 167821428
L191240357 167750000
L191383214 167678571
L191668928 167678571
L191811785 167750000
" />
<path d="M192311785 169250000
L192383214 169178571
L192526071 168964285
L192597500 168821428
L192668928 168607142
L192740357 168250000
L192740357 167964285
L192668928 167607142
L192597500 167392857
L192526071 167250000
L192383214 167035714
L192311785 166964285
" />
<path d="M194597500 168678571
L194597500 167178571
L194954642 167178571
L195168928 167250000
L195311785 167392857
L195383214 167535714
L195454642 167821428
L195454642 168035714
L195383214 168321428
L195311785 168464285
L195168928 168607142
L194954642 168678571
L194597500 168678571
" />
<path d="M196668928 168607142
L196526071 168678571
L196240357 168678571
L196097500 168607142
L196026071 168464285
L196026071 167892857
L196097500 167750000
L196240357 167678571
L196526071 167678571
L196668928 167750000
L196740357 167892857
L196740357 168035714
L196026071 168178571
" />
<path d="M197383214 168678571
L197383214 167178571
" />
<path d="M197526071 168107142
L197954642 168678571
" />
<path d="M197954642 167678571
L197383214 168250000
" />
<path d="M199240357 168678571
L199240357 167892857
L199168928 167750000
L199026071 167678571
L198740357 167678571
L198597500 167750000
" />
<path d="M199240357 168607142
L199097500 168678571
L198740357 168678571
L198597500 168607142
L198526071 168464285
L198526071 168321428
L198597500 168178571
L198740357 168107142
L199097500 168107142
L199240357 168035714
" />
<path d="M199954642 167678571
L199954642 168678571
" />
<path d="M199954642 167821428
L200026071 167750000
L200168928 167678571
L200383214 167678571
L200526071 167750000
L200597500 167892857
L200597500 168678571
" />
<path d="M201526071 168678571
L201383214 168607142
L201311785 168535714
L201240357 168392857
L201240357 167964285
L201311785 167821428
L201383214 167750000
L201526071 167678571
L201740357 167678571
L201883214 167750000
L201954642 167821428
L202026071 167964285
L202026071 168392857
L201954642 168535714
L201883214 168607142
L201740357 168678571
L201526071 168678571
" />
<path d="M202526071 167678571
L202883214 168678571
L203240357 167678571
" />
<path d="M204454642 168678571
L204454642 167892857
L204383214 167750000
L204240357 167678571
L203954642 167678571
L203811785 167750000
" />
<path d="M204454642 168607142
L204311785 168678571
L203954642 168678571
L203811785 168607142
L203740357 168464285
L203740357 168321428
L203811785 168178571
L203954642 168107142
L204311785 168107142
L204454642 168035714
" />
<path d="M207026071 168678571
L206311785 168678571
L206311785 167178571
" />
<path d="M208240357 168678571
L207526071 168678571
L207526071 167178571
" />
<path d="M209597500 168535714
L209526071 168607142
L209311785 168678571
L209168928 168678571
L208954642 168607142
L208811785 168464285
L208740357 168321428
L208668928 168035714
L208668928 167821428
L208740357 167535714
L208811785 167392857
L208954642 167250000
L209168928 167178571
L209311785 167178571
L209526071 167250000
L209597500 167321428
" />
<path d="M212526071 167678571
L211383214 168107142
L212526071 168535714
" />
<path d="M213883214 168678571
L213883214 167178571
" />
<path d="M213883214 168607142
L213740357 168678571
L213454642 168678571
L213311785 168607142
L213240357 168535714
L213168928 168392857
L213168928 167964285
L213240357 167821428
L213311785 167750000
L213454642 167678571
L213740357 167678571
L213883214 167750000
" />
<path d="M215168928 168607142
L215026071 168678571
L214740357 168678571
L214597500 168607142
L214526071 168464285
L214526071 167892857
L214597500 167750000
L214740357 167678571
L215026071 167678571
L215168928 167750000
L215240357 167892857
L215240357 168035714
L214526071 168178571
" />
<path d="M215883214 168678571
L215883214 167178571
" />
<path d="M216026071 168107142
L216454642 168678571
" />
<path d="M216454642 167678571
L215883214 168250000
" />
<path d="M217740357 168678571
L217740357 167892857
L217668928 167750000
L217526071 167678571
L217240357 167678571
L217097500 167750000
" />
<path d="M217740357 168607142
L217597500 168678571
L217240357 168678571
L217097500 168607142
L217026071 168464285
L217026071 168321428
L217097500 168178571
L217240357 168107142
L217597500 168107142
L217740357 168035714
" />
<path d="M218454642 167678571
L218454642 168678571
" />
<path d="M218454642 167821428
L218526071 167750000
L218668928 167678571
L218883214 167678571
L219026071 167750000
L219097500 167892857
L219097500 168678571
" />
<path d="M220026071 168678571
L219883214 168607142
L219811785 168535714
L219740357 168392857
L219740357 167964285
L219811785 167821428
L219883214 167750000
L220026071 167678571
L220240357 167678571
L220383214 167750000
L220454642 167821428
L220526071 167964285
L220526071 168392857
L220454642 168535714
L220383214 168607142
L220240357 168678571
L220026071 168678571
" />
<path d="M221026071 167678571
L221383214 168678571
L221740357 167678571
" />
<path d="M222954642 168678571
L222954642 167892857
L222883214 167750000
L222740357 167678571
L222454642 167678571
L222311785 167750000
" />
<path d="M222954642 168607142
L222811785 168678571
L222454642 168678571
L222311785 168607142
L222240357 168464285
L222240357 168321428
L222311785 168178571
L222454642 168107142
L222811785 168107142
L222954642 168035714
" />
<path d="M223311785 168821428
L224454642 168821428
" />
<path d="M225454642 168607142
L225311785 168678571
L225026071 168678571
L224883214 168607142
L224811785 168535714
L224740357 168392857
L224740357 167964285
L224811785 167821428
L224883214 167750000
L225026071 167678571
L225311785 167678571
L225454642 167750000
" />
<path d="M226311785 168678571
L226168928 168607142
L226097500 168535714
L226026071 168392857
L226026071 167964285
L226097500 167821428
L226168928 167750000
L226311785 167678571
L226526071 167678571
L226668928 167750000
L226740357 167821428
L226811785 167964285
L226811785 168392857
L226740357 168535714
L226668928 168607142
L226526071 168678571
L226311785 168678571
" />
<path d="M228383214 167964285
L228311785 167892857
L228168928 167821428
L228026071 167821428
L227883214 167892857
L227811785 167964285
L227740357 168107142
L227740357 168250000
L227811785 168392857
L227883214 168464285
L228026071 168535714
L228168928 168535714
L228311785 168464285
L228383214 168392857
" />
<path d="M228383214 167821428
L228383214 168392857
L228454642 168464285
L228526071 168464285
L228668928 168392857
L228740357 168250000
L228740357 167892857
L228597500 167678571
L228383214 167535714
L228097500 167464285
L227811785 167535714
L227597500 167678571
L227454642 167892857
L227383214 168178571
L227454642 168464285
L227597500 168678571
L227811785 168821428
L228097500 168892857
L228383214 168821428
L228597500 168678571
" />
<path d="M230026071 167678571
L230026071 168892857
L229954642 169035714
L229883214 169107142
L229740357 169178571
L229526071 169178571
L229383214 169107142
" />
<path d="M230026071 168607142
L229883214 168678571
L229597500 168678571
L229454642 168607142
L229383214 168535714
L229311785 168392857
L229311785 167964285
L229383214 167821428
L229454642 167750000
L229597500 167678571
L229883214 167678571
L230026071 167750000
" />
<path d="M230740357 168678571
L230740357 167678571
" />
<path d="M230740357 167821428
L230811785 167750000
L230954642 167678571
L231168928 167678571
L231311785 167750000
L231383214 167892857
L231383214 168678571
" />
<path d="M231383214 167892857
L231454642 167750000
L231597500 167678571
L231811785 167678571
L231954642 167750000
L232026071 167892857
L232026071 168678571
" />
<path d="M233383214 168678571
L233383214 167892857
L233311785 167750000
L233168928 167678571
L232883214 167678571
L232740357 167750000
" />
<path d="M233383214 168607142
L233240357 168678571
L232883214 168678571
L232740357 168607142
L232668928 168464285
L232668928 168321428
L232740357 168178571
L232883214 168107142
L233240357 168107142
L233383214 168035714
" />
<path d="M234097500 168678571
L234097500 167678571
" />
<path d="M234097500 167178571
L234026071 167250000
L234097500 167321428
L234168928 167250000
L234097500 167178571
L234097500 167321428
" />
<path d="M235026071 168678571
L234883214 168607142
L234811785 168464285
L234811785 167178571
" />
<path d="M235597500 168535714
L235668928 168607142
L235597500 168678571
L235526071 168607142
L235597500 168535714
L235597500 168678571
" />
<path d="M236954642 168607142
L236811785 168678571
L236526071 168678571
L236383214 168607142
L236311785 168535714
L236240357 168392857
L236240357 167964285
L236311785 167821428
L236383214 167750000
L236526071 167678571
L236811785 167678571
L236954642 167750000
" />
<path d="M237811785 168678571
L237668928 168607142
L237597500 168535714
L237526071 168392857
L237526071 167964285
L237597500 167821428
L237668928 167750000
L237811785 167678571
L238026071 167678571
L238168928 167750000
L238240357 167821428
L238311785 167964285
L238311785 168392857
L238240357 168535714
L238168928 168607142
L238026071 168678571
L237811785 168678571
" />
<path d="M238954642 168678571
L238954642 167678571
" />
<path d="M238954642 167821428
L239026071 167750000
L239168928 167678571
L239383214 167678571
L239526071 167750000
L239597500 167892857
L239597500 168678571
" />
<path d="M239597500 167892857
L239668928 167750000
L239811785 167678571
L240026071 167678571
L240168928 167750000
L240240357 167892857
L240240357 168678571
" />
<path d="M240954642 167678571
L242097500 168107142
L240954642 168535714
" />
</g><text x="178000000.000000" y="171750000.000000"
textLength="93195000.000000" font-size="2000000.000000" lengthAdjust="spacingAndGlyphs"
text-anchor="start" opacity="0">This source describes Open Hardware and is licensed under the CERN-OHL-Rv2</text>
<g class="stroked-text"><desc>This source describes Open Hardware and is licensed under the CERN-OHL-Rv2</desc>
<path d="M178240357 170178571
L179097500 170178571
" />
<path d="M178668928 171678571
L178668928 170178571
" />
<path d="M179597500 171678571
L179597500 170178571
" />
<path d="M180240357 171678571
L180240357 170892857
L180168928 170750000
L180026071 170678571
L179811785 170678571
L179668928 170750000
L179597500 170821428
" />
<path d="M180954642 171678571
L180954642 170678571
" />
<path d="M180954642 170178571
L180883214 170250000
L180954642 170321428
L181026071 170250000
L180954642 170178571
L180954642 170321428
" />
<path d="M181597500 171607142
L181740357 171678571
L182026071 171678571
L182168928 171607142
L182240357 171464285
L182240357 171392857
L182168928 171250000
L182026071 171178571
L181811785 171178571
L181668928 171107142
L181597500 170964285
L181597500 170892857
L181668928 170750000
L181811785 170678571
L182026071 170678571
L182168928 170750000
" />
<path d="M183954642 171607142
L184097500 171678571
L184383214 171678571
L184526071 171607142
L184597500 171464285
L184597500 171392857
L184526071 171250000
L184383214 171178571
L184168928 171178571
L184026071 171107142
L183954642 170964285
L183954642 170892857
L184026071 170750000
L184168928 170678571
L184383214 170678571
L184526071 170750000
" />
<path d="M185454642 171678571
L185311785 171607142
L185240357 171535714
L185168928 171392857
L185168928 170964285
L185240357 170821428
L185311785 170750000
L185454642 170678571
L185668928 170678571
L185811785 170750000
L185883214 170821428
L185954642 170964285
L185954642 171392857
L185883214 171535714
L185811785 171607142
L185668928 171678571
L185454642 171678571
" />
<path d="M187240357 170678571
L187240357 171678571
" />
<path d="M186597500 170678571
L186597500 171464285
L186668928 171607142
L186811785 171678571
L187026071 171678571
L187168928 171607142
L187240357 171535714
" />
<path d="M187954642 171678571
L187954642 170678571
" />
<path d="M187954642 170964285
L188026071 170821428
L188097500 170750000
L188240357 170678571
L188383214 170678571
" />
<path d="M189526071 171607142
L189383214 171678571
L189097500 171678571
L188954642 171607142
L188883214 171535714
L188811785 171392857
L188811785 170964285
L188883214 170821428
L188954642 170750000
L189097500 170678571
L189383214 170678571
L189526071 170750000
" />
<path d="M190740357 171607142
L190597500 171678571
L190311785 171678571
L190168928 171607142
L190097500 171464285
L190097500 170892857
L190168928 170750000
L190311785 170678571
L190597500 170678571
L190740357 170750000
L190811785 170892857
L190811785 171035714
L190097500 171178571
" />
<path d="M193240357 171678571
L193240357 170178571
" />
<path d="M193240357 171607142
L193097500 171678571
L192811785 171678571
L192668928 171607142
L192597500 171535714
L192526071 171392857
L192526071 170964285
L192597500 170821428
L192668928 170750000
L192811785 170678571
L193097500 170678571
L193240357 170750000
" />
<path d="M194526071 171607142
L194383214 171678571
L194097500 171678571
L193954642 171607142
L193883214 171464285
L193883214 170892857
L193954642 170750000
L194097500 170678571
L194383214 170678571
L194526071 170750000
L194597500 170892857
L194597500 171035714
L193883214 171178571
" />
<path d="M195168928 171607142
L195311785 171678571
L195597500 171678571
L195740357 171607142
L195811785 171464285
L195811785 171392857
L195740357 171250000
L195597500 171178571
L195383214 171178571
L195240357 171107142
L195168928 170964285
L195168928 170892857
L195240357 170750000
L195383214 170678571
L195597500 170678571
L195740357 170750000
" />
<path d="M197097500 171607142
L196954642 171678571
L196668928 171678571
L196526071 171607142
L196454642 171535714
L196383214 171392857
L196383214 170964285
L196454642 170821428
L196526071 170750000
L196668928 170678571
L196954642 170678571
L197097500 170750000
" />
<path d="M197740357 171678571
L197740357 170678571
" />
<path d="M197740357 170964285
L197811785 170821428
L197883214 170750000
L198026071 170678571
L198168928 170678571
" />
<path d="M198668928 171678571
L198668928 170678571
" />
<path d="M198668928 170178571
L198597500 170250000
L198668928 170321428
L198740357 170250000
L198668928 170178571
L198668928 170321428
" />
<path d="M199383214 171678571
L199383214 170178571
" />
<path d="M199383214 170750000
L199526071 170678571
L199811785 170678571
L199954642 170750000
L200026071 170821428
L200097500 170964285
L200097500 171392857
L200026071 171535714
L199954642 171607142
L199811785 171678571
L199526071 171678571
L199383214 171607142
" />
<path d="M201311785 171607142
L201168928 171678571
L200883214 171678571
L200740357 171607142
L200668928 171464285
L200668928 170892857
L200740357 170750000
L200883214 170678571
L201168928 170678571
L201311785 170750000
L201383214 170892857
L201383214 171035714
L200668928 171178571
" />
<path d="M201954642 171607142
L202097500 171678571
L202383214 171678571
L202526071 171607142
L202597500 171464285
L202597500 171392857
L202526071 171250000
L202383214 171178571
L202168928 171178571
L202026071 171107142
L201954642 170964285
L201954642 170892857
L202026071 170750000
L202168928 170678571
L202383214 170678571
L202526071 170750000
" />
<path d="M204668928 170178571
L204954642 170178571
L205097500 170250000
L205240357 170392857
L205311785 170678571
L205311785 171178571
L205240357 171464285
L205097500 171607142
L204954642 171678571
L204668928 171678571
L204526071 171607142
L204383214 171464285
L204311785 171178571
L204311785 170678571
L204383214 170392857
L204526071 170250000
L204668928 170178571
" />
<path d="M205954642 170678571
L205954642 172178571
" />
<path d="M205954642 170750000
L206097500 170678571
L206383214 170678571
L206526071 170750000
L206597500 170821428
L206668928 170964285
L206668928 171392857
L206597500 171535714
L206526071 171607142
L206383214 171678571
L206097500 171678571
L205954642 171607142
" />
<path d="M207883214 171607142
L207740357 171678571
L207454642 171678571
L207311785 171607142
L207240357 171464285
L207240357 170892857
L207311785 170750000
L207454642 170678571
L207740357 170678571
L207883214 170750000
L207954642 170892857
L207954642 171035714
L207240357 171178571
" />
<path d="M208597500 170678571
L208597500 171678571
" />
<path d="M208597500 170821428
L208668928 170750000
L208811785 170678571
L209026071 170678571
L209168928 170750000
L209240357 170892857
L209240357 171678571
" />
<path d="M211097500 171678571
L211097500 170178571
" />
<path d="M211097500 170892857
L211954642 170892857
" />
<path d="M211954642 171678571
L211954642 170178571
" />
<path d="M213311785 171678571
L213311785 170892857
L213240357 170750000
L213097500 170678571
L212811785 170678571
L212668928 170750000
" />
<path d="M213311785 171607142
L213168928 171678571
L212811785 171678571
L212668928 171607142
L212597500 171464285
L212597500 171321428
L212668928 171178571
L212811785 171107142
L213168928 171107142
L213311785 171035714
" />
<path d="M214026071 171678571
L214026071 170678571
" />
<path d="M214026071 170964285
L214097500 170821428
L214168928 170750000
L214311785 170678571
L214454642 170678571
" />
<path d="M215597500 171678571
L215597500 170178571
" />
<path d="M215597500 171607142
L215454642 171678571
L215168928 171678571
L215026071 171607142
L214954642 171535714
L214883214 171392857
L214883214 170964285
L214954642 170821428
L215026071 170750000
L215168928 170678571
L215454642 170678571
L215597500 170750000
" />
<path d="M216168928 170678571
L216454642 171678571
L216740357 170964285
L217026071 171678571
L217311785 170678571
" />
<path d="M218526071 171678571
L218526071 170892857
L218454642 170750000
L218311785 170678571
L218026071 170678571
L217883214 170750000
" />
<path d="M218526071 171607142
L218383214 171678571
L218026071 171678571
L217883214 171607142
L217811785 171464285
L217811785 171321428
L217883214 171178571
L218026071 171107142
L218383214 171107142
L218526071 171035714
" />
<path d="M219240357 171678571
L219240357 170678571
" />
<path d="M219240357 170964285
L219311785 170821428
L219383214 170750000
L219526071 170678571
L219668928 170678571
" />
<path d="M220740357 171607142
L220597500 171678571
L220311785 171678571
L220168928 171607142
L220097500 171464285
L220097500 170892857
L220168928 170750000
L220311785 170678571
L220597500 170678571
L220740357 170750000
L220811785 170892857
L220811785 171035714
L220097500 171178571
" />
<path d="M223240357 171678571
L223240357 170892857
L223168928 170750000
L223026071 170678571
L222740357 170678571
L222597500 170750000
" />
<path d="M223240357 171607142
L223097500 171678571
L222740357 171678571
L222597500 171607142
L222526071 171464285
L222526071 171321428
L222597500 171178571
L222740357 171107142
L223097500 171107142
L223240357 171035714
" />
<path d="M223954642 170678571
L223954642 171678571
" />
<path d="M223954642 170821428
L224026071 170750000
L224168928 170678571
L224383214 170678571
L224526071 170750000
L224597500 170892857
L224597500 171678571
" />
<path d="M225954642 171678571
L225954642 170178571
" />
<path d="M225954642 171607142
L225811785 171678571
L225526071 171678571
L225383214 171607142
L225311785 171535714
L225240357 171392857
L225240357 170964285
L225311785 170821428
L225383214 170750000
L225526071 170678571
L225811785 170678571
L225954642 170750000
" />
<path d="M227811785 171678571
L227811785 170678571
" />
<path d="M227811785 170178571
L227740357 170250000
L227811785 170321428
L227883214 170250000
L227811785 170178571
L227811785 170321428
" />
<path d="M228454642 171607142
L228597500 171678571
L228883214 171678571
L229026071 171607142
L229097500 171464285
L229097500 171392857
L229026071 171250000
L228883214 171178571
L228668928 171178571
L228526071 171107142
L228454642 170964285
L228454642 170892857
L228526071 170750000
L228668928 170678571
L228883214 170678571
L229026071 170750000
" />
<path d="M231097500 171678571
L230954642 171607142
L230883214 171464285
L230883214 170178571
" />
<path d="M231668928 171678571
L231668928 170678571
" />
<path d="M231668928 170178571
L231597500 170250000
L231668928 170321428
L231740357 170250000
L231668928 170178571
L231668928 170321428
" />
<path d="M233026071 171607142
L232883214 171678571
L232597500 171678571
L232454642 171607142
L232383214 171535714
L232311785 171392857
L232311785 170964285
L232383214 170821428
L232454642 170750000
L232597500 170678571
L232883214 170678571
L233026071 170750000
" />
<path d="M234240357 171607142
L234097500 171678571
L233811785 171678571
L233668928 171607142
L233597500 171464285
L233597500 170892857
L233668928 170750000
L233811785 170678571
L234097500 170678571
L234240357 170750000
L234311785 170892857
L234311785 171035714
L233597500 171178571
" />
<path d="M234954642 170678571
L234954642 171678571
" />
<path d="M234954642 170821428
L235026071 170750000
L235168928 170678571
L235383214 170678571
L235526071 170750000
L235597500 170892857
L235597500 171678571
" />
<path d="M236240357 171607142
L236383214 171678571
L236668928 171678571
L236811785 171607142
L236883214 171464285
L236883214 171392857
L236811785 171250000
L236668928 171178571
L236454642 171178571
L236311785 171107142
L236240357 170964285
L236240357 170892857
L236311785 170750000
L236454642 170678571
L236668928 170678571
L236811785 170750000
" />
<path d="M238097500 171607142
L237954642 171678571
L237668928 171678571
L237526071 171607142
L237454642 171464285
L237454642 170892857
L237526071 170750000
L237668928 170678571
L237954642 170678571
L238097500 170750000
L238168928 170892857
L238168928 171035714
L237454642 171178571
" />
<path d="M239454642 171678571
L239454642 170178571
" />
<path d="M239454642 171607142
L239311785 171678571
L239026071 171678571
L238883214 171607142
L238811785 171535714
L238740357 171392857
L238740357 170964285
L238811785 170821428
L238883214 170750000
L239026071 170678571
L239311785 170678571
L239454642 170750000
" />
<path d="M241954642 170678571
L241954642 171678571
" />
<path d="M241311785 170678571
L241311785 171464285
L241383214 171607142
L241526071 171678571
L241740357 171678571
L241883214 171607142
L241954642 171535714
" />
<path d="M242668928 170678571
L242668928 171678571
" />
<path d="M242668928 170821428
L242740357 170750000
L242883214 170678571
L243097500 170678571
L243240357 170750000
L243311785 170892857
L243311785 171678571
" />
<path d="M244668928 171678571
L244668928 170178571
" />
<path d="M244668928 171607142
L244526071 171678571
L244240357 171678571
L244097500 171607142
L244026071 171535714
L243954642 171392857
L243954642 170964285
L244026071 170821428
L244097500 170750000
L244240357 170678571
L244526071 170678571
L244668928 170750000
" />
<path d="M245954642 171607142
L245811785 171678571
L245526071 171678571
L245383214 171607142
L245311785 171464285
L245311785 170892857
L245383214 170750000
L245526071 170678571
L245811785 170678571
L245954642 170750000
L246026071 170892857
L246026071 171035714
L245311785 171178571
" />
<path d="M246668928 171678571
L246668928 170678571
" />
<path d="M246668928 170964285
L246740357 170821428
L246811785 170750000
L246954642 170678571
L247097500 170678571
" />
<path d="M248526071 170678571
L249097500 170678571
" />
<path d="M248740357 170178571
L248740357 171464285
L248811785 171607142
L248954642 171678571
L249097500 171678571
" />
<path d="M249597500 171678571
L249597500 170178571
" />
<path d="M250240357 171678571
L250240357 170892857
L250168928 170750000
L250026071 170678571
L249811785 170678571
L249668928 170750000
L249597500 170821428
" />
<path d="M251526071 171607142
L251383214 171678571
L251097500 171678571
L250954642 171607142
L250883214 171464285
L250883214 170892857
L250954642 170750000
L251097500 170678571
L251383214 170678571
L251526071 170750000
L251597500 170892857
L251597500 171035714
L250883214 171178571
" />
<path d="M254240357 171535714
L254168928 171607142
L253954642 171678571
L253811785 171678571
L253597500 171607142
L253454642 171464285
L253383214 171321428
L253311785 171035714
L253311785 170821428
L253383214 170535714
L253454642 170392857
L253597500 170250000
L253811785 170178571
L253954642 170178571
L254168928 170250000
L254240357 170321428
" />
<path d="M254883214 170892857
L255383214 170892857
" />
<path d="M255597500 171678571
L254883214 171678571
L254883214 170178571
L255597500 170178571
" />
<path d="M257097500 171678571
L256597500 170964285
" />
<path d="M256240357 171678571
L256240357 170178571
L256811785 170178571
L256954642 170250000
L257026071 170321428
L257097500 170464285
L257097500 170678571
L257026071 170821428
L256954642 170892857
L256811785 170964285
L256240357 170964285
" />
<path d="M257740357 171678571
L257740357 170178571
L258597500 171678571
L258597500 170178571
" />
<path d="M259311785 171107142
L260454642 171107142
" />
<path d="M261454642 170178571
L261740357 170178571
L261883214 170250000
L262026071 170392857
L262097500 170678571
L262097500 171178571
L262026071 171464285
L261883214 171607142
L261740357 171678571
L261454642 171678571
L261311785 171607142
L261168928 171464285
L261097500 171178571
L261097500 170678571
L261168928 170392857
L261311785 170250000
L261454642 170178571
" />
<path d="M262740357 171678571
L262740357 170178571
" />
<path d="M262740357 170892857
L263597500 170892857
" />
<path d="M263597500 171678571
L263597500 170178571
" />
<path d="M265026071 171678571
L264311785 171678571
L264311785 170178571
" />
<path d="M265526071 171107142
L266668928 171107142
" />
<path d="M268240357 171678571
L267740357 170964285
" />
<path d="M267383214 171678571
L267383214 170178571
L267954642 170178571
L268097499 170250000
L268168928 170321428
L268240357 170464285
L268240357 170678571
L268168928 170821428
L268097499 170892857
L267954642 170964285
L267383214 170964285
" />
<path d="M268740357 170678571
L269097500 171678571
L269454642 170678571
" />
<path d="M269954642 170321428
L270026071 170250000
L270168928 170178571
L270526071 170178571
L270668928 170250000
L270740357 170321428
L270811785 170464285
L270811785 170607142
L270740357 170821428
L269883214 171678571
L270811785 171678571
" />
</g></g>
<g style="fill:#000000; fill-opacity:0.0; 
stroke:#000000; stroke-width:300000.000000; stroke-opacity:1; 
stroke-linecap:round; stroke-linejoin:round;">
<text x="178000000.000000" y="180750000.000000"
textLength="104552143.000000" font-size="2000000.000000" lengthAdjust="spacingAndGlyphs"
text-anchor="start" opacity="0">Dekanova LLC                                       https://github.com/Dekanova/redshift</text>
<g class="stroked-text"><desc>Dekanova LLC                                       https://github.com/Dekanova/redshift</desc>
<path d="M178552142 180678571
L178552142 179178571
L178909285 179178571
L179123571 179250000
L179266428 179392857
L179337857 179535714
L179409285 179821428
L179409285 180035714
L179337857 180321428
L179266428 180464285
L179123571 180607142
L178909285 180678571
L178552142 180678571
" />
<path d="M180623571 180607142
L180480714 180678571
L180195000 180678571
L180052142 180607142
L179980714 180464285
L179980714 179892857
L180052142 179750000
L180195000 179678571
L180480714 179678571
L180623571 179750000
L180695000 179892857
L180695000 180035714
L179980714 180178571
" />
<path d="M181337857 180678571
L181337857 179178571
" />
<path d="M181480714 180107142
L181909285 180678571
" />
<path d="M181909285 179678571
L181337857 180250000
" />
<path d="M183195000 180678571
L183195000 179892857
L183123571 179750000
L182980714 179678571
L182695000 179678571
L182552142 179750000
" />
<path d="M183195000 180607142
L183052142 180678571
L182695000 180678571
L182552142 180607142
L182480714 180464285
L182480714 180321428
L182552142 180178571
L182695000 180107142
L183052142 180107142
L183195000 180035714
" />
<path d="M183909285 179678571
L183909285 180678571
" />
<path d="M183909285 179821428
L183980714 179750000
L184123571 179678571
L184337857 179678571
L184480714 179750000
L184552142 179892857
L184552142 180678571
" />
<path d="M185480714 180678571
L185337857 180607142
L185266428 180535714
L185195000 180392857
L185195000 179964285
L185266428 179821428
L185337857 179750000
L185480714 179678571
L185695000 179678571
L185837857 179750000
L185909285 179821428
L185980714 179964285
L185980714 180392857
L185909285 180535714
L185837857 180607142
L185695000 180678571
L185480714 180678571
" />
<path d="M186480714 179678571
L186837857 180678571
L187195000 179678571
" />
<path d="M188409285 180678571
L188409285 179892857
L188337857 179750000
L188195000 179678571
L187909285 179678571
L187766428 179750000
" />
<path d="M188409285 180607142
L188266428 180678571
L187909285 180678571
L187766428 180607142
L187695000 180464285
L187695000 180321428
L187766428 180178571
L187909285 180107142
L188266428 180107142
L188409285 180035714
" />
<path d="M190980714 180678571
L190266428 180678571
L190266428 179178571
" />
<path d="M192195000 180678571
L191480714 180678571
L191480714 179178571
" />
<path d="M193552142 180535714
L193480714 180607142
L193266428 180678571
L193123571 180678571
L192909285 180607142
L192766428 180464285
L192695000 180321428
L192623571 180035714
L192623571 179821428
L192695000 179535714
L192766428 179392857
L192909285 179250000
L193123571 179178571
L193266428 179178571
L193480714 179250000
L193552142 179321428
" />
<path d="M238766428 180678571
L238766428 179178571
" />
<path d="M239409285 180678571
L239409285 179892857
L239337857 179750000
L239194999 179678571
L238980714 179678571
L238837857 179750000
L238766428 179821428
" />
<path d="M239909285 179678571
L240480714 179678571
" />
<path d="M240123571 179178571
L240123571 180464285
L240194999 180607142
L240337857 180678571
L240480714 180678571
" />
<path d="M240766428 179678571
L241337857 179678571
" />
<path d="M240980714 179178571
L240980714 180464285
L241052142 180607142
L241194999 180678571
L241337857 180678571
" />
<path d="M241837857 179678571
L241837857 181178571
" />
<path d="M241837857 179750000
L241980714 179678571
L242266428 179678571
L242409285 179750000
L242480714 179821428
L242552142 179964285
L242552142 180392857
L242480714 180535714
L242409285 180607142
L242266428 180678571
L241980714 180678571
L241837857 180607142
" />
<path d="M243123571 180607142
L243266428 180678571
L243552142 180678571
L243694999 180607142
L243766428 180464285
L243766428 180392857
L243694999 180250000
L243552142 180178571
L243337857 180178571
L243194999 180107142
L243123571 179964285
L243123571 179892857
L243194999 179750000
L243337857 179678571
L243552142 179678571
L243694999 179750000
" />
<path d="M244409285 180535714
L244480714 180607142
L244409285 180678571
L244337857 180607142
L244409285 180535714
L244409285 180678571
" />
<path d="M244409285 179750000
L244480714 179821428
L244409285 179892857
L244337857 179821428
L244409285 179750000
L244409285 179892857
" />
<path d="M246194999 179107142
L244909285 181035714
" />
<path d="M247766428 179107142
L246480714 181035714
" />
<path d="M248909285 179678571
L248909285 180892857
L248837857 181035714
L248766428 181107142
L248623571 181178571
L248409285 181178571
L248266428 181107142
" />
<path d="M248909285 180607142
L248766428 180678571
L248480714 180678571
L248337857 180607142
L248266428 180535714
L248194999 180392857
L248194999 179964285
L248266428 179821428
L248337857 179750000
L248480714 179678571
L248766428 179678571
L248909285 179750000
" />
<path d="M249623571 180678571
L249623571 179678571
" />
<path d="M249623571 179178571
L249552142 179250000
L249623571 179321428
L249694999 179250000
L249623571 179178571
L249623571 179321428
" />
<path d="M250123571 179678571
L250694999 179678571
" />
<path d="M250337857 179178571
L250337857 180464285
L250409285 180607142
L250552142 180678571
L250694999 180678571
" />
<path d="M251194999 180678571
L251194999 179178571
" />
<path d="M251837857 180678571
L251837857 179892857
L251766428 179750000
L251623571 179678571
L251409285 179678571
L251266428 179750000
L251194999 179821428
" />
<path d="M253194999 179678571
L253194999 180678571
" />
<path d="M252552142 179678571
L252552142 180464285
L252623571 180607142
L252766428 180678571
L252980714 180678571
L253123571 180607142
L253194999 180535714
" />
<path d="M253909285 180678571
L253909285 179178571
" />
<path d="M253909285 179750000
L254052142 179678571
L254337857 179678571
L254480714 179750000
L254552142 179821428
L254623571 179964285
L254623571 180392857
L254552142 180535714
L254480714 180607142
L254337857 180678571
L254052142 180678571
L253909285 180607142
" />
<path d="M255266428 180535714
L255337857 180607142
L255266428 180678571
L255194999 180607142
L255266428 180535714
L255266428 180678571
" />
<path d="M256623571 180607142
L256480714 180678571
L256194999 180678571
L256052142 180607142
L255980714 180535714
L255909285 180392857
L255909285 179964285
L255980714 179821428
L256052142 179750000
L256194999 179678571
L256480714 179678571
L256623571 179750000
" />
<path d="M257480714 180678571
L257337857 180607142
L257266428 180535714
L257194999 180392857
L257194999 179964285
L257266428 179821428
L257337857 179750000
L257480714 179678571
L257694999 179678571
L257837857 179750000
L257909285 179821428
L257980714 179964285
L257980714 180392857
L257909285 180535714
L257837857 180607142
L257694999 180678571
L257480714 180678571
" />
<path d="M258623571 180678571
L258623571 179678571
" />
<path d="M258623571 179821428
L258694999 179750000
L258837857 179678571
L259052142 179678571
L259194999 179750000
L259266428 179892857
L259266428 180678571
" />
<path d="M259266428 179892857
L259337857 179750000
L259480714 179678571
L259694999 179678571
L259837857 179750000
L259909285 179892857
L259909285 180678571
" />
<path d="M261694999 179107142
L260409285 181035714
" />
<path d="M262194999 180678571
L262194999 179178571
L262552142 179178571
L262766428 179250000
L262909285 179392857
L262980714 179535714
L263052142 179821428
L263052142 180035714
L262980714 180321428
L262909285 180464285
L262766428 180607142
L262552142 180678571
L262194999 180678571
" />
<path d="M264266428 180607142
L264123571 180678571
L263837857 180678571
L263694999 180607142
L263623571 180464285
L263623571 179892857
L263694999 179750000
L263837857 179678571
L264123571 179678571
L264266428 179750000
L264337857 179892857
L264337857 180035714
L263623571 180178571
" />
<path d="M264980714 180678571
L264980714 179178571
" />
<path d="M265123571 180107142
L265552142 180678571
" />
<path d="M265552142 179678571
L264980714 180250000
" />
<path d="M266837857 180678571
L266837857 179892857
L266766428 179750000
L266623571 179678571
L266337857 179678571
L266194999 179750000
" />
<path d="M266837857 180607142
L266694999 180678571
L266337857 180678571
L266194999 180607142
L266123571 180464285
L266123571 180321428
L266194999 180178571
L266337857 180107142
L266694999 180107142
L266837857 180035714
" />
<path d="M267552142 179678571
L267552142 180678571
" />
<path d="M267552142 179821428
L267623571 179750000
L267766428 179678571
L267980714 179678571
L268123571 179750000
L268194999 179892857
L268194999 180678571
" />
<path d="M269123571 180678571
L268980714 180607142
L268909285 180535714
L268837857 180392857
L268837857 179964285
L268909285 179821428
L268980714 179750000
L269123571 179678571
L269337857 179678571
L269480714 179750000
L269552142 179821428
L269623571 179964285
L269623571 180392857
L269552142 180535714
L269480714 180607142
L269337857 180678571
L269123571 180678571
" />
<path d="M270123571 179678571
L270480714 180678571
L270837857 179678571
" />
<path d="M272052142 180678571
L272052142 179892857
L271980714 179750000
L271837857 179678571
L271552142 179678571
L271409285 179750000
" />
<path d="M272052142 180607142
L271909285 180678571
L271552142 180678571
L271409285 180607142
L271337857 180464285
L271337857 180321428
L271409285 180178571
L271552142 180107142
L271909285 180107142
L272052142 180035714
" />
<path d="M273837857 179107142
L272552142 181035714
" />
<path d="M274337857 180678571
L274337857 179678571
" />
<path d="M274337857 179964285
L274409285 179821428
L274480714 179750000
L274623571 179678571
L274766428 179678571
" />
<path d="M275837857 180607142
L275694999 180678571
L275409285 180678571
L275266428 180607142
L275194999 180464285
L275194999 179892857
L275266428 179750000
L275409285 179678571
L275694999 179678571
L275837857 179750000
L275909285 179892857
L275909285 180035714
L275194999 180178571
" />
<path d="M277194999 180678571
L277194999 179178571
" />
<path d="M277194999 180607142
L277052142 180678571
L276766428 180678571
L276623571 180607142
L276552142 180535714
L276480714 180392857
L276480714 179964285
L276552142 179821428
L276623571 179750000
L276766428 179678571
L277052142 179678571
L277194999 179750000
" />
<path d="M277837857 180607142
L277980714 180678571
L278266428 180678571
L278409285 180607142
L278480714 180464285
L278480714 180392857
L278409285 180250000
L278266428 180178571
L278052142 180178571
L277909285 180107142
L277837857 179964285
L277837857 179892857
L277909285 179750000
L278052142 179678571
L278266428 179678571
L278409285 179750000
" />
<path d="M279123571 180678571
L279123571 179178571
" />
<path d="M279766428 180678571
L279766428 179892857
L279694999 179750000
L279552142 179678571
L279337857 179678571
L279194999 179750000
L279123571 179821428
" />
<path d="M280480714 180678571
L280480714 179678571
" />
<path d="M280480714 179178571
L280409285 179250000
L280480714 179321428
L280552142 179250000
L280480714 179178571
L280480714 179321428
" />
<path d="M280980714 179678571
L281552142 179678571
" />
<path d="M281194999 180678571
L281194999 179392857
L281266428 179250000
L281409285 179178571
L281552142 179178571
" />
<path d="M281837857 179678571
L282409285 179678571
" />
<path d="M282052142 179178571
L282052142 180464285
L282123571 180607142
L282266428 180678571
L282409285 180678571
" />
</g></g>
<g style="fill:#000000; fill-opacity:0.0; 
stroke:#000000; stroke-width:150000.000000; stroke-opacity:1; 
stroke-linecap:round; stroke-linejoin:round;">
<text x="178000000.000000" y="183750000.000000"
textLength="32032857.000000" font-size="2000000.000000" lengthAdjust="spacingAndGlyphs"
text-anchor="start" opacity="0">Sheet: Front courtyard area</text>
<g class="stroked-text"><desc>Sheet: Front courtyard area</desc>
<path d="M178383214 183607142
L178597500 183678571
L178954642 183678571
L179097500 183607142
L179168928 183535714
L179240357 183392857
L179240357 183250000
L179168928 183107142
L179097500 183035714
L178954642 182964285
L178668928 182892857
L178526071 182821428
L178454642 182750000
L178383214 182607142
L178383214 182464285
L178454642 182321428
L178526071 182250000
L178668928 182178571
L179026071 182178571
L179240357 182250000
" />
<path d="M179883214 183678571
L179883214 182178571
" />
<path d="M180526071 183678571
L180526071 182892857
L180454642 182750000
L180311785 182678571
L180097500 182678571
L179954642 182750000
L179883214 182821428
" />
<path d="M181811785 183607142
L181668928 183678571
L181383214 183678571
L181240357 183607142
L181168928 183464285
L181168928 182892857
L181240357 182750000
L181383214 182678571
L181668928 182678571
L181811785 182750000
L181883214 182892857
L181883214 183035714
L181168928 183178571
" />
<path d="M183097500 183607142
L182954642 183678571
L182668928 183678571
L182526071 183607142
L182454642 183464285
L182454642 182892857
L182526071 182750000
L182668928 182678571
L182954642 182678571
L183097500 182750000
L183168928 182892857
L183168928 183035714
L182454642 183178571
" />
<path d="M183597500 182678571
L184168928 182678571
" />
<path d="M183811785 182178571
L183811785 183464285
L183883214 183607142
L184026071 183678571
L184168928 183678571
" />
<path d="M184668928 183535714
L184740357 183607142
L184668928 183678571
L184597500 183607142
L184668928 183535714
L184668928 183678571
" />
<path d="M184668928 182750000
L184740357 182821428
L184668928 182892857
L184597500 182821428
L184668928 182750000
L184668928 182892857
" />
<path d="M187026071 182892857
L186526071 182892857
" />
<path d="M186526071 183678571
L186526071 182178571
L187240357 182178571
" />
<path d="M187811785 183678571
L187811785 182678571
" />
<path d="M187811785 182964285
L187883214 182821428
L187954642 182750000
L188097500 182678571
L188240357 182678571
" />
<path d="M188954642 183678571
L188811785 183607142
L188740357 183535714
L188668928 183392857
L188668928 182964285
L188740357 182821428
L188811785 182750000
L188954642 182678571
L189168928 182678571
L189311785 182750000
L189383214 182821428
L189454642 182964285
L189454642 183392857
L189383214 183535714
L189311785 183607142
L189168928 183678571
L188954642 183678571
" />
<path d="M190097500 182678571
L190097500 183678571
" />
<path d="M190097500 182821428
L190168928 182750000
L190311785 182678571
L190526071 182678571
L190668928 182750000
L190740357 182892857
L190740357 183678571
" />
<path d="M191240357 182678571
L191811785 182678571
" />
<path d="M191454642 182178571
L191454642 183464285
L191526071 183607142
L191668928 183678571
L191811785 183678571
" />
<path d="M194097500 183607142
L193954642 183678571
L193668928 183678571
L193526071 183607142
L193454642 183535714
L193383214 183392857
L193383214 182964285
L193454642 182821428
L193526071 182750000
L193668928 182678571
L193954642 182678571
L194097500 182750000
" />
<path d="M194954642 183678571
L194811785 183607142
L194740357 183535714
L194668928 183392857
L194668928 182964285
L194740357 182821428
L194811785 182750000
L194954642 182678571
L195168928 182678571
L195311785 182750000
L195383214 182821428
L195454642 182964285
L195454642 183392857
L195383214 183535714
L195311785 183607142
L195168928 183678571
L194954642 183678571
" />
<path d="M196740357 182678571
L196740357 183678571
" />
<path d="M196097500 182678571
L196097500 183464285
L196168928 183607142
L196311785 183678571
L196526071 183678571
L196668928 183607142
L196740357 183535714
" />
<path d="M197454642 183678571
L197454642 182678571
" />
<path d="M197454642 182964285
L197526071 182821428
L197597500 182750000
L197740357 182678571
L197883214 182678571
" />
<path d="M198168928 182678571
L198740357 182678571
" />
<path d="M198383214 182178571
L198383214 183464285
L198454642 183607142
L198597500 183678571
L198740357 183678571
" />
<path d="M199097500 182678571
L199454642 183678571
" />
<path d="M199811785 182678571
L199454642 183678571
L199311785 184035714
L199240357 184107142
L199097500 184178571
" />
<path d="M201026071 183678571
L201026071 182892857
L200954642 182750000
L200811785 182678571
L200526071 182678571
L200383214 182750000
" />
<path d="M201026071 183607142
L200883214 183678571
L200526071 183678571
L200383214 183607142
L200311785 183464285
L200311785 183321428
L200383214 183178571
L200526071 183107142
L200883214 183107142
L201026071 183035714
" />
<path d="M201740357 183678571
L201740357 182678571
" />
<path d="M201740357 182964285
L201811785 182821428
L201883214 182750000
L202026071 182678571
L202168928 182678571
" />
<path d="M203311785 183678571
L203311785 182178571
" />
<path d="M203311785 183607142
L203168928 183678571
L202883214 183678571
L202740357 183607142
L202668928 183535714
L202597500 183392857
L202597500 182964285
L202668928 182821428
L202740357 182750000
L202883214 182678571
L203168928 182678571
L203311785 182750000
" />
<path d="M205811785 183678571
L205811785 182892857
L205740357 182750000
L205597500 182678571
L205311785 182678571
L205168928 182750000
" />
<path d="M205811785 183607142
L205668928 183678571
L205311785 183678571
L205168928 183607142
L205097500 183464285
L205097500 183321428
L205168928 183178571
L205311785 183107142
L205668928 183107142
L205811785 183035714
" />
<path d="M206526071 183678571
L206526071 182678571
" />
<path d="M206526071 182964285
L206597500 182821428
L206668928 182750000
L206811785 182678571
L206954642 182678571
" />
<path d="M208026071 183607142
L207883214 183678571
L207597500 183678571
L207454642 183607142
L207383214 183464285
L207383214 182892857
L207454642 182750000
L207597500 182678571
L207883214 182678571
L208026071 182750000
L208097500 182892857
L208097500 183035714
L207383214 183178571
" />
<path d="M209383214 183678571
L209383214 182892857
L209311785 182750000
L209168928 182678571
L208883214 182678571
L208740357 182750000
" />
<path d="M209383214 183607142
L209240357 183678571
L208883214 183678571
L208740357 183607142
L208668928 183464285
L208668928 183321428
L208740357 183178571
L208883214 183107142
L209240357 183107142
L209383214 183035714
" />
</g><path d="M177000000 181500000
L285000000 181500000
" />
<text x="178000000.000000" y="186450000.000000"
textLength="26480714.000000" font-size="2000000.000000" lengthAdjust="spacingAndGlyphs"
text-anchor="start" opacity="0">File: redshift.kicad_pcb</text>
<g class="stroked-text"><desc>File: redshift.kicad_pcb</desc>
<path d="M178954642 185592857
L178454642 185592857
" />
<path d="M178454642 186378571
L178454642 184878571
L179168928 184878571
" />
<path d="M179740357 186378571
L179740357 185378571
" />
<path d="M179740357 184878571
L179668928 184950000
L179740357 185021428
L179811785 184950000
L179740357 184878571
L179740357 185021428
" />
<path d="M180668928 186378571
L180526071 186307142
L180454642 186164285
L180454642 184878571
" />
<path d="M181811785 186307142
L181668928 186378571
L181383214 186378571
L181240357 186307142
L181168928 186164285
L181168928 185592857
L181240357 185450000
L181383214 185378571
L181668928 185378571
L181811785 185450000
L181883214 185592857
L181883214 185735714
L181168928 185878571
" />
<path d="M182526071 186235714
L182597500 186307142
L182526071 186378571
L182454642 186307142
L182526071 186235714
L182526071 186378571
" />
<path d="M182526071 185450000
L182597500 185521428
L182526071 185592857
L182454642 185521428
L182526071 185450000
L182526071 185592857
" />
<path d="M184383214 186378571
L184383214 185378571
" />
<path d="M184383214 185664285
L184454642 185521428
L184526071 185450000
L184668928 185378571
L184811785 185378571
" />
<path d="M185883214 186307142
L185740357 186378571
L185454642 186378571
L185311785 186307142
L185240357 186164285
L185240357 185592857
L185311785 185450000
L185454642 185378571
L185740357 185378571
L185883214 185450000
L185954642 185592857
L185954642 185735714
L185240357 185878571
" />
<path d="M187240357 186378571
L187240357 184878571
" />
<path d="M187240357 186307142
L187097500 186378571
L186811785 186378571
L186668928 186307142
L186597500 186235714
L186526071 186092857
L186526071 185664285
L186597500 185521428
L186668928 185450000
L186811785 185378571
L187097500 185378571
L187240357 185450000
" />
<path d="M187883214 186307142
L188026071 186378571
L188311785 186378571
L188454642 186307142
L188526071 186164285
L188526071 186092857
L188454642 185950000
L188311785 185878571
L188097500 185878571
L187954642 185807142
L187883214 185664285
L187883214 185592857
L187954642 185450000
L188097500 185378571
L188311785 185378571
L188454642 185450000
" />
<path d="M189168928 186378571
L189168928 184878571
" />
<path d="M189811785 186378571
L189811785 185592857
L189740357 185450000
L189597500 185378571
L189383214 185378571
L189240357 185450000
L189168928 185521428
" />
<path d="M190526071 186378571
L190526071 185378571
" />
<path d="M190526071 184878571
L190454642 184950000
L190526071 185021428
L190597500 184950000
L190526071 184878571
L190526071 185021428
" />
<path d="M191026071 185378571
L191597500 185378571
" />
<path d="M191240357 186378571
L191240357 185092857
L191311785 184950000
L191454642 184878571
L191597500 184878571
" />
<path d="M191883214 185378571
L192454642 185378571
" />
<path d="M192097500 184878571
L192097500 186164285
L192168928 186307142
L192311785 186378571
L192454642 186378571
" />
<path d="M192954642 186235714
L193026071 186307142
L192954642 186378571
L192883214 186307142
L192954642 186235714
L192954642 186378571
" />
<path d="M193668928 186378571
L193668928 184878571
" />
<path d="M193811785 185807142
L194240357 186378571
" />
<path d="M194240357 185378571
L193668928 185950000
" />
<path d="M194883214 186378571
L194883214 185378571
" />
<path d="M194883214 184878571
L194811785 184950000
L194883214 185021428
L194954642 184950000
L194883214 184878571
L194883214 185021428
" />
<path d="M196240357 186307142
L196097500 186378571
L195811785 186378571
L195668928 186307142
L195597500 186235714
L195526071 186092857
L195526071 185664285
L195597500 185521428
L195668928 185450000
L195811785 185378571
L196097500 185378571
L196240357 185450000
" />
<path d="M197526071 186378571
L197526071 185592857
L197454642 185450000
L197311785 185378571
L197026071 185378571
L196883214 185450000
" />
<path d="M197526071 186307142
L197383214 186378571
L197026071 186378571
L196883214 186307142
L196811785 186164285
L196811785 186021428
L196883214 185878571
L197026071 185807142
L197383214 185807142
L197526071 185735714
" />
<path d="M198883214 186378571
L198883214 184878571
" />
<path d="M198883214 186307142
L198740357 186378571
L198454642 186378571
L198311785 186307142
L198240357 186235714
L198168928 186092857
L198168928 185664285
L198240357 185521428
L198311785 185450000
L198454642 185378571
L198740357 185378571
L198883214 185450000
" />
<path d="M199240357 186521428
L200383214 186521428
" />
<path d="M200740357 185378571
L200740357 186878571
" />
<path d="M200740357 185450000
L200883214 185378571
L201168928 185378571
L201311785 185450000
L201383214 185521428
L201454642 185664285
L201454642 186092857
L201383214 186235714
L201311785 186307142
L201168928 186378571
L200883214 186378571
L200740357 186307142
" />
<path d="M202740357 186307142
L202597500 186378571
L202311785 186378571
L202168928 186307142
L202097500 186235714
L202026071 186092857
L202026071 185664285
L202097500 185521428
L202168928 185450000
L202311785 185378571
L202597500 185378571
L202740357 185450000
" />
<path d="M203383214 186378571
L203383214 184878571
" />
<path d="M203383214 185450000
L203526071 185378571
L203811785 185378571
L203954642 185450000
L204026071 185521428
L204097500 185664285
L204097500 186092857
L204026071 186235714
L203954642 186307142
L203811785 186378571
L203526071 186378571
L203383214 186307142
" />
</g></g>
<g style="fill:#000000; fill-opacity:0.0; 
stroke:#000000; stroke-width:300000.000000; stroke-opacity:1; 
stroke-linecap:round; stroke-linejoin:round;">
<text x="178000000.000000" y="190300000.000000"
textLength="21645119.000000" font-size="2666666.000000" lengthAdjust="spacingAndGlyphs"
text-anchor="start" opacity="0">Title: Redshift</text>
<g class="stroked-text"><desc>Title: Redshift</desc>
<path d="M178647380 188204761
L179790238 188204761
" />
<path d="M178968809 190204761
L179218809 188204761
" />
<path d="M180206904 190204761
L180373571 188871428
" />
<path d="M180456904 188204761
L180349761 188300000
L180433095 188395238
L180540238 188300000
L180456904 188204761
L180433095 188395238
" />
<path d="M181040238 188871428
L181802142 188871428
" />
<path d="M181409285 188204761
L181195000 189919047
L181266428 190109523
L181445000 190204761
L181635476 190204761
" />
<path d="M182587857 190204761
L182409285 190109523
L182337857 189919047
L182552142 188204761
" />
<path d="M184123571 190109523
L183921190 190204761
L183540238 190204761
L183361666 190109523
L183290238 189919047
L183385476 189157142
L183504523 188966666
L183706904 188871428
L184087857 188871428
L184266428 188966666
L184337857 189157142
L184314047 189347619
L183337857 189538095
" />
<path d="M185087857 190014285
L185171190 190109523
L185064047 190204761
L184980714 190109523
L185087857 190014285
L185064047 190204761
" />
<path d="M185218809 188966666
L185302142 189061904
L185195000 189157142
L185111666 189061904
L185218809 188966666
L185195000 189157142
" />
<path d="M188683095 190204761
L188135476 189252380
" />
<path d="M187540238 190204761
L187790238 188204761
L188552142 188204761
L188730714 188300000
L188814047 188395238
L188885476 188585714
L188849761 188871428
L188730714 189061904
L188623571 189157142
L188421190 189252380
L187659285 189252380
" />
<path d="M190314047 190109523
L190111666 190204761
L189730714 190204761
L189552142 190109523
L189480714 189919047
L189575952 189157142
L189695000 188966666
L189897380 188871428
L190278333 188871428
L190456904 188966666
L190528333 189157142
L190504523 189347619
L189528333 189538095
" />
<path d="M192111666 190204761
L192361666 188204761
" />
<path d="M192123571 190109523
L191921190 190204761
L191540238 190204761
L191361666 190109523
L191278333 190014285
L191206904 189823809
L191278333 189252380
L191397380 189061904
L191504523 188966666
L191706904 188871428
L192087857 188871428
L192266428 188966666
" />
<path d="M192980714 190109523
L193159285 190204761
L193540238 190204761
L193742619 190109523
L193861666 189919047
L193873571 189823809
L193802142 189633333
L193623571 189538095
L193337857 189538095
L193159285 189442857
L193087857 189252380
L193099761 189157142
L193218809 188966666
L193421190 188871428
L193706904 188871428
L193885476 188966666
" />
<path d="M194683095 190204761
L194933095 188204761
" />
<path d="M195540238 190204761
L195671190 189157142
L195599761 188966666
L195421190 188871428
L195135476 188871428
L194933095 188966666
L194825952 189061904
" />
<path d="M196492619 190204761
L196659285 188871428
" />
<path d="M196742619 188204761
L196635476 188300000
L196718809 188395238
L196825952 188300000
L196742619 188204761
L196718809 188395238
" />
<path d="M197325952 188871428
L198087857 188871428
" />
<path d="M197445000 190204761
L197659285 188490476
L197778333 188300000
L197980714 188204761
L198171190 188204761
" />
<path d="M198468809 188871428
L199230714 188871428
" />
<path d="M198837857 188204761
L198623571 189919047
L198695000 190109523
L198873571 190204761
L199064047 190204761
" />
</g></g>
<g style="fill:#000000; fill-opacity:0.0; 
stroke:#000000; stroke-width:150000.000000; stroke-opacity:1; 
stroke-linecap:round; stroke-linejoin:round;">
<path d="M177000000 187500000
L285000000 187500000
" />
<text x="263000000.000000" y="196650001.000000"
textLength="8747143.000000" font-size="2000000.000000" lengthAdjust="spacingAndGlyphs"
text-anchor="start" opacity="0">Id: 6/8</text>
<g class="stroked-text"><desc>Id: 6/8</desc>
<path d="M263454642 196578572
L263454642 195078572
" />
<path d="M264811785 196578572
L264811785 195078572
" />
<path d="M264811785 196507143
L264668928 196578572
L264383214 196578572
L264240357 196507143
L264168928 196435715
L264097500 196292858
L264097500 195864286
L264168928 195721429
L264240357 195650001
L264383214 195578572
L264668928 195578572
L264811785 195650001
" />
<path d="M265526071 196435715
L265597500 196507143
L265526071 196578572
L265454642 196507143
L265526071 196435715
L265526071 196578572
" />
<path d="M265526071 195650001
L265597500 195721429
L265526071 195792858
L265454642 195721429
L265526071 195650001
L265526071 195792858
" />
<path d="M268026071 195078572
L267740357 195078572
L267597500 195150001
L267526071 195221429
L267383214 195435715
L267311785 195721429
L267311785 196292858
L267383214 196435715
L267454642 196507143
L267597500 196578572
L267883214 196578572
L268026071 196507143
L268097500 196435715
L268168928 196292858
L268168928 195935715
L268097500 195792858
L268026071 195721429
L267883214 195650001
L267597500 195650001
L267454642 195721429
L267383214 195792858
L267311785 195935715
" />
<path d="M269883214 195007143
L268597500 196935715
" />
<path d="M270597500 195721429
L270454642 195650001
L270383214 195578572
L270311785 195435715
L270311785 195364286
L270383214 195221429
L270454642 195150001
L270597500 195078572
L270883214 195078572
L271026071 195150001
L271097500 195221429
L271168928 195364286
L271168928 195435715
L271097500 195578572
L271026071 195650001
L270883214 195721429
L270597500 195721429
L270454642 195792858
L270383214 195864286
L270311785 196007143
L270311785 196292858
L270383214 196435715
L270454642 196507143
L270597500 196578572
L270883214 196578572
L271026071 196507143
L271097500 196435715
L271168928 196292858
L271168928 196007143
L271097500 195864286
L271026071 195792858
L270883214 195721429
" />
</g><text x="178000000.000000" y="193850000.000000"
textLength="9409286.000000" font-size="2000000.000000" lengthAdjust="spacingAndGlyphs"
text-anchor="start" opacity="0">Size: A4</text>
<g class="stroked-text"><desc>Size: A4</desc>
<path d="M178383214 193707142
L178597500 193778571
L178954642 193778571
L179097500 193707142
L179168928 193635714
L179240357 193492857
L179240357 193350000
L179168928 193207142
L179097500 193135714
L178954642 193064285
L178668928 192992857
L178526071 192921428
L178454642 192850000
L178383214 192707142
L178383214 192564285
L178454642 192421428
L178526071 192350000
L178668928 192278571
L179026071 192278571
L179240357 192350000
" />
<path d="M179883214 193778571
L179883214 192778571
" />
<path d="M179883214 192278571
L179811785 192350000
L179883214 192421428
L179954642 192350000
L179883214 192278571
L179883214 192421428
" />
<path d="M180454642 192778571
L181240357 192778571
L180454642 193778571
L181240357 193778571
" />
<path d="M182383214 193707142
L182240357 193778571
L181954642 193778571
L181811785 193707142
L181740357 193564285
L181740357 192992857
L181811785 192850000
L181954642 192778571
L182240357 192778571
L182383214 192850000
L182454642 192992857
L182454642 193135714
L181740357 193278571
" />
<path d="M183097500 193635714
L183168928 193707142
L183097500 193778571
L183026071 193707142
L183097500 193635714
L183097500 193778571
" />
<path d="M183097500 192850000
L183168928 192921428
L183097500 192992857
L183026071 192921428
L183097500 192850000
L183097500 192992857
" />
<path d="M184883214 193350000
L185597500 193350000
" />
<path d="M184740357 193778571
L185240357 192278571
L185740357 193778571
" />
<path d="M186883214 192778571
L186883214 193778571
" />
<path d="M186526071 192207142
L186168928 193278571
L187097500 193278571
" />
</g></g>
<g style="fill:#000000; fill-opacity:0.0; 
stroke:#000000; stroke-width:300000.000000; stroke-opacity:1; 
stroke-linecap:round; stroke-linejoin:round;">
<text x="263000000.000000" y="193850000.000000"
textLength="9552143.000000" font-size="2000000.000000" lengthAdjust="spacingAndGlyphs"
text-anchor="start" opacity="0">Rev: 0.2</text>
<g class="stroked-text"><desc>Rev: 0.2</desc>
<path d="M264409285 193778571
L263909285 193064285
" />
<path d="M263552142 193778571
L263552142 192278571
L264123571 192278571
L264266428 192350000
L264337857 192421428
L264409285 192564285
L264409285 192778571
L264337857 192921428
L264266428 192992857
L264123571 193064285
L263552142 193064285
" />
<path d="M265623571 193707142
L265480714 193778571
L265195000 193778571
L265052142 193707142
L264980714 193564285
L264980714 192992857
L265052142 192850000
L265195000 192778571
L265480714 192778571
L265623571 192850000
L265695000 192992857
L265695000 193135714
L264980714 193278571
" />
<path d="M266195000 192778571
L266552142 193778571
L266909285 192778571
" />
<path d="M267480714 193635714
L267552142 193707142
L267480714 193778571
L267409285 193707142
L267480714 193635714
L267480714 193778571
" />
<path d="M267480714 192850000
L267552142 192921428
L267480714 192992857
L267409285 192921428
L267480714 192850000
L267480714 192992857
" />
<path d="M269623571 192278571
L269766428 192278571
L269909285 192350000
L269980714 192421428
L270052142 192564285
L270123571 192850000
L270123571 193207142
L270052142 193492857
L269980714 193635714
L269909285 193707142
L269766428 193778571
L269623571 193778571
L269480714 193707142
L269409285 193635714
L269337857 193492857
L269266428 193207142
L269266428 192850000
L269337857 192564285
L269409285 192421428
L269480714 192350000
L269623571 192278571
" />
<path d="M270766428 193635714
L270837857 193707142
L270766428 193778571
L270695000 193707142
L270766428 193635714
L270766428 193778571
" />
<path d="M271409285 192421428
L271480714 192350000
L271623571 192278571
L271980714 192278571
L272123571 192350000
L272195000 192421428
L272266428 192564285
L272266428 192707142
L272195000 192921428
L271337857 193778571
L272266428 193778571
" />
</g></g>
<g style="fill:#000000; fill-opacity:0.0; 
stroke:#000000; stroke-width:150000.000000; stroke-opacity:1; 
stroke-linecap:round; stroke-linejoin:round;">
<path d="M177000000 191500000
L285000000 191500000
" />
<text x="178000000.000000" y="196650001.000000"
textLength="60390000.000000" font-size="2000000.000000" lengthAdjust="spacingAndGlyphs"
text-anchor="start" opacity="0">KiCad E.D.A. 6.0.7+dfsg-1~bpo11+1 + KiBot v1.3.0</text>
<g class="stroked-text"><desc>KiCad E.D.A. 6.0.7+dfsg-1~bpo11+1 + KiBot v1.3.0</desc>
<path d="M178454642 196578572
L178454642 195078572
" />
<path d="M179311785 196578572
L178668928 195721429
" />
<path d="M179311785 195078572
L178454642 195935715
" />
<path d="M179954642 196578572
L179954642 195578572
" />
<path d="M179954642 195078572
L179883214 195150001
L179954642 195221429
L180026071 195150001
L179954642 195078572
L179954642 195221429
" />
<path d="M181526071 196435715
L181454642 196507143
L181240357 196578572
L181097500 196578572
L180883214 196507143
L180740357 196364286
L180668928 196221429
L180597500 195935715
L180597500 195721429
L180668928 195435715
L180740357 195292858
L180883214 195150001
L181097500 195078572
L181240357 195078572
L181454642 195150001
L181526071 195221429
" />
<path d="M182811785 196578572
L182811785 195792858
L182740357 195650001
L182597500 195578572
L182311785 195578572
L182168928 195650001
" />
<path d="M182811785 196507143
L182668928 196578572
L182311785 196578572
L182168928 196507143
L182097500 196364286
L182097500 196221429
L182168928 196078572
L182311785 196007143
L182668928 196007143
L182811785 195935715
" />
<path d="M184168928 196578572
L184168928 195078572
" />
<path d="M184168928 196507143
L184026071 196578572
L183740357 196578572
L183597500 196507143
L183526071 196435715
L183454642 196292858
L183454642 195864286
L183526071 195721429
L183597500 195650001
L183740357 195578572
L184026071 195578572
L184168928 195650001
" />
<path d="M186026071 195792858
L186526071 195792858
" />
<path d="M186740357 196578572
L186026071 196578572
L186026071 195078572
L186740357 195078572
" />
<path d="M187383214 196435715
L187454642 196507143
L187383214 196578572
L187311785 196507143
L187383214 196435715
L187383214 196578572
" />
<path d="M188097500 196578572
L188097500 195078572
L188454642 195078572
L188668928 195150001
L188811785 195292858
L188883214 195435715
L188954642 195721429
L188954642 195935715
L188883214 196221429
L188811785 196364286
L188668928 196507143
L188454642 196578572
L188097500 196578572
" />
<path d="M189597500 196435715
L189668928 196507143
L189597500 196578572
L189526071 196507143
L189597500 196435715
L189597500 196578572
" />
<path d="M190240357 196150001
L190954642 196150001
" />
<path d="M190097500 196578572
L190597500 195078572
L191097500 196578572
" />
<path d="M191597500 196435715
L191668928 196507143
L191597500 196578572
L191526071 196507143
L191597500 196435715
L191597500 196578572
" />
<path d="M194097500 195078572
L193811785 195078572
L193668928 195150001
L193597500 195221429
L193454642 195435715
L193383214 195721429
L193383214 196292858
L193454642 196435715
L193526071 196507143
L193668928 196578572
L193954642 196578572
L194097500 196507143
L194168928 196435715
L194240357 196292858
L194240357 195935715
L194168928 195792858
L194097500 195721429
L193954642 195650001
L193668928 195650001
L193526071 195721429
L193454642 195792858
L193383214 195935715
" />
<path d="M194883214 196435715
L194954642 196507143
L194883214 196578572
L194811785 196507143
L194883214 196435715
L194883214 196578572
" />
<path d="M195883214 195078572
L196026071 195078572
L196168928 195150001
L196240357 195221429
L196311785 195364286
L196383214 195650001
L196383214 196007143
L196311785 196292858
L196240357 196435715
L196168928 196507143
L196026071 196578572
L195883214 196578572
L195740357 196507143
L195668928 196435715
L195597500 196292858
L195526071 196007143
L195526071 195650001
L195597500 195364286
L195668928 195221429
L195740357 195150001
L195883214 195078572
" />
<path d="M197026071 196435715
L197097500 196507143
L197026071 196578572
L196954642 196507143
L197026071 196435715
L197026071 196578572
" />
<path d="M197597500 195078572
L198597500 195078572
L197954642 196578572
" />
<path d="M199168928 196007143
L200311785 196007143
" />
<path d="M199740357 196578572
L199740357 195435715
" />
<path d="M201668928 196578572
L201668928 195078572
" />
<path d="M201668928 196507143
L201526071 196578572
L201240357 196578572
L201097500 196507143
L201026071 196435715
L200954642 196292858
L200954642 195864286
L201026071 195721429
L201097500 195650001
L201240357 195578572
L201526071 195578572
L201668928 195650001
" />
<path d="M202168928 195578572
L202740357 195578572
" />
<path d="M202383214 196578572
L202383214 195292858
L202454642 195150001
L202597500 195078572
L202740357 195078572
" />
<path d="M203168928 196507143
L203311785 196578572
L203597500 196578572
L203740357 196507143
L203811785 196364286
L203811785 196292858
L203740357 196150001
L203597500 196078572
L203383214 196078572
L203240357 196007143
L203168928 195864286
L203168928 195792858
L203240357 195650001
L203383214 195578572
L203597500 195578572
L203740357 195650001
" />
<path d="M205097500 195578572
L205097500 196792858
L205026071 196935715
L204954642 197007143
L204811785 197078572
L204597500 197078572
L204454642 197007143
" />
<path d="M205097500 196507143
L204954642 196578572
L204668928 196578572
L204526071 196507143
L204454642 196435715
L204383214 196292858
L204383214 195864286
L204454642 195721429
L204526071 195650001
L204668928 195578572
L204954642 195578572
L205097500 195650001
" />
<path d="M205811785 196007143
L206954642 196007143
" />
<path d="M208454642 196578572
L207597500 196578572
" />
<path d="M208026071 196578572
L208026071 195078572
L207883214 195292858
L207740357 195435715
L207597500 195507143
" />
<path d="M208883214 196007143
L208954642 195935715
L209097500 195864286
L209383214 196007143
L209526071 195935715
L209597500 195864286
" />
<path d="M210168928 196578572
L210168928 195078572
" />
<path d="M210168928 195650001
L210311785 195578572
L210597500 195578572
L210740357 195650001
L210811785 195721429
L210883214 195864286
L210883214 196292858
L210811785 196435715
L210740357 196507143
L210597500 196578572
L210311785 196578572
L210168928 196507143
" />
<path d="M211526071 195578572
L211526071 197078572
" />
<path d="M211526071 195650001
L211668928 195578572
L211954642 195578572
L212097500 195650001
L212168928 195721429
L212240357 195864286
L212240357 196292858
L212168928 196435715
L212097500 196507143
L211954642 196578572
L211668928 196578572
L211526071 196507143
" />
<path d="M213097500 196578572
L212954642 196507143
L212883214 196435715
L212811785 196292858
L212811785 195864286
L212883214 195721429
L212954642 195650001
L213097500 195578572
L213311785 195578572
L213454642 195650001
L213526071 195721429
L213597500 195864286
L213597500 196292858
L213526071 196435715
L213454642 196507143
L213311785 196578572
L213097500 196578572
" />
<path d="M215026071 196578572
L214168928 196578572
" />
<path d="M214597500 196578572
L214597500 195078572
L214454642 195292858
L214311785 195435715
L214168928 195507143
" />
<path d="M216454642 196578572
L215597500 196578572
" />
<path d="M216026071 196578572
L216026071 195078572
L215883214 195292858
L215740357 195435715
L215597500 195507143
" />
<path d="M217097500 196007143
L218240357 196007143
" />
<path d="M217668928 196578572
L217668928 195435715
" />
<path d="M219740357 196578572
L218883214 196578572
" />
<path d="M219311785 196578572
L219311785 195078572
L219168928 195292858
L219026071 195435715
L218883214 195507143
" />
<path d="M221526071 196007143
L222668928 196007143
" />
<path d="M222097500 196578572
L222097500 195435715
" />
<path d="M224526071 196578572
L224526071 195078572
" />
<path d="M225383214 196578572
L224740357 195721429
" />
<path d="M225383214 195078572
L224526071 195935715
" />
<path d="M226026071 196578572
L226026071 195578572
" />
<path d="M226026071 195078572
L225954642 195150001
L226026071 195221429
L226097500 195150001
L226026071 195078572
L226026071 195221429
" />
<path d="M227240357 195792858
L227454642 195864286
L227526071 195935715
L227597500 196078572
L227597500 196292858
L227526071 196435715
L227454642 196507143
L227311785 196578572
L226740357 196578572
L226740357 195078572
L227240357 195078572
L227383214 195150001
L227454642 195221429
L227526071 195364286
L227526071 195507143
L227454642 195650001
L227383214 195721429
L227240357 195792858
L226740357 195792858
" />
<path d="M228454642 196578572
L228311785 196507143
L228240357 196435715
L228168928 196292858
L228168928 195864286
L228240357 195721429
L228311785 195650001
L228454642 195578572
L228668928 195578572
L228811785 195650001
L228883214 195721429
L228954642 195864286
L228954642 196292858
L228883214 196435715
L228811785 196507143
L228668928 196578572
L228454642 196578572
" />
<path d="M229383214 195578572
L229954642 195578572
" />
<path d="M229597500 195078572
L229597500 196364286
L229668928 196507143
L229811785 196578572
L229954642 196578572
" />
<path d="M231454642 195578572
L231811785 196578572
L232168928 195578572
" />
<path d="M233526071 196578572
L232668928 196578572
" />
<path d="M233097500 196578572
L233097500 195078572
L232954642 195292858
L232811785 195435715
L232668928 195507143
" />
<path d="M234168928 196435715
L234240357 196507143
L234168928 196578572
L234097500 196507143
L234168928 196435715
L234168928 196578572
" />
<path d="M234740357 195078572
L235668928 195078572
L235168928 195650001
L235383214 195650001
L235526071 195721429
L235597500 195792858
L235668928 195935715
L235668928 196292858
L235597500 196435715
L235526071 196507143
L235383214 196578572
L234954642 196578572
L234811785 196507143
L234740357 196435715
" />
<path d="M236311785 196435715
L236383214 196507143
L236311785 196578572
L236240357 196507143
L236311785 196435715
L236311785 196578572
" />
<path d="M237311785 195078572
L237454642 195078572
L237597500 195150001
L237668928 195221429
L237740357 195364286
L237811785 195650001
L237811785 196007143
L237740357 196292858
L237668928 196435715
L237597500 196507143
L237454642 196578572
L237311785 196578572
L237168928 196507143
L237097500 196435715
L237026071 196292858
L236954642 196007143
L236954642 195650001
L237026071 195364286
L237097500 195221429
L237168928 195150001
L237311785 195078572
" />
</g><path d="M177000000 194500000
L285000000 194500000
" />
<text x="200000000.000000" y="193850000.000000"
textLength="22195000.000000" font-size="2000000.000000" lengthAdjust="spacingAndGlyphs"
text-anchor="start" opacity="0">Date: 2021-12-22</text>
<g class="stroked-text"><desc>Date: 2021-12-22</desc>
<path d="M200454642 193778571
L200454642 192278571
L200811785 192278571
L201026071 192350000
L201168928 192492857
L201240357 192635714
L201311785 192921428
L201311785 193135714
L201240357 193421428
L201168928 193564285
L201026071 193707142
L200811785 193778571
L200454642 193778571
" />
<path d="M202597500 193778571
L202597500 192992857
L202526071 192850000
L202383214 192778571
L202097500 192778571
L201954642 192850000
" />
<path d="M202597500 193707142
L202454642 193778571
L202097500 193778571
L201954642 193707142
L201883214 193564285
L201883214 193421428
L201954642 193278571
L202097500 193207142
L202454642 193207142
L202597500 193135714
" />
<path d="M203097500 192778571
L203668928 192778571
" />
<path d="M203311785 192278571
L203311785 193564285
L203383214 193707142
L203526071 193778571
L203668928 193778571
" />
<path d="M204740357 193707142
L204597500 193778571
L204311785 193778571
L204168928 193707142
L204097500 193564285
L204097500 192992857
L204168928 192850000
L204311785 192778571
L204597500 192778571
L204740357 192850000
L204811785 192992857
L204811785 193135714
L204097500 193278571
" />
<path d="M205454642 193635714
L205526071 193707142
L205454642 193778571
L205383214 193707142
L205454642 193635714
L205454642 193778571
" />
<path d="M205454642 192850000
L205526071 192921428
L205454642 192992857
L205383214 192921428
L205454642 192850000
L205454642 192992857
" />
<path d="M207240357 192421428
L207311785 192350000
L207454642 192278571
L207811785 192278571
L207954642 192350000
L208026071 192421428
L208097500 192564285
L208097500 192707142
L208026071 192921428
L207168928 193778571
L208097500 193778571
" />
<path d="M209026071 192278571
L209168928 192278571
L209311785 192350000
L209383214 192421428
L209454642 192564285
L209526071 192850000
L209526071 193207142
L209454642 193492857
L209383214 193635714
L209311785 193707142
L209168928 193778571
L209026071 193778571
L208883214 193707142
L208811785 193635714
L208740357 193492857
L208668928 193207142
L208668928 192850000
L208740357 192564285
L208811785 192421428
L208883214 192350000
L209026071 192278571
" />
<path d="M210097500 192421428
L210168928 192350000
L210311785 192278571
L210668928 192278571
L210811785 192350000
L210883214 192421428
L210954642 192564285
L210954642 192707142
L210883214 192921428
L210026071 193778571
L210954642 193778571
" />
<path d="M212383214 193778571
L211526071 193778571
" />
<path d="M211954642 193778571
L211954642 192278571
L211811785 192492857
L211668928 192635714
L211526071 192707142
" />
<path d="M213026071 193207142
L214168928 193207142
" />
<path d="M215668928 193778571
L214811785 193778571
" />
<path d="M215240357 193778571
L215240357 192278571
L215097500 192492857
L214954642 192635714
L214811785 192707142
" />
<path d="M216240357 192421428
L216311785 192350000
L216454642 192278571
L216811785 192278571
L216954642 192350000
L217026071 192421428
L217097500 192564285
L217097500 192707142
L217026071 192921428
L216168928 193778571
L217097500 193778571
" />
<path d="M217740357 193207142
L218883214 193207142
" />
<path d="M219526071 192421428
L219597500 192350000
L219740357 192278571
L220097500 192278571
L220240357 192350000
L220311785 192421428
L220383214 192564285
L220383214 192707142
L220311785 192921428
L219454642 193778571
L220383214 193778571
" />
<path d="M220954642 192421428
L221026071 192350000
L221168928 192278571
L221526071 192278571
L221668928 192350000
L221740357 192421428
L221811785 192564285
L221811785 192707142
L221740357 192921428
L220883214 193778571
L221811785 193778571
" />
</g><text x="286000000.000000" y="185650000.000000"
textLength="1495000.000000" font-size="1733333.000000" lengthAdjust="spacingAndGlyphs"
text-anchor="middle" opacity="0">D</text>
<g class="stroked-text"><desc>D</desc>
<path d="M285659523 185588095
L285659523 184288095
L285969047 184288095
L286154761 184350000
L286278571 184473809
L286340476 184597619
L286402380 184845238
L286402380 185030952
L286340476 185278571
L286278571 185402380
L286154761 185526190
L285969047 185588095
L285659523 185588095
" />
</g><text x="286000000.000000" y="135650000.000000"
textLength="1495000.000000" font-size="1733333.000000" lengthAdjust="spacingAndGlyphs"
text-anchor="middle" opacity="0">C</text>
<g class="stroked-text"><desc>C</desc>
<path d="M286402380 135464285
L286340476 135526190
L286154761 135588095
L286030952 135588095
L285845238 135526190
L285721428 135402380
L285659523 135278571
L285597619 135030952
L285597619 134845238
L285659523 134597619
L285721428 134473809
L285845238 134350000
L286030952 134288095
L286154761 134288095
L286340476 134350000
L286402380 134411904
" />
</g><text x="286000000.000000" y="85650000.000000"
textLength="1495000.000000" font-size="1733333.000000" lengthAdjust="spacingAndGlyphs"
text-anchor="middle" opacity="0">B</text>
<g class="stroked-text"><desc>B</desc>
<path d="M286092857 84907142
L286278571 84969047
L286340476 85030952
L286402380 85154761
L286402380 85340476
L286340476 85464285
L286278571 85526190
L286154761 85588095
L285659523 85588095
L285659523 84288095
L286092857 84288095
L286216666 84350000
L286278571 84411904
L286340476 84535714
L286340476 84659523
L286278571 84783333
L286216666 84845238
L286092857 84907142
L285659523 84907142
" />
</g><text x="286000000.000000" y="35650000.000000"
textLength="1309286.000000" font-size="1733333.000000" lengthAdjust="spacingAndGlyphs"
text-anchor="middle" opacity="0">A</text>
<g class="stroked-text"><desc>A</desc>
<path d="M285690476 35216666
L286309523 35216666
" />
<path d="M285566666 35588095
L286000000 34288095
L286433333 35588095
" />
</g><path d="M287000000 160000000
L285000000 160000000
" />
<path d="M287000000 110000000
L285000000 110000000
" />
<path d="M287000000 60000000
L285000000 60000000
" />
<text x="11000000.000000" y="185650000.000000"
textLength="1495000.000000" font-size="1733333.000000" lengthAdjust="spacingAndGlyphs"
text-anchor="middle" opacity="0">D</text>
<g class="stroked-text"><desc>D</desc>
<path d="M10659523 185588095
L10659523 184288095
L10969047 184288095
L11154761 184350000
L11278571 184473809
L11340476 184597619
L11402380 184845238
L11402380 185030952
L11340476 185278571
L11278571 185402380
L11154761 185526190
L10969047 185588095
L10659523 185588095
" />
</g><text x="11000000.000000" y="135650000.000000"
textLength="1495000.000000" font-size="1733333.000000" lengthAdjust="spacingAndGlyphs"
text-anchor="middle" opacity="0">C</text>
<g class="stroked-text"><desc>C</desc>
<path d="M11402380 135464285
L11340476 135526190
L11154761 135588095
L11030952 135588095
L10845238 135526190
L10721428 135402380
L10659523 135278571
L10597619 135030952
L10597619 134845238
L10659523 134597619
L10721428 134473809
L10845238 134350000
L11030952 134288095
L11154761 134288095
L11340476 134350000
L11402380 134411904
" />
</g><text x="11000000.000000" y="85650000.000000"
textLength="1495000.000000" font-size="1733333.000000" lengthAdjust="spacingAndGlyphs"
text-anchor="middle" opacity="0">B</text>
<g class="stroked-text"><desc>B</desc>
<path d="M11092857 84907142
L11278571 84969047
L11340476 85030952
L11402380 85154761
L11402380 85340476
L11340476 85464285
L11278571 85526190
L11154761 85588095
L10659523 85588095
L10659523 84288095
L11092857 84288095
L11216666 84350000
L11278571 84411904
L11340476 84535714
L11340476 84659523
L11278571 84783333
L11216666 84845238
L11092857 84907142
L10659523 84907142
" />
</g><text x="11000000.000000" y="35650000.000000"
textLength="1309286.000000" font-size="1733333.000000" lengthAdjust="spacingAndGlyphs"
text-anchor="middle" opacity="0">A</text>
<g class="stroked-text"><desc>A</desc>
<path d="M10690476 35216666
L11309523 35216666
" />
<path d="M10566666 35588095
L11000000 34288095
L11433333 35588095
" />
</g><path d="M10000000 160000000
L12000000 160000000
" />
<path d="M10000000 110000000
L12000000 110000000
" />
<path d="M10000000 60000000
L12000000 60000000
" />
<text x="285000000.000000" y="199650000.000000"
textLength="1433095.000000" font-size="1733333.000000" lengthAdjust="spacingAndGlyphs"
text-anchor="start" opacity="0">6</text>
<g class="stroked-text"><desc>6</desc>
<path d="M285964166 198288095
L285716547 198288095
L285592738 198350000
L285530833 198411904
L285407023 198597619
L285345119 198845238
L285345119 199340476
L285407023 199464285
L285468928 199526190
L285592738 199588095
L285840357 199588095
L285964166 199526190
L286026071 199464285
L286087976 199340476
L286087976 199030952
L286026071 198907142
L285964166 198845238
L285840357 198783333
L285592738 198783333
L285468928 198845238
L285407023 198907142
L285345119 199030952
" />
</g><text x="235000000.000000" y="199650000.000000"
textLength="1433095.000000" font-size="1733333.000000" lengthAdjust="spacingAndGlyphs"
text-anchor="start" opacity="0">5</text>
<g class="stroked-text"><desc>5</desc>
<path d="M236026071 198288095
L235407023 198288095
L235345119 198907142
L235407023 198845238
L235530833 198783333
L235840357 198783333
L235964166 198845238
L236026071 198907142
L236087976 199030952
L236087976 199340476
L236026071 199464285
L235964166 199526190
L235840357 199588095
L235530833 199588095
L235407023 199526190
L235345119 199464285
" />
</g><text x="185000000.000000" y="199650000.000000"
textLength="1433095.000000" font-size="1733333.000000" lengthAdjust="spacingAndGlyphs"
text-anchor="start" opacity="0">4</text>
<g class="stroked-text"><desc>4</desc>
<path d="M185964166 198721428
L185964166 199588095
" />
<path d="M185654642 198226190
L185345119 199154761
L186149880 199154761
" />
</g><text x="135000000.000000" y="199650000.000000"
textLength="1433095.000000" font-size="1733333.000000" lengthAdjust="spacingAndGlyphs"
text-anchor="start" opacity="0">3</text>
<g class="stroked-text"><desc>3</desc>
<path d="M135283214 198288095
L136087976 198288095
L135654642 198783333
L135840357 198783333
L135964166 198845238
L136026071 198907142
L136087976 199030952
L136087976 199340476
L136026071 199464285
L135964166 199526190
L135840357 199588095
L135468928 199588095
L135345119 199526190
L135283214 199464285
" />
</g><text x="85000000.000000" y="199650000.000000"
textLength="1433095.000000" font-size="1733333.000000" lengthAdjust="spacingAndGlyphs"
text-anchor="start" opacity="0">2</text>
<g class="stroked-text"><desc>2</desc>
<path d="M85345119 198411904
L85407023 198350000
L85530833 198288095
L85840357 198288095
L85964166 198350000
L86026071 198411904
L86087976 198535714
L86087976 198659523
L86026071 198845238
L85283214 199588095
L86087976 199588095
" />
</g><text x="35000000.000000" y="199650000.000000"
textLength="1433095.000000" font-size="1733333.000000" lengthAdjust="spacingAndGlyphs"
text-anchor="start" opacity="0">1</text>
<g class="stroked-text"><desc>1</desc>
<path d="M36087976 199588095
L35345119 199588095
" />
<path d="M35716547 199588095
L35716547 198288095
L35592738 198473809
L35468928 198597619
L35345119 198659523
" />
</g><path d="M260000000 198000000
L260000000 200000000
" />
<path d="M210000000 198000000
L210000000 200000000
" />
<path d="M160000000 198000000
L160000000 200000000
" />
<path d="M110000000 198000000
L110000000 200000000
" />
<path d="M60000000 198000000
L60000000 200000000
" />
<text x="285000000.000000" y="11650000.000000"
textLength="1433095.000000" font-size="1733333.000000" lengthAdjust="spacingAndGlyphs"
text-anchor="start" opacity="0">6</text>
<g class="stroked-text"><desc>6</desc>
<path d="M285964166 10288095
L285716547 10288095
L285592738 10350000
L285530833 10411904
L285407023 10597619
L285345119 10845238
L285345119 11340476
L285407023 11464285
L285468928 11526190
L285592738 11588095
L285840357 11588095
L285964166 11526190
L286026071 11464285
L286087976 11340476
L286087976 11030952
L286026071 10907142
L285964166 10845238
L285840357 10783333
L285592738 10783333
L285468928 10845238
L285407023 10907142
L285345119 11030952
" />
</g><text x="235000000.000000" y="11650000.000000"
textLength="1433095.000000" font-size="1733333.000000" lengthAdjust="spacingAndGlyphs"
text-anchor="start" opacity="0">5</text>
<g class="stroked-text"><desc>5</desc>
<path d="M236026071 10288095
L235407023 10288095
L235345119 10907142
L235407023 10845238
L235530833 10783333
L235840357 10783333
L235964166 10845238
L236026071 10907142
L236087976 11030952
L236087976 11340476
L236026071 11464285
L235964166 11526190
L235840357 11588095
L235530833 11588095
L235407023 11526190
L235345119 11464285
" />
</g><text x="185000000.000000" y="11650000.000000"
textLength="1433095.000000" font-size="1733333.000000" lengthAdjust="spacingAndGlyphs"
text-anchor="start" opacity="0">4</text>
<g class="stroked-text"><desc>4</desc>
<path d="M185964166 10721428
L185964166 11588095
" />
<path d="M185654642 10226190
L185345119 11154761
L186149880 11154761
" />
</g><text x="135000000.000000" y="11650000.000000"
textLength="1433095.000000" font-size="1733333.000000" lengthAdjust="spacingAndGlyphs"
text-anchor="start" opacity="0">3</text>
<g class="stroked-text"><desc>3</desc>
<path d="M135283214 10288095
L136087976 10288095
L135654642 10783333
L135840357 10783333
L135964166 10845238
L136026071 10907142
L136087976 11030952
L136087976 11340476
L136026071 11464285
L135964166 11526190
L135840357 11588095
L135468928 11588095
L135345119 11526190
L135283214 11464285
" />
</g><text x="85000000.000000" y="11650000.000000"
textLength="1433095.000000" font-size="1733333.000000" lengthAdjust="spacingAndGlyphs"
text-anchor="start" opacity="0">2</text>
<g class="stroked-text"><desc>2</desc>
<path d="M85345119 10411904
L85407023 10350000
L85530833 10288095
L85840357 10288095
L85964166 10350000
L86026071 10411904
L86087976 10535714
L86087976 10659523
L86026071 10845238
L85283214 11588095
L86087976 11588095
" />
</g><text x="35000000.000000" y="11650000.000000"
textLength="1433095.000000" font-size="1733333.000000" lengthAdjust="spacingAndGlyphs"
text-anchor="start" opacity="0">1</text>
<g class="stroked-text"><desc>1</desc>
<path d="M36087976 11588095
L35345119 11588095
" />
<path d="M35716547 11588095
L35716547 10288095
L35592738 10473809
L35468928 10597619
L35345119 10659523
" />
</g><path d="M260000000 12000000
L260000000 10000000
" />
<path d="M210000000 12000000
L210000000 10000000
" />
<path d="M160000000 12000000
L160000000 10000000
" />
<path d="M110000000 12000000
L110000000 10000000
" />
<path d="M60000000 12000000
L60000000 10000000
" />
<path d="M12000000 12000000
L285000000 12000000
" />
<path d="M285000000 12000000
L285000000 198000000
" />
<path d="M285000000 198000000
L12000000 198000000
" />
<path d="M12000000 198000000
L12000000 12000000
" />
<path d="M10000000 10000000
L287000000 10000000
" />
<path d="M287000000 10000000
L287000000 200000000
" />
<path d="M287000000 200000000
L10000000 200000000
" />
<path d="M10000000 200000000
L10000000 10000000
" />
<path d="M177000000 166000000
L285000000 166000000
" />
<path d="M285000000 166000000
L285000000 198000000
" />
<path d="M285000000 198000000
L177000000 198000000
" />
<path d="M177000000 198000000
L177000000 166000000
" />
<g >
</g>
<g >
</g>
<g >
</g>
<g >
</g>
<g >
</g>
<g >
</g>
<g >
</g>
<g >
</g>
<g >
</g>
<g >
</g>
<g >
</g>
<g >
</g>
<g >
</g>
<g >
</g>
<g >
</g>
<g >
</g>
<g >
</g>
<g >
</g>
<g >
</g>
<g >
</g>
<g >
</g>
<g >
</g>
<g >
</g>
<g >
</g>
<g >
</g>
<g >
</g>
<g >
</g>
<g >
</g>
<g >
</g>
<g >
</g>
<g >
</g>
<g >
</g>
<g >
</g>
<g >
</g>
<g >
</g>
<g >
</g>
<g >
</g>
<g >
</g>
<g >
</g>
<g >
</g>
<g >
</g>
<g >
</g>
<g >
</g>
<g >
</g>
<g >
</g>
<g >
</g>
<g >
</g>
<g >
</g>
<g >
</g>
<g >
</g>
<g >
</g>
<g >
</g>
<g >
</g>
<g >
</g>
<g >
</g>
<g >
</g>
<g >
</g>
<g >
</g>
<g >
</g>
<g >
</g>
<g >
</g>
<g >
</g>
<g >
</g>
<g >
</g>
<g >
</g>
<g >
</g>
<g >
</g>
<g >
</g>
<g >
</g>
<g >
</g>
<g >
</g>
<g >
</g>
<g >
</g>
<g >
</g>
<g >
</g>
<g >
</g>
<g >
</g>
<g >
</g>
<g >
</g>
<g >
</g>
</g> 
</svg>
