<?xml version="1.0" standalone="no"?>
 <!DOCTYPE svg PUBLIC "-//W3C//DTD SVG 1.1//EN" 
 "http://www.w3.org/Graphics/SVG/1.1/DTD/svg11.dtd"> 
<svg
  xmlns:svg="http://www.w3.org/2000/svg"
  xmlns="http://www.w3.org/2000/svg"
  xmlns:xlink="http://www.w3.org/1999/xlink"
  version="1.1"
  width="29.700220cm" height="21.000720cm" viewBox="0 0 297002200 210007200">
<title>SVG Picture created as redshift-F_Courtyard.svg date 2022/10/07 10:39:34 </title>
  <desc>Picture generated by PCBNEW </desc>
<g style="fill:#000000; fill-opacity:1.000000;stroke:#000000; stroke-opacity:1.000000;
stroke-linecap:round; stroke-linejoin:round;"
 transform="translate(0 0) scale(1 1)">
</g>
<g style="fill:#000000; fill-opacity:0.0; 
stroke:#000000; stroke-width:0.000000; stroke-opacity:1; 
stroke-linecap:round; stroke-linejoin:round;">
</g>
<g style="fill:#000000; fill-opacity:0.0; 
stroke:#000000; stroke-width:50000.000000; stroke-opacity:1; 
stroke-linecap:round; stroke-linejoin:round;">
<path d="M144070000 96220000
L144070000 95280000
" />
<path d="M144070000 95280000
L145930000 95280000
" />
<path d="M145930000 95280000
L145930000 96220000
" />
<path d="M145930000 96220000
L144070000 96220000
" />
<path d="M139570000 64780000
L141430000 64780000
" />
<path d="M141430000 64780000
L141430000 65720000
" />
<path d="M141430000 65720000
L139570000 65720000
" />
<path d="M139570000 65720000
L139570000 64780000
" />
<path d="M142360000 93960000
L142360000 93040000
" />
<path d="M144180000 93040000
L144180000 93960000
" />
<path d="M144180000 93960000
L142360000 93960000
" />
<path d="M142360000 93040000
L144180000 93040000
" />
<path d="M132910000 91040000
L132910000 91960000
" />
<path d="M132910000 91960000
L131090000 91960000
" />
<path d="M131090000 91960000
L131090000 91040000
" />
<path d="M131090000 91040000
L132910000 91040000
" />
<path d="M132910000 89040000
L132910000 89960000
" />
<path d="M132910000 89960000
L131090000 89960000
" />
<path d="M131090000 89040000
L132910000 89040000
" />
<path d="M131090000 89960000
L131090000 89040000
" />
<path d="M148090000 66640000
L149910000 66640000
" />
<path d="M149910000 67560000
L148090000 67560000
" />
<path d="M149910000 66640000
L149910000 67560000
" />
<path d="M148090000 67560000
L148090000 66640000
" />
<path d="M139540000 65820000
L140460000 65820000
" />
<path d="M139540000 67640000
L139540000 65820000
" />
<path d="M140460000 65820000
L140460000 67640000
" />
<path d="M140460000 67640000
L139540000 67640000
" />
<path d="M137180000 88460000
L135360000 88460000
" />
<path d="M137180000 87540000
L137180000 88460000
" />
<path d="M135360000 87540000
L137180000 87540000
" />
<path d="M135360000 88460000
L135360000 87540000
" />
<path d="M145660000 109710000
L143840000 109710000
" />
<path d="M145660000 108790000
L145660000 109710000
" />
<path d="M143840000 109710000
L143840000 108790000
" />
<path d="M143840000 108790000
L145660000 108790000
" />
<path d="M142075000 95220000
L142075000 94280000
" />
<path d="M143935000 94280000
L143935000 95220000
" />
<path d="M143935000 95220000
L142075000 95220000
" />
<path d="M142075000 94280000
L143935000 94280000
" />
<path d="M142600000 54150000
L132400000 54150000
" />
<path d="M132400000 54150000
L132400000 62580000
" />
<path d="M142600000 62580000
L142600000 54150000
" />
<path d="M132400000 62580000
L142600000 62580000
" />
<path d="M133230000 85520000
L133230000 88480000
" />
<path d="M131770000 85520000
L133230000 85520000
" />
<path d="M133230000 88480000
L131770000 88480000
" />
<path d="M131770000 88480000
L131770000 85520000
" />
<path d="M142070000 95280000
L143930000 95280000
" />
<path d="M143930000 95280000
L143930000 96220000
" />
<path d="M142070000 96220000
L142070000 95280000
" />
<path d="M143930000 96220000
L142070000 96220000
" />
<path d="M147590000 105710000
L147590000 104790000
" />
<path d="M149410000 105710000
L147590000 105710000
" />
<path d="M149410000 104790000
L149410000 105710000
" />
<path d="M147590000 104790000
L149410000 104790000
" />
<path d="M146900000 108180000
L149100000 108180000
" />
<path d="M149100000 105820000
L149100000 108180000
" />
<path d="M149100000 105820000
L146900000 105820000
" />
<path d="M146900000 108180000
L146900000 105820000
" />
<path d="M136890000 97540000
L136890000 98460000
" />
<path d="M135070000 97540000
L136890000 97540000
" />
<path d="M135070000 98460000
L135070000 97540000
" />
<path d="M136890000 98460000
L135070000 98460000
" />
<path d="M145710000 88910000
L144790000 88910000
" />
<path d="M144790000 87090000
L145710000 87090000
" />
<path d="M144790000 88910000
L144790000 87090000
" />
<path d="M145710000 87090000
L145710000 88910000
" />
<path d="M121320000 86780000
L123180000 86780000
" />
<path d="M121320000 87720000
L121320000 86780000
" />
<path d="M123180000 86780000
L123180000 87720000
" />
<path d="M123180000 87720000
L121320000 87720000
" />
<path d="M142000000 88950000
L144600000 88950000
" />
<path d="M144600000 88950000
L144600000 86150000
" />
<path d="M142000000 86150000
L142000000 88950000
" />
<path d="M144600000 86150000
L142000000 86150000
" />
<path d="M133040000 65660000
L133040000 63840000
" />
<path d="M133960000 63840000
L133960000 65660000
" />
<path d="M133960000 65660000
L133040000 65660000
" />
<path d="M133040000 63840000
L133960000 63840000
" />
<path d="M141895000 65737500
L141895000 68262500
" />
<path d="M145505000 68262500
L145505000 65737500
" />
<path d="M145505000 65737500
L141895000 65737500
" />
<path d="M141895000 68262500
L145505000 68262500
" />
<path d="M143930000 85960000
L142110000 85960000
" />
<path d="M142110000 85040000
L143930000 85040000
" />
<path d="M143930000 85040000
L143930000 85960000
" />
<path d="M142110000 85960000
L142110000 85040000
" />
<path d="M142070000 90960000
L142070000 90040000
" />
<path d="M142070000 90040000
L143890000 90040000
" />
<path d="M143890000 90960000
L142070000 90960000
" />
<path d="M143890000 90040000
L143890000 90960000
" />
<path d="M128070000 110780000
L129930000 110780000
" />
<path d="M129930000 111720000
L128070000 111720000
" />
<path d="M128070000 111720000
L128070000 110780000
" />
<path d="M129930000 110780000
L129930000 111720000
" />
<path d="M132910000 90960000
L131090000 90960000
" />
<path d="M131090000 90040000
L132910000 90040000
" />
<path d="M131090000 90960000
L131090000 90040000
" />
<path d="M132910000 90040000
L132910000 90960000
" />
<path d="M155600000 99650000
L155600000 103350000
" />
<path d="M149900000 99650000
L155600000 99650000
" />
<path d="M149900000 103350000
L149900000 99650000
" />
<path d="M155600000 103350000
L149900000 103350000
" />
<path d="M143840000 106710000
L143840000 105790000
" />
<path d="M145660000 106710000
L143840000 106710000
" />
<path d="M143840000 105790000
L145660000 105790000
" />
<path d="M145660000 105790000
L145660000 106710000
" />
<path d="M121180000 86780000
L121180000 87720000
" />
<path d="M119320000 87720000
L119320000 86780000
" />
<path d="M121180000 87720000
L119320000 87720000
" />
<path d="M119320000 86780000
L121180000 86780000
" />
<path d="M158530000 98930000
L158530000 97070000
" />
<path d="M159470000 98930000
L158530000 98930000
" />
<path d="M159470000 97070000
L159470000 98930000
" />
<path d="M158530000 97070000
L159470000 97070000
" />
<path d="M138590000 88460000
L138590000 87540000
" />
<path d="M140410000 87540000
L140410000 88460000
" />
<path d="M138590000 87540000
L140410000 87540000
" />
<path d="M140410000 88460000
L138590000 88460000
" />
<path d="M132030000 63820000
L132970000 63820000
" />
<path d="M132030000 65680000
L132030000 63820000
" />
<path d="M132970000 63820000
L132970000 65680000
" />
<path d="M132970000 65680000
L132030000 65680000
" />
<path d="M133090000 98460000
L133090000 97540000
" />
<path d="M133090000 97540000
L134910000 97540000
" />
<path d="M134910000 97540000
L134910000 98460000
" />
<path d="M134910000 98460000
L133090000 98460000
" />
<path d="M126060000 111720000
L126060000 110780000
" />
<path d="M126060000 110780000
L127920000 110780000
" />
<path d="M127920000 110780000
L127920000 111720000
" />
<path d="M127920000 111720000
L126060000 111720000
" />
<path d="M140470000 62820000
L140470000 64680000
" />
<path d="M139530000 64680000
L139530000 62820000
" />
<path d="M140470000 64680000
L139530000 64680000
" />
<path d="M139530000 62820000
L140470000 62820000
" />
<path d="M148070000 67730000
L149930000 67730000
" />
<path d="M148070000 68670000
L148070000 67730000
" />
<path d="M149930000 68670000
L148070000 68670000
" />
<path d="M149930000 67730000
L149930000 68670000
" />
<path d="M145660000 103460000
L143840000 103460000
" />
<path d="M143840000 103460000
L143840000 102540000
" />
<path d="M145660000 102540000
L145660000 103460000
" />
<path d="M143840000 102540000
L145660000 102540000
" />
<path d="M148660000 109210000
L146840000 109210000
" />
<path d="M146840000 108290000
L148660000 108290000
" />
<path d="M146840000 109210000
L146840000 108290000
" />
<path d="M148660000 108290000
L148660000 109210000
" />
<path d="M137070000 97540000
L138890000 97540000
" />
<path d="M137070000 98460000
L137070000 97540000
" />
<path d="M138890000 97540000
L138890000 98460000
" />
<path d="M138890000 98460000
L137070000 98460000
" />
<path d="M142340000 92960000
L142340000 92040000
" />
<path d="M144160000 92960000
L142340000 92960000
" />
<path d="M144160000 92040000
L144160000 92960000
" />
<path d="M142340000 92040000
L144160000 92040000
" />
<path d="M130680000 105030000
L130680000 105970000
" />
<path d="M128820000 105030000
L130680000 105030000
" />
<path d="M128820000 105970000
L128820000 105030000
" />
<path d="M130680000 105970000
L128820000 105970000
" />
<path d="M129350000 100650000
L129350000 91850000
" />
<path d="M124150000 91850000
L124150000 100650000
" />
<path d="M129350000 91850000
L124150000 91850000
" />
<path d="M124150000 100650000
L129350000 100650000
" />
<path d="M154450000 117800000
L154450000 109200000
" />
<path d="M147050000 117800000
L154450000 117800000
" />
<path d="M147050000 109200000
L147050000 117800000
" />
<path d="M154450000 109200000
L147050000 109200000
" />
<path d="M159250000 112000000
L159250000 99000000
" />
<path d="M159250000 99000000
L156250000 99000000
" />
<path d="M156250000 112000000
L159250000 112000000
" />
<path d="M156250000 99000000
L156250000 112000000
" />
<path d="M143840000 103540000
L145660000 103540000
" />
<path d="M145660000 104460000
L143840000 104460000
" />
<path d="M143840000 104460000
L143840000 103540000
" />
<path d="M145660000 103540000
L145660000 104460000
" />
<path d="M144080000 95220000
L144080000 94280000
" />
<path d="M144080000 94280000
L145940000 94280000
" />
<path d="M145940000 94280000
L145940000 95220000
" />
<path d="M145940000 95220000
L144080000 95220000
" />
<path d="M135519143 67260600
L135519143 62739400
" />
<path d="M139481543 67260600
L135519143 67260600
" />
<path d="M135519143 62739400
L139481543 62739400
" />
<path d="M139481543 62739400
L139481543 67260600
" />
</g>
<g style="fill:#000000; fill-opacity:0.0; 
stroke:#000000; stroke-width:120000.000000; stroke-opacity:1; 
stroke-linecap:round; stroke-linejoin:round;">
<path d="M143800000 117765000
L131200000 117765000
" />
<path d="M131200000 117765000
L131200000 98515000
" />
<path d="M131200000 98515000
L143800000 98515000
" />
<path d="M143800000 98515000
L143800000 117765000
" />
</g>
<g style="fill:#000000; fill-opacity:0.0; 
stroke:#000000; stroke-width:50000.000000; stroke-opacity:1; 
stroke-linecap:round; stroke-linejoin:round;">
<path d="M133000000 88500000
L142000000 88500000
" />
<path d="M133000000 97500000
L133000000 88500000
" />
<path d="M142000000 97500000
L133000000 97500000
" />
<path d="M142000000 88500000
L142000000 97500000
" />
<path d="M143840000 107790000
L145660000 107790000
" />
<path d="M143840000 108710000
L143840000 107790000
" />
<path d="M145660000 107790000
L145660000 108710000
" />
<path d="M145660000 108710000
L143840000 108710000
" />
<path d="M140530000 62820000
L141470000 62820000
" />
<path d="M141470000 62820000
L141470000 64680000
" />
<path d="M140530000 64680000
L140530000 62820000
" />
<path d="M141470000 64680000
L140530000 64680000
" />
<path d="M147830000 67730000
L147830000 68670000
" />
<path d="M145970000 68670000
L145970000 67730000
" />
<path d="M145970000 67730000
L147830000 67730000
" />
<path d="M147830000 68670000
L145970000 68670000
" />
<path d="M143860000 107710000
L143860000 106790000
" />
<path d="M143860000 106790000
L145680000 106790000
" />
<path d="M145680000 106790000
L145680000 107710000
" />
<path d="M145680000 107710000
L143860000 107710000
" />
<path d="M134970000 63820000
L134970000 65680000
" />
<path d="M134970000 65680000
L134030000 65680000
" />
<path d="M134030000 65680000
L134030000 63820000
" />
<path d="M134030000 63820000
L134970000 63820000
" />
<g >
</g>
<g >
</g>
<g >
</g>
<g >
</g>
<g >
</g>
<g >
</g>
<g >
</g>
<g >
</g>
<g >
</g>
<g >
</g>
<g >
</g>
<g >
</g>
<g >
</g>
<g >
</g>
<g >
</g>
<g >
</g>
<g >
</g>
<g >
</g>
<g >
</g>
<g >
</g>
<g >
</g>
<g >
</g>
<g >
</g>
<g >
</g>
<g >
</g>
<g >
</g>
<g >
</g>
<g >
</g>
<g >
</g>
<g >
</g>
<g >
</g>
<g >
</g>
<g >
</g>
<g >
</g>
<g >
</g>
<g >
</g>
<g >
</g>
<g >
</g>
<g >
</g>
<g >
</g>
<g >
</g>
<g >
</g>
<g >
</g>
<g >
</g>
<g >
</g>
<g >
</g>
<g >
</g>
<g >
</g>
<g >
</g>
<g >
</g>
<g >
</g>
<g >
</g>
<g >
</g>
<g >
</g>
<g >
</g>
<g >
</g>
<g >
</g>
<g >
</g>
<g >
</g>
<g >
</g>
<g >
</g>
<g >
</g>
<g >
</g>
<g >
</g>
<g >
</g>
<g >
</g>
<g >
</g>
<g >
</g>
<g >
</g>
<g >
</g>
<g >
</g>
<g >
</g>
<g >
</g>
<g >
</g>
<g >
</g>
<g >
</g>
<g >
</g>
<g >
</g>
<g >
</g>
<g >
</g>
</g> 
</svg>
