  0
SECTION
  2
HEADER
  9
$ANGBASE
  50
0.0
  9
$ANGDIR
  70
1
  9
$MEASUREMENT
  70
0
  0
ENDSEC
  0
SECTION
  2
TABLES
  0
TABLE
  2
LTYPE
  70
4
  0
LTYPE
  5
40F
  2
CONTINUOUS
  70
0
  3
Solid line
  72
65
  73
0
  40
0.0
  0
LTYPE
  5
410
  2
DASHDOT
 70
0
  3
Dash Dot ____ _ ____ _
 72
65
 73
4
 40
2.0
 49
1.25
 49
-0.25
 49
0.25
 49
-0.25
  0
LTYPE
  5
411
  2
DASHED
 70
0
  3
Dashed __ __ __ __ __
 72
65
 73
2
 40
0.75
 49
0.5
 49
-0.25
  0
LTYPE
  5
43B
  2
DOTTED
 70
0
  3
Dotted .  .  .  .
 72
65
 73
2
 40
0.2
 49
0.0
 49
-0.2
  0
ENDTAB
  0
TABLE
  2
STYLE
  70
4
  0
STYLE
  2
KICAD
  70
0
  40
0
  41
1
  42
1
  50
0
  71
0
  3
isocp.shx
  0
STYLE
  2
KICADB
  70
0
  40
0
  41
1
  42
1
  50
0
  71
0
  3
isocp.shx
  0
STYLE
  2
KICADI
  70
0
  40
0
  41
1
  42
1
  50
15
  71
0
  3
isocp.shx
  0
STYLE
  2
KICADBI
  70
0
  40
0
  41
1
  42
1
  50
15
  71
0
  3
isocp.shx
  0
ENDTAB
  0
TABLE
  2
LAYER
  70
1
  0
LAYER
  2
BLACK
  70
0
  62
7
  6
CONTINUOUS
  0
ENDTAB
  0
ENDSEC
  0
SECTION
  2
ENTITIES
0
LINE
8
BLACK
6
CONTINUOUS
10
6.08169
20
-4.29921
11
6.08169
21
-4.6378
0
LINE
8
BLACK
6
CONTINUOUS
10
6.08169
20
-4.6378
11
6.0814
21
-4.63849
0
LINE
8
BLACK
6
CONTINUOUS
10
6.0814
20
-4.63849
11
6.08071
21
-4.63878
0
LINE
8
BLACK
6
CONTINUOUS
10
6.08071
20
-4.63878
11
5.78937
21
-4.63878
0
LINE
8
BLACK
6
CONTINUOUS
10
5.78937
20
-4.63878
11
5.78867
21
-4.63849
0
LINE
8
BLACK
6
CONTINUOUS
10
5.78867
20
-4.63849
11
5.78839
21
-4.6378
0
LINE
8
BLACK
6
CONTINUOUS
10
5.78839
20
-4.6378
11
5.78839
21
-4.30059
0
LINE
8
BLACK
6
CONTINUOUS
10
5.78839
20
-4.30059
11
5.7811
21
-4.30059
0
LINE
8
BLACK
6
CONTINUOUS
10
5.7811
20
-4.30059
11
5.78041
21
-4.3003
0
LINE
8
BLACK
6
CONTINUOUS
10
5.78041
20
-4.3003
11
5.78012
21
-4.29961
0
LINE
8
BLACK
6
CONTINUOUS
10
5.78012
20
-4.29961
11
5.78012
21
-4.26339
0
LINE
8
BLACK
6
CONTINUOUS
10
5.78012
20
-4.26339
11
5.78041
21
-4.26269
0
LINE
8
BLACK
6
CONTINUOUS
10
5.78041
20
-4.26269
11
5.7811
21
-4.2624
0
LINE
8
BLACK
6
CONTINUOUS
10
5.7811
20
-4.2624
11
5.85276
21
-4.2624
0
LINE
8
BLACK
6
CONTINUOUS
10
5.85276
20
-4.2624
11
5.85345
21
-4.26269
0
LINE
8
BLACK
6
CONTINUOUS
10
5.85345
20
-4.26269
11
5.85374
21
-4.26339
0
LINE
8
BLACK
6
CONTINUOUS
10
5.85374
20
-4.26339
11
5.85374
21
-4.29823
0
LINE
8
BLACK
6
CONTINUOUS
10
5.85374
20
-4.29823
11
6.08071
21
-4.29823
0
LINE
8
BLACK
6
CONTINUOUS
10
6.08071
20
-4.29823
11
6.0814
21
-4.29852
0
LINE
8
BLACK
6
CONTINUOUS
10
6.0814
20
-4.29852
11
6.08169
21
-4.29921
0
LINE
8
BLACK
6
CONTINUOUS
10
5.79035
20
-4.63681
11
6.07972
21
-4.63681
0
LINE
8
BLACK
6
CONTINUOUS
10
6.07972
20
-4.63681
11
6.07972
21
-4.3002
0
LINE
8
BLACK
6
CONTINUOUS
10
6.07972
20
-4.3002
11
5.8535
21
-4.3002
0
LINE
8
BLACK
6
CONTINUOUS
10
5.8535
20
-4.3002
11
5.85345
21
-4.3003
0
LINE
8
BLACK
6
CONTINUOUS
10
5.85345
20
-4.3003
11
5.85276
21
-4.30059
0
LINE
8
BLACK
6
CONTINUOUS
10
5.85276
20
-4.30059
11
5.79035
21
-4.30059
0
LINE
8
BLACK
6
CONTINUOUS
10
5.79035
20
-4.30059
11
5.79035
21
-4.63681
0
LINE
8
BLACK
6
CONTINUOUS
10
5.78209
20
-4.26437
11
5.78209
21
-4.29862
0
LINE
8
BLACK
6
CONTINUOUS
10
5.78209
20
-4.29862
11
5.78863
21
-4.29862
0
LINE
8
BLACK
6
CONTINUOUS
10
5.78863
20
-4.29862
11
5.78867
21
-4.29852
0
LINE
8
BLACK
6
CONTINUOUS
10
5.78867
20
-4.29852
11
5.78937
21
-4.29823
0
LINE
8
BLACK
6
CONTINUOUS
10
5.78937
20
-4.29823
11
5.85177
21
-4.29823
0
LINE
8
BLACK
6
CONTINUOUS
10
5.85177
20
-4.29823
11
5.85177
21
-4.26437
0
LINE
8
BLACK
6
CONTINUOUS
10
5.85177
20
-4.26437
11
5.78209
21
-4.26437
0
LINE
8
BLACK
6
CONTINUOUS
10
5.40177
20
-3.44646
11
5.40177
21
-3.48268
0
LINE
8
BLACK
6
CONTINUOUS
10
5.40177
20
-3.48268
11
5.40153
21
-3.48327
0
LINE
8
BLACK
6
CONTINUOUS
10
5.40153
20
-3.48327
11
5.45556
21
-3.48327
0
LINE
8
BLACK
6
CONTINUOUS
10
5.45556
20
-3.48327
11
5.45531
21
-3.48268
0
LINE
8
BLACK
6
CONTINUOUS
10
5.45531
20
-3.48268
11
5.45531
21
-3.44646
0
LINE
8
BLACK
6
CONTINUOUS
10
5.45531
20
-3.44646
11
5.4556
21
-3.44576
0
LINE
8
BLACK
6
CONTINUOUS
10
5.4556
20
-3.44576
11
5.4563
21
-3.44547
0
LINE
8
BLACK
6
CONTINUOUS
10
5.4563
20
-3.44547
11
5.52795
21
-3.44547
0
LINE
8
BLACK
6
CONTINUOUS
10
5.52795
20
-3.44547
11
5.52865
21
-3.44576
0
LINE
8
BLACK
6
CONTINUOUS
10
5.52865
20
-3.44576
11
5.52894
21
-3.44646
0
LINE
8
BLACK
6
CONTINUOUS
10
5.52894
20
-3.44646
11
5.52894
21
-3.48268
0
LINE
8
BLACK
6
CONTINUOUS
10
5.52894
20
-3.48268
11
5.52869
21
-3.48327
0
LINE
8
BLACK
6
CONTINUOUS
10
5.52869
20
-3.48327
11
5.58957
21
-3.48327
0
LINE
8
BLACK
6
CONTINUOUS
10
5.58957
20
-3.48327
11
5.58957
21
-3.39173
0
LINE
8
BLACK
6
CONTINUOUS
10
5.58957
20
-3.39173
11
5.58986
21
-3.39104
0
LINE
8
BLACK
6
CONTINUOUS
10
5.58986
20
-3.39104
11
5.59055
21
-3.39075
0
LINE
8
BLACK
6
CONTINUOUS
10
5.59055
20
-3.39075
11
5.69291
21
-3.39075
0
LINE
8
BLACK
6
CONTINUOUS
10
5.69291
20
-3.39075
11
5.69361
21
-3.39104
0
LINE
8
BLACK
6
CONTINUOUS
10
5.69361
20
-3.39104
11
5.6939
21
-3.39173
0
LINE
8
BLACK
6
CONTINUOUS
10
5.6939
20
-3.39173
11
5.6939
21
-3.50197
0
LINE
8
BLACK
6
CONTINUOUS
10
5.6939
20
-3.50197
11
5.69361
21
-3.50266
0
LINE
8
BLACK
6
CONTINUOUS
10
5.69361
20
-3.50266
11
5.69291
21
-3.50295
0
LINE
8
BLACK
6
CONTINUOUS
10
5.69291
20
-3.50295
11
5.59154
21
-3.50295
0
LINE
8
BLACK
6
CONTINUOUS
10
5.59154
20
-3.50295
11
5.59154
21
-3.83858
0
LINE
8
BLACK
6
CONTINUOUS
10
5.59154
20
-3.83858
11
5.59125
21
-3.83928
0
LINE
8
BLACK
6
CONTINUOUS
10
5.59125
20
-3.83928
11
5.59055
21
-3.83957
0
LINE
8
BLACK
6
CONTINUOUS
10
5.59055
20
-3.83957
11
5.46885
21
-3.83957
0
LINE
8
BLACK
6
CONTINUOUS
10
5.46885
20
-3.83957
11
5.46909
21
-3.84016
0
LINE
8
BLACK
6
CONTINUOUS
10
5.46909
20
-3.84016
11
5.46909
21
-3.87618
0
LINE
8
BLACK
6
CONTINUOUS
10
5.46909
20
-3.87618
11
5.66142
21
-3.87618
0
LINE
8
BLACK
6
CONTINUOUS
10
5.66142
20
-3.87618
11
5.66309
21
-3.87687
0
LINE
8
BLACK
6
CONTINUOUS
10
5.66309
20
-3.87687
11
5.66378
21
-3.87854
0
LINE
8
BLACK
6
CONTINUOUS
10
5.66378
20
-3.87854
11
5.66378
21
-4.03602
0
LINE
8
BLACK
6
CONTINUOUS
10
5.66378
20
-4.03602
11
5.73465
21
-4.03602
0
LINE
8
BLACK
6
CONTINUOUS
10
5.73465
20
-4.03602
11
5.73534
21
-4.03631
0
LINE
8
BLACK
6
CONTINUOUS
10
5.73534
20
-4.03631
11
5.73563
21
-4.03701
0
LINE
8
BLACK
6
CONTINUOUS
10
5.73563
20
-4.03701
11
5.73563
21
-4.07323
0
LINE
8
BLACK
6
CONTINUOUS
10
5.73563
20
-4.07323
11
5.73534
21
-4.07392
0
LINE
8
BLACK
6
CONTINUOUS
10
5.73534
20
-4.07392
11
5.73465
21
-4.07421
0
LINE
8
BLACK
6
CONTINUOUS
10
5.73465
20
-4.07421
11
5.66378
21
-4.07421
0
LINE
8
BLACK
6
CONTINUOUS
10
5.66378
20
-4.07421
11
5.66378
21
-4.07539
0
LINE
8
BLACK
6
CONTINUOUS
10
5.66378
20
-4.07539
11
5.73465
21
-4.07539
0
LINE
8
BLACK
6
CONTINUOUS
10
5.73465
20
-4.07539
11
5.73534
21
-4.07568
0
LINE
8
BLACK
6
CONTINUOUS
10
5.73534
20
-4.07568
11
5.73563
21
-4.07638
0
LINE
8
BLACK
6
CONTINUOUS
10
5.73563
20
-4.07638
11
5.73563
21
-4.1126
0
LINE
8
BLACK
6
CONTINUOUS
10
5.73563
20
-4.1126
11
5.73534
21
-4.11329
0
LINE
8
BLACK
6
CONTINUOUS
10
5.73534
20
-4.11329
11
5.73465
21
-4.11358
0
LINE
8
BLACK
6
CONTINUOUS
10
5.73465
20
-4.11358
11
5.66378
21
-4.11358
0
LINE
8
BLACK
6
CONTINUOUS
10
5.66378
20
-4.11358
11
5.66378
21
-4.16398
0
LINE
8
BLACK
6
CONTINUOUS
10
5.66378
20
-4.16398
11
5.73465
21
-4.16398
0
LINE
8
BLACK
6
CONTINUOUS
10
5.73465
20
-4.16398
11
5.73534
21
-4.16426
0
LINE
8
BLACK
6
CONTINUOUS
10
5.73534
20
-4.16426
11
5.73563
21
-4.16496
0
LINE
8
BLACK
6
CONTINUOUS
10
5.73563
20
-4.16496
11
5.73563
21
-4.20118
0
LINE
8
BLACK
6
CONTINUOUS
10
5.73563
20
-4.20118
11
5.73534
21
-4.20188
0
LINE
8
BLACK
6
CONTINUOUS
10
5.73534
20
-4.20188
11
5.73465
21
-4.20217
0
LINE
8
BLACK
6
CONTINUOUS
10
5.73465
20
-4.20217
11
5.66378
21
-4.20217
0
LINE
8
BLACK
6
CONTINUOUS
10
5.66378
20
-4.20217
11
5.66378
21
-4.20335
0
LINE
8
BLACK
6
CONTINUOUS
10
5.66378
20
-4.20335
11
5.73543
21
-4.20335
0
LINE
8
BLACK
6
CONTINUOUS
10
5.73543
20
-4.20335
11
5.73613
21
-4.20363
0
LINE
8
BLACK
6
CONTINUOUS
10
5.73613
20
-4.20363
11
5.73642
21
-4.20433
0
LINE
8
BLACK
6
CONTINUOUS
10
5.73642
20
-4.20433
11
5.73642
21
-4.24055
0
LINE
8
BLACK
6
CONTINUOUS
10
5.73642
20
-4.24055
11
5.73613
21
-4.24125
0
LINE
8
BLACK
6
CONTINUOUS
10
5.73613
20
-4.24125
11
5.73543
21
-4.24154
0
LINE
8
BLACK
6
CONTINUOUS
10
5.73543
20
-4.24154
11
5.66378
21
-4.24154
0
LINE
8
BLACK
6
CONTINUOUS
10
5.66378
20
-4.24154
11
5.66378
21
-4.24272
0
LINE
8
BLACK
6
CONTINUOUS
10
5.66378
20
-4.24272
11
5.73465
21
-4.24272
0
LINE
8
BLACK
6
CONTINUOUS
10
5.73465
20
-4.24272
11
5.73534
21
-4.243
0
LINE
8
BLACK
6
CONTINUOUS
10
5.73534
20
-4.243
11
5.73563
21
-4.2437
0
LINE
8
BLACK
6
CONTINUOUS
10
5.73563
20
-4.2437
11
5.73563
21
-4.27992
0
LINE
8
BLACK
6
CONTINUOUS
10
5.73563
20
-4.27992
11
5.73534
21
-4.28062
0
LINE
8
BLACK
6
CONTINUOUS
10
5.73534
20
-4.28062
11
5.73465
21
-4.28091
0
LINE
8
BLACK
6
CONTINUOUS
10
5.73465
20
-4.28091
11
5.66378
21
-4.28091
0
LINE
8
BLACK
6
CONTINUOUS
10
5.66378
20
-4.28091
11
5.66378
21
-4.28209
0
LINE
8
BLACK
6
CONTINUOUS
10
5.66378
20
-4.28209
11
5.73465
21
-4.28209
0
LINE
8
BLACK
6
CONTINUOUS
10
5.73465
20
-4.28209
11
5.73534
21
-4.28237
0
LINE
8
BLACK
6
CONTINUOUS
10
5.73534
20
-4.28237
11
5.73563
21
-4.28307
0
LINE
8
BLACK
6
CONTINUOUS
10
5.73563
20
-4.28307
11
5.73563
21
-4.31929
0
LINE
8
BLACK
6
CONTINUOUS
10
5.73563
20
-4.31929
11
5.73534
21
-4.31999
0
LINE
8
BLACK
6
CONTINUOUS
10
5.73534
20
-4.31999
11
5.73465
21
-4.32028
0
LINE
8
BLACK
6
CONTINUOUS
10
5.73465
20
-4.32028
11
5.66378
21
-4.32028
0
LINE
8
BLACK
6
CONTINUOUS
10
5.66378
20
-4.32028
11
5.66378
21
-4.63642
0
LINE
8
BLACK
6
CONTINUOUS
10
5.66378
20
-4.63642
11
5.66309
21
-4.63809
0
LINE
8
BLACK
6
CONTINUOUS
10
5.66309
20
-4.63809
11
5.66142
21
-4.63878
0
LINE
8
BLACK
6
CONTINUOUS
10
5.66142
20
-4.63878
11
5.16535
21
-4.63878
0
LINE
8
BLACK
6
CONTINUOUS
10
5.16535
20
-4.63878
11
5.16368
21
-4.63809
0
LINE
8
BLACK
6
CONTINUOUS
10
5.16368
20
-4.63809
11
5.16299
21
-4.63642
0
LINE
8
BLACK
6
CONTINUOUS
10
5.16299
20
-4.63642
11
5.16299
21
-3.87854
0
LINE
8
BLACK
6
CONTINUOUS
10
5.16299
20
-3.87854
11
5.16368
21
-3.87687
0
LINE
8
BLACK
6
CONTINUOUS
10
5.16368
20
-3.87687
11
5.16535
21
-3.87618
0
LINE
8
BLACK
6
CONTINUOUS
10
5.16535
20
-3.87618
11
5.23878
21
-3.87618
0
LINE
8
BLACK
6
CONTINUOUS
10
5.23878
20
-3.87618
11
5.23878
21
-3.84016
0
LINE
8
BLACK
6
CONTINUOUS
10
5.23878
20
-3.84016
11
5.23902
21
-3.83957
0
LINE
8
BLACK
6
CONTINUOUS
10
5.23902
20
-3.83957
11
5.23622
21
-3.83957
0
LINE
8
BLACK
6
CONTINUOUS
10
5.23622
20
-3.83957
11
5.23552
21
-3.83928
0
LINE
8
BLACK
6
CONTINUOUS
10
5.23552
20
-3.83928
11
5.23524
21
-3.83858
0
LINE
8
BLACK
6
CONTINUOUS
10
5.23524
20
-3.83858
11
5.23524
21
-3.48445
0
LINE
8
BLACK
6
CONTINUOUS
10
5.23524
20
-3.48445
11
5.1878
21
-3.48445
0
LINE
8
BLACK
6
CONTINUOUS
10
5.1878
20
-3.48445
11
5.1871
21
-3.48416
0
LINE
8
BLACK
6
CONTINUOUS
10
5.1871
20
-3.48416
11
5.18681
21
-3.48346
0
LINE
8
BLACK
6
CONTINUOUS
10
5.18681
20
-3.48346
11
5.18681
21
-3.36693
0
LINE
8
BLACK
6
CONTINUOUS
10
5.18681
20
-3.36693
11
5.1871
21
-3.36623
0
LINE
8
BLACK
6
CONTINUOUS
10
5.1871
20
-3.36623
11
5.1878
21
-3.36594
0
LINE
8
BLACK
6
CONTINUOUS
10
5.1878
20
-3.36594
11
5.24528
21
-3.36594
0
LINE
8
BLACK
6
CONTINUOUS
10
5.24528
20
-3.36594
11
5.24597
21
-3.36623
0
LINE
8
BLACK
6
CONTINUOUS
10
5.24597
20
-3.36623
11
5.24626
21
-3.36693
0
LINE
8
BLACK
6
CONTINUOUS
10
5.24626
20
-3.36693
11
5.24626
21
-3.48327
0
LINE
8
BLACK
6
CONTINUOUS
10
5.24626
20
-3.48327
11
5.32839
21
-3.48327
0
LINE
8
BLACK
6
CONTINUOUS
10
5.32839
20
-3.48327
11
5.32815
21
-3.48268
0
LINE
8
BLACK
6
CONTINUOUS
10
5.32815
20
-3.48268
11
5.32815
21
-3.44646
0
LINE
8
BLACK
6
CONTINUOUS
10
5.32815
20
-3.44646
11
5.32844
21
-3.44576
0
LINE
8
BLACK
6
CONTINUOUS
10
5.32844
20
-3.44576
11
5.32913
21
-3.44547
0
LINE
8
BLACK
6
CONTINUOUS
10
5.32913
20
-3.44547
11
5.40079
21
-3.44547
0
LINE
8
BLACK
6
CONTINUOUS
10
5.40079
20
-3.44547
11
5.40148
21
-3.44576
0
LINE
8
BLACK
6
CONTINUOUS
10
5.40148
20
-3.44576
11
5.40177
21
-3.44646
0
LINE
8
BLACK
6
CONTINUOUS
10
5.16772
20
-3.88091
11
5.16772
21
-4.63406
0
LINE
8
BLACK
6
CONTINUOUS
10
5.16772
20
-4.63406
11
5.65906
21
-4.63406
0
LINE
8
BLACK
6
CONTINUOUS
10
5.65906
20
-4.63406
11
5.65906
21
-3.88091
0
LINE
8
BLACK
6
CONTINUOUS
10
5.65906
20
-3.88091
11
5.16772
21
-3.88091
0
LINE
8
BLACK
6
CONTINUOUS
10
5.66398
20
-4.28406
11
5.66398
21
-4.31831
0
LINE
8
BLACK
6
CONTINUOUS
10
5.66398
20
-4.31831
11
5.73366
21
-4.31831
0
LINE
8
BLACK
6
CONTINUOUS
10
5.73366
20
-4.31831
11
5.73366
21
-4.28406
0
LINE
8
BLACK
6
CONTINUOUS
10
5.73366
20
-4.28406
11
5.66398
21
-4.28406
0
LINE
8
BLACK
6
CONTINUOUS
10
5.66398
20
-4.24469
11
5.66398
21
-4.27894
0
LINE
8
BLACK
6
CONTINUOUS
10
5.66398
20
-4.27894
11
5.73366
21
-4.27894
0
LINE
8
BLACK
6
CONTINUOUS
10
5.73366
20
-4.27894
11
5.73366
21
-4.24469
0
LINE
8
BLACK
6
CONTINUOUS
10
5.73366
20
-4.24469
11
5.66398
21
-4.24469
0
LINE
8
BLACK
6
CONTINUOUS
10
5.66476
20
-4.20531
11
5.66476
21
-4.23957
0
LINE
8
BLACK
6
CONTINUOUS
10
5.66476
20
-4.23957
11
5.73445
21
-4.23957
0
LINE
8
BLACK
6
CONTINUOUS
10
5.73445
20
-4.23957
11
5.73445
21
-4.20531
0
LINE
8
BLACK
6
CONTINUOUS
10
5.73445
20
-4.20531
11
5.66476
21
-4.20531
0
LINE
8
BLACK
6
CONTINUOUS
10
5.66398
20
-4.16594
11
5.66398
21
-4.2002
0
LINE
8
BLACK
6
CONTINUOUS
10
5.66398
20
-4.2002
11
5.73366
21
-4.2002
0
LINE
8
BLACK
6
CONTINUOUS
10
5.73366
20
-4.2002
11
5.73366
21
-4.16594
0
LINE
8
BLACK
6
CONTINUOUS
10
5.73366
20
-4.16594
11
5.66398
21
-4.16594
0
LINE
8
BLACK
6
CONTINUOUS
10
5.66398
20
-4.07736
11
5.66398
21
-4.11161
0
LINE
8
BLACK
6
CONTINUOUS
10
5.66398
20
-4.11161
11
5.73366
21
-4.11161
0
LINE
8
BLACK
6
CONTINUOUS
10
5.73366
20
-4.11161
11
5.73366
21
-4.07736
0
LINE
8
BLACK
6
CONTINUOUS
10
5.73366
20
-4.07736
11
5.66398
21
-4.07736
0
LINE
8
BLACK
6
CONTINUOUS
10
5.66398
20
-4.03799
11
5.66398
21
-4.07224
0
LINE
8
BLACK
6
CONTINUOUS
10
5.66398
20
-4.07224
11
5.73366
21
-4.07224
0
LINE
8
BLACK
6
CONTINUOUS
10
5.73366
20
-4.07224
11
5.73366
21
-4.03799
0
LINE
8
BLACK
6
CONTINUOUS
10
5.73366
20
-4.03799
11
5.66398
21
-4.03799
0
LINE
8
BLACK
6
CONTINUOUS
10
5.31216
20
-3.83957
11
5.3124
21
-3.84016
0
LINE
8
BLACK
6
CONTINUOUS
10
5.3124
20
-3.84016
11
5.3124
21
-3.87618
0
LINE
8
BLACK
6
CONTINUOUS
10
5.3124
20
-3.87618
11
5.31673
21
-3.87618
0
LINE
8
BLACK
6
CONTINUOUS
10
5.31673
20
-3.87618
11
5.31673
21
-3.84016
0
LINE
8
BLACK
6
CONTINUOUS
10
5.31673
20
-3.84016
11
5.31698
21
-3.83957
0
LINE
8
BLACK
6
CONTINUOUS
10
5.31698
20
-3.83957
11
5.31216
21
-3.83957
0
LINE
8
BLACK
6
CONTINUOUS
10
5.39011
20
-3.83957
11
5.39035
21
-3.84016
0
LINE
8
BLACK
6
CONTINUOUS
10
5.39035
20
-3.84016
11
5.39035
21
-3.87618
0
LINE
8
BLACK
6
CONTINUOUS
10
5.39035
20
-3.87618
11
5.39547
21
-3.87618
0
LINE
8
BLACK
6
CONTINUOUS
10
5.39547
20
-3.87618
11
5.39547
21
-3.84016
0
LINE
8
BLACK
6
CONTINUOUS
10
5.39547
20
-3.84016
11
5.39572
21
-3.83957
0
LINE
8
BLACK
6
CONTINUOUS
10
5.39572
20
-3.83957
11
5.39011
21
-3.83957
0
LINE
8
BLACK
6
CONTINUOUS
10
5.39744
20
-3.84114
11
5.39744
21
-3.87539
0
LINE
8
BLACK
6
CONTINUOUS
10
5.39744
20
-3.87539
11
5.46713
21
-3.87539
0
LINE
8
BLACK
6
CONTINUOUS
10
5.46713
20
-3.87539
11
5.46713
21
-3.84114
0
LINE
8
BLACK
6
CONTINUOUS
10
5.46713
20
-3.84114
11
5.39744
21
-3.84114
0
LINE
8
BLACK
6
CONTINUOUS
10
5.3187
20
-3.84114
11
5.3187
21
-3.87539
0
LINE
8
BLACK
6
CONTINUOUS
10
5.3187
20
-3.87539
11
5.38839
21
-3.87539
0
LINE
8
BLACK
6
CONTINUOUS
10
5.38839
20
-3.87539
11
5.38839
21
-3.84114
0
LINE
8
BLACK
6
CONTINUOUS
10
5.38839
20
-3.84114
11
5.3187
21
-3.84114
0
LINE
8
BLACK
6
CONTINUOUS
10
5.24075
20
-3.84114
11
5.24075
21
-3.87539
0
LINE
8
BLACK
6
CONTINUOUS
10
5.24075
20
-3.87539
11
5.31043
21
-3.87539
0
LINE
8
BLACK
6
CONTINUOUS
10
5.31043
20
-3.87539
11
5.31043
21
-3.84114
0
LINE
8
BLACK
6
CONTINUOUS
10
5.31043
20
-3.84114
11
5.24075
21
-3.84114
0
LINE
8
BLACK
6
CONTINUOUS
10
5.2372
20
-3.48524
11
5.2372
21
-3.8376
0
LINE
8
BLACK
6
CONTINUOUS
10
5.2372
20
-3.8376
11
5.58957
21
-3.8376
0
LINE
8
BLACK
6
CONTINUOUS
10
5.58957
20
-3.8376
11
5.58957
21
-3.48524
0
LINE
8
BLACK
6
CONTINUOUS
10
5.58957
20
-3.48524
11
5.2372
21
-3.48524
0
LINE
8
BLACK
6
CONTINUOUS
10
5.69193
20
-3.50098
11
5.69193
21
-3.39272
0
LINE
8
BLACK
6
CONTINUOUS
10
5.69193
20
-3.39272
11
5.59154
21
-3.39272
0
LINE
8
BLACK
6
CONTINUOUS
10
5.59154
20
-3.39272
11
5.59154
21
-3.50098
0
LINE
8
BLACK
6
CONTINUOUS
10
5.59154
20
-3.50098
11
5.69193
21
-3.50098
0
LINE
8
BLACK
6
CONTINUOUS
10
5.18878
20
-3.36791
11
5.18878
21
-3.48248
0
LINE
8
BLACK
6
CONTINUOUS
10
5.18878
20
-3.48248
11
5.24429
21
-3.48248
0
LINE
8
BLACK
6
CONTINUOUS
10
5.24429
20
-3.48248
11
5.24429
21
-3.36791
0
LINE
8
BLACK
6
CONTINUOUS
10
5.24429
20
-3.36791
11
5.18878
21
-3.36791
0
LINE
8
BLACK
6
CONTINUOUS
10
5.45728
20
-3.44744
11
5.45728
21
-3.48169
0
LINE
8
BLACK
6
CONTINUOUS
10
5.45728
20
-3.48169
11
5.52697
21
-3.48169
0
LINE
8
BLACK
6
CONTINUOUS
10
5.52697
20
-3.48169
11
5.52697
21
-3.44744
0
LINE
8
BLACK
6
CONTINUOUS
10
5.52697
20
-3.44744
11
5.45728
21
-3.44744
0
LINE
8
BLACK
6
CONTINUOUS
10
5.33012
20
-3.44744
11
5.33012
21
-3.48169
0
LINE
8
BLACK
6
CONTINUOUS
10
5.33012
20
-3.48169
11
5.3998
21
-3.48169
0
LINE
8
BLACK
6
CONTINUOUS
10
5.3998
20
-3.48169
11
5.3998
21
-3.44744
0
LINE
8
BLACK
6
CONTINUOUS
10
5.3998
20
-3.44744
11
5.33012
21
-3.44744
0
LINE
8
BLACK
6
CONTINUOUS
10
6.15088
20
-4.41014
11
6.15059
21
-4.40945
0
LINE
8
BLACK
6
CONTINUOUS
10
6.15059
20
-4.40945
11
6.15059
21
-3.89764
0
LINE
8
BLACK
6
CONTINUOUS
10
6.15059
20
-3.89764
11
6.15088
21
-3.89694
0
LINE
8
BLACK
6
CONTINUOUS
10
6.15088
20
-3.89694
11
6.15157
21
-3.89665
0
LINE
8
BLACK
6
CONTINUOUS
10
6.15157
20
-3.89665
11
6.26969
21
-3.89665
0
LINE
8
BLACK
6
CONTINUOUS
10
6.26969
20
-3.89665
11
6.27038
21
-3.89694
0
LINE
8
BLACK
6
CONTINUOUS
10
6.27038
20
-3.89694
11
6.27067
21
-3.89764
0
LINE
8
BLACK
6
CONTINUOUS
10
6.27067
20
-3.89764
11
6.27067
21
-4.40945
0
LINE
8
BLACK
6
CONTINUOUS
10
6.27067
20
-4.40945
11
6.27038
21
-4.41014
0
LINE
8
BLACK
6
CONTINUOUS
10
6.27038
20
-4.41014
11
6.26969
21
-4.41043
0
LINE
8
BLACK
6
CONTINUOUS
10
6.26969
20
-4.41043
11
6.15157
21
-4.41043
0
LINE
8
BLACK
6
CONTINUOUS
10
6.15157
20
-4.41043
11
6.15088
21
-4.41014
0
LINE
8
BLACK
6
CONTINUOUS
10
6.15256
20
-3.89862
11
6.15256
21
-4.40846
0
LINE
8
BLACK
6
CONTINUOUS
10
6.15256
20
-4.40846
11
6.2687
21
-4.40846
0
LINE
8
BLACK
6
CONTINUOUS
10
6.2687
20
-4.40846
11
6.2687
21
-3.89862
0
LINE
8
BLACK
6
CONTINUOUS
10
6.2687
20
-3.89862
11
6.15256
21
-3.89862
0
LINE
8
BLACK
6
CONTINUOUS
10
5.04143
20
-4.39912
11
5.04114
21
-4.39843
0
LINE
8
BLACK
6
CONTINUOUS
10
5.04114
20
-4.39843
11
5.04114
21
-4.36142
0
LINE
8
BLACK
6
CONTINUOUS
10
5.04114
20
-4.36142
11
5.04143
21
-4.36072
0
LINE
8
BLACK
6
CONTINUOUS
10
5.04143
20
-4.36072
11
5.04213
21
-4.36043
0
LINE
8
BLACK
6
CONTINUOUS
10
5.04213
20
-4.36043
11
5.11535
21
-4.36043
0
LINE
8
BLACK
6
CONTINUOUS
10
5.11535
20
-4.36043
11
5.11605
21
-4.36072
0
LINE
8
BLACK
6
CONTINUOUS
10
5.11605
20
-4.36072
11
5.11634
21
-4.36142
0
LINE
8
BLACK
6
CONTINUOUS
10
5.11634
20
-4.36142
11
5.11634
21
-4.39843
0
LINE
8
BLACK
6
CONTINUOUS
10
5.11634
20
-4.39843
11
5.11605
21
-4.39912
0
LINE
8
BLACK
6
CONTINUOUS
10
5.11605
20
-4.39912
11
5.11535
21
-4.39941
0
LINE
8
BLACK
6
CONTINUOUS
10
5.11535
20
-4.39941
11
5.04213
21
-4.39941
0
LINE
8
BLACK
6
CONTINUOUS
10
5.04213
20
-4.39941
11
5.04143
21
-4.39912
0
LINE
8
BLACK
6
CONTINUOUS
10
5.04311
20
-4.3624
11
5.04311
21
-4.39744
0
LINE
8
BLACK
6
CONTINUOUS
10
5.04311
20
-4.39744
11
5.11437
21
-4.39744
0
LINE
8
BLACK
6
CONTINUOUS
10
5.11437
20
-4.39744
11
5.11437
21
-4.3624
0
LINE
8
BLACK
6
CONTINUOUS
10
5.11437
20
-4.3624
11
5.04311
21
-4.3624
0
LINE
8
BLACK
6
CONTINUOUS
10
4.9623
20
-4.39912
11
4.96201
21
-4.39843
0
LINE
8
BLACK
6
CONTINUOUS
10
4.96201
20
-4.39843
11
4.96201
21
-4.36142
0
LINE
8
BLACK
6
CONTINUOUS
10
4.96201
20
-4.36142
11
4.9623
21
-4.36072
0
LINE
8
BLACK
6
CONTINUOUS
10
4.9623
20
-4.36072
11
4.96299
21
-4.36043
0
LINE
8
BLACK
6
CONTINUOUS
10
4.96299
20
-4.36043
11
5.03622
21
-4.36043
0
LINE
8
BLACK
6
CONTINUOUS
10
5.03622
20
-4.36043
11
5.03692
21
-4.36072
0
LINE
8
BLACK
6
CONTINUOUS
10
5.03692
20
-4.36072
11
5.0372
21
-4.36142
0
LINE
8
BLACK
6
CONTINUOUS
10
5.0372
20
-4.36142
11
5.0372
21
-4.39843
0
LINE
8
BLACK
6
CONTINUOUS
10
5.0372
20
-4.39843
11
5.03692
21
-4.39912
0
LINE
8
BLACK
6
CONTINUOUS
10
5.03692
20
-4.39912
11
5.03622
21
-4.39941
0
LINE
8
BLACK
6
CONTINUOUS
10
5.03622
20
-4.39941
11
4.96299
21
-4.39941
0
LINE
8
BLACK
6
CONTINUOUS
10
4.96299
20
-4.39941
11
4.9623
21
-4.39912
0
LINE
8
BLACK
6
CONTINUOUS
10
4.96398
20
-4.3624
11
4.96398
21
-4.39744
0
LINE
8
BLACK
6
CONTINUOUS
10
4.96398
20
-4.39744
11
5.03524
21
-4.39744
0
LINE
8
BLACK
6
CONTINUOUS
10
5.03524
20
-4.39744
11
5.03524
21
-4.3624
0
LINE
8
BLACK
6
CONTINUOUS
10
5.03524
20
-4.3624
11
4.96398
21
-4.3624
0
LINE
8
BLACK
6
CONTINUOUS
10
5.78277
20
-4.25975
11
5.78248
21
-4.25906
0
LINE
8
BLACK
6
CONTINUOUS
10
5.78248
20
-4.25906
11
5.78248
21
-4.16614
0
LINE
8
BLACK
6
CONTINUOUS
10
5.78248
20
-4.16614
11
5.78277
21
-4.16545
0
LINE
8
BLACK
6
CONTINUOUS
10
5.78277
20
-4.16545
11
5.78346
21
-4.16516
0
LINE
8
BLACK
6
CONTINUOUS
10
5.78346
20
-4.16516
11
5.87008
21
-4.16516
0
LINE
8
BLACK
6
CONTINUOUS
10
5.87008
20
-4.16516
11
5.87077
21
-4.16545
0
LINE
8
BLACK
6
CONTINUOUS
10
5.87077
20
-4.16545
11
5.87106
21
-4.16614
0
LINE
8
BLACK
6
CONTINUOUS
10
5.87106
20
-4.16614
11
5.87106
21
-4.25906
0
LINE
8
BLACK
6
CONTINUOUS
10
5.87106
20
-4.25906
11
5.87077
21
-4.25975
0
LINE
8
BLACK
6
CONTINUOUS
10
5.87077
20
-4.25975
11
5.87008
21
-4.26004
0
LINE
8
BLACK
6
CONTINUOUS
10
5.87008
20
-4.26004
11
5.78346
21
-4.26004
0
LINE
8
BLACK
6
CONTINUOUS
10
5.78346
20
-4.26004
11
5.78277
21
-4.25975
0
LINE
8
BLACK
6
CONTINUOUS
10
5.78445
20
-4.16713
11
5.78445
21
-4.25807
0
LINE
8
BLACK
6
CONTINUOUS
10
5.78445
20
-4.25807
11
5.86909
21
-4.25807
0
LINE
8
BLACK
6
CONTINUOUS
10
5.86909
20
-4.25807
11
5.86909
21
-4.16713
0
LINE
8
BLACK
6
CONTINUOUS
10
5.86909
20
-4.16713
11
5.78445
21
-4.16713
0
LINE
8
BLACK
6
CONTINUOUS
10
5.07096
20
-4.17274
11
5.07067
21
-4.17205
0
LINE
8
BLACK
6
CONTINUOUS
10
5.07067
20
-4.17205
11
5.07067
21
-4.13504
0
LINE
8
BLACK
6
CONTINUOUS
10
5.07067
20
-4.13504
11
5.07096
21
-4.13434
0
LINE
8
BLACK
6
CONTINUOUS
10
5.07096
20
-4.13434
11
5.07165
21
-4.13406
0
LINE
8
BLACK
6
CONTINUOUS
10
5.07165
20
-4.13406
11
5.14488
21
-4.13406
0
LINE
8
BLACK
6
CONTINUOUS
10
5.14488
20
-4.13406
11
5.14558
21
-4.13434
0
LINE
8
BLACK
6
CONTINUOUS
10
5.14558
20
-4.13434
11
5.14587
21
-4.13504
0
LINE
8
BLACK
6
CONTINUOUS
10
5.14587
20
-4.13504
11
5.14587
21
-4.17205
0
LINE
8
BLACK
6
CONTINUOUS
10
5.14587
20
-4.17205
11
5.14558
21
-4.17274
0
LINE
8
BLACK
6
CONTINUOUS
10
5.14558
20
-4.17274
11
5.14488
21
-4.17303
0
LINE
8
BLACK
6
CONTINUOUS
10
5.14488
20
-4.17303
11
5.07165
21
-4.17303
0
LINE
8
BLACK
6
CONTINUOUS
10
5.07165
20
-4.17303
11
5.07096
21
-4.17274
0
LINE
8
BLACK
6
CONTINUOUS
10
5.07264
20
-4.13602
11
5.07264
21
-4.17106
0
LINE
8
BLACK
6
CONTINUOUS
10
5.07264
20
-4.17106
11
5.1439
21
-4.17106
0
LINE
8
BLACK
6
CONTINUOUS
10
5.1439
20
-4.17106
11
5.1439
21
-4.13602
0
LINE
8
BLACK
6
CONTINUOUS
10
5.1439
20
-4.13602
11
5.07264
21
-4.13602
0
LINE
8
BLACK
6
CONTINUOUS
10
5.80993
20
-4.16251
11
5.80965
21
-4.16181
0
LINE
8
BLACK
6
CONTINUOUS
10
5.80965
20
-4.16181
11
5.80965
21
-4.12559
0
LINE
8
BLACK
6
CONTINUOUS
10
5.80965
20
-4.12559
11
5.80993
21
-4.12489
0
LINE
8
BLACK
6
CONTINUOUS
10
5.80993
20
-4.12489
11
5.81063
21
-4.12461
0
LINE
8
BLACK
6
CONTINUOUS
10
5.81063
20
-4.12461
11
5.88228
21
-4.12461
0
LINE
8
BLACK
6
CONTINUOUS
10
5.88228
20
-4.12461
11
5.88298
21
-4.12489
0
LINE
8
BLACK
6
CONTINUOUS
10
5.88298
20
-4.12489
11
5.88327
21
-4.12559
0
LINE
8
BLACK
6
CONTINUOUS
10
5.88327
20
-4.12559
11
5.88327
21
-4.16181
0
LINE
8
BLACK
6
CONTINUOUS
10
5.88327
20
-4.16181
11
5.88298
21
-4.16251
0
LINE
8
BLACK
6
CONTINUOUS
10
5.88298
20
-4.16251
11
5.88228
21
-4.1628
0
LINE
8
BLACK
6
CONTINUOUS
10
5.88228
20
-4.1628
11
5.81063
21
-4.1628
0
LINE
8
BLACK
6
CONTINUOUS
10
5.81063
20
-4.1628
11
5.80993
21
-4.16251
0
LINE
8
BLACK
6
CONTINUOUS
10
5.81161
20
-4.12657
11
5.81161
21
-4.16083
0
LINE
8
BLACK
6
CONTINUOUS
10
5.81161
20
-4.16083
11
5.8813
21
-4.16083
0
LINE
8
BLACK
6
CONTINUOUS
10
5.8813
20
-4.16083
11
5.8813
21
-4.12657
0
LINE
8
BLACK
6
CONTINUOUS
10
5.8813
20
-4.12657
11
5.81161
21
-4.12657
0
LINE
8
BLACK
6
CONTINUOUS
10
5.90088
20
-4.06959
11
5.90059
21
-4.0689
0
LINE
8
BLACK
6
CONTINUOUS
10
5.90059
20
-4.0689
11
5.90059
21
-3.92323
0
LINE
8
BLACK
6
CONTINUOUS
10
5.90059
20
-3.92323
11
5.90088
21
-3.92253
0
LINE
8
BLACK
6
CONTINUOUS
10
5.90088
20
-3.92253
11
5.90157
21
-3.92224
0
LINE
8
BLACK
6
CONTINUOUS
10
5.90157
20
-3.92224
11
6.12598
21
-3.92224
0
LINE
8
BLACK
6
CONTINUOUS
10
6.12598
20
-3.92224
11
6.12668
21
-3.92253
0
LINE
8
BLACK
6
CONTINUOUS
10
6.12668
20
-3.92253
11
6.12697
21
-3.92323
0
LINE
8
BLACK
6
CONTINUOUS
10
6.12697
20
-3.92323
11
6.12697
21
-4.0689
0
LINE
8
BLACK
6
CONTINUOUS
10
6.12697
20
-4.0689
11
6.12668
21
-4.06959
0
LINE
8
BLACK
6
CONTINUOUS
10
6.12668
20
-4.06959
11
6.12598
21
-4.06988
0
LINE
8
BLACK
6
CONTINUOUS
10
6.12598
20
-4.06988
11
5.90157
21
-4.06988
0
LINE
8
BLACK
6
CONTINUOUS
10
5.90157
20
-4.06988
11
5.90088
21
-4.06959
0
LINE
8
BLACK
6
CONTINUOUS
10
5.90256
20
-3.92421
11
5.90256
21
-4.06791
0
LINE
8
BLACK
6
CONTINUOUS
10
5.90256
20
-4.06791
11
6.125
21
-4.06791
0
LINE
8
BLACK
6
CONTINUOUS
10
6.125
20
-4.06791
11
6.125
21
-3.92421
0
LINE
8
BLACK
6
CONTINUOUS
10
6.125
20
-3.92421
11
5.90256
21
-3.92421
0
LINE
8
BLACK
6
CONTINUOUS
10
4.8871
20
-3.96329
11
4.88681
21
-3.9626
0
LINE
8
BLACK
6
CONTINUOUS
10
4.88681
20
-3.9626
11
4.88681
21
-3.61614
0
LINE
8
BLACK
6
CONTINUOUS
10
4.88681
20
-3.61614
11
4.8871
21
-3.61545
0
LINE
8
BLACK
6
CONTINUOUS
10
4.8871
20
-3.61545
11
4.8878
21
-3.61516
0
LINE
8
BLACK
6
CONTINUOUS
10
4.8878
20
-3.61516
11
5.09252
21
-3.61516
0
LINE
8
BLACK
6
CONTINUOUS
10
5.09252
20
-3.61516
11
5.09322
21
-3.61545
0
LINE
8
BLACK
6
CONTINUOUS
10
5.09322
20
-3.61545
11
5.0935
21
-3.61614
0
LINE
8
BLACK
6
CONTINUOUS
10
5.0935
20
-3.61614
11
5.0935
21
-3.9626
0
LINE
8
BLACK
6
CONTINUOUS
10
5.0935
20
-3.9626
11
5.09322
21
-3.96329
0
LINE
8
BLACK
6
CONTINUOUS
10
5.09322
20
-3.96329
11
5.09252
21
-3.96358
0
LINE
8
BLACK
6
CONTINUOUS
10
5.09252
20
-3.96358
11
4.8878
21
-3.96358
0
LINE
8
BLACK
6
CONTINUOUS
10
4.8878
20
-3.96358
11
4.8871
21
-3.96329
0
LINE
8
BLACK
6
CONTINUOUS
10
4.88878
20
-3.61713
11
4.88878
21
-3.96161
0
LINE
8
BLACK
6
CONTINUOUS
10
4.88878
20
-3.96161
11
5.09154
21
-3.96161
0
LINE
8
BLACK
6
CONTINUOUS
10
5.09154
20
-3.96161
11
5.09154
21
-3.61713
0
LINE
8
BLACK
6
CONTINUOUS
10
5.09154
20
-3.61713
11
4.88878
21
-3.61713
0
LINE
8
BLACK
6
CONTINUOUS
10
6.24064
20
-3.89558
11
6.24035
21
-3.89488
0
LINE
8
BLACK
6
CONTINUOUS
10
6.24035
20
-3.89488
11
6.24035
21
-3.82165
0
LINE
8
BLACK
6
CONTINUOUS
10
6.24035
20
-3.82165
11
6.24064
21
-3.82096
0
LINE
8
BLACK
6
CONTINUOUS
10
6.24064
20
-3.82096
11
6.24134
21
-3.82067
0
LINE
8
BLACK
6
CONTINUOUS
10
6.24134
20
-3.82067
11
6.27835
21
-3.82067
0
LINE
8
BLACK
6
CONTINUOUS
10
6.27835
20
-3.82067
11
6.27904
21
-3.82096
0
LINE
8
BLACK
6
CONTINUOUS
10
6.27904
20
-3.82096
11
6.27933
21
-3.82165
0
LINE
8
BLACK
6
CONTINUOUS
10
6.27933
20
-3.82165
11
6.27933
21
-3.89488
0
LINE
8
BLACK
6
CONTINUOUS
10
6.27933
20
-3.89488
11
6.27904
21
-3.89558
0
LINE
8
BLACK
6
CONTINUOUS
10
6.27904
20
-3.89558
11
6.27835
21
-3.89587
0
LINE
8
BLACK
6
CONTINUOUS
10
6.27835
20
-3.89587
11
6.24134
21
-3.89587
0
LINE
8
BLACK
6
CONTINUOUS
10
6.24134
20
-3.89587
11
6.24064
21
-3.89558
0
LINE
8
BLACK
6
CONTINUOUS
10
6.24232
20
-3.82264
11
6.24232
21
-3.8939
0
LINE
8
BLACK
6
CONTINUOUS
10
6.24232
20
-3.8939
11
6.27736
21
-3.8939
0
LINE
8
BLACK
6
CONTINUOUS
10
6.27736
20
-3.8939
11
6.27736
21
-3.82264
0
LINE
8
BLACK
6
CONTINUOUS
10
6.27736
20
-3.82264
11
6.24232
21
-3.82264
0
LINE
8
BLACK
6
CONTINUOUS
10
5.67135
20
-3.78888
11
5.67106
21
-3.78819
0
LINE
8
BLACK
6
CONTINUOUS
10
5.67106
20
-3.78819
11
5.67106
21
-3.75118
0
LINE
8
BLACK
6
CONTINUOUS
10
5.67106
20
-3.75118
11
5.67135
21
-3.75049
0
LINE
8
BLACK
6
CONTINUOUS
10
5.67135
20
-3.75049
11
5.67205
21
-3.7502
0
LINE
8
BLACK
6
CONTINUOUS
10
5.67205
20
-3.7502
11
5.74528
21
-3.7502
0
LINE
8
BLACK
6
CONTINUOUS
10
5.74528
20
-3.7502
11
5.74597
21
-3.75049
0
LINE
8
BLACK
6
CONTINUOUS
10
5.74597
20
-3.75049
11
5.74626
21
-3.75118
0
LINE
8
BLACK
6
CONTINUOUS
10
5.74626
20
-3.75118
11
5.74626
21
-3.78819
0
LINE
8
BLACK
6
CONTINUOUS
10
5.74626
20
-3.78819
11
5.74597
21
-3.78888
0
LINE
8
BLACK
6
CONTINUOUS
10
5.74597
20
-3.78888
11
5.74528
21
-3.78917
0
LINE
8
BLACK
6
CONTINUOUS
10
5.74528
20
-3.78917
11
5.67205
21
-3.78917
0
LINE
8
BLACK
6
CONTINUOUS
10
5.67205
20
-3.78917
11
5.67135
21
-3.78888
0
LINE
8
BLACK
6
CONTINUOUS
10
5.67303
20
-3.75217
11
5.67303
21
-3.7872
0
LINE
8
BLACK
6
CONTINUOUS
10
5.67303
20
-3.7872
11
5.74429
21
-3.7872
0
LINE
8
BLACK
6
CONTINUOUS
10
5.74429
20
-3.7872
11
5.74429
21
-3.75217
0
LINE
8
BLACK
6
CONTINUOUS
10
5.74429
20
-3.75217
11
5.67303
21
-3.75217
0
LINE
8
BLACK
6
CONTINUOUS
10
5.59261
20
-3.78888
11
5.59232
21
-3.78819
0
LINE
8
BLACK
6
CONTINUOUS
10
5.59232
20
-3.78819
11
5.59232
21
-3.75118
0
LINE
8
BLACK
6
CONTINUOUS
10
5.59232
20
-3.75118
11
5.59261
21
-3.75049
0
LINE
8
BLACK
6
CONTINUOUS
10
5.59261
20
-3.75049
11
5.59331
21
-3.7502
0
LINE
8
BLACK
6
CONTINUOUS
10
5.59331
20
-3.7502
11
5.66654
21
-3.7502
0
LINE
8
BLACK
6
CONTINUOUS
10
5.66654
20
-3.7502
11
5.66723
21
-3.75049
0
LINE
8
BLACK
6
CONTINUOUS
10
5.66723
20
-3.75049
11
5.66752
21
-3.75118
0
LINE
8
BLACK
6
CONTINUOUS
10
5.66752
20
-3.75118
11
5.66752
21
-3.78819
0
LINE
8
BLACK
6
CONTINUOUS
10
5.66752
20
-3.78819
11
5.66723
21
-3.78888
0
LINE
8
BLACK
6
CONTINUOUS
10
5.66723
20
-3.78888
11
5.66654
21
-3.78917
0
LINE
8
BLACK
6
CONTINUOUS
10
5.66654
20
-3.78917
11
5.59331
21
-3.78917
0
LINE
8
BLACK
6
CONTINUOUS
10
5.59331
20
-3.78917
11
5.59261
21
-3.78888
0
LINE
8
BLACK
6
CONTINUOUS
10
5.59429
20
-3.75217
11
5.59429
21
-3.7872
0
LINE
8
BLACK
6
CONTINUOUS
10
5.59429
20
-3.7872
11
5.66555
21
-3.7872
0
LINE
8
BLACK
6
CONTINUOUS
10
5.66555
20
-3.7872
11
5.66555
21
-3.75217
0
LINE
8
BLACK
6
CONTINUOUS
10
5.66555
20
-3.75217
11
5.59429
21
-3.75217
0
LINE
8
BLACK
6
CONTINUOUS
10
5.59281
20
-3.74951
11
5.59252
21
-3.74882
0
LINE
8
BLACK
6
CONTINUOUS
10
5.59252
20
-3.74882
11
5.59252
21
-3.71181
0
LINE
8
BLACK
6
CONTINUOUS
10
5.59252
20
-3.71181
11
5.59281
21
-3.71112
0
LINE
8
BLACK
6
CONTINUOUS
10
5.59281
20
-3.71112
11
5.5935
21
-3.71083
0
LINE
8
BLACK
6
CONTINUOUS
10
5.5935
20
-3.71083
11
5.66673
21
-3.71083
0
LINE
8
BLACK
6
CONTINUOUS
10
5.66673
20
-3.71083
11
5.66743
21
-3.71112
0
LINE
8
BLACK
6
CONTINUOUS
10
5.66743
20
-3.71112
11
5.66772
21
-3.71181
0
LINE
8
BLACK
6
CONTINUOUS
10
5.66772
20
-3.71181
11
5.66772
21
-3.74882
0
LINE
8
BLACK
6
CONTINUOUS
10
5.66772
20
-3.74882
11
5.66743
21
-3.74951
0
LINE
8
BLACK
6
CONTINUOUS
10
5.66743
20
-3.74951
11
5.66673
21
-3.7498
0
LINE
8
BLACK
6
CONTINUOUS
10
5.66673
20
-3.7498
11
5.5935
21
-3.7498
0
LINE
8
BLACK
6
CONTINUOUS
10
5.5935
20
-3.7498
11
5.59281
21
-3.74951
0
LINE
8
BLACK
6
CONTINUOUS
10
5.59449
20
-3.7128
11
5.59449
21
-3.74783
0
LINE
8
BLACK
6
CONTINUOUS
10
5.59449
20
-3.74783
11
5.66575
21
-3.74783
0
LINE
8
BLACK
6
CONTINUOUS
10
5.66575
20
-3.74783
11
5.66575
21
-3.7128
0
LINE
8
BLACK
6
CONTINUOUS
10
5.66575
20
-3.7128
11
5.59449
21
-3.7128
0
LINE
8
BLACK
6
CONTINUOUS
10
5.67174
20
-3.74951
11
5.67146
21
-3.74882
0
LINE
8
BLACK
6
CONTINUOUS
10
5.67146
20
-3.74882
11
5.67146
21
-3.71181
0
LINE
8
BLACK
6
CONTINUOUS
10
5.67146
20
-3.71181
11
5.67174
21
-3.71112
0
LINE
8
BLACK
6
CONTINUOUS
10
5.67174
20
-3.71112
11
5.67244
21
-3.71083
0
LINE
8
BLACK
6
CONTINUOUS
10
5.67244
20
-3.71083
11
5.74567
21
-3.71083
0
LINE
8
BLACK
6
CONTINUOUS
10
5.74567
20
-3.71083
11
5.74637
21
-3.71112
0
LINE
8
BLACK
6
CONTINUOUS
10
5.74637
20
-3.71112
11
5.74665
21
-3.71181
0
LINE
8
BLACK
6
CONTINUOUS
10
5.74665
20
-3.71181
11
5.74665
21
-3.74882
0
LINE
8
BLACK
6
CONTINUOUS
10
5.74665
20
-3.74882
11
5.74637
21
-3.74951
0
LINE
8
BLACK
6
CONTINUOUS
10
5.74637
20
-3.74951
11
5.74567
21
-3.7498
0
LINE
8
BLACK
6
CONTINUOUS
10
5.74567
20
-3.7498
11
5.67244
21
-3.7498
0
LINE
8
BLACK
6
CONTINUOUS
10
5.67244
20
-3.7498
11
5.67174
21
-3.74951
0
LINE
8
BLACK
6
CONTINUOUS
10
5.67343
20
-3.7128
11
5.67343
21
-3.74783
0
LINE
8
BLACK
6
CONTINUOUS
10
5.67343
20
-3.74783
11
5.74469
21
-3.74783
0
LINE
8
BLACK
6
CONTINUOUS
10
5.74469
20
-3.74783
11
5.74469
21
-3.7128
0
LINE
8
BLACK
6
CONTINUOUS
10
5.74469
20
-3.7128
11
5.67343
21
-3.7128
0
LINE
8
BLACK
6
CONTINUOUS
10
5.60403
20
-3.69991
11
5.60374
21
-3.69921
0
LINE
8
BLACK
6
CONTINUOUS
10
5.60374
20
-3.69921
11
5.60374
21
-3.66299
0
LINE
8
BLACK
6
CONTINUOUS
10
5.60374
20
-3.66299
11
5.60403
21
-3.6623
0
LINE
8
BLACK
6
CONTINUOUS
10
5.60403
20
-3.6623
11
5.60472
21
-3.66201
0
LINE
8
BLACK
6
CONTINUOUS
10
5.60472
20
-3.66201
11
5.67638
21
-3.66201
0
LINE
8
BLACK
6
CONTINUOUS
10
5.67638
20
-3.66201
11
5.67707
21
-3.6623
0
LINE
8
BLACK
6
CONTINUOUS
10
5.67707
20
-3.6623
11
5.67736
21
-3.66299
0
LINE
8
BLACK
6
CONTINUOUS
10
5.67736
20
-3.66299
11
5.67736
21
-3.69921
0
LINE
8
BLACK
6
CONTINUOUS
10
5.67736
20
-3.69921
11
5.67707
21
-3.69991
0
LINE
8
BLACK
6
CONTINUOUS
10
5.67707
20
-3.69991
11
5.67638
21
-3.7002
0
LINE
8
BLACK
6
CONTINUOUS
10
5.67638
20
-3.7002
11
5.60472
21
-3.7002
0
LINE
8
BLACK
6
CONTINUOUS
10
5.60472
20
-3.7002
11
5.60403
21
-3.69991
0
LINE
8
BLACK
6
CONTINUOUS
10
5.60571
20
-3.66398
11
5.60571
21
-3.69823
0
LINE
8
BLACK
6
CONTINUOUS
10
5.60571
20
-3.69823
11
5.67539
21
-3.69823
0
LINE
8
BLACK
6
CONTINUOUS
10
5.67539
20
-3.69823
11
5.67539
21
-3.66398
0
LINE
8
BLACK
6
CONTINUOUS
10
5.67539
20
-3.66398
11
5.60571
21
-3.66398
0
LINE
8
BLACK
6
CONTINUOUS
10
5.60324
20
-3.66054
11
5.60295
21
-3.65984
0
LINE
8
BLACK
6
CONTINUOUS
10
5.60295
20
-3.65984
11
5.60295
21
-3.62362
0
LINE
8
BLACK
6
CONTINUOUS
10
5.60295
20
-3.62362
11
5.60324
21
-3.62293
0
LINE
8
BLACK
6
CONTINUOUS
10
5.60324
20
-3.62293
11
5.60394
21
-3.62264
0
LINE
8
BLACK
6
CONTINUOUS
10
5.60394
20
-3.62264
11
5.67559
21
-3.62264
0
LINE
8
BLACK
6
CONTINUOUS
10
5.67559
20
-3.62264
11
5.67629
21
-3.62293
0
LINE
8
BLACK
6
CONTINUOUS
10
5.67629
20
-3.62293
11
5.67657
21
-3.62362
0
LINE
8
BLACK
6
CONTINUOUS
10
5.67657
20
-3.62362
11
5.67657
21
-3.65984
0
LINE
8
BLACK
6
CONTINUOUS
10
5.67657
20
-3.65984
11
5.67629
21
-3.66054
0
LINE
8
BLACK
6
CONTINUOUS
10
5.67629
20
-3.66054
11
5.67559
21
-3.66083
0
LINE
8
BLACK
6
CONTINUOUS
10
5.67559
20
-3.66083
11
5.60394
21
-3.66083
0
LINE
8
BLACK
6
CONTINUOUS
10
5.60394
20
-3.66083
11
5.60324
21
-3.66054
0
LINE
8
BLACK
6
CONTINUOUS
10
5.60492
20
-3.62461
11
5.60492
21
-3.65886
0
LINE
8
BLACK
6
CONTINUOUS
10
5.60492
20
-3.65886
11
5.67461
21
-3.65886
0
LINE
8
BLACK
6
CONTINUOUS
10
5.67461
20
-3.65886
11
5.67461
21
-3.62461
0
LINE
8
BLACK
6
CONTINUOUS
10
5.67461
20
-3.62461
11
5.60492
21
-3.62461
0
LINE
8
BLACK
6
CONTINUOUS
10
5.16033
20
-3.62117
11
5.16004
21
-3.62047
0
LINE
8
BLACK
6
CONTINUOUS
10
5.16004
20
-3.62047
11
5.16004
21
-3.58425
0
LINE
8
BLACK
6
CONTINUOUS
10
5.16004
20
-3.58425
11
5.16033
21
-3.58356
0
LINE
8
BLACK
6
CONTINUOUS
10
5.16033
20
-3.58356
11
5.16102
21
-3.58327
0
LINE
8
BLACK
6
CONTINUOUS
10
5.16102
20
-3.58327
11
5.23268
21
-3.58327
0
LINE
8
BLACK
6
CONTINUOUS
10
5.23268
20
-3.58327
11
5.23337
21
-3.58356
0
LINE
8
BLACK
6
CONTINUOUS
10
5.23337
20
-3.58356
11
5.23366
21
-3.58425
0
LINE
8
BLACK
6
CONTINUOUS
10
5.23366
20
-3.58425
11
5.23366
21
-3.62047
0
LINE
8
BLACK
6
CONTINUOUS
10
5.23366
20
-3.62047
11
5.23337
21
-3.62117
0
LINE
8
BLACK
6
CONTINUOUS
10
5.23337
20
-3.62117
11
5.23268
21
-3.62146
0
LINE
8
BLACK
6
CONTINUOUS
10
5.23268
20
-3.62146
11
5.16102
21
-3.62146
0
LINE
8
BLACK
6
CONTINUOUS
10
5.16102
20
-3.62146
11
5.16033
21
-3.62117
0
LINE
8
BLACK
6
CONTINUOUS
10
5.16201
20
-3.58524
11
5.16201
21
-3.61949
0
LINE
8
BLACK
6
CONTINUOUS
10
5.16201
20
-3.61949
11
5.23169
21
-3.61949
0
LINE
8
BLACK
6
CONTINUOUS
10
5.23169
20
-3.61949
11
5.23169
21
-3.58524
0
LINE
8
BLACK
6
CONTINUOUS
10
5.23169
20
-3.58524
11
5.16201
21
-3.58524
0
LINE
8
BLACK
6
CONTINUOUS
10
5.59261
20
-3.5818
11
5.59232
21
-3.5811
0
LINE
8
BLACK
6
CONTINUOUS
10
5.59232
20
-3.5811
11
5.59232
21
-3.54488
0
LINE
8
BLACK
6
CONTINUOUS
10
5.59232
20
-3.54488
11
5.59261
21
-3.54419
0
LINE
8
BLACK
6
CONTINUOUS
10
5.59261
20
-3.54419
11
5.59331
21
-3.5439
0
LINE
8
BLACK
6
CONTINUOUS
10
5.59331
20
-3.5439
11
5.66496
21
-3.5439
0
LINE
8
BLACK
6
CONTINUOUS
10
5.66496
20
-3.5439
11
5.66566
21
-3.54419
0
LINE
8
BLACK
6
CONTINUOUS
10
5.66566
20
-3.54419
11
5.66594
21
-3.54488
0
LINE
8
BLACK
6
CONTINUOUS
10
5.66594
20
-3.54488
11
5.66594
21
-3.5811
0
LINE
8
BLACK
6
CONTINUOUS
10
5.66594
20
-3.5811
11
5.66566
21
-3.5818
0
LINE
8
BLACK
6
CONTINUOUS
10
5.66566
20
-3.5818
11
5.66496
21
-3.58209
0
LINE
8
BLACK
6
CONTINUOUS
10
5.66496
20
-3.58209
11
5.59331
21
-3.58209
0
LINE
8
BLACK
6
CONTINUOUS
10
5.59331
20
-3.58209
11
5.59261
21
-3.5818
0
LINE
8
BLACK
6
CONTINUOUS
10
5.59429
20
-3.54587
11
5.59429
21
-3.58012
0
LINE
8
BLACK
6
CONTINUOUS
10
5.59429
20
-3.58012
11
5.66398
21
-3.58012
0
LINE
8
BLACK
6
CONTINUOUS
10
5.66398
20
-3.58012
11
5.66398
21
-3.54587
0
LINE
8
BLACK
6
CONTINUOUS
10
5.66398
20
-3.54587
11
5.59429
21
-3.54587
0
LINE
8
BLACK
6
CONTINUOUS
10
5.16033
20
-3.5818
11
5.16004
21
-3.5811
0
LINE
8
BLACK
6
CONTINUOUS
10
5.16004
20
-3.5811
11
5.16004
21
-3.54488
0
LINE
8
BLACK
6
CONTINUOUS
10
5.16004
20
-3.54488
11
5.16033
21
-3.54419
0
LINE
8
BLACK
6
CONTINUOUS
10
5.16033
20
-3.54419
11
5.16102
21
-3.5439
0
LINE
8
BLACK
6
CONTINUOUS
10
5.16102
20
-3.5439
11
5.23268
21
-3.5439
0
LINE
8
BLACK
6
CONTINUOUS
10
5.23268
20
-3.5439
11
5.23337
21
-3.54419
0
LINE
8
BLACK
6
CONTINUOUS
10
5.23337
20
-3.54419
11
5.23366
21
-3.54488
0
LINE
8
BLACK
6
CONTINUOUS
10
5.23366
20
-3.54488
11
5.23366
21
-3.5811
0
LINE
8
BLACK
6
CONTINUOUS
10
5.23366
20
-3.5811
11
5.23337
21
-3.5818
0
LINE
8
BLACK
6
CONTINUOUS
10
5.23337
20
-3.5818
11
5.23268
21
-3.58209
0
LINE
8
BLACK
6
CONTINUOUS
10
5.23268
20
-3.58209
11
5.16102
21
-3.58209
0
LINE
8
BLACK
6
CONTINUOUS
10
5.16102
20
-3.58209
11
5.16033
21
-3.5818
0
LINE
8
BLACK
6
CONTINUOUS
10
5.16201
20
-3.54587
11
5.16201
21
-3.58012
0
LINE
8
BLACK
6
CONTINUOUS
10
5.16201
20
-3.58012
11
5.23169
21
-3.58012
0
LINE
8
BLACK
6
CONTINUOUS
10
5.23169
20
-3.58012
11
5.23169
21
-3.54587
0
LINE
8
BLACK
6
CONTINUOUS
10
5.23169
20
-3.54587
11
5.16201
21
-3.54587
0
LINE
8
BLACK
6
CONTINUOUS
10
5.16033
20
-3.54243
11
5.16004
21
-3.54173
0
LINE
8
BLACK
6
CONTINUOUS
10
5.16004
20
-3.54173
11
5.16004
21
-3.50551
0
LINE
8
BLACK
6
CONTINUOUS
10
5.16004
20
-3.50551
11
5.16033
21
-3.50482
0
LINE
8
BLACK
6
CONTINUOUS
10
5.16033
20
-3.50482
11
5.16102
21
-3.50453
0
LINE
8
BLACK
6
CONTINUOUS
10
5.16102
20
-3.50453
11
5.23268
21
-3.50453
0
LINE
8
BLACK
6
CONTINUOUS
10
5.23268
20
-3.50453
11
5.23337
21
-3.50482
0
LINE
8
BLACK
6
CONTINUOUS
10
5.23337
20
-3.50482
11
5.23366
21
-3.50551
0
LINE
8
BLACK
6
CONTINUOUS
10
5.23366
20
-3.50551
11
5.23366
21
-3.54173
0
LINE
8
BLACK
6
CONTINUOUS
10
5.23366
20
-3.54173
11
5.23337
21
-3.54243
0
LINE
8
BLACK
6
CONTINUOUS
10
5.23337
20
-3.54243
11
5.23268
21
-3.54272
0
LINE
8
BLACK
6
CONTINUOUS
10
5.23268
20
-3.54272
11
5.16102
21
-3.54272
0
LINE
8
BLACK
6
CONTINUOUS
10
5.16102
20
-3.54272
11
5.16033
21
-3.54243
0
LINE
8
BLACK
6
CONTINUOUS
10
5.16201
20
-3.5065
11
5.16201
21
-3.54075
0
LINE
8
BLACK
6
CONTINUOUS
10
5.16201
20
-3.54075
11
5.23169
21
-3.54075
0
LINE
8
BLACK
6
CONTINUOUS
10
5.23169
20
-3.54075
11
5.23169
21
-3.5065
0
LINE
8
BLACK
6
CONTINUOUS
10
5.23169
20
-3.5065
11
5.16201
21
-3.5065
0
LINE
8
BLACK
6
CONTINUOUS
10
5.6997
20
-3.50109
11
5.69941
21
-3.50039
0
LINE
8
BLACK
6
CONTINUOUS
10
5.69941
20
-3.50039
11
5.69941
21
-3.42874
0
LINE
8
BLACK
6
CONTINUOUS
10
5.69941
20
-3.42874
11
5.6997
21
-3.42804
0
LINE
8
BLACK
6
CONTINUOUS
10
5.6997
20
-3.42804
11
5.70039
21
-3.42776
0
LINE
8
BLACK
6
CONTINUOUS
10
5.70039
20
-3.42776
11
5.73661
21
-3.42776
0
LINE
8
BLACK
6
CONTINUOUS
10
5.73661
20
-3.42776
11
5.73731
21
-3.42804
0
LINE
8
BLACK
6
CONTINUOUS
10
5.73731
20
-3.42804
11
5.7376
21
-3.42874
0
LINE
8
BLACK
6
CONTINUOUS
10
5.7376
20
-3.42874
11
5.7376
21
-3.50039
0
LINE
8
BLACK
6
CONTINUOUS
10
5.7376
20
-3.50039
11
5.73731
21
-3.50109
0
LINE
8
BLACK
6
CONTINUOUS
10
5.73731
20
-3.50109
11
5.73661
21
-3.50138
0
LINE
8
BLACK
6
CONTINUOUS
10
5.73661
20
-3.50138
11
5.70039
21
-3.50138
0
LINE
8
BLACK
6
CONTINUOUS
10
5.70039
20
-3.50138
11
5.6997
21
-3.50109
0
LINE
8
BLACK
6
CONTINUOUS
10
5.70138
20
-3.42972
11
5.70138
21
-3.49941
0
LINE
8
BLACK
6
CONTINUOUS
10
5.70138
20
-3.49941
11
5.73563
21
-3.49941
0
LINE
8
BLACK
6
CONTINUOUS
10
5.73563
20
-3.49941
11
5.73563
21
-3.42972
0
LINE
8
BLACK
6
CONTINUOUS
10
5.73563
20
-3.42972
11
5.70138
21
-3.42972
0
LINE
8
BLACK
6
CONTINUOUS
10
4.77568
20
-3.45424
11
4.77539
21
-3.45354
0
LINE
8
BLACK
6
CONTINUOUS
10
4.77539
20
-3.45354
11
4.77539
21
-3.41654
0
LINE
8
BLACK
6
CONTINUOUS
10
4.77539
20
-3.41654
11
4.77568
21
-3.41584
0
LINE
8
BLACK
6
CONTINUOUS
10
4.77568
20
-3.41584
11
4.77638
21
-3.41555
0
LINE
8
BLACK
6
CONTINUOUS
10
4.77638
20
-3.41555
11
4.84961
21
-3.41555
0
LINE
8
BLACK
6
CONTINUOUS
10
4.84961
20
-3.41555
11
4.8503
21
-3.41584
0
LINE
8
BLACK
6
CONTINUOUS
10
4.8503
20
-3.41584
11
4.85059
21
-3.41654
0
LINE
8
BLACK
6
CONTINUOUS
10
4.85059
20
-3.41654
11
4.85059
21
-3.45354
0
LINE
8
BLACK
6
CONTINUOUS
10
4.85059
20
-3.45354
11
4.8503
21
-3.45424
0
LINE
8
BLACK
6
CONTINUOUS
10
4.8503
20
-3.45424
11
4.84961
21
-3.45453
0
LINE
8
BLACK
6
CONTINUOUS
10
4.84961
20
-3.45453
11
4.77638
21
-3.45453
0
LINE
8
BLACK
6
CONTINUOUS
10
4.77638
20
-3.45453
11
4.77568
21
-3.45424
0
LINE
8
BLACK
6
CONTINUOUS
10
4.77736
20
-3.41752
11
4.77736
21
-3.45256
0
LINE
8
BLACK
6
CONTINUOUS
10
4.77736
20
-3.45256
11
4.84862
21
-3.45256
0
LINE
8
BLACK
6
CONTINUOUS
10
4.84862
20
-3.45256
11
4.84862
21
-3.41752
0
LINE
8
BLACK
6
CONTINUOUS
10
4.84862
20
-3.41752
11
4.77736
21
-3.41752
0
LINE
8
BLACK
6
CONTINUOUS
10
4.69694
20
-3.45424
11
4.69665
21
-3.45354
0
LINE
8
BLACK
6
CONTINUOUS
10
4.69665
20
-3.45354
11
4.69665
21
-3.41654
0
LINE
8
BLACK
6
CONTINUOUS
10
4.69665
20
-3.41654
11
4.69694
21
-3.41584
0
LINE
8
BLACK
6
CONTINUOUS
10
4.69694
20
-3.41584
11
4.69764
21
-3.41555
0
LINE
8
BLACK
6
CONTINUOUS
10
4.69764
20
-3.41555
11
4.77087
21
-3.41555
0
LINE
8
BLACK
6
CONTINUOUS
10
4.77087
20
-3.41555
11
4.77156
21
-3.41584
0
LINE
8
BLACK
6
CONTINUOUS
10
4.77156
20
-3.41584
11
4.77185
21
-3.41654
0
LINE
8
BLACK
6
CONTINUOUS
10
4.77185
20
-3.41654
11
4.77185
21
-3.45354
0
LINE
8
BLACK
6
CONTINUOUS
10
4.77185
20
-3.45354
11
4.77156
21
-3.45424
0
LINE
8
BLACK
6
CONTINUOUS
10
4.77156
20
-3.45424
11
4.77087
21
-3.45453
0
LINE
8
BLACK
6
CONTINUOUS
10
4.77087
20
-3.45453
11
4.69764
21
-3.45453
0
LINE
8
BLACK
6
CONTINUOUS
10
4.69764
20
-3.45453
11
4.69694
21
-3.45424
0
LINE
8
BLACK
6
CONTINUOUS
10
4.69862
20
-3.41752
11
4.69862
21
-3.45256
0
LINE
8
BLACK
6
CONTINUOUS
10
4.69862
20
-3.45256
11
4.76988
21
-3.45256
0
LINE
8
BLACK
6
CONTINUOUS
10
4.76988
20
-3.45256
11
4.76988
21
-3.41752
0
LINE
8
BLACK
6
CONTINUOUS
10
4.76988
20
-3.41752
11
4.69862
21
-3.41752
0
LINE
8
BLACK
6
CONTINUOUS
10
5.59419
20
-3.38495
11
5.5939
21
-3.38425
0
LINE
8
BLACK
6
CONTINUOUS
10
5.5939
20
-3.38425
11
5.5939
21
-3.34803
0
LINE
8
BLACK
6
CONTINUOUS
10
5.5939
20
-3.34803
11
5.59419
21
-3.34734
0
LINE
8
BLACK
6
CONTINUOUS
10
5.59419
20
-3.34734
11
5.59488
21
-3.34705
0
LINE
8
BLACK
6
CONTINUOUS
10
5.59488
20
-3.34705
11
5.66654
21
-3.34705
0
LINE
8
BLACK
6
CONTINUOUS
10
5.66654
20
-3.34705
11
5.66723
21
-3.34734
0
LINE
8
BLACK
6
CONTINUOUS
10
5.66723
20
-3.34734
11
5.66752
21
-3.34803
0
LINE
8
BLACK
6
CONTINUOUS
10
5.66752
20
-3.34803
11
5.66752
21
-3.38425
0
LINE
8
BLACK
6
CONTINUOUS
10
5.66752
20
-3.38425
11
5.66723
21
-3.38495
0
LINE
8
BLACK
6
CONTINUOUS
10
5.66723
20
-3.38495
11
5.66654
21
-3.38524
0
LINE
8
BLACK
6
CONTINUOUS
10
5.66654
20
-3.38524
11
5.59488
21
-3.38524
0
LINE
8
BLACK
6
CONTINUOUS
10
5.59488
20
-3.38524
11
5.59419
21
-3.38495
0
LINE
8
BLACK
6
CONTINUOUS
10
5.59587
20
-3.34902
11
5.59587
21
-3.38327
0
LINE
8
BLACK
6
CONTINUOUS
10
5.59587
20
-3.38327
11
5.66555
21
-3.38327
0
LINE
8
BLACK
6
CONTINUOUS
10
5.66555
20
-3.38327
11
5.66555
21
-3.34902
0
LINE
8
BLACK
6
CONTINUOUS
10
5.66555
20
-3.34902
11
5.59587
21
-3.34902
0
LINE
8
BLACK
6
CONTINUOUS
10
5.74615
20
-2.70424
11
5.74587
21
-2.70354
0
LINE
8
BLACK
6
CONTINUOUS
10
5.74587
20
-2.70354
11
5.74587
21
-2.66654
0
LINE
8
BLACK
6
CONTINUOUS
10
5.74587
20
-2.66654
11
5.74615
21
-2.66584
0
LINE
8
BLACK
6
CONTINUOUS
10
5.74615
20
-2.66584
11
5.74685
21
-2.66555
0
LINE
8
BLACK
6
CONTINUOUS
10
5.74685
20
-2.66555
11
5.82008
21
-2.66555
0
LINE
8
BLACK
6
CONTINUOUS
10
5.82008
20
-2.66555
11
5.82077
21
-2.66584
0
LINE
8
BLACK
6
CONTINUOUS
10
5.82077
20
-2.66584
11
5.82106
21
-2.66654
0
LINE
8
BLACK
6
CONTINUOUS
10
5.82106
20
-2.66654
11
5.82106
21
-2.70354
0
LINE
8
BLACK
6
CONTINUOUS
10
5.82106
20
-2.70354
11
5.82077
21
-2.70424
0
LINE
8
BLACK
6
CONTINUOUS
10
5.82077
20
-2.70424
11
5.82008
21
-2.70453
0
LINE
8
BLACK
6
CONTINUOUS
10
5.82008
20
-2.70453
11
5.74685
21
-2.70453
0
LINE
8
BLACK
6
CONTINUOUS
10
5.74685
20
-2.70453
11
5.74615
21
-2.70424
0
LINE
8
BLACK
6
CONTINUOUS
10
5.74783
20
-2.66752
11
5.74783
21
-2.70256
0
LINE
8
BLACK
6
CONTINUOUS
10
5.74783
20
-2.70256
11
5.81909
21
-2.70256
0
LINE
8
BLACK
6
CONTINUOUS
10
5.81909
20
-2.70256
11
5.81909
21
-2.66752
0
LINE
8
BLACK
6
CONTINUOUS
10
5.81909
20
-2.66752
11
5.74783
21
-2.66752
0
LINE
8
BLACK
6
CONTINUOUS
10
5.82883
20
-2.70424
11
5.82854
21
-2.70354
0
LINE
8
BLACK
6
CONTINUOUS
10
5.82854
20
-2.70354
11
5.82854
21
-2.66654
0
LINE
8
BLACK
6
CONTINUOUS
10
5.82854
20
-2.66654
11
5.82883
21
-2.66584
0
LINE
8
BLACK
6
CONTINUOUS
10
5.82883
20
-2.66584
11
5.82953
21
-2.66555
0
LINE
8
BLACK
6
CONTINUOUS
10
5.82953
20
-2.66555
11
5.90276
21
-2.66555
0
LINE
8
BLACK
6
CONTINUOUS
10
5.90276
20
-2.66555
11
5.90345
21
-2.66584
0
LINE
8
BLACK
6
CONTINUOUS
10
5.90345
20
-2.66584
11
5.90374
21
-2.66654
0
LINE
8
BLACK
6
CONTINUOUS
10
5.90374
20
-2.66654
11
5.90374
21
-2.70354
0
LINE
8
BLACK
6
CONTINUOUS
10
5.90374
20
-2.70354
11
5.90345
21
-2.70424
0
LINE
8
BLACK
6
CONTINUOUS
10
5.90345
20
-2.70424
11
5.90276
21
-2.70453
0
LINE
8
BLACK
6
CONTINUOUS
10
5.90276
20
-2.70453
11
5.82953
21
-2.70453
0
LINE
8
BLACK
6
CONTINUOUS
10
5.82953
20
-2.70453
11
5.82883
21
-2.70424
0
LINE
8
BLACK
6
CONTINUOUS
10
5.83051
20
-2.66752
11
5.83051
21
-2.70256
0
LINE
8
BLACK
6
CONTINUOUS
10
5.83051
20
-2.70256
11
5.90177
21
-2.70256
0
LINE
8
BLACK
6
CONTINUOUS
10
5.90177
20
-2.70256
11
5.90177
21
-2.66752
0
LINE
8
BLACK
6
CONTINUOUS
10
5.90177
20
-2.66752
11
5.83051
21
-2.66752
0
LINE
8
BLACK
6
CONTINUOUS
10
5.58572
20
-2.6882
11
5.58543
21
-2.6875
0
LINE
8
BLACK
6
CONTINUOUS
10
5.58543
20
-2.6875
11
5.58543
21
-2.58809
0
LINE
8
BLACK
6
CONTINUOUS
10
5.58543
20
-2.58809
11
5.58572
21
-2.58739
0
LINE
8
BLACK
6
CONTINUOUS
10
5.58572
20
-2.58739
11
5.58642
21
-2.58711
0
LINE
8
BLACK
6
CONTINUOUS
10
5.58642
20
-2.58711
11
5.72854
21
-2.58711
0
LINE
8
BLACK
6
CONTINUOUS
10
5.72854
20
-2.58711
11
5.72924
21
-2.58739
0
LINE
8
BLACK
6
CONTINUOUS
10
5.72924
20
-2.58739
11
5.72953
21
-2.58809
0
LINE
8
BLACK
6
CONTINUOUS
10
5.72953
20
-2.58809
11
5.72953
21
-2.6875
0
LINE
8
BLACK
6
CONTINUOUS
10
5.72953
20
-2.6875
11
5.72924
21
-2.6882
0
LINE
8
BLACK
6
CONTINUOUS
10
5.72924
20
-2.6882
11
5.72854
21
-2.68848
0
LINE
8
BLACK
6
CONTINUOUS
10
5.72854
20
-2.68848
11
5.58642
21
-2.68848
0
LINE
8
BLACK
6
CONTINUOUS
10
5.58642
20
-2.68848
11
5.58572
21
-2.6882
0
LINE
8
BLACK
6
CONTINUOUS
10
5.5874
20
-2.58907
11
5.5874
21
-2.68652
0
LINE
8
BLACK
6
CONTINUOUS
10
5.5874
20
-2.68652
11
5.72756
21
-2.68652
0
LINE
8
BLACK
6
CONTINUOUS
10
5.72756
20
-2.68652
11
5.72756
21
-2.58907
0
LINE
8
BLACK
6
CONTINUOUS
10
5.72756
20
-2.58907
11
5.5874
21
-2.58907
0
LINE
8
BLACK
6
CONTINUOUS
10
5.493
20
-2.66369
11
5.49272
21
-2.66299
0
LINE
8
BLACK
6
CONTINUOUS
10
5.49272
20
-2.66299
11
5.49272
21
-2.59134
0
LINE
8
BLACK
6
CONTINUOUS
10
5.49272
20
-2.59134
11
5.493
21
-2.59064
0
LINE
8
BLACK
6
CONTINUOUS
10
5.493
20
-2.59064
11
5.4937
21
-2.59035
0
LINE
8
BLACK
6
CONTINUOUS
10
5.4937
20
-2.59035
11
5.52992
21
-2.59035
0
LINE
8
BLACK
6
CONTINUOUS
10
5.52992
20
-2.59035
11
5.53062
21
-2.59064
0
LINE
8
BLACK
6
CONTINUOUS
10
5.53062
20
-2.59064
11
5.53091
21
-2.59134
0
LINE
8
BLACK
6
CONTINUOUS
10
5.53091
20
-2.59134
11
5.53091
21
-2.66299
0
LINE
8
BLACK
6
CONTINUOUS
10
5.53091
20
-2.66299
11
5.53062
21
-2.66369
0
LINE
8
BLACK
6
CONTINUOUS
10
5.53062
20
-2.66369
11
5.52992
21
-2.66398
0
LINE
8
BLACK
6
CONTINUOUS
10
5.52992
20
-2.66398
11
5.4937
21
-2.66398
0
LINE
8
BLACK
6
CONTINUOUS
10
5.4937
20
-2.66398
11
5.493
21
-2.66369
0
LINE
8
BLACK
6
CONTINUOUS
10
5.49469
20
-2.59232
11
5.49469
21
-2.66201
0
LINE
8
BLACK
6
CONTINUOUS
10
5.49469
20
-2.66201
11
5.52894
21
-2.66201
0
LINE
8
BLACK
6
CONTINUOUS
10
5.52894
20
-2.66201
11
5.52894
21
-2.59232
0
LINE
8
BLACK
6
CONTINUOUS
10
5.52894
20
-2.59232
11
5.49469
21
-2.59232
0
LINE
8
BLACK
6
CONTINUOUS
10
5.82962
20
-2.66054
11
5.82933
21
-2.65984
0
LINE
8
BLACK
6
CONTINUOUS
10
5.82933
20
-2.65984
11
5.82933
21
-2.62362
0
LINE
8
BLACK
6
CONTINUOUS
10
5.82933
20
-2.62362
11
5.82962
21
-2.62293
0
LINE
8
BLACK
6
CONTINUOUS
10
5.82962
20
-2.62293
11
5.83031
21
-2.62264
0
LINE
8
BLACK
6
CONTINUOUS
10
5.83031
20
-2.62264
11
5.90197
21
-2.62264
0
LINE
8
BLACK
6
CONTINUOUS
10
5.90197
20
-2.62264
11
5.90266
21
-2.62293
0
LINE
8
BLACK
6
CONTINUOUS
10
5.90266
20
-2.62293
11
5.90295
21
-2.62362
0
LINE
8
BLACK
6
CONTINUOUS
10
5.90295
20
-2.62362
11
5.90295
21
-2.65984
0
LINE
8
BLACK
6
CONTINUOUS
10
5.90295
20
-2.65984
11
5.90266
21
-2.66054
0
LINE
8
BLACK
6
CONTINUOUS
10
5.90266
20
-2.66054
11
5.90197
21
-2.66083
0
LINE
8
BLACK
6
CONTINUOUS
10
5.90197
20
-2.66083
11
5.83031
21
-2.66083
0
LINE
8
BLACK
6
CONTINUOUS
10
5.83031
20
-2.66083
11
5.82962
21
-2.66054
0
LINE
8
BLACK
6
CONTINUOUS
10
5.8313
20
-2.62461
11
5.8313
21
-2.65886
0
LINE
8
BLACK
6
CONTINUOUS
10
5.8313
20
-2.65886
11
5.90098
21
-2.65886
0
LINE
8
BLACK
6
CONTINUOUS
10
5.90098
20
-2.65886
11
5.90098
21
-2.62461
0
LINE
8
BLACK
6
CONTINUOUS
10
5.90098
20
-2.62461
11
5.8313
21
-2.62461
0
LINE
8
BLACK
6
CONTINUOUS
10
5.5313
20
-2.47323
11
5.5313
21
-2.54646
0
LINE
8
BLACK
6
CONTINUOUS
10
5.5313
20
-2.54646
11
5.53101
21
-2.54715
0
LINE
8
BLACK
6
CONTINUOUS
10
5.53101
20
-2.54715
11
5.53031
21
-2.54744
0
LINE
8
BLACK
6
CONTINUOUS
10
5.53031
20
-2.54744
11
5.49331
21
-2.54744
0
LINE
8
BLACK
6
CONTINUOUS
10
5.49331
20
-2.54744
11
5.49261
21
-2.54715
0
LINE
8
BLACK
6
CONTINUOUS
10
5.49261
20
-2.54715
11
5.49238
21
-2.5466
0
LINE
8
BLACK
6
CONTINUOUS
10
5.49238
20
-2.5466
11
5.49238
21
-2.64806
0
LINE
8
BLACK
6
CONTINUOUS
10
5.49238
20
-2.64806
11
5.4921
21
-2.64875
0
LINE
8
BLACK
6
CONTINUOUS
10
5.4921
20
-2.64875
11
5.4914
21
-2.64904
0
LINE
8
BLACK
6
CONTINUOUS
10
5.4914
20
-2.64904
11
5.3354
21
-2.64904
0
LINE
8
BLACK
6
CONTINUOUS
10
5.3354
20
-2.64904
11
5.3347
21
-2.64875
0
LINE
8
BLACK
6
CONTINUOUS
10
5.3347
20
-2.64875
11
5.33442
21
-2.64806
0
LINE
8
BLACK
6
CONTINUOUS
10
5.33442
20
-2.64806
11
5.33442
21
-2.47006
0
LINE
8
BLACK
6
CONTINUOUS
10
5.33442
20
-2.47006
11
5.3347
21
-2.46936
0
LINE
8
BLACK
6
CONTINUOUS
10
5.3347
20
-2.46936
11
5.3354
21
-2.46907
0
LINE
8
BLACK
6
CONTINUOUS
10
5.3354
20
-2.46907
11
5.4914
21
-2.46907
0
LINE
8
BLACK
6
CONTINUOUS
10
5.4914
20
-2.46907
11
5.4921
21
-2.46936
0
LINE
8
BLACK
6
CONTINUOUS
10
5.4921
20
-2.46936
11
5.49238
21
-2.47006
0
LINE
8
BLACK
6
CONTINUOUS
10
5.49238
20
-2.47006
11
5.49238
21
-2.47308
0
LINE
8
BLACK
6
CONTINUOUS
10
5.49238
20
-2.47308
11
5.49261
21
-2.47253
0
LINE
8
BLACK
6
CONTINUOUS
10
5.49261
20
-2.47253
11
5.49331
21
-2.47224
0
LINE
8
BLACK
6
CONTINUOUS
10
5.49331
20
-2.47224
11
5.53031
21
-2.47224
0
LINE
8
BLACK
6
CONTINUOUS
10
5.53031
20
-2.47224
11
5.53101
21
-2.47253
0
LINE
8
BLACK
6
CONTINUOUS
10
5.53101
20
-2.47253
11
5.5313
21
-2.47323
0
LINE
8
BLACK
6
CONTINUOUS
10
5.33638
20
-2.47104
11
5.33638
21
-2.64707
0
LINE
8
BLACK
6
CONTINUOUS
10
5.33638
20
-2.64707
11
5.49042
21
-2.64707
0
LINE
8
BLACK
6
CONTINUOUS
10
5.49042
20
-2.64707
11
5.49042
21
-2.47104
0
LINE
8
BLACK
6
CONTINUOUS
10
5.49042
20
-2.47104
11
5.33638
21
-2.47104
0
LINE
8
BLACK
6
CONTINUOUS
10
5.49429
20
-2.47421
11
5.49429
21
-2.54547
0
LINE
8
BLACK
6
CONTINUOUS
10
5.49429
20
-2.54547
11
5.52933
21
-2.54547
0
LINE
8
BLACK
6
CONTINUOUS
10
5.52933
20
-2.54547
11
5.52933
21
-2.47421
0
LINE
8
BLACK
6
CONTINUOUS
10
5.52933
20
-2.47421
11
5.49429
21
-2.47421
0
LINE
8
BLACK
6
CONTINUOUS
10
5.49419
20
-2.5881
11
5.4939
21
-2.5874
0
LINE
8
BLACK
6
CONTINUOUS
10
5.4939
20
-2.5874
11
5.4939
21
-2.55039
0
LINE
8
BLACK
6
CONTINUOUS
10
5.4939
20
-2.55039
11
5.49419
21
-2.5497
0
LINE
8
BLACK
6
CONTINUOUS
10
5.49419
20
-2.5497
11
5.49488
21
-2.54941
0
LINE
8
BLACK
6
CONTINUOUS
10
5.49488
20
-2.54941
11
5.56811
21
-2.54941
0
LINE
8
BLACK
6
CONTINUOUS
10
5.56811
20
-2.54941
11
5.56881
21
-2.5497
0
LINE
8
BLACK
6
CONTINUOUS
10
5.56881
20
-2.5497
11
5.56909
21
-2.55039
0
LINE
8
BLACK
6
CONTINUOUS
10
5.56909
20
-2.55039
11
5.56909
21
-2.5874
0
LINE
8
BLACK
6
CONTINUOUS
10
5.56909
20
-2.5874
11
5.56881
21
-2.5881
0
LINE
8
BLACK
6
CONTINUOUS
10
5.56881
20
-2.5881
11
5.56811
21
-2.58839
0
LINE
8
BLACK
6
CONTINUOUS
10
5.56811
20
-2.58839
11
5.49488
21
-2.58839
0
LINE
8
BLACK
6
CONTINUOUS
10
5.49488
20
-2.58839
11
5.49419
21
-2.5881
0
LINE
8
BLACK
6
CONTINUOUS
10
5.49587
20
-2.55138
11
5.49587
21
-2.58642
0
LINE
8
BLACK
6
CONTINUOUS
10
5.49587
20
-2.58642
11
5.56713
21
-2.58642
0
LINE
8
BLACK
6
CONTINUOUS
10
5.56713
20
-2.58642
11
5.56713
21
-2.55138
0
LINE
8
BLACK
6
CONTINUOUS
10
5.56713
20
-2.55138
11
5.49587
21
-2.55138
0
LINE
8
BLACK
6
CONTINUOUS
10
5.27608
20
-2.58652
11
5.27579
21
-2.58583
0
LINE
8
BLACK
6
CONTINUOUS
10
5.27579
20
-2.58583
11
5.27579
21
-2.5126
0
LINE
8
BLACK
6
CONTINUOUS
10
5.27579
20
-2.5126
11
5.27608
21
-2.5119
0
LINE
8
BLACK
6
CONTINUOUS
10
5.27608
20
-2.5119
11
5.27677
21
-2.51161
0
LINE
8
BLACK
6
CONTINUOUS
10
5.27677
20
-2.51161
11
5.31378
21
-2.51161
0
LINE
8
BLACK
6
CONTINUOUS
10
5.31378
20
-2.51161
11
5.31448
21
-2.5119
0
LINE
8
BLACK
6
CONTINUOUS
10
5.31448
20
-2.5119
11
5.31476
21
-2.5126
0
LINE
8
BLACK
6
CONTINUOUS
10
5.31476
20
-2.5126
11
5.31476
21
-2.58583
0
LINE
8
BLACK
6
CONTINUOUS
10
5.31476
20
-2.58583
11
5.31448
21
-2.58652
0
LINE
8
BLACK
6
CONTINUOUS
10
5.31448
20
-2.58652
11
5.31378
21
-2.58681
0
LINE
8
BLACK
6
CONTINUOUS
10
5.31378
20
-2.58681
11
5.27677
21
-2.58681
0
LINE
8
BLACK
6
CONTINUOUS
10
5.27677
20
-2.58681
11
5.27608
21
-2.58652
0
LINE
8
BLACK
6
CONTINUOUS
10
5.27776
20
-2.51358
11
5.27776
21
-2.58484
0
LINE
8
BLACK
6
CONTINUOUS
10
5.27776
20
-2.58484
11
5.3128
21
-2.58484
0
LINE
8
BLACK
6
CONTINUOUS
10
5.3128
20
-2.58484
11
5.3128
21
-2.51358
0
LINE
8
BLACK
6
CONTINUOUS
10
5.3128
20
-2.51358
11
5.27776
21
-2.51358
0
LINE
8
BLACK
6
CONTINUOUS
10
5.19734
20
-2.58652
11
5.19705
21
-2.58583
0
LINE
8
BLACK
6
CONTINUOUS
10
5.19705
20
-2.58583
11
5.19705
21
-2.5126
0
LINE
8
BLACK
6
CONTINUOUS
10
5.19705
20
-2.5126
11
5.19734
21
-2.5119
0
LINE
8
BLACK
6
CONTINUOUS
10
5.19734
20
-2.5119
11
5.19803
21
-2.51161
0
LINE
8
BLACK
6
CONTINUOUS
10
5.19803
20
-2.51161
11
5.23504
21
-2.51161
0
LINE
8
BLACK
6
CONTINUOUS
10
5.23504
20
-2.51161
11
5.23574
21
-2.5119
0
LINE
8
BLACK
6
CONTINUOUS
10
5.23574
20
-2.5119
11
5.23602
21
-2.5126
0
LINE
8
BLACK
6
CONTINUOUS
10
5.23602
20
-2.5126
11
5.23602
21
-2.58583
0
LINE
8
BLACK
6
CONTINUOUS
10
5.23602
20
-2.58583
11
5.23574
21
-2.58652
0
LINE
8
BLACK
6
CONTINUOUS
10
5.23574
20
-2.58652
11
5.23504
21
-2.58681
0
LINE
8
BLACK
6
CONTINUOUS
10
5.23504
20
-2.58681
11
5.19803
21
-2.58681
0
LINE
8
BLACK
6
CONTINUOUS
10
5.19803
20
-2.58681
11
5.19734
21
-2.58652
0
LINE
8
BLACK
6
CONTINUOUS
10
5.19902
20
-2.51358
11
5.19902
21
-2.58484
0
LINE
8
BLACK
6
CONTINUOUS
10
5.19902
20
-2.58484
11
5.23406
21
-2.58484
0
LINE
8
BLACK
6
CONTINUOUS
10
5.23406
20
-2.58484
11
5.23406
21
-2.51358
0
LINE
8
BLACK
6
CONTINUOUS
10
5.23406
20
-2.51358
11
5.19902
21
-2.51358
0
LINE
8
BLACK
6
CONTINUOUS
10
5.2371
20
-2.58574
11
5.23681
21
-2.58504
0
LINE
8
BLACK
6
CONTINUOUS
10
5.23681
20
-2.58504
11
5.23681
21
-2.51339
0
LINE
8
BLACK
6
CONTINUOUS
10
5.23681
20
-2.51339
11
5.2371
21
-2.51269
0
LINE
8
BLACK
6
CONTINUOUS
10
5.2371
20
-2.51269
11
5.2378
21
-2.5124
0
LINE
8
BLACK
6
CONTINUOUS
10
5.2378
20
-2.5124
11
5.27402
21
-2.5124
0
LINE
8
BLACK
6
CONTINUOUS
10
5.27402
20
-2.5124
11
5.27471
21
-2.51269
0
LINE
8
BLACK
6
CONTINUOUS
10
5.27471
20
-2.51269
11
5.275
21
-2.51339
0
LINE
8
BLACK
6
CONTINUOUS
10
5.275
20
-2.51339
11
5.275
21
-2.58504
0
LINE
8
BLACK
6
CONTINUOUS
10
5.275
20
-2.58504
11
5.27471
21
-2.58574
0
LINE
8
BLACK
6
CONTINUOUS
10
5.27471
20
-2.58574
11
5.27402
21
-2.58602
0
LINE
8
BLACK
6
CONTINUOUS
10
5.27402
20
-2.58602
11
5.2378
21
-2.58602
0
LINE
8
BLACK
6
CONTINUOUS
10
5.2378
20
-2.58602
11
5.2371
21
-2.58574
0
LINE
8
BLACK
6
CONTINUOUS
10
5.23878
20
-2.51437
11
5.23878
21
-2.58406
0
LINE
8
BLACK
6
CONTINUOUS
10
5.23878
20
-2.58406
11
5.27303
21
-2.58406
0
LINE
8
BLACK
6
CONTINUOUS
10
5.27303
20
-2.58406
11
5.27303
21
-2.51437
0
LINE
8
BLACK
6
CONTINUOUS
10
5.27303
20
-2.51437
11
5.23878
21
-2.51437
0
LINE
8
BLACK
6
CONTINUOUS
10
5.53198
20
-2.54715
11
5.53169
21
-2.54646
0
LINE
8
BLACK
6
CONTINUOUS
10
5.53169
20
-2.54646
11
5.53169
21
-2.47323
0
LINE
8
BLACK
6
CONTINUOUS
10
5.53169
20
-2.47323
11
5.53198
21
-2.47253
0
LINE
8
BLACK
6
CONTINUOUS
10
5.53198
20
-2.47253
11
5.53268
21
-2.47224
0
LINE
8
BLACK
6
CONTINUOUS
10
5.53268
20
-2.47224
11
5.56969
21
-2.47224
0
LINE
8
BLACK
6
CONTINUOUS
10
5.56969
20
-2.47224
11
5.57038
21
-2.47253
0
LINE
8
BLACK
6
CONTINUOUS
10
5.57038
20
-2.47253
11
5.57067
21
-2.47323
0
LINE
8
BLACK
6
CONTINUOUS
10
5.57067
20
-2.47323
11
5.57067
21
-2.54646
0
LINE
8
BLACK
6
CONTINUOUS
10
5.57067
20
-2.54646
11
5.57038
21
-2.54715
0
LINE
8
BLACK
6
CONTINUOUS
10
5.57038
20
-2.54715
11
5.56969
21
-2.54744
0
LINE
8
BLACK
6
CONTINUOUS
10
5.56969
20
-2.54744
11
5.53268
21
-2.54744
0
LINE
8
BLACK
6
CONTINUOUS
10
5.53268
20
-2.54744
11
5.53198
21
-2.54715
0
LINE
8
BLACK
6
CONTINUOUS
10
5.53366
20
-2.47421
11
5.53366
21
-2.54547
0
LINE
8
BLACK
6
CONTINUOUS
10
5.53366
20
-2.54547
11
5.5687
21
-2.54547
0
LINE
8
BLACK
6
CONTINUOUS
10
5.5687
20
-2.54547
11
5.5687
21
-2.47421
0
LINE
8
BLACK
6
CONTINUOUS
10
5.5687
20
-2.47421
11
5.53366
21
-2.47421
0
LINE
8
BLACK
6
CONTINUOUS
10
5.2119
20
-2.46448
11
5.21161
21
-2.46378
0
LINE
8
BLACK
6
CONTINUOUS
10
5.21161
20
-2.46378
11
5.21161
21
-2.13189
0
LINE
8
BLACK
6
CONTINUOUS
10
5.21161
20
-2.13189
11
5.2119
21
-2.13119
0
LINE
8
BLACK
6
CONTINUOUS
10
5.2119
20
-2.13119
11
5.2126
21
-2.13091
0
LINE
8
BLACK
6
CONTINUOUS
10
5.2126
20
-2.13091
11
5.61417
21
-2.13091
0
LINE
8
BLACK
6
CONTINUOUS
10
5.61417
20
-2.13091
11
5.61487
21
-2.13119
0
LINE
8
BLACK
6
CONTINUOUS
10
5.61487
20
-2.13119
11
5.61516
21
-2.13189
0
LINE
8
BLACK
6
CONTINUOUS
10
5.61516
20
-2.13189
11
5.61516
21
-2.46378
0
LINE
8
BLACK
6
CONTINUOUS
10
5.61516
20
-2.46378
11
5.61487
21
-2.46448
0
LINE
8
BLACK
6
CONTINUOUS
10
5.61487
20
-2.46448
11
5.61417
21
-2.46476
0
LINE
8
BLACK
6
CONTINUOUS
10
5.61417
20
-2.46476
11
5.2126
21
-2.46476
0
LINE
8
BLACK
6
CONTINUOUS
10
5.2126
20
-2.46476
11
5.2119
21
-2.46448
0
LINE
8
BLACK
6
CONTINUOUS
10
5.21358
20
-2.13287
11
5.21358
21
-2.4628
0
LINE
8
BLACK
6
CONTINUOUS
10
5.21358
20
-2.4628
11
5.61319
21
-2.4628
0
LINE
8
BLACK
6
CONTINUOUS
10
5.61319
20
-2.4628
11
5.61319
21
-2.13287
0
LINE
8
BLACK
6
CONTINUOUS
10
5.61319
20
-2.13287
11
5.21358
21
-2.13287
  0
ENDSEC
  0
EOF
