  0
SECTION
  2
HEADER
  9
$ANGBASE
  50
0.0
  9
$ANGDIR
  70
1
  9
$MEASUREMENT
  70
0
  0
ENDSEC
  0
SECTION
  2
TABLES
  0
TABLE
  2
LTYPE
  70
4
  0
LTYPE
  5
40F
  2
CONTINUOUS
  70
0
  3
Solid line
  72
65
  73
0
  40
0.0
  0
LTYPE
  5
410
  2
DASHDOT
 70
0
  3
Dash Dot ____ _ ____ _
 72
65
 73
4
 40
2.0
 49
1.25
 49
-0.25
 49
0.25
 49
-0.25
  0
LTYPE
  5
411
  2
DASHED
 70
0
  3
Dashed __ __ __ __ __
 72
65
 73
2
 40
0.75
 49
0.5
 49
-0.25
  0
LTYPE
  5
43B
  2
DOTTED
 70
0
  3
Dotted .  .  .  .
 72
65
 73
2
 40
0.2
 49
0.0
 49
-0.2
  0
ENDTAB
  0
TABLE
  2
STYLE
  70
4
  0
STYLE
  2
KICAD
  70
0
  40
0
  41
1
  42
1
  50
0
  71
0
  3
isocp.shx
  0
STYLE
  2
KICADB
  70
0
  40
0
  41
1
  42
1
  50
0
  71
0
  3
isocp.shx
  0
STYLE
  2
KICADI
  70
0
  40
0
  41
1
  42
1
  50
15
  71
0
  3
isocp.shx
  0
STYLE
  2
KICADBI
  70
0
  40
0
  41
1
  42
1
  50
15
  71
0
  3
isocp.shx
  0
ENDTAB
  0
TABLE
  2
LAYER
  70
1
  0
LAYER
  2
BLACK
  70
0
  62
7
  6
CONTINUOUS
  0
ENDTAB
  0
ENDSEC
  0
SECTION
  2
ENTITIES
0
LINE
8
BLACK
6
CONTINUOUS
10
6.20607
20
-2.55971
11
6.21821
21
-2.56296
0
LINE
8
BLACK
6
CONTINUOUS
10
6.21821
20
-2.56296
11
6.22994
21
-2.56747
0
LINE
8
BLACK
6
CONTINUOUS
10
6.22994
20
-2.56747
11
6.24114
21
-2.57317
0
LINE
8
BLACK
6
CONTINUOUS
10
6.24114
20
-2.57317
11
6.25168
21
-2.58002
0
LINE
8
BLACK
6
CONTINUOUS
10
6.25168
20
-2.58002
11
6.26145
21
-2.58793
0
LINE
8
BLACK
6
CONTINUOUS
10
6.26145
20
-2.58793
11
6.27034
21
-2.59682
0
LINE
8
BLACK
6
CONTINUOUS
10
6.27034
20
-2.59682
11
6.27825
21
-2.60658
0
LINE
8
BLACK
6
CONTINUOUS
10
6.27825
20
-2.60658
11
6.28509
21
-2.61713
0
LINE
8
BLACK
6
CONTINUOUS
10
6.28509
20
-2.61713
11
6.2908
21
-2.62832
0
LINE
8
BLACK
6
CONTINUOUS
10
6.2908
20
-2.62832
11
6.2953
21
-2.64006
0
LINE
8
BLACK
6
CONTINUOUS
10
6.2953
20
-2.64006
11
6.29856
21
-2.6522
0
LINE
8
BLACK
6
CONTINUOUS
10
6.29856
20
-2.6522
11
6.30052
21
-2.66461
0
LINE
8
BLACK
6
CONTINUOUS
10
6.30052
20
-2.66461
11
6.30118
21
-2.67717
0
LINE
8
BLACK
6
CONTINUOUS
10
6.30118
20
-2.67717
11
6.30118
21
-4.56693
0
LINE
8
BLACK
6
CONTINUOUS
10
6.30118
20
-4.56693
11
6.30052
21
-4.57948
0
LINE
8
BLACK
6
CONTINUOUS
10
6.30052
20
-4.57948
11
6.29856
21
-4.59189
0
LINE
8
BLACK
6
CONTINUOUS
10
6.29856
20
-4.59189
11
6.2953
21
-4.60404
0
LINE
8
BLACK
6
CONTINUOUS
10
6.2953
20
-4.60404
11
6.2908
21
-4.61577
0
LINE
8
BLACK
6
CONTINUOUS
10
6.2908
20
-4.61577
11
6.28509
21
-4.62697
0
LINE
8
BLACK
6
CONTINUOUS
10
6.28509
20
-4.62697
11
6.27825
21
-4.63751
0
LINE
8
BLACK
6
CONTINUOUS
10
6.27825
20
-4.63751
11
6.27034
21
-4.64728
0
LINE
8
BLACK
6
CONTINUOUS
10
6.27034
20
-4.64728
11
6.26145
21
-4.65617
0
LINE
8
BLACK
6
CONTINUOUS
10
6.26145
20
-4.65617
11
6.25168
21
-4.66407
0
LINE
8
BLACK
6
CONTINUOUS
10
6.25168
20
-4.66407
11
6.24114
21
-4.67092
0
LINE
8
BLACK
6
CONTINUOUS
10
6.24114
20
-4.67092
11
6.22994
21
-4.67663
0
LINE
8
BLACK
6
CONTINUOUS
10
6.22994
20
-4.67663
11
6.21821
21
-4.68113
0
LINE
8
BLACK
6
CONTINUOUS
10
6.21821
20
-4.68113
11
6.20607
21
-4.68438
0
LINE
8
BLACK
6
CONTINUOUS
10
6.20607
20
-4.68438
11
6.19365
21
-4.68635
0
LINE
8
BLACK
6
CONTINUOUS
10
6.19365
20
-4.68635
11
6.1811
21
-4.68701
0
LINE
8
BLACK
6
CONTINUOUS
10
6.1811
20
-4.68701
11
4.64567
21
-4.68701
0
LINE
8
BLACK
6
CONTINUOUS
10
4.64567
20
-4.68701
11
4.63312
21
-4.68635
0
LINE
8
BLACK
6
CONTINUOUS
10
4.63312
20
-4.68635
11
4.6207
21
-4.68438
0
LINE
8
BLACK
6
CONTINUOUS
10
4.6207
20
-4.68438
11
4.60856
21
-4.68113
0
LINE
8
BLACK
6
CONTINUOUS
10
4.60856
20
-4.68113
11
4.59683
21
-4.67663
0
LINE
8
BLACK
6
CONTINUOUS
10
4.59683
20
-4.67663
11
4.58563
21
-4.67092
0
LINE
8
BLACK
6
CONTINUOUS
10
4.58563
20
-4.67092
11
4.57509
21
-4.66407
0
LINE
8
BLACK
6
CONTINUOUS
10
4.57509
20
-4.66407
11
4.56532
21
-4.65617
0
LINE
8
BLACK
6
CONTINUOUS
10
4.56532
20
-4.65617
11
4.55643
21
-4.64728
0
LINE
8
BLACK
6
CONTINUOUS
10
4.55643
20
-4.64728
11
4.54852
21
-4.63751
0
LINE
8
BLACK
6
CONTINUOUS
10
4.54852
20
-4.63751
11
4.54168
21
-4.62697
0
LINE
8
BLACK
6
CONTINUOUS
10
4.54168
20
-4.62697
11
4.53597
21
-4.61577
0
LINE
8
BLACK
6
CONTINUOUS
10
4.53597
20
-4.61577
11
4.53147
21
-4.60404
0
LINE
8
BLACK
6
CONTINUOUS
10
4.53147
20
-4.60404
11
4.52821
21
-4.59189
0
LINE
8
BLACK
6
CONTINUOUS
10
4.52821
20
-4.59189
11
4.52625
21
-4.57948
0
LINE
8
BLACK
6
CONTINUOUS
10
4.52625
20
-4.57948
11
4.52559
21
-4.56693
0
LINE
8
BLACK
6
CONTINUOUS
10
4.52559
20
-4.56693
11
4.52559
21
-2.67717
0
LINE
8
BLACK
6
CONTINUOUS
10
4.52559
20
-2.67717
11
4.52625
21
-2.66461
0
LINE
8
BLACK
6
CONTINUOUS
10
4.52625
20
-2.66461
11
4.52821
21
-2.6522
0
LINE
8
BLACK
6
CONTINUOUS
10
4.52821
20
-2.6522
11
4.53147
21
-2.64006
0
LINE
8
BLACK
6
CONTINUOUS
10
4.53147
20
-2.64006
11
4.53597
21
-2.62832
0
LINE
8
BLACK
6
CONTINUOUS
10
4.53597
20
-2.62832
11
4.54168
21
-2.61713
0
LINE
8
BLACK
6
CONTINUOUS
10
4.54168
20
-2.61713
11
4.54852
21
-2.60658
0
LINE
8
BLACK
6
CONTINUOUS
10
4.54852
20
-2.60658
11
4.55643
21
-2.59682
0
LINE
8
BLACK
6
CONTINUOUS
10
4.55643
20
-2.59682
11
4.56532
21
-2.58793
0
LINE
8
BLACK
6
CONTINUOUS
10
4.56532
20
-2.58793
11
4.57509
21
-2.58002
0
LINE
8
BLACK
6
CONTINUOUS
10
4.57509
20
-2.58002
11
4.58563
21
-2.57317
0
LINE
8
BLACK
6
CONTINUOUS
10
4.58563
20
-2.57317
11
4.59683
21
-2.56747
0
LINE
8
BLACK
6
CONTINUOUS
10
4.59683
20
-2.56747
11
4.60856
21
-2.56296
0
LINE
8
BLACK
6
CONTINUOUS
10
4.60856
20
-2.56296
11
4.6207
21
-2.55971
0
LINE
8
BLACK
6
CONTINUOUS
10
4.6207
20
-2.55971
11
4.63312
21
-2.55774
0
LINE
8
BLACK
6
CONTINUOUS
10
4.63312
20
-2.55774
11
4.64567
21
-2.55709
0
LINE
8
BLACK
6
CONTINUOUS
10
4.64567
20
-2.55709
11
5.11811
21
-2.55709
0
LINE
8
BLACK
6
CONTINUOUS
10
5.11811
20
-2.55709
11
5.11845
21
-2.55723
0
LINE
8
BLACK
6
CONTINUOUS
10
5.11845
20
-2.55723
11
5.12815
21
-2.55659
0
LINE
8
BLACK
6
CONTINUOUS
10
5.12815
20
-2.55659
11
5.13802
21
-2.55463
0
LINE
8
BLACK
6
CONTINUOUS
10
5.13802
20
-2.55463
11
5.14755
21
-2.55139
0
LINE
8
BLACK
6
CONTINUOUS
10
5.14755
20
-2.55139
11
5.15658
21
-2.54694
0
LINE
8
BLACK
6
CONTINUOUS
10
5.15658
20
-2.54694
11
5.16495
21
-2.54135
0
LINE
8
BLACK
6
CONTINUOUS
10
5.16495
20
-2.54135
11
5.17251
21
-2.53472
0
LINE
8
BLACK
6
CONTINUOUS
10
5.17251
20
-2.53472
11
5.17915
21
-2.52715
0
LINE
8
BLACK
6
CONTINUOUS
10
5.17915
20
-2.52715
11
5.18474
21
-2.51878
0
LINE
8
BLACK
6
CONTINUOUS
10
5.18474
20
-2.51878
11
5.18919
21
-2.50976
0
LINE
8
BLACK
6
CONTINUOUS
10
5.18919
20
-2.50976
11
5.19243
21
-2.50023
0
LINE
8
BLACK
6
CONTINUOUS
10
5.19243
20
-2.50023
11
5.19439
21
-2.49036
0
LINE
8
BLACK
6
CONTINUOUS
10
5.19439
20
-2.49036
11
5.19502
21
-2.48066
0
LINE
8
BLACK
6
CONTINUOUS
10
5.19502
20
-2.48066
11
5.19488
21
-2.48031
0
LINE
8
BLACK
6
CONTINUOUS
10
5.19488
20
-2.48031
11
5.19488
21
-2.18504
0
LINE
8
BLACK
6
CONTINUOUS
10
5.19488
20
-2.18504
11
5.19546
21
-2.18365
0
LINE
8
BLACK
6
CONTINUOUS
10
5.19546
20
-2.18365
11
5.19685
21
-2.18307
0
LINE
8
BLACK
6
CONTINUOUS
10
5.19685
20
-2.18307
11
5.62992
21
-2.18307
0
LINE
8
BLACK
6
CONTINUOUS
10
5.62992
20
-2.18307
11
5.63131
21
-2.18365
0
LINE
8
BLACK
6
CONTINUOUS
10
5.63131
20
-2.18365
11
5.63189
21
-2.18504
0
LINE
8
BLACK
6
CONTINUOUS
10
5.63189
20
-2.18504
11
5.63189
21
-2.48031
0
LINE
8
BLACK
6
CONTINUOUS
10
5.63189
20
-2.48031
11
5.63175
21
-2.48066
0
LINE
8
BLACK
6
CONTINUOUS
10
5.63175
20
-2.48066
11
5.63238
21
-2.49036
0
LINE
8
BLACK
6
CONTINUOUS
10
5.63238
20
-2.49036
11
5.63435
21
-2.50023
0
LINE
8
BLACK
6
CONTINUOUS
10
5.63435
20
-2.50023
11
5.63758
21
-2.50976
0
LINE
8
BLACK
6
CONTINUOUS
10
5.63758
20
-2.50976
11
5.64203
21
-2.51878
0
LINE
8
BLACK
6
CONTINUOUS
10
5.64203
20
-2.51878
11
5.64762
21
-2.52715
0
LINE
8
BLACK
6
CONTINUOUS
10
5.64762
20
-2.52715
11
5.65426
21
-2.53472
0
LINE
8
BLACK
6
CONTINUOUS
10
5.65426
20
-2.53472
11
5.66183
21
-2.54135
0
LINE
8
BLACK
6
CONTINUOUS
10
5.66183
20
-2.54135
11
5.67019
21
-2.54694
0
LINE
8
BLACK
6
CONTINUOUS
10
5.67019
20
-2.54694
11
5.67922
21
-2.55139
0
LINE
8
BLACK
6
CONTINUOUS
10
5.67922
20
-2.55139
11
5.68875
21
-2.55463
0
LINE
8
BLACK
6
CONTINUOUS
10
5.68875
20
-2.55463
11
5.69862
21
-2.55659
0
LINE
8
BLACK
6
CONTINUOUS
10
5.69862
20
-2.55659
11
5.70832
21
-2.55723
0
LINE
8
BLACK
6
CONTINUOUS
10
5.70832
20
-2.55723
11
5.70866
21
-2.55709
0
LINE
8
BLACK
6
CONTINUOUS
10
5.70866
20
-2.55709
11
6.1811
21
-2.55709
0
LINE
8
BLACK
6
CONTINUOUS
10
6.1811
20
-2.55709
11
6.19365
21
-2.55774
0
LINE
8
BLACK
6
CONTINUOUS
10
6.19365
20
-2.55774
11
6.20607
21
-2.55971
0
LINE
8
BLACK
6
CONTINUOUS
10
4.64528
20
-2.56086
11
4.63265
21
-2.56157
0
LINE
8
BLACK
6
CONTINUOUS
10
4.63265
20
-2.56157
11
4.61978
21
-2.56376
0
LINE
8
BLACK
6
CONTINUOUS
10
4.61978
20
-2.56376
11
4.60725
21
-2.56737
0
LINE
8
BLACK
6
CONTINUOUS
10
4.60725
20
-2.56737
11
4.5952
21
-2.57236
0
LINE
8
BLACK
6
CONTINUOUS
10
4.5952
20
-2.57236
11
4.58378
21
-2.57867
0
LINE
8
BLACK
6
CONTINUOUS
10
4.58378
20
-2.57867
11
4.57314
21
-2.58622
0
LINE
8
BLACK
6
CONTINUOUS
10
4.57314
20
-2.58622
11
4.56342
21
-2.59491
0
LINE
8
BLACK
6
CONTINUOUS
10
4.56342
20
-2.59491
11
4.55472
21
-2.60464
0
LINE
8
BLACK
6
CONTINUOUS
10
4.55472
20
-2.60464
11
4.54717
21
-2.61528
0
LINE
8
BLACK
6
CONTINUOUS
10
4.54717
20
-2.61528
11
4.54086
21
-2.62669
0
LINE
8
BLACK
6
CONTINUOUS
10
4.54086
20
-2.62669
11
4.53587
21
-2.63875
0
LINE
8
BLACK
6
CONTINUOUS
10
4.53587
20
-2.63875
11
4.53226
21
-2.65128
0
LINE
8
BLACK
6
CONTINUOUS
10
4.53226
20
-2.65128
11
4.53008
21
-2.66414
0
LINE
8
BLACK
6
CONTINUOUS
10
4.53008
20
-2.66414
11
4.52937
21
-2.67678
0
LINE
8
BLACK
6
CONTINUOUS
10
4.52937
20
-2.67678
11
4.52953
21
-2.67717
0
LINE
8
BLACK
6
CONTINUOUS
10
4.52953
20
-2.67717
11
4.52953
21
-4.56693
0
LINE
8
BLACK
6
CONTINUOUS
10
4.52953
20
-4.56693
11
4.52937
21
-4.56732
0
LINE
8
BLACK
6
CONTINUOUS
10
4.52937
20
-4.56732
11
4.53008
21
-4.57995
0
LINE
8
BLACK
6
CONTINUOUS
10
4.53008
20
-4.57995
11
4.53226
21
-4.59281
0
LINE
8
BLACK
6
CONTINUOUS
10
4.53226
20
-4.59281
11
4.53587
21
-4.60535
0
LINE
8
BLACK
6
CONTINUOUS
10
4.53587
20
-4.60535
11
4.54086
21
-4.6174
0
LINE
8
BLACK
6
CONTINUOUS
10
4.54086
20
-4.6174
11
4.54717
21
-4.62882
0
LINE
8
BLACK
6
CONTINUOUS
10
4.54717
20
-4.62882
11
4.55472
21
-4.63946
0
LINE
8
BLACK
6
CONTINUOUS
10
4.55472
20
-4.63946
11
4.56342
21
-4.64918
0
LINE
8
BLACK
6
CONTINUOUS
10
4.56342
20
-4.64918
11
4.57314
21
-4.65788
0
LINE
8
BLACK
6
CONTINUOUS
10
4.57314
20
-4.65788
11
4.58378
21
-4.66542
0
LINE
8
BLACK
6
CONTINUOUS
10
4.58378
20
-4.66542
11
4.5952
21
-4.67173
0
LINE
8
BLACK
6
CONTINUOUS
10
4.5952
20
-4.67173
11
4.60725
21
-4.67673
0
LINE
8
BLACK
6
CONTINUOUS
10
4.60725
20
-4.67673
11
4.61978
21
-4.68034
0
LINE
8
BLACK
6
CONTINUOUS
10
4.61978
20
-4.68034
11
4.63265
21
-4.68252
0
LINE
8
BLACK
6
CONTINUOUS
10
4.63265
20
-4.68252
11
4.64528
21
-4.68323
0
LINE
8
BLACK
6
CONTINUOUS
10
4.64528
20
-4.68323
11
4.64567
21
-4.68307
0
LINE
8
BLACK
6
CONTINUOUS
10
4.64567
20
-4.68307
11
6.1811
21
-4.68307
0
LINE
8
BLACK
6
CONTINUOUS
10
6.1811
20
-4.68307
11
6.18149
21
-4.68323
0
LINE
8
BLACK
6
CONTINUOUS
10
6.18149
20
-4.68323
11
6.19413
21
-4.68252
0
LINE
8
BLACK
6
CONTINUOUS
10
6.19413
20
-4.68252
11
6.20699
21
-4.68034
0
LINE
8
BLACK
6
CONTINUOUS
10
6.20699
20
-4.68034
11
6.21952
21
-4.67673
0
LINE
8
BLACK
6
CONTINUOUS
10
6.21952
20
-4.67673
11
6.23157
21
-4.67173
0
LINE
8
BLACK
6
CONTINUOUS
10
6.23157
20
-4.67173
11
6.24299
21
-4.66542
0
LINE
8
BLACK
6
CONTINUOUS
10
6.24299
20
-4.66542
11
6.25363
21
-4.65788
0
LINE
8
BLACK
6
CONTINUOUS
10
6.25363
20
-4.65788
11
6.26336
21
-4.64918
0
LINE
8
BLACK
6
CONTINUOUS
10
6.26336
20
-4.64918
11
6.27205
21
-4.63946
0
LINE
8
BLACK
6
CONTINUOUS
10
6.27205
20
-4.63946
11
6.2796
21
-4.62882
0
LINE
8
BLACK
6
CONTINUOUS
10
6.2796
20
-4.62882
11
6.28591
21
-4.6174
0
LINE
8
BLACK
6
CONTINUOUS
10
6.28591
20
-4.6174
11
6.2909
21
-4.60535
0
LINE
8
BLACK
6
CONTINUOUS
10
6.2909
20
-4.60535
11
6.29451
21
-4.59281
0
LINE
8
BLACK
6
CONTINUOUS
10
6.29451
20
-4.59281
11
6.2967
21
-4.57995
0
LINE
8
BLACK
6
CONTINUOUS
10
6.2967
20
-4.57995
11
6.29741
21
-4.56732
0
LINE
8
BLACK
6
CONTINUOUS
10
6.29741
20
-4.56732
11
6.29724
21
-4.56693
0
LINE
8
BLACK
6
CONTINUOUS
10
6.29724
20
-4.56693
11
6.29724
21
-2.67717
0
LINE
8
BLACK
6
CONTINUOUS
10
6.29724
20
-2.67717
11
6.29741
21
-2.67678
0
LINE
8
BLACK
6
CONTINUOUS
10
6.29741
20
-2.67678
11
6.2967
21
-2.66414
0
LINE
8
BLACK
6
CONTINUOUS
10
6.2967
20
-2.66414
11
6.29451
21
-2.65128
0
LINE
8
BLACK
6
CONTINUOUS
10
6.29451
20
-2.65128
11
6.2909
21
-2.63875
0
LINE
8
BLACK
6
CONTINUOUS
10
6.2909
20
-2.63875
11
6.28591
21
-2.62669
0
LINE
8
BLACK
6
CONTINUOUS
10
6.28591
20
-2.62669
11
6.2796
21
-2.61528
0
LINE
8
BLACK
6
CONTINUOUS
10
6.2796
20
-2.61528
11
6.27205
21
-2.60464
0
LINE
8
BLACK
6
CONTINUOUS
10
6.27205
20
-2.60464
11
6.26336
21
-2.59491
0
LINE
8
BLACK
6
CONTINUOUS
10
6.26336
20
-2.59491
11
6.25363
21
-2.58622
0
LINE
8
BLACK
6
CONTINUOUS
10
6.25363
20
-2.58622
11
6.24299
21
-2.57867
0
LINE
8
BLACK
6
CONTINUOUS
10
6.24299
20
-2.57867
11
6.23157
21
-2.57236
0
LINE
8
BLACK
6
CONTINUOUS
10
6.23157
20
-2.57236
11
6.21952
21
-2.56737
0
LINE
8
BLACK
6
CONTINUOUS
10
6.21952
20
-2.56737
11
6.20699
21
-2.56376
0
LINE
8
BLACK
6
CONTINUOUS
10
6.20699
20
-2.56376
11
6.19413
21
-2.56157
0
LINE
8
BLACK
6
CONTINUOUS
10
6.19413
20
-2.56157
11
6.18149
21
-2.56086
0
LINE
8
BLACK
6
CONTINUOUS
10
6.18149
20
-2.56086
11
6.1811
21
-2.56102
0
LINE
8
BLACK
6
CONTINUOUS
10
6.1811
20
-2.56102
11
5.70866
21
-2.56102
0
LINE
8
BLACK
6
CONTINUOUS
10
5.70866
20
-2.56102
11
5.69813
21
-2.56033
0
LINE
8
BLACK
6
CONTINUOUS
10
5.69813
20
-2.56033
11
5.68777
21
-2.55827
0
LINE
8
BLACK
6
CONTINUOUS
10
5.68777
20
-2.55827
11
5.67778
21
-2.55488
0
LINE
8
BLACK
6
CONTINUOUS
10
5.67778
20
-2.55488
11
5.66831
21
-2.55021
0
LINE
8
BLACK
6
CONTINUOUS
10
5.66831
20
-2.55021
11
5.65953
21
-2.54435
0
LINE
8
BLACK
6
CONTINUOUS
10
5.65953
20
-2.54435
11
5.65159
21
-2.53738
0
LINE
8
BLACK
6
CONTINUOUS
10
5.65159
20
-2.53738
11
5.64463
21
-2.52945
0
LINE
8
BLACK
6
CONTINUOUS
10
5.64463
20
-2.52945
11
5.63877
21
-2.52067
0
LINE
8
BLACK
6
CONTINUOUS
10
5.63877
20
-2.52067
11
5.6341
21
-2.5112
0
LINE
8
BLACK
6
CONTINUOUS
10
5.6341
20
-2.5112
11
5.6307
21
-2.5012
0
LINE
8
BLACK
6
CONTINUOUS
10
5.6307
20
-2.5012
11
5.62864
21
-2.49085
0
LINE
8
BLACK
6
CONTINUOUS
10
5.62864
20
-2.49085
11
5.62795
21
-2.48031
0
LINE
8
BLACK
6
CONTINUOUS
10
5.62795
20
-2.48031
11
5.62795
21
-2.18701
0
LINE
8
BLACK
6
CONTINUOUS
10
5.62795
20
-2.18701
11
5.19882
21
-2.18701
0
LINE
8
BLACK
6
CONTINUOUS
10
5.19882
20
-2.18701
11
5.19882
21
-2.48031
0
LINE
8
BLACK
6
CONTINUOUS
10
5.19882
20
-2.48031
11
5.19813
21
-2.49085
0
LINE
8
BLACK
6
CONTINUOUS
10
5.19813
20
-2.49085
11
5.19607
21
-2.5012
0
LINE
8
BLACK
6
CONTINUOUS
10
5.19607
20
-2.5012
11
5.19268
21
-2.5112
0
LINE
8
BLACK
6
CONTINUOUS
10
5.19268
20
-2.5112
11
5.18801
21
-2.52067
0
LINE
8
BLACK
6
CONTINUOUS
10
5.18801
20
-2.52067
11
5.18214
21
-2.52945
0
LINE
8
BLACK
6
CONTINUOUS
10
5.18214
20
-2.52945
11
5.17518
21
-2.53738
0
LINE
8
BLACK
6
CONTINUOUS
10
5.17518
20
-2.53738
11
5.16724
21
-2.54435
0
LINE
8
BLACK
6
CONTINUOUS
10
5.16724
20
-2.54435
11
5.15846
21
-2.55021
0
LINE
8
BLACK
6
CONTINUOUS
10
5.15846
20
-2.55021
11
5.149
21
-2.55488
0
LINE
8
BLACK
6
CONTINUOUS
10
5.149
20
-2.55488
11
5.139
21
-2.55827
0
LINE
8
BLACK
6
CONTINUOUS
10
5.139
20
-2.55827
11
5.12864
21
-2.56033
0
LINE
8
BLACK
6
CONTINUOUS
10
5.12864
20
-2.56033
11
5.11811
21
-2.56102
0
LINE
8
BLACK
6
CONTINUOUS
10
5.11811
20
-2.56102
11
4.64567
21
-2.56102
0
LINE
8
BLACK
6
CONTINUOUS
10
4.64567
20
-2.56102
11
4.64528
21
-2.56086
0
LINE
8
BLACK
6
CONTINUOUS
10
5.2434
20
-4.59774
11
5.24311
21
-4.59705
0
LINE
8
BLACK
6
CONTINUOUS
10
5.24311
20
-4.59705
11
5.24311
21
-3.91752
0
LINE
8
BLACK
6
CONTINUOUS
10
5.24311
20
-3.91752
11
5.2434
21
-3.91682
0
LINE
8
BLACK
6
CONTINUOUS
10
5.2434
20
-3.91682
11
5.24409
21
-3.91654
0
LINE
8
BLACK
6
CONTINUOUS
10
5.24409
20
-3.91654
11
5.58268
21
-3.91654
0
LINE
8
BLACK
6
CONTINUOUS
10
5.58268
20
-3.91654
11
5.58337
21
-3.91682
0
LINE
8
BLACK
6
CONTINUOUS
10
5.58337
20
-3.91682
11
5.58366
21
-3.91752
0
LINE
8
BLACK
6
CONTINUOUS
10
5.58366
20
-3.91752
11
5.58366
21
-4.59705
0
LINE
8
BLACK
6
CONTINUOUS
10
5.58366
20
-4.59705
11
5.58337
21
-4.59774
0
LINE
8
BLACK
6
CONTINUOUS
10
5.58337
20
-4.59774
11
5.58268
21
-4.59803
0
LINE
8
BLACK
6
CONTINUOUS
10
5.58268
20
-4.59803
11
5.24409
21
-4.59803
0
LINE
8
BLACK
6
CONTINUOUS
10
5.24409
20
-4.59803
11
5.2434
21
-4.59774
0
LINE
8
BLACK
6
CONTINUOUS
10
5.24508
20
-3.9185
11
5.24508
21
-4.59606
0
LINE
8
BLACK
6
CONTINUOUS
10
5.24508
20
-4.59606
11
5.58169
21
-4.59606
0
LINE
8
BLACK
6
CONTINUOUS
10
5.58169
20
-4.59606
11
5.58169
21
-3.9185
0
LINE
8
BLACK
6
CONTINUOUS
10
5.58169
20
-3.9185
11
5.24508
21
-3.9185
0
LINE
8
BLACK
6
CONTINUOUS
10
5.28136
20
-3.44108
11
5.27654
21
-3.44054
0
LINE
8
BLACK
6
CONTINUOUS
10
5.27654
20
-3.44054
11
5.27196
21
-3.43894
0
LINE
8
BLACK
6
CONTINUOUS
10
5.27196
20
-3.43894
11
5.26785
21
-3.43636
0
LINE
8
BLACK
6
CONTINUOUS
10
5.26785
20
-3.43636
11
5.26443
21
-3.43293
0
LINE
8
BLACK
6
CONTINUOUS
10
5.26443
20
-3.43293
11
5.26185
21
-3.42883
0
LINE
8
BLACK
6
CONTINUOUS
10
5.26185
20
-3.42883
11
5.26025
21
-3.42425
0
LINE
8
BLACK
6
CONTINUOUS
10
5.26025
20
-3.42425
11
5.2597
21
-3.41943
0
LINE
8
BLACK
6
CONTINUOUS
10
5.2597
20
-3.41943
11
5.2597
21
-3.41943
0
LINE
8
BLACK
6
CONTINUOUS
10
5.2597
20
-3.41943
11
5.2597
21
-3.32101
0
LINE
8
BLACK
6
CONTINUOUS
10
5.2597
20
-3.32101
11
5.25982
21
-3.32073
0
LINE
8
BLACK
6
CONTINUOUS
10
5.25982
20
-3.32073
11
5.25925
21
-3.31638
0
LINE
8
BLACK
6
CONTINUOUS
10
5.25925
20
-3.31638
11
5.25746
21
-3.31207
0
LINE
8
BLACK
6
CONTINUOUS
10
5.25746
20
-3.31207
11
5.25462
21
-3.30837
0
LINE
8
BLACK
6
CONTINUOUS
10
5.25462
20
-3.30837
11
5.25092
21
-3.30553
0
LINE
8
BLACK
6
CONTINUOUS
10
5.25092
20
-3.30553
11
5.24661
21
-3.30375
0
LINE
8
BLACK
6
CONTINUOUS
10
5.24661
20
-3.30375
11
5.24227
21
-3.30317
0
LINE
8
BLACK
6
CONTINUOUS
10
5.24227
20
-3.30317
11
5.24199
21
-3.30329
0
LINE
8
BLACK
6
CONTINUOUS
10
5.24199
20
-3.30329
11
5.24199
21
-3.30329
0
LINE
8
BLACK
6
CONTINUOUS
10
5.24199
20
-3.30329
11
5.16325
21
-3.30329
0
LINE
8
BLACK
6
CONTINUOUS
10
5.16325
20
-3.30329
11
5.16325
21
-3.30329
0
LINE
8
BLACK
6
CONTINUOUS
10
5.16325
20
-3.30329
11
5.15843
21
-3.30275
0
LINE
8
BLACK
6
CONTINUOUS
10
5.15843
20
-3.30275
11
5.15385
21
-3.30115
0
LINE
8
BLACK
6
CONTINUOUS
10
5.15385
20
-3.30115
11
5.14974
21
-3.29857
0
LINE
8
BLACK
6
CONTINUOUS
10
5.14974
20
-3.29857
11
5.14632
21
-3.29514
0
LINE
8
BLACK
6
CONTINUOUS
10
5.14632
20
-3.29514
11
5.14374
21
-3.29103
0
LINE
8
BLACK
6
CONTINUOUS
10
5.14374
20
-3.29103
11
5.14213
21
-3.28645
0
LINE
8
BLACK
6
CONTINUOUS
10
5.14213
20
-3.28645
11
5.14159
21
-3.28164
0
LINE
8
BLACK
6
CONTINUOUS
10
5.14159
20
-3.28164
11
5.14159
21
-3.28164
0
LINE
8
BLACK
6
CONTINUOUS
10
5.14159
20
-3.28164
11
5.14159
21
-2.84857
0
LINE
8
BLACK
6
CONTINUOUS
10
5.14159
20
-2.84857
11
5.14159
21
-2.84856
0
LINE
8
BLACK
6
CONTINUOUS
10
5.14159
20
-2.84856
11
5.14159
21
-2.84856
0
LINE
8
BLACK
6
CONTINUOUS
10
5.14159
20
-2.84856
11
5.14214
21
-2.84375
0
LINE
8
BLACK
6
CONTINUOUS
10
5.14214
20
-2.84375
11
5.14374
21
-2.83917
0
LINE
8
BLACK
6
CONTINUOUS
10
5.14374
20
-2.83917
11
5.14632
21
-2.83507
0
LINE
8
BLACK
6
CONTINUOUS
10
5.14632
20
-2.83507
11
5.14975
21
-2.83164
0
LINE
8
BLACK
6
CONTINUOUS
10
5.14975
20
-2.83164
11
5.15385
21
-2.82906
0
LINE
8
BLACK
6
CONTINUOUS
10
5.15385
20
-2.82906
11
5.15843
21
-2.82746
0
LINE
8
BLACK
6
CONTINUOUS
10
5.15843
20
-2.82746
11
5.16323
21
-2.82692
0
LINE
8
BLACK
6
CONTINUOUS
10
5.16323
20
-2.82692
11
5.16325
21
-2.82691
0
LINE
8
BLACK
6
CONTINUOUS
10
5.16325
20
-2.82691
11
5.24199
21
-2.82691
0
LINE
8
BLACK
6
CONTINUOUS
10
5.24199
20
-2.82691
11
5.24199
21
-2.82691
0
LINE
8
BLACK
6
CONTINUOUS
10
5.24199
20
-2.82691
11
5.24227
21
-2.82703
0
LINE
8
BLACK
6
CONTINUOUS
10
5.24227
20
-2.82703
11
5.24661
21
-2.82646
0
LINE
8
BLACK
6
CONTINUOUS
10
5.24661
20
-2.82646
11
5.25092
21
-2.82467
0
LINE
8
BLACK
6
CONTINUOUS
10
5.25092
20
-2.82467
11
5.25462
21
-2.82183
0
LINE
8
BLACK
6
CONTINUOUS
10
5.25462
20
-2.82183
11
5.25746
21
-2.81813
0
LINE
8
BLACK
6
CONTINUOUS
10
5.25746
20
-2.81813
11
5.25925
21
-2.81382
0
LINE
8
BLACK
6
CONTINUOUS
10
5.25925
20
-2.81382
11
5.25982
21
-2.80948
0
LINE
8
BLACK
6
CONTINUOUS
10
5.25982
20
-2.80948
11
5.2597
21
-2.8092
0
LINE
8
BLACK
6
CONTINUOUS
10
5.2597
20
-2.8092
11
5.2597
21
-2.8092
0
LINE
8
BLACK
6
CONTINUOUS
10
5.2597
20
-2.8092
11
5.2597
21
-2.80919
0
LINE
8
BLACK
6
CONTINUOUS
10
5.2597
20
-2.80919
11
5.2597
21
-2.71077
0
LINE
8
BLACK
6
CONTINUOUS
10
5.2597
20
-2.71077
11
5.2597
21
-2.71077
0
LINE
8
BLACK
6
CONTINUOUS
10
5.2597
20
-2.71077
11
5.2597
21
-2.71077
0
LINE
8
BLACK
6
CONTINUOUS
10
5.2597
20
-2.71077
11
5.26025
21
-2.70595
0
LINE
8
BLACK
6
CONTINUOUS
10
5.26025
20
-2.70595
11
5.26185
21
-2.70138
0
LINE
8
BLACK
6
CONTINUOUS
10
5.26185
20
-2.70138
11
5.26443
21
-2.69727
0
LINE
8
BLACK
6
CONTINUOUS
10
5.26443
20
-2.69727
11
5.26786
21
-2.69384
0
LINE
8
BLACK
6
CONTINUOUS
10
5.26786
20
-2.69384
11
5.27196
21
-2.69126
0
LINE
8
BLACK
6
CONTINUOUS
10
5.27196
20
-2.69126
11
5.27654
21
-2.68966
0
LINE
8
BLACK
6
CONTINUOUS
10
5.27654
20
-2.68966
11
5.28134
21
-2.68912
0
LINE
8
BLACK
6
CONTINUOUS
10
5.28134
20
-2.68912
11
5.28136
21
-2.68912
0
LINE
8
BLACK
6
CONTINUOUS
10
5.28136
20
-2.68912
11
5.55695
21
-2.68912
0
LINE
8
BLACK
6
CONTINUOUS
10
5.55695
20
-2.68912
11
5.55695
21
-2.68912
0
LINE
8
BLACK
6
CONTINUOUS
10
5.55695
20
-2.68912
11
5.55695
21
-2.68912
0
LINE
8
BLACK
6
CONTINUOUS
10
5.55695
20
-2.68912
11
5.56177
21
-2.68966
0
LINE
8
BLACK
6
CONTINUOUS
10
5.56177
20
-2.68966
11
5.56634
21
-2.69126
0
LINE
8
BLACK
6
CONTINUOUS
10
5.56634
20
-2.69126
11
5.57045
21
-2.69384
0
LINE
8
BLACK
6
CONTINUOUS
10
5.57045
20
-2.69384
11
5.57388
21
-2.69727
0
LINE
8
BLACK
6
CONTINUOUS
10
5.57388
20
-2.69727
11
5.57646
21
-2.70137
0
LINE
8
BLACK
6
CONTINUOUS
10
5.57646
20
-2.70137
11
5.57806
21
-2.70595
0
LINE
8
BLACK
6
CONTINUOUS
10
5.57806
20
-2.70595
11
5.5786
21
-2.71077
0
LINE
8
BLACK
6
CONTINUOUS
10
5.5786
20
-2.71077
11
5.5786
21
-2.71077
0
LINE
8
BLACK
6
CONTINUOUS
10
5.5786
20
-2.71077
11
5.5786
21
-2.71077
0
LINE
8
BLACK
6
CONTINUOUS
10
5.5786
20
-2.71077
11
5.5786
21
-2.80919
0
LINE
8
BLACK
6
CONTINUOUS
10
5.5786
20
-2.80919
11
5.5786
21
-2.8092
0
LINE
8
BLACK
6
CONTINUOUS
10
5.5786
20
-2.8092
11
5.5786
21
-2.8092
0
LINE
8
BLACK
6
CONTINUOUS
10
5.5786
20
-2.8092
11
5.57848
21
-2.80948
0
LINE
8
BLACK
6
CONTINUOUS
10
5.57848
20
-2.80948
11
5.57906
21
-2.81382
0
LINE
8
BLACK
6
CONTINUOUS
10
5.57906
20
-2.81382
11
5.58084
21
-2.81813
0
LINE
8
BLACK
6
CONTINUOUS
10
5.58084
20
-2.81813
11
5.58368
21
-2.82183
0
LINE
8
BLACK
6
CONTINUOUS
10
5.58368
20
-2.82183
11
5.58738
21
-2.82467
0
LINE
8
BLACK
6
CONTINUOUS
10
5.58738
20
-2.82467
11
5.59169
21
-2.82646
0
LINE
8
BLACK
6
CONTINUOUS
10
5.59169
20
-2.82646
11
5.59604
21
-2.82703
0
LINE
8
BLACK
6
CONTINUOUS
10
5.59604
20
-2.82703
11
5.59632
21
-2.82691
0
LINE
8
BLACK
6
CONTINUOUS
10
5.59632
20
-2.82691
11
5.59632
21
-2.82691
0
LINE
8
BLACK
6
CONTINUOUS
10
5.59632
20
-2.82691
11
5.59632
21
-2.82691
0
LINE
8
BLACK
6
CONTINUOUS
10
5.59632
20
-2.82691
11
5.67506
21
-2.82691
0
LINE
8
BLACK
6
CONTINUOUS
10
5.67506
20
-2.82691
11
5.67506
21
-2.82691
0
LINE
8
BLACK
6
CONTINUOUS
10
5.67506
20
-2.82691
11
5.67506
21
-2.82691
0
LINE
8
BLACK
6
CONTINUOUS
10
5.67506
20
-2.82691
11
5.67988
21
-2.82745
0
LINE
8
BLACK
6
CONTINUOUS
10
5.67988
20
-2.82745
11
5.68445
21
-2.82906
0
LINE
8
BLACK
6
CONTINUOUS
10
5.68445
20
-2.82906
11
5.68856
21
-2.83164
0
LINE
8
BLACK
6
CONTINUOUS
10
5.68856
20
-2.83164
11
5.69199
21
-2.83506
0
LINE
8
BLACK
6
CONTINUOUS
10
5.69199
20
-2.83506
11
5.69457
21
-2.83917
0
LINE
8
BLACK
6
CONTINUOUS
10
5.69457
20
-2.83917
11
5.69617
21
-2.84375
0
LINE
8
BLACK
6
CONTINUOUS
10
5.69617
20
-2.84375
11
5.69671
21
-2.84856
0
LINE
8
BLACK
6
CONTINUOUS
10
5.69671
20
-2.84856
11
5.69671
21
-2.84856
0
LINE
8
BLACK
6
CONTINUOUS
10
5.69671
20
-2.84856
11
5.69671
21
-2.84857
0
LINE
8
BLACK
6
CONTINUOUS
10
5.69671
20
-2.84857
11
5.69671
21
-3.28164
0
LINE
8
BLACK
6
CONTINUOUS
10
5.69671
20
-3.28164
11
5.69671
21
-3.28164
0
LINE
8
BLACK
6
CONTINUOUS
10
5.69671
20
-3.28164
11
5.69617
21
-3.28645
0
LINE
8
BLACK
6
CONTINUOUS
10
5.69617
20
-3.28645
11
5.69457
21
-3.29103
0
LINE
8
BLACK
6
CONTINUOUS
10
5.69457
20
-3.29103
11
5.69199
21
-3.29514
0
LINE
8
BLACK
6
CONTINUOUS
10
5.69199
20
-3.29514
11
5.68856
21
-3.29857
0
LINE
8
BLACK
6
CONTINUOUS
10
5.68856
20
-3.29857
11
5.68445
21
-3.30115
0
LINE
8
BLACK
6
CONTINUOUS
10
5.68445
20
-3.30115
11
5.67988
21
-3.30275
0
LINE
8
BLACK
6
CONTINUOUS
10
5.67988
20
-3.30275
11
5.67506
21
-3.30329
0
LINE
8
BLACK
6
CONTINUOUS
10
5.67506
20
-3.30329
11
5.67506
21
-3.30329
0
LINE
8
BLACK
6
CONTINUOUS
10
5.67506
20
-3.30329
11
5.67506
21
-3.30329
0
LINE
8
BLACK
6
CONTINUOUS
10
5.67506
20
-3.30329
11
5.67506
21
-3.30329
0
LINE
8
BLACK
6
CONTINUOUS
10
5.67506
20
-3.30329
11
5.59632
21
-3.30329
0
LINE
8
BLACK
6
CONTINUOUS
10
5.59632
20
-3.30329
11
5.59632
21
-3.30329
0
LINE
8
BLACK
6
CONTINUOUS
10
5.59632
20
-3.30329
11
5.59632
21
-3.30329
0
LINE
8
BLACK
6
CONTINUOUS
10
5.59632
20
-3.30329
11
5.59604
21
-3.30318
0
LINE
8
BLACK
6
CONTINUOUS
10
5.59604
20
-3.30318
11
5.59169
21
-3.30375
0
LINE
8
BLACK
6
CONTINUOUS
10
5.59169
20
-3.30375
11
5.58738
21
-3.30553
0
LINE
8
BLACK
6
CONTINUOUS
10
5.58738
20
-3.30553
11
5.58368
21
-3.30837
0
LINE
8
BLACK
6
CONTINUOUS
10
5.58368
20
-3.30837
11
5.58084
21
-3.31207
0
LINE
8
BLACK
6
CONTINUOUS
10
5.58084
20
-3.31207
11
5.57906
21
-3.31638
0
LINE
8
BLACK
6
CONTINUOUS
10
5.57906
20
-3.31638
11
5.57848
21
-3.32073
0
LINE
8
BLACK
6
CONTINUOUS
10
5.57848
20
-3.32073
11
5.5786
21
-3.32101
0
LINE
8
BLACK
6
CONTINUOUS
10
5.5786
20
-3.32101
11
5.5786
21
-3.41943
0
LINE
8
BLACK
6
CONTINUOUS
10
5.5786
20
-3.41943
11
5.5786
21
-3.41943
0
LINE
8
BLACK
6
CONTINUOUS
10
5.5786
20
-3.41943
11
5.57806
21
-3.42425
0
LINE
8
BLACK
6
CONTINUOUS
10
5.57806
20
-3.42425
11
5.57646
21
-3.42883
0
LINE
8
BLACK
6
CONTINUOUS
10
5.57646
20
-3.42883
11
5.57388
21
-3.43293
0
LINE
8
BLACK
6
CONTINUOUS
10
5.57388
20
-3.43293
11
5.57045
21
-3.43636
0
LINE
8
BLACK
6
CONTINUOUS
10
5.57045
20
-3.43636
11
5.56634
21
-3.43894
0
LINE
8
BLACK
6
CONTINUOUS
10
5.56634
20
-3.43894
11
5.56177
21
-3.44055
0
LINE
8
BLACK
6
CONTINUOUS
10
5.56177
20
-3.44055
11
5.55695
21
-3.44109
0
LINE
8
BLACK
6
CONTINUOUS
10
5.55695
20
-3.44109
11
5.55695
21
-3.44108
0
LINE
8
BLACK
6
CONTINUOUS
10
5.55695
20
-3.44108
11
5.55695
21
-3.44108
0
LINE
8
BLACK
6
CONTINUOUS
10
5.55695
20
-3.44108
11
5.55695
21
-3.44108
0
LINE
8
BLACK
6
CONTINUOUS
10
5.55695
20
-3.44108
11
5.28136
21
-3.44108
0
LINE
8
BLACK
6
CONTINUOUS
10
5.28136
20
-3.44108
11
5.28136
21
-3.44108
0
LINE
8
BLACK
6
CONTINUOUS
10
5.67534
20
-3.29947
11
5.67968
21
-3.2989
0
LINE
8
BLACK
6
CONTINUOUS
10
5.67968
20
-3.2989
11
5.68399
21
-3.29711
0
LINE
8
BLACK
6
CONTINUOUS
10
5.68399
20
-3.29711
11
5.68769
21
-3.29427
0
LINE
8
BLACK
6
CONTINUOUS
10
5.68769
20
-3.29427
11
5.69053
21
-3.29057
0
LINE
8
BLACK
6
CONTINUOUS
10
5.69053
20
-3.29057
11
5.69232
21
-3.28626
0
LINE
8
BLACK
6
CONTINUOUS
10
5.69232
20
-3.28626
11
5.69289
21
-3.28192
0
LINE
8
BLACK
6
CONTINUOUS
10
5.69289
20
-3.28192
11
5.69277
21
-3.28164
0
LINE
8
BLACK
6
CONTINUOUS
10
5.69277
20
-3.28164
11
5.69277
21
-3.28164
0
LINE
8
BLACK
6
CONTINUOUS
10
5.69277
20
-3.28164
11
5.69277
21
-3.28164
0
LINE
8
BLACK
6
CONTINUOUS
10
5.69277
20
-3.28164
11
5.69277
21
-2.84857
0
LINE
8
BLACK
6
CONTINUOUS
10
5.69277
20
-2.84857
11
5.69289
21
-2.84829
0
LINE
8
BLACK
6
CONTINUOUS
10
5.69289
20
-2.84829
11
5.69232
21
-2.84394
0
LINE
8
BLACK
6
CONTINUOUS
10
5.69232
20
-2.84394
11
5.69053
21
-2.83963
0
LINE
8
BLACK
6
CONTINUOUS
10
5.69053
20
-2.83963
11
5.68769
21
-2.83593
0
LINE
8
BLACK
6
CONTINUOUS
10
5.68769
20
-2.83593
11
5.68399
21
-2.83309
0
LINE
8
BLACK
6
CONTINUOUS
10
5.68399
20
-2.83309
11
5.67968
21
-2.8313
0
LINE
8
BLACK
6
CONTINUOUS
10
5.67968
20
-2.8313
11
5.67534
21
-2.83073
0
LINE
8
BLACK
6
CONTINUOUS
10
5.67534
20
-2.83073
11
5.67506
21
-2.83085
0
LINE
8
BLACK
6
CONTINUOUS
10
5.67506
20
-2.83085
11
5.67506
21
-2.83085
0
LINE
8
BLACK
6
CONTINUOUS
10
5.67506
20
-2.83085
11
5.59632
21
-2.83085
0
LINE
8
BLACK
6
CONTINUOUS
10
5.59632
20
-2.83085
11
5.59632
21
-2.83085
0
LINE
8
BLACK
6
CONTINUOUS
10
5.59632
20
-2.83085
11
5.5915
21
-2.83031
0
LINE
8
BLACK
6
CONTINUOUS
10
5.5915
20
-2.83031
11
5.58692
21
-2.8287
0
LINE
8
BLACK
6
CONTINUOUS
10
5.58692
20
-2.8287
11
5.58282
21
-2.82612
0
LINE
8
BLACK
6
CONTINUOUS
10
5.58282
20
-2.82612
11
5.57939
21
-2.8227
0
LINE
8
BLACK
6
CONTINUOUS
10
5.57939
20
-2.8227
11
5.57681
21
-2.81859
0
LINE
8
BLACK
6
CONTINUOUS
10
5.57681
20
-2.81859
11
5.57521
21
-2.81401
0
LINE
8
BLACK
6
CONTINUOUS
10
5.57521
20
-2.81401
11
5.57466
21
-2.8092
0
LINE
8
BLACK
6
CONTINUOUS
10
5.57466
20
-2.8092
11
5.57466
21
-2.80919
0
LINE
8
BLACK
6
CONTINUOUS
10
5.57466
20
-2.80919
11
5.57466
21
-2.71077
0
LINE
8
BLACK
6
CONTINUOUS
10
5.57466
20
-2.71077
11
5.57478
21
-2.71049
0
LINE
8
BLACK
6
CONTINUOUS
10
5.57478
20
-2.71049
11
5.57421
21
-2.70615
0
LINE
8
BLACK
6
CONTINUOUS
10
5.57421
20
-2.70615
11
5.57242
21
-2.70184
0
LINE
8
BLACK
6
CONTINUOUS
10
5.57242
20
-2.70184
11
5.56958
21
-2.69813
0
LINE
8
BLACK
6
CONTINUOUS
10
5.56958
20
-2.69813
11
5.56588
21
-2.6953
0
LINE
8
BLACK
6
CONTINUOUS
10
5.56588
20
-2.6953
11
5.56157
21
-2.69351
0
LINE
8
BLACK
6
CONTINUOUS
10
5.56157
20
-2.69351
11
5.55723
21
-2.69294
0
LINE
8
BLACK
6
CONTINUOUS
10
5.55723
20
-2.69294
11
5.55695
21
-2.69305
0
LINE
8
BLACK
6
CONTINUOUS
10
5.55695
20
-2.69305
11
5.55695
21
-2.69305
0
LINE
8
BLACK
6
CONTINUOUS
10
5.55695
20
-2.69305
11
5.55695
21
-2.69305
0
LINE
8
BLACK
6
CONTINUOUS
10
5.55695
20
-2.69305
11
5.55695
21
-2.69305
0
LINE
8
BLACK
6
CONTINUOUS
10
5.55695
20
-2.69305
11
5.28136
21
-2.69305
0
LINE
8
BLACK
6
CONTINUOUS
10
5.28136
20
-2.69305
11
5.28136
21
-2.69305
0
LINE
8
BLACK
6
CONTINUOUS
10
5.28136
20
-2.69305
11
5.28136
21
-2.69305
0
LINE
8
BLACK
6
CONTINUOUS
10
5.28136
20
-2.69305
11
5.28108
21
-2.69294
0
LINE
8
BLACK
6
CONTINUOUS
10
5.28108
20
-2.69294
11
5.27673
21
-2.69351
0
LINE
8
BLACK
6
CONTINUOUS
10
5.27673
20
-2.69351
11
5.27242
21
-2.6953
0
LINE
8
BLACK
6
CONTINUOUS
10
5.27242
20
-2.6953
11
5.26872
21
-2.69814
0
LINE
8
BLACK
6
CONTINUOUS
10
5.26872
20
-2.69814
11
5.26588
21
-2.70184
0
LINE
8
BLACK
6
CONTINUOUS
10
5.26588
20
-2.70184
11
5.2641
21
-2.70615
0
LINE
8
BLACK
6
CONTINUOUS
10
5.2641
20
-2.70615
11
5.26352
21
-2.71049
0
LINE
8
BLACK
6
CONTINUOUS
10
5.26352
20
-2.71049
11
5.26364
21
-2.71077
0
LINE
8
BLACK
6
CONTINUOUS
10
5.26364
20
-2.71077
11
5.26364
21
-2.80919
0
LINE
8
BLACK
6
CONTINUOUS
10
5.26364
20
-2.80919
11
5.26364
21
-2.80919
0
LINE
8
BLACK
6
CONTINUOUS
10
5.26364
20
-2.80919
11
5.2631
21
-2.81401
0
LINE
8
BLACK
6
CONTINUOUS
10
5.2631
20
-2.81401
11
5.2615
21
-2.81859
0
LINE
8
BLACK
6
CONTINUOUS
10
5.2615
20
-2.81859
11
5.25892
21
-2.8227
0
LINE
8
BLACK
6
CONTINUOUS
10
5.25892
20
-2.8227
11
5.25549
21
-2.82613
0
LINE
8
BLACK
6
CONTINUOUS
10
5.25549
20
-2.82613
11
5.25138
21
-2.82871
0
LINE
8
BLACK
6
CONTINUOUS
10
5.25138
20
-2.82871
11
5.24681
21
-2.83031
0
LINE
8
BLACK
6
CONTINUOUS
10
5.24681
20
-2.83031
11
5.24199
21
-2.83085
0
LINE
8
BLACK
6
CONTINUOUS
10
5.24199
20
-2.83085
11
5.24199
21
-2.83085
0
LINE
8
BLACK
6
CONTINUOUS
10
5.24199
20
-2.83085
11
5.24199
21
-2.83085
0
LINE
8
BLACK
6
CONTINUOUS
10
5.24199
20
-2.83085
11
5.24199
21
-2.83085
0
LINE
8
BLACK
6
CONTINUOUS
10
5.24199
20
-2.83085
11
5.16325
21
-2.83085
0
LINE
8
BLACK
6
CONTINUOUS
10
5.16325
20
-2.83085
11
5.16325
21
-2.83085
0
LINE
8
BLACK
6
CONTINUOUS
10
5.16325
20
-2.83085
11
5.16325
21
-2.83085
0
LINE
8
BLACK
6
CONTINUOUS
10
5.16325
20
-2.83085
11
5.16297
21
-2.83074
0
LINE
8
BLACK
6
CONTINUOUS
10
5.16297
20
-2.83074
11
5.15862
21
-2.83131
0
LINE
8
BLACK
6
CONTINUOUS
10
5.15862
20
-2.83131
11
5.15431
21
-2.83309
0
LINE
8
BLACK
6
CONTINUOUS
10
5.15431
20
-2.83309
11
5.15061
21
-2.83593
0
LINE
8
BLACK
6
CONTINUOUS
10
5.15061
20
-2.83593
11
5.14777
21
-2.83963
0
LINE
8
BLACK
6
CONTINUOUS
10
5.14777
20
-2.83963
11
5.14599
21
-2.84394
0
LINE
8
BLACK
6
CONTINUOUS
10
5.14599
20
-2.84394
11
5.14541
21
-2.84829
0
LINE
8
BLACK
6
CONTINUOUS
10
5.14541
20
-2.84829
11
5.14553
21
-2.84857
0
LINE
8
BLACK
6
CONTINUOUS
10
5.14553
20
-2.84857
11
5.14553
21
-3.28164
0
LINE
8
BLACK
6
CONTINUOUS
10
5.14553
20
-3.28164
11
5.14553
21
-3.28164
0
LINE
8
BLACK
6
CONTINUOUS
10
5.14553
20
-3.28164
11
5.14553
21
-3.28164
0
LINE
8
BLACK
6
CONTINUOUS
10
5.14553
20
-3.28164
11
5.14541
21
-3.28192
0
LINE
8
BLACK
6
CONTINUOUS
10
5.14541
20
-3.28192
11
5.14599
21
-3.28626
0
LINE
8
BLACK
6
CONTINUOUS
10
5.14599
20
-3.28626
11
5.14777
21
-3.29057
0
LINE
8
BLACK
6
CONTINUOUS
10
5.14777
20
-3.29057
11
5.15061
21
-3.29427
0
LINE
8
BLACK
6
CONTINUOUS
10
5.15061
20
-3.29427
11
5.15431
21
-3.29711
0
LINE
8
BLACK
6
CONTINUOUS
10
5.15431
20
-3.29711
11
5.15862
21
-3.2989
0
LINE
8
BLACK
6
CONTINUOUS
10
5.15862
20
-3.2989
11
5.16297
21
-3.29947
0
LINE
8
BLACK
6
CONTINUOUS
10
5.16297
20
-3.29947
11
5.16325
21
-3.29935
0
LINE
8
BLACK
6
CONTINUOUS
10
5.16325
20
-3.29935
11
5.16325
21
-3.29935
0
LINE
8
BLACK
6
CONTINUOUS
10
5.16325
20
-3.29935
11
5.16325
21
-3.29935
0
LINE
8
BLACK
6
CONTINUOUS
10
5.16325
20
-3.29935
11
5.24199
21
-3.29935
0
LINE
8
BLACK
6
CONTINUOUS
10
5.24199
20
-3.29935
11
5.24199
21
-3.29935
0
LINE
8
BLACK
6
CONTINUOUS
10
5.24199
20
-3.29935
11
5.24199
21
-3.29935
0
LINE
8
BLACK
6
CONTINUOUS
10
5.24199
20
-3.29935
11
5.2468
21
-3.2999
0
LINE
8
BLACK
6
CONTINUOUS
10
5.2468
20
-3.2999
11
5.25138
21
-3.3015
0
LINE
8
BLACK
6
CONTINUOUS
10
5.25138
20
-3.3015
11
5.25549
21
-3.30408
0
LINE
8
BLACK
6
CONTINUOUS
10
5.25549
20
-3.30408
11
5.25891
21
-3.30751
0
LINE
8
BLACK
6
CONTINUOUS
10
5.25891
20
-3.30751
11
5.26149
21
-3.31161
0
LINE
8
BLACK
6
CONTINUOUS
10
5.26149
20
-3.31161
11
5.2631
21
-3.31619
0
LINE
8
BLACK
6
CONTINUOUS
10
5.2631
20
-3.31619
11
5.26364
21
-3.32101
0
LINE
8
BLACK
6
CONTINUOUS
10
5.26364
20
-3.32101
11
5.26364
21
-3.32101
0
LINE
8
BLACK
6
CONTINUOUS
10
5.26364
20
-3.32101
11
5.26364
21
-3.32101
0
LINE
8
BLACK
6
CONTINUOUS
10
5.26364
20
-3.32101
11
5.26364
21
-3.41943
0
LINE
8
BLACK
6
CONTINUOUS
10
5.26364
20
-3.41943
11
5.26364
21
-3.41943
0
LINE
8
BLACK
6
CONTINUOUS
10
5.26364
20
-3.41943
11
5.26364
21
-3.41943
0
LINE
8
BLACK
6
CONTINUOUS
10
5.26364
20
-3.41943
11
5.26352
21
-3.41971
0
LINE
8
BLACK
6
CONTINUOUS
10
5.26352
20
-3.41971
11
5.2641
21
-3.42406
0
LINE
8
BLACK
6
CONTINUOUS
10
5.2641
20
-3.42406
11
5.26588
21
-3.42837
0
LINE
8
BLACK
6
CONTINUOUS
10
5.26588
20
-3.42837
11
5.26872
21
-3.43207
0
LINE
8
BLACK
6
CONTINUOUS
10
5.26872
20
-3.43207
11
5.27242
21
-3.43491
0
LINE
8
BLACK
6
CONTINUOUS
10
5.27242
20
-3.43491
11
5.27673
21
-3.43669
0
LINE
8
BLACK
6
CONTINUOUS
10
5.27673
20
-3.43669
11
5.28108
21
-3.43726
0
LINE
8
BLACK
6
CONTINUOUS
10
5.28108
20
-3.43726
11
5.28136
21
-3.43715
0
LINE
8
BLACK
6
CONTINUOUS
10
5.28136
20
-3.43715
11
5.28136
21
-3.43715
0
LINE
8
BLACK
6
CONTINUOUS
10
5.28136
20
-3.43715
11
5.28136
21
-3.43715
0
LINE
8
BLACK
6
CONTINUOUS
10
5.28136
20
-3.43715
11
5.55695
21
-3.43715
0
LINE
8
BLACK
6
CONTINUOUS
10
5.55695
20
-3.43715
11
5.55723
21
-3.43727
0
LINE
8
BLACK
6
CONTINUOUS
10
5.55723
20
-3.43727
11
5.56157
21
-3.43669
0
LINE
8
BLACK
6
CONTINUOUS
10
5.56157
20
-3.43669
11
5.56588
21
-3.43491
0
LINE
8
BLACK
6
CONTINUOUS
10
5.56588
20
-3.43491
11
5.56958
21
-3.43207
0
LINE
8
BLACK
6
CONTINUOUS
10
5.56958
20
-3.43207
11
5.57242
21
-3.42837
0
LINE
8
BLACK
6
CONTINUOUS
10
5.57242
20
-3.42837
11
5.57421
21
-3.42406
0
LINE
8
BLACK
6
CONTINUOUS
10
5.57421
20
-3.42406
11
5.57478
21
-3.41971
0
LINE
8
BLACK
6
CONTINUOUS
10
5.57478
20
-3.41971
11
5.57466
21
-3.41943
0
LINE
8
BLACK
6
CONTINUOUS
10
5.57466
20
-3.41943
11
5.57466
21
-3.41943
0
LINE
8
BLACK
6
CONTINUOUS
10
5.57466
20
-3.41943
11
5.57466
21
-3.41943
0
LINE
8
BLACK
6
CONTINUOUS
10
5.57466
20
-3.41943
11
5.57466
21
-3.32101
0
LINE
8
BLACK
6
CONTINUOUS
10
5.57466
20
-3.32101
11
5.57466
21
-3.32101
0
LINE
8
BLACK
6
CONTINUOUS
10
5.57466
20
-3.32101
11
5.57466
21
-3.32101
0
LINE
8
BLACK
6
CONTINUOUS
10
5.57466
20
-3.32101
11
5.57521
21
-3.31619
0
LINE
8
BLACK
6
CONTINUOUS
10
5.57521
20
-3.31619
11
5.57681
21
-3.31161
0
LINE
8
BLACK
6
CONTINUOUS
10
5.57681
20
-3.31161
11
5.57939
21
-3.30751
0
LINE
8
BLACK
6
CONTINUOUS
10
5.57939
20
-3.30751
11
5.58282
21
-3.30408
0
LINE
8
BLACK
6
CONTINUOUS
10
5.58282
20
-3.30408
11
5.58692
21
-3.3015
0
LINE
8
BLACK
6
CONTINUOUS
10
5.58692
20
-3.3015
11
5.5915
21
-3.2999
0
LINE
8
BLACK
6
CONTINUOUS
10
5.5915
20
-3.2999
11
5.5963
21
-3.29936
0
LINE
8
BLACK
6
CONTINUOUS
10
5.5963
20
-3.29936
11
5.59632
21
-3.29935
0
LINE
8
BLACK
6
CONTINUOUS
10
5.59632
20
-3.29935
11
5.67506
21
-3.29935
0
LINE
8
BLACK
6
CONTINUOUS
10
5.67506
20
-3.29935
11
5.67506
21
-3.29935
0
LINE
8
BLACK
6
CONTINUOUS
10
5.67506
20
-3.29935
11
5.67534
21
-3.29947
  0
ENDSEC
  0
EOF
