  0
SECTION
  2
HEADER
  9
$ANGBASE
  50
0.0
  9
$ANGDIR
  70
1
  9
$MEASUREMENT
  70
0
  0
ENDSEC
  0
SECTION
  2
TABLES
  0
TABLE
  2
LTYPE
  70
4
  0
LTYPE
  5
40F
  2
CONTINUOUS
  70
0
  3
Solid line
  72
65
  73
0
  40
0.0
  0
LTYPE
  5
410
  2
DASHDOT
 70
0
  3
Dash Dot ____ _ ____ _
 72
65
 73
4
 40
2.0
 49
1.25
 49
-0.25
 49
0.25
 49
-0.25
  0
LTYPE
  5
411
  2
DASHED
 70
0
  3
Dashed __ __ __ __ __
 72
65
 73
2
 40
0.75
 49
0.5
 49
-0.25
  0
LTYPE
  5
43B
  2
DOTTED
 70
0
  3
Dotted .  .  .  .
 72
65
 73
2
 40
0.2
 49
0.0
 49
-0.2
  0
ENDTAB
  0
TABLE
  2
STYLE
  70
4
  0
STYLE
  2
KICAD
  70
0
  40
0
  41
1
  42
1
  50
0
  71
0
  3
isocp.shx
  0
STYLE
  2
KICADB
  70
0
  40
0
  41
1
  42
1
  50
0
  71
0
  3
isocp.shx
  0
STYLE
  2
KICADI
  70
0
  40
0
  41
1
  42
1
  50
15
  71
0
  3
isocp.shx
  0
STYLE
  2
KICADBI
  70
0
  40
0
  41
1
  42
1
  50
15
  71
0
  3
isocp.shx
  0
ENDTAB
  0
TABLE
  2
LAYER
  70
1
  0
LAYER
  2
BLACK
  70
0
  62
7
  6
CONTINUOUS
  0
ENDTAB
  0
ENDSEC
  0
SECTION
  2
ENTITIES
0
LINE
8
BLACK
6
CONTINUOUS
10
5.73039
20
-4.59897
11
5.73409
21
-4.59104
0
LINE
8
BLACK
6
CONTINUOUS
10
5.73409
20
-4.59104
11
5.73911
21
-4.58388
0
LINE
8
BLACK
6
CONTINUOUS
10
5.73911
20
-4.58388
11
5.74529
21
-4.57769
0
LINE
8
BLACK
6
CONTINUOUS
10
5.74529
20
-4.57769
11
5.75246
21
-4.57267
0
LINE
8
BLACK
6
CONTINUOUS
10
5.75246
20
-4.57267
11
5.76039
21
-4.56897
0
LINE
8
BLACK
6
CONTINUOUS
10
5.76039
20
-4.56897
11
5.76884
21
-4.56671
0
LINE
8
BLACK
6
CONTINUOUS
10
5.76884
20
-4.56671
11
5.77756
21
-4.56594
0
LINE
8
BLACK
6
CONTINUOUS
10
5.77756
20
-4.56594
11
5.78628
21
-4.56671
0
LINE
8
BLACK
6
CONTINUOUS
10
5.78628
20
-4.56671
11
5.79473
21
-4.56897
0
LINE
8
BLACK
6
CONTINUOUS
10
5.79473
20
-4.56897
11
5.80266
21
-4.57267
0
LINE
8
BLACK
6
CONTINUOUS
10
5.80266
20
-4.57267
11
5.80982
21
-4.57769
0
LINE
8
BLACK
6
CONTINUOUS
10
5.80982
20
-4.57769
11
5.81601
21
-4.58388
0
LINE
8
BLACK
6
CONTINUOUS
10
5.81601
20
-4.58388
11
5.82103
21
-4.59104
0
LINE
8
BLACK
6
CONTINUOUS
10
5.82103
20
-4.59104
11
5.82473
21
-4.59897
0
LINE
8
BLACK
6
CONTINUOUS
10
5.82473
20
-4.59897
11
5.82699
21
-4.60743
0
LINE
8
BLACK
6
CONTINUOUS
10
5.82699
20
-4.60743
11
5.82776
21
-4.61614
0
LINE
8
BLACK
6
CONTINUOUS
10
5.82776
20
-4.61614
11
5.82699
21
-4.62486
0
LINE
8
BLACK
6
CONTINUOUS
10
5.82699
20
-4.62486
11
5.82473
21
-4.63331
0
LINE
8
BLACK
6
CONTINUOUS
10
5.82473
20
-4.63331
11
5.82103
21
-4.64124
0
LINE
8
BLACK
6
CONTINUOUS
10
5.82103
20
-4.64124
11
5.81601
21
-4.64841
0
LINE
8
BLACK
6
CONTINUOUS
10
5.81601
20
-4.64841
11
5.80982
21
-4.65459
0
LINE
8
BLACK
6
CONTINUOUS
10
5.80982
20
-4.65459
11
5.80266
21
-4.65961
0
LINE
8
BLACK
6
CONTINUOUS
10
5.80266
20
-4.65961
11
5.79473
21
-4.66331
0
LINE
8
BLACK
6
CONTINUOUS
10
5.79473
20
-4.66331
11
5.78628
21
-4.66558
0
LINE
8
BLACK
6
CONTINUOUS
10
5.78628
20
-4.66558
11
5.77756
21
-4.66634
0
LINE
8
BLACK
6
CONTINUOUS
10
5.77756
20
-4.66634
11
5.76884
21
-4.66558
0
LINE
8
BLACK
6
CONTINUOUS
10
5.76884
20
-4.66558
11
5.76039
21
-4.66331
0
LINE
8
BLACK
6
CONTINUOUS
10
5.76039
20
-4.66331
11
5.75246
21
-4.65961
0
LINE
8
BLACK
6
CONTINUOUS
10
5.75246
20
-4.65961
11
5.74529
21
-4.65459
0
LINE
8
BLACK
6
CONTINUOUS
10
5.74529
20
-4.65459
11
5.73911
21
-4.64841
0
LINE
8
BLACK
6
CONTINUOUS
10
5.73911
20
-4.64841
11
5.73409
21
-4.64124
0
LINE
8
BLACK
6
CONTINUOUS
10
5.73409
20
-4.64124
11
5.73039
21
-4.63331
0
LINE
8
BLACK
6
CONTINUOUS
10
5.73039
20
-4.63331
11
5.72812
21
-4.62486
0
LINE
8
BLACK
6
CONTINUOUS
10
5.72812
20
-4.62486
11
5.72736
21
-4.61614
0
LINE
8
BLACK
6
CONTINUOUS
10
5.72736
20
-4.61614
11
5.72812
21
-4.60743
0
LINE
8
BLACK
6
CONTINUOUS
10
5.72812
20
-4.60743
11
5.73039
21
-4.59897
0
LINE
8
BLACK
6
CONTINUOUS
10
5.73207
20
-4.6327
11
5.73563
21
-4.64035
0
LINE
8
BLACK
6
CONTINUOUS
10
5.73563
20
-4.64035
11
5.74047
21
-4.64726
0
LINE
8
BLACK
6
CONTINUOUS
10
5.74047
20
-4.64726
11
5.74644
21
-4.65323
0
LINE
8
BLACK
6
CONTINUOUS
10
5.74644
20
-4.65323
11
5.75335
21
-4.65807
0
LINE
8
BLACK
6
CONTINUOUS
10
5.75335
20
-4.65807
11
5.761
21
-4.66163
0
LINE
8
BLACK
6
CONTINUOUS
10
5.761
20
-4.66163
11
5.76915
21
-4.66382
0
LINE
8
BLACK
6
CONTINUOUS
10
5.76915
20
-4.66382
11
5.77756
21
-4.66455
0
LINE
8
BLACK
6
CONTINUOUS
10
5.77756
20
-4.66455
11
5.78597
21
-4.66382
0
LINE
8
BLACK
6
CONTINUOUS
10
5.78597
20
-4.66382
11
5.79412
21
-4.66163
0
LINE
8
BLACK
6
CONTINUOUS
10
5.79412
20
-4.66163
11
5.80177
21
-4.65807
0
LINE
8
BLACK
6
CONTINUOUS
10
5.80177
20
-4.65807
11
5.80868
21
-4.65323
0
LINE
8
BLACK
6
CONTINUOUS
10
5.80868
20
-4.65323
11
5.81465
21
-4.64726
0
LINE
8
BLACK
6
CONTINUOUS
10
5.81465
20
-4.64726
11
5.81949
21
-4.64035
0
LINE
8
BLACK
6
CONTINUOUS
10
5.81949
20
-4.64035
11
5.82305
21
-4.6327
0
LINE
8
BLACK
6
CONTINUOUS
10
5.82305
20
-4.6327
11
5.82524
21
-4.62455
0
LINE
8
BLACK
6
CONTINUOUS
10
5.82524
20
-4.62455
11
5.82597
21
-4.61614
0
LINE
8
BLACK
6
CONTINUOUS
10
5.82597
20
-4.61614
11
5.82524
21
-4.60773
0
LINE
8
BLACK
6
CONTINUOUS
10
5.82524
20
-4.60773
11
5.82305
21
-4.59958
0
LINE
8
BLACK
6
CONTINUOUS
10
5.82305
20
-4.59958
11
5.81949
21
-4.59194
0
LINE
8
BLACK
6
CONTINUOUS
10
5.81949
20
-4.59194
11
5.81465
21
-4.58502
0
LINE
8
BLACK
6
CONTINUOUS
10
5.81465
20
-4.58502
11
5.80868
21
-4.57906
0
LINE
8
BLACK
6
CONTINUOUS
10
5.80868
20
-4.57906
11
5.80177
21
-4.57422
0
LINE
8
BLACK
6
CONTINUOUS
10
5.80177
20
-4.57422
11
5.79412
21
-4.57065
0
LINE
8
BLACK
6
CONTINUOUS
10
5.79412
20
-4.57065
11
5.78597
21
-4.56846
0
LINE
8
BLACK
6
CONTINUOUS
10
5.78597
20
-4.56846
11
5.77756
21
-4.56773
0
LINE
8
BLACK
6
CONTINUOUS
10
5.77756
20
-4.56773
11
5.76915
21
-4.56846
0
LINE
8
BLACK
6
CONTINUOUS
10
5.76915
20
-4.56846
11
5.761
21
-4.57065
0
LINE
8
BLACK
6
CONTINUOUS
10
5.761
20
-4.57065
11
5.75335
21
-4.57422
0
LINE
8
BLACK
6
CONTINUOUS
10
5.75335
20
-4.57422
11
5.74644
21
-4.57906
0
LINE
8
BLACK
6
CONTINUOUS
10
5.74644
20
-4.57906
11
5.74047
21
-4.58502
0
LINE
8
BLACK
6
CONTINUOUS
10
5.74047
20
-4.58502
11
5.73563
21
-4.59194
0
LINE
8
BLACK
6
CONTINUOUS
10
5.73563
20
-4.59194
11
5.73207
21
-4.59958
0
LINE
8
BLACK
6
CONTINUOUS
10
5.73207
20
-4.59958
11
5.72988
21
-4.60773
0
LINE
8
BLACK
6
CONTINUOUS
10
5.72988
20
-4.60773
11
5.72915
21
-4.61614
0
LINE
8
BLACK
6
CONTINUOUS
10
5.72915
20
-4.61614
11
5.72988
21
-4.62455
0
LINE
8
BLACK
6
CONTINUOUS
10
5.72988
20
-4.62455
11
5.73207
21
-4.6327
0
LINE
8
BLACK
6
CONTINUOUS
10
5.97645
20
-4.59897
11
5.98015
21
-4.59104
0
LINE
8
BLACK
6
CONTINUOUS
10
5.98015
20
-4.59104
11
5.98517
21
-4.58388
0
LINE
8
BLACK
6
CONTINUOUS
10
5.98517
20
-4.58388
11
5.99136
21
-4.57769
0
LINE
8
BLACK
6
CONTINUOUS
10
5.99136
20
-4.57769
11
5.99852
21
-4.57267
0
LINE
8
BLACK
6
CONTINUOUS
10
5.99852
20
-4.57267
11
6.00645
21
-4.56897
0
LINE
8
BLACK
6
CONTINUOUS
10
6.00645
20
-4.56897
11
6.01491
21
-4.56671
0
LINE
8
BLACK
6
CONTINUOUS
10
6.01491
20
-4.56671
11
6.02362
21
-4.56594
0
LINE
8
BLACK
6
CONTINUOUS
10
6.02362
20
-4.56594
11
6.03234
21
-4.56671
0
LINE
8
BLACK
6
CONTINUOUS
10
6.03234
20
-4.56671
11
6.04079
21
-4.56897
0
LINE
8
BLACK
6
CONTINUOUS
10
6.04079
20
-4.56897
11
6.04872
21
-4.57267
0
LINE
8
BLACK
6
CONTINUOUS
10
6.04872
20
-4.57267
11
6.05589
21
-4.57769
0
LINE
8
BLACK
6
CONTINUOUS
10
6.05589
20
-4.57769
11
6.06208
21
-4.58388
0
LINE
8
BLACK
6
CONTINUOUS
10
6.06208
20
-4.58388
11
6.06709
21
-4.59104
0
LINE
8
BLACK
6
CONTINUOUS
10
6.06709
20
-4.59104
11
6.07079
21
-4.59897
0
LINE
8
BLACK
6
CONTINUOUS
10
6.07079
20
-4.59897
11
6.07306
21
-4.60743
0
LINE
8
BLACK
6
CONTINUOUS
10
6.07306
20
-4.60743
11
6.07382
21
-4.61614
0
LINE
8
BLACK
6
CONTINUOUS
10
6.07382
20
-4.61614
11
6.07306
21
-4.62486
0
LINE
8
BLACK
6
CONTINUOUS
10
6.07306
20
-4.62486
11
6.07079
21
-4.63331
0
LINE
8
BLACK
6
CONTINUOUS
10
6.07079
20
-4.63331
11
6.06709
21
-4.64124
0
LINE
8
BLACK
6
CONTINUOUS
10
6.06709
20
-4.64124
11
6.06208
21
-4.64841
0
LINE
8
BLACK
6
CONTINUOUS
10
6.06208
20
-4.64841
11
6.05589
21
-4.65459
0
LINE
8
BLACK
6
CONTINUOUS
10
6.05589
20
-4.65459
11
6.04872
21
-4.65961
0
LINE
8
BLACK
6
CONTINUOUS
10
6.04872
20
-4.65961
11
6.04079
21
-4.66331
0
LINE
8
BLACK
6
CONTINUOUS
10
6.04079
20
-4.66331
11
6.03234
21
-4.66558
0
LINE
8
BLACK
6
CONTINUOUS
10
6.03234
20
-4.66558
11
6.02362
21
-4.66634
0
LINE
8
BLACK
6
CONTINUOUS
10
6.02362
20
-4.66634
11
6.01491
21
-4.66558
0
LINE
8
BLACK
6
CONTINUOUS
10
6.01491
20
-4.66558
11
6.00645
21
-4.66331
0
LINE
8
BLACK
6
CONTINUOUS
10
6.00645
20
-4.66331
11
5.99852
21
-4.65961
0
LINE
8
BLACK
6
CONTINUOUS
10
5.99852
20
-4.65961
11
5.99136
21
-4.65459
0
LINE
8
BLACK
6
CONTINUOUS
10
5.99136
20
-4.65459
11
5.98517
21
-4.64841
0
LINE
8
BLACK
6
CONTINUOUS
10
5.98517
20
-4.64841
11
5.98015
21
-4.64124
0
LINE
8
BLACK
6
CONTINUOUS
10
5.98015
20
-4.64124
11
5.97645
21
-4.63331
0
LINE
8
BLACK
6
CONTINUOUS
10
5.97645
20
-4.63331
11
5.97419
21
-4.62486
0
LINE
8
BLACK
6
CONTINUOUS
10
5.97419
20
-4.62486
11
5.97343
21
-4.61614
0
LINE
8
BLACK
6
CONTINUOUS
10
5.97343
20
-4.61614
11
5.97419
21
-4.60743
0
LINE
8
BLACK
6
CONTINUOUS
10
5.97419
20
-4.60743
11
5.97645
21
-4.59897
0
LINE
8
BLACK
6
CONTINUOUS
10
5.97813
20
-4.6327
11
5.9817
21
-4.64035
0
LINE
8
BLACK
6
CONTINUOUS
10
5.9817
20
-4.64035
11
5.98654
21
-4.64726
0
LINE
8
BLACK
6
CONTINUOUS
10
5.98654
20
-4.64726
11
5.9925
21
-4.65323
0
LINE
8
BLACK
6
CONTINUOUS
10
5.9925
20
-4.65323
11
5.99942
21
-4.65807
0
LINE
8
BLACK
6
CONTINUOUS
10
5.99942
20
-4.65807
11
6.00706
21
-4.66163
0
LINE
8
BLACK
6
CONTINUOUS
10
6.00706
20
-4.66163
11
6.01522
21
-4.66382
0
LINE
8
BLACK
6
CONTINUOUS
10
6.01522
20
-4.66382
11
6.02362
21
-4.66455
0
LINE
8
BLACK
6
CONTINUOUS
10
6.02362
20
-4.66455
11
6.03203
21
-4.66382
0
LINE
8
BLACK
6
CONTINUOUS
10
6.03203
20
-4.66382
11
6.04018
21
-4.66163
0
LINE
8
BLACK
6
CONTINUOUS
10
6.04018
20
-4.66163
11
6.04783
21
-4.65807
0
LINE
8
BLACK
6
CONTINUOUS
10
6.04783
20
-4.65807
11
6.05474
21
-4.65323
0
LINE
8
BLACK
6
CONTINUOUS
10
6.05474
20
-4.65323
11
6.06071
21
-4.64726
0
LINE
8
BLACK
6
CONTINUOUS
10
6.06071
20
-4.64726
11
6.06555
21
-4.64035
0
LINE
8
BLACK
6
CONTINUOUS
10
6.06555
20
-4.64035
11
6.06911
21
-4.6327
0
LINE
8
BLACK
6
CONTINUOUS
10
6.06911
20
-4.6327
11
6.0713
21
-4.62455
0
LINE
8
BLACK
6
CONTINUOUS
10
6.0713
20
-4.62455
11
6.07203
21
-4.61614
0
LINE
8
BLACK
6
CONTINUOUS
10
6.07203
20
-4.61614
11
6.0713
21
-4.60773
0
LINE
8
BLACK
6
CONTINUOUS
10
6.0713
20
-4.60773
11
6.06911
21
-4.59958
0
LINE
8
BLACK
6
CONTINUOUS
10
6.06911
20
-4.59958
11
6.06555
21
-4.59194
0
LINE
8
BLACK
6
CONTINUOUS
10
6.06555
20
-4.59194
11
6.06071
21
-4.58502
0
LINE
8
BLACK
6
CONTINUOUS
10
6.06071
20
-4.58502
11
6.05474
21
-4.57906
0
LINE
8
BLACK
6
CONTINUOUS
10
6.05474
20
-4.57906
11
6.04783
21
-4.57422
0
LINE
8
BLACK
6
CONTINUOUS
10
6.04783
20
-4.57422
11
6.04018
21
-4.57065
0
LINE
8
BLACK
6
CONTINUOUS
10
6.04018
20
-4.57065
11
6.03203
21
-4.56846
0
LINE
8
BLACK
6
CONTINUOUS
10
6.03203
20
-4.56846
11
6.02362
21
-4.56773
0
LINE
8
BLACK
6
CONTINUOUS
10
6.02362
20
-4.56773
11
6.01522
21
-4.56846
0
LINE
8
BLACK
6
CONTINUOUS
10
6.01522
20
-4.56846
11
6.00706
21
-4.57065
0
LINE
8
BLACK
6
CONTINUOUS
10
6.00706
20
-4.57065
11
5.99942
21
-4.57422
0
LINE
8
BLACK
6
CONTINUOUS
10
5.99942
20
-4.57422
11
5.9925
21
-4.57906
0
LINE
8
BLACK
6
CONTINUOUS
10
5.9925
20
-4.57906
11
5.98654
21
-4.58502
0
LINE
8
BLACK
6
CONTINUOUS
10
5.98654
20
-4.58502
11
5.9817
21
-4.59194
0
LINE
8
BLACK
6
CONTINUOUS
10
5.9817
20
-4.59194
11
5.97813
21
-4.59958
0
LINE
8
BLACK
6
CONTINUOUS
10
5.97813
20
-4.59958
11
5.97595
21
-4.60773
0
LINE
8
BLACK
6
CONTINUOUS
10
5.97595
20
-4.60773
11
5.97521
21
-4.61614
0
LINE
8
BLACK
6
CONTINUOUS
10
5.97521
20
-4.61614
11
5.97595
21
-4.62455
0
LINE
8
BLACK
6
CONTINUOUS
10
5.97595
20
-4.62455
11
5.97813
21
-4.6327
0
LINE
8
BLACK
6
CONTINUOUS
10
5.8485
20
-4.59897
11
5.8522
21
-4.59104
0
LINE
8
BLACK
6
CONTINUOUS
10
5.8522
20
-4.59104
11
5.85722
21
-4.58388
0
LINE
8
BLACK
6
CONTINUOUS
10
5.85722
20
-4.58388
11
5.8634
21
-4.57769
0
LINE
8
BLACK
6
CONTINUOUS
10
5.8634
20
-4.57769
11
5.87057
21
-4.57267
0
LINE
8
BLACK
6
CONTINUOUS
10
5.87057
20
-4.57267
11
5.8785
21
-4.56897
0
LINE
8
BLACK
6
CONTINUOUS
10
5.8785
20
-4.56897
11
5.88695
21
-4.56671
0
LINE
8
BLACK
6
CONTINUOUS
10
5.88695
20
-4.56671
11
5.89567
21
-4.56594
0
LINE
8
BLACK
6
CONTINUOUS
10
5.89567
20
-4.56594
11
5.90439
21
-4.56671
0
LINE
8
BLACK
6
CONTINUOUS
10
5.90439
20
-4.56671
11
5.91284
21
-4.56897
0
LINE
8
BLACK
6
CONTINUOUS
10
5.91284
20
-4.56897
11
5.92077
21
-4.57267
0
LINE
8
BLACK
6
CONTINUOUS
10
5.92077
20
-4.57267
11
5.92794
21
-4.57769
0
LINE
8
BLACK
6
CONTINUOUS
10
5.92794
20
-4.57769
11
5.93412
21
-4.58388
0
LINE
8
BLACK
6
CONTINUOUS
10
5.93412
20
-4.58388
11
5.93914
21
-4.59104
0
LINE
8
BLACK
6
CONTINUOUS
10
5.93914
20
-4.59104
11
5.94284
21
-4.59897
0
LINE
8
BLACK
6
CONTINUOUS
10
5.94284
20
-4.59897
11
5.9451
21
-4.60743
0
LINE
8
BLACK
6
CONTINUOUS
10
5.9451
20
-4.60743
11
5.94587
21
-4.61614
0
LINE
8
BLACK
6
CONTINUOUS
10
5.94587
20
-4.61614
11
5.9451
21
-4.62486
0
LINE
8
BLACK
6
CONTINUOUS
10
5.9451
20
-4.62486
11
5.94284
21
-4.63331
0
LINE
8
BLACK
6
CONTINUOUS
10
5.94284
20
-4.63331
11
5.93914
21
-4.64124
0
LINE
8
BLACK
6
CONTINUOUS
10
5.93914
20
-4.64124
11
5.93412
21
-4.64841
0
LINE
8
BLACK
6
CONTINUOUS
10
5.93412
20
-4.64841
11
5.92794
21
-4.65459
0
LINE
8
BLACK
6
CONTINUOUS
10
5.92794
20
-4.65459
11
5.92077
21
-4.65961
0
LINE
8
BLACK
6
CONTINUOUS
10
5.92077
20
-4.65961
11
5.91284
21
-4.66331
0
LINE
8
BLACK
6
CONTINUOUS
10
5.91284
20
-4.66331
11
5.90439
21
-4.66558
0
LINE
8
BLACK
6
CONTINUOUS
10
5.90439
20
-4.66558
11
5.89567
21
-4.66634
0
LINE
8
BLACK
6
CONTINUOUS
10
5.89567
20
-4.66634
11
5.88695
21
-4.66558
0
LINE
8
BLACK
6
CONTINUOUS
10
5.88695
20
-4.66558
11
5.8785
21
-4.66331
0
LINE
8
BLACK
6
CONTINUOUS
10
5.8785
20
-4.66331
11
5.87057
21
-4.65961
0
LINE
8
BLACK
6
CONTINUOUS
10
5.87057
20
-4.65961
11
5.8634
21
-4.65459
0
LINE
8
BLACK
6
CONTINUOUS
10
5.8634
20
-4.65459
11
5.85722
21
-4.64841
0
LINE
8
BLACK
6
CONTINUOUS
10
5.85722
20
-4.64841
11
5.8522
21
-4.64124
0
LINE
8
BLACK
6
CONTINUOUS
10
5.8522
20
-4.64124
11
5.8485
21
-4.63331
0
LINE
8
BLACK
6
CONTINUOUS
10
5.8485
20
-4.63331
11
5.84624
21
-4.62486
0
LINE
8
BLACK
6
CONTINUOUS
10
5.84624
20
-4.62486
11
5.84547
21
-4.61614
0
LINE
8
BLACK
6
CONTINUOUS
10
5.84547
20
-4.61614
11
5.84624
21
-4.60743
0
LINE
8
BLACK
6
CONTINUOUS
10
5.84624
20
-4.60743
11
5.8485
21
-4.59897
0
LINE
8
BLACK
6
CONTINUOUS
10
5.85018
20
-4.6327
11
5.85374
21
-4.64035
0
LINE
8
BLACK
6
CONTINUOUS
10
5.85374
20
-4.64035
11
5.85858
21
-4.64726
0
LINE
8
BLACK
6
CONTINUOUS
10
5.85858
20
-4.64726
11
5.86455
21
-4.65323
0
LINE
8
BLACK
6
CONTINUOUS
10
5.86455
20
-4.65323
11
5.87146
21
-4.65807
0
LINE
8
BLACK
6
CONTINUOUS
10
5.87146
20
-4.65807
11
5.87911
21
-4.66163
0
LINE
8
BLACK
6
CONTINUOUS
10
5.87911
20
-4.66163
11
5.88726
21
-4.66382
0
LINE
8
BLACK
6
CONTINUOUS
10
5.88726
20
-4.66382
11
5.89567
21
-4.66455
0
LINE
8
BLACK
6
CONTINUOUS
10
5.89567
20
-4.66455
11
5.90408
21
-4.66382
0
LINE
8
BLACK
6
CONTINUOUS
10
5.90408
20
-4.66382
11
5.91223
21
-4.66163
0
LINE
8
BLACK
6
CONTINUOUS
10
5.91223
20
-4.66163
11
5.91988
21
-4.65807
0
LINE
8
BLACK
6
CONTINUOUS
10
5.91988
20
-4.65807
11
5.92679
21
-4.65323
0
LINE
8
BLACK
6
CONTINUOUS
10
5.92679
20
-4.65323
11
5.93276
21
-4.64726
0
LINE
8
BLACK
6
CONTINUOUS
10
5.93276
20
-4.64726
11
5.9376
21
-4.64035
0
LINE
8
BLACK
6
CONTINUOUS
10
5.9376
20
-4.64035
11
5.94116
21
-4.6327
0
LINE
8
BLACK
6
CONTINUOUS
10
5.94116
20
-4.6327
11
5.94335
21
-4.62455
0
LINE
8
BLACK
6
CONTINUOUS
10
5.94335
20
-4.62455
11
5.94408
21
-4.61614
0
LINE
8
BLACK
6
CONTINUOUS
10
5.94408
20
-4.61614
11
5.94335
21
-4.60773
0
LINE
8
BLACK
6
CONTINUOUS
10
5.94335
20
-4.60773
11
5.94116
21
-4.59958
0
LINE
8
BLACK
6
CONTINUOUS
10
5.94116
20
-4.59958
11
5.9376
21
-4.59194
0
LINE
8
BLACK
6
CONTINUOUS
10
5.9376
20
-4.59194
11
5.93276
21
-4.58502
0
LINE
8
BLACK
6
CONTINUOUS
10
5.93276
20
-4.58502
11
5.92679
21
-4.57906
0
LINE
8
BLACK
6
CONTINUOUS
10
5.92679
20
-4.57906
11
5.91988
21
-4.57422
0
LINE
8
BLACK
6
CONTINUOUS
10
5.91988
20
-4.57422
11
5.91223
21
-4.57065
0
LINE
8
BLACK
6
CONTINUOUS
10
5.91223
20
-4.57065
11
5.90408
21
-4.56846
0
LINE
8
BLACK
6
CONTINUOUS
10
5.90408
20
-4.56846
11
5.89567
21
-4.56773
0
LINE
8
BLACK
6
CONTINUOUS
10
5.89567
20
-4.56773
11
5.88726
21
-4.56846
0
LINE
8
BLACK
6
CONTINUOUS
10
5.88726
20
-4.56846
11
5.87911
21
-4.57065
0
LINE
8
BLACK
6
CONTINUOUS
10
5.87911
20
-4.57065
11
5.87146
21
-4.57422
0
LINE
8
BLACK
6
CONTINUOUS
10
5.87146
20
-4.57422
11
5.86455
21
-4.57906
0
LINE
8
BLACK
6
CONTINUOUS
10
5.86455
20
-4.57906
11
5.85858
21
-4.58502
0
LINE
8
BLACK
6
CONTINUOUS
10
5.85858
20
-4.58502
11
5.85374
21
-4.59194
0
LINE
8
BLACK
6
CONTINUOUS
10
5.85374
20
-4.59194
11
5.85018
21
-4.59958
0
LINE
8
BLACK
6
CONTINUOUS
10
5.85018
20
-4.59958
11
5.84799
21
-4.60773
0
LINE
8
BLACK
6
CONTINUOUS
10
5.84799
20
-4.60773
11
5.84726
21
-4.61614
0
LINE
8
BLACK
6
CONTINUOUS
10
5.84726
20
-4.61614
11
5.84799
21
-4.62455
0
LINE
8
BLACK
6
CONTINUOUS
10
5.84799
20
-4.62455
11
5.85018
21
-4.6327
0
LINE
8
BLACK
6
CONTINUOUS
10
5.93708
20
-4.35291
11
5.94078
21
-4.34498
0
LINE
8
BLACK
6
CONTINUOUS
10
5.94078
20
-4.34498
11
5.9458
21
-4.33781
0
LINE
8
BLACK
6
CONTINUOUS
10
5.9458
20
-4.33781
11
5.95199
21
-4.33163
0
LINE
8
BLACK
6
CONTINUOUS
10
5.95199
20
-4.33163
11
5.95915
21
-4.32661
0
LINE
8
BLACK
6
CONTINUOUS
10
5.95915
20
-4.32661
11
5.96708
21
-4.32291
0
LINE
8
BLACK
6
CONTINUOUS
10
5.96708
20
-4.32291
11
5.97554
21
-4.32064
0
LINE
8
BLACK
6
CONTINUOUS
10
5.97554
20
-4.32064
11
5.98425
21
-4.31988
0
LINE
8
BLACK
6
CONTINUOUS
10
5.98425
20
-4.31988
11
5.99297
21
-4.32064
0
LINE
8
BLACK
6
CONTINUOUS
10
5.99297
20
-4.32064
11
6.00142
21
-4.32291
0
LINE
8
BLACK
6
CONTINUOUS
10
6.00142
20
-4.32291
11
6.00935
21
-4.32661
0
LINE
8
BLACK
6
CONTINUOUS
10
6.00935
20
-4.32661
11
6.01652
21
-4.33163
0
LINE
8
BLACK
6
CONTINUOUS
10
6.01652
20
-4.33163
11
6.02271
21
-4.33781
0
LINE
8
BLACK
6
CONTINUOUS
10
6.02271
20
-4.33781
11
6.02772
21
-4.34498
0
LINE
8
BLACK
6
CONTINUOUS
10
6.02772
20
-4.34498
11
6.03142
21
-4.35291
0
LINE
8
BLACK
6
CONTINUOUS
10
6.03142
20
-4.35291
11
6.03369
21
-4.36136
0
LINE
8
BLACK
6
CONTINUOUS
10
6.03369
20
-4.36136
11
6.03445
21
-4.37008
0
LINE
8
BLACK
6
CONTINUOUS
10
6.03445
20
-4.37008
11
6.03369
21
-4.3788
0
LINE
8
BLACK
6
CONTINUOUS
10
6.03369
20
-4.3788
11
6.03142
21
-4.38725
0
LINE
8
BLACK
6
CONTINUOUS
10
6.03142
20
-4.38725
11
6.02772
21
-4.39518
0
LINE
8
BLACK
6
CONTINUOUS
10
6.02772
20
-4.39518
11
6.02271
21
-4.40234
0
LINE
8
BLACK
6
CONTINUOUS
10
6.02271
20
-4.40234
11
6.01652
21
-4.40853
0
LINE
8
BLACK
6
CONTINUOUS
10
6.01652
20
-4.40853
11
6.00935
21
-4.41355
0
LINE
8
BLACK
6
CONTINUOUS
10
6.00935
20
-4.41355
11
6.00142
21
-4.41725
0
LINE
8
BLACK
6
CONTINUOUS
10
6.00142
20
-4.41725
11
5.99297
21
-4.41951
0
LINE
8
BLACK
6
CONTINUOUS
10
5.99297
20
-4.41951
11
5.98425
21
-4.42028
0
LINE
8
BLACK
6
CONTINUOUS
10
5.98425
20
-4.42028
11
5.97554
21
-4.41951
0
LINE
8
BLACK
6
CONTINUOUS
10
5.97554
20
-4.41951
11
5.96708
21
-4.41725
0
LINE
8
BLACK
6
CONTINUOUS
10
5.96708
20
-4.41725
11
5.95915
21
-4.41355
0
LINE
8
BLACK
6
CONTINUOUS
10
5.95915
20
-4.41355
11
5.95199
21
-4.40853
0
LINE
8
BLACK
6
CONTINUOUS
10
5.95199
20
-4.40853
11
5.9458
21
-4.40234
0
LINE
8
BLACK
6
CONTINUOUS
10
5.9458
20
-4.40234
11
5.94078
21
-4.39518
0
LINE
8
BLACK
6
CONTINUOUS
10
5.94078
20
-4.39518
11
5.93708
21
-4.38725
0
LINE
8
BLACK
6
CONTINUOUS
10
5.93708
20
-4.38725
11
5.93482
21
-4.3788
0
LINE
8
BLACK
6
CONTINUOUS
10
5.93482
20
-4.3788
11
5.93406
21
-4.37008
0
LINE
8
BLACK
6
CONTINUOUS
10
5.93406
20
-4.37008
11
5.93482
21
-4.36136
0
LINE
8
BLACK
6
CONTINUOUS
10
5.93482
20
-4.36136
11
5.93708
21
-4.35291
0
LINE
8
BLACK
6
CONTINUOUS
10
5.93876
20
-4.38664
11
5.94233
21
-4.39428
0
LINE
8
BLACK
6
CONTINUOUS
10
5.94233
20
-4.39428
11
5.94717
21
-4.4012
0
LINE
8
BLACK
6
CONTINUOUS
10
5.94717
20
-4.4012
11
5.95313
21
-4.40716
0
LINE
8
BLACK
6
CONTINUOUS
10
5.95313
20
-4.40716
11
5.96005
21
-4.41201
0
LINE
8
BLACK
6
CONTINUOUS
10
5.96005
20
-4.41201
11
5.96769
21
-4.41557
0
LINE
8
BLACK
6
CONTINUOUS
10
5.96769
20
-4.41557
11
5.97585
21
-4.41776
0
LINE
8
BLACK
6
CONTINUOUS
10
5.97585
20
-4.41776
11
5.98425
21
-4.41849
0
LINE
8
BLACK
6
CONTINUOUS
10
5.98425
20
-4.41849
11
5.99266
21
-4.41776
0
LINE
8
BLACK
6
CONTINUOUS
10
5.99266
20
-4.41776
11
6.00081
21
-4.41557
0
LINE
8
BLACK
6
CONTINUOUS
10
6.00081
20
-4.41557
11
6.00846
21
-4.41201
0
LINE
8
BLACK
6
CONTINUOUS
10
6.00846
20
-4.41201
11
6.01537
21
-4.40716
0
LINE
8
BLACK
6
CONTINUOUS
10
6.01537
20
-4.40716
11
6.02134
21
-4.4012
0
LINE
8
BLACK
6
CONTINUOUS
10
6.02134
20
-4.4012
11
6.02618
21
-4.39428
0
LINE
8
BLACK
6
CONTINUOUS
10
6.02618
20
-4.39428
11
6.02974
21
-4.38664
0
LINE
8
BLACK
6
CONTINUOUS
10
6.02974
20
-4.38664
11
6.03193
21
-4.37849
0
LINE
8
BLACK
6
CONTINUOUS
10
6.03193
20
-4.37849
11
6.03266
21
-4.37008
0
LINE
8
BLACK
6
CONTINUOUS
10
6.03266
20
-4.37008
11
6.03193
21
-4.36167
0
LINE
8
BLACK
6
CONTINUOUS
10
6.03193
20
-4.36167
11
6.02974
21
-4.35352
0
LINE
8
BLACK
6
CONTINUOUS
10
6.02974
20
-4.35352
11
6.02618
21
-4.34587
0
LINE
8
BLACK
6
CONTINUOUS
10
6.02618
20
-4.34587
11
6.02134
21
-4.33896
0
LINE
8
BLACK
6
CONTINUOUS
10
6.02134
20
-4.33896
11
6.01537
21
-4.33299
0
LINE
8
BLACK
6
CONTINUOUS
10
6.01537
20
-4.33299
11
6.00846
21
-4.32815
0
LINE
8
BLACK
6
CONTINUOUS
10
6.00846
20
-4.32815
11
6.00081
21
-4.32459
0
LINE
8
BLACK
6
CONTINUOUS
10
6.00081
20
-4.32459
11
5.99266
21
-4.3224
0
LINE
8
BLACK
6
CONTINUOUS
10
5.99266
20
-4.3224
11
5.98425
21
-4.32167
0
LINE
8
BLACK
6
CONTINUOUS
10
5.98425
20
-4.32167
11
5.97585
21
-4.3224
0
LINE
8
BLACK
6
CONTINUOUS
10
5.97585
20
-4.3224
11
5.96769
21
-4.32459
0
LINE
8
BLACK
6
CONTINUOUS
10
5.96769
20
-4.32459
11
5.96005
21
-4.32815
0
LINE
8
BLACK
6
CONTINUOUS
10
5.96005
20
-4.32815
11
5.95313
21
-4.33299
0
LINE
8
BLACK
6
CONTINUOUS
10
5.95313
20
-4.33299
11
5.94717
21
-4.33896
0
LINE
8
BLACK
6
CONTINUOUS
10
5.94717
20
-4.33896
11
5.94233
21
-4.34587
0
LINE
8
BLACK
6
CONTINUOUS
10
5.94233
20
-4.34587
11
5.93876
21
-4.35352
0
LINE
8
BLACK
6
CONTINUOUS
10
5.93876
20
-4.35352
11
5.93657
21
-4.36167
0
LINE
8
BLACK
6
CONTINUOUS
10
5.93657
20
-4.36167
11
5.93584
21
-4.37008
0
LINE
8
BLACK
6
CONTINUOUS
10
5.93584
20
-4.37008
11
5.93657
21
-4.37849
0
LINE
8
BLACK
6
CONTINUOUS
10
5.93657
20
-4.37849
11
5.93876
21
-4.38664
0
LINE
8
BLACK
6
CONTINUOUS
10
4.95283
20
-4.15606
11
4.95653
21
-4.14813
0
LINE
8
BLACK
6
CONTINUOUS
10
4.95653
20
-4.14813
11
4.96155
21
-4.14096
0
LINE
8
BLACK
6
CONTINUOUS
10
4.96155
20
-4.14096
11
4.96773
21
-4.13478
0
LINE
8
BLACK
6
CONTINUOUS
10
4.96773
20
-4.13478
11
4.9749
21
-4.12976
0
LINE
8
BLACK
6
CONTINUOUS
10
4.9749
20
-4.12976
11
4.98283
21
-4.12606
0
LINE
8
BLACK
6
CONTINUOUS
10
4.98283
20
-4.12606
11
4.99128
21
-4.12379
0
LINE
8
BLACK
6
CONTINUOUS
10
4.99128
20
-4.12379
11
5
21
-4.12303
0
LINE
8
BLACK
6
CONTINUOUS
10
5
20
-4.12303
11
5.00872
21
-4.12379
0
LINE
8
BLACK
6
CONTINUOUS
10
5.00872
20
-4.12379
11
5.01717
21
-4.12606
0
LINE
8
BLACK
6
CONTINUOUS
10
5.01717
20
-4.12606
11
5.0251
21
-4.12976
0
LINE
8
BLACK
6
CONTINUOUS
10
5.0251
20
-4.12976
11
5.03227
21
-4.13478
0
LINE
8
BLACK
6
CONTINUOUS
10
5.03227
20
-4.13478
11
5.03845
21
-4.14096
0
LINE
8
BLACK
6
CONTINUOUS
10
5.03845
20
-4.14096
11
5.04347
21
-4.14813
0
LINE
8
BLACK
6
CONTINUOUS
10
5.04347
20
-4.14813
11
5.04717
21
-4.15606
0
LINE
8
BLACK
6
CONTINUOUS
10
5.04717
20
-4.15606
11
5.04943
21
-4.16451
0
LINE
8
BLACK
6
CONTINUOUS
10
5.04943
20
-4.16451
11
5.0502
21
-4.17323
0
LINE
8
BLACK
6
CONTINUOUS
10
5.0502
20
-4.17323
11
5.04943
21
-4.18194
0
LINE
8
BLACK
6
CONTINUOUS
10
5.04943
20
-4.18194
11
5.04717
21
-4.1904
0
LINE
8
BLACK
6
CONTINUOUS
10
5.04717
20
-4.1904
11
5.04347
21
-4.19833
0
LINE
8
BLACK
6
CONTINUOUS
10
5.04347
20
-4.19833
11
5.03845
21
-4.20549
0
LINE
8
BLACK
6
CONTINUOUS
10
5.03845
20
-4.20549
11
5.03227
21
-4.21168
0
LINE
8
BLACK
6
CONTINUOUS
10
5.03227
20
-4.21168
11
5.0251
21
-4.2167
0
LINE
8
BLACK
6
CONTINUOUS
10
5.0251
20
-4.2167
11
5.01717
21
-4.2204
0
LINE
8
BLACK
6
CONTINUOUS
10
5.01717
20
-4.2204
11
5.00872
21
-4.22266
0
LINE
8
BLACK
6
CONTINUOUS
10
5.00872
20
-4.22266
11
5
21
-4.22343
0
LINE
8
BLACK
6
CONTINUOUS
10
5
20
-4.22343
11
4.99128
21
-4.22266
0
LINE
8
BLACK
6
CONTINUOUS
10
4.99128
20
-4.22266
11
4.98283
21
-4.2204
0
LINE
8
BLACK
6
CONTINUOUS
10
4.98283
20
-4.2204
11
4.9749
21
-4.2167
0
LINE
8
BLACK
6
CONTINUOUS
10
4.9749
20
-4.2167
11
4.96773
21
-4.21168
0
LINE
8
BLACK
6
CONTINUOUS
10
4.96773
20
-4.21168
11
4.96155
21
-4.20549
0
LINE
8
BLACK
6
CONTINUOUS
10
4.96155
20
-4.20549
11
4.95653
21
-4.19833
0
LINE
8
BLACK
6
CONTINUOUS
10
4.95653
20
-4.19833
11
4.95283
21
-4.1904
0
LINE
8
BLACK
6
CONTINUOUS
10
4.95283
20
-4.1904
11
4.95057
21
-4.18194
0
LINE
8
BLACK
6
CONTINUOUS
10
4.95057
20
-4.18194
11
4.9498
21
-4.17323
0
LINE
8
BLACK
6
CONTINUOUS
10
4.9498
20
-4.17323
11
4.95057
21
-4.16451
0
LINE
8
BLACK
6
CONTINUOUS
10
4.95057
20
-4.16451
11
4.95283
21
-4.15606
0
LINE
8
BLACK
6
CONTINUOUS
10
4.95451
20
-4.18979
11
4.95807
21
-4.19743
0
LINE
8
BLACK
6
CONTINUOUS
10
4.95807
20
-4.19743
11
4.96291
21
-4.20435
0
LINE
8
BLACK
6
CONTINUOUS
10
4.96291
20
-4.20435
11
4.96888
21
-4.21031
0
LINE
8
BLACK
6
CONTINUOUS
10
4.96888
20
-4.21031
11
4.97579
21
-4.21515
0
LINE
8
BLACK
6
CONTINUOUS
10
4.97579
20
-4.21515
11
4.98344
21
-4.21872
0
LINE
8
BLACK
6
CONTINUOUS
10
4.98344
20
-4.21872
11
4.99159
21
-4.22091
0
LINE
8
BLACK
6
CONTINUOUS
10
4.99159
20
-4.22091
11
5
21
-4.22164
0
LINE
8
BLACK
6
CONTINUOUS
10
5
20
-4.22164
11
5.00841
21
-4.22091
0
LINE
8
BLACK
6
CONTINUOUS
10
5.00841
20
-4.22091
11
5.01656
21
-4.21872
0
LINE
8
BLACK
6
CONTINUOUS
10
5.01656
20
-4.21872
11
5.02421
21
-4.21515
0
LINE
8
BLACK
6
CONTINUOUS
10
5.02421
20
-4.21515
11
5.03112
21
-4.21031
0
LINE
8
BLACK
6
CONTINUOUS
10
5.03112
20
-4.21031
11
5.03709
21
-4.20435
0
LINE
8
BLACK
6
CONTINUOUS
10
5.03709
20
-4.20435
11
5.04193
21
-4.19743
0
LINE
8
BLACK
6
CONTINUOUS
10
5.04193
20
-4.19743
11
5.04549
21
-4.18979
0
LINE
8
BLACK
6
CONTINUOUS
10
5.04549
20
-4.18979
11
5.04768
21
-4.18164
0
LINE
8
BLACK
6
CONTINUOUS
10
5.04768
20
-4.18164
11
5.04841
21
-4.17323
0
LINE
8
BLACK
6
CONTINUOUS
10
5.04841
20
-4.17323
11
5.04768
21
-4.16482
0
LINE
8
BLACK
6
CONTINUOUS
10
5.04768
20
-4.16482
11
5.04549
21
-4.15667
0
LINE
8
BLACK
6
CONTINUOUS
10
5.04549
20
-4.15667
11
5.04193
21
-4.14902
0
LINE
8
BLACK
6
CONTINUOUS
10
5.04193
20
-4.14902
11
5.03709
21
-4.14211
0
LINE
8
BLACK
6
CONTINUOUS
10
5.03709
20
-4.14211
11
5.03112
21
-4.13614
0
LINE
8
BLACK
6
CONTINUOUS
10
5.03112
20
-4.13614
11
5.02421
21
-4.1313
0
LINE
8
BLACK
6
CONTINUOUS
10
5.02421
20
-4.1313
11
5.01656
21
-4.12774
0
LINE
8
BLACK
6
CONTINUOUS
10
5.01656
20
-4.12774
11
5.00841
21
-4.12555
0
LINE
8
BLACK
6
CONTINUOUS
10
5.00841
20
-4.12555
11
5
21
-4.12482
0
LINE
8
BLACK
6
CONTINUOUS
10
5
20
-4.12482
11
4.99159
21
-4.12555
0
LINE
8
BLACK
6
CONTINUOUS
10
4.99159
20
-4.12555
11
4.98344
21
-4.12774
0
LINE
8
BLACK
6
CONTINUOUS
10
4.98344
20
-4.12774
11
4.97579
21
-4.1313
0
LINE
8
BLACK
6
CONTINUOUS
10
4.97579
20
-4.1313
11
4.96888
21
-4.13614
0
LINE
8
BLACK
6
CONTINUOUS
10
4.96888
20
-4.13614
11
4.96291
21
-4.14211
0
LINE
8
BLACK
6
CONTINUOUS
10
4.96291
20
-4.14211
11
4.95807
21
-4.14902
0
LINE
8
BLACK
6
CONTINUOUS
10
4.95807
20
-4.14902
11
4.95451
21
-4.15667
0
LINE
8
BLACK
6
CONTINUOUS
10
4.95451
20
-4.15667
11
4.95232
21
-4.16482
0
LINE
8
BLACK
6
CONTINUOUS
10
4.95232
20
-4.16482
11
4.95159
21
-4.17323
0
LINE
8
BLACK
6
CONTINUOUS
10
4.95159
20
-4.17323
11
4.95232
21
-4.18164
0
LINE
8
BLACK
6
CONTINUOUS
10
4.95232
20
-4.18164
11
4.95451
21
-4.18979
0
LINE
8
BLACK
6
CONTINUOUS
10
4.95283
20
-4.01826
11
4.95653
21
-4.01033
0
LINE
8
BLACK
6
CONTINUOUS
10
4.95653
20
-4.01033
11
4.96155
21
-4.00317
0
LINE
8
BLACK
6
CONTINUOUS
10
4.96155
20
-4.00317
11
4.96773
21
-3.99698
0
LINE
8
BLACK
6
CONTINUOUS
10
4.96773
20
-3.99698
11
4.9749
21
-3.99196
0
LINE
8
BLACK
6
CONTINUOUS
10
4.9749
20
-3.99196
11
4.98283
21
-3.98826
0
LINE
8
BLACK
6
CONTINUOUS
10
4.98283
20
-3.98826
11
4.99046
21
-3.98622
0
LINE
8
BLACK
6
CONTINUOUS
10
4.99046
20
-3.98622
11
4.98283
21
-3.98418
0
LINE
8
BLACK
6
CONTINUOUS
10
4.98283
20
-3.98418
11
4.9749
21
-3.98048
0
LINE
8
BLACK
6
CONTINUOUS
10
4.9749
20
-3.98048
11
4.96773
21
-3.97546
0
LINE
8
BLACK
6
CONTINUOUS
10
4.96773
20
-3.97546
11
4.96155
21
-3.96927
0
LINE
8
BLACK
6
CONTINUOUS
10
4.96155
20
-3.96927
11
4.95653
21
-3.96211
0
LINE
8
BLACK
6
CONTINUOUS
10
4.95653
20
-3.96211
11
4.95283
21
-3.95418
0
LINE
8
BLACK
6
CONTINUOUS
10
4.95283
20
-3.95418
11
4.95057
21
-3.94572
0
LINE
8
BLACK
6
CONTINUOUS
10
4.95057
20
-3.94572
11
4.9498
21
-3.93701
0
LINE
8
BLACK
6
CONTINUOUS
10
4.9498
20
-3.93701
11
4.95057
21
-3.92829
0
LINE
8
BLACK
6
CONTINUOUS
10
4.95057
20
-3.92829
11
4.95283
21
-3.91984
0
LINE
8
BLACK
6
CONTINUOUS
10
4.95283
20
-3.91984
11
4.95653
21
-3.91191
0
LINE
8
BLACK
6
CONTINUOUS
10
4.95653
20
-3.91191
11
4.96155
21
-3.90474
0
LINE
8
BLACK
6
CONTINUOUS
10
4.96155
20
-3.90474
11
4.96773
21
-3.89855
0
LINE
8
BLACK
6
CONTINUOUS
10
4.96773
20
-3.89855
11
4.9749
21
-3.89354
0
LINE
8
BLACK
6
CONTINUOUS
10
4.9749
20
-3.89354
11
4.98283
21
-3.88984
0
LINE
8
BLACK
6
CONTINUOUS
10
4.98283
20
-3.88984
11
4.99128
21
-3.88757
0
LINE
8
BLACK
6
CONTINUOUS
10
4.99128
20
-3.88757
11
5
21
-3.88681
0
LINE
8
BLACK
6
CONTINUOUS
10
5
20
-3.88681
11
5.00872
21
-3.88757
0
LINE
8
BLACK
6
CONTINUOUS
10
5.00872
20
-3.88757
11
5.01717
21
-3.88984
0
LINE
8
BLACK
6
CONTINUOUS
10
5.01717
20
-3.88984
11
5.0251
21
-3.89354
0
LINE
8
BLACK
6
CONTINUOUS
10
5.0251
20
-3.89354
11
5.03227
21
-3.89855
0
LINE
8
BLACK
6
CONTINUOUS
10
5.03227
20
-3.89855
11
5.03845
21
-3.90474
0
LINE
8
BLACK
6
CONTINUOUS
10
5.03845
20
-3.90474
11
5.04347
21
-3.91191
0
LINE
8
BLACK
6
CONTINUOUS
10
5.04347
20
-3.91191
11
5.04717
21
-3.91984
0
LINE
8
BLACK
6
CONTINUOUS
10
5.04717
20
-3.91984
11
5.04943
21
-3.92829
0
LINE
8
BLACK
6
CONTINUOUS
10
5.04943
20
-3.92829
11
5.0502
21
-3.93701
0
LINE
8
BLACK
6
CONTINUOUS
10
5.0502
20
-3.93701
11
5.04943
21
-3.94572
0
LINE
8
BLACK
6
CONTINUOUS
10
5.04943
20
-3.94572
11
5.04717
21
-3.95418
0
LINE
8
BLACK
6
CONTINUOUS
10
5.04717
20
-3.95418
11
5.04347
21
-3.96211
0
LINE
8
BLACK
6
CONTINUOUS
10
5.04347
20
-3.96211
11
5.03845
21
-3.96927
0
LINE
8
BLACK
6
CONTINUOUS
10
5.03845
20
-3.96927
11
5.03227
21
-3.97546
0
LINE
8
BLACK
6
CONTINUOUS
10
5.03227
20
-3.97546
11
5.0251
21
-3.98048
0
LINE
8
BLACK
6
CONTINUOUS
10
5.0251
20
-3.98048
11
5.01717
21
-3.98418
0
LINE
8
BLACK
6
CONTINUOUS
10
5.01717
20
-3.98418
11
5.00954
21
-3.98622
0
LINE
8
BLACK
6
CONTINUOUS
10
5.00954
20
-3.98622
11
5.01717
21
-3.98826
0
LINE
8
BLACK
6
CONTINUOUS
10
5.01717
20
-3.98826
11
5.0251
21
-3.99196
0
LINE
8
BLACK
6
CONTINUOUS
10
5.0251
20
-3.99196
11
5.03227
21
-3.99698
0
LINE
8
BLACK
6
CONTINUOUS
10
5.03227
20
-3.99698
11
5.03845
21
-4.00317
0
LINE
8
BLACK
6
CONTINUOUS
10
5.03845
20
-4.00317
11
5.04347
21
-4.01033
0
LINE
8
BLACK
6
CONTINUOUS
10
5.04347
20
-4.01033
11
5.04717
21
-4.01826
0
LINE
8
BLACK
6
CONTINUOUS
10
5.04717
20
-4.01826
11
5.04943
21
-4.02672
0
LINE
8
BLACK
6
CONTINUOUS
10
5.04943
20
-4.02672
11
5.0502
21
-4.03543
0
LINE
8
BLACK
6
CONTINUOUS
10
5.0502
20
-4.03543
11
5.04943
21
-4.04415
0
LINE
8
BLACK
6
CONTINUOUS
10
5.04943
20
-4.04415
11
5.04717
21
-4.0526
0
LINE
8
BLACK
6
CONTINUOUS
10
5.04717
20
-4.0526
11
5.04347
21
-4.06053
0
LINE
8
BLACK
6
CONTINUOUS
10
5.04347
20
-4.06053
11
5.03845
21
-4.0677
0
LINE
8
BLACK
6
CONTINUOUS
10
5.03845
20
-4.0677
11
5.03227
21
-4.07389
0
LINE
8
BLACK
6
CONTINUOUS
10
5.03227
20
-4.07389
11
5.0251
21
-4.0789
0
LINE
8
BLACK
6
CONTINUOUS
10
5.0251
20
-4.0789
11
5.01717
21
-4.0826
0
LINE
8
BLACK
6
CONTINUOUS
10
5.01717
20
-4.0826
11
5.00872
21
-4.08487
0
LINE
8
BLACK
6
CONTINUOUS
10
5.00872
20
-4.08487
11
5
21
-4.08563
0
LINE
8
BLACK
6
CONTINUOUS
10
5
20
-4.08563
11
4.99128
21
-4.08487
0
LINE
8
BLACK
6
CONTINUOUS
10
4.99128
20
-4.08487
11
4.98283
21
-4.0826
0
LINE
8
BLACK
6
CONTINUOUS
10
4.98283
20
-4.0826
11
4.9749
21
-4.0789
0
LINE
8
BLACK
6
CONTINUOUS
10
4.9749
20
-4.0789
11
4.96773
21
-4.07389
0
LINE
8
BLACK
6
CONTINUOUS
10
4.96773
20
-4.07389
11
4.96155
21
-4.0677
0
LINE
8
BLACK
6
CONTINUOUS
10
4.96155
20
-4.0677
11
4.95653
21
-4.06053
0
LINE
8
BLACK
6
CONTINUOUS
10
4.95653
20
-4.06053
11
4.95283
21
-4.0526
0
LINE
8
BLACK
6
CONTINUOUS
10
4.95283
20
-4.0526
11
4.95057
21
-4.04415
0
LINE
8
BLACK
6
CONTINUOUS
10
4.95057
20
-4.04415
11
4.9498
21
-4.03543
0
LINE
8
BLACK
6
CONTINUOUS
10
4.9498
20
-4.03543
11
4.95057
21
-4.02672
0
LINE
8
BLACK
6
CONTINUOUS
10
4.95057
20
-4.02672
11
4.95283
21
-4.01826
0
LINE
8
BLACK
6
CONTINUOUS
10
4.95451
20
-4.05199
11
4.95807
21
-4.05964
0
LINE
8
BLACK
6
CONTINUOUS
10
4.95807
20
-4.05964
11
4.96291
21
-4.06655
0
LINE
8
BLACK
6
CONTINUOUS
10
4.96291
20
-4.06655
11
4.96888
21
-4.07252
0
LINE
8
BLACK
6
CONTINUOUS
10
4.96888
20
-4.07252
11
4.97579
21
-4.07736
0
LINE
8
BLACK
6
CONTINUOUS
10
4.97579
20
-4.07736
11
4.98344
21
-4.08093
0
LINE
8
BLACK
6
CONTINUOUS
10
4.98344
20
-4.08093
11
4.99159
21
-4.08311
0
LINE
8
BLACK
6
CONTINUOUS
10
4.99159
20
-4.08311
11
5
21
-4.08385
0
LINE
8
BLACK
6
CONTINUOUS
10
5
20
-4.08385
11
5.00841
21
-4.08311
0
LINE
8
BLACK
6
CONTINUOUS
10
5.00841
20
-4.08311
11
5.01656
21
-4.08093
0
LINE
8
BLACK
6
CONTINUOUS
10
5.01656
20
-4.08093
11
5.02421
21
-4.07736
0
LINE
8
BLACK
6
CONTINUOUS
10
5.02421
20
-4.07736
11
5.03112
21
-4.07252
0
LINE
8
BLACK
6
CONTINUOUS
10
5.03112
20
-4.07252
11
5.03709
21
-4.06655
0
LINE
8
BLACK
6
CONTINUOUS
10
5.03709
20
-4.06655
11
5.04193
21
-4.05964
0
LINE
8
BLACK
6
CONTINUOUS
10
5.04193
20
-4.05964
11
5.04549
21
-4.05199
0
LINE
8
BLACK
6
CONTINUOUS
10
5.04549
20
-4.05199
11
5.04768
21
-4.04384
0
LINE
8
BLACK
6
CONTINUOUS
10
5.04768
20
-4.04384
11
5.04841
21
-4.03543
0
LINE
8
BLACK
6
CONTINUOUS
10
5.04841
20
-4.03543
11
5.04768
21
-4.02703
0
LINE
8
BLACK
6
CONTINUOUS
10
5.04768
20
-4.02703
11
5.04549
21
-4.01887
0
LINE
8
BLACK
6
CONTINUOUS
10
5.04549
20
-4.01887
11
5.04193
21
-4.01123
0
LINE
8
BLACK
6
CONTINUOUS
10
5.04193
20
-4.01123
11
5.03709
21
-4.00431
0
LINE
8
BLACK
6
CONTINUOUS
10
5.03709
20
-4.00431
11
5.03112
21
-3.99835
0
LINE
8
BLACK
6
CONTINUOUS
10
5.03112
20
-3.99835
11
5.02421
21
-3.99351
0
LINE
8
BLACK
6
CONTINUOUS
10
5.02421
20
-3.99351
11
5.01656
21
-3.98994
0
LINE
8
BLACK
6
CONTINUOUS
10
5.01656
20
-3.98994
11
5.00841
21
-3.98776
0
LINE
8
BLACK
6
CONTINUOUS
10
5.00841
20
-3.98776
11
5.00105
21
-3.98711
0
LINE
8
BLACK
6
CONTINUOUS
10
5.00105
20
-3.98711
11
5
21
-3.9872
0
LINE
8
BLACK
6
CONTINUOUS
10
5
20
-3.9872
11
4.99895
21
-3.98711
0
LINE
8
BLACK
6
CONTINUOUS
10
4.99895
20
-3.98711
11
4.99159
21
-3.98776
0
LINE
8
BLACK
6
CONTINUOUS
10
4.99159
20
-3.98776
11
4.98344
21
-3.98994
0
LINE
8
BLACK
6
CONTINUOUS
10
4.98344
20
-3.98994
11
4.97579
21
-3.99351
0
LINE
8
BLACK
6
CONTINUOUS
10
4.97579
20
-3.99351
11
4.96888
21
-3.99835
0
LINE
8
BLACK
6
CONTINUOUS
10
4.96888
20
-3.99835
11
4.96291
21
-4.00431
0
LINE
8
BLACK
6
CONTINUOUS
10
4.96291
20
-4.00431
11
4.95807
21
-4.01123
0
LINE
8
BLACK
6
CONTINUOUS
10
4.95807
20
-4.01123
11
4.95451
21
-4.01887
0
LINE
8
BLACK
6
CONTINUOUS
10
4.95451
20
-4.01887
11
4.95232
21
-4.02703
0
LINE
8
BLACK
6
CONTINUOUS
10
4.95232
20
-4.02703
11
4.95159
21
-4.03543
0
LINE
8
BLACK
6
CONTINUOUS
10
4.95159
20
-4.03543
11
4.95232
21
-4.04384
0
LINE
8
BLACK
6
CONTINUOUS
10
4.95232
20
-4.04384
11
4.95451
21
-4.05199
0
LINE
8
BLACK
6
CONTINUOUS
10
4.95451
20
-3.95357
11
4.95807
21
-3.96121
0
LINE
8
BLACK
6
CONTINUOUS
10
4.95807
20
-3.96121
11
4.96291
21
-3.96813
0
LINE
8
BLACK
6
CONTINUOUS
10
4.96291
20
-3.96813
11
4.96888
21
-3.97409
0
LINE
8
BLACK
6
CONTINUOUS
10
4.96888
20
-3.97409
11
4.97579
21
-3.97893
0
LINE
8
BLACK
6
CONTINUOUS
10
4.97579
20
-3.97893
11
4.98344
21
-3.9825
0
LINE
8
BLACK
6
CONTINUOUS
10
4.98344
20
-3.9825
11
4.99159
21
-3.98468
0
LINE
8
BLACK
6
CONTINUOUS
10
4.99159
20
-3.98468
11
4.99895
21
-3.98533
0
LINE
8
BLACK
6
CONTINUOUS
10
4.99895
20
-3.98533
11
5
21
-3.98524
0
LINE
8
BLACK
6
CONTINUOUS
10
5
20
-3.98524
11
5.00105
21
-3.98533
0
LINE
8
BLACK
6
CONTINUOUS
10
5.00105
20
-3.98533
11
5.00841
21
-3.98468
0
LINE
8
BLACK
6
CONTINUOUS
10
5.00841
20
-3.98468
11
5.01656
21
-3.9825
0
LINE
8
BLACK
6
CONTINUOUS
10
5.01656
20
-3.9825
11
5.02421
21
-3.97893
0
LINE
8
BLACK
6
CONTINUOUS
10
5.02421
20
-3.97893
11
5.03112
21
-3.97409
0
LINE
8
BLACK
6
CONTINUOUS
10
5.03112
20
-3.97409
11
5.03709
21
-3.96813
0
LINE
8
BLACK
6
CONTINUOUS
10
5.03709
20
-3.96813
11
5.04193
21
-3.96121
0
LINE
8
BLACK
6
CONTINUOUS
10
5.04193
20
-3.96121
11
5.04549
21
-3.95357
0
LINE
8
BLACK
6
CONTINUOUS
10
5.04549
20
-3.95357
11
5.04768
21
-3.94541
0
LINE
8
BLACK
6
CONTINUOUS
10
5.04768
20
-3.94541
11
5.04841
21
-3.93701
0
LINE
8
BLACK
6
CONTINUOUS
10
5.04841
20
-3.93701
11
5.04768
21
-3.9286
0
LINE
8
BLACK
6
CONTINUOUS
10
5.04768
20
-3.9286
11
5.04549
21
-3.92045
0
LINE
8
BLACK
6
CONTINUOUS
10
5.04549
20
-3.92045
11
5.04193
21
-3.9128
0
LINE
8
BLACK
6
CONTINUOUS
10
5.04193
20
-3.9128
11
5.03709
21
-3.90589
0
LINE
8
BLACK
6
CONTINUOUS
10
5.03709
20
-3.90589
11
5.03112
21
-3.89992
0
LINE
8
BLACK
6
CONTINUOUS
10
5.03112
20
-3.89992
11
5.02421
21
-3.89508
0
LINE
8
BLACK
6
CONTINUOUS
10
5.02421
20
-3.89508
11
5.01656
21
-3.89151
0
LINE
8
BLACK
6
CONTINUOUS
10
5.01656
20
-3.89151
11
5.00841
21
-3.88933
0
LINE
8
BLACK
6
CONTINUOUS
10
5.00841
20
-3.88933
11
5
21
-3.8886
0
LINE
8
BLACK
6
CONTINUOUS
10
5
20
-3.8886
11
4.99159
21
-3.88933
0
LINE
8
BLACK
6
CONTINUOUS
10
4.99159
20
-3.88933
11
4.98344
21
-3.89151
0
LINE
8
BLACK
6
CONTINUOUS
10
4.98344
20
-3.89151
11
4.97579
21
-3.89508
0
LINE
8
BLACK
6
CONTINUOUS
10
4.97579
20
-3.89508
11
4.96888
21
-3.89992
0
LINE
8
BLACK
6
CONTINUOUS
10
4.96888
20
-3.89992
11
4.96291
21
-3.90589
0
LINE
8
BLACK
6
CONTINUOUS
10
4.96291
20
-3.90589
11
4.95807
21
-3.9128
0
LINE
8
BLACK
6
CONTINUOUS
10
4.95807
20
-3.9128
11
4.95451
21
-3.92045
0
LINE
8
BLACK
6
CONTINUOUS
10
4.95451
20
-3.92045
11
4.95232
21
-3.9286
0
LINE
8
BLACK
6
CONTINUOUS
10
4.95232
20
-3.9286
11
4.95159
21
-3.93701
0
LINE
8
BLACK
6
CONTINUOUS
10
4.95159
20
-3.93701
11
4.95232
21
-3.94541
0
LINE
8
BLACK
6
CONTINUOUS
10
4.95232
20
-3.94541
11
4.95451
21
-3.95357
0
LINE
8
BLACK
6
CONTINUOUS
10
6.11425
20
-3.34897
11
6.11795
21
-3.34104
0
LINE
8
BLACK
6
CONTINUOUS
10
6.11795
20
-3.34104
11
6.12296
21
-3.33388
0
LINE
8
BLACK
6
CONTINUOUS
10
6.12296
20
-3.33388
11
6.12915
21
-3.32769
0
LINE
8
BLACK
6
CONTINUOUS
10
6.12915
20
-3.32769
11
6.13632
21
-3.32267
0
LINE
8
BLACK
6
CONTINUOUS
10
6.13632
20
-3.32267
11
6.14425
21
-3.31897
0
LINE
8
BLACK
6
CONTINUOUS
10
6.14425
20
-3.31897
11
6.1527
21
-3.31671
0
LINE
8
BLACK
6
CONTINUOUS
10
6.1527
20
-3.31671
11
6.16142
21
-3.31594
0
LINE
8
BLACK
6
CONTINUOUS
10
6.16142
20
-3.31594
11
6.17013
21
-3.31671
0
LINE
8
BLACK
6
CONTINUOUS
10
6.17013
20
-3.31671
11
6.17859
21
-3.31897
0
LINE
8
BLACK
6
CONTINUOUS
10
6.17859
20
-3.31897
11
6.18652
21
-3.32267
0
LINE
8
BLACK
6
CONTINUOUS
10
6.18652
20
-3.32267
11
6.19368
21
-3.32769
0
LINE
8
BLACK
6
CONTINUOUS
10
6.19368
20
-3.32769
11
6.19987
21
-3.33388
0
LINE
8
BLACK
6
CONTINUOUS
10
6.19987
20
-3.33388
11
6.20489
21
-3.34104
0
LINE
8
BLACK
6
CONTINUOUS
10
6.20489
20
-3.34104
11
6.20859
21
-3.34897
0
LINE
8
BLACK
6
CONTINUOUS
10
6.20859
20
-3.34897
11
6.21085
21
-3.35743
0
LINE
8
BLACK
6
CONTINUOUS
10
6.21085
20
-3.35743
11
6.21161
21
-3.36614
0
LINE
8
BLACK
6
CONTINUOUS
10
6.21161
20
-3.36614
11
6.21085
21
-3.37486
0
LINE
8
BLACK
6
CONTINUOUS
10
6.21085
20
-3.37486
11
6.20859
21
-3.38331
0
LINE
8
BLACK
6
CONTINUOUS
10
6.20859
20
-3.38331
11
6.20489
21
-3.39124
0
LINE
8
BLACK
6
CONTINUOUS
10
6.20489
20
-3.39124
11
6.19987
21
-3.39841
0
LINE
8
BLACK
6
CONTINUOUS
10
6.19987
20
-3.39841
11
6.19368
21
-3.40459
0
LINE
8
BLACK
6
CONTINUOUS
10
6.19368
20
-3.40459
11
6.18652
21
-3.40961
0
LINE
8
BLACK
6
CONTINUOUS
10
6.18652
20
-3.40961
11
6.17859
21
-3.41331
0
LINE
8
BLACK
6
CONTINUOUS
10
6.17859
20
-3.41331
11
6.17013
21
-3.41558
0
LINE
8
BLACK
6
CONTINUOUS
10
6.17013
20
-3.41558
11
6.16142
21
-3.41634
0
LINE
8
BLACK
6
CONTINUOUS
10
6.16142
20
-3.41634
11
6.1527
21
-3.41558
0
LINE
8
BLACK
6
CONTINUOUS
10
6.1527
20
-3.41558
11
6.14425
21
-3.41331
0
LINE
8
BLACK
6
CONTINUOUS
10
6.14425
20
-3.41331
11
6.13632
21
-3.40961
0
LINE
8
BLACK
6
CONTINUOUS
10
6.13632
20
-3.40961
11
6.12915
21
-3.40459
0
LINE
8
BLACK
6
CONTINUOUS
10
6.12915
20
-3.40459
11
6.12296
21
-3.39841
0
LINE
8
BLACK
6
CONTINUOUS
10
6.12296
20
-3.39841
11
6.11795
21
-3.39124
0
LINE
8
BLACK
6
CONTINUOUS
10
6.11795
20
-3.39124
11
6.11425
21
-3.38331
0
LINE
8
BLACK
6
CONTINUOUS
10
6.11425
20
-3.38331
11
6.11198
21
-3.37486
0
LINE
8
BLACK
6
CONTINUOUS
10
6.11198
20
-3.37486
11
6.11122
21
-3.36614
0
LINE
8
BLACK
6
CONTINUOUS
10
6.11122
20
-3.36614
11
6.11198
21
-3.35743
0
LINE
8
BLACK
6
CONTINUOUS
10
6.11198
20
-3.35743
11
6.11425
21
-3.34897
0
LINE
8
BLACK
6
CONTINUOUS
10
6.11592
20
-3.3827
11
6.11949
21
-3.39035
0
LINE
8
BLACK
6
CONTINUOUS
10
6.11949
20
-3.39035
11
6.12433
21
-3.39726
0
LINE
8
BLACK
6
CONTINUOUS
10
6.12433
20
-3.39726
11
6.1303
21
-3.40323
0
LINE
8
BLACK
6
CONTINUOUS
10
6.1303
20
-3.40323
11
6.13721
21
-3.40807
0
LINE
8
BLACK
6
CONTINUOUS
10
6.13721
20
-3.40807
11
6.14486
21
-3.41163
0
LINE
8
BLACK
6
CONTINUOUS
10
6.14486
20
-3.41163
11
6.15301
21
-3.41382
0
LINE
8
BLACK
6
CONTINUOUS
10
6.15301
20
-3.41382
11
6.16142
21
-3.41455
0
LINE
8
BLACK
6
CONTINUOUS
10
6.16142
20
-3.41455
11
6.16982
21
-3.41382
0
LINE
8
BLACK
6
CONTINUOUS
10
6.16982
20
-3.41382
11
6.17798
21
-3.41163
0
LINE
8
BLACK
6
CONTINUOUS
10
6.17798
20
-3.41163
11
6.18562
21
-3.40807
0
LINE
8
BLACK
6
CONTINUOUS
10
6.18562
20
-3.40807
11
6.19254
21
-3.40323
0
LINE
8
BLACK
6
CONTINUOUS
10
6.19254
20
-3.40323
11
6.1985
21
-3.39726
0
LINE
8
BLACK
6
CONTINUOUS
10
6.1985
20
-3.39726
11
6.20334
21
-3.39035
0
LINE
8
BLACK
6
CONTINUOUS
10
6.20334
20
-3.39035
11
6.20691
21
-3.3827
0
LINE
8
BLACK
6
CONTINUOUS
10
6.20691
20
-3.3827
11
6.20909
21
-3.37455
0
LINE
8
BLACK
6
CONTINUOUS
10
6.20909
20
-3.37455
11
6.20983
21
-3.36614
0
LINE
8
BLACK
6
CONTINUOUS
10
6.20983
20
-3.36614
11
6.20909
21
-3.35773
0
LINE
8
BLACK
6
CONTINUOUS
10
6.20909
20
-3.35773
11
6.20691
21
-3.34958
0
LINE
8
BLACK
6
CONTINUOUS
10
6.20691
20
-3.34958
11
6.20334
21
-3.34194
0
LINE
8
BLACK
6
CONTINUOUS
10
6.20334
20
-3.34194
11
6.1985
21
-3.33502
0
LINE
8
BLACK
6
CONTINUOUS
10
6.1985
20
-3.33502
11
6.19254
21
-3.32906
0
LINE
8
BLACK
6
CONTINUOUS
10
6.19254
20
-3.32906
11
6.18562
21
-3.32422
0
LINE
8
BLACK
6
CONTINUOUS
10
6.18562
20
-3.32422
11
6.17798
21
-3.32065
0
LINE
8
BLACK
6
CONTINUOUS
10
6.17798
20
-3.32065
11
6.16982
21
-3.31846
0
LINE
8
BLACK
6
CONTINUOUS
10
6.16982
20
-3.31846
11
6.16142
21
-3.31773
0
LINE
8
BLACK
6
CONTINUOUS
10
6.16142
20
-3.31773
11
6.15301
21
-3.31846
0
LINE
8
BLACK
6
CONTINUOUS
10
6.15301
20
-3.31846
11
6.14486
21
-3.32065
0
LINE
8
BLACK
6
CONTINUOUS
10
6.14486
20
-3.32065
11
6.13721
21
-3.32422
0
LINE
8
BLACK
6
CONTINUOUS
10
6.13721
20
-3.32422
11
6.1303
21
-3.32906
0
LINE
8
BLACK
6
CONTINUOUS
10
6.1303
20
-3.32906
11
6.12433
21
-3.33502
0
LINE
8
BLACK
6
CONTINUOUS
10
6.12433
20
-3.33502
11
6.11949
21
-3.34194
0
LINE
8
BLACK
6
CONTINUOUS
10
6.11949
20
-3.34194
11
6.11592
21
-3.34958
0
LINE
8
BLACK
6
CONTINUOUS
10
6.11592
20
-3.34958
11
6.11374
21
-3.35773
0
LINE
8
BLACK
6
CONTINUOUS
10
6.11374
20
-3.35773
11
6.113
21
-3.36614
0
LINE
8
BLACK
6
CONTINUOUS
10
6.113
20
-3.36614
11
6.11374
21
-3.37455
0
LINE
8
BLACK
6
CONTINUOUS
10
6.11374
20
-3.37455
11
6.11592
21
-3.3827
0
LINE
8
BLACK
6
CONTINUOUS
10
5.81897
20
-3.23086
11
5.82267
21
-3.22293
0
LINE
8
BLACK
6
CONTINUOUS
10
5.82267
20
-3.22293
11
5.82769
21
-3.21577
0
LINE
8
BLACK
6
CONTINUOUS
10
5.82769
20
-3.21577
11
5.83388
21
-3.20958
0
LINE
8
BLACK
6
CONTINUOUS
10
5.83388
20
-3.20958
11
5.84104
21
-3.20456
0
LINE
8
BLACK
6
CONTINUOUS
10
5.84104
20
-3.20456
11
5.84897
21
-3.20086
0
LINE
8
BLACK
6
CONTINUOUS
10
5.84897
20
-3.20086
11
5.85743
21
-3.1986
0
LINE
8
BLACK
6
CONTINUOUS
10
5.85743
20
-3.1986
11
5.86614
21
-3.19783
0
LINE
8
BLACK
6
CONTINUOUS
10
5.86614
20
-3.19783
11
5.87486
21
-3.1986
0
LINE
8
BLACK
6
CONTINUOUS
10
5.87486
20
-3.1986
11
5.88331
21
-3.20086
0
LINE
8
BLACK
6
CONTINUOUS
10
5.88331
20
-3.20086
11
5.89124
21
-3.20456
0
LINE
8
BLACK
6
CONTINUOUS
10
5.89124
20
-3.20456
11
5.89841
21
-3.20958
0
LINE
8
BLACK
6
CONTINUOUS
10
5.89841
20
-3.20958
11
5.90459
21
-3.21577
0
LINE
8
BLACK
6
CONTINUOUS
10
5.90459
20
-3.21577
11
5.90961
21
-3.22293
0
LINE
8
BLACK
6
CONTINUOUS
10
5.90961
20
-3.22293
11
5.91331
21
-3.23086
0
LINE
8
BLACK
6
CONTINUOUS
10
5.91331
20
-3.23086
11
5.91558
21
-3.23931
0
LINE
8
BLACK
6
CONTINUOUS
10
5.91558
20
-3.23931
11
5.91634
21
-3.24803
0
LINE
8
BLACK
6
CONTINUOUS
10
5.91634
20
-3.24803
11
5.91558
21
-3.25675
0
LINE
8
BLACK
6
CONTINUOUS
10
5.91558
20
-3.25675
11
5.91331
21
-3.2652
0
LINE
8
BLACK
6
CONTINUOUS
10
5.91331
20
-3.2652
11
5.90961
21
-3.27313
0
LINE
8
BLACK
6
CONTINUOUS
10
5.90961
20
-3.27313
11
5.90459
21
-3.2803
0
LINE
8
BLACK
6
CONTINUOUS
10
5.90459
20
-3.2803
11
5.89841
21
-3.28648
0
LINE
8
BLACK
6
CONTINUOUS
10
5.89841
20
-3.28648
11
5.89124
21
-3.2915
0
LINE
8
BLACK
6
CONTINUOUS
10
5.89124
20
-3.2915
11
5.88331
21
-3.2952
0
LINE
8
BLACK
6
CONTINUOUS
10
5.88331
20
-3.2952
11
5.87486
21
-3.29747
0
LINE
8
BLACK
6
CONTINUOUS
10
5.87486
20
-3.29747
11
5.86614
21
-3.29823
0
LINE
8
BLACK
6
CONTINUOUS
10
5.86614
20
-3.29823
11
5.85743
21
-3.29747
0
LINE
8
BLACK
6
CONTINUOUS
10
5.85743
20
-3.29747
11
5.84897
21
-3.2952
0
LINE
8
BLACK
6
CONTINUOUS
10
5.84897
20
-3.2952
11
5.84104
21
-3.2915
0
LINE
8
BLACK
6
CONTINUOUS
10
5.84104
20
-3.2915
11
5.83388
21
-3.28648
0
LINE
8
BLACK
6
CONTINUOUS
10
5.83388
20
-3.28648
11
5.82769
21
-3.2803
0
LINE
8
BLACK
6
CONTINUOUS
10
5.82769
20
-3.2803
11
5.82267
21
-3.27313
0
LINE
8
BLACK
6
CONTINUOUS
10
5.82267
20
-3.27313
11
5.81897
21
-3.2652
0
LINE
8
BLACK
6
CONTINUOUS
10
5.81897
20
-3.2652
11
5.81671
21
-3.25675
0
LINE
8
BLACK
6
CONTINUOUS
10
5.81671
20
-3.25675
11
5.81594
21
-3.24803
0
LINE
8
BLACK
6
CONTINUOUS
10
5.81594
20
-3.24803
11
5.81671
21
-3.23931
0
LINE
8
BLACK
6
CONTINUOUS
10
5.81671
20
-3.23931
11
5.81897
21
-3.23086
0
LINE
8
BLACK
6
CONTINUOUS
10
5.82065
20
-3.26459
11
5.82422
21
-3.27224
0
LINE
8
BLACK
6
CONTINUOUS
10
5.82422
20
-3.27224
11
5.82906
21
-3.27915
0
LINE
8
BLACK
6
CONTINUOUS
10
5.82906
20
-3.27915
11
5.83502
21
-3.28512
0
LINE
8
BLACK
6
CONTINUOUS
10
5.83502
20
-3.28512
11
5.84194
21
-3.28996
0
LINE
8
BLACK
6
CONTINUOUS
10
5.84194
20
-3.28996
11
5.84958
21
-3.29352
0
LINE
8
BLACK
6
CONTINUOUS
10
5.84958
20
-3.29352
11
5.85773
21
-3.29571
0
LINE
8
BLACK
6
CONTINUOUS
10
5.85773
20
-3.29571
11
5.86614
21
-3.29644
0
LINE
8
BLACK
6
CONTINUOUS
10
5.86614
20
-3.29644
11
5.87455
21
-3.29571
0
LINE
8
BLACK
6
CONTINUOUS
10
5.87455
20
-3.29571
11
5.8827
21
-3.29352
0
LINE
8
BLACK
6
CONTINUOUS
10
5.8827
20
-3.29352
11
5.89035
21
-3.28996
0
LINE
8
BLACK
6
CONTINUOUS
10
5.89035
20
-3.28996
11
5.89726
21
-3.28512
0
LINE
8
BLACK
6
CONTINUOUS
10
5.89726
20
-3.28512
11
5.90323
21
-3.27915
0
LINE
8
BLACK
6
CONTINUOUS
10
5.90323
20
-3.27915
11
5.90807
21
-3.27224
0
LINE
8
BLACK
6
CONTINUOUS
10
5.90807
20
-3.27224
11
5.91163
21
-3.26459
0
LINE
8
BLACK
6
CONTINUOUS
10
5.91163
20
-3.26459
11
5.91382
21
-3.25644
0
LINE
8
BLACK
6
CONTINUOUS
10
5.91382
20
-3.25644
11
5.91455
21
-3.24803
0
LINE
8
BLACK
6
CONTINUOUS
10
5.91455
20
-3.24803
11
5.91382
21
-3.23962
0
LINE
8
BLACK
6
CONTINUOUS
10
5.91382
20
-3.23962
11
5.91163
21
-3.23147
0
LINE
8
BLACK
6
CONTINUOUS
10
5.91163
20
-3.23147
11
5.90807
21
-3.22383
0
LINE
8
BLACK
6
CONTINUOUS
10
5.90807
20
-3.22383
11
5.90323
21
-3.21691
0
LINE
8
BLACK
6
CONTINUOUS
10
5.90323
20
-3.21691
11
5.89726
21
-3.21095
0
LINE
8
BLACK
6
CONTINUOUS
10
5.89726
20
-3.21095
11
5.89035
21
-3.2061
0
LINE
8
BLACK
6
CONTINUOUS
10
5.89035
20
-3.2061
11
5.8827
21
-3.20254
0
LINE
8
BLACK
6
CONTINUOUS
10
5.8827
20
-3.20254
11
5.87455
21
-3.20035
0
LINE
8
BLACK
6
CONTINUOUS
10
5.87455
20
-3.20035
11
5.86614
21
-3.19962
0
LINE
8
BLACK
6
CONTINUOUS
10
5.86614
20
-3.19962
11
5.85773
21
-3.20035
0
LINE
8
BLACK
6
CONTINUOUS
10
5.85773
20
-3.20035
11
5.84958
21
-3.20254
0
LINE
8
BLACK
6
CONTINUOUS
10
5.84958
20
-3.20254
11
5.84194
21
-3.2061
0
LINE
8
BLACK
6
CONTINUOUS
10
5.84194
20
-3.2061
11
5.83502
21
-3.21095
0
LINE
8
BLACK
6
CONTINUOUS
10
5.83502
20
-3.21095
11
5.82906
21
-3.21691
0
LINE
8
BLACK
6
CONTINUOUS
10
5.82906
20
-3.21691
11
5.82422
21
-3.22383
0
LINE
8
BLACK
6
CONTINUOUS
10
5.82422
20
-3.22383
11
5.82065
21
-3.23147
0
LINE
8
BLACK
6
CONTINUOUS
10
5.82065
20
-3.23147
11
5.81846
21
-3.23962
0
LINE
8
BLACK
6
CONTINUOUS
10
5.81846
20
-3.23962
11
5.81773
21
-3.24803
0
LINE
8
BLACK
6
CONTINUOUS
10
5.81773
20
-3.24803
11
5.81846
21
-3.25644
0
LINE
8
BLACK
6
CONTINUOUS
10
5.81846
20
-3.25644
11
5.82065
21
-3.26459
0
LINE
8
BLACK
6
CONTINUOUS
10
4.77567
20
-3.17181
11
4.77936
21
-3.16388
0
LINE
8
BLACK
6
CONTINUOUS
10
4.77936
20
-3.16388
11
4.78438
21
-3.15671
0
LINE
8
BLACK
6
CONTINUOUS
10
4.78438
20
-3.15671
11
4.79057
21
-3.15052
0
LINE
8
BLACK
6
CONTINUOUS
10
4.79057
20
-3.15052
11
4.79774
21
-3.1455
0
LINE
8
BLACK
6
CONTINUOUS
10
4.79774
20
-3.1455
11
4.80567
21
-3.14181
0
LINE
8
BLACK
6
CONTINUOUS
10
4.80567
20
-3.14181
11
4.81412
21
-3.13954
0
LINE
8
BLACK
6
CONTINUOUS
10
4.81412
20
-3.13954
11
4.82283
21
-3.13878
0
LINE
8
BLACK
6
CONTINUOUS
10
4.82283
20
-3.13878
11
4.83155
21
-3.13954
0
LINE
8
BLACK
6
CONTINUOUS
10
4.83155
20
-3.13954
11
4.84
21
-3.14181
0
LINE
8
BLACK
6
CONTINUOUS
10
4.84
20
-3.14181
11
4.84793
21
-3.1455
0
LINE
8
BLACK
6
CONTINUOUS
10
4.84793
20
-3.1455
11
4.8551
21
-3.15052
0
LINE
8
BLACK
6
CONTINUOUS
10
4.8551
20
-3.15052
11
4.86129
21
-3.15671
0
LINE
8
BLACK
6
CONTINUOUS
10
4.86129
20
-3.15671
11
4.86631
21
-3.16388
0
LINE
8
BLACK
6
CONTINUOUS
10
4.86631
20
-3.16388
11
4.87
21
-3.17181
0
LINE
8
BLACK
6
CONTINUOUS
10
4.87
20
-3.17181
11
4.87227
21
-3.18026
0
LINE
8
BLACK
6
CONTINUOUS
10
4.87227
20
-3.18026
11
4.87303
21
-3.18898
0
LINE
8
BLACK
6
CONTINUOUS
10
4.87303
20
-3.18898
11
4.87227
21
-3.19769
0
LINE
8
BLACK
6
CONTINUOUS
10
4.87227
20
-3.19769
11
4.87
21
-3.20614
0
LINE
8
BLACK
6
CONTINUOUS
10
4.87
20
-3.20614
11
4.86631
21
-3.21407
0
LINE
8
BLACK
6
CONTINUOUS
10
4.86631
20
-3.21407
11
4.86129
21
-3.22124
0
LINE
8
BLACK
6
CONTINUOUS
10
4.86129
20
-3.22124
11
4.8551
21
-3.22743
0
LINE
8
BLACK
6
CONTINUOUS
10
4.8551
20
-3.22743
11
4.84793
21
-3.23245
0
LINE
8
BLACK
6
CONTINUOUS
10
4.84793
20
-3.23245
11
4.84
21
-3.23615
0
LINE
8
BLACK
6
CONTINUOUS
10
4.84
20
-3.23615
11
4.83155
21
-3.23841
0
LINE
8
BLACK
6
CONTINUOUS
10
4.83155
20
-3.23841
11
4.82283
21
-3.23917
0
LINE
8
BLACK
6
CONTINUOUS
10
4.82283
20
-3.23917
11
4.81412
21
-3.23841
0
LINE
8
BLACK
6
CONTINUOUS
10
4.81412
20
-3.23841
11
4.80567
21
-3.23615
0
LINE
8
BLACK
6
CONTINUOUS
10
4.80567
20
-3.23615
11
4.79774
21
-3.23245
0
LINE
8
BLACK
6
CONTINUOUS
10
4.79774
20
-3.23245
11
4.79057
21
-3.22743
0
LINE
8
BLACK
6
CONTINUOUS
10
4.79057
20
-3.22743
11
4.78438
21
-3.22124
0
LINE
8
BLACK
6
CONTINUOUS
10
4.78438
20
-3.22124
11
4.77936
21
-3.21407
0
LINE
8
BLACK
6
CONTINUOUS
10
4.77936
20
-3.21407
11
4.77567
21
-3.20614
0
LINE
8
BLACK
6
CONTINUOUS
10
4.77567
20
-3.20614
11
4.7734
21
-3.19769
0
LINE
8
BLACK
6
CONTINUOUS
10
4.7734
20
-3.19769
11
4.77264
21
-3.18898
0
LINE
8
BLACK
6
CONTINUOUS
10
4.77264
20
-3.18898
11
4.7734
21
-3.18026
0
LINE
8
BLACK
6
CONTINUOUS
10
4.7734
20
-3.18026
11
4.77567
21
-3.17181
0
LINE
8
BLACK
6
CONTINUOUS
10
4.77734
20
-3.20553
11
4.78091
21
-3.21318
0
LINE
8
BLACK
6
CONTINUOUS
10
4.78091
20
-3.21318
11
4.78575
21
-3.2201
0
LINE
8
BLACK
6
CONTINUOUS
10
4.78575
20
-3.2201
11
4.79172
21
-3.22606
0
LINE
8
BLACK
6
CONTINUOUS
10
4.79172
20
-3.22606
11
4.79863
21
-3.2309
0
LINE
8
BLACK
6
CONTINUOUS
10
4.79863
20
-3.2309
11
4.80628
21
-3.23447
0
LINE
8
BLACK
6
CONTINUOUS
10
4.80628
20
-3.23447
11
4.81443
21
-3.23665
0
LINE
8
BLACK
6
CONTINUOUS
10
4.81443
20
-3.23665
11
4.82283
21
-3.23739
0
LINE
8
BLACK
6
CONTINUOUS
10
4.82283
20
-3.23739
11
4.83124
21
-3.23665
0
LINE
8
BLACK
6
CONTINUOUS
10
4.83124
20
-3.23665
11
4.83939
21
-3.23447
0
LINE
8
BLACK
6
CONTINUOUS
10
4.83939
20
-3.23447
11
4.84704
21
-3.2309
0
LINE
8
BLACK
6
CONTINUOUS
10
4.84704
20
-3.2309
11
4.85395
21
-3.22606
0
LINE
8
BLACK
6
CONTINUOUS
10
4.85395
20
-3.22606
11
4.85992
21
-3.2201
0
LINE
8
BLACK
6
CONTINUOUS
10
4.85992
20
-3.2201
11
4.86476
21
-3.21318
0
LINE
8
BLACK
6
CONTINUOUS
10
4.86476
20
-3.21318
11
4.86833
21
-3.20553
0
LINE
8
BLACK
6
CONTINUOUS
10
4.86833
20
-3.20553
11
4.87051
21
-3.19738
0
LINE
8
BLACK
6
CONTINUOUS
10
4.87051
20
-3.19738
11
4.87125
21
-3.18898
0
LINE
8
BLACK
6
CONTINUOUS
10
4.87125
20
-3.18898
11
4.87051
21
-3.18057
0
LINE
8
BLACK
6
CONTINUOUS
10
4.87051
20
-3.18057
11
4.86833
21
-3.17242
0
LINE
8
BLACK
6
CONTINUOUS
10
4.86833
20
-3.17242
11
4.86476
21
-3.16477
0
LINE
8
BLACK
6
CONTINUOUS
10
4.86476
20
-3.16477
11
4.85992
21
-3.15786
0
LINE
8
BLACK
6
CONTINUOUS
10
4.85992
20
-3.15786
11
4.85395
21
-3.15189
0
LINE
8
BLACK
6
CONTINUOUS
10
4.85395
20
-3.15189
11
4.84704
21
-3.14705
0
LINE
8
BLACK
6
CONTINUOUS
10
4.84704
20
-3.14705
11
4.83939
21
-3.14348
0
LINE
8
BLACK
6
CONTINUOUS
10
4.83939
20
-3.14348
11
4.83124
21
-3.1413
0
LINE
8
BLACK
6
CONTINUOUS
10
4.83124
20
-3.1413
11
4.82283
21
-3.14056
0
LINE
8
BLACK
6
CONTINUOUS
10
4.82283
20
-3.14056
11
4.81443
21
-3.1413
0
LINE
8
BLACK
6
CONTINUOUS
10
4.81443
20
-3.1413
11
4.80628
21
-3.14348
0
LINE
8
BLACK
6
CONTINUOUS
10
4.80628
20
-3.14348
11
4.79863
21
-3.14705
0
LINE
8
BLACK
6
CONTINUOUS
10
4.79863
20
-3.14705
11
4.79172
21
-3.15189
0
LINE
8
BLACK
6
CONTINUOUS
10
4.79172
20
-3.15189
11
4.78575
21
-3.15786
0
LINE
8
BLACK
6
CONTINUOUS
10
4.78575
20
-3.15786
11
4.78091
21
-3.16477
0
LINE
8
BLACK
6
CONTINUOUS
10
4.78091
20
-3.16477
11
4.77734
21
-3.17242
0
LINE
8
BLACK
6
CONTINUOUS
10
4.77734
20
-3.17242
11
4.77516
21
-3.18057
0
LINE
8
BLACK
6
CONTINUOUS
10
4.77516
20
-3.18057
11
4.77442
21
-3.18898
0
LINE
8
BLACK
6
CONTINUOUS
10
4.77442
20
-3.18898
11
4.77516
21
-3.19738
0
LINE
8
BLACK
6
CONTINUOUS
10
4.77516
20
-3.19738
11
4.77734
21
-3.20553
0
LINE
8
BLACK
6
CONTINUOUS
10
4.63787
20
-3.15212
11
4.64157
21
-3.14419
0
LINE
8
BLACK
6
CONTINUOUS
10
4.64157
20
-3.14419
11
4.64659
21
-3.13703
0
LINE
8
BLACK
6
CONTINUOUS
10
4.64659
20
-3.13703
11
4.65277
21
-3.13084
0
LINE
8
BLACK
6
CONTINUOUS
10
4.65277
20
-3.13084
11
4.65994
21
-3.12582
0
LINE
8
BLACK
6
CONTINUOUS
10
4.65994
20
-3.12582
11
4.66787
21
-3.12212
0
LINE
8
BLACK
6
CONTINUOUS
10
4.66787
20
-3.12212
11
4.67632
21
-3.11986
0
LINE
8
BLACK
6
CONTINUOUS
10
4.67632
20
-3.11986
11
4.68504
21
-3.11909
0
LINE
8
BLACK
6
CONTINUOUS
10
4.68504
20
-3.11909
11
4.69376
21
-3.11986
0
LINE
8
BLACK
6
CONTINUOUS
10
4.69376
20
-3.11986
11
4.70221
21
-3.12212
0
LINE
8
BLACK
6
CONTINUOUS
10
4.70221
20
-3.12212
11
4.71014
21
-3.12582
0
LINE
8
BLACK
6
CONTINUOUS
10
4.71014
20
-3.12582
11
4.71731
21
-3.13084
0
LINE
8
BLACK
6
CONTINUOUS
10
4.71731
20
-3.13084
11
4.72349
21
-3.13703
0
LINE
8
BLACK
6
CONTINUOUS
10
4.72349
20
-3.13703
11
4.72851
21
-3.14419
0
LINE
8
BLACK
6
CONTINUOUS
10
4.72851
20
-3.14419
11
4.73221
21
-3.15212
0
LINE
8
BLACK
6
CONTINUOUS
10
4.73221
20
-3.15212
11
4.73447
21
-3.16057
0
LINE
8
BLACK
6
CONTINUOUS
10
4.73447
20
-3.16057
11
4.73524
21
-3.16929
0
LINE
8
BLACK
6
CONTINUOUS
10
4.73524
20
-3.16929
11
4.73447
21
-3.17801
0
LINE
8
BLACK
6
CONTINUOUS
10
4.73447
20
-3.17801
11
4.73221
21
-3.18646
0
LINE
8
BLACK
6
CONTINUOUS
10
4.73221
20
-3.18646
11
4.72851
21
-3.19439
0
LINE
8
BLACK
6
CONTINUOUS
10
4.72851
20
-3.19439
11
4.72349
21
-3.20156
0
LINE
8
BLACK
6
CONTINUOUS
10
4.72349
20
-3.20156
11
4.71731
21
-3.20774
0
LINE
8
BLACK
6
CONTINUOUS
10
4.71731
20
-3.20774
11
4.71014
21
-3.21276
0
LINE
8
BLACK
6
CONTINUOUS
10
4.71014
20
-3.21276
11
4.70221
21
-3.21646
0
LINE
8
BLACK
6
CONTINUOUS
10
4.70221
20
-3.21646
11
4.69376
21
-3.21873
0
LINE
8
BLACK
6
CONTINUOUS
10
4.69376
20
-3.21873
11
4.68504
21
-3.21949
0
LINE
8
BLACK
6
CONTINUOUS
10
4.68504
20
-3.21949
11
4.67632
21
-3.21873
0
LINE
8
BLACK
6
CONTINUOUS
10
4.67632
20
-3.21873
11
4.66787
21
-3.21646
0
LINE
8
BLACK
6
CONTINUOUS
10
4.66787
20
-3.21646
11
4.65994
21
-3.21276
0
LINE
8
BLACK
6
CONTINUOUS
10
4.65994
20
-3.21276
11
4.65277
21
-3.20774
0
LINE
8
BLACK
6
CONTINUOUS
10
4.65277
20
-3.20774
11
4.64659
21
-3.20156
0
LINE
8
BLACK
6
CONTINUOUS
10
4.64659
20
-3.20156
11
4.64157
21
-3.19439
0
LINE
8
BLACK
6
CONTINUOUS
10
4.64157
20
-3.19439
11
4.63787
21
-3.18646
0
LINE
8
BLACK
6
CONTINUOUS
10
4.63787
20
-3.18646
11
4.63561
21
-3.17801
0
LINE
8
BLACK
6
CONTINUOUS
10
4.63561
20
-3.17801
11
4.63484
21
-3.16929
0
LINE
8
BLACK
6
CONTINUOUS
10
4.63484
20
-3.16929
11
4.63561
21
-3.16057
0
LINE
8
BLACK
6
CONTINUOUS
10
4.63561
20
-3.16057
11
4.63787
21
-3.15212
0
LINE
8
BLACK
6
CONTINUOUS
10
4.63955
20
-3.18585
11
4.64311
21
-3.1935
0
LINE
8
BLACK
6
CONTINUOUS
10
4.64311
20
-3.1935
11
4.64795
21
-3.20041
0
LINE
8
BLACK
6
CONTINUOUS
10
4.64795
20
-3.20041
11
4.65392
21
-3.20638
0
LINE
8
BLACK
6
CONTINUOUS
10
4.65392
20
-3.20638
11
4.66083
21
-3.21122
0
LINE
8
BLACK
6
CONTINUOUS
10
4.66083
20
-3.21122
11
4.66848
21
-3.21478
0
LINE
8
BLACK
6
CONTINUOUS
10
4.66848
20
-3.21478
11
4.67663
21
-3.21697
0
LINE
8
BLACK
6
CONTINUOUS
10
4.67663
20
-3.21697
11
4.68504
21
-3.2177
0
LINE
8
BLACK
6
CONTINUOUS
10
4.68504
20
-3.2177
11
4.69345
21
-3.21697
0
LINE
8
BLACK
6
CONTINUOUS
10
4.69345
20
-3.21697
11
4.7016
21
-3.21478
0
LINE
8
BLACK
6
CONTINUOUS
10
4.7016
20
-3.21478
11
4.70925
21
-3.21122
0
LINE
8
BLACK
6
CONTINUOUS
10
4.70925
20
-3.21122
11
4.71616
21
-3.20638
0
LINE
8
BLACK
6
CONTINUOUS
10
4.71616
20
-3.20638
11
4.72213
21
-3.20041
0
LINE
8
BLACK
6
CONTINUOUS
10
4.72213
20
-3.20041
11
4.72697
21
-3.1935
0
LINE
8
BLACK
6
CONTINUOUS
10
4.72697
20
-3.1935
11
4.73053
21
-3.18585
0
LINE
8
BLACK
6
CONTINUOUS
10
4.73053
20
-3.18585
11
4.73272
21
-3.1777
0
LINE
8
BLACK
6
CONTINUOUS
10
4.73272
20
-3.1777
11
4.73345
21
-3.16929
0
LINE
8
BLACK
6
CONTINUOUS
10
4.73345
20
-3.16929
11
4.73272
21
-3.16088
0
LINE
8
BLACK
6
CONTINUOUS
10
4.73272
20
-3.16088
11
4.73053
21
-3.15273
0
LINE
8
BLACK
6
CONTINUOUS
10
4.73053
20
-3.15273
11
4.72697
21
-3.14509
0
LINE
8
BLACK
6
CONTINUOUS
10
4.72697
20
-3.14509
11
4.72213
21
-3.13817
0
LINE
8
BLACK
6
CONTINUOUS
10
4.72213
20
-3.13817
11
4.71616
21
-3.13221
0
LINE
8
BLACK
6
CONTINUOUS
10
4.71616
20
-3.13221
11
4.70925
21
-3.12736
0
LINE
8
BLACK
6
CONTINUOUS
10
4.70925
20
-3.12736
11
4.7016
21
-3.1238
0
LINE
8
BLACK
6
CONTINUOUS
10
4.7016
20
-3.1238
11
4.69345
21
-3.12161
0
LINE
8
BLACK
6
CONTINUOUS
10
4.69345
20
-3.12161
11
4.68504
21
-3.12088
0
LINE
8
BLACK
6
CONTINUOUS
10
4.68504
20
-3.12088
11
4.67663
21
-3.12161
0
LINE
8
BLACK
6
CONTINUOUS
10
4.67663
20
-3.12161
11
4.66848
21
-3.1238
0
LINE
8
BLACK
6
CONTINUOUS
10
4.66848
20
-3.1238
11
4.66083
21
-3.12736
0
LINE
8
BLACK
6
CONTINUOUS
10
4.66083
20
-3.12736
11
4.65392
21
-3.13221
0
LINE
8
BLACK
6
CONTINUOUS
10
4.65392
20
-3.13221
11
4.64795
21
-3.13817
0
LINE
8
BLACK
6
CONTINUOUS
10
4.64795
20
-3.13817
11
4.64311
21
-3.14509
0
LINE
8
BLACK
6
CONTINUOUS
10
4.64311
20
-3.14509
11
4.63955
21
-3.15273
0
LINE
8
BLACK
6
CONTINUOUS
10
4.63955
20
-3.15273
11
4.63736
21
-3.16088
0
LINE
8
BLACK
6
CONTINUOUS
10
4.63736
20
-3.16088
11
4.63663
21
-3.16929
0
LINE
8
BLACK
6
CONTINUOUS
10
4.63663
20
-3.16929
11
4.63736
21
-3.1777
0
LINE
8
BLACK
6
CONTINUOUS
10
4.63736
20
-3.1777
11
4.63955
21
-3.18585
0
LINE
8
BLACK
6
CONTINUOUS
10
6.11425
20
-3.15212
11
6.11795
21
-3.14419
0
LINE
8
BLACK
6
CONTINUOUS
10
6.11795
20
-3.14419
11
6.12296
21
-3.13703
0
LINE
8
BLACK
6
CONTINUOUS
10
6.12296
20
-3.13703
11
6.12915
21
-3.13084
0
LINE
8
BLACK
6
CONTINUOUS
10
6.12915
20
-3.13084
11
6.13632
21
-3.12582
0
LINE
8
BLACK
6
CONTINUOUS
10
6.13632
20
-3.12582
11
6.14425
21
-3.12212
0
LINE
8
BLACK
6
CONTINUOUS
10
6.14425
20
-3.12212
11
6.1527
21
-3.11986
0
LINE
8
BLACK
6
CONTINUOUS
10
6.1527
20
-3.11986
11
6.16142
21
-3.11909
0
LINE
8
BLACK
6
CONTINUOUS
10
6.16142
20
-3.11909
11
6.17013
21
-3.11986
0
LINE
8
BLACK
6
CONTINUOUS
10
6.17013
20
-3.11986
11
6.17859
21
-3.12212
0
LINE
8
BLACK
6
CONTINUOUS
10
6.17859
20
-3.12212
11
6.18652
21
-3.12582
0
LINE
8
BLACK
6
CONTINUOUS
10
6.18652
20
-3.12582
11
6.19368
21
-3.13084
0
LINE
8
BLACK
6
CONTINUOUS
10
6.19368
20
-3.13084
11
6.19987
21
-3.13703
0
LINE
8
BLACK
6
CONTINUOUS
10
6.19987
20
-3.13703
11
6.20489
21
-3.14419
0
LINE
8
BLACK
6
CONTINUOUS
10
6.20489
20
-3.14419
11
6.20859
21
-3.15212
0
LINE
8
BLACK
6
CONTINUOUS
10
6.20859
20
-3.15212
11
6.21085
21
-3.16057
0
LINE
8
BLACK
6
CONTINUOUS
10
6.21085
20
-3.16057
11
6.21161
21
-3.16929
0
LINE
8
BLACK
6
CONTINUOUS
10
6.21161
20
-3.16929
11
6.21085
21
-3.17801
0
LINE
8
BLACK
6
CONTINUOUS
10
6.21085
20
-3.17801
11
6.20859
21
-3.18646
0
LINE
8
BLACK
6
CONTINUOUS
10
6.20859
20
-3.18646
11
6.20489
21
-3.19439
0
LINE
8
BLACK
6
CONTINUOUS
10
6.20489
20
-3.19439
11
6.19987
21
-3.20156
0
LINE
8
BLACK
6
CONTINUOUS
10
6.19987
20
-3.20156
11
6.19368
21
-3.20774
0
LINE
8
BLACK
6
CONTINUOUS
10
6.19368
20
-3.20774
11
6.18652
21
-3.21276
0
LINE
8
BLACK
6
CONTINUOUS
10
6.18652
20
-3.21276
11
6.17859
21
-3.21646
0
LINE
8
BLACK
6
CONTINUOUS
10
6.17859
20
-3.21646
11
6.17013
21
-3.21873
0
LINE
8
BLACK
6
CONTINUOUS
10
6.17013
20
-3.21873
11
6.16142
21
-3.21949
0
LINE
8
BLACK
6
CONTINUOUS
10
6.16142
20
-3.21949
11
6.1527
21
-3.21873
0
LINE
8
BLACK
6
CONTINUOUS
10
6.1527
20
-3.21873
11
6.14425
21
-3.21646
0
LINE
8
BLACK
6
CONTINUOUS
10
6.14425
20
-3.21646
11
6.13632
21
-3.21276
0
LINE
8
BLACK
6
CONTINUOUS
10
6.13632
20
-3.21276
11
6.12915
21
-3.20774
0
LINE
8
BLACK
6
CONTINUOUS
10
6.12915
20
-3.20774
11
6.12296
21
-3.20156
0
LINE
8
BLACK
6
CONTINUOUS
10
6.12296
20
-3.20156
11
6.11795
21
-3.19439
0
LINE
8
BLACK
6
CONTINUOUS
10
6.11795
20
-3.19439
11
6.11425
21
-3.18646
0
LINE
8
BLACK
6
CONTINUOUS
10
6.11425
20
-3.18646
11
6.11198
21
-3.17801
0
LINE
8
BLACK
6
CONTINUOUS
10
6.11198
20
-3.17801
11
6.11122
21
-3.16929
0
LINE
8
BLACK
6
CONTINUOUS
10
6.11122
20
-3.16929
11
6.11198
21
-3.16057
0
LINE
8
BLACK
6
CONTINUOUS
10
6.11198
20
-3.16057
11
6.11425
21
-3.15212
0
LINE
8
BLACK
6
CONTINUOUS
10
6.11592
20
-3.18585
11
6.11949
21
-3.1935
0
LINE
8
BLACK
6
CONTINUOUS
10
6.11949
20
-3.1935
11
6.12433
21
-3.20041
0
LINE
8
BLACK
6
CONTINUOUS
10
6.12433
20
-3.20041
11
6.1303
21
-3.20638
0
LINE
8
BLACK
6
CONTINUOUS
10
6.1303
20
-3.20638
11
6.13721
21
-3.21122
0
LINE
8
BLACK
6
CONTINUOUS
10
6.13721
20
-3.21122
11
6.14486
21
-3.21478
0
LINE
8
BLACK
6
CONTINUOUS
10
6.14486
20
-3.21478
11
6.15301
21
-3.21697
0
LINE
8
BLACK
6
CONTINUOUS
10
6.15301
20
-3.21697
11
6.16142
21
-3.2177
0
LINE
8
BLACK
6
CONTINUOUS
10
6.16142
20
-3.2177
11
6.16982
21
-3.21697
0
LINE
8
BLACK
6
CONTINUOUS
10
6.16982
20
-3.21697
11
6.17798
21
-3.21478
0
LINE
8
BLACK
6
CONTINUOUS
10
6.17798
20
-3.21478
11
6.18562
21
-3.21122
0
LINE
8
BLACK
6
CONTINUOUS
10
6.18562
20
-3.21122
11
6.19254
21
-3.20638
0
LINE
8
BLACK
6
CONTINUOUS
10
6.19254
20
-3.20638
11
6.1985
21
-3.20041
0
LINE
8
BLACK
6
CONTINUOUS
10
6.1985
20
-3.20041
11
6.20334
21
-3.1935
0
LINE
8
BLACK
6
CONTINUOUS
10
6.20334
20
-3.1935
11
6.20691
21
-3.18585
0
LINE
8
BLACK
6
CONTINUOUS
10
6.20691
20
-3.18585
11
6.20909
21
-3.1777
0
LINE
8
BLACK
6
CONTINUOUS
10
6.20909
20
-3.1777
11
6.20983
21
-3.16929
0
LINE
8
BLACK
6
CONTINUOUS
10
6.20983
20
-3.16929
11
6.20909
21
-3.16088
0
LINE
8
BLACK
6
CONTINUOUS
10
6.20909
20
-3.16088
11
6.20691
21
-3.15273
0
LINE
8
BLACK
6
CONTINUOUS
10
6.20691
20
-3.15273
11
6.20334
21
-3.14509
0
LINE
8
BLACK
6
CONTINUOUS
10
6.20334
20
-3.14509
11
6.1985
21
-3.13817
0
LINE
8
BLACK
6
CONTINUOUS
10
6.1985
20
-3.13817
11
6.19254
21
-3.13221
0
LINE
8
BLACK
6
CONTINUOUS
10
6.19254
20
-3.13221
11
6.18562
21
-3.12736
0
LINE
8
BLACK
6
CONTINUOUS
10
6.18562
20
-3.12736
11
6.17798
21
-3.1238
0
LINE
8
BLACK
6
CONTINUOUS
10
6.17798
20
-3.1238
11
6.16982
21
-3.12161
0
LINE
8
BLACK
6
CONTINUOUS
10
6.16982
20
-3.12161
11
6.16142
21
-3.12088
0
LINE
8
BLACK
6
CONTINUOUS
10
6.16142
20
-3.12088
11
6.15301
21
-3.12161
0
LINE
8
BLACK
6
CONTINUOUS
10
6.15301
20
-3.12161
11
6.14486
21
-3.1238
0
LINE
8
BLACK
6
CONTINUOUS
10
6.14486
20
-3.1238
11
6.13721
21
-3.12736
0
LINE
8
BLACK
6
CONTINUOUS
10
6.13721
20
-3.12736
11
6.1303
21
-3.13221
0
LINE
8
BLACK
6
CONTINUOUS
10
6.1303
20
-3.13221
11
6.12433
21
-3.13817
0
LINE
8
BLACK
6
CONTINUOUS
10
6.12433
20
-3.13817
11
6.11949
21
-3.14509
0
LINE
8
BLACK
6
CONTINUOUS
10
6.11949
20
-3.14509
11
6.11592
21
-3.15273
0
LINE
8
BLACK
6
CONTINUOUS
10
6.11592
20
-3.15273
11
6.11374
21
-3.16088
0
LINE
8
BLACK
6
CONTINUOUS
10
6.11374
20
-3.16088
11
6.113
21
-3.16929
0
LINE
8
BLACK
6
CONTINUOUS
10
6.113
20
-3.16929
11
6.11374
21
-3.1777
0
LINE
8
BLACK
6
CONTINUOUS
10
6.11374
20
-3.1777
11
6.11592
21
-3.18585
0
LINE
8
BLACK
6
CONTINUOUS
10
4.77567
20
-3.0537
11
4.77936
21
-3.04577
0
LINE
8
BLACK
6
CONTINUOUS
10
4.77936
20
-3.04577
11
4.78438
21
-3.0386
0
LINE
8
BLACK
6
CONTINUOUS
10
4.78438
20
-3.0386
11
4.79057
21
-3.03241
0
LINE
8
BLACK
6
CONTINUOUS
10
4.79057
20
-3.03241
11
4.79774
21
-3.02739
0
LINE
8
BLACK
6
CONTINUOUS
10
4.79774
20
-3.02739
11
4.80567
21
-3.0237
0
LINE
8
BLACK
6
CONTINUOUS
10
4.80567
20
-3.0237
11
4.81412
21
-3.02143
0
LINE
8
BLACK
6
CONTINUOUS
10
4.81412
20
-3.02143
11
4.82283
21
-3.02067
0
LINE
8
BLACK
6
CONTINUOUS
10
4.82283
20
-3.02067
11
4.83155
21
-3.02143
0
LINE
8
BLACK
6
CONTINUOUS
10
4.83155
20
-3.02143
11
4.84
21
-3.0237
0
LINE
8
BLACK
6
CONTINUOUS
10
4.84
20
-3.0237
11
4.84793
21
-3.02739
0
LINE
8
BLACK
6
CONTINUOUS
10
4.84793
20
-3.02739
11
4.8551
21
-3.03241
0
LINE
8
BLACK
6
CONTINUOUS
10
4.8551
20
-3.03241
11
4.86129
21
-3.0386
0
LINE
8
BLACK
6
CONTINUOUS
10
4.86129
20
-3.0386
11
4.86631
21
-3.04577
0
LINE
8
BLACK
6
CONTINUOUS
10
4.86631
20
-3.04577
11
4.87
21
-3.0537
0
LINE
8
BLACK
6
CONTINUOUS
10
4.87
20
-3.0537
11
4.87227
21
-3.06215
0
LINE
8
BLACK
6
CONTINUOUS
10
4.87227
20
-3.06215
11
4.87303
21
-3.07087
0
LINE
8
BLACK
6
CONTINUOUS
10
4.87303
20
-3.07087
11
4.87227
21
-3.07958
0
LINE
8
BLACK
6
CONTINUOUS
10
4.87227
20
-3.07958
11
4.87
21
-3.08803
0
LINE
8
BLACK
6
CONTINUOUS
10
4.87
20
-3.08803
11
4.86631
21
-3.09596
0
LINE
8
BLACK
6
CONTINUOUS
10
4.86631
20
-3.09596
11
4.86129
21
-3.10313
0
LINE
8
BLACK
6
CONTINUOUS
10
4.86129
20
-3.10313
11
4.8551
21
-3.10932
0
LINE
8
BLACK
6
CONTINUOUS
10
4.8551
20
-3.10932
11
4.84793
21
-3.11434
0
LINE
8
BLACK
6
CONTINUOUS
10
4.84793
20
-3.11434
11
4.84
21
-3.11804
0
LINE
8
BLACK
6
CONTINUOUS
10
4.84
20
-3.11804
11
4.83155
21
-3.1203
0
LINE
8
BLACK
6
CONTINUOUS
10
4.83155
20
-3.1203
11
4.82283
21
-3.12106
0
LINE
8
BLACK
6
CONTINUOUS
10
4.82283
20
-3.12106
11
4.81412
21
-3.1203
0
LINE
8
BLACK
6
CONTINUOUS
10
4.81412
20
-3.1203
11
4.80567
21
-3.11804
0
LINE
8
BLACK
6
CONTINUOUS
10
4.80567
20
-3.11804
11
4.79774
21
-3.11434
0
LINE
8
BLACK
6
CONTINUOUS
10
4.79774
20
-3.11434
11
4.79057
21
-3.10932
0
LINE
8
BLACK
6
CONTINUOUS
10
4.79057
20
-3.10932
11
4.78438
21
-3.10313
0
LINE
8
BLACK
6
CONTINUOUS
10
4.78438
20
-3.10313
11
4.77936
21
-3.09596
0
LINE
8
BLACK
6
CONTINUOUS
10
4.77936
20
-3.09596
11
4.77567
21
-3.08803
0
LINE
8
BLACK
6
CONTINUOUS
10
4.77567
20
-3.08803
11
4.7734
21
-3.07958
0
LINE
8
BLACK
6
CONTINUOUS
10
4.7734
20
-3.07958
11
4.77264
21
-3.07087
0
LINE
8
BLACK
6
CONTINUOUS
10
4.77264
20
-3.07087
11
4.7734
21
-3.06215
0
LINE
8
BLACK
6
CONTINUOUS
10
4.7734
20
-3.06215
11
4.77567
21
-3.0537
0
LINE
8
BLACK
6
CONTINUOUS
10
4.77734
20
-3.08742
11
4.78091
21
-3.09507
0
LINE
8
BLACK
6
CONTINUOUS
10
4.78091
20
-3.09507
11
4.78575
21
-3.10199
0
LINE
8
BLACK
6
CONTINUOUS
10
4.78575
20
-3.10199
11
4.79172
21
-3.10795
0
LINE
8
BLACK
6
CONTINUOUS
10
4.79172
20
-3.10795
11
4.79863
21
-3.11279
0
LINE
8
BLACK
6
CONTINUOUS
10
4.79863
20
-3.11279
11
4.80628
21
-3.11636
0
LINE
8
BLACK
6
CONTINUOUS
10
4.80628
20
-3.11636
11
4.81443
21
-3.11854
0
LINE
8
BLACK
6
CONTINUOUS
10
4.81443
20
-3.11854
11
4.82283
21
-3.11928
0
LINE
8
BLACK
6
CONTINUOUS
10
4.82283
20
-3.11928
11
4.83124
21
-3.11854
0
LINE
8
BLACK
6
CONTINUOUS
10
4.83124
20
-3.11854
11
4.83939
21
-3.11636
0
LINE
8
BLACK
6
CONTINUOUS
10
4.83939
20
-3.11636
11
4.84704
21
-3.11279
0
LINE
8
BLACK
6
CONTINUOUS
10
4.84704
20
-3.11279
11
4.85395
21
-3.10795
0
LINE
8
BLACK
6
CONTINUOUS
10
4.85395
20
-3.10795
11
4.85992
21
-3.10199
0
LINE
8
BLACK
6
CONTINUOUS
10
4.85992
20
-3.10199
11
4.86476
21
-3.09507
0
LINE
8
BLACK
6
CONTINUOUS
10
4.86476
20
-3.09507
11
4.86833
21
-3.08742
0
LINE
8
BLACK
6
CONTINUOUS
10
4.86833
20
-3.08742
11
4.87051
21
-3.07927
0
LINE
8
BLACK
6
CONTINUOUS
10
4.87051
20
-3.07927
11
4.87125
21
-3.07087
0
LINE
8
BLACK
6
CONTINUOUS
10
4.87125
20
-3.07087
11
4.87051
21
-3.06246
0
LINE
8
BLACK
6
CONTINUOUS
10
4.87051
20
-3.06246
11
4.86833
21
-3.05431
0
LINE
8
BLACK
6
CONTINUOUS
10
4.86833
20
-3.05431
11
4.86476
21
-3.04666
0
LINE
8
BLACK
6
CONTINUOUS
10
4.86476
20
-3.04666
11
4.85992
21
-3.03975
0
LINE
8
BLACK
6
CONTINUOUS
10
4.85992
20
-3.03975
11
4.85395
21
-3.03378
0
LINE
8
BLACK
6
CONTINUOUS
10
4.85395
20
-3.03378
11
4.84704
21
-3.02894
0
LINE
8
BLACK
6
CONTINUOUS
10
4.84704
20
-3.02894
11
4.83939
21
-3.02537
0
LINE
8
BLACK
6
CONTINUOUS
10
4.83939
20
-3.02537
11
4.83124
21
-3.02319
0
LINE
8
BLACK
6
CONTINUOUS
10
4.83124
20
-3.02319
11
4.82283
21
-3.02245
0
LINE
8
BLACK
6
CONTINUOUS
10
4.82283
20
-3.02245
11
4.81443
21
-3.02319
0
LINE
8
BLACK
6
CONTINUOUS
10
4.81443
20
-3.02319
11
4.80628
21
-3.02537
0
LINE
8
BLACK
6
CONTINUOUS
10
4.80628
20
-3.02537
11
4.79863
21
-3.02894
0
LINE
8
BLACK
6
CONTINUOUS
10
4.79863
20
-3.02894
11
4.79172
21
-3.03378
0
LINE
8
BLACK
6
CONTINUOUS
10
4.79172
20
-3.03378
11
4.78575
21
-3.03975
0
LINE
8
BLACK
6
CONTINUOUS
10
4.78575
20
-3.03975
11
4.78091
21
-3.04666
0
LINE
8
BLACK
6
CONTINUOUS
10
4.78091
20
-3.04666
11
4.77734
21
-3.05431
0
LINE
8
BLACK
6
CONTINUOUS
10
4.77734
20
-3.05431
11
4.77516
21
-3.06246
0
LINE
8
BLACK
6
CONTINUOUS
10
4.77516
20
-3.06246
11
4.77442
21
-3.07087
0
LINE
8
BLACK
6
CONTINUOUS
10
4.77442
20
-3.07087
11
4.77516
21
-3.07927
0
LINE
8
BLACK
6
CONTINUOUS
10
4.77516
20
-3.07927
11
4.77734
21
-3.08742
0
LINE
8
BLACK
6
CONTINUOUS
10
5.81897
20
-3.03401
11
5.82267
21
-3.02608
0
LINE
8
BLACK
6
CONTINUOUS
10
5.82267
20
-3.02608
11
5.82769
21
-3.01892
0
LINE
8
BLACK
6
CONTINUOUS
10
5.82769
20
-3.01892
11
5.83388
21
-3.01273
0
LINE
8
BLACK
6
CONTINUOUS
10
5.83388
20
-3.01273
11
5.84104
21
-3.00771
0
LINE
8
BLACK
6
CONTINUOUS
10
5.84104
20
-3.00771
11
5.84897
21
-3.00401
0
LINE
8
BLACK
6
CONTINUOUS
10
5.84897
20
-3.00401
11
5.85743
21
-3.00175
0
LINE
8
BLACK
6
CONTINUOUS
10
5.85743
20
-3.00175
11
5.86614
21
-3.00098
0
LINE
8
BLACK
6
CONTINUOUS
10
5.86614
20
-3.00098
11
5.87486
21
-3.00175
0
LINE
8
BLACK
6
CONTINUOUS
10
5.87486
20
-3.00175
11
5.88331
21
-3.00401
0
LINE
8
BLACK
6
CONTINUOUS
10
5.88331
20
-3.00401
11
5.89124
21
-3.00771
0
LINE
8
BLACK
6
CONTINUOUS
10
5.89124
20
-3.00771
11
5.89841
21
-3.01273
0
LINE
8
BLACK
6
CONTINUOUS
10
5.89841
20
-3.01273
11
5.90459
21
-3.01892
0
LINE
8
BLACK
6
CONTINUOUS
10
5.90459
20
-3.01892
11
5.90961
21
-3.02608
0
LINE
8
BLACK
6
CONTINUOUS
10
5.90961
20
-3.02608
11
5.91331
21
-3.03401
0
LINE
8
BLACK
6
CONTINUOUS
10
5.91331
20
-3.03401
11
5.91558
21
-3.04246
0
LINE
8
BLACK
6
CONTINUOUS
10
5.91558
20
-3.04246
11
5.91634
21
-3.05118
0
LINE
8
BLACK
6
CONTINUOUS
10
5.91634
20
-3.05118
11
5.91558
21
-3.0599
0
LINE
8
BLACK
6
CONTINUOUS
10
5.91558
20
-3.0599
11
5.91331
21
-3.06835
0
LINE
8
BLACK
6
CONTINUOUS
10
5.91331
20
-3.06835
11
5.90961
21
-3.07628
0
LINE
8
BLACK
6
CONTINUOUS
10
5.90961
20
-3.07628
11
5.90459
21
-3.08345
0
LINE
8
BLACK
6
CONTINUOUS
10
5.90459
20
-3.08345
11
5.89841
21
-3.08963
0
LINE
8
BLACK
6
CONTINUOUS
10
5.89841
20
-3.08963
11
5.89124
21
-3.09465
0
LINE
8
BLACK
6
CONTINUOUS
10
5.89124
20
-3.09465
11
5.88331
21
-3.09835
0
LINE
8
BLACK
6
CONTINUOUS
10
5.88331
20
-3.09835
11
5.87486
21
-3.10062
0
LINE
8
BLACK
6
CONTINUOUS
10
5.87486
20
-3.10062
11
5.86614
21
-3.10138
0
LINE
8
BLACK
6
CONTINUOUS
10
5.86614
20
-3.10138
11
5.85743
21
-3.10062
0
LINE
8
BLACK
6
CONTINUOUS
10
5.85743
20
-3.10062
11
5.84897
21
-3.09835
0
LINE
8
BLACK
6
CONTINUOUS
10
5.84897
20
-3.09835
11
5.84104
21
-3.09465
0
LINE
8
BLACK
6
CONTINUOUS
10
5.84104
20
-3.09465
11
5.83388
21
-3.08963
0
LINE
8
BLACK
6
CONTINUOUS
10
5.83388
20
-3.08963
11
5.82769
21
-3.08345
0
LINE
8
BLACK
6
CONTINUOUS
10
5.82769
20
-3.08345
11
5.82267
21
-3.07628
0
LINE
8
BLACK
6
CONTINUOUS
10
5.82267
20
-3.07628
11
5.81897
21
-3.06835
0
LINE
8
BLACK
6
CONTINUOUS
10
5.81897
20
-3.06835
11
5.81671
21
-3.0599
0
LINE
8
BLACK
6
CONTINUOUS
10
5.81671
20
-3.0599
11
5.81594
21
-3.05118
0
LINE
8
BLACK
6
CONTINUOUS
10
5.81594
20
-3.05118
11
5.81671
21
-3.04246
0
LINE
8
BLACK
6
CONTINUOUS
10
5.81671
20
-3.04246
11
5.81897
21
-3.03401
0
LINE
8
BLACK
6
CONTINUOUS
10
5.82065
20
-3.06774
11
5.82422
21
-3.07539
0
LINE
8
BLACK
6
CONTINUOUS
10
5.82422
20
-3.07539
11
5.82906
21
-3.0823
0
LINE
8
BLACK
6
CONTINUOUS
10
5.82906
20
-3.0823
11
5.83502
21
-3.08827
0
LINE
8
BLACK
6
CONTINUOUS
10
5.83502
20
-3.08827
11
5.84194
21
-3.09311
0
LINE
8
BLACK
6
CONTINUOUS
10
5.84194
20
-3.09311
11
5.84958
21
-3.09667
0
LINE
8
BLACK
6
CONTINUOUS
10
5.84958
20
-3.09667
11
5.85773
21
-3.09886
0
LINE
8
BLACK
6
CONTINUOUS
10
5.85773
20
-3.09886
11
5.86614
21
-3.09959
0
LINE
8
BLACK
6
CONTINUOUS
10
5.86614
20
-3.09959
11
5.87455
21
-3.09886
0
LINE
8
BLACK
6
CONTINUOUS
10
5.87455
20
-3.09886
11
5.8827
21
-3.09667
0
LINE
8
BLACK
6
CONTINUOUS
10
5.8827
20
-3.09667
11
5.89035
21
-3.09311
0
LINE
8
BLACK
6
CONTINUOUS
10
5.89035
20
-3.09311
11
5.89726
21
-3.08827
0
LINE
8
BLACK
6
CONTINUOUS
10
5.89726
20
-3.08827
11
5.90323
21
-3.0823
0
LINE
8
BLACK
6
CONTINUOUS
10
5.90323
20
-3.0823
11
5.90807
21
-3.07539
0
LINE
8
BLACK
6
CONTINUOUS
10
5.90807
20
-3.07539
11
5.91163
21
-3.06774
0
LINE
8
BLACK
6
CONTINUOUS
10
5.91163
20
-3.06774
11
5.91382
21
-3.05959
0
LINE
8
BLACK
6
CONTINUOUS
10
5.91382
20
-3.05959
11
5.91455
21
-3.05118
0
LINE
8
BLACK
6
CONTINUOUS
10
5.91455
20
-3.05118
11
5.91382
21
-3.04277
0
LINE
8
BLACK
6
CONTINUOUS
10
5.91382
20
-3.04277
11
5.91163
21
-3.03462
0
LINE
8
BLACK
6
CONTINUOUS
10
5.91163
20
-3.03462
11
5.90807
21
-3.02697
0
LINE
8
BLACK
6
CONTINUOUS
10
5.90807
20
-3.02697
11
5.90323
21
-3.02006
0
LINE
8
BLACK
6
CONTINUOUS
10
5.90323
20
-3.02006
11
5.89726
21
-3.01409
0
LINE
8
BLACK
6
CONTINUOUS
10
5.89726
20
-3.01409
11
5.89035
21
-3.00925
0
LINE
8
BLACK
6
CONTINUOUS
10
5.89035
20
-3.00925
11
5.8827
21
-3.00569
0
LINE
8
BLACK
6
CONTINUOUS
10
5.8827
20
-3.00569
11
5.87455
21
-3.0035
0
LINE
8
BLACK
6
CONTINUOUS
10
5.87455
20
-3.0035
11
5.86614
21
-3.00277
0
LINE
8
BLACK
6
CONTINUOUS
10
5.86614
20
-3.00277
11
5.85773
21
-3.0035
0
LINE
8
BLACK
6
CONTINUOUS
10
5.85773
20
-3.0035
11
5.84958
21
-3.00569
0
LINE
8
BLACK
6
CONTINUOUS
10
5.84958
20
-3.00569
11
5.84194
21
-3.00925
0
LINE
8
BLACK
6
CONTINUOUS
10
5.84194
20
-3.00925
11
5.83502
21
-3.01409
0
LINE
8
BLACK
6
CONTINUOUS
10
5.83502
20
-3.01409
11
5.82906
21
-3.02006
0
LINE
8
BLACK
6
CONTINUOUS
10
5.82906
20
-3.02006
11
5.82422
21
-3.02697
0
LINE
8
BLACK
6
CONTINUOUS
10
5.82422
20
-3.02697
11
5.82065
21
-3.03462
0
LINE
8
BLACK
6
CONTINUOUS
10
5.82065
20
-3.03462
11
5.81846
21
-3.04277
0
LINE
8
BLACK
6
CONTINUOUS
10
5.81846
20
-3.04277
11
5.81773
21
-3.05118
0
LINE
8
BLACK
6
CONTINUOUS
10
5.81773
20
-3.05118
11
5.81846
21
-3.05959
0
LINE
8
BLACK
6
CONTINUOUS
10
5.81846
20
-3.05959
11
5.82065
21
-3.06774
0
LINE
8
BLACK
6
CONTINUOUS
10
4.63787
20
-2.95527
11
4.64157
21
-2.94734
0
LINE
8
BLACK
6
CONTINUOUS
10
4.64157
20
-2.94734
11
4.64659
21
-2.94018
0
LINE
8
BLACK
6
CONTINUOUS
10
4.64659
20
-2.94018
11
4.65277
21
-2.93399
0
LINE
8
BLACK
6
CONTINUOUS
10
4.65277
20
-2.93399
11
4.65994
21
-2.92897
0
LINE
8
BLACK
6
CONTINUOUS
10
4.65994
20
-2.92897
11
4.66787
21
-2.92527
0
LINE
8
BLACK
6
CONTINUOUS
10
4.66787
20
-2.92527
11
4.67632
21
-2.92301
0
LINE
8
BLACK
6
CONTINUOUS
10
4.67632
20
-2.92301
11
4.68504
21
-2.92224
0
LINE
8
BLACK
6
CONTINUOUS
10
4.68504
20
-2.92224
11
4.69376
21
-2.92301
0
LINE
8
BLACK
6
CONTINUOUS
10
4.69376
20
-2.92301
11
4.70221
21
-2.92527
0
LINE
8
BLACK
6
CONTINUOUS
10
4.70221
20
-2.92527
11
4.71014
21
-2.92897
0
LINE
8
BLACK
6
CONTINUOUS
10
4.71014
20
-2.92897
11
4.71731
21
-2.93399
0
LINE
8
BLACK
6
CONTINUOUS
10
4.71731
20
-2.93399
11
4.72349
21
-2.94018
0
LINE
8
BLACK
6
CONTINUOUS
10
4.72349
20
-2.94018
11
4.72851
21
-2.94734
0
LINE
8
BLACK
6
CONTINUOUS
10
4.72851
20
-2.94734
11
4.73221
21
-2.95527
0
LINE
8
BLACK
6
CONTINUOUS
10
4.73221
20
-2.95527
11
4.73447
21
-2.96372
0
LINE
8
BLACK
6
CONTINUOUS
10
4.73447
20
-2.96372
11
4.73524
21
-2.97244
0
LINE
8
BLACK
6
CONTINUOUS
10
4.73524
20
-2.97244
11
4.73447
21
-2.98116
0
LINE
8
BLACK
6
CONTINUOUS
10
4.73447
20
-2.98116
11
4.73221
21
-2.98961
0
LINE
8
BLACK
6
CONTINUOUS
10
4.73221
20
-2.98961
11
4.72851
21
-2.99754
0
LINE
8
BLACK
6
CONTINUOUS
10
4.72851
20
-2.99754
11
4.72349
21
-3.00471
0
LINE
8
BLACK
6
CONTINUOUS
10
4.72349
20
-3.00471
11
4.71731
21
-3.01089
0
LINE
8
BLACK
6
CONTINUOUS
10
4.71731
20
-3.01089
11
4.71014
21
-3.01591
0
LINE
8
BLACK
6
CONTINUOUS
10
4.71014
20
-3.01591
11
4.70221
21
-3.01961
0
LINE
8
BLACK
6
CONTINUOUS
10
4.70221
20
-3.01961
11
4.69376
21
-3.02188
0
LINE
8
BLACK
6
CONTINUOUS
10
4.69376
20
-3.02188
11
4.68504
21
-3.02264
0
LINE
8
BLACK
6
CONTINUOUS
10
4.68504
20
-3.02264
11
4.67632
21
-3.02188
0
LINE
8
BLACK
6
CONTINUOUS
10
4.67632
20
-3.02188
11
4.66787
21
-3.01961
0
LINE
8
BLACK
6
CONTINUOUS
10
4.66787
20
-3.01961
11
4.65994
21
-3.01591
0
LINE
8
BLACK
6
CONTINUOUS
10
4.65994
20
-3.01591
11
4.65277
21
-3.01089
0
LINE
8
BLACK
6
CONTINUOUS
10
4.65277
20
-3.01089
11
4.64659
21
-3.00471
0
LINE
8
BLACK
6
CONTINUOUS
10
4.64659
20
-3.00471
11
4.64157
21
-2.99754
0
LINE
8
BLACK
6
CONTINUOUS
10
4.64157
20
-2.99754
11
4.63787
21
-2.98961
0
LINE
8
BLACK
6
CONTINUOUS
10
4.63787
20
-2.98961
11
4.63561
21
-2.98116
0
LINE
8
BLACK
6
CONTINUOUS
10
4.63561
20
-2.98116
11
4.63484
21
-2.97244
0
LINE
8
BLACK
6
CONTINUOUS
10
4.63484
20
-2.97244
11
4.63561
21
-2.96372
0
LINE
8
BLACK
6
CONTINUOUS
10
4.63561
20
-2.96372
11
4.63787
21
-2.95527
0
LINE
8
BLACK
6
CONTINUOUS
10
4.63955
20
-2.989
11
4.64311
21
-2.99665
0
LINE
8
BLACK
6
CONTINUOUS
10
4.64311
20
-2.99665
11
4.64795
21
-3.00356
0
LINE
8
BLACK
6
CONTINUOUS
10
4.64795
20
-3.00356
11
4.65392
21
-3.00953
0
LINE
8
BLACK
6
CONTINUOUS
10
4.65392
20
-3.00953
11
4.66083
21
-3.01437
0
LINE
8
BLACK
6
CONTINUOUS
10
4.66083
20
-3.01437
11
4.66848
21
-3.01793
0
LINE
8
BLACK
6
CONTINUOUS
10
4.66848
20
-3.01793
11
4.67663
21
-3.02012
0
LINE
8
BLACK
6
CONTINUOUS
10
4.67663
20
-3.02012
11
4.68504
21
-3.02085
0
LINE
8
BLACK
6
CONTINUOUS
10
4.68504
20
-3.02085
11
4.69345
21
-3.02012
0
LINE
8
BLACK
6
CONTINUOUS
10
4.69345
20
-3.02012
11
4.7016
21
-3.01793
0
LINE
8
BLACK
6
CONTINUOUS
10
4.7016
20
-3.01793
11
4.70925
21
-3.01437
0
LINE
8
BLACK
6
CONTINUOUS
10
4.70925
20
-3.01437
11
4.71616
21
-3.00953
0
LINE
8
BLACK
6
CONTINUOUS
10
4.71616
20
-3.00953
11
4.72213
21
-3.00356
0
LINE
8
BLACK
6
CONTINUOUS
10
4.72213
20
-3.00356
11
4.72697
21
-2.99665
0
LINE
8
BLACK
6
CONTINUOUS
10
4.72697
20
-2.99665
11
4.73053
21
-2.989
0
LINE
8
BLACK
6
CONTINUOUS
10
4.73053
20
-2.989
11
4.73272
21
-2.98085
0
LINE
8
BLACK
6
CONTINUOUS
10
4.73272
20
-2.98085
11
4.73345
21
-2.97244
0
LINE
8
BLACK
6
CONTINUOUS
10
4.73345
20
-2.97244
11
4.73272
21
-2.96403
0
LINE
8
BLACK
6
CONTINUOUS
10
4.73272
20
-2.96403
11
4.73053
21
-2.95588
0
LINE
8
BLACK
6
CONTINUOUS
10
4.73053
20
-2.95588
11
4.72697
21
-2.94823
0
LINE
8
BLACK
6
CONTINUOUS
10
4.72697
20
-2.94823
11
4.72213
21
-2.94132
0
LINE
8
BLACK
6
CONTINUOUS
10
4.72213
20
-2.94132
11
4.71616
21
-2.93535
0
LINE
8
BLACK
6
CONTINUOUS
10
4.71616
20
-2.93535
11
4.70925
21
-2.93051
0
LINE
8
BLACK
6
CONTINUOUS
10
4.70925
20
-2.93051
11
4.7016
21
-2.92695
0
LINE
8
BLACK
6
CONTINUOUS
10
4.7016
20
-2.92695
11
4.69345
21
-2.92476
0
LINE
8
BLACK
6
CONTINUOUS
10
4.69345
20
-2.92476
11
4.68504
21
-2.92403
0
LINE
8
BLACK
6
CONTINUOUS
10
4.68504
20
-2.92403
11
4.67663
21
-2.92476
0
LINE
8
BLACK
6
CONTINUOUS
10
4.67663
20
-2.92476
11
4.66848
21
-2.92695
0
LINE
8
BLACK
6
CONTINUOUS
10
4.66848
20
-2.92695
11
4.66083
21
-2.93051
0
LINE
8
BLACK
6
CONTINUOUS
10
4.66083
20
-2.93051
11
4.65392
21
-2.93535
0
LINE
8
BLACK
6
CONTINUOUS
10
4.65392
20
-2.93535
11
4.64795
21
-2.94132
0
LINE
8
BLACK
6
CONTINUOUS
10
4.64795
20
-2.94132
11
4.64311
21
-2.94823
0
LINE
8
BLACK
6
CONTINUOUS
10
4.64311
20
-2.94823
11
4.63955
21
-2.95588
0
LINE
8
BLACK
6
CONTINUOUS
10
4.63955
20
-2.95588
11
4.63736
21
-2.96403
0
LINE
8
BLACK
6
CONTINUOUS
10
4.63736
20
-2.96403
11
4.63663
21
-2.97244
0
LINE
8
BLACK
6
CONTINUOUS
10
4.63663
20
-2.97244
11
4.63736
21
-2.98085
0
LINE
8
BLACK
6
CONTINUOUS
10
4.63736
20
-2.98085
11
4.63955
21
-2.989
0
LINE
8
BLACK
6
CONTINUOUS
10
4.77567
20
-2.94543
11
4.77936
21
-2.9375
0
LINE
8
BLACK
6
CONTINUOUS
10
4.77936
20
-2.9375
11
4.78438
21
-2.93033
0
LINE
8
BLACK
6
CONTINUOUS
10
4.78438
20
-2.93033
11
4.79057
21
-2.92415
0
LINE
8
BLACK
6
CONTINUOUS
10
4.79057
20
-2.92415
11
4.79774
21
-2.91913
0
LINE
8
BLACK
6
CONTINUOUS
10
4.79774
20
-2.91913
11
4.80567
21
-2.91543
0
LINE
8
BLACK
6
CONTINUOUS
10
4.80567
20
-2.91543
11
4.81412
21
-2.91316
0
LINE
8
BLACK
6
CONTINUOUS
10
4.81412
20
-2.91316
11
4.82283
21
-2.9124
0
LINE
8
BLACK
6
CONTINUOUS
10
4.82283
20
-2.9124
11
4.83155
21
-2.91316
0
LINE
8
BLACK
6
CONTINUOUS
10
4.83155
20
-2.91316
11
4.84
21
-2.91543
0
LINE
8
BLACK
6
CONTINUOUS
10
4.84
20
-2.91543
11
4.84793
21
-2.91913
0
LINE
8
BLACK
6
CONTINUOUS
10
4.84793
20
-2.91913
11
4.8551
21
-2.92415
0
LINE
8
BLACK
6
CONTINUOUS
10
4.8551
20
-2.92415
11
4.86129
21
-2.93033
0
LINE
8
BLACK
6
CONTINUOUS
10
4.86129
20
-2.93033
11
4.86631
21
-2.9375
0
LINE
8
BLACK
6
CONTINUOUS
10
4.86631
20
-2.9375
11
4.87
21
-2.94543
0
LINE
8
BLACK
6
CONTINUOUS
10
4.87
20
-2.94543
11
4.87227
21
-2.95388
0
LINE
8
BLACK
6
CONTINUOUS
10
4.87227
20
-2.95388
11
4.87303
21
-2.9626
0
LINE
8
BLACK
6
CONTINUOUS
10
4.87303
20
-2.9626
11
4.87227
21
-2.97132
0
LINE
8
BLACK
6
CONTINUOUS
10
4.87227
20
-2.97132
11
4.87
21
-2.97977
0
LINE
8
BLACK
6
CONTINUOUS
10
4.87
20
-2.97977
11
4.86631
21
-2.9877
0
LINE
8
BLACK
6
CONTINUOUS
10
4.86631
20
-2.9877
11
4.86129
21
-2.99486
0
LINE
8
BLACK
6
CONTINUOUS
10
4.86129
20
-2.99486
11
4.8551
21
-3.00105
0
LINE
8
BLACK
6
CONTINUOUS
10
4.8551
20
-3.00105
11
4.84793
21
-3.00607
0
LINE
8
BLACK
6
CONTINUOUS
10
4.84793
20
-3.00607
11
4.84
21
-3.00977
0
LINE
8
BLACK
6
CONTINUOUS
10
4.84
20
-3.00977
11
4.83155
21
-3.01203
0
LINE
8
BLACK
6
CONTINUOUS
10
4.83155
20
-3.01203
11
4.82283
21
-3.0128
0
LINE
8
BLACK
6
CONTINUOUS
10
4.82283
20
-3.0128
11
4.81412
21
-3.01203
0
LINE
8
BLACK
6
CONTINUOUS
10
4.81412
20
-3.01203
11
4.80567
21
-3.00977
0
LINE
8
BLACK
6
CONTINUOUS
10
4.80567
20
-3.00977
11
4.79774
21
-3.00607
0
LINE
8
BLACK
6
CONTINUOUS
10
4.79774
20
-3.00607
11
4.79057
21
-3.00105
0
LINE
8
BLACK
6
CONTINUOUS
10
4.79057
20
-3.00105
11
4.78438
21
-2.99486
0
LINE
8
BLACK
6
CONTINUOUS
10
4.78438
20
-2.99486
11
4.77936
21
-2.9877
0
LINE
8
BLACK
6
CONTINUOUS
10
4.77936
20
-2.9877
11
4.77567
21
-2.97977
0
LINE
8
BLACK
6
CONTINUOUS
10
4.77567
20
-2.97977
11
4.7734
21
-2.97132
0
LINE
8
BLACK
6
CONTINUOUS
10
4.7734
20
-2.97132
11
4.77264
21
-2.9626
0
LINE
8
BLACK
6
CONTINUOUS
10
4.77264
20
-2.9626
11
4.7734
21
-2.95388
0
LINE
8
BLACK
6
CONTINUOUS
10
4.7734
20
-2.95388
11
4.77567
21
-2.94543
0
LINE
8
BLACK
6
CONTINUOUS
10
4.77734
20
-2.97916
11
4.78091
21
-2.9868
0
LINE
8
BLACK
6
CONTINUOUS
10
4.78091
20
-2.9868
11
4.78575
21
-2.99372
0
LINE
8
BLACK
6
CONTINUOUS
10
4.78575
20
-2.99372
11
4.79172
21
-2.99968
0
LINE
8
BLACK
6
CONTINUOUS
10
4.79172
20
-2.99968
11
4.79863
21
-3.00452
0
LINE
8
BLACK
6
CONTINUOUS
10
4.79863
20
-3.00452
11
4.80628
21
-3.00809
0
LINE
8
BLACK
6
CONTINUOUS
10
4.80628
20
-3.00809
11
4.81443
21
-3.01028
0
LINE
8
BLACK
6
CONTINUOUS
10
4.81443
20
-3.01028
11
4.82283
21
-3.01101
0
LINE
8
BLACK
6
CONTINUOUS
10
4.82283
20
-3.01101
11
4.83124
21
-3.01028
0
LINE
8
BLACK
6
CONTINUOUS
10
4.83124
20
-3.01028
11
4.83939
21
-3.00809
0
LINE
8
BLACK
6
CONTINUOUS
10
4.83939
20
-3.00809
11
4.84704
21
-3.00452
0
LINE
8
BLACK
6
CONTINUOUS
10
4.84704
20
-3.00452
11
4.85395
21
-2.99968
0
LINE
8
BLACK
6
CONTINUOUS
10
4.85395
20
-2.99968
11
4.85992
21
-2.99372
0
LINE
8
BLACK
6
CONTINUOUS
10
4.85992
20
-2.99372
11
4.86476
21
-2.9868
0
LINE
8
BLACK
6
CONTINUOUS
10
4.86476
20
-2.9868
11
4.86833
21
-2.97916
0
LINE
8
BLACK
6
CONTINUOUS
10
4.86833
20
-2.97916
11
4.87051
21
-2.97101
0
LINE
8
BLACK
6
CONTINUOUS
10
4.87051
20
-2.97101
11
4.87125
21
-2.9626
0
LINE
8
BLACK
6
CONTINUOUS
10
4.87125
20
-2.9626
11
4.87051
21
-2.95419
0
LINE
8
BLACK
6
CONTINUOUS
10
4.87051
20
-2.95419
11
4.86833
21
-2.94604
0
LINE
8
BLACK
6
CONTINUOUS
10
4.86833
20
-2.94604
11
4.86476
21
-2.93839
0
LINE
8
BLACK
6
CONTINUOUS
10
4.86476
20
-2.93839
11
4.85992
21
-2.93148
0
LINE
8
BLACK
6
CONTINUOUS
10
4.85992
20
-2.93148
11
4.85395
21
-2.92551
0
LINE
8
BLACK
6
CONTINUOUS
10
4.85395
20
-2.92551
11
4.84704
21
-2.92067
0
LINE
8
BLACK
6
CONTINUOUS
10
4.84704
20
-2.92067
11
4.83939
21
-2.91711
0
LINE
8
BLACK
6
CONTINUOUS
10
4.83939
20
-2.91711
11
4.83124
21
-2.91492
0
LINE
8
BLACK
6
CONTINUOUS
10
4.83124
20
-2.91492
11
4.82283
21
-2.91419
0
LINE
8
BLACK
6
CONTINUOUS
10
4.82283
20
-2.91419
11
4.81443
21
-2.91492
0
LINE
8
BLACK
6
CONTINUOUS
10
4.81443
20
-2.91492
11
4.80628
21
-2.91711
0
LINE
8
BLACK
6
CONTINUOUS
10
4.80628
20
-2.91711
11
4.79863
21
-2.92067
0
LINE
8
BLACK
6
CONTINUOUS
10
4.79863
20
-2.92067
11
4.79172
21
-2.92551
0
LINE
8
BLACK
6
CONTINUOUS
10
4.79172
20
-2.92551
11
4.78575
21
-2.93148
0
LINE
8
BLACK
6
CONTINUOUS
10
4.78575
20
-2.93148
11
4.78091
21
-2.93839
0
LINE
8
BLACK
6
CONTINUOUS
10
4.78091
20
-2.93839
11
4.77734
21
-2.94604
0
LINE
8
BLACK
6
CONTINUOUS
10
4.77734
20
-2.94604
11
4.77516
21
-2.95419
0
LINE
8
BLACK
6
CONTINUOUS
10
4.77516
20
-2.95419
11
4.77442
21
-2.9626
0
LINE
8
BLACK
6
CONTINUOUS
10
4.77442
20
-2.9626
11
4.77516
21
-2.97101
0
LINE
8
BLACK
6
CONTINUOUS
10
4.77516
20
-2.97101
11
4.77734
21
-2.97916
0
LINE
8
BLACK
6
CONTINUOUS
10
4.91346
20
-2.94543
11
4.91716
21
-2.9375
0
LINE
8
BLACK
6
CONTINUOUS
10
4.91716
20
-2.9375
11
4.92218
21
-2.93033
0
LINE
8
BLACK
6
CONTINUOUS
10
4.92218
20
-2.93033
11
4.92836
21
-2.92415
0
LINE
8
BLACK
6
CONTINUOUS
10
4.92836
20
-2.92415
11
4.93553
21
-2.91913
0
LINE
8
BLACK
6
CONTINUOUS
10
4.93553
20
-2.91913
11
4.94346
21
-2.91543
0
LINE
8
BLACK
6
CONTINUOUS
10
4.94346
20
-2.91543
11
4.95191
21
-2.91316
0
LINE
8
BLACK
6
CONTINUOUS
10
4.95191
20
-2.91316
11
4.96063
21
-2.9124
0
LINE
8
BLACK
6
CONTINUOUS
10
4.96063
20
-2.9124
11
4.96935
21
-2.91316
0
LINE
8
BLACK
6
CONTINUOUS
10
4.96935
20
-2.91316
11
4.9778
21
-2.91543
0
LINE
8
BLACK
6
CONTINUOUS
10
4.9778
20
-2.91543
11
4.98573
21
-2.91913
0
LINE
8
BLACK
6
CONTINUOUS
10
4.98573
20
-2.91913
11
4.9929
21
-2.92415
0
LINE
8
BLACK
6
CONTINUOUS
10
4.9929
20
-2.92415
11
4.99908
21
-2.93033
0
LINE
8
BLACK
6
CONTINUOUS
10
4.99908
20
-2.93033
11
5.0041
21
-2.9375
0
LINE
8
BLACK
6
CONTINUOUS
10
5.0041
20
-2.9375
11
5.0078
21
-2.94543
0
LINE
8
BLACK
6
CONTINUOUS
10
5.0078
20
-2.94543
11
5.01006
21
-2.95388
0
LINE
8
BLACK
6
CONTINUOUS
10
5.01006
20
-2.95388
11
5.01083
21
-2.9626
0
LINE
8
BLACK
6
CONTINUOUS
10
5.01083
20
-2.9626
11
5.01006
21
-2.97132
0
LINE
8
BLACK
6
CONTINUOUS
10
5.01006
20
-2.97132
11
5.0078
21
-2.97977
0
LINE
8
BLACK
6
CONTINUOUS
10
5.0078
20
-2.97977
11
5.0041
21
-2.9877
0
LINE
8
BLACK
6
CONTINUOUS
10
5.0041
20
-2.9877
11
4.99908
21
-2.99486
0
LINE
8
BLACK
6
CONTINUOUS
10
4.99908
20
-2.99486
11
4.9929
21
-3.00105
0
LINE
8
BLACK
6
CONTINUOUS
10
4.9929
20
-3.00105
11
4.98573
21
-3.00607
0
LINE
8
BLACK
6
CONTINUOUS
10
4.98573
20
-3.00607
11
4.9778
21
-3.00977
0
LINE
8
BLACK
6
CONTINUOUS
10
4.9778
20
-3.00977
11
4.96935
21
-3.01203
0
LINE
8
BLACK
6
CONTINUOUS
10
4.96935
20
-3.01203
11
4.96063
21
-3.0128
0
LINE
8
BLACK
6
CONTINUOUS
10
4.96063
20
-3.0128
11
4.95191
21
-3.01203
0
LINE
8
BLACK
6
CONTINUOUS
10
4.95191
20
-3.01203
11
4.94346
21
-3.00977
0
LINE
8
BLACK
6
CONTINUOUS
10
4.94346
20
-3.00977
11
4.93553
21
-3.00607
0
LINE
8
BLACK
6
CONTINUOUS
10
4.93553
20
-3.00607
11
4.92836
21
-3.00105
0
LINE
8
BLACK
6
CONTINUOUS
10
4.92836
20
-3.00105
11
4.92218
21
-2.99486
0
LINE
8
BLACK
6
CONTINUOUS
10
4.92218
20
-2.99486
11
4.91716
21
-2.9877
0
LINE
8
BLACK
6
CONTINUOUS
10
4.91716
20
-2.9877
11
4.91346
21
-2.97977
0
LINE
8
BLACK
6
CONTINUOUS
10
4.91346
20
-2.97977
11
4.9112
21
-2.97132
0
LINE
8
BLACK
6
CONTINUOUS
10
4.9112
20
-2.97132
11
4.91043
21
-2.9626
0
LINE
8
BLACK
6
CONTINUOUS
10
4.91043
20
-2.9626
11
4.9112
21
-2.95388
0
LINE
8
BLACK
6
CONTINUOUS
10
4.9112
20
-2.95388
11
4.91346
21
-2.94543
0
LINE
8
BLACK
6
CONTINUOUS
10
4.91514
20
-2.97916
11
4.9187
21
-2.9868
0
LINE
8
BLACK
6
CONTINUOUS
10
4.9187
20
-2.9868
11
4.92354
21
-2.99372
0
LINE
8
BLACK
6
CONTINUOUS
10
4.92354
20
-2.99372
11
4.92951
21
-2.99968
0
LINE
8
BLACK
6
CONTINUOUS
10
4.92951
20
-2.99968
11
4.93642
21
-3.00452
0
LINE
8
BLACK
6
CONTINUOUS
10
4.93642
20
-3.00452
11
4.94407
21
-3.00809
0
LINE
8
BLACK
6
CONTINUOUS
10
4.94407
20
-3.00809
11
4.95222
21
-3.01028
0
LINE
8
BLACK
6
CONTINUOUS
10
4.95222
20
-3.01028
11
4.96063
21
-3.01101
0
LINE
8
BLACK
6
CONTINUOUS
10
4.96063
20
-3.01101
11
4.96904
21
-3.01028
0
LINE
8
BLACK
6
CONTINUOUS
10
4.96904
20
-3.01028
11
4.97719
21
-3.00809
0
LINE
8
BLACK
6
CONTINUOUS
10
4.97719
20
-3.00809
11
4.98484
21
-3.00452
0
LINE
8
BLACK
6
CONTINUOUS
10
4.98484
20
-3.00452
11
4.99175
21
-2.99968
0
LINE
8
BLACK
6
CONTINUOUS
10
4.99175
20
-2.99968
11
4.99772
21
-2.99372
0
LINE
8
BLACK
6
CONTINUOUS
10
4.99772
20
-2.99372
11
5.00256
21
-2.9868
0
LINE
8
BLACK
6
CONTINUOUS
10
5.00256
20
-2.9868
11
5.00612
21
-2.97916
0
LINE
8
BLACK
6
CONTINUOUS
10
5.00612
20
-2.97916
11
5.00831
21
-2.97101
0
LINE
8
BLACK
6
CONTINUOUS
10
5.00831
20
-2.97101
11
5.00904
21
-2.9626
0
LINE
8
BLACK
6
CONTINUOUS
10
5.00904
20
-2.9626
11
5.00831
21
-2.95419
0
LINE
8
BLACK
6
CONTINUOUS
10
5.00831
20
-2.95419
11
5.00612
21
-2.94604
0
LINE
8
BLACK
6
CONTINUOUS
10
5.00612
20
-2.94604
11
5.00256
21
-2.93839
0
LINE
8
BLACK
6
CONTINUOUS
10
5.00256
20
-2.93839
11
4.99772
21
-2.93148
0
LINE
8
BLACK
6
CONTINUOUS
10
4.99772
20
-2.93148
11
4.99175
21
-2.92551
0
LINE
8
BLACK
6
CONTINUOUS
10
4.99175
20
-2.92551
11
4.98484
21
-2.92067
0
LINE
8
BLACK
6
CONTINUOUS
10
4.98484
20
-2.92067
11
4.97719
21
-2.91711
0
LINE
8
BLACK
6
CONTINUOUS
10
4.97719
20
-2.91711
11
4.96904
21
-2.91492
0
LINE
8
BLACK
6
CONTINUOUS
10
4.96904
20
-2.91492
11
4.96063
21
-2.91419
0
LINE
8
BLACK
6
CONTINUOUS
10
4.96063
20
-2.91419
11
4.95222
21
-2.91492
0
LINE
8
BLACK
6
CONTINUOUS
10
4.95222
20
-2.91492
11
4.94407
21
-2.91711
0
LINE
8
BLACK
6
CONTINUOUS
10
4.94407
20
-2.91711
11
4.93642
21
-2.92067
0
LINE
8
BLACK
6
CONTINUOUS
10
4.93642
20
-2.92067
11
4.92951
21
-2.92551
0
LINE
8
BLACK
6
CONTINUOUS
10
4.92951
20
-2.92551
11
4.92354
21
-2.93148
0
LINE
8
BLACK
6
CONTINUOUS
10
4.92354
20
-2.93148
11
4.9187
21
-2.93839
0
LINE
8
BLACK
6
CONTINUOUS
10
4.9187
20
-2.93839
11
4.91514
21
-2.94604
0
LINE
8
BLACK
6
CONTINUOUS
10
4.91514
20
-2.94604
11
4.91295
21
-2.95419
0
LINE
8
BLACK
6
CONTINUOUS
10
4.91295
20
-2.95419
11
4.91222
21
-2.9626
0
LINE
8
BLACK
6
CONTINUOUS
10
4.91222
20
-2.9626
11
4.91295
21
-2.97101
0
LINE
8
BLACK
6
CONTINUOUS
10
4.91295
20
-2.97101
11
4.91514
21
-2.97916
0
LINE
8
BLACK
6
CONTINUOUS
10
5.76976
20
-2.70921
11
5.77346
21
-2.70128
0
LINE
8
BLACK
6
CONTINUOUS
10
5.77346
20
-2.70128
11
5.77848
21
-2.69411
0
LINE
8
BLACK
6
CONTINUOUS
10
5.77848
20
-2.69411
11
5.78466
21
-2.68792
0
LINE
8
BLACK
6
CONTINUOUS
10
5.78466
20
-2.68792
11
5.79183
21
-2.68291
0
LINE
8
BLACK
6
CONTINUOUS
10
5.79183
20
-2.68291
11
5.79976
21
-2.67921
0
LINE
8
BLACK
6
CONTINUOUS
10
5.79976
20
-2.67921
11
5.80821
21
-2.67694
0
LINE
8
BLACK
6
CONTINUOUS
10
5.80821
20
-2.67694
11
5.81693
21
-2.67618
0
LINE
8
BLACK
6
CONTINUOUS
10
5.81693
20
-2.67618
11
5.82565
21
-2.67694
0
LINE
8
BLACK
6
CONTINUOUS
10
5.82565
20
-2.67694
11
5.8341
21
-2.67921
0
LINE
8
BLACK
6
CONTINUOUS
10
5.8341
20
-2.67921
11
5.84203
21
-2.68291
0
LINE
8
BLACK
6
CONTINUOUS
10
5.84203
20
-2.68291
11
5.8492
21
-2.68792
0
LINE
8
BLACK
6
CONTINUOUS
10
5.8492
20
-2.68792
11
5.85538
21
-2.69411
0
LINE
8
BLACK
6
CONTINUOUS
10
5.85538
20
-2.69411
11
5.8604
21
-2.70128
0
LINE
8
BLACK
6
CONTINUOUS
10
5.8604
20
-2.70128
11
5.8641
21
-2.70921
0
LINE
8
BLACK
6
CONTINUOUS
10
5.8641
20
-2.70921
11
5.86636
21
-2.71766
0
LINE
8
BLACK
6
CONTINUOUS
10
5.86636
20
-2.71766
11
5.86713
21
-2.72638
0
LINE
8
BLACK
6
CONTINUOUS
10
5.86713
20
-2.72638
11
5.86636
21
-2.73509
0
LINE
8
BLACK
6
CONTINUOUS
10
5.86636
20
-2.73509
11
5.8641
21
-2.74355
0
LINE
8
BLACK
6
CONTINUOUS
10
5.8641
20
-2.74355
11
5.8604
21
-2.75148
0
LINE
8
BLACK
6
CONTINUOUS
10
5.8604
20
-2.75148
11
5.85538
21
-2.75864
0
LINE
8
BLACK
6
CONTINUOUS
10
5.85538
20
-2.75864
11
5.8492
21
-2.76483
0
LINE
8
BLACK
6
CONTINUOUS
10
5.8492
20
-2.76483
11
5.84203
21
-2.76985
0
LINE
8
BLACK
6
CONTINUOUS
10
5.84203
20
-2.76985
11
5.8341
21
-2.77355
0
LINE
8
BLACK
6
CONTINUOUS
10
5.8341
20
-2.77355
11
5.82565
21
-2.77581
0
LINE
8
BLACK
6
CONTINUOUS
10
5.82565
20
-2.77581
11
5.81693
21
-2.77657
0
LINE
8
BLACK
6
CONTINUOUS
10
5.81693
20
-2.77657
11
5.80821
21
-2.77581
0
LINE
8
BLACK
6
CONTINUOUS
10
5.80821
20
-2.77581
11
5.79976
21
-2.77355
0
LINE
8
BLACK
6
CONTINUOUS
10
5.79976
20
-2.77355
11
5.79183
21
-2.76985
0
LINE
8
BLACK
6
CONTINUOUS
10
5.79183
20
-2.76985
11
5.78466
21
-2.76483
0
LINE
8
BLACK
6
CONTINUOUS
10
5.78466
20
-2.76483
11
5.77848
21
-2.75864
0
LINE
8
BLACK
6
CONTINUOUS
10
5.77848
20
-2.75864
11
5.77346
21
-2.75148
0
LINE
8
BLACK
6
CONTINUOUS
10
5.77346
20
-2.75148
11
5.76976
21
-2.74355
0
LINE
8
BLACK
6
CONTINUOUS
10
5.76976
20
-2.74355
11
5.76749
21
-2.73509
0
LINE
8
BLACK
6
CONTINUOUS
10
5.76749
20
-2.73509
11
5.76673
21
-2.72638
0
LINE
8
BLACK
6
CONTINUOUS
10
5.76673
20
-2.72638
11
5.76749
21
-2.71766
0
LINE
8
BLACK
6
CONTINUOUS
10
5.76749
20
-2.71766
11
5.76976
21
-2.70921
0
LINE
8
BLACK
6
CONTINUOUS
10
5.77144
20
-2.74294
11
5.775
21
-2.75058
0
LINE
8
BLACK
6
CONTINUOUS
10
5.775
20
-2.75058
11
5.77984
21
-2.7575
0
LINE
8
BLACK
6
CONTINUOUS
10
5.77984
20
-2.7575
11
5.78581
21
-2.76346
0
LINE
8
BLACK
6
CONTINUOUS
10
5.78581
20
-2.76346
11
5.79272
21
-2.7683
0
LINE
8
BLACK
6
CONTINUOUS
10
5.79272
20
-2.7683
11
5.80037
21
-2.77187
0
LINE
8
BLACK
6
CONTINUOUS
10
5.80037
20
-2.77187
11
5.80852
21
-2.77405
0
LINE
8
BLACK
6
CONTINUOUS
10
5.80852
20
-2.77405
11
5.81693
21
-2.77479
0
LINE
8
BLACK
6
CONTINUOUS
10
5.81693
20
-2.77479
11
5.82534
21
-2.77405
0
LINE
8
BLACK
6
CONTINUOUS
10
5.82534
20
-2.77405
11
5.83349
21
-2.77187
0
LINE
8
BLACK
6
CONTINUOUS
10
5.83349
20
-2.77187
11
5.84114
21
-2.7683
0
LINE
8
BLACK
6
CONTINUOUS
10
5.84114
20
-2.7683
11
5.84805
21
-2.76346
0
LINE
8
BLACK
6
CONTINUOUS
10
5.84805
20
-2.76346
11
5.85402
21
-2.7575
0
LINE
8
BLACK
6
CONTINUOUS
10
5.85402
20
-2.7575
11
5.85886
21
-2.75058
0
LINE
8
BLACK
6
CONTINUOUS
10
5.85886
20
-2.75058
11
5.86242
21
-2.74294
0
LINE
8
BLACK
6
CONTINUOUS
10
5.86242
20
-2.74294
11
5.86461
21
-2.73478
0
LINE
8
BLACK
6
CONTINUOUS
10
5.86461
20
-2.73478
11
5.86534
21
-2.72638
0
LINE
8
BLACK
6
CONTINUOUS
10
5.86534
20
-2.72638
11
5.86461
21
-2.71797
0
LINE
8
BLACK
6
CONTINUOUS
10
5.86461
20
-2.71797
11
5.86242
21
-2.70982
0
LINE
8
BLACK
6
CONTINUOUS
10
5.86242
20
-2.70982
11
5.85886
21
-2.70217
0
LINE
8
BLACK
6
CONTINUOUS
10
5.85886
20
-2.70217
11
5.85402
21
-2.69526
0
LINE
8
BLACK
6
CONTINUOUS
10
5.85402
20
-2.69526
11
5.84805
21
-2.68929
0
LINE
8
BLACK
6
CONTINUOUS
10
5.84805
20
-2.68929
11
5.84114
21
-2.68445
0
LINE
8
BLACK
6
CONTINUOUS
10
5.84114
20
-2.68445
11
5.83349
21
-2.68089
0
LINE
8
BLACK
6
CONTINUOUS
10
5.83349
20
-2.68089
11
5.82534
21
-2.6787
0
LINE
8
BLACK
6
CONTINUOUS
10
5.82534
20
-2.6787
11
5.81693
21
-2.67797
0
LINE
8
BLACK
6
CONTINUOUS
10
5.81693
20
-2.67797
11
5.80852
21
-2.6787
0
LINE
8
BLACK
6
CONTINUOUS
10
5.80852
20
-2.6787
11
5.80037
21
-2.68089
0
LINE
8
BLACK
6
CONTINUOUS
10
5.80037
20
-2.68089
11
5.79272
21
-2.68445
0
LINE
8
BLACK
6
CONTINUOUS
10
5.79272
20
-2.68445
11
5.78581
21
-2.68929
0
LINE
8
BLACK
6
CONTINUOUS
10
5.78581
20
-2.68929
11
5.77984
21
-2.69526
0
LINE
8
BLACK
6
CONTINUOUS
10
5.77984
20
-2.69526
11
5.775
21
-2.70217
0
LINE
8
BLACK
6
CONTINUOUS
10
5.775
20
-2.70217
11
5.77144
21
-2.70982
0
LINE
8
BLACK
6
CONTINUOUS
10
5.77144
20
-2.70982
11
5.76925
21
-2.71797
0
LINE
8
BLACK
6
CONTINUOUS
10
5.76925
20
-2.71797
11
5.76852
21
-2.72638
0
LINE
8
BLACK
6
CONTINUOUS
10
5.76852
20
-2.72638
11
5.76925
21
-2.73478
0
LINE
8
BLACK
6
CONTINUOUS
10
5.76925
20
-2.73478
11
5.77144
21
-2.74294
  0
ENDSEC
  0
EOF
