  0
SECTION
  2
HEADER
  9
$ANGBASE
  50
0.0
  9
$ANGDIR
  70
1
  9
$MEASUREMENT
  70
0
  0
ENDSEC
  0
SECTION
  2
TABLES
  0
TABLE
  2
LTYPE
  70
4
  0
LTYPE
  5
40F
  2
CONTINUOUS
  70
0
  3
Solid line
  72
65
  73
0
  40
0.0
  0
LTYPE
  5
410
  2
DASHDOT
 70
0
  3
Dash Dot ____ _ ____ _
 72
65
 73
4
 40
2.0
 49
1.25
 49
-0.25
 49
0.25
 49
-0.25
  0
LTYPE
  5
411
  2
DASHED
 70
0
  3
Dashed __ __ __ __ __
 72
65
 73
2
 40
0.75
 49
0.5
 49
-0.25
  0
LTYPE
  5
43B
  2
DOTTED
 70
0
  3
Dotted .  .  .  .
 72
65
 73
2
 40
0.2
 49
0.0
 49
-0.2
  0
ENDTAB
  0
TABLE
  2
STYLE
  70
4
  0
STYLE
  2
KICAD
  70
0
  40
0
  41
1
  42
1
  50
0
  71
0
  3
isocp.shx
  0
STYLE
  2
KICADB
  70
0
  40
0
  41
1
  42
1
  50
0
  71
0
  3
isocp.shx
  0
STYLE
  2
KICADI
  70
0
  40
0
  41
1
  42
1
  50
15
  71
0
  3
isocp.shx
  0
STYLE
  2
KICADBI
  70
0
  40
0
  41
1
  42
1
  50
15
  71
0
  3
isocp.shx
  0
ENDTAB
  0
TABLE
  2
LAYER
  70
1
  0
LAYER
  2
BLACK
  70
0
  62
7
  6
CONTINUOUS
  0
ENDTAB
  0
ENDSEC
  0
SECTION
  2
ENTITIES
0
LINE
8
BLACK
6
CONTINUOUS
10
5.90241
20
-4.58739
11
5.90861
21
-4.5896
0
LINE
8
BLACK
6
CONTINUOUS
10
5.90861
20
-4.5896
11
5.91417
21
-4.59313
0
LINE
8
BLACK
6
CONTINUOUS
10
5.91417
20
-4.59313
11
5.91881
21
-4.5978
0
LINE
8
BLACK
6
CONTINUOUS
10
5.91881
20
-4.5978
11
5.9223
21
-4.60338
0
LINE
8
BLACK
6
CONTINUOUS
10
5.9223
20
-4.60338
11
5.92446
21
-4.6096
0
LINE
8
BLACK
6
CONTINUOUS
10
5.92446
20
-4.6096
11
5.9252
21
-4.61614
0
LINE
8
BLACK
6
CONTINUOUS
10
5.9252
20
-4.61614
11
5.92519
21
-4.61697
0
LINE
8
BLACK
6
CONTINUOUS
10
5.92519
20
-4.61697
11
5.92427
21
-4.62348
0
LINE
8
BLACK
6
CONTINUOUS
10
5.92427
20
-4.62348
11
5.92193
21
-4.62964
0
LINE
8
BLACK
6
CONTINUOUS
10
5.92193
20
-4.62964
11
5.91829
21
-4.63512
0
LINE
8
BLACK
6
CONTINUOUS
10
5.91829
20
-4.63512
11
5.91352
21
-4.63966
0
LINE
8
BLACK
6
CONTINUOUS
10
5.91352
20
-4.63966
11
5.90787
21
-4.64303
0
LINE
8
BLACK
6
CONTINUOUS
10
5.90787
20
-4.64303
11
5.90161
21
-4.64507
0
LINE
8
BLACK
6
CONTINUOUS
10
5.90161
20
-4.64507
11
5.89505
21
-4.64566
0
LINE
8
BLACK
6
CONTINUOUS
10
5.89505
20
-4.64566
11
5.88853
21
-4.64479
0
LINE
8
BLACK
6
CONTINUOUS
10
5.88853
20
-4.64479
11
5.88236
21
-4.6425
0
LINE
8
BLACK
6
CONTINUOUS
10
5.88236
20
-4.6425
11
5.87685
21
-4.63889
0
LINE
8
BLACK
6
CONTINUOUS
10
5.87685
20
-4.63889
11
5.87227
21
-4.63416
0
LINE
8
BLACK
6
CONTINUOUS
10
5.87227
20
-4.63416
11
5.86886
21
-4.62853
0
LINE
8
BLACK
6
CONTINUOUS
10
5.86886
20
-4.62853
11
5.86679
21
-4.62228
0
LINE
8
BLACK
6
CONTINUOUS
10
5.86679
20
-4.62228
11
5.86614
21
-4.61573
0
LINE
8
BLACK
6
CONTINUOUS
10
5.86614
20
-4.61573
11
5.86697
21
-4.6092
0
LINE
8
BLACK
6
CONTINUOUS
10
5.86697
20
-4.6092
11
5.86922
21
-4.60301
0
LINE
8
BLACK
6
CONTINUOUS
10
5.86922
20
-4.60301
11
5.87279
21
-4.59748
0
LINE
8
BLACK
6
CONTINUOUS
10
5.87279
20
-4.59748
11
5.87749
21
-4.59287
0
LINE
8
BLACK
6
CONTINUOUS
10
5.87749
20
-4.59287
11
5.8831
21
-4.58942
0
LINE
8
BLACK
6
CONTINUOUS
10
5.8831
20
-4.58942
11
5.88933
21
-4.5873
0
LINE
8
BLACK
6
CONTINUOUS
10
5.88933
20
-4.5873
11
5.89588
21
-4.58661
0
LINE
8
BLACK
6
CONTINUOUS
10
5.89588
20
-4.58661
11
5.90241
21
-4.58739
0
LINE
8
BLACK
6
CONTINUOUS
10
5.7843
20
-4.58739
11
5.7905
21
-4.5896
0
LINE
8
BLACK
6
CONTINUOUS
10
5.7905
20
-4.5896
11
5.79606
21
-4.59313
0
LINE
8
BLACK
6
CONTINUOUS
10
5.79606
20
-4.59313
11
5.8007
21
-4.5978
0
LINE
8
BLACK
6
CONTINUOUS
10
5.8007
20
-4.5978
11
5.80419
21
-4.60338
0
LINE
8
BLACK
6
CONTINUOUS
10
5.80419
20
-4.60338
11
5.80635
21
-4.6096
0
LINE
8
BLACK
6
CONTINUOUS
10
5.80635
20
-4.6096
11
5.80709
21
-4.61614
0
LINE
8
BLACK
6
CONTINUOUS
10
5.80709
20
-4.61614
11
5.80708
21
-4.61697
0
LINE
8
BLACK
6
CONTINUOUS
10
5.80708
20
-4.61697
11
5.80616
21
-4.62348
0
LINE
8
BLACK
6
CONTINUOUS
10
5.80616
20
-4.62348
11
5.80382
21
-4.62964
0
LINE
8
BLACK
6
CONTINUOUS
10
5.80382
20
-4.62964
11
5.80018
21
-4.63512
0
LINE
8
BLACK
6
CONTINUOUS
10
5.80018
20
-4.63512
11
5.79541
21
-4.63966
0
LINE
8
BLACK
6
CONTINUOUS
10
5.79541
20
-4.63966
11
5.78976
21
-4.64303
0
LINE
8
BLACK
6
CONTINUOUS
10
5.78976
20
-4.64303
11
5.7835
21
-4.64507
0
LINE
8
BLACK
6
CONTINUOUS
10
5.7835
20
-4.64507
11
5.77694
21
-4.64566
0
LINE
8
BLACK
6
CONTINUOUS
10
5.77694
20
-4.64566
11
5.77042
21
-4.64479
0
LINE
8
BLACK
6
CONTINUOUS
10
5.77042
20
-4.64479
11
5.76425
21
-4.6425
0
LINE
8
BLACK
6
CONTINUOUS
10
5.76425
20
-4.6425
11
5.75874
21
-4.63889
0
LINE
8
BLACK
6
CONTINUOUS
10
5.75874
20
-4.63889
11
5.75416
21
-4.63416
0
LINE
8
BLACK
6
CONTINUOUS
10
5.75416
20
-4.63416
11
5.75075
21
-4.62853
0
LINE
8
BLACK
6
CONTINUOUS
10
5.75075
20
-4.62853
11
5.74868
21
-4.62228
0
LINE
8
BLACK
6
CONTINUOUS
10
5.74868
20
-4.62228
11
5.74803
21
-4.61573
0
LINE
8
BLACK
6
CONTINUOUS
10
5.74803
20
-4.61573
11
5.74886
21
-4.6092
0
LINE
8
BLACK
6
CONTINUOUS
10
5.74886
20
-4.6092
11
5.75111
21
-4.60301
0
LINE
8
BLACK
6
CONTINUOUS
10
5.75111
20
-4.60301
11
5.75468
21
-4.59748
0
LINE
8
BLACK
6
CONTINUOUS
10
5.75468
20
-4.59748
11
5.75938
21
-4.59287
0
LINE
8
BLACK
6
CONTINUOUS
10
5.75938
20
-4.59287
11
5.76499
21
-4.58942
0
LINE
8
BLACK
6
CONTINUOUS
10
5.76499
20
-4.58942
11
5.77122
21
-4.5873
0
LINE
8
BLACK
6
CONTINUOUS
10
5.77122
20
-4.5873
11
5.77777
21
-4.58661
0
LINE
8
BLACK
6
CONTINUOUS
10
5.77777
20
-4.58661
11
5.7843
21
-4.58739
0
LINE
8
BLACK
6
CONTINUOUS
10
6.03036
20
-4.58739
11
6.03657
21
-4.5896
0
LINE
8
BLACK
6
CONTINUOUS
10
6.03657
20
-4.5896
11
6.04212
21
-4.59313
0
LINE
8
BLACK
6
CONTINUOUS
10
6.04212
20
-4.59313
11
6.04676
21
-4.5978
0
LINE
8
BLACK
6
CONTINUOUS
10
6.04676
20
-4.5978
11
6.05025
21
-4.60338
0
LINE
8
BLACK
6
CONTINUOUS
10
6.05025
20
-4.60338
11
6.05242
21
-4.6096
0
LINE
8
BLACK
6
CONTINUOUS
10
6.05242
20
-4.6096
11
6.05315
21
-4.61614
0
LINE
8
BLACK
6
CONTINUOUS
10
6.05315
20
-4.61614
11
6.05314
21
-4.61697
0
LINE
8
BLACK
6
CONTINUOUS
10
6.05314
20
-4.61697
11
6.05222
21
-4.62348
0
LINE
8
BLACK
6
CONTINUOUS
10
6.05222
20
-4.62348
11
6.04988
21
-4.62964
0
LINE
8
BLACK
6
CONTINUOUS
10
6.04988
20
-4.62964
11
6.04624
21
-4.63512
0
LINE
8
BLACK
6
CONTINUOUS
10
6.04624
20
-4.63512
11
6.04147
21
-4.63966
0
LINE
8
BLACK
6
CONTINUOUS
10
6.04147
20
-4.63966
11
6.03582
21
-4.64303
0
LINE
8
BLACK
6
CONTINUOUS
10
6.03582
20
-4.64303
11
6.02956
21
-4.64507
0
LINE
8
BLACK
6
CONTINUOUS
10
6.02956
20
-4.64507
11
6.023
21
-4.64566
0
LINE
8
BLACK
6
CONTINUOUS
10
6.023
20
-4.64566
11
6.01648
21
-4.64479
0
LINE
8
BLACK
6
CONTINUOUS
10
6.01648
20
-4.64479
11
6.01031
21
-4.6425
0
LINE
8
BLACK
6
CONTINUOUS
10
6.01031
20
-4.6425
11
6.0048
21
-4.63889
0
LINE
8
BLACK
6
CONTINUOUS
10
6.0048
20
-4.63889
11
6.00023
21
-4.63416
0
LINE
8
BLACK
6
CONTINUOUS
10
6.00023
20
-4.63416
11
5.99682
21
-4.62853
0
LINE
8
BLACK
6
CONTINUOUS
10
5.99682
20
-4.62853
11
5.99474
21
-4.62228
0
LINE
8
BLACK
6
CONTINUOUS
10
5.99474
20
-4.62228
11
5.9941
21
-4.61573
0
LINE
8
BLACK
6
CONTINUOUS
10
5.9941
20
-4.61573
11
5.99492
21
-4.6092
0
LINE
8
BLACK
6
CONTINUOUS
10
5.99492
20
-4.6092
11
5.99717
21
-4.60301
0
LINE
8
BLACK
6
CONTINUOUS
10
5.99717
20
-4.60301
11
6.00074
21
-4.59748
0
LINE
8
BLACK
6
CONTINUOUS
10
6.00074
20
-4.59748
11
6.00544
21
-4.59287
0
LINE
8
BLACK
6
CONTINUOUS
10
6.00544
20
-4.59287
11
6.01105
21
-4.58942
0
LINE
8
BLACK
6
CONTINUOUS
10
6.01105
20
-4.58942
11
6.01728
21
-4.5873
0
LINE
8
BLACK
6
CONTINUOUS
10
6.01728
20
-4.5873
11
6.02383
21
-4.58661
0
LINE
8
BLACK
6
CONTINUOUS
10
6.02383
20
-4.58661
11
6.03036
21
-4.58739
0
LINE
8
BLACK
6
CONTINUOUS
10
5.65157
20
-4.51516
11
5.59646
21
-4.51516
0
LINE
8
BLACK
6
CONTINUOUS
10
5.59646
20
-4.51516
11
5.59646
21
-4.46004
0
LINE
8
BLACK
6
CONTINUOUS
10
5.59646
20
-4.46004
11
5.65157
21
-4.46004
0
LINE
8
BLACK
6
CONTINUOUS
10
5.65157
20
-4.46004
11
5.65157
21
-4.51516
0
LINE
8
BLACK
6
CONTINUOUS
10
5.20621
20
-4.42522
11
5.21263
21
-4.42683
0
LINE
8
BLACK
6
CONTINUOUS
10
5.21263
20
-4.42683
11
5.21848
21
-4.42993
0
LINE
8
BLACK
6
CONTINUOUS
10
5.21848
20
-4.42993
11
5.22343
21
-4.43433
0
LINE
8
BLACK
6
CONTINUOUS
10
5.22343
20
-4.43433
11
5.22718
21
-4.43979
0
LINE
8
BLACK
6
CONTINUOUS
10
5.22718
20
-4.43979
11
5.22952
21
-4.44599
0
LINE
8
BLACK
6
CONTINUOUS
10
5.22952
20
-4.44599
11
5.23031
21
-4.45256
0
LINE
8
BLACK
6
CONTINUOUS
10
5.23031
20
-4.45256
11
5.23031
21
-4.45314
0
LINE
8
BLACK
6
CONTINUOUS
10
5.23031
20
-4.45314
11
5.22938
21
-4.45969
0
LINE
8
BLACK
6
CONTINUOUS
10
5.22938
20
-4.45969
11
5.22691
21
-4.46584
0
LINE
8
BLACK
6
CONTINUOUS
10
5.22691
20
-4.46584
11
5.22304
21
-4.47121
0
LINE
8
BLACK
6
CONTINUOUS
10
5.22304
20
-4.47121
11
5.21801
21
-4.47551
0
LINE
8
BLACK
6
CONTINUOUS
10
5.21801
20
-4.47551
11
5.21209
21
-4.47849
0
LINE
8
BLACK
6
CONTINUOUS
10
5.21209
20
-4.47849
11
5.20564
21
-4.47997
0
LINE
8
BLACK
6
CONTINUOUS
10
5.20564
20
-4.47997
11
5.19902
21
-4.47986
0
LINE
8
BLACK
6
CONTINUOUS
10
5.19902
20
-4.47986
11
5.19261
21
-4.47818
0
LINE
8
BLACK
6
CONTINUOUS
10
5.19261
20
-4.47818
11
5.18679
21
-4.47502
0
LINE
8
BLACK
6
CONTINUOUS
10
5.18679
20
-4.47502
11
5.18189
21
-4.47057
0
LINE
8
BLACK
6
CONTINUOUS
10
5.18189
20
-4.47057
11
5.1782
21
-4.46507
0
LINE
8
BLACK
6
CONTINUOUS
10
5.1782
20
-4.46507
11
5.17592
21
-4.45885
0
LINE
8
BLACK
6
CONTINUOUS
10
5.17592
20
-4.45885
11
5.1752
21
-4.45227
0
LINE
8
BLACK
6
CONTINUOUS
10
5.1752
20
-4.45227
11
5.17606
21
-4.44571
0
LINE
8
BLACK
6
CONTINUOUS
10
5.17606
20
-4.44571
11
5.17847
21
-4.43954
0
LINE
8
BLACK
6
CONTINUOUS
10
5.17847
20
-4.43954
11
5.18228
21
-4.43412
0
LINE
8
BLACK
6
CONTINUOUS
10
5.18228
20
-4.43412
11
5.18727
21
-4.42977
0
LINE
8
BLACK
6
CONTINUOUS
10
5.18727
20
-4.42977
11
5.19315
21
-4.42673
0
LINE
8
BLACK
6
CONTINUOUS
10
5.19315
20
-4.42673
11
5.19959
21
-4.42518
0
LINE
8
BLACK
6
CONTINUOUS
10
5.19959
20
-4.42518
11
5.20621
21
-4.42522
0
LINE
8
BLACK
6
CONTINUOUS
10
5.62747
20
-4.39018
11
5.63389
21
-4.39179
0
LINE
8
BLACK
6
CONTINUOUS
10
5.63389
20
-4.39179
11
5.63974
21
-4.39489
0
LINE
8
BLACK
6
CONTINUOUS
10
5.63974
20
-4.39489
11
5.64469
21
-4.39929
0
LINE
8
BLACK
6
CONTINUOUS
10
5.64469
20
-4.39929
11
5.64844
21
-4.40475
0
LINE
8
BLACK
6
CONTINUOUS
10
5.64844
20
-4.40475
11
5.65078
21
-4.41095
0
LINE
8
BLACK
6
CONTINUOUS
10
5.65078
20
-4.41095
11
5.65157
21
-4.41752
0
LINE
8
BLACK
6
CONTINUOUS
10
5.65157
20
-4.41752
11
5.65157
21
-4.4181
0
LINE
8
BLACK
6
CONTINUOUS
10
5.65157
20
-4.4181
11
5.65064
21
-4.42465
0
LINE
8
BLACK
6
CONTINUOUS
10
5.65064
20
-4.42465
11
5.64817
21
-4.4308
0
LINE
8
BLACK
6
CONTINUOUS
10
5.64817
20
-4.4308
11
5.6443
21
-4.43617
0
LINE
8
BLACK
6
CONTINUOUS
10
5.6443
20
-4.43617
11
5.63927
21
-4.44047
0
LINE
8
BLACK
6
CONTINUOUS
10
5.63927
20
-4.44047
11
5.63335
21
-4.44345
0
LINE
8
BLACK
6
CONTINUOUS
10
5.63335
20
-4.44345
11
5.6269
21
-4.44493
0
LINE
8
BLACK
6
CONTINUOUS
10
5.6269
20
-4.44493
11
5.62028
21
-4.44482
0
LINE
8
BLACK
6
CONTINUOUS
10
5.62028
20
-4.44482
11
5.61387
21
-4.44314
0
LINE
8
BLACK
6
CONTINUOUS
10
5.61387
20
-4.44314
11
5.60805
21
-4.43998
0
LINE
8
BLACK
6
CONTINUOUS
10
5.60805
20
-4.43998
11
5.60315
21
-4.43553
0
LINE
8
BLACK
6
CONTINUOUS
10
5.60315
20
-4.43553
11
5.59946
21
-4.43003
0
LINE
8
BLACK
6
CONTINUOUS
10
5.59946
20
-4.43003
11
5.59718
21
-4.42381
0
LINE
8
BLACK
6
CONTINUOUS
10
5.59718
20
-4.42381
11
5.59646
21
-4.41723
0
LINE
8
BLACK
6
CONTINUOUS
10
5.59646
20
-4.41723
11
5.59732
21
-4.41067
0
LINE
8
BLACK
6
CONTINUOUS
10
5.59732
20
-4.41067
11
5.59973
21
-4.4045
0
LINE
8
BLACK
6
CONTINUOUS
10
5.59973
20
-4.4045
11
5.60354
21
-4.39908
0
LINE
8
BLACK
6
CONTINUOUS
10
5.60354
20
-4.39908
11
5.60853
21
-4.39473
0
LINE
8
BLACK
6
CONTINUOUS
10
5.60853
20
-4.39473
11
5.61441
21
-4.39169
0
LINE
8
BLACK
6
CONTINUOUS
10
5.61441
20
-4.39169
11
5.62085
21
-4.39014
0
LINE
8
BLACK
6
CONTINUOUS
10
5.62085
20
-4.39014
11
5.62747
21
-4.39018
0
LINE
8
BLACK
6
CONTINUOUS
10
5.20621
20
-4.35514
11
5.21263
21
-4.35675
0
LINE
8
BLACK
6
CONTINUOUS
10
5.21263
20
-4.35675
11
5.21848
21
-4.35985
0
LINE
8
BLACK
6
CONTINUOUS
10
5.21848
20
-4.35985
11
5.22343
21
-4.36426
0
LINE
8
BLACK
6
CONTINUOUS
10
5.22343
20
-4.36426
11
5.22718
21
-4.36971
0
LINE
8
BLACK
6
CONTINUOUS
10
5.22718
20
-4.36971
11
5.22952
21
-4.37591
0
LINE
8
BLACK
6
CONTINUOUS
10
5.22952
20
-4.37591
11
5.23031
21
-4.38248
0
LINE
8
BLACK
6
CONTINUOUS
10
5.23031
20
-4.38248
11
5.23031
21
-4.38306
0
LINE
8
BLACK
6
CONTINUOUS
10
5.23031
20
-4.38306
11
5.22938
21
-4.38961
0
LINE
8
BLACK
6
CONTINUOUS
10
5.22938
20
-4.38961
11
5.22691
21
-4.39576
0
LINE
8
BLACK
6
CONTINUOUS
10
5.22691
20
-4.39576
11
5.22304
21
-4.40113
0
LINE
8
BLACK
6
CONTINUOUS
10
5.22304
20
-4.40113
11
5.21801
21
-4.40543
0
LINE
8
BLACK
6
CONTINUOUS
10
5.21801
20
-4.40543
11
5.21209
21
-4.40841
0
LINE
8
BLACK
6
CONTINUOUS
10
5.21209
20
-4.40841
11
5.20564
21
-4.40989
0
LINE
8
BLACK
6
CONTINUOUS
10
5.20564
20
-4.40989
11
5.19902
21
-4.40978
0
LINE
8
BLACK
6
CONTINUOUS
10
5.19902
20
-4.40978
11
5.19261
21
-4.4081
0
LINE
8
BLACK
6
CONTINUOUS
10
5.19261
20
-4.4081
11
5.18679
21
-4.40494
0
LINE
8
BLACK
6
CONTINUOUS
10
5.18679
20
-4.40494
11
5.18189
21
-4.40049
0
LINE
8
BLACK
6
CONTINUOUS
10
5.18189
20
-4.40049
11
5.1782
21
-4.39499
0
LINE
8
BLACK
6
CONTINUOUS
10
5.1782
20
-4.39499
11
5.17592
21
-4.38877
0
LINE
8
BLACK
6
CONTINUOUS
10
5.17592
20
-4.38877
11
5.1752
21
-4.38219
0
LINE
8
BLACK
6
CONTINUOUS
10
5.1752
20
-4.38219
11
5.17606
21
-4.37563
0
LINE
8
BLACK
6
CONTINUOUS
10
5.17606
20
-4.37563
11
5.17847
21
-4.36946
0
LINE
8
BLACK
6
CONTINUOUS
10
5.17847
20
-4.36946
11
5.18228
21
-4.36404
0
LINE
8
BLACK
6
CONTINUOUS
10
5.18228
20
-4.36404
11
5.18727
21
-4.35969
0
LINE
8
BLACK
6
CONTINUOUS
10
5.18727
20
-4.35969
11
5.19315
21
-4.35665
0
LINE
8
BLACK
6
CONTINUOUS
10
5.19315
20
-4.35665
11
5.19959
21
-4.3551
0
LINE
8
BLACK
6
CONTINUOUS
10
5.19959
20
-4.3551
11
5.20621
21
-4.35514
0
LINE
8
BLACK
6
CONTINUOUS
10
5.99099
20
-4.34133
11
5.9972
21
-4.34354
0
LINE
8
BLACK
6
CONTINUOUS
10
5.9972
20
-4.34354
11
6.00275
21
-4.34707
0
LINE
8
BLACK
6
CONTINUOUS
10
6.00275
20
-4.34707
11
6.00739
21
-4.35174
0
LINE
8
BLACK
6
CONTINUOUS
10
6.00739
20
-4.35174
11
6.01088
21
-4.35732
0
LINE
8
BLACK
6
CONTINUOUS
10
6.01088
20
-4.35732
11
6.01305
21
-4.36354
0
LINE
8
BLACK
6
CONTINUOUS
10
6.01305
20
-4.36354
11
6.01378
21
-4.37008
0
LINE
8
BLACK
6
CONTINUOUS
10
6.01378
20
-4.37008
11
6.01377
21
-4.3709
0
LINE
8
BLACK
6
CONTINUOUS
10
6.01377
20
-4.3709
11
6.01285
21
-4.37742
0
LINE
8
BLACK
6
CONTINUOUS
10
6.01285
20
-4.37742
11
6.01051
21
-4.38358
0
LINE
8
BLACK
6
CONTINUOUS
10
6.01051
20
-4.38358
11
6.00687
21
-4.38906
0
LINE
8
BLACK
6
CONTINUOUS
10
6.00687
20
-4.38906
11
6.0021
21
-4.3936
0
LINE
8
BLACK
6
CONTINUOUS
10
6.0021
20
-4.3936
11
5.99645
21
-4.39697
0
LINE
8
BLACK
6
CONTINUOUS
10
5.99645
20
-4.39697
11
5.99019
21
-4.399
0
LINE
8
BLACK
6
CONTINUOUS
10
5.99019
20
-4.399
11
5.98363
21
-4.3996
0
LINE
8
BLACK
6
CONTINUOUS
10
5.98363
20
-4.3996
11
5.97711
21
-4.39873
0
LINE
8
BLACK
6
CONTINUOUS
10
5.97711
20
-4.39873
11
5.97094
21
-4.39643
0
LINE
8
BLACK
6
CONTINUOUS
10
5.97094
20
-4.39643
11
5.96543
21
-4.39283
0
LINE
8
BLACK
6
CONTINUOUS
10
5.96543
20
-4.39283
11
5.96086
21
-4.38809
0
LINE
8
BLACK
6
CONTINUOUS
10
5.96086
20
-4.38809
11
5.95745
21
-4.38246
0
LINE
8
BLACK
6
CONTINUOUS
10
5.95745
20
-4.38246
11
5.95537
21
-4.37622
0
LINE
8
BLACK
6
CONTINUOUS
10
5.95537
20
-4.37622
11
5.95473
21
-4.36967
0
LINE
8
BLACK
6
CONTINUOUS
10
5.95473
20
-4.36967
11
5.95555
21
-4.36314
0
LINE
8
BLACK
6
CONTINUOUS
10
5.95555
20
-4.36314
11
5.9578
21
-4.35695
0
LINE
8
BLACK
6
CONTINUOUS
10
5.9578
20
-4.35695
11
5.96137
21
-4.35142
0
LINE
8
BLACK
6
CONTINUOUS
10
5.96137
20
-4.35142
11
5.96607
21
-4.34681
0
LINE
8
BLACK
6
CONTINUOUS
10
5.96607
20
-4.34681
11
5.97168
21
-4.34336
0
LINE
8
BLACK
6
CONTINUOUS
10
5.97168
20
-4.34336
11
5.97791
21
-4.34124
0
LINE
8
BLACK
6
CONTINUOUS
10
5.97791
20
-4.34124
11
5.98446
21
-4.34055
0
LINE
8
BLACK
6
CONTINUOUS
10
5.98446
20
-4.34055
11
5.99099
21
-4.34133
0
LINE
8
BLACK
6
CONTINUOUS
10
6.21396
20
-4.32403
11
6.22015
21
-4.32558
0
LINE
8
BLACK
6
CONTINUOUS
10
6.22015
20
-4.32558
11
6.2258
21
-4.32857
0
LINE
8
BLACK
6
CONTINUOUS
10
6.2258
20
-4.32857
11
6.23056
21
-4.33282
0
LINE
8
BLACK
6
CONTINUOUS
10
6.23056
20
-4.33282
11
6.23418
21
-4.33808
0
LINE
8
BLACK
6
CONTINUOUS
10
6.23418
20
-4.33808
11
6.23644
21
-4.34405
0
LINE
8
BLACK
6
CONTINUOUS
10
6.23644
20
-4.34405
11
6.2372
21
-4.35039
0
LINE
8
BLACK
6
CONTINUOUS
10
6.2372
20
-4.35039
11
6.2372
21
-4.35095
0
LINE
8
BLACK
6
CONTINUOUS
10
6.2372
20
-4.35095
11
6.2363
21
-4.35727
0
LINE
8
BLACK
6
CONTINUOUS
10
6.2363
20
-4.35727
11
6.23392
21
-4.3632
0
LINE
8
BLACK
6
CONTINUOUS
10
6.23392
20
-4.3632
11
6.23019
21
-4.36838
0
LINE
8
BLACK
6
CONTINUOUS
10
6.23019
20
-4.36838
11
6.22534
21
-4.37253
0
LINE
8
BLACK
6
CONTINUOUS
10
6.22534
20
-4.37253
11
6.21963
21
-4.3754
0
LINE
8
BLACK
6
CONTINUOUS
10
6.21963
20
-4.3754
11
6.21341
21
-4.37682
0
LINE
8
BLACK
6
CONTINUOUS
10
6.21341
20
-4.37682
11
6.20702
21
-4.37672
0
LINE
8
BLACK
6
CONTINUOUS
10
6.20702
20
-4.37672
11
6.20085
21
-4.3751
0
LINE
8
BLACK
6
CONTINUOUS
10
6.20085
20
-4.3751
11
6.19524
21
-4.37206
0
LINE
8
BLACK
6
CONTINUOUS
10
6.19524
20
-4.37206
11
6.19051
21
-4.36776
0
LINE
8
BLACK
6
CONTINUOUS
10
6.19051
20
-4.36776
11
6.18695
21
-4.36246
0
LINE
8
BLACK
6
CONTINUOUS
10
6.18695
20
-4.36246
11
6.18476
21
-4.35646
0
LINE
8
BLACK
6
CONTINUOUS
10
6.18476
20
-4.35646
11
6.18406
21
-4.35012
0
LINE
8
BLACK
6
CONTINUOUS
10
6.18406
20
-4.35012
11
6.18489
21
-4.34378
0
LINE
8
BLACK
6
CONTINUOUS
10
6.18489
20
-4.34378
11
6.18721
21
-4.33784
0
LINE
8
BLACK
6
CONTINUOUS
10
6.18721
20
-4.33784
11
6.19088
21
-4.33261
0
LINE
8
BLACK
6
CONTINUOUS
10
6.19088
20
-4.33261
11
6.19569
21
-4.32841
0
LINE
8
BLACK
6
CONTINUOUS
10
6.19569
20
-4.32841
11
6.20137
21
-4.32549
0
LINE
8
BLACK
6
CONTINUOUS
10
6.20137
20
-4.32549
11
6.20758
21
-4.324
0
LINE
8
BLACK
6
CONTINUOUS
10
6.20758
20
-4.324
11
6.21396
21
-4.32403
0
LINE
8
BLACK
6
CONTINUOUS
10
5.62747
20
-4.3201
11
5.63389
21
-4.32171
0
LINE
8
BLACK
6
CONTINUOUS
10
5.63389
20
-4.32171
11
5.63974
21
-4.32481
0
LINE
8
BLACK
6
CONTINUOUS
10
5.63974
20
-4.32481
11
5.64469
21
-4.32922
0
LINE
8
BLACK
6
CONTINUOUS
10
5.64469
20
-4.32922
11
5.64844
21
-4.33467
0
LINE
8
BLACK
6
CONTINUOUS
10
5.64844
20
-4.33467
11
5.65078
21
-4.34087
0
LINE
8
BLACK
6
CONTINUOUS
10
5.65078
20
-4.34087
11
5.65157
21
-4.34744
0
LINE
8
BLACK
6
CONTINUOUS
10
5.65157
20
-4.34744
11
5.65157
21
-4.34802
0
LINE
8
BLACK
6
CONTINUOUS
10
5.65157
20
-4.34802
11
5.65064
21
-4.35457
0
LINE
8
BLACK
6
CONTINUOUS
10
5.65064
20
-4.35457
11
5.64817
21
-4.36072
0
LINE
8
BLACK
6
CONTINUOUS
10
5.64817
20
-4.36072
11
5.6443
21
-4.36609
0
LINE
8
BLACK
6
CONTINUOUS
10
5.6443
20
-4.36609
11
5.63927
21
-4.3704
0
LINE
8
BLACK
6
CONTINUOUS
10
5.63927
20
-4.3704
11
5.63335
21
-4.37337
0
LINE
8
BLACK
6
CONTINUOUS
10
5.63335
20
-4.37337
11
5.6269
21
-4.37485
0
LINE
8
BLACK
6
CONTINUOUS
10
5.6269
20
-4.37485
11
5.62028
21
-4.37474
0
LINE
8
BLACK
6
CONTINUOUS
10
5.62028
20
-4.37474
11
5.61387
21
-4.37306
0
LINE
8
BLACK
6
CONTINUOUS
10
5.61387
20
-4.37306
11
5.60805
21
-4.36991
0
LINE
8
BLACK
6
CONTINUOUS
10
5.60805
20
-4.36991
11
5.60315
21
-4.36545
0
LINE
8
BLACK
6
CONTINUOUS
10
5.60315
20
-4.36545
11
5.59946
21
-4.35995
0
LINE
8
BLACK
6
CONTINUOUS
10
5.59946
20
-4.35995
11
5.59718
21
-4.35373
0
LINE
8
BLACK
6
CONTINUOUS
10
5.59718
20
-4.35373
11
5.59646
21
-4.34715
0
LINE
8
BLACK
6
CONTINUOUS
10
5.59646
20
-4.34715
11
5.59732
21
-4.34059
0
LINE
8
BLACK
6
CONTINUOUS
10
5.59732
20
-4.34059
11
5.59973
21
-4.33442
0
LINE
8
BLACK
6
CONTINUOUS
10
5.59973
20
-4.33442
11
5.60354
21
-4.329
0
LINE
8
BLACK
6
CONTINUOUS
10
5.60354
20
-4.329
11
5.60853
21
-4.32465
0
LINE
8
BLACK
6
CONTINUOUS
10
5.60853
20
-4.32465
11
5.61441
21
-4.32161
0
LINE
8
BLACK
6
CONTINUOUS
10
5.61441
20
-4.32161
11
5.62085
21
-4.32006
0
LINE
8
BLACK
6
CONTINUOUS
10
5.62085
20
-4.32006
11
5.62747
21
-4.3201
0
LINE
8
BLACK
6
CONTINUOUS
10
5.20621
20
-4.28506
11
5.21263
21
-4.28667
0
LINE
8
BLACK
6
CONTINUOUS
10
5.21263
20
-4.28667
11
5.21848
21
-4.28977
0
LINE
8
BLACK
6
CONTINUOUS
10
5.21848
20
-4.28977
11
5.22343
21
-4.29418
0
LINE
8
BLACK
6
CONTINUOUS
10
5.22343
20
-4.29418
11
5.22718
21
-4.29963
0
LINE
8
BLACK
6
CONTINUOUS
10
5.22718
20
-4.29963
11
5.22952
21
-4.30583
0
LINE
8
BLACK
6
CONTINUOUS
10
5.22952
20
-4.30583
11
5.23031
21
-4.3124
0
LINE
8
BLACK
6
CONTINUOUS
10
5.23031
20
-4.3124
11
5.23031
21
-4.31298
0
LINE
8
BLACK
6
CONTINUOUS
10
5.23031
20
-4.31298
11
5.22938
21
-4.31953
0
LINE
8
BLACK
6
CONTINUOUS
10
5.22938
20
-4.31953
11
5.22691
21
-4.32568
0
LINE
8
BLACK
6
CONTINUOUS
10
5.22691
20
-4.32568
11
5.22304
21
-4.33106
0
LINE
8
BLACK
6
CONTINUOUS
10
5.22304
20
-4.33106
11
5.21801
21
-4.33536
0
LINE
8
BLACK
6
CONTINUOUS
10
5.21801
20
-4.33536
11
5.21209
21
-4.33833
0
LINE
8
BLACK
6
CONTINUOUS
10
5.21209
20
-4.33833
11
5.20564
21
-4.33981
0
LINE
8
BLACK
6
CONTINUOUS
10
5.20564
20
-4.33981
11
5.19902
21
-4.33971
0
LINE
8
BLACK
6
CONTINUOUS
10
5.19902
20
-4.33971
11
5.19261
21
-4.33803
0
LINE
8
BLACK
6
CONTINUOUS
10
5.19261
20
-4.33803
11
5.18679
21
-4.33487
0
LINE
8
BLACK
6
CONTINUOUS
10
5.18679
20
-4.33487
11
5.18189
21
-4.33041
0
LINE
8
BLACK
6
CONTINUOUS
10
5.18189
20
-4.33041
11
5.1782
21
-4.32491
0
LINE
8
BLACK
6
CONTINUOUS
10
5.1782
20
-4.32491
11
5.17592
21
-4.31869
0
LINE
8
BLACK
6
CONTINUOUS
10
5.17592
20
-4.31869
11
5.1752
21
-4.31211
0
LINE
8
BLACK
6
CONTINUOUS
10
5.1752
20
-4.31211
11
5.17606
21
-4.30555
0
LINE
8
BLACK
6
CONTINUOUS
10
5.17606
20
-4.30555
11
5.17847
21
-4.29938
0
LINE
8
BLACK
6
CONTINUOUS
10
5.17847
20
-4.29938
11
5.18228
21
-4.29396
0
LINE
8
BLACK
6
CONTINUOUS
10
5.18228
20
-4.29396
11
5.18727
21
-4.28961
0
LINE
8
BLACK
6
CONTINUOUS
10
5.18727
20
-4.28961
11
5.19315
21
-4.28657
0
LINE
8
BLACK
6
CONTINUOUS
10
5.19315
20
-4.28657
11
5.19959
21
-4.28503
0
LINE
8
BLACK
6
CONTINUOUS
10
5.19959
20
-4.28503
11
5.20621
21
-4.28506
0
LINE
8
BLACK
6
CONTINUOUS
10
5.62747
20
-4.25002
11
5.63389
21
-4.25163
0
LINE
8
BLACK
6
CONTINUOUS
10
5.63389
20
-4.25163
11
5.63974
21
-4.25473
0
LINE
8
BLACK
6
CONTINUOUS
10
5.63974
20
-4.25473
11
5.64469
21
-4.25914
0
LINE
8
BLACK
6
CONTINUOUS
10
5.64469
20
-4.25914
11
5.64844
21
-4.26459
0
LINE
8
BLACK
6
CONTINUOUS
10
5.64844
20
-4.26459
11
5.65078
21
-4.27079
0
LINE
8
BLACK
6
CONTINUOUS
10
5.65078
20
-4.27079
11
5.65157
21
-4.27736
0
LINE
8
BLACK
6
CONTINUOUS
10
5.65157
20
-4.27736
11
5.65157
21
-4.27794
0
LINE
8
BLACK
6
CONTINUOUS
10
5.65157
20
-4.27794
11
5.65064
21
-4.28449
0
LINE
8
BLACK
6
CONTINUOUS
10
5.65064
20
-4.28449
11
5.64817
21
-4.29064
0
LINE
8
BLACK
6
CONTINUOUS
10
5.64817
20
-4.29064
11
5.6443
21
-4.29602
0
LINE
8
BLACK
6
CONTINUOUS
10
5.6443
20
-4.29602
11
5.63927
21
-4.30032
0
LINE
8
BLACK
6
CONTINUOUS
10
5.63927
20
-4.30032
11
5.63335
21
-4.30329
0
LINE
8
BLACK
6
CONTINUOUS
10
5.63335
20
-4.30329
11
5.6269
21
-4.30477
0
LINE
8
BLACK
6
CONTINUOUS
10
5.6269
20
-4.30477
11
5.62028
21
-4.30467
0
LINE
8
BLACK
6
CONTINUOUS
10
5.62028
20
-4.30467
11
5.61387
21
-4.30299
0
LINE
8
BLACK
6
CONTINUOUS
10
5.61387
20
-4.30299
11
5.60805
21
-4.29983
0
LINE
8
BLACK
6
CONTINUOUS
10
5.60805
20
-4.29983
11
5.60315
21
-4.29537
0
LINE
8
BLACK
6
CONTINUOUS
10
5.60315
20
-4.29537
11
5.59946
21
-4.28987
0
LINE
8
BLACK
6
CONTINUOUS
10
5.59946
20
-4.28987
11
5.59718
21
-4.28366
0
LINE
8
BLACK
6
CONTINUOUS
10
5.59718
20
-4.28366
11
5.59646
21
-4.27707
0
LINE
8
BLACK
6
CONTINUOUS
10
5.59646
20
-4.27707
11
5.59732
21
-4.27051
0
LINE
8
BLACK
6
CONTINUOUS
10
5.59732
20
-4.27051
11
5.59973
21
-4.26434
0
LINE
8
BLACK
6
CONTINUOUS
10
5.59973
20
-4.26434
11
5.60354
21
-4.25892
0
LINE
8
BLACK
6
CONTINUOUS
10
5.60354
20
-4.25892
11
5.60853
21
-4.25457
0
LINE
8
BLACK
6
CONTINUOUS
10
5.60853
20
-4.25457
11
5.61441
21
-4.25153
0
LINE
8
BLACK
6
CONTINUOUS
10
5.61441
20
-4.25153
11
5.62085
21
-4.24999
0
LINE
8
BLACK
6
CONTINUOUS
10
5.62085
20
-4.24999
11
5.62747
21
-4.25002
0
LINE
8
BLACK
6
CONTINUOUS
10
6.21396
20
-4.24529
11
6.22015
21
-4.24684
0
LINE
8
BLACK
6
CONTINUOUS
10
6.22015
20
-4.24684
11
6.2258
21
-4.24983
0
LINE
8
BLACK
6
CONTINUOUS
10
6.2258
20
-4.24983
11
6.23056
21
-4.25408
0
LINE
8
BLACK
6
CONTINUOUS
10
6.23056
20
-4.25408
11
6.23418
21
-4.25934
0
LINE
8
BLACK
6
CONTINUOUS
10
6.23418
20
-4.25934
11
6.23644
21
-4.26531
0
LINE
8
BLACK
6
CONTINUOUS
10
6.23644
20
-4.26531
11
6.2372
21
-4.27165
0
LINE
8
BLACK
6
CONTINUOUS
10
6.2372
20
-4.27165
11
6.2372
21
-4.27221
0
LINE
8
BLACK
6
CONTINUOUS
10
6.2372
20
-4.27221
11
6.2363
21
-4.27853
0
LINE
8
BLACK
6
CONTINUOUS
10
6.2363
20
-4.27853
11
6.23392
21
-4.28446
0
LINE
8
BLACK
6
CONTINUOUS
10
6.23392
20
-4.28446
11
6.23019
21
-4.28964
0
LINE
8
BLACK
6
CONTINUOUS
10
6.23019
20
-4.28964
11
6.22534
21
-4.29379
0
LINE
8
BLACK
6
CONTINUOUS
10
6.22534
20
-4.29379
11
6.21963
21
-4.29666
0
LINE
8
BLACK
6
CONTINUOUS
10
6.21963
20
-4.29666
11
6.21341
21
-4.29808
0
LINE
8
BLACK
6
CONTINUOUS
10
6.21341
20
-4.29808
11
6.20702
21
-4.29798
0
LINE
8
BLACK
6
CONTINUOUS
10
6.20702
20
-4.29798
11
6.20085
21
-4.29636
0
LINE
8
BLACK
6
CONTINUOUS
10
6.20085
20
-4.29636
11
6.19524
21
-4.29332
0
LINE
8
BLACK
6
CONTINUOUS
10
6.19524
20
-4.29332
11
6.19051
21
-4.28902
0
LINE
8
BLACK
6
CONTINUOUS
10
6.19051
20
-4.28902
11
6.18695
21
-4.28372
0
LINE
8
BLACK
6
CONTINUOUS
10
6.18695
20
-4.28372
11
6.18476
21
-4.27772
0
LINE
8
BLACK
6
CONTINUOUS
10
6.18476
20
-4.27772
11
6.18406
21
-4.27138
0
LINE
8
BLACK
6
CONTINUOUS
10
6.18406
20
-4.27138
11
6.18489
21
-4.26504
0
LINE
8
BLACK
6
CONTINUOUS
10
6.18489
20
-4.26504
11
6.18721
21
-4.2591
0
LINE
8
BLACK
6
CONTINUOUS
10
6.18721
20
-4.2591
11
6.19088
21
-4.25387
0
LINE
8
BLACK
6
CONTINUOUS
10
6.19088
20
-4.25387
11
6.19569
21
-4.24967
0
LINE
8
BLACK
6
CONTINUOUS
10
6.19569
20
-4.24967
11
6.20137
21
-4.24675
0
LINE
8
BLACK
6
CONTINUOUS
10
6.20137
20
-4.24675
11
6.20758
21
-4.24525
0
LINE
8
BLACK
6
CONTINUOUS
10
6.20758
20
-4.24525
11
6.21396
21
-4.24529
0
LINE
8
BLACK
6
CONTINUOUS
10
5.20621
20
-4.21498
11
5.21263
21
-4.21659
0
LINE
8
BLACK
6
CONTINUOUS
10
5.21263
20
-4.21659
11
5.21848
21
-4.21969
0
LINE
8
BLACK
6
CONTINUOUS
10
5.21848
20
-4.21969
11
5.22343
21
-4.2241
0
LINE
8
BLACK
6
CONTINUOUS
10
5.22343
20
-4.2241
11
5.22718
21
-4.22955
0
LINE
8
BLACK
6
CONTINUOUS
10
5.22718
20
-4.22955
11
5.22952
21
-4.23575
0
LINE
8
BLACK
6
CONTINUOUS
10
5.22952
20
-4.23575
11
5.23031
21
-4.24232
0
LINE
8
BLACK
6
CONTINUOUS
10
5.23031
20
-4.24232
11
5.23031
21
-4.2429
0
LINE
8
BLACK
6
CONTINUOUS
10
5.23031
20
-4.2429
11
5.22938
21
-4.24946
0
LINE
8
BLACK
6
CONTINUOUS
10
5.22938
20
-4.24946
11
5.22691
21
-4.2556
0
LINE
8
BLACK
6
CONTINUOUS
10
5.22691
20
-4.2556
11
5.22304
21
-4.26098
0
LINE
8
BLACK
6
CONTINUOUS
10
5.22304
20
-4.26098
11
5.21801
21
-4.26528
0
LINE
8
BLACK
6
CONTINUOUS
10
5.21801
20
-4.26528
11
5.21209
21
-4.26825
0
LINE
8
BLACK
6
CONTINUOUS
10
5.21209
20
-4.26825
11
5.20564
21
-4.26973
0
LINE
8
BLACK
6
CONTINUOUS
10
5.20564
20
-4.26973
11
5.19902
21
-4.26963
0
LINE
8
BLACK
6
CONTINUOUS
10
5.19902
20
-4.26963
11
5.19261
21
-4.26795
0
LINE
8
BLACK
6
CONTINUOUS
10
5.19261
20
-4.26795
11
5.18679
21
-4.26479
0
LINE
8
BLACK
6
CONTINUOUS
10
5.18679
20
-4.26479
11
5.18189
21
-4.26033
0
LINE
8
BLACK
6
CONTINUOUS
10
5.18189
20
-4.26033
11
5.1782
21
-4.25483
0
LINE
8
BLACK
6
CONTINUOUS
10
5.1782
20
-4.25483
11
5.17592
21
-4.24862
0
LINE
8
BLACK
6
CONTINUOUS
10
5.17592
20
-4.24862
11
5.1752
21
-4.24203
0
LINE
8
BLACK
6
CONTINUOUS
10
5.1752
20
-4.24203
11
5.17606
21
-4.23547
0
LINE
8
BLACK
6
CONTINUOUS
10
5.17606
20
-4.23547
11
5.17847
21
-4.2293
0
LINE
8
BLACK
6
CONTINUOUS
10
5.17847
20
-4.2293
11
5.18228
21
-4.22388
0
LINE
8
BLACK
6
CONTINUOUS
10
5.18228
20
-4.22388
11
5.18727
21
-4.21953
0
LINE
8
BLACK
6
CONTINUOUS
10
5.18727
20
-4.21953
11
5.19315
21
-4.21649
0
LINE
8
BLACK
6
CONTINUOUS
10
5.19315
20
-4.21649
11
5.19959
21
-4.21495
0
LINE
8
BLACK
6
CONTINUOUS
10
5.19959
20
-4.21495
11
5.20621
21
-4.21498
0
LINE
8
BLACK
6
CONTINUOUS
10
5.62747
20
-4.17994
11
5.63389
21
-4.18155
0
LINE
8
BLACK
6
CONTINUOUS
10
5.63389
20
-4.18155
11
5.63974
21
-4.18465
0
LINE
8
BLACK
6
CONTINUOUS
10
5.63974
20
-4.18465
11
5.64469
21
-4.18906
0
LINE
8
BLACK
6
CONTINUOUS
10
5.64469
20
-4.18906
11
5.64844
21
-4.19452
0
LINE
8
BLACK
6
CONTINUOUS
10
5.64844
20
-4.19452
11
5.65078
21
-4.20071
0
LINE
8
BLACK
6
CONTINUOUS
10
5.65078
20
-4.20071
11
5.65157
21
-4.20728
0
LINE
8
BLACK
6
CONTINUOUS
10
5.65157
20
-4.20728
11
5.65157
21
-4.20786
0
LINE
8
BLACK
6
CONTINUOUS
10
5.65157
20
-4.20786
11
5.65064
21
-4.21442
0
LINE
8
BLACK
6
CONTINUOUS
10
5.65064
20
-4.21442
11
5.64817
21
-4.22056
0
LINE
8
BLACK
6
CONTINUOUS
10
5.64817
20
-4.22056
11
5.6443
21
-4.22594
0
LINE
8
BLACK
6
CONTINUOUS
10
5.6443
20
-4.22594
11
5.63927
21
-4.23024
0
LINE
8
BLACK
6
CONTINUOUS
10
5.63927
20
-4.23024
11
5.63335
21
-4.23321
0
LINE
8
BLACK
6
CONTINUOUS
10
5.63335
20
-4.23321
11
5.6269
21
-4.23469
0
LINE
8
BLACK
6
CONTINUOUS
10
5.6269
20
-4.23469
11
5.62028
21
-4.23459
0
LINE
8
BLACK
6
CONTINUOUS
10
5.62028
20
-4.23459
11
5.61387
21
-4.23291
0
LINE
8
BLACK
6
CONTINUOUS
10
5.61387
20
-4.23291
11
5.60805
21
-4.22975
0
LINE
8
BLACK
6
CONTINUOUS
10
5.60805
20
-4.22975
11
5.60315
21
-4.22529
0
LINE
8
BLACK
6
CONTINUOUS
10
5.60315
20
-4.22529
11
5.59946
21
-4.21979
0
LINE
8
BLACK
6
CONTINUOUS
10
5.59946
20
-4.21979
11
5.59718
21
-4.21358
0
LINE
8
BLACK
6
CONTINUOUS
10
5.59718
20
-4.21358
11
5.59646
21
-4.20699
0
LINE
8
BLACK
6
CONTINUOUS
10
5.59646
20
-4.20699
11
5.59732
21
-4.20043
0
LINE
8
BLACK
6
CONTINUOUS
10
5.59732
20
-4.20043
11
5.59973
21
-4.19426
0
LINE
8
BLACK
6
CONTINUOUS
10
5.59973
20
-4.19426
11
5.60354
21
-4.18884
0
LINE
8
BLACK
6
CONTINUOUS
10
5.60354
20
-4.18884
11
5.60853
21
-4.18449
0
LINE
8
BLACK
6
CONTINUOUS
10
5.60853
20
-4.18449
11
5.61441
21
-4.18145
0
LINE
8
BLACK
6
CONTINUOUS
10
5.61441
20
-4.18145
11
5.62085
21
-4.17991
0
LINE
8
BLACK
6
CONTINUOUS
10
5.62085
20
-4.17991
11
5.62747
21
-4.17994
0
LINE
8
BLACK
6
CONTINUOUS
10
6.21396
20
-4.16655
11
6.22015
21
-4.1681
0
LINE
8
BLACK
6
CONTINUOUS
10
6.22015
20
-4.1681
11
6.2258
21
-4.17109
0
LINE
8
BLACK
6
CONTINUOUS
10
6.2258
20
-4.17109
11
6.23056
21
-4.17534
0
LINE
8
BLACK
6
CONTINUOUS
10
6.23056
20
-4.17534
11
6.23418
21
-4.1806
0
LINE
8
BLACK
6
CONTINUOUS
10
6.23418
20
-4.1806
11
6.23644
21
-4.18657
0
LINE
8
BLACK
6
CONTINUOUS
10
6.23644
20
-4.18657
11
6.2372
21
-4.19291
0
LINE
8
BLACK
6
CONTINUOUS
10
6.2372
20
-4.19291
11
6.2372
21
-4.19347
0
LINE
8
BLACK
6
CONTINUOUS
10
6.2372
20
-4.19347
11
6.2363
21
-4.19979
0
LINE
8
BLACK
6
CONTINUOUS
10
6.2363
20
-4.19979
11
6.23392
21
-4.20572
0
LINE
8
BLACK
6
CONTINUOUS
10
6.23392
20
-4.20572
11
6.23019
21
-4.2109
0
LINE
8
BLACK
6
CONTINUOUS
10
6.23019
20
-4.2109
11
6.22534
21
-4.21505
0
LINE
8
BLACK
6
CONTINUOUS
10
6.22534
20
-4.21505
11
6.21963
21
-4.21792
0
LINE
8
BLACK
6
CONTINUOUS
10
6.21963
20
-4.21792
11
6.21341
21
-4.21934
0
LINE
8
BLACK
6
CONTINUOUS
10
6.21341
20
-4.21934
11
6.20702
21
-4.21924
0
LINE
8
BLACK
6
CONTINUOUS
10
6.20702
20
-4.21924
11
6.20085
21
-4.21762
0
LINE
8
BLACK
6
CONTINUOUS
10
6.20085
20
-4.21762
11
6.19524
21
-4.21458
0
LINE
8
BLACK
6
CONTINUOUS
10
6.19524
20
-4.21458
11
6.19051
21
-4.21028
0
LINE
8
BLACK
6
CONTINUOUS
10
6.19051
20
-4.21028
11
6.18695
21
-4.20498
0
LINE
8
BLACK
6
CONTINUOUS
10
6.18695
20
-4.20498
11
6.18476
21
-4.19898
0
LINE
8
BLACK
6
CONTINUOUS
10
6.18476
20
-4.19898
11
6.18406
21
-4.19264
0
LINE
8
BLACK
6
CONTINUOUS
10
6.18406
20
-4.19264
11
6.18489
21
-4.1863
0
LINE
8
BLACK
6
CONTINUOUS
10
6.18489
20
-4.1863
11
6.18721
21
-4.18036
0
LINE
8
BLACK
6
CONTINUOUS
10
6.18721
20
-4.18036
11
6.19088
21
-4.17513
0
LINE
8
BLACK
6
CONTINUOUS
10
6.19088
20
-4.17513
11
6.19569
21
-4.17093
0
LINE
8
BLACK
6
CONTINUOUS
10
6.19569
20
-4.17093
11
6.20137
21
-4.16801
0
LINE
8
BLACK
6
CONTINUOUS
10
6.20137
20
-4.16801
11
6.20758
21
-4.16651
0
LINE
8
BLACK
6
CONTINUOUS
10
6.20758
20
-4.16651
11
6.21396
21
-4.16655
0
LINE
8
BLACK
6
CONTINUOUS
10
5.00674
20
-4.14448
11
5.01294
21
-4.14669
0
LINE
8
BLACK
6
CONTINUOUS
10
5.01294
20
-4.14669
11
5.0185
21
-4.15022
0
LINE
8
BLACK
6
CONTINUOUS
10
5.0185
20
-4.15022
11
5.02314
21
-4.15489
0
LINE
8
BLACK
6
CONTINUOUS
10
5.02314
20
-4.15489
11
5.02663
21
-4.16047
0
LINE
8
BLACK
6
CONTINUOUS
10
5.02663
20
-4.16047
11
5.02879
21
-4.16669
0
LINE
8
BLACK
6
CONTINUOUS
10
5.02879
20
-4.16669
11
5.02953
21
-4.17323
0
LINE
8
BLACK
6
CONTINUOUS
10
5.02953
20
-4.17323
11
5.02952
21
-4.17405
0
LINE
8
BLACK
6
CONTINUOUS
10
5.02952
20
-4.17405
11
5.0286
21
-4.18057
0
LINE
8
BLACK
6
CONTINUOUS
10
5.0286
20
-4.18057
11
5.02626
21
-4.18673
0
LINE
8
BLACK
6
CONTINUOUS
10
5.02626
20
-4.18673
11
5.02262
21
-4.19221
0
LINE
8
BLACK
6
CONTINUOUS
10
5.02262
20
-4.19221
11
5.01785
21
-4.19675
0
LINE
8
BLACK
6
CONTINUOUS
10
5.01785
20
-4.19675
11
5.0122
21
-4.20012
0
LINE
8
BLACK
6
CONTINUOUS
10
5.0122
20
-4.20012
11
5.00594
21
-4.20215
0
LINE
8
BLACK
6
CONTINUOUS
10
5.00594
20
-4.20215
11
4.99938
21
-4.20275
0
LINE
8
BLACK
6
CONTINUOUS
10
4.99938
20
-4.20275
11
4.99286
21
-4.20188
0
LINE
8
BLACK
6
CONTINUOUS
10
4.99286
20
-4.20188
11
4.98669
21
-4.19958
0
LINE
8
BLACK
6
CONTINUOUS
10
4.98669
20
-4.19958
11
4.98118
21
-4.19598
0
LINE
8
BLACK
6
CONTINUOUS
10
4.98118
20
-4.19598
11
4.97661
21
-4.19124
0
LINE
8
BLACK
6
CONTINUOUS
10
4.97661
20
-4.19124
11
4.9732
21
-4.18561
0
LINE
8
BLACK
6
CONTINUOUS
10
4.9732
20
-4.18561
11
4.97112
21
-4.17937
0
LINE
8
BLACK
6
CONTINUOUS
10
4.97112
20
-4.17937
11
4.97048
21
-4.17282
0
LINE
8
BLACK
6
CONTINUOUS
10
4.97048
20
-4.17282
11
4.9713
21
-4.16629
0
LINE
8
BLACK
6
CONTINUOUS
10
4.9713
20
-4.16629
11
4.97355
21
-4.1601
0
LINE
8
BLACK
6
CONTINUOUS
10
4.97355
20
-4.1601
11
4.97712
21
-4.15457
0
LINE
8
BLACK
6
CONTINUOUS
10
4.97712
20
-4.15457
11
4.98182
21
-4.14996
0
LINE
8
BLACK
6
CONTINUOUS
10
4.98182
20
-4.14996
11
4.98743
21
-4.14651
0
LINE
8
BLACK
6
CONTINUOUS
10
4.98743
20
-4.14651
11
4.99366
21
-4.14439
0
LINE
8
BLACK
6
CONTINUOUS
10
4.99366
20
-4.14439
11
5.00021
21
-4.1437
0
LINE
8
BLACK
6
CONTINUOUS
10
5.00021
20
-4.1437
11
5.00674
21
-4.14448
0
LINE
8
BLACK
6
CONTINUOUS
10
5.20621
20
-4.1449
11
5.21263
21
-4.14652
0
LINE
8
BLACK
6
CONTINUOUS
10
5.21263
20
-4.14652
11
5.21848
21
-4.14961
0
LINE
8
BLACK
6
CONTINUOUS
10
5.21848
20
-4.14961
11
5.22343
21
-4.15402
0
LINE
8
BLACK
6
CONTINUOUS
10
5.22343
20
-4.15402
11
5.22718
21
-4.15948
0
LINE
8
BLACK
6
CONTINUOUS
10
5.22718
20
-4.15948
11
5.22952
21
-4.16567
0
LINE
8
BLACK
6
CONTINUOUS
10
5.22952
20
-4.16567
11
5.23031
21
-4.17224
0
LINE
8
BLACK
6
CONTINUOUS
10
5.23031
20
-4.17224
11
5.23031
21
-4.17282
0
LINE
8
BLACK
6
CONTINUOUS
10
5.23031
20
-4.17282
11
5.22938
21
-4.17938
0
LINE
8
BLACK
6
CONTINUOUS
10
5.22938
20
-4.17938
11
5.22691
21
-4.18552
0
LINE
8
BLACK
6
CONTINUOUS
10
5.22691
20
-4.18552
11
5.22304
21
-4.1909
0
LINE
8
BLACK
6
CONTINUOUS
10
5.22304
20
-4.1909
11
5.21801
21
-4.1952
0
LINE
8
BLACK
6
CONTINUOUS
10
5.21801
20
-4.1952
11
5.21209
21
-4.19817
0
LINE
8
BLACK
6
CONTINUOUS
10
5.21209
20
-4.19817
11
5.20564
21
-4.19965
0
LINE
8
BLACK
6
CONTINUOUS
10
5.20564
20
-4.19965
11
5.19902
21
-4.19955
0
LINE
8
BLACK
6
CONTINUOUS
10
5.19902
20
-4.19955
11
5.19261
21
-4.19787
0
LINE
8
BLACK
6
CONTINUOUS
10
5.19261
20
-4.19787
11
5.18679
21
-4.19471
0
LINE
8
BLACK
6
CONTINUOUS
10
5.18679
20
-4.19471
11
5.18189
21
-4.19025
0
LINE
8
BLACK
6
CONTINUOUS
10
5.18189
20
-4.19025
11
5.1782
21
-4.18476
0
LINE
8
BLACK
6
CONTINUOUS
10
5.1782
20
-4.18476
11
5.17592
21
-4.17854
0
LINE
8
BLACK
6
CONTINUOUS
10
5.17592
20
-4.17854
11
5.1752
21
-4.17196
0
LINE
8
BLACK
6
CONTINUOUS
10
5.1752
20
-4.17196
11
5.17606
21
-4.16539
0
LINE
8
BLACK
6
CONTINUOUS
10
5.17606
20
-4.16539
11
5.17847
21
-4.15922
0
LINE
8
BLACK
6
CONTINUOUS
10
5.17847
20
-4.15922
11
5.18228
21
-4.1538
0
LINE
8
BLACK
6
CONTINUOUS
10
5.18228
20
-4.1538
11
5.18727
21
-4.14945
0
LINE
8
BLACK
6
CONTINUOUS
10
5.18727
20
-4.14945
11
5.19315
21
-4.14641
0
LINE
8
BLACK
6
CONTINUOUS
10
5.19315
20
-4.14641
11
5.19959
21
-4.14487
0
LINE
8
BLACK
6
CONTINUOUS
10
5.19959
20
-4.14487
11
5.20621
21
-4.1449
0
LINE
8
BLACK
6
CONTINUOUS
10
5.62747
20
-4.10986
11
5.63389
21
-4.11148
0
LINE
8
BLACK
6
CONTINUOUS
10
5.63389
20
-4.11148
11
5.63974
21
-4.11457
0
LINE
8
BLACK
6
CONTINUOUS
10
5.63974
20
-4.11457
11
5.64469
21
-4.11898
0
LINE
8
BLACK
6
CONTINUOUS
10
5.64469
20
-4.11898
11
5.64844
21
-4.12444
0
LINE
8
BLACK
6
CONTINUOUS
10
5.64844
20
-4.12444
11
5.65078
21
-4.13063
0
LINE
8
BLACK
6
CONTINUOUS
10
5.65078
20
-4.13063
11
5.65157
21
-4.1372
0
LINE
8
BLACK
6
CONTINUOUS
10
5.65157
20
-4.1372
11
5.65157
21
-4.13778
0
LINE
8
BLACK
6
CONTINUOUS
10
5.65157
20
-4.13778
11
5.65064
21
-4.14434
0
LINE
8
BLACK
6
CONTINUOUS
10
5.65064
20
-4.14434
11
5.64817
21
-4.15048
0
LINE
8
BLACK
6
CONTINUOUS
10
5.64817
20
-4.15048
11
5.6443
21
-4.15586
0
LINE
8
BLACK
6
CONTINUOUS
10
5.6443
20
-4.15586
11
5.63927
21
-4.16016
0
LINE
8
BLACK
6
CONTINUOUS
10
5.63927
20
-4.16016
11
5.63335
21
-4.16313
0
LINE
8
BLACK
6
CONTINUOUS
10
5.63335
20
-4.16313
11
5.6269
21
-4.16461
0
LINE
8
BLACK
6
CONTINUOUS
10
5.6269
20
-4.16461
11
5.62028
21
-4.16451
0
LINE
8
BLACK
6
CONTINUOUS
10
5.62028
20
-4.16451
11
5.61387
21
-4.16283
0
LINE
8
BLACK
6
CONTINUOUS
10
5.61387
20
-4.16283
11
5.60805
21
-4.15967
0
LINE
8
BLACK
6
CONTINUOUS
10
5.60805
20
-4.15967
11
5.60315
21
-4.15521
0
LINE
8
BLACK
6
CONTINUOUS
10
5.60315
20
-4.15521
11
5.59946
21
-4.14972
0
LINE
8
BLACK
6
CONTINUOUS
10
5.59946
20
-4.14972
11
5.59718
21
-4.1435
0
LINE
8
BLACK
6
CONTINUOUS
10
5.59718
20
-4.1435
11
5.59646
21
-4.13692
0
LINE
8
BLACK
6
CONTINUOUS
10
5.59646
20
-4.13692
11
5.59732
21
-4.13035
0
LINE
8
BLACK
6
CONTINUOUS
10
5.59732
20
-4.13035
11
5.59973
21
-4.12418
0
LINE
8
BLACK
6
CONTINUOUS
10
5.59973
20
-4.12418
11
5.60354
21
-4.11876
0
LINE
8
BLACK
6
CONTINUOUS
10
5.60354
20
-4.11876
11
5.60853
21
-4.11441
0
LINE
8
BLACK
6
CONTINUOUS
10
5.60853
20
-4.11441
11
5.61441
21
-4.11137
0
LINE
8
BLACK
6
CONTINUOUS
10
5.61441
20
-4.11137
11
5.62085
21
-4.10983
0
LINE
8
BLACK
6
CONTINUOUS
10
5.62085
20
-4.10983
11
5.62747
21
-4.10986
0
LINE
8
BLACK
6
CONTINUOUS
10
6.21396
20
-4.08781
11
6.22015
21
-4.08936
0
LINE
8
BLACK
6
CONTINUOUS
10
6.22015
20
-4.08936
11
6.2258
21
-4.09235
0
LINE
8
BLACK
6
CONTINUOUS
10
6.2258
20
-4.09235
11
6.23056
21
-4.0966
0
LINE
8
BLACK
6
CONTINUOUS
10
6.23056
20
-4.0966
11
6.23418
21
-4.10186
0
LINE
8
BLACK
6
CONTINUOUS
10
6.23418
20
-4.10186
11
6.23644
21
-4.10783
0
LINE
8
BLACK
6
CONTINUOUS
10
6.23644
20
-4.10783
11
6.2372
21
-4.11417
0
LINE
8
BLACK
6
CONTINUOUS
10
6.2372
20
-4.11417
11
6.2372
21
-4.11473
0
LINE
8
BLACK
6
CONTINUOUS
10
6.2372
20
-4.11473
11
6.2363
21
-4.12105
0
LINE
8
BLACK
6
CONTINUOUS
10
6.2363
20
-4.12105
11
6.23392
21
-4.12698
0
LINE
8
BLACK
6
CONTINUOUS
10
6.23392
20
-4.12698
11
6.23019
21
-4.13216
0
LINE
8
BLACK
6
CONTINUOUS
10
6.23019
20
-4.13216
11
6.22534
21
-4.13631
0
LINE
8
BLACK
6
CONTINUOUS
10
6.22534
20
-4.13631
11
6.21963
21
-4.13918
0
LINE
8
BLACK
6
CONTINUOUS
10
6.21963
20
-4.13918
11
6.21341
21
-4.1406
0
LINE
8
BLACK
6
CONTINUOUS
10
6.21341
20
-4.1406
11
6.20702
21
-4.1405
0
LINE
8
BLACK
6
CONTINUOUS
10
6.20702
20
-4.1405
11
6.20085
21
-4.13888
0
LINE
8
BLACK
6
CONTINUOUS
10
6.20085
20
-4.13888
11
6.19524
21
-4.13584
0
LINE
8
BLACK
6
CONTINUOUS
10
6.19524
20
-4.13584
11
6.19051
21
-4.13154
0
LINE
8
BLACK
6
CONTINUOUS
10
6.19051
20
-4.13154
11
6.18695
21
-4.12624
0
LINE
8
BLACK
6
CONTINUOUS
10
6.18695
20
-4.12624
11
6.18476
21
-4.12024
0
LINE
8
BLACK
6
CONTINUOUS
10
6.18476
20
-4.12024
11
6.18406
21
-4.11389
0
LINE
8
BLACK
6
CONTINUOUS
10
6.18406
20
-4.11389
11
6.18489
21
-4.10756
0
LINE
8
BLACK
6
CONTINUOUS
10
6.18489
20
-4.10756
11
6.18721
21
-4.10162
0
LINE
8
BLACK
6
CONTINUOUS
10
6.18721
20
-4.10162
11
6.19088
21
-4.09639
0
LINE
8
BLACK
6
CONTINUOUS
10
6.19088
20
-4.09639
11
6.19569
21
-4.09219
0
LINE
8
BLACK
6
CONTINUOUS
10
6.19569
20
-4.09219
11
6.20137
21
-4.08927
0
LINE
8
BLACK
6
CONTINUOUS
10
6.20137
20
-4.08927
11
6.20758
21
-4.08777
0
LINE
8
BLACK
6
CONTINUOUS
10
6.20758
20
-4.08777
11
6.21396
21
-4.08781
0
LINE
8
BLACK
6
CONTINUOUS
10
5.20621
20
-4.07482
11
5.21263
21
-4.07644
0
LINE
8
BLACK
6
CONTINUOUS
10
5.21263
20
-4.07644
11
5.21848
21
-4.07954
0
LINE
8
BLACK
6
CONTINUOUS
10
5.21848
20
-4.07954
11
5.22343
21
-4.08394
0
LINE
8
BLACK
6
CONTINUOUS
10
5.22343
20
-4.08394
11
5.22718
21
-4.0894
0
LINE
8
BLACK
6
CONTINUOUS
10
5.22718
20
-4.0894
11
5.22952
21
-4.09559
0
LINE
8
BLACK
6
CONTINUOUS
10
5.22952
20
-4.09559
11
5.23031
21
-4.10217
0
LINE
8
BLACK
6
CONTINUOUS
10
5.23031
20
-4.10217
11
5.23031
21
-4.10274
0
LINE
8
BLACK
6
CONTINUOUS
10
5.23031
20
-4.10274
11
5.22938
21
-4.1093
0
LINE
8
BLACK
6
CONTINUOUS
10
5.22938
20
-4.1093
11
5.22691
21
-4.11544
0
LINE
8
BLACK
6
CONTINUOUS
10
5.22691
20
-4.11544
11
5.22304
21
-4.12082
0
LINE
8
BLACK
6
CONTINUOUS
10
5.22304
20
-4.12082
11
5.21801
21
-4.12512
0
LINE
8
BLACK
6
CONTINUOUS
10
5.21801
20
-4.12512
11
5.21209
21
-4.1281
0
LINE
8
BLACK
6
CONTINUOUS
10
5.21209
20
-4.1281
11
5.20564
21
-4.12957
0
LINE
8
BLACK
6
CONTINUOUS
10
5.20564
20
-4.12957
11
5.19902
21
-4.12947
0
LINE
8
BLACK
6
CONTINUOUS
10
5.19902
20
-4.12947
11
5.19261
21
-4.12779
0
LINE
8
BLACK
6
CONTINUOUS
10
5.19261
20
-4.12779
11
5.18679
21
-4.12463
0
LINE
8
BLACK
6
CONTINUOUS
10
5.18679
20
-4.12463
11
5.18189
21
-4.12017
0
LINE
8
BLACK
6
CONTINUOUS
10
5.18189
20
-4.12017
11
5.1782
21
-4.11468
0
LINE
8
BLACK
6
CONTINUOUS
10
5.1782
20
-4.11468
11
5.17592
21
-4.10846
0
LINE
8
BLACK
6
CONTINUOUS
10
5.17592
20
-4.10846
11
5.1752
21
-4.10188
0
LINE
8
BLACK
6
CONTINUOUS
10
5.1752
20
-4.10188
11
5.17606
21
-4.09531
0
LINE
8
BLACK
6
CONTINUOUS
10
5.17606
20
-4.09531
11
5.17847
21
-4.08914
0
LINE
8
BLACK
6
CONTINUOUS
10
5.17847
20
-4.08914
11
5.18228
21
-4.08372
0
LINE
8
BLACK
6
CONTINUOUS
10
5.18228
20
-4.08372
11
5.18727
21
-4.07937
0
LINE
8
BLACK
6
CONTINUOUS
10
5.18727
20
-4.07937
11
5.19315
21
-4.07633
0
LINE
8
BLACK
6
CONTINUOUS
10
5.19315
20
-4.07633
11
5.19959
21
-4.07479
0
LINE
8
BLACK
6
CONTINUOUS
10
5.19959
20
-4.07479
11
5.20621
21
-4.07482
0
LINE
8
BLACK
6
CONTINUOUS
10
5.62747
20
-4.03978
11
5.63389
21
-4.0414
0
LINE
8
BLACK
6
CONTINUOUS
10
5.63389
20
-4.0414
11
5.63974
21
-4.0445
0
LINE
8
BLACK
6
CONTINUOUS
10
5.63974
20
-4.0445
11
5.64469
21
-4.0489
0
LINE
8
BLACK
6
CONTINUOUS
10
5.64469
20
-4.0489
11
5.64844
21
-4.05436
0
LINE
8
BLACK
6
CONTINUOUS
10
5.64844
20
-4.05436
11
5.65078
21
-4.06055
0
LINE
8
BLACK
6
CONTINUOUS
10
5.65078
20
-4.06055
11
5.65157
21
-4.06713
0
LINE
8
BLACK
6
CONTINUOUS
10
5.65157
20
-4.06713
11
5.65157
21
-4.0677
0
LINE
8
BLACK
6
CONTINUOUS
10
5.65157
20
-4.0677
11
5.65064
21
-4.07426
0
LINE
8
BLACK
6
CONTINUOUS
10
5.65064
20
-4.07426
11
5.64817
21
-4.0804
0
LINE
8
BLACK
6
CONTINUOUS
10
5.64817
20
-4.0804
11
5.6443
21
-4.08578
0
LINE
8
BLACK
6
CONTINUOUS
10
5.6443
20
-4.08578
11
5.63927
21
-4.09008
0
LINE
8
BLACK
6
CONTINUOUS
10
5.63927
20
-4.09008
11
5.63335
21
-4.09306
0
LINE
8
BLACK
6
CONTINUOUS
10
5.63335
20
-4.09306
11
5.6269
21
-4.09453
0
LINE
8
BLACK
6
CONTINUOUS
10
5.6269
20
-4.09453
11
5.62028
21
-4.09443
0
LINE
8
BLACK
6
CONTINUOUS
10
5.62028
20
-4.09443
11
5.61387
21
-4.09275
0
LINE
8
BLACK
6
CONTINUOUS
10
5.61387
20
-4.09275
11
5.60805
21
-4.08959
0
LINE
8
BLACK
6
CONTINUOUS
10
5.60805
20
-4.08959
11
5.60315
21
-4.08513
0
LINE
8
BLACK
6
CONTINUOUS
10
5.60315
20
-4.08513
11
5.59946
21
-4.07964
0
LINE
8
BLACK
6
CONTINUOUS
10
5.59946
20
-4.07964
11
5.59718
21
-4.07342
0
LINE
8
BLACK
6
CONTINUOUS
10
5.59718
20
-4.07342
11
5.59646
21
-4.06684
0
LINE
8
BLACK
6
CONTINUOUS
10
5.59646
20
-4.06684
11
5.59732
21
-4.06027
0
LINE
8
BLACK
6
CONTINUOUS
10
5.59732
20
-4.06027
11
5.59973
21
-4.0541
0
LINE
8
BLACK
6
CONTINUOUS
10
5.59973
20
-4.0541
11
5.60354
21
-4.04869
0
LINE
8
BLACK
6
CONTINUOUS
10
5.60354
20
-4.04869
11
5.60853
21
-4.04433
0
LINE
8
BLACK
6
CONTINUOUS
10
5.60853
20
-4.04433
11
5.61441
21
-4.0413
0
LINE
8
BLACK
6
CONTINUOUS
10
5.61441
20
-4.0413
11
5.62085
21
-4.03975
0
LINE
8
BLACK
6
CONTINUOUS
10
5.62085
20
-4.03975
11
5.62747
21
-4.03978
0
LINE
8
BLACK
6
CONTINUOUS
10
5.00674
20
-4.00669
11
5.01294
21
-4.00889
0
LINE
8
BLACK
6
CONTINUOUS
10
5.01294
20
-4.00889
11
5.0185
21
-4.01242
0
LINE
8
BLACK
6
CONTINUOUS
10
5.0185
20
-4.01242
11
5.02314
21
-4.01709
0
LINE
8
BLACK
6
CONTINUOUS
10
5.02314
20
-4.01709
11
5.02663
21
-4.02267
0
LINE
8
BLACK
6
CONTINUOUS
10
5.02663
20
-4.02267
11
5.02879
21
-4.02889
0
LINE
8
BLACK
6
CONTINUOUS
10
5.02879
20
-4.02889
11
5.02953
21
-4.03543
0
LINE
8
BLACK
6
CONTINUOUS
10
5.02953
20
-4.03543
11
5.02952
21
-4.03626
0
LINE
8
BLACK
6
CONTINUOUS
10
5.02952
20
-4.03626
11
5.0286
21
-4.04278
0
LINE
8
BLACK
6
CONTINUOUS
10
5.0286
20
-4.04278
11
5.02626
21
-4.04893
0
LINE
8
BLACK
6
CONTINUOUS
10
5.02626
20
-4.04893
11
5.02262
21
-4.05441
0
LINE
8
BLACK
6
CONTINUOUS
10
5.02262
20
-4.05441
11
5.01785
21
-4.05895
0
LINE
8
BLACK
6
CONTINUOUS
10
5.01785
20
-4.05895
11
5.0122
21
-4.06232
0
LINE
8
BLACK
6
CONTINUOUS
10
5.0122
20
-4.06232
11
5.00594
21
-4.06436
0
LINE
8
BLACK
6
CONTINUOUS
10
5.00594
20
-4.06436
11
4.99938
21
-4.06495
0
LINE
8
BLACK
6
CONTINUOUS
10
4.99938
20
-4.06495
11
4.99286
21
-4.06408
0
LINE
8
BLACK
6
CONTINUOUS
10
4.99286
20
-4.06408
11
4.98669
21
-4.06179
0
LINE
8
BLACK
6
CONTINUOUS
10
4.98669
20
-4.06179
11
4.98118
21
-4.05818
0
LINE
8
BLACK
6
CONTINUOUS
10
4.98118
20
-4.05818
11
4.97661
21
-4.05345
0
LINE
8
BLACK
6
CONTINUOUS
10
4.97661
20
-4.05345
11
4.9732
21
-4.04782
0
LINE
8
BLACK
6
CONTINUOUS
10
4.9732
20
-4.04782
11
4.97112
21
-4.04157
0
LINE
8
BLACK
6
CONTINUOUS
10
4.97112
20
-4.04157
11
4.97048
21
-4.03502
0
LINE
8
BLACK
6
CONTINUOUS
10
4.97048
20
-4.03502
11
4.9713
21
-4.02849
0
LINE
8
BLACK
6
CONTINUOUS
10
4.9713
20
-4.02849
11
4.97355
21
-4.0223
0
LINE
8
BLACK
6
CONTINUOUS
10
4.97355
20
-4.0223
11
4.97712
21
-4.01677
0
LINE
8
BLACK
6
CONTINUOUS
10
4.97712
20
-4.01677
11
4.98182
21
-4.01217
0
LINE
8
BLACK
6
CONTINUOUS
10
4.98182
20
-4.01217
11
4.98743
21
-4.00872
0
LINE
8
BLACK
6
CONTINUOUS
10
4.98743
20
-4.00872
11
4.99366
21
-4.00659
0
LINE
8
BLACK
6
CONTINUOUS
10
4.99366
20
-4.00659
11
5.00021
21
-4.00591
0
LINE
8
BLACK
6
CONTINUOUS
10
5.00021
20
-4.00591
11
5.00674
21
-4.00669
0
LINE
8
BLACK
6
CONTINUOUS
10
6.21396
20
-4.00907
11
6.22015
21
-4.01062
0
LINE
8
BLACK
6
CONTINUOUS
10
6.22015
20
-4.01062
11
6.2258
21
-4.01361
0
LINE
8
BLACK
6
CONTINUOUS
10
6.2258
20
-4.01361
11
6.23056
21
-4.01786
0
LINE
8
BLACK
6
CONTINUOUS
10
6.23056
20
-4.01786
11
6.23418
21
-4.02312
0
LINE
8
BLACK
6
CONTINUOUS
10
6.23418
20
-4.02312
11
6.23644
21
-4.02909
0
LINE
8
BLACK
6
CONTINUOUS
10
6.23644
20
-4.02909
11
6.2372
21
-4.03543
0
LINE
8
BLACK
6
CONTINUOUS
10
6.2372
20
-4.03543
11
6.2372
21
-4.03599
0
LINE
8
BLACK
6
CONTINUOUS
10
6.2372
20
-4.03599
11
6.2363
21
-4.04231
0
LINE
8
BLACK
6
CONTINUOUS
10
6.2363
20
-4.04231
11
6.23392
21
-4.04824
0
LINE
8
BLACK
6
CONTINUOUS
10
6.23392
20
-4.04824
11
6.23019
21
-4.05342
0
LINE
8
BLACK
6
CONTINUOUS
10
6.23019
20
-4.05342
11
6.22534
21
-4.05757
0
LINE
8
BLACK
6
CONTINUOUS
10
6.22534
20
-4.05757
11
6.21963
21
-4.06044
0
LINE
8
BLACK
6
CONTINUOUS
10
6.21963
20
-4.06044
11
6.21341
21
-4.06186
0
LINE
8
BLACK
6
CONTINUOUS
10
6.21341
20
-4.06186
11
6.20702
21
-4.06176
0
LINE
8
BLACK
6
CONTINUOUS
10
6.20702
20
-4.06176
11
6.20085
21
-4.06014
0
LINE
8
BLACK
6
CONTINUOUS
10
6.20085
20
-4.06014
11
6.19524
21
-4.05709
0
LINE
8
BLACK
6
CONTINUOUS
10
6.19524
20
-4.05709
11
6.19051
21
-4.0528
0
LINE
8
BLACK
6
CONTINUOUS
10
6.19051
20
-4.0528
11
6.18695
21
-4.0475
0
LINE
8
BLACK
6
CONTINUOUS
10
6.18695
20
-4.0475
11
6.18476
21
-4.0415
0
LINE
8
BLACK
6
CONTINUOUS
10
6.18476
20
-4.0415
11
6.18406
21
-4.03515
0
LINE
8
BLACK
6
CONTINUOUS
10
6.18406
20
-4.03515
11
6.18489
21
-4.02882
0
LINE
8
BLACK
6
CONTINUOUS
10
6.18489
20
-4.02882
11
6.18721
21
-4.02288
0
LINE
8
BLACK
6
CONTINUOUS
10
6.18721
20
-4.02288
11
6.19088
21
-4.01765
0
LINE
8
BLACK
6
CONTINUOUS
10
6.19088
20
-4.01765
11
6.19569
21
-4.01345
0
LINE
8
BLACK
6
CONTINUOUS
10
6.19569
20
-4.01345
11
6.20137
21
-4.01053
0
LINE
8
BLACK
6
CONTINUOUS
10
6.20137
20
-4.01053
11
6.20758
21
-4.00903
0
LINE
8
BLACK
6
CONTINUOUS
10
6.20758
20
-4.00903
11
6.21396
21
-4.00907
0
LINE
8
BLACK
6
CONTINUOUS
10
5.20621
20
-4.00474
11
5.21263
21
-4.00636
0
LINE
8
BLACK
6
CONTINUOUS
10
5.21263
20
-4.00636
11
5.21848
21
-4.00946
0
LINE
8
BLACK
6
CONTINUOUS
10
5.21848
20
-4.00946
11
5.22343
21
-4.01386
0
LINE
8
BLACK
6
CONTINUOUS
10
5.22343
20
-4.01386
11
5.22718
21
-4.01932
0
LINE
8
BLACK
6
CONTINUOUS
10
5.22718
20
-4.01932
11
5.22952
21
-4.02551
0
LINE
8
BLACK
6
CONTINUOUS
10
5.22952
20
-4.02551
11
5.23031
21
-4.03209
0
LINE
8
BLACK
6
CONTINUOUS
10
5.23031
20
-4.03209
11
5.23031
21
-4.03266
0
LINE
8
BLACK
6
CONTINUOUS
10
5.23031
20
-4.03266
11
5.22938
21
-4.03922
0
LINE
8
BLACK
6
CONTINUOUS
10
5.22938
20
-4.03922
11
5.22691
21
-4.04536
0
LINE
8
BLACK
6
CONTINUOUS
10
5.22691
20
-4.04536
11
5.22304
21
-4.05074
0
LINE
8
BLACK
6
CONTINUOUS
10
5.22304
20
-4.05074
11
5.21801
21
-4.05504
0
LINE
8
BLACK
6
CONTINUOUS
10
5.21801
20
-4.05504
11
5.21209
21
-4.05802
0
LINE
8
BLACK
6
CONTINUOUS
10
5.21209
20
-4.05802
11
5.20564
21
-4.05949
0
LINE
8
BLACK
6
CONTINUOUS
10
5.20564
20
-4.05949
11
5.19902
21
-4.05939
0
LINE
8
BLACK
6
CONTINUOUS
10
5.19902
20
-4.05939
11
5.19261
21
-4.05771
0
LINE
8
BLACK
6
CONTINUOUS
10
5.19261
20
-4.05771
11
5.18679
21
-4.05455
0
LINE
8
BLACK
6
CONTINUOUS
10
5.18679
20
-4.05455
11
5.18189
21
-4.05009
0
LINE
8
BLACK
6
CONTINUOUS
10
5.18189
20
-4.05009
11
5.1782
21
-4.0446
0
LINE
8
BLACK
6
CONTINUOUS
10
5.1782
20
-4.0446
11
5.17592
21
-4.03838
0
LINE
8
BLACK
6
CONTINUOUS
10
5.17592
20
-4.03838
11
5.1752
21
-4.0318
0
LINE
8
BLACK
6
CONTINUOUS
10
5.1752
20
-4.0318
11
5.17606
21
-4.02523
0
LINE
8
BLACK
6
CONTINUOUS
10
5.17606
20
-4.02523
11
5.17847
21
-4.01906
0
LINE
8
BLACK
6
CONTINUOUS
10
5.17847
20
-4.01906
11
5.18228
21
-4.01365
0
LINE
8
BLACK
6
CONTINUOUS
10
5.18228
20
-4.01365
11
5.18727
21
-4.00929
0
LINE
8
BLACK
6
CONTINUOUS
10
5.18727
20
-4.00929
11
5.19315
21
-4.00626
0
LINE
8
BLACK
6
CONTINUOUS
10
5.19315
20
-4.00626
11
5.19959
21
-4.00471
0
LINE
8
BLACK
6
CONTINUOUS
10
5.19959
20
-4.00471
11
5.20621
21
-4.00474
0
LINE
8
BLACK
6
CONTINUOUS
10
5.62747
20
-3.96971
11
5.63389
21
-3.97132
0
LINE
8
BLACK
6
CONTINUOUS
10
5.63389
20
-3.97132
11
5.63974
21
-3.97442
0
LINE
8
BLACK
6
CONTINUOUS
10
5.63974
20
-3.97442
11
5.64469
21
-3.97882
0
LINE
8
BLACK
6
CONTINUOUS
10
5.64469
20
-3.97882
11
5.64844
21
-3.98428
0
LINE
8
BLACK
6
CONTINUOUS
10
5.64844
20
-3.98428
11
5.65078
21
-3.99047
0
LINE
8
BLACK
6
CONTINUOUS
10
5.65078
20
-3.99047
11
5.65157
21
-3.99705
0
LINE
8
BLACK
6
CONTINUOUS
10
5.65157
20
-3.99705
11
5.65157
21
-3.99762
0
LINE
8
BLACK
6
CONTINUOUS
10
5.65157
20
-3.99762
11
5.65064
21
-4.00418
0
LINE
8
BLACK
6
CONTINUOUS
10
5.65064
20
-4.00418
11
5.64817
21
-4.01032
0
LINE
8
BLACK
6
CONTINUOUS
10
5.64817
20
-4.01032
11
5.6443
21
-4.0157
0
LINE
8
BLACK
6
CONTINUOUS
10
5.6443
20
-4.0157
11
5.63927
21
-4.02
0
LINE
8
BLACK
6
CONTINUOUS
10
5.63927
20
-4.02
11
5.63335
21
-4.02298
0
LINE
8
BLACK
6
CONTINUOUS
10
5.63335
20
-4.02298
11
5.6269
21
-4.02446
0
LINE
8
BLACK
6
CONTINUOUS
10
5.6269
20
-4.02446
11
5.62028
21
-4.02435
0
LINE
8
BLACK
6
CONTINUOUS
10
5.62028
20
-4.02435
11
5.61387
21
-4.02267
0
LINE
8
BLACK
6
CONTINUOUS
10
5.61387
20
-4.02267
11
5.60805
21
-4.01951
0
LINE
8
BLACK
6
CONTINUOUS
10
5.60805
20
-4.01951
11
5.60315
21
-4.01505
0
LINE
8
BLACK
6
CONTINUOUS
10
5.60315
20
-4.01505
11
5.59946
21
-4.00956
0
LINE
8
BLACK
6
CONTINUOUS
10
5.59946
20
-4.00956
11
5.59718
21
-4.00334
0
LINE
8
BLACK
6
CONTINUOUS
10
5.59718
20
-4.00334
11
5.59646
21
-3.99676
0
LINE
8
BLACK
6
CONTINUOUS
10
5.59646
20
-3.99676
11
5.59732
21
-3.99019
0
LINE
8
BLACK
6
CONTINUOUS
10
5.59732
20
-3.99019
11
5.59973
21
-3.98402
0
LINE
8
BLACK
6
CONTINUOUS
10
5.59973
20
-3.98402
11
5.60354
21
-3.97861
0
LINE
8
BLACK
6
CONTINUOUS
10
5.60354
20
-3.97861
11
5.60853
21
-3.97425
0
LINE
8
BLACK
6
CONTINUOUS
10
5.60853
20
-3.97425
11
5.61441
21
-3.97122
0
LINE
8
BLACK
6
CONTINUOUS
10
5.61441
20
-3.97122
11
5.62085
21
-3.96967
0
LINE
8
BLACK
6
CONTINUOUS
10
5.62085
20
-3.96967
11
5.62747
21
-3.96971
0
LINE
8
BLACK
6
CONTINUOUS
10
5.20621
20
-3.93467
11
5.21263
21
-3.93628
0
LINE
8
BLACK
6
CONTINUOUS
10
5.21263
20
-3.93628
11
5.21848
21
-3.93938
0
LINE
8
BLACK
6
CONTINUOUS
10
5.21848
20
-3.93938
11
5.22343
21
-3.94378
0
LINE
8
BLACK
6
CONTINUOUS
10
5.22343
20
-3.94378
11
5.22718
21
-3.94924
0
LINE
8
BLACK
6
CONTINUOUS
10
5.22718
20
-3.94924
11
5.22952
21
-3.95543
0
LINE
8
BLACK
6
CONTINUOUS
10
5.22952
20
-3.95543
11
5.23031
21
-3.96201
0
LINE
8
BLACK
6
CONTINUOUS
10
5.23031
20
-3.96201
11
5.23031
21
-3.96259
0
LINE
8
BLACK
6
CONTINUOUS
10
5.23031
20
-3.96259
11
5.22938
21
-3.96914
0
LINE
8
BLACK
6
CONTINUOUS
10
5.22938
20
-3.96914
11
5.22691
21
-3.97528
0
LINE
8
BLACK
6
CONTINUOUS
10
5.22691
20
-3.97528
11
5.22304
21
-3.98066
0
LINE
8
BLACK
6
CONTINUOUS
10
5.22304
20
-3.98066
11
5.21801
21
-3.98496
0
LINE
8
BLACK
6
CONTINUOUS
10
5.21801
20
-3.98496
11
5.21209
21
-3.98794
0
LINE
8
BLACK
6
CONTINUOUS
10
5.21209
20
-3.98794
11
5.20564
21
-3.98942
0
LINE
8
BLACK
6
CONTINUOUS
10
5.20564
20
-3.98942
11
5.19902
21
-3.98931
0
LINE
8
BLACK
6
CONTINUOUS
10
5.19902
20
-3.98931
11
5.19261
21
-3.98763
0
LINE
8
BLACK
6
CONTINUOUS
10
5.19261
20
-3.98763
11
5.18679
21
-3.98447
0
LINE
8
BLACK
6
CONTINUOUS
10
5.18679
20
-3.98447
11
5.18189
21
-3.98002
0
LINE
8
BLACK
6
CONTINUOUS
10
5.18189
20
-3.98002
11
5.1782
21
-3.97452
0
LINE
8
BLACK
6
CONTINUOUS
10
5.1782
20
-3.97452
11
5.17592
21
-3.9683
0
LINE
8
BLACK
6
CONTINUOUS
10
5.17592
20
-3.9683
11
5.1752
21
-3.96172
0
LINE
8
BLACK
6
CONTINUOUS
10
5.1752
20
-3.96172
11
5.17606
21
-3.95515
0
LINE
8
BLACK
6
CONTINUOUS
10
5.17606
20
-3.95515
11
5.17847
21
-3.94898
0
LINE
8
BLACK
6
CONTINUOUS
10
5.17847
20
-3.94898
11
5.18228
21
-3.94357
0
LINE
8
BLACK
6
CONTINUOUS
10
5.18228
20
-3.94357
11
5.18727
21
-3.93921
0
LINE
8
BLACK
6
CONTINUOUS
10
5.18727
20
-3.93921
11
5.19315
21
-3.93618
0
LINE
8
BLACK
6
CONTINUOUS
10
5.19315
20
-3.93618
11
5.19959
21
-3.93463
0
LINE
8
BLACK
6
CONTINUOUS
10
5.19959
20
-3.93463
11
5.20621
21
-3.93467
0
LINE
8
BLACK
6
CONTINUOUS
10
6.2372
20
-3.98327
11
6.18406
21
-3.98327
0
LINE
8
BLACK
6
CONTINUOUS
10
6.18406
20
-3.98327
11
6.18406
21
-3.93012
0
LINE
8
BLACK
6
CONTINUOUS
10
6.18406
20
-3.93012
11
6.2372
21
-3.93012
0
LINE
8
BLACK
6
CONTINUOUS
10
6.2372
20
-3.93012
11
6.2372
21
-3.98327
0
LINE
8
BLACK
6
CONTINUOUS
10
5.00674
20
-3.90826
11
5.01294
21
-3.91047
0
LINE
8
BLACK
6
CONTINUOUS
10
5.01294
20
-3.91047
11
5.0185
21
-3.914
0
LINE
8
BLACK
6
CONTINUOUS
10
5.0185
20
-3.914
11
5.02314
21
-3.91867
0
LINE
8
BLACK
6
CONTINUOUS
10
5.02314
20
-3.91867
11
5.02663
21
-3.92425
0
LINE
8
BLACK
6
CONTINUOUS
10
5.02663
20
-3.92425
11
5.02879
21
-3.93047
0
LINE
8
BLACK
6
CONTINUOUS
10
5.02879
20
-3.93047
11
5.02953
21
-3.93701
0
LINE
8
BLACK
6
CONTINUOUS
10
5.02953
20
-3.93701
11
5.02952
21
-3.93783
0
LINE
8
BLACK
6
CONTINUOUS
10
5.02952
20
-3.93783
11
5.0286
21
-3.94435
0
LINE
8
BLACK
6
CONTINUOUS
10
5.0286
20
-3.94435
11
5.02626
21
-3.9505
0
LINE
8
BLACK
6
CONTINUOUS
10
5.02626
20
-3.9505
11
5.02262
21
-3.95599
0
LINE
8
BLACK
6
CONTINUOUS
10
5.02262
20
-3.95599
11
5.01785
21
-3.96053
0
LINE
8
BLACK
6
CONTINUOUS
10
5.01785
20
-3.96053
11
5.0122
21
-3.9639
0
LINE
8
BLACK
6
CONTINUOUS
10
5.0122
20
-3.9639
11
5.00594
21
-3.96593
0
LINE
8
BLACK
6
CONTINUOUS
10
5.00594
20
-3.96593
11
4.99938
21
-3.96653
0
LINE
8
BLACK
6
CONTINUOUS
10
4.99938
20
-3.96653
11
4.99286
21
-3.96566
0
LINE
8
BLACK
6
CONTINUOUS
10
4.99286
20
-3.96566
11
4.98669
21
-3.96336
0
LINE
8
BLACK
6
CONTINUOUS
10
4.98669
20
-3.96336
11
4.98118
21
-3.95976
0
LINE
8
BLACK
6
CONTINUOUS
10
4.98118
20
-3.95976
11
4.97661
21
-3.95502
0
LINE
8
BLACK
6
CONTINUOUS
10
4.97661
20
-3.95502
11
4.9732
21
-3.94939
0
LINE
8
BLACK
6
CONTINUOUS
10
4.9732
20
-3.94939
11
4.97112
21
-3.94315
0
LINE
8
BLACK
6
CONTINUOUS
10
4.97112
20
-3.94315
11
4.97048
21
-3.9366
0
LINE
8
BLACK
6
CONTINUOUS
10
4.97048
20
-3.9366
11
4.9713
21
-3.93006
0
LINE
8
BLACK
6
CONTINUOUS
10
4.9713
20
-3.93006
11
4.97355
21
-3.92388
0
LINE
8
BLACK
6
CONTINUOUS
10
4.97355
20
-3.92388
11
4.97712
21
-3.91835
0
LINE
8
BLACK
6
CONTINUOUS
10
4.97712
20
-3.91835
11
4.98182
21
-3.91374
0
LINE
8
BLACK
6
CONTINUOUS
10
4.98182
20
-3.91374
11
4.98743
21
-3.91029
0
LINE
8
BLACK
6
CONTINUOUS
10
4.98743
20
-3.91029
11
4.99366
21
-3.90817
0
LINE
8
BLACK
6
CONTINUOUS
10
4.99366
20
-3.90817
11
5.00021
21
-3.90748
0
LINE
8
BLACK
6
CONTINUOUS
10
5.00021
20
-3.90748
11
5.00674
21
-3.90826
0
LINE
8
BLACK
6
CONTINUOUS
10
6.16816
20
-3.33739
11
6.17436
21
-3.3396
0
LINE
8
BLACK
6
CONTINUOUS
10
6.17436
20
-3.3396
11
6.17992
21
-3.34313
0
LINE
8
BLACK
6
CONTINUOUS
10
6.17992
20
-3.34313
11
6.18456
21
-3.3478
0
LINE
8
BLACK
6
CONTINUOUS
10
6.18456
20
-3.3478
11
6.18805
21
-3.35338
0
LINE
8
BLACK
6
CONTINUOUS
10
6.18805
20
-3.35338
11
6.19021
21
-3.3596
0
LINE
8
BLACK
6
CONTINUOUS
10
6.19021
20
-3.3596
11
6.19094
21
-3.36614
0
LINE
8
BLACK
6
CONTINUOUS
10
6.19094
20
-3.36614
11
6.19093
21
-3.36697
0
LINE
8
BLACK
6
CONTINUOUS
10
6.19093
20
-3.36697
11
6.19002
21
-3.37348
0
LINE
8
BLACK
6
CONTINUOUS
10
6.19002
20
-3.37348
11
6.18768
21
-3.37964
0
LINE
8
BLACK
6
CONTINUOUS
10
6.18768
20
-3.37964
11
6.18404
21
-3.38512
0
LINE
8
BLACK
6
CONTINUOUS
10
6.18404
20
-3.38512
11
6.17927
21
-3.38966
0
LINE
8
BLACK
6
CONTINUOUS
10
6.17927
20
-3.38966
11
6.17362
21
-3.39303
0
LINE
8
BLACK
6
CONTINUOUS
10
6.17362
20
-3.39303
11
6.16735
21
-3.39507
0
LINE
8
BLACK
6
CONTINUOUS
10
6.16735
20
-3.39507
11
6.1608
21
-3.39566
0
LINE
8
BLACK
6
CONTINUOUS
10
6.1608
20
-3.39566
11
6.15427
21
-3.39479
0
LINE
8
BLACK
6
CONTINUOUS
10
6.15427
20
-3.39479
11
6.1481
21
-3.3925
0
LINE
8
BLACK
6
CONTINUOUS
10
6.1481
20
-3.3925
11
6.1426
21
-3.38889
0
LINE
8
BLACK
6
CONTINUOUS
10
6.1426
20
-3.38889
11
6.13802
21
-3.38416
0
LINE
8
BLACK
6
CONTINUOUS
10
6.13802
20
-3.38416
11
6.13461
21
-3.37853
0
LINE
8
BLACK
6
CONTINUOUS
10
6.13461
20
-3.37853
11
6.13253
21
-3.37228
0
LINE
8
BLACK
6
CONTINUOUS
10
6.13253
20
-3.37228
11
6.13189
21
-3.36573
0
LINE
8
BLACK
6
CONTINUOUS
10
6.13189
20
-3.36573
11
6.13272
21
-3.3592
0
LINE
8
BLACK
6
CONTINUOUS
10
6.13272
20
-3.3592
11
6.13497
21
-3.35301
0
LINE
8
BLACK
6
CONTINUOUS
10
6.13497
20
-3.35301
11
6.13854
21
-3.34748
0
LINE
8
BLACK
6
CONTINUOUS
10
6.13854
20
-3.34748
11
6.14324
21
-3.34287
0
LINE
8
BLACK
6
CONTINUOUS
10
6.14324
20
-3.34287
11
6.14885
21
-3.33942
0
LINE
8
BLACK
6
CONTINUOUS
10
6.14885
20
-3.33942
11
6.15508
21
-3.3373
0
LINE
8
BLACK
6
CONTINUOUS
10
6.15508
20
-3.3373
11
6.16162
21
-3.33661
0
LINE
8
BLACK
6
CONTINUOUS
10
6.16162
20
-3.33661
11
6.16816
21
-3.33739
0
LINE
8
BLACK
6
CONTINUOUS
10
5.87648
20
-3.31778
11
5.88287
21
-3.32063
0
LINE
8
BLACK
6
CONTINUOUS
10
5.88287
20
-3.32063
11
5.88853
21
-3.32474
0
LINE
8
BLACK
6
CONTINUOUS
10
5.88853
20
-3.32474
11
5.89322
21
-3.32994
0
LINE
8
BLACK
6
CONTINUOUS
10
5.89322
20
-3.32994
11
5.89671
21
-3.336
0
LINE
8
BLACK
6
CONTINUOUS
10
5.89671
20
-3.336
11
5.89887
21
-3.34265
0
LINE
8
BLACK
6
CONTINUOUS
10
5.89887
20
-3.34265
11
5.89961
21
-3.34961
0
LINE
8
BLACK
6
CONTINUOUS
10
5.89961
20
-3.34961
11
5.89887
21
-3.35656
0
LINE
8
BLACK
6
CONTINUOUS
10
5.89887
20
-3.35656
11
5.89671
21
-3.36322
0
LINE
8
BLACK
6
CONTINUOUS
10
5.89671
20
-3.36322
11
5.89322
21
-3.36928
0
LINE
8
BLACK
6
CONTINUOUS
10
5.89322
20
-3.36928
11
5.88853
21
-3.37448
0
LINE
8
BLACK
6
CONTINUOUS
10
5.88853
20
-3.37448
11
5.88287
21
-3.37859
0
LINE
8
BLACK
6
CONTINUOUS
10
5.88287
20
-3.37859
11
5.87648
21
-3.38143
0
LINE
8
BLACK
6
CONTINUOUS
10
5.87648
20
-3.38143
11
5.86964
21
-3.38289
0
LINE
8
BLACK
6
CONTINUOUS
10
5.86964
20
-3.38289
11
5.86264
21
-3.38289
0
LINE
8
BLACK
6
CONTINUOUS
10
5.86264
20
-3.38289
11
5.8558
21
-3.38143
0
LINE
8
BLACK
6
CONTINUOUS
10
5.8558
20
-3.38143
11
5.84941
21
-3.37859
0
LINE
8
BLACK
6
CONTINUOUS
10
5.84941
20
-3.37859
11
5.84375
21
-3.37448
0
LINE
8
BLACK
6
CONTINUOUS
10
5.84375
20
-3.37448
11
5.83907
21
-3.36928
0
LINE
8
BLACK
6
CONTINUOUS
10
5.83907
20
-3.36928
11
5.83557
21
-3.36322
0
LINE
8
BLACK
6
CONTINUOUS
10
5.83557
20
-3.36322
11
5.83341
21
-3.35656
0
LINE
8
BLACK
6
CONTINUOUS
10
5.83341
20
-3.35656
11
5.83268
21
-3.34961
0
LINE
8
BLACK
6
CONTINUOUS
10
5.83268
20
-3.34961
11
5.83341
21
-3.34265
0
LINE
8
BLACK
6
CONTINUOUS
10
5.83341
20
-3.34265
11
5.83557
21
-3.336
0
LINE
8
BLACK
6
CONTINUOUS
10
5.83557
20
-3.336
11
5.83907
21
-3.32994
0
LINE
8
BLACK
6
CONTINUOUS
10
5.83907
20
-3.32994
11
5.84375
21
-3.32474
0
LINE
8
BLACK
6
CONTINUOUS
10
5.84375
20
-3.32474
11
5.84941
21
-3.32063
0
LINE
8
BLACK
6
CONTINUOUS
10
5.84941
20
-3.32063
11
5.8558
21
-3.31778
0
LINE
8
BLACK
6
CONTINUOUS
10
5.8558
20
-3.31778
11
5.86264
21
-3.31633
0
LINE
8
BLACK
6
CONTINUOUS
10
5.86264
20
-3.31633
11
5.86964
21
-3.31633
0
LINE
8
BLACK
6
CONTINUOUS
10
5.86964
20
-3.31633
11
5.87648
21
-3.31778
0
LINE
8
BLACK
6
CONTINUOUS
10
5.02342
20
-3.24233
11
5.03047
21
-3.24391
0
LINE
8
BLACK
6
CONTINUOUS
10
5.03047
20
-3.24391
11
5.03702
21
-3.24697
0
LINE
8
BLACK
6
CONTINUOUS
10
5.03702
20
-3.24697
11
5.04276
21
-3.25136
0
LINE
8
BLACK
6
CONTINUOUS
10
5.04276
20
-3.25136
11
5.04743
21
-3.25688
0
LINE
8
BLACK
6
CONTINUOUS
10
5.04743
20
-3.25688
11
5.0508
21
-3.26327
0
LINE
8
BLACK
6
CONTINUOUS
10
5.0508
20
-3.26327
11
5.05272
21
-3.27024
0
LINE
8
BLACK
6
CONTINUOUS
10
5.05272
20
-3.27024
11
5.0531
21
-3.27746
0
LINE
8
BLACK
6
CONTINUOUS
10
5.0531
20
-3.27746
11
5.05192
21
-3.28459
0
LINE
8
BLACK
6
CONTINUOUS
10
5.05192
20
-3.28459
11
5.04923
21
-3.2913
0
LINE
8
BLACK
6
CONTINUOUS
10
5.04923
20
-3.2913
11
5.04517
21
-3.29728
0
LINE
8
BLACK
6
CONTINUOUS
10
5.04517
20
-3.29728
11
5.03992
21
-3.30225
0
LINE
8
BLACK
6
CONTINUOUS
10
5.03992
20
-3.30225
11
5.03372
21
-3.30597
0
LINE
8
BLACK
6
CONTINUOUS
10
5.03372
20
-3.30597
11
5.02687
21
-3.30827
0
LINE
8
BLACK
6
CONTINUOUS
10
5.02687
20
-3.30827
11
5.01969
21
-3.30906
0
LINE
8
BLACK
6
CONTINUOUS
10
5.01969
20
-3.30906
11
4.98031
21
-3.30906
0
LINE
8
BLACK
6
CONTINUOUS
10
4.98031
20
-3.30906
11
4.97658
21
-3.30885
0
LINE
8
BLACK
6
CONTINUOUS
10
4.97658
20
-3.30885
11
4.96953
21
-3.30727
0
LINE
8
BLACK
6
CONTINUOUS
10
4.96953
20
-3.30727
11
4.96298
21
-3.30421
0
LINE
8
BLACK
6
CONTINUOUS
10
4.96298
20
-3.30421
11
4.95724
21
-3.29982
0
LINE
8
BLACK
6
CONTINUOUS
10
4.95724
20
-3.29982
11
4.95257
21
-3.2943
0
LINE
8
BLACK
6
CONTINUOUS
10
4.95257
20
-3.2943
11
4.9492
21
-3.28791
0
LINE
8
BLACK
6
CONTINUOUS
10
4.9492
20
-3.28791
11
4.94728
21
-3.28094
0
LINE
8
BLACK
6
CONTINUOUS
10
4.94728
20
-3.28094
11
4.9469
21
-3.27372
0
LINE
8
BLACK
6
CONTINUOUS
10
4.9469
20
-3.27372
11
4.94808
21
-3.26659
0
LINE
8
BLACK
6
CONTINUOUS
10
4.94808
20
-3.26659
11
4.95077
21
-3.25988
0
LINE
8
BLACK
6
CONTINUOUS
10
4.95077
20
-3.25988
11
4.95483
21
-3.2539
0
LINE
8
BLACK
6
CONTINUOUS
10
4.95483
20
-3.2539
11
4.96008
21
-3.24894
0
LINE
8
BLACK
6
CONTINUOUS
10
4.96008
20
-3.24894
11
4.96628
21
-3.24521
0
LINE
8
BLACK
6
CONTINUOUS
10
4.96628
20
-3.24521
11
4.97313
21
-3.24291
0
LINE
8
BLACK
6
CONTINUOUS
10
4.97313
20
-3.24291
11
4.98031
21
-3.24213
0
LINE
8
BLACK
6
CONTINUOUS
10
4.98031
20
-3.24213
11
5.01969
21
-3.24213
0
LINE
8
BLACK
6
CONTINUOUS
10
5.01969
20
-3.24213
11
5.02342
21
-3.24233
0
LINE
8
BLACK
6
CONTINUOUS
10
6.15207
20
-3.23904
11
6.15846
21
-3.24188
0
LINE
8
BLACK
6
CONTINUOUS
10
6.15846
20
-3.24188
11
6.16412
21
-3.246
0
LINE
8
BLACK
6
CONTINUOUS
10
6.16412
20
-3.246
11
6.16881
21
-3.2512
0
LINE
8
BLACK
6
CONTINUOUS
10
6.16881
20
-3.2512
11
6.1723
21
-3.25725
0
LINE
8
BLACK
6
CONTINUOUS
10
6.1723
20
-3.25725
11
6.17447
21
-3.26391
0
LINE
8
BLACK
6
CONTINUOUS
10
6.17447
20
-3.26391
11
6.1752
21
-3.27087
0
LINE
8
BLACK
6
CONTINUOUS
10
6.1752
20
-3.27087
11
6.17447
21
-3.27782
0
LINE
8
BLACK
6
CONTINUOUS
10
6.17447
20
-3.27782
11
6.1723
21
-3.28448
0
LINE
8
BLACK
6
CONTINUOUS
10
6.1723
20
-3.28448
11
6.16881
21
-3.29054
0
LINE
8
BLACK
6
CONTINUOUS
10
6.16881
20
-3.29054
11
6.16412
21
-3.29574
0
LINE
8
BLACK
6
CONTINUOUS
10
6.16412
20
-3.29574
11
6.15846
21
-3.29985
0
LINE
8
BLACK
6
CONTINUOUS
10
6.15846
20
-3.29985
11
6.15207
21
-3.30269
0
LINE
8
BLACK
6
CONTINUOUS
10
6.15207
20
-3.30269
11
6.14523
21
-3.30415
0
LINE
8
BLACK
6
CONTINUOUS
10
6.14523
20
-3.30415
11
6.13823
21
-3.30415
0
LINE
8
BLACK
6
CONTINUOUS
10
6.13823
20
-3.30415
11
6.13139
21
-3.30269
0
LINE
8
BLACK
6
CONTINUOUS
10
6.13139
20
-3.30269
11
6.125
21
-3.29985
0
LINE
8
BLACK
6
CONTINUOUS
10
6.125
20
-3.29985
11
6.11934
21
-3.29574
0
LINE
8
BLACK
6
CONTINUOUS
10
6.11934
20
-3.29574
11
6.11466
21
-3.29054
0
LINE
8
BLACK
6
CONTINUOUS
10
6.11466
20
-3.29054
11
6.11116
21
-3.28448
0
LINE
8
BLACK
6
CONTINUOUS
10
6.11116
20
-3.28448
11
6.109
21
-3.27782
0
LINE
8
BLACK
6
CONTINUOUS
10
6.109
20
-3.27782
11
6.10827
21
-3.27087
0
LINE
8
BLACK
6
CONTINUOUS
10
6.10827
20
-3.27087
11
6.109
21
-3.26391
0
LINE
8
BLACK
6
CONTINUOUS
10
6.109
20
-3.26391
11
6.11116
21
-3.25725
0
LINE
8
BLACK
6
CONTINUOUS
10
6.11116
20
-3.25725
11
6.11466
21
-3.2512
0
LINE
8
BLACK
6
CONTINUOUS
10
6.11466
20
-3.2512
11
6.11934
21
-3.246
0
LINE
8
BLACK
6
CONTINUOUS
10
6.11934
20
-3.246
11
6.125
21
-3.24188
0
LINE
8
BLACK
6
CONTINUOUS
10
6.125
20
-3.24188
11
6.13139
21
-3.23904
0
LINE
8
BLACK
6
CONTINUOUS
10
6.13139
20
-3.23904
11
6.13823
21
-3.23758
0
LINE
8
BLACK
6
CONTINUOUS
10
6.13823
20
-3.23758
11
6.14523
21
-3.23758
0
LINE
8
BLACK
6
CONTINUOUS
10
6.14523
20
-3.23758
11
6.15207
21
-3.23904
0
LINE
8
BLACK
6
CONTINUOUS
10
4.69538
20
-3.23904
11
4.70177
21
-3.24188
0
LINE
8
BLACK
6
CONTINUOUS
10
4.70177
20
-3.24188
11
4.70743
21
-3.246
0
LINE
8
BLACK
6
CONTINUOUS
10
4.70743
20
-3.246
11
4.71211
21
-3.2512
0
LINE
8
BLACK
6
CONTINUOUS
10
4.71211
20
-3.2512
11
4.71561
21
-3.25725
0
LINE
8
BLACK
6
CONTINUOUS
10
4.71561
20
-3.25725
11
4.71777
21
-3.26391
0
LINE
8
BLACK
6
CONTINUOUS
10
4.71777
20
-3.26391
11
4.7185
21
-3.27087
0
LINE
8
BLACK
6
CONTINUOUS
10
4.7185
20
-3.27087
11
4.71777
21
-3.27782
0
LINE
8
BLACK
6
CONTINUOUS
10
4.71777
20
-3.27782
11
4.71561
21
-3.28448
0
LINE
8
BLACK
6
CONTINUOUS
10
4.71561
20
-3.28448
11
4.71211
21
-3.29054
0
LINE
8
BLACK
6
CONTINUOUS
10
4.71211
20
-3.29054
11
4.70743
21
-3.29574
0
LINE
8
BLACK
6
CONTINUOUS
10
4.70743
20
-3.29574
11
4.70177
21
-3.29985
0
LINE
8
BLACK
6
CONTINUOUS
10
4.70177
20
-3.29985
11
4.69538
21
-3.30269
0
LINE
8
BLACK
6
CONTINUOUS
10
4.69538
20
-3.30269
11
4.68854
21
-3.30415
0
LINE
8
BLACK
6
CONTINUOUS
10
4.68854
20
-3.30415
11
4.68154
21
-3.30415
0
LINE
8
BLACK
6
CONTINUOUS
10
4.68154
20
-3.30415
11
4.6747
21
-3.30269
0
LINE
8
BLACK
6
CONTINUOUS
10
4.6747
20
-3.30269
11
4.66831
21
-3.29985
0
LINE
8
BLACK
6
CONTINUOUS
10
4.66831
20
-3.29985
11
4.66265
21
-3.29574
0
LINE
8
BLACK
6
CONTINUOUS
10
4.66265
20
-3.29574
11
4.65797
21
-3.29054
0
LINE
8
BLACK
6
CONTINUOUS
10
4.65797
20
-3.29054
11
4.65447
21
-3.28448
0
LINE
8
BLACK
6
CONTINUOUS
10
4.65447
20
-3.28448
11
4.65231
21
-3.27782
0
LINE
8
BLACK
6
CONTINUOUS
10
4.65231
20
-3.27782
11
4.65157
21
-3.27087
0
LINE
8
BLACK
6
CONTINUOUS
10
4.65157
20
-3.27087
11
4.65231
21
-3.26391
0
LINE
8
BLACK
6
CONTINUOUS
10
4.65231
20
-3.26391
11
4.65447
21
-3.25725
0
LINE
8
BLACK
6
CONTINUOUS
10
4.65447
20
-3.25725
11
4.65797
21
-3.2512
0
LINE
8
BLACK
6
CONTINUOUS
10
4.65797
20
-3.2512
11
4.66265
21
-3.246
0
LINE
8
BLACK
6
CONTINUOUS
10
4.66265
20
-3.246
11
4.66831
21
-3.24188
0
LINE
8
BLACK
6
CONTINUOUS
10
4.66831
20
-3.24188
11
4.6747
21
-3.23904
0
LINE
8
BLACK
6
CONTINUOUS
10
4.6747
20
-3.23904
11
4.68154
21
-3.23758
0
LINE
8
BLACK
6
CONTINUOUS
10
4.68154
20
-3.23758
11
4.68854
21
-3.23758
0
LINE
8
BLACK
6
CONTINUOUS
10
4.68854
20
-3.23758
11
4.69538
21
-3.23904
0
LINE
8
BLACK
6
CONTINUOUS
10
5.87288
20
-3.21928
11
5.87909
21
-3.22149
0
LINE
8
BLACK
6
CONTINUOUS
10
5.87909
20
-3.22149
11
5.88464
21
-3.22502
0
LINE
8
BLACK
6
CONTINUOUS
10
5.88464
20
-3.22502
11
5.88928
21
-3.22969
0
LINE
8
BLACK
6
CONTINUOUS
10
5.88928
20
-3.22969
11
5.89277
21
-3.23527
0
LINE
8
BLACK
6
CONTINUOUS
10
5.89277
20
-3.23527
11
5.89494
21
-3.24149
0
LINE
8
BLACK
6
CONTINUOUS
10
5.89494
20
-3.24149
11
5.89567
21
-3.24803
0
LINE
8
BLACK
6
CONTINUOUS
10
5.89567
20
-3.24803
11
5.89566
21
-3.24886
0
LINE
8
BLACK
6
CONTINUOUS
10
5.89566
20
-3.24886
11
5.89474
21
-3.25537
0
LINE
8
BLACK
6
CONTINUOUS
10
5.89474
20
-3.25537
11
5.8924
21
-3.26153
0
LINE
8
BLACK
6
CONTINUOUS
10
5.8924
20
-3.26153
11
5.88876
21
-3.26701
0
LINE
8
BLACK
6
CONTINUOUS
10
5.88876
20
-3.26701
11
5.88399
21
-3.27155
0
LINE
8
BLACK
6
CONTINUOUS
10
5.88399
20
-3.27155
11
5.87834
21
-3.27492
0
LINE
8
BLACK
6
CONTINUOUS
10
5.87834
20
-3.27492
11
5.87208
21
-3.27696
0
LINE
8
BLACK
6
CONTINUOUS
10
5.87208
20
-3.27696
11
5.86552
21
-3.27755
0
LINE
8
BLACK
6
CONTINUOUS
10
5.86552
20
-3.27755
11
5.859
21
-3.27668
0
LINE
8
BLACK
6
CONTINUOUS
10
5.859
20
-3.27668
11
5.85283
21
-3.27439
0
LINE
8
BLACK
6
CONTINUOUS
10
5.85283
20
-3.27439
11
5.84732
21
-3.27078
0
LINE
8
BLACK
6
CONTINUOUS
10
5.84732
20
-3.27078
11
5.84275
21
-3.26605
0
LINE
8
BLACK
6
CONTINUOUS
10
5.84275
20
-3.26605
11
5.83934
21
-3.26042
0
LINE
8
BLACK
6
CONTINUOUS
10
5.83934
20
-3.26042
11
5.83726
21
-3.25417
0
LINE
8
BLACK
6
CONTINUOUS
10
5.83726
20
-3.25417
11
5.83662
21
-3.24762
0
LINE
8
BLACK
6
CONTINUOUS
10
5.83662
20
-3.24762
11
5.83744
21
-3.24109
0
LINE
8
BLACK
6
CONTINUOUS
10
5.83744
20
-3.24109
11
5.83969
21
-3.2349
0
LINE
8
BLACK
6
CONTINUOUS
10
5.83969
20
-3.2349
11
5.84326
21
-3.22937
0
LINE
8
BLACK
6
CONTINUOUS
10
5.84326
20
-3.22937
11
5.84796
21
-3.22476
0
LINE
8
BLACK
6
CONTINUOUS
10
5.84796
20
-3.22476
11
5.85357
21
-3.22131
0
LINE
8
BLACK
6
CONTINUOUS
10
5.85357
20
-3.22131
11
5.8598
21
-3.21919
0
LINE
8
BLACK
6
CONTINUOUS
10
5.8598
20
-3.21919
11
5.86635
21
-3.2185
0
LINE
8
BLACK
6
CONTINUOUS
10
5.86635
20
-3.2185
11
5.87288
21
-3.21928
0
LINE
8
BLACK
6
CONTINUOUS
10
4.82958
20
-3.16023
11
4.83578
21
-3.16244
0
LINE
8
BLACK
6
CONTINUOUS
10
4.83578
20
-3.16244
11
4.84134
21
-3.16596
0
LINE
8
BLACK
6
CONTINUOUS
10
4.84134
20
-3.16596
11
4.84598
21
-3.17064
0
LINE
8
BLACK
6
CONTINUOUS
10
4.84598
20
-3.17064
11
4.84946
21
-3.17622
0
LINE
8
BLACK
6
CONTINUOUS
10
4.84946
20
-3.17622
11
4.85163
21
-3.18243
0
LINE
8
BLACK
6
CONTINUOUS
10
4.85163
20
-3.18243
11
4.85236
21
-3.18898
0
LINE
8
BLACK
6
CONTINUOUS
10
4.85236
20
-3.18898
11
4.85235
21
-3.1898
0
LINE
8
BLACK
6
CONTINUOUS
10
4.85235
20
-3.1898
11
4.85143
21
-3.19632
0
LINE
8
BLACK
6
CONTINUOUS
10
4.85143
20
-3.19632
11
4.8491
21
-3.20247
0
LINE
8
BLACK
6
CONTINUOUS
10
4.8491
20
-3.20247
11
4.84545
21
-3.20796
0
LINE
8
BLACK
6
CONTINUOUS
10
4.84545
20
-3.20796
11
4.84069
21
-3.2125
0
LINE
8
BLACK
6
CONTINUOUS
10
4.84069
20
-3.2125
11
4.83503
21
-3.21587
0
LINE
8
BLACK
6
CONTINUOUS
10
4.83503
20
-3.21587
11
4.82877
21
-3.2179
0
LINE
8
BLACK
6
CONTINUOUS
10
4.82877
20
-3.2179
11
4.82222
21
-3.2185
0
LINE
8
BLACK
6
CONTINUOUS
10
4.82222
20
-3.2185
11
4.81569
21
-3.21763
0
LINE
8
BLACK
6
CONTINUOUS
10
4.81569
20
-3.21763
11
4.80952
21
-3.21533
0
LINE
8
BLACK
6
CONTINUOUS
10
4.80952
20
-3.21533
11
4.80401
21
-3.21173
0
LINE
8
BLACK
6
CONTINUOUS
10
4.80401
20
-3.21173
11
4.79944
21
-3.20699
0
LINE
8
BLACK
6
CONTINUOUS
10
4.79944
20
-3.20699
11
4.79603
21
-3.20136
0
LINE
8
BLACK
6
CONTINUOUS
10
4.79603
20
-3.20136
11
4.79395
21
-3.19512
0
LINE
8
BLACK
6
CONTINUOUS
10
4.79395
20
-3.19512
11
4.79331
21
-3.18856
0
LINE
8
BLACK
6
CONTINUOUS
10
4.79331
20
-3.18856
11
4.79413
21
-3.18203
0
LINE
8
BLACK
6
CONTINUOUS
10
4.79413
20
-3.18203
11
4.79639
21
-3.17585
0
LINE
8
BLACK
6
CONTINUOUS
10
4.79639
20
-3.17585
11
4.79995
21
-3.17031
0
LINE
8
BLACK
6
CONTINUOUS
10
4.79995
20
-3.17031
11
4.80466
21
-3.16571
0
LINE
8
BLACK
6
CONTINUOUS
10
4.80466
20
-3.16571
11
4.81026
21
-3.16226
0
LINE
8
BLACK
6
CONTINUOUS
10
4.81026
20
-3.16226
11
4.81649
21
-3.16014
0
LINE
8
BLACK
6
CONTINUOUS
10
4.81649
20
-3.16014
11
4.82304
21
-3.15945
0
LINE
8
BLACK
6
CONTINUOUS
10
4.82304
20
-3.15945
11
4.82958
21
-3.16023
0
LINE
8
BLACK
6
CONTINUOUS
10
5.08908
20
-3.13746
11
5.09547
21
-3.14031
0
LINE
8
BLACK
6
CONTINUOUS
10
5.09547
20
-3.14031
11
5.10113
21
-3.14442
0
LINE
8
BLACK
6
CONTINUOUS
10
5.10113
20
-3.14442
11
5.10581
21
-3.14962
0
LINE
8
BLACK
6
CONTINUOUS
10
5.10581
20
-3.14962
11
5.10931
21
-3.15568
0
LINE
8
BLACK
6
CONTINUOUS
10
5.10931
20
-3.15568
11
5.11147
21
-3.16233
0
LINE
8
BLACK
6
CONTINUOUS
10
5.11147
20
-3.16233
11
5.1122
21
-3.16929
0
LINE
8
BLACK
6
CONTINUOUS
10
5.1122
20
-3.16929
11
5.11147
21
-3.17625
0
LINE
8
BLACK
6
CONTINUOUS
10
5.11147
20
-3.17625
11
5.10931
21
-3.1829
0
LINE
8
BLACK
6
CONTINUOUS
10
5.10931
20
-3.1829
11
5.10581
21
-3.18896
0
LINE
8
BLACK
6
CONTINUOUS
10
5.10581
20
-3.18896
11
5.10113
21
-3.19416
0
LINE
8
BLACK
6
CONTINUOUS
10
5.10113
20
-3.19416
11
5.09547
21
-3.19827
0
LINE
8
BLACK
6
CONTINUOUS
10
5.09547
20
-3.19827
11
5.08908
21
-3.20112
0
LINE
8
BLACK
6
CONTINUOUS
10
5.08908
20
-3.20112
11
5.08224
21
-3.20257
0
LINE
8
BLACK
6
CONTINUOUS
10
5.08224
20
-3.20257
11
5.07524
21
-3.20257
0
LINE
8
BLACK
6
CONTINUOUS
10
5.07524
20
-3.20257
11
5.0684
21
-3.20112
0
LINE
8
BLACK
6
CONTINUOUS
10
5.0684
20
-3.20112
11
5.06201
21
-3.19827
0
LINE
8
BLACK
6
CONTINUOUS
10
5.06201
20
-3.19827
11
5.05635
21
-3.19416
0
LINE
8
BLACK
6
CONTINUOUS
10
5.05635
20
-3.19416
11
5.05167
21
-3.18896
0
LINE
8
BLACK
6
CONTINUOUS
10
5.05167
20
-3.18896
11
5.04817
21
-3.1829
0
LINE
8
BLACK
6
CONTINUOUS
10
5.04817
20
-3.1829
11
5.04601
21
-3.17625
0
LINE
8
BLACK
6
CONTINUOUS
10
5.04601
20
-3.17625
11
5.04528
21
-3.16929
0
LINE
8
BLACK
6
CONTINUOUS
10
5.04528
20
-3.16929
11
5.04601
21
-3.16233
0
LINE
8
BLACK
6
CONTINUOUS
10
5.04601
20
-3.16233
11
5.04817
21
-3.15568
0
LINE
8
BLACK
6
CONTINUOUS
10
5.04817
20
-3.15568
11
5.05167
21
-3.14962
0
LINE
8
BLACK
6
CONTINUOUS
10
5.05167
20
-3.14962
11
5.05635
21
-3.14442
0
LINE
8
BLACK
6
CONTINUOUS
10
5.05635
20
-3.14442
11
5.06201
21
-3.14031
0
LINE
8
BLACK
6
CONTINUOUS
10
5.06201
20
-3.14031
11
5.0684
21
-3.13746
0
LINE
8
BLACK
6
CONTINUOUS
10
5.0684
20
-3.13746
11
5.07524
21
-3.13601
0
LINE
8
BLACK
6
CONTINUOUS
10
5.07524
20
-3.13601
11
5.08224
21
-3.13601
0
LINE
8
BLACK
6
CONTINUOUS
10
5.08224
20
-3.13601
11
5.08908
21
-3.13746
0
LINE
8
BLACK
6
CONTINUOUS
10
6.16816
20
-3.14054
11
6.17436
21
-3.14275
0
LINE
8
BLACK
6
CONTINUOUS
10
6.17436
20
-3.14275
11
6.17992
21
-3.14628
0
LINE
8
BLACK
6
CONTINUOUS
10
6.17992
20
-3.14628
11
6.18456
21
-3.15095
0
LINE
8
BLACK
6
CONTINUOUS
10
6.18456
20
-3.15095
11
6.18805
21
-3.15653
0
LINE
8
BLACK
6
CONTINUOUS
10
6.18805
20
-3.15653
11
6.19021
21
-3.16275
0
LINE
8
BLACK
6
CONTINUOUS
10
6.19021
20
-3.16275
11
6.19094
21
-3.16929
0
LINE
8
BLACK
6
CONTINUOUS
10
6.19094
20
-3.16929
11
6.19093
21
-3.17012
0
LINE
8
BLACK
6
CONTINUOUS
10
6.19093
20
-3.17012
11
6.19002
21
-3.17663
0
LINE
8
BLACK
6
CONTINUOUS
10
6.19002
20
-3.17663
11
6.18768
21
-3.18279
0
LINE
8
BLACK
6
CONTINUOUS
10
6.18768
20
-3.18279
11
6.18404
21
-3.18827
0
LINE
8
BLACK
6
CONTINUOUS
10
6.18404
20
-3.18827
11
6.17927
21
-3.19281
0
LINE
8
BLACK
6
CONTINUOUS
10
6.17927
20
-3.19281
11
6.17362
21
-3.19618
0
LINE
8
BLACK
6
CONTINUOUS
10
6.17362
20
-3.19618
11
6.16735
21
-3.19822
0
LINE
8
BLACK
6
CONTINUOUS
10
6.16735
20
-3.19822
11
6.1608
21
-3.19881
0
LINE
8
BLACK
6
CONTINUOUS
10
6.1608
20
-3.19881
11
6.15427
21
-3.19794
0
LINE
8
BLACK
6
CONTINUOUS
10
6.15427
20
-3.19794
11
6.1481
21
-3.19565
0
LINE
8
BLACK
6
CONTINUOUS
10
6.1481
20
-3.19565
11
6.1426
21
-3.19204
0
LINE
8
BLACK
6
CONTINUOUS
10
6.1426
20
-3.19204
11
6.13802
21
-3.18731
0
LINE
8
BLACK
6
CONTINUOUS
10
6.13802
20
-3.18731
11
6.13461
21
-3.18168
0
LINE
8
BLACK
6
CONTINUOUS
10
6.13461
20
-3.18168
11
6.13253
21
-3.17543
0
LINE
8
BLACK
6
CONTINUOUS
10
6.13253
20
-3.17543
11
6.13189
21
-3.16888
0
LINE
8
BLACK
6
CONTINUOUS
10
6.13189
20
-3.16888
11
6.13272
21
-3.16235
0
LINE
8
BLACK
6
CONTINUOUS
10
6.13272
20
-3.16235
11
6.13497
21
-3.15616
0
LINE
8
BLACK
6
CONTINUOUS
10
6.13497
20
-3.15616
11
6.13854
21
-3.15063
0
LINE
8
BLACK
6
CONTINUOUS
10
6.13854
20
-3.15063
11
6.14324
21
-3.14602
0
LINE
8
BLACK
6
CONTINUOUS
10
6.14324
20
-3.14602
11
6.14885
21
-3.14257
0
LINE
8
BLACK
6
CONTINUOUS
10
6.14885
20
-3.14257
11
6.15508
21
-3.14045
0
LINE
8
BLACK
6
CONTINUOUS
10
6.15508
20
-3.14045
11
6.16162
21
-3.13976
0
LINE
8
BLACK
6
CONTINUOUS
10
6.16162
20
-3.13976
11
6.16816
21
-3.14054
0
LINE
8
BLACK
6
CONTINUOUS
10
4.69178
20
-3.14054
11
4.69798
21
-3.14275
0
LINE
8
BLACK
6
CONTINUOUS
10
4.69798
20
-3.14275
11
4.70354
21
-3.14628
0
LINE
8
BLACK
6
CONTINUOUS
10
4.70354
20
-3.14628
11
4.70818
21
-3.15095
0
LINE
8
BLACK
6
CONTINUOUS
10
4.70818
20
-3.15095
11
4.71167
21
-3.15653
0
LINE
8
BLACK
6
CONTINUOUS
10
4.71167
20
-3.15653
11
4.71383
21
-3.16275
0
LINE
8
BLACK
6
CONTINUOUS
10
4.71383
20
-3.16275
11
4.71457
21
-3.16929
0
LINE
8
BLACK
6
CONTINUOUS
10
4.71457
20
-3.16929
11
4.71456
21
-3.17012
0
LINE
8
BLACK
6
CONTINUOUS
10
4.71456
20
-3.17012
11
4.71364
21
-3.17663
0
LINE
8
BLACK
6
CONTINUOUS
10
4.71364
20
-3.17663
11
4.7113
21
-3.18279
0
LINE
8
BLACK
6
CONTINUOUS
10
4.7113
20
-3.18279
11
4.70766
21
-3.18827
0
LINE
8
BLACK
6
CONTINUOUS
10
4.70766
20
-3.18827
11
4.70289
21
-3.19281
0
LINE
8
BLACK
6
CONTINUOUS
10
4.70289
20
-3.19281
11
4.69724
21
-3.19618
0
LINE
8
BLACK
6
CONTINUOUS
10
4.69724
20
-3.19618
11
4.69098
21
-3.19822
0
LINE
8
BLACK
6
CONTINUOUS
10
4.69098
20
-3.19822
11
4.68442
21
-3.19881
0
LINE
8
BLACK
6
CONTINUOUS
10
4.68442
20
-3.19881
11
4.6779
21
-3.19794
0
LINE
8
BLACK
6
CONTINUOUS
10
4.6779
20
-3.19794
11
4.67173
21
-3.19565
0
LINE
8
BLACK
6
CONTINUOUS
10
4.67173
20
-3.19565
11
4.66622
21
-3.19204
0
LINE
8
BLACK
6
CONTINUOUS
10
4.66622
20
-3.19204
11
4.66165
21
-3.18731
0
LINE
8
BLACK
6
CONTINUOUS
10
4.66165
20
-3.18731
11
4.65823
21
-3.18168
0
LINE
8
BLACK
6
CONTINUOUS
10
4.65823
20
-3.18168
11
4.65616
21
-3.17543
0
LINE
8
BLACK
6
CONTINUOUS
10
4.65616
20
-3.17543
11
4.65551
21
-3.16888
0
LINE
8
BLACK
6
CONTINUOUS
10
4.65551
20
-3.16888
11
4.65634
21
-3.16235
0
LINE
8
BLACK
6
CONTINUOUS
10
4.65634
20
-3.16235
11
4.65859
21
-3.15616
0
LINE
8
BLACK
6
CONTINUOUS
10
4.65859
20
-3.15616
11
4.66216
21
-3.15063
0
LINE
8
BLACK
6
CONTINUOUS
10
4.66216
20
-3.15063
11
4.66686
21
-3.14602
0
LINE
8
BLACK
6
CONTINUOUS
10
4.66686
20
-3.14602
11
4.67247
21
-3.14257
0
LINE
8
BLACK
6
CONTINUOUS
10
4.67247
20
-3.14257
11
4.6787
21
-3.14045
0
LINE
8
BLACK
6
CONTINUOUS
10
4.6787
20
-3.14045
11
4.68525
21
-3.13976
0
LINE
8
BLACK
6
CONTINUOUS
10
4.68525
20
-3.13976
11
4.69178
21
-3.14054
0
LINE
8
BLACK
6
CONTINUOUS
10
5.87648
20
-3.11778
11
5.88287
21
-3.12063
0
LINE
8
BLACK
6
CONTINUOUS
10
5.88287
20
-3.12063
11
5.88853
21
-3.12474
0
LINE
8
BLACK
6
CONTINUOUS
10
5.88853
20
-3.12474
11
5.89322
21
-3.12994
0
LINE
8
BLACK
6
CONTINUOUS
10
5.89322
20
-3.12994
11
5.89671
21
-3.136
0
LINE
8
BLACK
6
CONTINUOUS
10
5.89671
20
-3.136
11
5.89887
21
-3.14265
0
LINE
8
BLACK
6
CONTINUOUS
10
5.89887
20
-3.14265
11
5.89961
21
-3.14961
0
LINE
8
BLACK
6
CONTINUOUS
10
5.89961
20
-3.14961
11
5.89887
21
-3.15656
0
LINE
8
BLACK
6
CONTINUOUS
10
5.89887
20
-3.15656
11
5.89671
21
-3.16322
0
LINE
8
BLACK
6
CONTINUOUS
10
5.89671
20
-3.16322
11
5.89322
21
-3.16928
0
LINE
8
BLACK
6
CONTINUOUS
10
5.89322
20
-3.16928
11
5.88853
21
-3.17448
0
LINE
8
BLACK
6
CONTINUOUS
10
5.88853
20
-3.17448
11
5.88287
21
-3.17859
0
LINE
8
BLACK
6
CONTINUOUS
10
5.88287
20
-3.17859
11
5.87648
21
-3.18143
0
LINE
8
BLACK
6
CONTINUOUS
10
5.87648
20
-3.18143
11
5.86964
21
-3.18289
0
LINE
8
BLACK
6
CONTINUOUS
10
5.86964
20
-3.18289
11
5.86264
21
-3.18289
0
LINE
8
BLACK
6
CONTINUOUS
10
5.86264
20
-3.18289
11
5.8558
21
-3.18143
0
LINE
8
BLACK
6
CONTINUOUS
10
5.8558
20
-3.18143
11
5.84941
21
-3.17859
0
LINE
8
BLACK
6
CONTINUOUS
10
5.84941
20
-3.17859
11
5.84375
21
-3.17448
0
LINE
8
BLACK
6
CONTINUOUS
10
5.84375
20
-3.17448
11
5.83907
21
-3.16928
0
LINE
8
BLACK
6
CONTINUOUS
10
5.83907
20
-3.16928
11
5.83557
21
-3.16322
0
LINE
8
BLACK
6
CONTINUOUS
10
5.83557
20
-3.16322
11
5.83341
21
-3.15656
0
LINE
8
BLACK
6
CONTINUOUS
10
5.83341
20
-3.15656
11
5.83268
21
-3.14961
0
LINE
8
BLACK
6
CONTINUOUS
10
5.83268
20
-3.14961
11
5.83341
21
-3.14265
0
LINE
8
BLACK
6
CONTINUOUS
10
5.83341
20
-3.14265
11
5.83557
21
-3.136
0
LINE
8
BLACK
6
CONTINUOUS
10
5.83557
20
-3.136
11
5.83907
21
-3.12994
0
LINE
8
BLACK
6
CONTINUOUS
10
5.83907
20
-3.12994
11
5.84375
21
-3.12474
0
LINE
8
BLACK
6
CONTINUOUS
10
5.84375
20
-3.12474
11
5.84941
21
-3.12063
0
LINE
8
BLACK
6
CONTINUOUS
10
5.84941
20
-3.12063
11
5.8558
21
-3.11778
0
LINE
8
BLACK
6
CONTINUOUS
10
5.8558
20
-3.11778
11
5.86264
21
-3.11633
0
LINE
8
BLACK
6
CONTINUOUS
10
5.86264
20
-3.11633
11
5.86964
21
-3.11633
0
LINE
8
BLACK
6
CONTINUOUS
10
5.86964
20
-3.11633
11
5.87648
21
-3.11778
0
LINE
8
BLACK
6
CONTINUOUS
10
5.08908
20
-3.03904
11
5.09547
21
-3.04188
0
LINE
8
BLACK
6
CONTINUOUS
10
5.09547
20
-3.04188
11
5.10113
21
-3.046
0
LINE
8
BLACK
6
CONTINUOUS
10
5.10113
20
-3.046
11
5.10581
21
-3.0512
0
LINE
8
BLACK
6
CONTINUOUS
10
5.10581
20
-3.0512
11
5.10931
21
-3.05725
0
LINE
8
BLACK
6
CONTINUOUS
10
5.10931
20
-3.05725
11
5.11147
21
-3.06391
0
LINE
8
BLACK
6
CONTINUOUS
10
5.11147
20
-3.06391
11
5.1122
21
-3.07087
0
LINE
8
BLACK
6
CONTINUOUS
10
5.1122
20
-3.07087
11
5.11147
21
-3.07782
0
LINE
8
BLACK
6
CONTINUOUS
10
5.11147
20
-3.07782
11
5.10931
21
-3.08448
0
LINE
8
BLACK
6
CONTINUOUS
10
5.10931
20
-3.08448
11
5.10581
21
-3.09054
0
LINE
8
BLACK
6
CONTINUOUS
10
5.10581
20
-3.09054
11
5.10113
21
-3.09574
0
LINE
8
BLACK
6
CONTINUOUS
10
5.10113
20
-3.09574
11
5.09547
21
-3.09985
0
LINE
8
BLACK
6
CONTINUOUS
10
5.09547
20
-3.09985
11
5.08908
21
-3.10269
0
LINE
8
BLACK
6
CONTINUOUS
10
5.08908
20
-3.10269
11
5.08224
21
-3.10415
0
LINE
8
BLACK
6
CONTINUOUS
10
5.08224
20
-3.10415
11
5.07524
21
-3.10415
0
LINE
8
BLACK
6
CONTINUOUS
10
5.07524
20
-3.10415
11
5.0684
21
-3.10269
0
LINE
8
BLACK
6
CONTINUOUS
10
5.0684
20
-3.10269
11
5.06201
21
-3.09985
0
LINE
8
BLACK
6
CONTINUOUS
10
5.06201
20
-3.09985
11
5.05635
21
-3.09574
0
LINE
8
BLACK
6
CONTINUOUS
10
5.05635
20
-3.09574
11
5.05167
21
-3.09054
0
LINE
8
BLACK
6
CONTINUOUS
10
5.05167
20
-3.09054
11
5.04817
21
-3.08448
0
LINE
8
BLACK
6
CONTINUOUS
10
5.04817
20
-3.08448
11
5.04601
21
-3.07782
0
LINE
8
BLACK
6
CONTINUOUS
10
5.04601
20
-3.07782
11
5.04528
21
-3.07087
0
LINE
8
BLACK
6
CONTINUOUS
10
5.04528
20
-3.07087
11
5.04601
21
-3.06391
0
LINE
8
BLACK
6
CONTINUOUS
10
5.04601
20
-3.06391
11
5.04817
21
-3.05725
0
LINE
8
BLACK
6
CONTINUOUS
10
5.04817
20
-3.05725
11
5.05167
21
-3.0512
0
LINE
8
BLACK
6
CONTINUOUS
10
5.05167
20
-3.0512
11
5.05635
21
-3.046
0
LINE
8
BLACK
6
CONTINUOUS
10
5.05635
20
-3.046
11
5.06201
21
-3.04188
0
LINE
8
BLACK
6
CONTINUOUS
10
5.06201
20
-3.04188
11
5.0684
21
-3.03904
0
LINE
8
BLACK
6
CONTINUOUS
10
5.0684
20
-3.03904
11
5.07524
21
-3.03758
0
LINE
8
BLACK
6
CONTINUOUS
10
5.07524
20
-3.03758
11
5.08224
21
-3.03758
0
LINE
8
BLACK
6
CONTINUOUS
10
5.08224
20
-3.03758
11
5.08908
21
-3.03904
0
LINE
8
BLACK
6
CONTINUOUS
10
6.15207
20
-3.03904
11
6.15846
21
-3.04188
0
LINE
8
BLACK
6
CONTINUOUS
10
6.15846
20
-3.04188
11
6.16412
21
-3.046
0
LINE
8
BLACK
6
CONTINUOUS
10
6.16412
20
-3.046
11
6.16881
21
-3.0512
0
LINE
8
BLACK
6
CONTINUOUS
10
6.16881
20
-3.0512
11
6.1723
21
-3.05725
0
LINE
8
BLACK
6
CONTINUOUS
10
6.1723
20
-3.05725
11
6.17447
21
-3.06391
0
LINE
8
BLACK
6
CONTINUOUS
10
6.17447
20
-3.06391
11
6.1752
21
-3.07087
0
LINE
8
BLACK
6
CONTINUOUS
10
6.1752
20
-3.07087
11
6.17447
21
-3.07782
0
LINE
8
BLACK
6
CONTINUOUS
10
6.17447
20
-3.07782
11
6.1723
21
-3.08448
0
LINE
8
BLACK
6
CONTINUOUS
10
6.1723
20
-3.08448
11
6.16881
21
-3.09054
0
LINE
8
BLACK
6
CONTINUOUS
10
6.16881
20
-3.09054
11
6.16412
21
-3.09574
0
LINE
8
BLACK
6
CONTINUOUS
10
6.16412
20
-3.09574
11
6.15846
21
-3.09985
0
LINE
8
BLACK
6
CONTINUOUS
10
6.15846
20
-3.09985
11
6.15207
21
-3.10269
0
LINE
8
BLACK
6
CONTINUOUS
10
6.15207
20
-3.10269
11
6.14523
21
-3.10415
0
LINE
8
BLACK
6
CONTINUOUS
10
6.14523
20
-3.10415
11
6.13823
21
-3.10415
0
LINE
8
BLACK
6
CONTINUOUS
10
6.13823
20
-3.10415
11
6.13139
21
-3.10269
0
LINE
8
BLACK
6
CONTINUOUS
10
6.13139
20
-3.10269
11
6.125
21
-3.09985
0
LINE
8
BLACK
6
CONTINUOUS
10
6.125
20
-3.09985
11
6.11934
21
-3.09574
0
LINE
8
BLACK
6
CONTINUOUS
10
6.11934
20
-3.09574
11
6.11466
21
-3.09054
0
LINE
8
BLACK
6
CONTINUOUS
10
6.11466
20
-3.09054
11
6.11116
21
-3.08448
0
LINE
8
BLACK
6
CONTINUOUS
10
6.11116
20
-3.08448
11
6.109
21
-3.07782
0
LINE
8
BLACK
6
CONTINUOUS
10
6.109
20
-3.07782
11
6.10827
21
-3.07087
0
LINE
8
BLACK
6
CONTINUOUS
10
6.10827
20
-3.07087
11
6.109
21
-3.06391
0
LINE
8
BLACK
6
CONTINUOUS
10
6.109
20
-3.06391
11
6.11116
21
-3.05725
0
LINE
8
BLACK
6
CONTINUOUS
10
6.11116
20
-3.05725
11
6.11466
21
-3.0512
0
LINE
8
BLACK
6
CONTINUOUS
10
6.11466
20
-3.0512
11
6.11934
21
-3.046
0
LINE
8
BLACK
6
CONTINUOUS
10
6.11934
20
-3.046
11
6.125
21
-3.04188
0
LINE
8
BLACK
6
CONTINUOUS
10
6.125
20
-3.04188
11
6.13139
21
-3.03904
0
LINE
8
BLACK
6
CONTINUOUS
10
6.13139
20
-3.03904
11
6.13823
21
-3.03758
0
LINE
8
BLACK
6
CONTINUOUS
10
6.13823
20
-3.03758
11
6.14523
21
-3.03758
0
LINE
8
BLACK
6
CONTINUOUS
10
6.14523
20
-3.03758
11
6.15207
21
-3.03904
0
LINE
8
BLACK
6
CONTINUOUS
10
4.69538
20
-3.03904
11
4.70177
21
-3.04188
0
LINE
8
BLACK
6
CONTINUOUS
10
4.70177
20
-3.04188
11
4.70743
21
-3.046
0
LINE
8
BLACK
6
CONTINUOUS
10
4.70743
20
-3.046
11
4.71211
21
-3.0512
0
LINE
8
BLACK
6
CONTINUOUS
10
4.71211
20
-3.0512
11
4.71561
21
-3.05725
0
LINE
8
BLACK
6
CONTINUOUS
10
4.71561
20
-3.05725
11
4.71777
21
-3.06391
0
LINE
8
BLACK
6
CONTINUOUS
10
4.71777
20
-3.06391
11
4.7185
21
-3.07087
0
LINE
8
BLACK
6
CONTINUOUS
10
4.7185
20
-3.07087
11
4.71777
21
-3.07782
0
LINE
8
BLACK
6
CONTINUOUS
10
4.71777
20
-3.07782
11
4.71561
21
-3.08448
0
LINE
8
BLACK
6
CONTINUOUS
10
4.71561
20
-3.08448
11
4.71211
21
-3.09054
0
LINE
8
BLACK
6
CONTINUOUS
10
4.71211
20
-3.09054
11
4.70743
21
-3.09574
0
LINE
8
BLACK
6
CONTINUOUS
10
4.70743
20
-3.09574
11
4.70177
21
-3.09985
0
LINE
8
BLACK
6
CONTINUOUS
10
4.70177
20
-3.09985
11
4.69538
21
-3.10269
0
LINE
8
BLACK
6
CONTINUOUS
10
4.69538
20
-3.10269
11
4.68854
21
-3.10415
0
LINE
8
BLACK
6
CONTINUOUS
10
4.68854
20
-3.10415
11
4.68154
21
-3.10415
0
LINE
8
BLACK
6
CONTINUOUS
10
4.68154
20
-3.10415
11
4.6747
21
-3.10269
0
LINE
8
BLACK
6
CONTINUOUS
10
4.6747
20
-3.10269
11
4.66831
21
-3.09985
0
LINE
8
BLACK
6
CONTINUOUS
10
4.66831
20
-3.09985
11
4.66265
21
-3.09574
0
LINE
8
BLACK
6
CONTINUOUS
10
4.66265
20
-3.09574
11
4.65797
21
-3.09054
0
LINE
8
BLACK
6
CONTINUOUS
10
4.65797
20
-3.09054
11
4.65447
21
-3.08448
0
LINE
8
BLACK
6
CONTINUOUS
10
4.65447
20
-3.08448
11
4.65231
21
-3.07782
0
LINE
8
BLACK
6
CONTINUOUS
10
4.65231
20
-3.07782
11
4.65157
21
-3.07087
0
LINE
8
BLACK
6
CONTINUOUS
10
4.65157
20
-3.07087
11
4.65231
21
-3.06391
0
LINE
8
BLACK
6
CONTINUOUS
10
4.65231
20
-3.06391
11
4.65447
21
-3.05725
0
LINE
8
BLACK
6
CONTINUOUS
10
4.65447
20
-3.05725
11
4.65797
21
-3.0512
0
LINE
8
BLACK
6
CONTINUOUS
10
4.65797
20
-3.0512
11
4.66265
21
-3.046
0
LINE
8
BLACK
6
CONTINUOUS
10
4.66265
20
-3.046
11
4.66831
21
-3.04188
0
LINE
8
BLACK
6
CONTINUOUS
10
4.66831
20
-3.04188
11
4.6747
21
-3.03904
0
LINE
8
BLACK
6
CONTINUOUS
10
4.6747
20
-3.03904
11
4.68154
21
-3.03758
0
LINE
8
BLACK
6
CONTINUOUS
10
4.68154
20
-3.03758
11
4.68854
21
-3.03758
0
LINE
8
BLACK
6
CONTINUOUS
10
4.68854
20
-3.03758
11
4.69538
21
-3.03904
0
LINE
8
BLACK
6
CONTINUOUS
10
4.82958
20
-3.04212
11
4.83578
21
-3.04433
0
LINE
8
BLACK
6
CONTINUOUS
10
4.83578
20
-3.04433
11
4.84134
21
-3.04785
0
LINE
8
BLACK
6
CONTINUOUS
10
4.84134
20
-3.04785
11
4.84598
21
-3.05253
0
LINE
8
BLACK
6
CONTINUOUS
10
4.84598
20
-3.05253
11
4.84946
21
-3.05811
0
LINE
8
BLACK
6
CONTINUOUS
10
4.84946
20
-3.05811
11
4.85163
21
-3.06432
0
LINE
8
BLACK
6
CONTINUOUS
10
4.85163
20
-3.06432
11
4.85236
21
-3.07087
0
LINE
8
BLACK
6
CONTINUOUS
10
4.85236
20
-3.07087
11
4.85235
21
-3.07169
0
LINE
8
BLACK
6
CONTINUOUS
10
4.85235
20
-3.07169
11
4.85143
21
-3.07821
0
LINE
8
BLACK
6
CONTINUOUS
10
4.85143
20
-3.07821
11
4.8491
21
-3.08436
0
LINE
8
BLACK
6
CONTINUOUS
10
4.8491
20
-3.08436
11
4.84545
21
-3.08985
0
LINE
8
BLACK
6
CONTINUOUS
10
4.84545
20
-3.08985
11
4.84069
21
-3.09439
0
LINE
8
BLACK
6
CONTINUOUS
10
4.84069
20
-3.09439
11
4.83503
21
-3.09776
0
LINE
8
BLACK
6
CONTINUOUS
10
4.83503
20
-3.09776
11
4.82877
21
-3.09979
0
LINE
8
BLACK
6
CONTINUOUS
10
4.82877
20
-3.09979
11
4.82222
21
-3.10039
0
LINE
8
BLACK
6
CONTINUOUS
10
4.82222
20
-3.10039
11
4.81569
21
-3.09952
0
LINE
8
BLACK
6
CONTINUOUS
10
4.81569
20
-3.09952
11
4.80952
21
-3.09722
0
LINE
8
BLACK
6
CONTINUOUS
10
4.80952
20
-3.09722
11
4.80401
21
-3.09362
0
LINE
8
BLACK
6
CONTINUOUS
10
4.80401
20
-3.09362
11
4.79944
21
-3.08888
0
LINE
8
BLACK
6
CONTINUOUS
10
4.79944
20
-3.08888
11
4.79603
21
-3.08325
0
LINE
8
BLACK
6
CONTINUOUS
10
4.79603
20
-3.08325
11
4.79395
21
-3.07701
0
LINE
8
BLACK
6
CONTINUOUS
10
4.79395
20
-3.07701
11
4.79331
21
-3.07045
0
LINE
8
BLACK
6
CONTINUOUS
10
4.79331
20
-3.07045
11
4.79413
21
-3.06392
0
LINE
8
BLACK
6
CONTINUOUS
10
4.79413
20
-3.06392
11
4.79639
21
-3.05774
0
LINE
8
BLACK
6
CONTINUOUS
10
4.79639
20
-3.05774
11
4.79995
21
-3.0522
0
LINE
8
BLACK
6
CONTINUOUS
10
4.79995
20
-3.0522
11
4.80466
21
-3.0476
0
LINE
8
BLACK
6
CONTINUOUS
10
4.80466
20
-3.0476
11
4.81026
21
-3.04415
0
LINE
8
BLACK
6
CONTINUOUS
10
4.81026
20
-3.04415
11
4.81649
21
-3.04203
0
LINE
8
BLACK
6
CONTINUOUS
10
4.81649
20
-3.04203
11
4.82304
21
-3.04134
0
LINE
8
BLACK
6
CONTINUOUS
10
4.82304
20
-3.04134
11
4.82958
21
-3.04212
0
LINE
8
BLACK
6
CONTINUOUS
10
5.87288
20
-3.02243
11
5.87909
21
-3.02464
0
LINE
8
BLACK
6
CONTINUOUS
10
5.87909
20
-3.02464
11
5.88464
21
-3.02817
0
LINE
8
BLACK
6
CONTINUOUS
10
5.88464
20
-3.02817
11
5.88928
21
-3.03284
0
LINE
8
BLACK
6
CONTINUOUS
10
5.88928
20
-3.03284
11
5.89277
21
-3.03842
0
LINE
8
BLACK
6
CONTINUOUS
10
5.89277
20
-3.03842
11
5.89494
21
-3.04464
0
LINE
8
BLACK
6
CONTINUOUS
10
5.89494
20
-3.04464
11
5.89567
21
-3.05118
0
LINE
8
BLACK
6
CONTINUOUS
10
5.89567
20
-3.05118
11
5.89566
21
-3.05201
0
LINE
8
BLACK
6
CONTINUOUS
10
5.89566
20
-3.05201
11
5.89474
21
-3.05852
0
LINE
8
BLACK
6
CONTINUOUS
10
5.89474
20
-3.05852
11
5.8924
21
-3.06468
0
LINE
8
BLACK
6
CONTINUOUS
10
5.8924
20
-3.06468
11
5.88876
21
-3.07016
0
LINE
8
BLACK
6
CONTINUOUS
10
5.88876
20
-3.07016
11
5.88399
21
-3.0747
0
LINE
8
BLACK
6
CONTINUOUS
10
5.88399
20
-3.0747
11
5.87834
21
-3.07807
0
LINE
8
BLACK
6
CONTINUOUS
10
5.87834
20
-3.07807
11
5.87208
21
-3.08011
0
LINE
8
BLACK
6
CONTINUOUS
10
5.87208
20
-3.08011
11
5.86552
21
-3.0807
0
LINE
8
BLACK
6
CONTINUOUS
10
5.86552
20
-3.0807
11
5.859
21
-3.07983
0
LINE
8
BLACK
6
CONTINUOUS
10
5.859
20
-3.07983
11
5.85283
21
-3.07754
0
LINE
8
BLACK
6
CONTINUOUS
10
5.85283
20
-3.07754
11
5.84732
21
-3.07393
0
LINE
8
BLACK
6
CONTINUOUS
10
5.84732
20
-3.07393
11
5.84275
21
-3.0692
0
LINE
8
BLACK
6
CONTINUOUS
10
5.84275
20
-3.0692
11
5.83934
21
-3.06357
0
LINE
8
BLACK
6
CONTINUOUS
10
5.83934
20
-3.06357
11
5.83726
21
-3.05732
0
LINE
8
BLACK
6
CONTINUOUS
10
5.83726
20
-3.05732
11
5.83662
21
-3.05077
0
LINE
8
BLACK
6
CONTINUOUS
10
5.83662
20
-3.05077
11
5.83744
21
-3.04424
0
LINE
8
BLACK
6
CONTINUOUS
10
5.83744
20
-3.04424
11
5.83969
21
-3.03805
0
LINE
8
BLACK
6
CONTINUOUS
10
5.83969
20
-3.03805
11
5.84326
21
-3.03252
0
LINE
8
BLACK
6
CONTINUOUS
10
5.84326
20
-3.03252
11
5.84796
21
-3.02791
0
LINE
8
BLACK
6
CONTINUOUS
10
5.84796
20
-3.02791
11
5.85357
21
-3.02446
0
LINE
8
BLACK
6
CONTINUOUS
10
5.85357
20
-3.02446
11
5.8598
21
-3.02234
0
LINE
8
BLACK
6
CONTINUOUS
10
5.8598
20
-3.02234
11
5.86635
21
-3.02165
0
LINE
8
BLACK
6
CONTINUOUS
10
5.86635
20
-3.02165
11
5.87288
21
-3.02243
0
LINE
8
BLACK
6
CONTINUOUS
10
5.08908
20
-2.94061
11
5.09547
21
-2.94346
0
LINE
8
BLACK
6
CONTINUOUS
10
5.09547
20
-2.94346
11
5.10113
21
-2.94757
0
LINE
8
BLACK
6
CONTINUOUS
10
5.10113
20
-2.94757
11
5.10581
21
-2.95277
0
LINE
8
BLACK
6
CONTINUOUS
10
5.10581
20
-2.95277
11
5.10931
21
-2.95883
0
LINE
8
BLACK
6
CONTINUOUS
10
5.10931
20
-2.95883
11
5.11147
21
-2.96548
0
LINE
8
BLACK
6
CONTINUOUS
10
5.11147
20
-2.96548
11
5.1122
21
-2.97244
0
LINE
8
BLACK
6
CONTINUOUS
10
5.1122
20
-2.97244
11
5.11147
21
-2.9794
0
LINE
8
BLACK
6
CONTINUOUS
10
5.11147
20
-2.9794
11
5.10931
21
-2.98605
0
LINE
8
BLACK
6
CONTINUOUS
10
5.10931
20
-2.98605
11
5.10581
21
-2.99211
0
LINE
8
BLACK
6
CONTINUOUS
10
5.10581
20
-2.99211
11
5.10113
21
-2.99731
0
LINE
8
BLACK
6
CONTINUOUS
10
5.10113
20
-2.99731
11
5.09547
21
-3.00142
0
LINE
8
BLACK
6
CONTINUOUS
10
5.09547
20
-3.00142
11
5.08908
21
-3.00427
0
LINE
8
BLACK
6
CONTINUOUS
10
5.08908
20
-3.00427
11
5.08224
21
-3.00572
0
LINE
8
BLACK
6
CONTINUOUS
10
5.08224
20
-3.00572
11
5.07524
21
-3.00572
0
LINE
8
BLACK
6
CONTINUOUS
10
5.07524
20
-3.00572
11
5.0684
21
-3.00427
0
LINE
8
BLACK
6
CONTINUOUS
10
5.0684
20
-3.00427
11
5.06201
21
-3.00142
0
LINE
8
BLACK
6
CONTINUOUS
10
5.06201
20
-3.00142
11
5.05635
21
-2.99731
0
LINE
8
BLACK
6
CONTINUOUS
10
5.05635
20
-2.99731
11
5.05167
21
-2.99211
0
LINE
8
BLACK
6
CONTINUOUS
10
5.05167
20
-2.99211
11
5.04817
21
-2.98605
0
LINE
8
BLACK
6
CONTINUOUS
10
5.04817
20
-2.98605
11
5.04601
21
-2.9794
0
LINE
8
BLACK
6
CONTINUOUS
10
5.04601
20
-2.9794
11
5.04528
21
-2.97244
0
LINE
8
BLACK
6
CONTINUOUS
10
5.04528
20
-2.97244
11
5.04601
21
-2.96548
0
LINE
8
BLACK
6
CONTINUOUS
10
5.04601
20
-2.96548
11
5.04817
21
-2.95883
0
LINE
8
BLACK
6
CONTINUOUS
10
5.04817
20
-2.95883
11
5.05167
21
-2.95277
0
LINE
8
BLACK
6
CONTINUOUS
10
5.05167
20
-2.95277
11
5.05635
21
-2.94757
0
LINE
8
BLACK
6
CONTINUOUS
10
5.05635
20
-2.94757
11
5.06201
21
-2.94346
0
LINE
8
BLACK
6
CONTINUOUS
10
5.06201
20
-2.94346
11
5.0684
21
-2.94061
0
LINE
8
BLACK
6
CONTINUOUS
10
5.0684
20
-2.94061
11
5.07524
21
-2.93916
0
LINE
8
BLACK
6
CONTINUOUS
10
5.07524
20
-2.93916
11
5.08224
21
-2.93916
0
LINE
8
BLACK
6
CONTINUOUS
10
5.08224
20
-2.93916
11
5.08908
21
-2.94061
0
LINE
8
BLACK
6
CONTINUOUS
10
4.69178
20
-2.94369
11
4.69798
21
-2.9459
0
LINE
8
BLACK
6
CONTINUOUS
10
4.69798
20
-2.9459
11
4.70354
21
-2.94943
0
LINE
8
BLACK
6
CONTINUOUS
10
4.70354
20
-2.94943
11
4.70818
21
-2.9541
0
LINE
8
BLACK
6
CONTINUOUS
10
4.70818
20
-2.9541
11
4.71167
21
-2.95968
0
LINE
8
BLACK
6
CONTINUOUS
10
4.71167
20
-2.95968
11
4.71383
21
-2.9659
0
LINE
8
BLACK
6
CONTINUOUS
10
4.71383
20
-2.9659
11
4.71457
21
-2.97244
0
LINE
8
BLACK
6
CONTINUOUS
10
4.71457
20
-2.97244
11
4.71456
21
-2.97327
0
LINE
8
BLACK
6
CONTINUOUS
10
4.71456
20
-2.97327
11
4.71364
21
-2.97978
0
LINE
8
BLACK
6
CONTINUOUS
10
4.71364
20
-2.97978
11
4.7113
21
-2.98594
0
LINE
8
BLACK
6
CONTINUOUS
10
4.7113
20
-2.98594
11
4.70766
21
-2.99142
0
LINE
8
BLACK
6
CONTINUOUS
10
4.70766
20
-2.99142
11
4.70289
21
-2.99596
0
LINE
8
BLACK
6
CONTINUOUS
10
4.70289
20
-2.99596
11
4.69724
21
-2.99933
0
LINE
8
BLACK
6
CONTINUOUS
10
4.69724
20
-2.99933
11
4.69098
21
-3.00137
0
LINE
8
BLACK
6
CONTINUOUS
10
4.69098
20
-3.00137
11
4.68442
21
-3.00196
0
LINE
8
BLACK
6
CONTINUOUS
10
4.68442
20
-3.00196
11
4.6779
21
-3.00109
0
LINE
8
BLACK
6
CONTINUOUS
10
4.6779
20
-3.00109
11
4.67173
21
-2.9988
0
LINE
8
BLACK
6
CONTINUOUS
10
4.67173
20
-2.9988
11
4.66622
21
-2.99519
0
LINE
8
BLACK
6
CONTINUOUS
10
4.66622
20
-2.99519
11
4.66165
21
-2.99046
0
LINE
8
BLACK
6
CONTINUOUS
10
4.66165
20
-2.99046
11
4.65823
21
-2.98483
0
LINE
8
BLACK
6
CONTINUOUS
10
4.65823
20
-2.98483
11
4.65616
21
-2.97858
0
LINE
8
BLACK
6
CONTINUOUS
10
4.65616
20
-2.97858
11
4.65551
21
-2.97203
0
LINE
8
BLACK
6
CONTINUOUS
10
4.65551
20
-2.97203
11
4.65634
21
-2.9655
0
LINE
8
BLACK
6
CONTINUOUS
10
4.65634
20
-2.9655
11
4.65859
21
-2.95931
0
LINE
8
BLACK
6
CONTINUOUS
10
4.65859
20
-2.95931
11
4.66216
21
-2.95378
0
LINE
8
BLACK
6
CONTINUOUS
10
4.66216
20
-2.95378
11
4.66686
21
-2.94917
0
LINE
8
BLACK
6
CONTINUOUS
10
4.66686
20
-2.94917
11
4.67247
21
-2.94572
0
LINE
8
BLACK
6
CONTINUOUS
10
4.67247
20
-2.94572
11
4.6787
21
-2.9436
0
LINE
8
BLACK
6
CONTINUOUS
10
4.6787
20
-2.9436
11
4.68525
21
-2.94291
0
LINE
8
BLACK
6
CONTINUOUS
10
4.68525
20
-2.94291
11
4.69178
21
-2.94369
0
LINE
8
BLACK
6
CONTINUOUS
10
4.82958
20
-2.93385
11
4.83578
21
-2.93606
0
LINE
8
BLACK
6
CONTINUOUS
10
4.83578
20
-2.93606
11
4.84134
21
-2.93959
0
LINE
8
BLACK
6
CONTINUOUS
10
4.84134
20
-2.93959
11
4.84598
21
-2.94426
0
LINE
8
BLACK
6
CONTINUOUS
10
4.84598
20
-2.94426
11
4.84946
21
-2.94984
0
LINE
8
BLACK
6
CONTINUOUS
10
4.84946
20
-2.94984
11
4.85163
21
-2.95606
0
LINE
8
BLACK
6
CONTINUOUS
10
4.85163
20
-2.95606
11
4.85236
21
-2.9626
0
LINE
8
BLACK
6
CONTINUOUS
10
4.85236
20
-2.9626
11
4.85235
21
-2.96342
0
LINE
8
BLACK
6
CONTINUOUS
10
4.85235
20
-2.96342
11
4.85143
21
-2.96994
0
LINE
8
BLACK
6
CONTINUOUS
10
4.85143
20
-2.96994
11
4.8491
21
-2.9761
0
LINE
8
BLACK
6
CONTINUOUS
10
4.8491
20
-2.9761
11
4.84545
21
-2.98158
0
LINE
8
BLACK
6
CONTINUOUS
10
4.84545
20
-2.98158
11
4.84069
21
-2.98612
0
LINE
8
BLACK
6
CONTINUOUS
10
4.84069
20
-2.98612
11
4.83503
21
-2.98949
0
LINE
8
BLACK
6
CONTINUOUS
10
4.83503
20
-2.98949
11
4.82877
21
-2.99152
0
LINE
8
BLACK
6
CONTINUOUS
10
4.82877
20
-2.99152
11
4.82222
21
-2.99212
0
LINE
8
BLACK
6
CONTINUOUS
10
4.82222
20
-2.99212
11
4.81569
21
-2.99125
0
LINE
8
BLACK
6
CONTINUOUS
10
4.81569
20
-2.99125
11
4.80952
21
-2.98895
0
LINE
8
BLACK
6
CONTINUOUS
10
4.80952
20
-2.98895
11
4.80401
21
-2.98535
0
LINE
8
BLACK
6
CONTINUOUS
10
4.80401
20
-2.98535
11
4.79944
21
-2.98061
0
LINE
8
BLACK
6
CONTINUOUS
10
4.79944
20
-2.98061
11
4.79603
21
-2.97498
0
LINE
8
BLACK
6
CONTINUOUS
10
4.79603
20
-2.97498
11
4.79395
21
-2.96874
0
LINE
8
BLACK
6
CONTINUOUS
10
4.79395
20
-2.96874
11
4.79331
21
-2.96219
0
LINE
8
BLACK
6
CONTINUOUS
10
4.79331
20
-2.96219
11
4.79413
21
-2.95566
0
LINE
8
BLACK
6
CONTINUOUS
10
4.79413
20
-2.95566
11
4.79639
21
-2.94947
0
LINE
8
BLACK
6
CONTINUOUS
10
4.79639
20
-2.94947
11
4.79995
21
-2.94394
0
LINE
8
BLACK
6
CONTINUOUS
10
4.79995
20
-2.94394
11
4.80466
21
-2.93933
0
LINE
8
BLACK
6
CONTINUOUS
10
4.80466
20
-2.93933
11
4.81026
21
-2.93588
0
LINE
8
BLACK
6
CONTINUOUS
10
4.81026
20
-2.93588
11
4.81649
21
-2.93376
0
LINE
8
BLACK
6
CONTINUOUS
10
4.81649
20
-2.93376
11
4.82304
21
-2.93307
0
LINE
8
BLACK
6
CONTINUOUS
10
4.82304
20
-2.93307
11
4.82958
21
-2.93385
0
LINE
8
BLACK
6
CONTINUOUS
10
4.96737
20
-2.93385
11
4.97357
21
-2.93606
0
LINE
8
BLACK
6
CONTINUOUS
10
4.97357
20
-2.93606
11
4.97913
21
-2.93959
0
LINE
8
BLACK
6
CONTINUOUS
10
4.97913
20
-2.93959
11
4.98377
21
-2.94426
0
LINE
8
BLACK
6
CONTINUOUS
10
4.98377
20
-2.94426
11
4.98726
21
-2.94984
0
LINE
8
BLACK
6
CONTINUOUS
10
4.98726
20
-2.94984
11
4.98942
21
-2.95606
0
LINE
8
BLACK
6
CONTINUOUS
10
4.98942
20
-2.95606
11
4.99016
21
-2.9626
0
LINE
8
BLACK
6
CONTINUOUS
10
4.99016
20
-2.9626
11
4.99015
21
-2.96342
0
LINE
8
BLACK
6
CONTINUOUS
10
4.99015
20
-2.96342
11
4.98923
21
-2.96994
0
LINE
8
BLACK
6
CONTINUOUS
10
4.98923
20
-2.96994
11
4.98689
21
-2.9761
0
LINE
8
BLACK
6
CONTINUOUS
10
4.98689
20
-2.9761
11
4.98325
21
-2.98158
0
LINE
8
BLACK
6
CONTINUOUS
10
4.98325
20
-2.98158
11
4.97848
21
-2.98612
0
LINE
8
BLACK
6
CONTINUOUS
10
4.97848
20
-2.98612
11
4.97283
21
-2.98949
0
LINE
8
BLACK
6
CONTINUOUS
10
4.97283
20
-2.98949
11
4.96657
21
-2.99152
0
LINE
8
BLACK
6
CONTINUOUS
10
4.96657
20
-2.99152
11
4.96001
21
-2.99212
0
LINE
8
BLACK
6
CONTINUOUS
10
4.96001
20
-2.99212
11
4.95349
21
-2.99125
0
LINE
8
BLACK
6
CONTINUOUS
10
4.95349
20
-2.99125
11
4.94732
21
-2.98895
0
LINE
8
BLACK
6
CONTINUOUS
10
4.94732
20
-2.98895
11
4.94181
21
-2.98535
0
LINE
8
BLACK
6
CONTINUOUS
10
4.94181
20
-2.98535
11
4.93724
21
-2.98061
0
LINE
8
BLACK
6
CONTINUOUS
10
4.93724
20
-2.98061
11
4.93383
21
-2.97498
0
LINE
8
BLACK
6
CONTINUOUS
10
4.93383
20
-2.97498
11
4.93175
21
-2.96874
0
LINE
8
BLACK
6
CONTINUOUS
10
4.93175
20
-2.96874
11
4.93111
21
-2.96219
0
LINE
8
BLACK
6
CONTINUOUS
10
4.93111
20
-2.96219
11
4.93193
21
-2.95566
0
LINE
8
BLACK
6
CONTINUOUS
10
4.93193
20
-2.95566
11
4.93418
21
-2.94947
0
LINE
8
BLACK
6
CONTINUOUS
10
4.93418
20
-2.94947
11
4.93775
21
-2.94394
0
LINE
8
BLACK
6
CONTINUOUS
10
4.93775
20
-2.94394
11
4.94245
21
-2.93933
0
LINE
8
BLACK
6
CONTINUOUS
10
4.94245
20
-2.93933
11
4.94806
21
-2.93588
0
LINE
8
BLACK
6
CONTINUOUS
10
4.94806
20
-2.93588
11
4.95429
21
-2.93376
0
LINE
8
BLACK
6
CONTINUOUS
10
4.95429
20
-2.93376
11
4.96084
21
-2.93307
0
LINE
8
BLACK
6
CONTINUOUS
10
4.96084
20
-2.93307
11
4.96737
21
-2.93385
0
LINE
8
BLACK
6
CONTINUOUS
10
5.87648
20
-2.91778
11
5.88287
21
-2.92063
0
LINE
8
BLACK
6
CONTINUOUS
10
5.88287
20
-2.92063
11
5.88853
21
-2.92474
0
LINE
8
BLACK
6
CONTINUOUS
10
5.88853
20
-2.92474
11
5.89322
21
-2.92994
0
LINE
8
BLACK
6
CONTINUOUS
10
5.89322
20
-2.92994
11
5.89671
21
-2.936
0
LINE
8
BLACK
6
CONTINUOUS
10
5.89671
20
-2.936
11
5.89887
21
-2.94265
0
LINE
8
BLACK
6
CONTINUOUS
10
5.89887
20
-2.94265
11
5.89961
21
-2.94961
0
LINE
8
BLACK
6
CONTINUOUS
10
5.89961
20
-2.94961
11
5.89887
21
-2.95656
0
LINE
8
BLACK
6
CONTINUOUS
10
5.89887
20
-2.95656
11
5.89671
21
-2.96322
0
LINE
8
BLACK
6
CONTINUOUS
10
5.89671
20
-2.96322
11
5.89322
21
-2.96928
0
LINE
8
BLACK
6
CONTINUOUS
10
5.89322
20
-2.96928
11
5.88853
21
-2.97448
0
LINE
8
BLACK
6
CONTINUOUS
10
5.88853
20
-2.97448
11
5.88287
21
-2.97859
0
LINE
8
BLACK
6
CONTINUOUS
10
5.88287
20
-2.97859
11
5.87648
21
-2.98143
0
LINE
8
BLACK
6
CONTINUOUS
10
5.87648
20
-2.98143
11
5.86964
21
-2.98289
0
LINE
8
BLACK
6
CONTINUOUS
10
5.86964
20
-2.98289
11
5.86264
21
-2.98289
0
LINE
8
BLACK
6
CONTINUOUS
10
5.86264
20
-2.98289
11
5.8558
21
-2.98143
0
LINE
8
BLACK
6
CONTINUOUS
10
5.8558
20
-2.98143
11
5.84941
21
-2.97859
0
LINE
8
BLACK
6
CONTINUOUS
10
5.84941
20
-2.97859
11
5.84375
21
-2.97448
0
LINE
8
BLACK
6
CONTINUOUS
10
5.84375
20
-2.97448
11
5.83907
21
-2.96928
0
LINE
8
BLACK
6
CONTINUOUS
10
5.83907
20
-2.96928
11
5.83557
21
-2.96322
0
LINE
8
BLACK
6
CONTINUOUS
10
5.83557
20
-2.96322
11
5.83341
21
-2.95656
0
LINE
8
BLACK
6
CONTINUOUS
10
5.83341
20
-2.95656
11
5.83268
21
-2.94961
0
LINE
8
BLACK
6
CONTINUOUS
10
5.83268
20
-2.94961
11
5.83341
21
-2.94265
0
LINE
8
BLACK
6
CONTINUOUS
10
5.83341
20
-2.94265
11
5.83557
21
-2.936
0
LINE
8
BLACK
6
CONTINUOUS
10
5.83557
20
-2.936
11
5.83907
21
-2.92994
0
LINE
8
BLACK
6
CONTINUOUS
10
5.83907
20
-2.92994
11
5.84375
21
-2.92474
0
LINE
8
BLACK
6
CONTINUOUS
10
5.84375
20
-2.92474
11
5.84941
21
-2.92063
0
LINE
8
BLACK
6
CONTINUOUS
10
5.84941
20
-2.92063
11
5.8558
21
-2.91778
0
LINE
8
BLACK
6
CONTINUOUS
10
5.8558
20
-2.91778
11
5.86264
21
-2.91633
0
LINE
8
BLACK
6
CONTINUOUS
10
5.86264
20
-2.91633
11
5.86964
21
-2.91633
0
LINE
8
BLACK
6
CONTINUOUS
10
5.86964
20
-2.91633
11
5.87648
21
-2.91778
0
LINE
8
BLACK
6
CONTINUOUS
10
6.15207
20
-2.83904
11
6.15846
21
-2.84188
0
LINE
8
BLACK
6
CONTINUOUS
10
6.15846
20
-2.84188
11
6.16412
21
-2.846
0
LINE
8
BLACK
6
CONTINUOUS
10
6.16412
20
-2.846
11
6.16881
21
-2.8512
0
LINE
8
BLACK
6
CONTINUOUS
10
6.16881
20
-2.8512
11
6.1723
21
-2.85725
0
LINE
8
BLACK
6
CONTINUOUS
10
6.1723
20
-2.85725
11
6.17447
21
-2.86391
0
LINE
8
BLACK
6
CONTINUOUS
10
6.17447
20
-2.86391
11
6.1752
21
-2.87087
0
LINE
8
BLACK
6
CONTINUOUS
10
6.1752
20
-2.87087
11
6.17447
21
-2.87782
0
LINE
8
BLACK
6
CONTINUOUS
10
6.17447
20
-2.87782
11
6.1723
21
-2.88448
0
LINE
8
BLACK
6
CONTINUOUS
10
6.1723
20
-2.88448
11
6.16881
21
-2.89054
0
LINE
8
BLACK
6
CONTINUOUS
10
6.16881
20
-2.89054
11
6.16412
21
-2.89574
0
LINE
8
BLACK
6
CONTINUOUS
10
6.16412
20
-2.89574
11
6.15846
21
-2.89985
0
LINE
8
BLACK
6
CONTINUOUS
10
6.15846
20
-2.89985
11
6.15207
21
-2.90269
0
LINE
8
BLACK
6
CONTINUOUS
10
6.15207
20
-2.90269
11
6.14523
21
-2.90415
0
LINE
8
BLACK
6
CONTINUOUS
10
6.14523
20
-2.90415
11
6.13823
21
-2.90415
0
LINE
8
BLACK
6
CONTINUOUS
10
6.13823
20
-2.90415
11
6.13139
21
-2.90269
0
LINE
8
BLACK
6
CONTINUOUS
10
6.13139
20
-2.90269
11
6.125
21
-2.89985
0
LINE
8
BLACK
6
CONTINUOUS
10
6.125
20
-2.89985
11
6.11934
21
-2.89574
0
LINE
8
BLACK
6
CONTINUOUS
10
6.11934
20
-2.89574
11
6.11466
21
-2.89054
0
LINE
8
BLACK
6
CONTINUOUS
10
6.11466
20
-2.89054
11
6.11116
21
-2.88448
0
LINE
8
BLACK
6
CONTINUOUS
10
6.11116
20
-2.88448
11
6.109
21
-2.87782
0
LINE
8
BLACK
6
CONTINUOUS
10
6.109
20
-2.87782
11
6.10827
21
-2.87087
0
LINE
8
BLACK
6
CONTINUOUS
10
6.10827
20
-2.87087
11
6.109
21
-2.86391
0
LINE
8
BLACK
6
CONTINUOUS
10
6.109
20
-2.86391
11
6.11116
21
-2.85725
0
LINE
8
BLACK
6
CONTINUOUS
10
6.11116
20
-2.85725
11
6.11466
21
-2.8512
0
LINE
8
BLACK
6
CONTINUOUS
10
6.11466
20
-2.8512
11
6.11934
21
-2.846
0
LINE
8
BLACK
6
CONTINUOUS
10
6.11934
20
-2.846
11
6.125
21
-2.84188
0
LINE
8
BLACK
6
CONTINUOUS
10
6.125
20
-2.84188
11
6.13139
21
-2.83904
0
LINE
8
BLACK
6
CONTINUOUS
10
6.13139
20
-2.83904
11
6.13823
21
-2.83758
0
LINE
8
BLACK
6
CONTINUOUS
10
6.13823
20
-2.83758
11
6.14523
21
-2.83758
0
LINE
8
BLACK
6
CONTINUOUS
10
6.14523
20
-2.83758
11
6.15207
21
-2.83904
0
LINE
8
BLACK
6
CONTINUOUS
10
4.69538
20
-2.83904
11
4.70177
21
-2.84188
0
LINE
8
BLACK
6
CONTINUOUS
10
4.70177
20
-2.84188
11
4.70743
21
-2.846
0
LINE
8
BLACK
6
CONTINUOUS
10
4.70743
20
-2.846
11
4.71211
21
-2.8512
0
LINE
8
BLACK
6
CONTINUOUS
10
4.71211
20
-2.8512
11
4.71561
21
-2.85725
0
LINE
8
BLACK
6
CONTINUOUS
10
4.71561
20
-2.85725
11
4.71777
21
-2.86391
0
LINE
8
BLACK
6
CONTINUOUS
10
4.71777
20
-2.86391
11
4.7185
21
-2.87087
0
LINE
8
BLACK
6
CONTINUOUS
10
4.7185
20
-2.87087
11
4.71777
21
-2.87782
0
LINE
8
BLACK
6
CONTINUOUS
10
4.71777
20
-2.87782
11
4.71561
21
-2.88448
0
LINE
8
BLACK
6
CONTINUOUS
10
4.71561
20
-2.88448
11
4.71211
21
-2.89054
0
LINE
8
BLACK
6
CONTINUOUS
10
4.71211
20
-2.89054
11
4.70743
21
-2.89574
0
LINE
8
BLACK
6
CONTINUOUS
10
4.70743
20
-2.89574
11
4.70177
21
-2.89985
0
LINE
8
BLACK
6
CONTINUOUS
10
4.70177
20
-2.89985
11
4.69538
21
-2.90269
0
LINE
8
BLACK
6
CONTINUOUS
10
4.69538
20
-2.90269
11
4.68854
21
-2.90415
0
LINE
8
BLACK
6
CONTINUOUS
10
4.68854
20
-2.90415
11
4.68154
21
-2.90415
0
LINE
8
BLACK
6
CONTINUOUS
10
4.68154
20
-2.90415
11
4.6747
21
-2.90269
0
LINE
8
BLACK
6
CONTINUOUS
10
4.6747
20
-2.90269
11
4.66831
21
-2.89985
0
LINE
8
BLACK
6
CONTINUOUS
10
4.66831
20
-2.89985
11
4.66265
21
-2.89574
0
LINE
8
BLACK
6
CONTINUOUS
10
4.66265
20
-2.89574
11
4.65797
21
-2.89054
0
LINE
8
BLACK
6
CONTINUOUS
10
4.65797
20
-2.89054
11
4.65447
21
-2.88448
0
LINE
8
BLACK
6
CONTINUOUS
10
4.65447
20
-2.88448
11
4.65231
21
-2.87782
0
LINE
8
BLACK
6
CONTINUOUS
10
4.65231
20
-2.87782
11
4.65157
21
-2.87087
0
LINE
8
BLACK
6
CONTINUOUS
10
4.65157
20
-2.87087
11
4.65231
21
-2.86391
0
LINE
8
BLACK
6
CONTINUOUS
10
4.65231
20
-2.86391
11
4.65447
21
-2.85725
0
LINE
8
BLACK
6
CONTINUOUS
10
4.65447
20
-2.85725
11
4.65797
21
-2.8512
0
LINE
8
BLACK
6
CONTINUOUS
10
4.65797
20
-2.8512
11
4.66265
21
-2.846
0
LINE
8
BLACK
6
CONTINUOUS
10
4.66265
20
-2.846
11
4.66831
21
-2.84188
0
LINE
8
BLACK
6
CONTINUOUS
10
4.66831
20
-2.84188
11
4.6747
21
-2.83904
0
LINE
8
BLACK
6
CONTINUOUS
10
4.6747
20
-2.83904
11
4.68154
21
-2.83758
0
LINE
8
BLACK
6
CONTINUOUS
10
4.68154
20
-2.83758
11
4.68854
21
-2.83758
0
LINE
8
BLACK
6
CONTINUOUS
10
4.68854
20
-2.83758
11
4.69538
21
-2.83904
0
LINE
8
BLACK
6
CONTINUOUS
10
5.02342
20
-2.83289
11
5.03047
21
-2.83446
0
LINE
8
BLACK
6
CONTINUOUS
10
5.03047
20
-2.83446
11
5.03702
21
-2.83752
0
LINE
8
BLACK
6
CONTINUOUS
10
5.03702
20
-2.83752
11
5.04276
21
-2.84191
0
LINE
8
BLACK
6
CONTINUOUS
10
5.04276
20
-2.84191
11
5.04743
21
-2.84743
0
LINE
8
BLACK
6
CONTINUOUS
10
5.04743
20
-2.84743
11
5.0508
21
-2.85382
0
LINE
8
BLACK
6
CONTINUOUS
10
5.0508
20
-2.85382
11
5.05272
21
-2.86079
0
LINE
8
BLACK
6
CONTINUOUS
10
5.05272
20
-2.86079
11
5.0531
21
-2.86801
0
LINE
8
BLACK
6
CONTINUOUS
10
5.0531
20
-2.86801
11
5.05192
21
-2.87514
0
LINE
8
BLACK
6
CONTINUOUS
10
5.05192
20
-2.87514
11
5.04923
21
-2.88185
0
LINE
8
BLACK
6
CONTINUOUS
10
5.04923
20
-2.88185
11
5.04517
21
-2.88783
0
LINE
8
BLACK
6
CONTINUOUS
10
5.04517
20
-2.88783
11
5.03992
21
-2.8928
0
LINE
8
BLACK
6
CONTINUOUS
10
5.03992
20
-2.8928
11
5.03372
21
-2.89652
0
LINE
8
BLACK
6
CONTINUOUS
10
5.03372
20
-2.89652
11
5.02687
21
-2.89883
0
LINE
8
BLACK
6
CONTINUOUS
10
5.02687
20
-2.89883
11
5.01969
21
-2.89961
0
LINE
8
BLACK
6
CONTINUOUS
10
5.01969
20
-2.89961
11
4.98031
21
-2.89961
0
LINE
8
BLACK
6
CONTINUOUS
10
4.98031
20
-2.89961
11
4.97658
21
-2.8994
0
LINE
8
BLACK
6
CONTINUOUS
10
4.97658
20
-2.8994
11
4.96953
21
-2.89782
0
LINE
8
BLACK
6
CONTINUOUS
10
4.96953
20
-2.89782
11
4.96298
21
-2.89477
0
LINE
8
BLACK
6
CONTINUOUS
10
4.96298
20
-2.89477
11
4.95724
21
-2.89038
0
LINE
8
BLACK
6
CONTINUOUS
10
4.95724
20
-2.89038
11
4.95257
21
-2.88485
0
LINE
8
BLACK
6
CONTINUOUS
10
4.95257
20
-2.88485
11
4.9492
21
-2.87846
0
LINE
8
BLACK
6
CONTINUOUS
10
4.9492
20
-2.87846
11
4.94728
21
-2.87149
0
LINE
8
BLACK
6
CONTINUOUS
10
4.94728
20
-2.87149
11
4.9469
21
-2.86427
0
LINE
8
BLACK
6
CONTINUOUS
10
4.9469
20
-2.86427
11
4.94808
21
-2.85714
0
LINE
8
BLACK
6
CONTINUOUS
10
4.94808
20
-2.85714
11
4.95077
21
-2.85043
0
LINE
8
BLACK
6
CONTINUOUS
10
4.95077
20
-2.85043
11
4.95483
21
-2.84445
0
LINE
8
BLACK
6
CONTINUOUS
10
4.95483
20
-2.84445
11
4.96008
21
-2.83949
0
LINE
8
BLACK
6
CONTINUOUS
10
4.96008
20
-2.83949
11
4.96628
21
-2.83576
0
LINE
8
BLACK
6
CONTINUOUS
10
4.96628
20
-2.83576
11
4.97313
21
-2.83346
0
LINE
8
BLACK
6
CONTINUOUS
10
4.97313
20
-2.83346
11
4.98031
21
-2.83268
0
LINE
8
BLACK
6
CONTINUOUS
10
4.98031
20
-2.83268
11
5.01969
21
-2.83268
0
LINE
8
BLACK
6
CONTINUOUS
10
5.01969
20
-2.83268
11
5.02342
21
-2.83289
0
LINE
8
BLACK
6
CONTINUOUS
10
5.82367
20
-2.69763
11
5.82987
21
-2.69984
0
LINE
8
BLACK
6
CONTINUOUS
10
5.82987
20
-2.69984
11
5.83543
21
-2.70337
0
LINE
8
BLACK
6
CONTINUOUS
10
5.83543
20
-2.70337
11
5.84007
21
-2.70804
0
LINE
8
BLACK
6
CONTINUOUS
10
5.84007
20
-2.70804
11
5.84356
21
-2.71362
0
LINE
8
BLACK
6
CONTINUOUS
10
5.84356
20
-2.71362
11
5.84572
21
-2.71984
0
LINE
8
BLACK
6
CONTINUOUS
10
5.84572
20
-2.71984
11
5.84646
21
-2.72638
0
LINE
8
BLACK
6
CONTINUOUS
10
5.84646
20
-2.72638
11
5.84645
21
-2.7272
0
LINE
8
BLACK
6
CONTINUOUS
10
5.84645
20
-2.7272
11
5.84553
21
-2.73372
0
LINE
8
BLACK
6
CONTINUOUS
10
5.84553
20
-2.73372
11
5.84319
21
-2.73987
0
LINE
8
BLACK
6
CONTINUOUS
10
5.84319
20
-2.73987
11
5.83955
21
-2.74536
0
LINE
8
BLACK
6
CONTINUOUS
10
5.83955
20
-2.74536
11
5.83478
21
-2.7499
0
LINE
8
BLACK
6
CONTINUOUS
10
5.83478
20
-2.7499
11
5.82913
21
-2.75327
0
LINE
8
BLACK
6
CONTINUOUS
10
5.82913
20
-2.75327
11
5.82287
21
-2.7553
0
LINE
8
BLACK
6
CONTINUOUS
10
5.82287
20
-2.7553
11
5.81631
21
-2.7559
0
LINE
8
BLACK
6
CONTINUOUS
10
5.81631
20
-2.7559
11
5.80979
21
-2.75503
0
LINE
8
BLACK
6
CONTINUOUS
10
5.80979
20
-2.75503
11
5.80362
21
-2.75273
0
LINE
8
BLACK
6
CONTINUOUS
10
5.80362
20
-2.75273
11
5.79811
21
-2.74913
0
LINE
8
BLACK
6
CONTINUOUS
10
5.79811
20
-2.74913
11
5.79353
21
-2.74439
0
LINE
8
BLACK
6
CONTINUOUS
10
5.79353
20
-2.74439
11
5.79012
21
-2.73876
0
LINE
8
BLACK
6
CONTINUOUS
10
5.79012
20
-2.73876
11
5.78805
21
-2.73252
0
LINE
8
BLACK
6
CONTINUOUS
10
5.78805
20
-2.73252
11
5.7874
21
-2.72597
0
LINE
8
BLACK
6
CONTINUOUS
10
5.7874
20
-2.72597
11
5.78823
21
-2.71943
0
LINE
8
BLACK
6
CONTINUOUS
10
5.78823
20
-2.71943
11
5.79048
21
-2.71325
0
LINE
8
BLACK
6
CONTINUOUS
10
5.79048
20
-2.71325
11
5.79405
21
-2.70772
0
LINE
8
BLACK
6
CONTINUOUS
10
5.79405
20
-2.70772
11
5.79875
21
-2.70311
0
LINE
8
BLACK
6
CONTINUOUS
10
5.79875
20
-2.70311
11
5.80436
21
-2.69966
0
LINE
8
BLACK
6
CONTINUOUS
10
5.80436
20
-2.69966
11
5.81059
21
-2.69754
0
LINE
8
BLACK
6
CONTINUOUS
10
5.81059
20
-2.69754
11
5.81714
21
-2.69685
0
LINE
8
BLACK
6
CONTINUOUS
10
5.81714
20
-2.69685
11
5.82367
21
-2.69763
0
LINE
8
BLACK
6
CONTINUOUS
10
5.2476
20
-2.36777
11
5.25288
21
-2.36967
0
LINE
8
BLACK
6
CONTINUOUS
10
5.25288
20
-2.36967
11
5.25746
21
-2.37292
0
LINE
8
BLACK
6
CONTINUOUS
10
5.25746
20
-2.37292
11
5.26099
21
-2.37728
0
LINE
8
BLACK
6
CONTINUOUS
10
5.26099
20
-2.37728
11
5.26321
21
-2.38243
0
LINE
8
BLACK
6
CONTINUOUS
10
5.26321
20
-2.38243
11
5.26398
21
-2.38799
0
LINE
8
BLACK
6
CONTINUOUS
10
5.26398
20
-2.38799
11
5.26398
21
-2.42933
0
LINE
8
BLACK
6
CONTINUOUS
10
5.26398
20
-2.42933
11
5.26375
21
-2.43235
0
LINE
8
BLACK
6
CONTINUOUS
10
5.26375
20
-2.43235
11
5.26219
21
-2.43774
0
LINE
8
BLACK
6
CONTINUOUS
10
5.26219
20
-2.43774
11
5.25923
21
-2.44251
0
LINE
8
BLACK
6
CONTINUOUS
10
5.25923
20
-2.44251
11
5.2551
21
-2.4463
0
LINE
8
BLACK
6
CONTINUOUS
10
5.2551
20
-2.4463
11
5.2501
21
-2.44885
0
LINE
8
BLACK
6
CONTINUOUS
10
5.2501
20
-2.44885
11
5.2446
21
-2.44996
0
LINE
8
BLACK
6
CONTINUOUS
10
5.2446
20
-2.44996
11
5.23901
21
-2.44955
0
LINE
8
BLACK
6
CONTINUOUS
10
5.23901
20
-2.44955
11
5.23373
21
-2.44765
0
LINE
8
BLACK
6
CONTINUOUS
10
5.23373
20
-2.44765
11
5.22916
21
-2.4444
0
LINE
8
BLACK
6
CONTINUOUS
10
5.22916
20
-2.4444
11
5.22563
21
-2.44004
0
LINE
8
BLACK
6
CONTINUOUS
10
5.22563
20
-2.44004
11
5.2234
21
-2.43489
0
LINE
8
BLACK
6
CONTINUOUS
10
5.2234
20
-2.43489
11
5.22264
21
-2.42933
0
LINE
8
BLACK
6
CONTINUOUS
10
5.22264
20
-2.42933
11
5.22264
21
-2.38799
0
LINE
8
BLACK
6
CONTINUOUS
10
5.22264
20
-2.38799
11
5.22286
21
-2.38497
0
LINE
8
BLACK
6
CONTINUOUS
10
5.22286
20
-2.38497
11
5.22442
21
-2.37959
0
LINE
8
BLACK
6
CONTINUOUS
10
5.22442
20
-2.37959
11
5.22738
21
-2.37482
0
LINE
8
BLACK
6
CONTINUOUS
10
5.22738
20
-2.37482
11
5.23151
21
-2.37102
0
LINE
8
BLACK
6
CONTINUOUS
10
5.23151
20
-2.37102
11
5.23651
21
-2.36847
0
LINE
8
BLACK
6
CONTINUOUS
10
5.23651
20
-2.36847
11
5.24201
21
-2.36736
0
LINE
8
BLACK
6
CONTINUOUS
10
5.24201
20
-2.36736
11
5.2476
21
-2.36777
0
LINE
8
BLACK
6
CONTINUOUS
10
5.58776
20
-2.36777
11
5.59304
21
-2.36967
0
LINE
8
BLACK
6
CONTINUOUS
10
5.59304
20
-2.36967
11
5.59761
21
-2.37292
0
LINE
8
BLACK
6
CONTINUOUS
10
5.59761
20
-2.37292
11
5.60114
21
-2.37728
0
LINE
8
BLACK
6
CONTINUOUS
10
5.60114
20
-2.37728
11
5.60337
21
-2.38243
0
LINE
8
BLACK
6
CONTINUOUS
10
5.60337
20
-2.38243
11
5.60413
21
-2.38799
0
LINE
8
BLACK
6
CONTINUOUS
10
5.60413
20
-2.38799
11
5.60413
21
-2.42933
0
LINE
8
BLACK
6
CONTINUOUS
10
5.60413
20
-2.42933
11
5.60391
21
-2.43235
0
LINE
8
BLACK
6
CONTINUOUS
10
5.60391
20
-2.43235
11
5.60235
21
-2.43774
0
LINE
8
BLACK
6
CONTINUOUS
10
5.60235
20
-2.43774
11
5.59939
21
-2.44251
0
LINE
8
BLACK
6
CONTINUOUS
10
5.59939
20
-2.44251
11
5.59526
21
-2.4463
0
LINE
8
BLACK
6
CONTINUOUS
10
5.59526
20
-2.4463
11
5.59026
21
-2.44885
0
LINE
8
BLACK
6
CONTINUOUS
10
5.59026
20
-2.44885
11
5.58476
21
-2.44996
0
LINE
8
BLACK
6
CONTINUOUS
10
5.58476
20
-2.44996
11
5.57917
21
-2.44955
0
LINE
8
BLACK
6
CONTINUOUS
10
5.57917
20
-2.44955
11
5.57389
21
-2.44765
0
LINE
8
BLACK
6
CONTINUOUS
10
5.57389
20
-2.44765
11
5.56932
21
-2.4444
0
LINE
8
BLACK
6
CONTINUOUS
10
5.56932
20
-2.4444
11
5.56578
21
-2.44004
0
LINE
8
BLACK
6
CONTINUOUS
10
5.56578
20
-2.44004
11
5.56356
21
-2.43489
0
LINE
8
BLACK
6
CONTINUOUS
10
5.56356
20
-2.43489
11
5.5628
21
-2.42933
0
LINE
8
BLACK
6
CONTINUOUS
10
5.5628
20
-2.42933
11
5.5628
21
-2.38799
0
LINE
8
BLACK
6
CONTINUOUS
10
5.5628
20
-2.38799
11
5.56302
21
-2.38497
0
LINE
8
BLACK
6
CONTINUOUS
10
5.56302
20
-2.38497
11
5.56458
21
-2.37959
0
LINE
8
BLACK
6
CONTINUOUS
10
5.56458
20
-2.37959
11
5.56754
21
-2.37482
0
LINE
8
BLACK
6
CONTINUOUS
10
5.56754
20
-2.37482
11
5.57167
21
-2.37102
0
LINE
8
BLACK
6
CONTINUOUS
10
5.57167
20
-2.37102
11
5.57667
21
-2.36847
0
LINE
8
BLACK
6
CONTINUOUS
10
5.57667
20
-2.36847
11
5.58217
21
-2.36736
0
LINE
8
BLACK
6
CONTINUOUS
10
5.58217
20
-2.36736
11
5.58776
21
-2.36777
0
LINE
8
BLACK
6
CONTINUOUS
10
5.53356
20
-2.3779
11
5.53697
21
-2.38075
0
LINE
8
BLACK
6
CONTINUOUS
10
5.53697
20
-2.38075
11
5.53919
21
-2.3846
0
LINE
8
BLACK
6
CONTINUOUS
10
5.53919
20
-2.3846
11
5.53996
21
-2.38898
0
LINE
8
BLACK
6
CONTINUOUS
10
5.53996
20
-2.38898
11
5.53919
21
-2.39335
0
LINE
8
BLACK
6
CONTINUOUS
10
5.53919
20
-2.39335
11
5.53697
21
-2.3972
0
LINE
8
BLACK
6
CONTINUOUS
10
5.53697
20
-2.3972
11
5.53356
21
-2.40006
0
LINE
8
BLACK
6
CONTINUOUS
10
5.53356
20
-2.40006
11
5.52939
21
-2.40158
0
LINE
8
BLACK
6
CONTINUOUS
10
5.52939
20
-2.40158
11
5.52494
21
-2.40158
0
LINE
8
BLACK
6
CONTINUOUS
10
5.52494
20
-2.40158
11
5.52077
21
-2.40006
0
LINE
8
BLACK
6
CONTINUOUS
10
5.52077
20
-2.40006
11
5.51736
21
-2.3972
0
LINE
8
BLACK
6
CONTINUOUS
10
5.51736
20
-2.3972
11
5.51514
21
-2.39335
0
LINE
8
BLACK
6
CONTINUOUS
10
5.51514
20
-2.39335
11
5.51437
21
-2.38898
0
LINE
8
BLACK
6
CONTINUOUS
10
5.51437
20
-2.38898
11
5.51514
21
-2.3846
0
LINE
8
BLACK
6
CONTINUOUS
10
5.51514
20
-2.3846
11
5.51736
21
-2.38075
0
LINE
8
BLACK
6
CONTINUOUS
10
5.51736
20
-2.38075
11
5.52077
21
-2.3779
0
LINE
8
BLACK
6
CONTINUOUS
10
5.52077
20
-2.3779
11
5.52494
21
-2.37638
0
LINE
8
BLACK
6
CONTINUOUS
10
5.52494
20
-2.37638
11
5.52939
21
-2.37638
0
LINE
8
BLACK
6
CONTINUOUS
10
5.52939
20
-2.37638
11
5.53356
21
-2.3779
0
LINE
8
BLACK
6
CONTINUOUS
10
5.306
20
-2.3779
11
5.30941
21
-2.38075
0
LINE
8
BLACK
6
CONTINUOUS
10
5.30941
20
-2.38075
11
5.31163
21
-2.3846
0
LINE
8
BLACK
6
CONTINUOUS
10
5.31163
20
-2.3846
11
5.3124
21
-2.38898
0
LINE
8
BLACK
6
CONTINUOUS
10
5.3124
20
-2.38898
11
5.31163
21
-2.39335
0
LINE
8
BLACK
6
CONTINUOUS
10
5.31163
20
-2.39335
11
5.30941
21
-2.3972
0
LINE
8
BLACK
6
CONTINUOUS
10
5.30941
20
-2.3972
11
5.306
21
-2.40006
0
LINE
8
BLACK
6
CONTINUOUS
10
5.306
20
-2.40006
11
5.30183
21
-2.40158
0
LINE
8
BLACK
6
CONTINUOUS
10
5.30183
20
-2.40158
11
5.29738
21
-2.40158
0
LINE
8
BLACK
6
CONTINUOUS
10
5.29738
20
-2.40158
11
5.29321
21
-2.40006
0
LINE
8
BLACK
6
CONTINUOUS
10
5.29321
20
-2.40006
11
5.2898
21
-2.3972
0
LINE
8
BLACK
6
CONTINUOUS
10
5.2898
20
-2.3972
11
5.28758
21
-2.39335
0
LINE
8
BLACK
6
CONTINUOUS
10
5.28758
20
-2.39335
11
5.28681
21
-2.38898
0
LINE
8
BLACK
6
CONTINUOUS
10
5.28681
20
-2.38898
11
5.28758
21
-2.3846
0
LINE
8
BLACK
6
CONTINUOUS
10
5.28758
20
-2.3846
11
5.2898
21
-2.38075
0
LINE
8
BLACK
6
CONTINUOUS
10
5.2898
20
-2.38075
11
5.29321
21
-2.3779
0
LINE
8
BLACK
6
CONTINUOUS
10
5.29321
20
-2.3779
11
5.29738
21
-2.37638
0
LINE
8
BLACK
6
CONTINUOUS
10
5.29738
20
-2.37638
11
5.30183
21
-2.37638
0
LINE
8
BLACK
6
CONTINUOUS
10
5.30183
20
-2.37638
11
5.306
21
-2.3779
0
LINE
8
BLACK
6
CONTINUOUS
10
5.24622
20
-2.20494
11
5.25156
21
-2.20654
0
LINE
8
BLACK
6
CONTINUOUS
10
5.25156
20
-2.20654
11
5.25625
21
-2.20958
0
LINE
8
BLACK
6
CONTINUOUS
10
5.25625
20
-2.20958
11
5.25989
21
-2.2138
0
LINE
8
BLACK
6
CONTINUOUS
10
5.25989
20
-2.2138
11
5.2622
21
-2.21888
0
LINE
8
BLACK
6
CONTINUOUS
10
5.2622
20
-2.21888
11
5.26299
21
-2.22441
0
LINE
8
BLACK
6
CONTINUOUS
10
5.26299
20
-2.22441
11
5.26299
21
-2.26378
0
LINE
8
BLACK
6
CONTINUOUS
10
5.26299
20
-2.26378
11
5.26299
21
-2.26402
0
LINE
8
BLACK
6
CONTINUOUS
10
5.26299
20
-2.26402
11
5.26213
21
-2.26953
0
LINE
8
BLACK
6
CONTINUOUS
10
5.26213
20
-2.26953
11
5.25976
21
-2.27459
0
LINE
8
BLACK
6
CONTINUOUS
10
5.25976
20
-2.27459
11
5.25607
21
-2.27877
0
LINE
8
BLACK
6
CONTINUOUS
10
5.25607
20
-2.27877
11
5.25135
21
-2.28175
0
LINE
8
BLACK
6
CONTINUOUS
10
5.25135
20
-2.28175
11
5.24598
21
-2.28328
0
LINE
8
BLACK
6
CONTINUOUS
10
5.24598
20
-2.28328
11
5.2404
21
-2.28325
0
LINE
8
BLACK
6
CONTINUOUS
10
5.2404
20
-2.28325
11
5.23505
21
-2.28165
0
LINE
8
BLACK
6
CONTINUOUS
10
5.23505
20
-2.28165
11
5.23037
21
-2.27861
0
LINE
8
BLACK
6
CONTINUOUS
10
5.23037
20
-2.27861
11
5.22672
21
-2.27439
0
LINE
8
BLACK
6
CONTINUOUS
10
5.22672
20
-2.27439
11
5.22441
21
-2.2693
0
LINE
8
BLACK
6
CONTINUOUS
10
5.22441
20
-2.2693
11
5.22362
21
-2.26378
0
LINE
8
BLACK
6
CONTINUOUS
10
5.22362
20
-2.26378
11
5.22362
21
-2.22441
0
LINE
8
BLACK
6
CONTINUOUS
10
5.22362
20
-2.22441
11
5.22362
21
-2.22417
0
LINE
8
BLACK
6
CONTINUOUS
10
5.22362
20
-2.22417
11
5.22448
21
-2.21865
0
LINE
8
BLACK
6
CONTINUOUS
10
5.22448
20
-2.21865
11
5.22685
21
-2.2136
0
LINE
8
BLACK
6
CONTINUOUS
10
5.22685
20
-2.2136
11
5.23055
21
-2.20942
0
LINE
8
BLACK
6
CONTINUOUS
10
5.23055
20
-2.20942
11
5.23527
21
-2.20644
0
LINE
8
BLACK
6
CONTINUOUS
10
5.23527
20
-2.20644
11
5.24064
21
-2.20491
0
LINE
8
BLACK
6
CONTINUOUS
10
5.24064
20
-2.20491
11
5.24622
21
-2.20494
0
LINE
8
BLACK
6
CONTINUOUS
10
5.58637
20
-2.20494
11
5.59172
21
-2.20654
0
LINE
8
BLACK
6
CONTINUOUS
10
5.59172
20
-2.20654
11
5.59641
21
-2.20958
0
LINE
8
BLACK
6
CONTINUOUS
10
5.59641
20
-2.20958
11
5.60005
21
-2.2138
0
LINE
8
BLACK
6
CONTINUOUS
10
5.60005
20
-2.2138
11
5.60236
21
-2.21888
0
LINE
8
BLACK
6
CONTINUOUS
10
5.60236
20
-2.21888
11
5.60315
21
-2.22441
0
LINE
8
BLACK
6
CONTINUOUS
10
5.60315
20
-2.22441
11
5.60315
21
-2.26378
0
LINE
8
BLACK
6
CONTINUOUS
10
5.60315
20
-2.26378
11
5.60315
21
-2.26402
0
LINE
8
BLACK
6
CONTINUOUS
10
5.60315
20
-2.26402
11
5.60229
21
-2.26953
0
LINE
8
BLACK
6
CONTINUOUS
10
5.60229
20
-2.26953
11
5.59992
21
-2.27459
0
LINE
8
BLACK
6
CONTINUOUS
10
5.59992
20
-2.27459
11
5.59622
21
-2.27877
0
LINE
8
BLACK
6
CONTINUOUS
10
5.59622
20
-2.27877
11
5.5915
21
-2.28175
0
LINE
8
BLACK
6
CONTINUOUS
10
5.5915
20
-2.28175
11
5.58614
21
-2.28328
0
LINE
8
BLACK
6
CONTINUOUS
10
5.58614
20
-2.28328
11
5.58055
21
-2.28325
0
LINE
8
BLACK
6
CONTINUOUS
10
5.58055
20
-2.28325
11
5.57521
21
-2.28165
0
LINE
8
BLACK
6
CONTINUOUS
10
5.57521
20
-2.28165
11
5.57052
21
-2.27861
0
LINE
8
BLACK
6
CONTINUOUS
10
5.57052
20
-2.27861
11
5.56688
21
-2.27439
0
LINE
8
BLACK
6
CONTINUOUS
10
5.56688
20
-2.27439
11
5.56457
21
-2.2693
0
LINE
8
BLACK
6
CONTINUOUS
10
5.56457
20
-2.2693
11
5.56378
21
-2.26378
0
LINE
8
BLACK
6
CONTINUOUS
10
5.56378
20
-2.26378
11
5.56378
21
-2.22441
0
LINE
8
BLACK
6
CONTINUOUS
10
5.56378
20
-2.22441
11
5.56378
21
-2.22417
0
LINE
8
BLACK
6
CONTINUOUS
10
5.56378
20
-2.22417
11
5.56464
21
-2.21865
0
LINE
8
BLACK
6
CONTINUOUS
10
5.56464
20
-2.21865
11
5.56701
21
-2.2136
0
LINE
8
BLACK
6
CONTINUOUS
10
5.56701
20
-2.2136
11
5.57071
21
-2.20942
0
LINE
8
BLACK
6
CONTINUOUS
10
5.57071
20
-2.20942
11
5.57543
21
-2.20644
0
LINE
8
BLACK
6
CONTINUOUS
10
5.57543
20
-2.20644
11
5.58079
21
-2.20491
0
LINE
8
BLACK
6
CONTINUOUS
10
5.58079
20
-2.20491
11
5.58637
21
-2.20494
  0
ENDSEC
  0
EOF
