  0
SECTION
  2
HEADER
  9
$ANGBASE
  50
0.0
  9
$ANGDIR
  70
1
  9
$MEASUREMENT
  70
0
  0
ENDSEC
  0
SECTION
  2
TABLES
  0
TABLE
  2
LTYPE
  70
4
  0
LTYPE
  5
40F
  2
CONTINUOUS
  70
0
  3
Solid line
  72
65
  73
0
  40
0.0
  0
LTYPE
  5
410
  2
DASHDOT
 70
0
  3
Dash Dot ____ _ ____ _
 72
65
 73
4
 40
2.0
 49
1.25
 49
-0.25
 49
0.25
 49
-0.25
  0
LTYPE
  5
411
  2
DASHED
 70
0
  3
Dashed __ __ __ __ __
 72
65
 73
2
 40
0.75
 49
0.5
 49
-0.25
  0
LTYPE
  5
43B
  2
DOTTED
 70
0
  3
Dotted .  .  .  .
 72
65
 73
2
 40
0.2
 49
0.0
 49
-0.2
  0
ENDTAB
  0
TABLE
  2
STYLE
  70
4
  0
STYLE
  2
KICAD
  70
0
  40
0
  41
1
  42
1
  50
0
  71
0
  3
isocp.shx
  0
STYLE
  2
KICADB
  70
0
  40
0
  41
1
  42
1
  50
0
  71
0
  3
isocp.shx
  0
STYLE
  2
KICADI
  70
0
  40
0
  41
1
  42
1
  50
15
  71
0
  3
isocp.shx
  0
STYLE
  2
KICADBI
  70
0
  40
0
  41
1
  42
1
  50
15
  71
0
  3
isocp.shx
  0
ENDTAB
  0
TABLE
  2
LAYER
  70
1
  0
LAYER
  2
BLACK
  70
0
  62
7
  6
CONTINUOUS
  0
ENDTAB
  0
ENDSEC
  0
SECTION
  2
ENTITIES
0
LINE
8
BLACK
6
CONTINUOUS
10
5.54673
20
-3.84891
11
5.56639
21
-3.85246
0
LINE
8
BLACK
6
CONTINUOUS
10
5.56639
20
-3.85246
11
5.58575
21
-3.8574
0
LINE
8
BLACK
6
CONTINUOUS
10
5.58575
20
-3.8574
11
5.60471
21
-3.86371
0
LINE
8
BLACK
6
CONTINUOUS
10
5.60471
20
-3.86371
11
5.62317
21
-3.87136
0
LINE
8
BLACK
6
CONTINUOUS
10
5.62317
20
-3.87136
11
5.64104
21
-3.8803
0
LINE
8
BLACK
6
CONTINUOUS
10
5.64104
20
-3.8803
11
5.65823
21
-3.8905
0
LINE
8
BLACK
6
CONTINUOUS
10
5.65823
20
-3.8905
11
5.67464
21
-3.9019
0
LINE
8
BLACK
6
CONTINUOUS
10
5.67464
20
-3.9019
11
5.6902
21
-3.91443
0
LINE
8
BLACK
6
CONTINUOUS
10
5.6902
20
-3.91443
11
5.70482
21
-3.92805
0
LINE
8
BLACK
6
CONTINUOUS
10
5.70482
20
-3.92805
11
5.71844
21
-3.94267
0
LINE
8
BLACK
6
CONTINUOUS
10
5.71844
20
-3.94267
11
5.73098
21
-3.95823
0
LINE
8
BLACK
6
CONTINUOUS
10
5.73098
20
-3.95823
11
5.74237
21
-3.97465
0
LINE
8
BLACK
6
CONTINUOUS
10
5.74237
20
-3.97465
11
5.75257
21
-3.99183
0
LINE
8
BLACK
6
CONTINUOUS
10
5.75257
20
-3.99183
11
5.76152
21
-4.0097
0
LINE
8
BLACK
6
CONTINUOUS
10
5.76152
20
-4.0097
11
5.76916
21
-4.02816
0
LINE
8
BLACK
6
CONTINUOUS
10
5.76916
20
-4.02816
11
5.77547
21
-4.04712
0
LINE
8
BLACK
6
CONTINUOUS
10
5.77547
20
-4.04712
11
5.78041
21
-4.06648
0
LINE
8
BLACK
6
CONTINUOUS
10
5.78041
20
-4.06648
11
5.78396
21
-4.08615
0
LINE
8
BLACK
6
CONTINUOUS
10
5.78396
20
-4.08615
11
5.7861
21
-4.10601
0
LINE
8
BLACK
6
CONTINUOUS
10
5.7861
20
-4.10601
11
5.78681
21
-4.12598
0
LINE
8
BLACK
6
CONTINUOUS
10
5.78681
20
-4.12598
11
5.78681
21
-4.40354
0
LINE
8
BLACK
6
CONTINUOUS
10
5.78681
20
-4.40354
11
5.7861
21
-4.42351
0
LINE
8
BLACK
6
CONTINUOUS
10
5.7861
20
-4.42351
11
5.78396
21
-4.44338
0
LINE
8
BLACK
6
CONTINUOUS
10
5.78396
20
-4.44338
11
5.78041
21
-4.46304
0
LINE
8
BLACK
6
CONTINUOUS
10
5.78041
20
-4.46304
11
5.77547
21
-4.48241
0
LINE
8
BLACK
6
CONTINUOUS
10
5.77547
20
-4.48241
11
5.76916
21
-4.50137
0
LINE
8
BLACK
6
CONTINUOUS
10
5.76916
20
-4.50137
11
5.76152
21
-4.51983
0
LINE
8
BLACK
6
CONTINUOUS
10
5.76152
20
-4.51983
11
5.75257
21
-4.5377
0
LINE
8
BLACK
6
CONTINUOUS
10
5.75257
20
-4.5377
11
5.74237
21
-4.55488
0
LINE
8
BLACK
6
CONTINUOUS
10
5.74237
20
-4.55488
11
5.73098
21
-4.57129
0
LINE
8
BLACK
6
CONTINUOUS
10
5.73098
20
-4.57129
11
5.71844
21
-4.58685
0
LINE
8
BLACK
6
CONTINUOUS
10
5.71844
20
-4.58685
11
5.70482
21
-4.60148
0
LINE
8
BLACK
6
CONTINUOUS
10
5.70482
20
-4.60148
11
5.6902
21
-4.61509
0
LINE
8
BLACK
6
CONTINUOUS
10
5.6902
20
-4.61509
11
5.67464
21
-4.62763
0
LINE
8
BLACK
6
CONTINUOUS
10
5.67464
20
-4.62763
11
5.65823
21
-4.63903
0
LINE
8
BLACK
6
CONTINUOUS
10
5.65823
20
-4.63903
11
5.64104
21
-4.64922
0
LINE
8
BLACK
6
CONTINUOUS
10
5.64104
20
-4.64922
11
5.62317
21
-4.65817
0
LINE
8
BLACK
6
CONTINUOUS
10
5.62317
20
-4.65817
11
5.60471
21
-4.66582
0
LINE
8
BLACK
6
CONTINUOUS
10
5.60471
20
-4.66582
11
5.58575
21
-4.67213
0
LINE
8
BLACK
6
CONTINUOUS
10
5.58575
20
-4.67213
11
5.56639
21
-4.67707
0
LINE
8
BLACK
6
CONTINUOUS
10
5.56639
20
-4.67707
11
5.54673
21
-4.68062
0
LINE
8
BLACK
6
CONTINUOUS
10
5.54673
20
-4.68062
11
5.52686
21
-4.68275
0
LINE
8
BLACK
6
CONTINUOUS
10
5.52686
20
-4.68275
11
5.50689
21
-4.68346
0
LINE
8
BLACK
6
CONTINUOUS
10
5.50689
20
-4.68346
11
5.31988
21
-4.68346
0
LINE
8
BLACK
6
CONTINUOUS
10
5.31988
20
-4.68346
11
5.29991
21
-4.68275
0
LINE
8
BLACK
6
CONTINUOUS
10
5.29991
20
-4.68275
11
5.28004
21
-4.68062
0
LINE
8
BLACK
6
CONTINUOUS
10
5.28004
20
-4.68062
11
5.26038
21
-4.67707
0
LINE
8
BLACK
6
CONTINUOUS
10
5.26038
20
-4.67707
11
5.24102
21
-4.67213
0
LINE
8
BLACK
6
CONTINUOUS
10
5.24102
20
-4.67213
11
5.22206
21
-4.66582
0
LINE
8
BLACK
6
CONTINUOUS
10
5.22206
20
-4.66582
11
5.2036
21
-4.65817
0
LINE
8
BLACK
6
CONTINUOUS
10
5.2036
20
-4.65817
11
5.18573
21
-4.64922
0
LINE
8
BLACK
6
CONTINUOUS
10
5.18573
20
-4.64922
11
5.16855
21
-4.63903
0
LINE
8
BLACK
6
CONTINUOUS
10
5.16855
20
-4.63903
11
5.15213
21
-4.62763
0
LINE
8
BLACK
6
CONTINUOUS
10
5.15213
20
-4.62763
11
5.13657
21
-4.61509
0
LINE
8
BLACK
6
CONTINUOUS
10
5.13657
20
-4.61509
11
5.12195
21
-4.60148
0
LINE
8
BLACK
6
CONTINUOUS
10
5.12195
20
-4.60148
11
5.10833
21
-4.58685
0
LINE
8
BLACK
6
CONTINUOUS
10
5.10833
20
-4.58685
11
5.09579
21
-4.57129
0
LINE
8
BLACK
6
CONTINUOUS
10
5.09579
20
-4.57129
11
5.0844
21
-4.55488
0
LINE
8
BLACK
6
CONTINUOUS
10
5.0844
20
-4.55488
11
5.0742
21
-4.5377
0
LINE
8
BLACK
6
CONTINUOUS
10
5.0742
20
-4.5377
11
5.06526
21
-4.51983
0
LINE
8
BLACK
6
CONTINUOUS
10
5.06526
20
-4.51983
11
5.05761
21
-4.50137
0
LINE
8
BLACK
6
CONTINUOUS
10
5.05761
20
-4.50137
11
5.0513
21
-4.48241
0
LINE
8
BLACK
6
CONTINUOUS
10
5.0513
20
-4.48241
11
5.04636
21
-4.46304
0
LINE
8
BLACK
6
CONTINUOUS
10
5.04636
20
-4.46304
11
5.04281
21
-4.44338
0
LINE
8
BLACK
6
CONTINUOUS
10
5.04281
20
-4.44338
11
5.04067
21
-4.42351
0
LINE
8
BLACK
6
CONTINUOUS
10
5.04067
20
-4.42351
11
5.03996
21
-4.40354
0
LINE
8
BLACK
6
CONTINUOUS
10
5.03996
20
-4.40354
11
5.03996
21
-4.12598
0
LINE
8
BLACK
6
CONTINUOUS
10
5.03996
20
-4.12598
11
5.04067
21
-4.10601
0
LINE
8
BLACK
6
CONTINUOUS
10
5.04067
20
-4.10601
11
5.04281
21
-4.08615
0
LINE
8
BLACK
6
CONTINUOUS
10
5.04281
20
-4.08615
11
5.04636
21
-4.06648
0
LINE
8
BLACK
6
CONTINUOUS
10
5.04636
20
-4.06648
11
5.0513
21
-4.04712
0
LINE
8
BLACK
6
CONTINUOUS
10
5.0513
20
-4.04712
11
5.05761
21
-4.02816
0
LINE
8
BLACK
6
CONTINUOUS
10
5.05761
20
-4.02816
11
5.06526
21
-4.0097
0
LINE
8
BLACK
6
CONTINUOUS
10
5.06526
20
-4.0097
11
5.0742
21
-3.99183
0
LINE
8
BLACK
6
CONTINUOUS
10
5.0742
20
-3.99183
11
5.0844
21
-3.97465
0
LINE
8
BLACK
6
CONTINUOUS
10
5.0844
20
-3.97465
11
5.09579
21
-3.95823
0
LINE
8
BLACK
6
CONTINUOUS
10
5.09579
20
-3.95823
11
5.10833
21
-3.94267
0
LINE
8
BLACK
6
CONTINUOUS
10
5.10833
20
-3.94267
11
5.12195
21
-3.92805
0
LINE
8
BLACK
6
CONTINUOUS
10
5.12195
20
-3.92805
11
5.13657
21
-3.91443
0
LINE
8
BLACK
6
CONTINUOUS
10
5.13657
20
-3.91443
11
5.15213
21
-3.9019
0
LINE
8
BLACK
6
CONTINUOUS
10
5.15213
20
-3.9019
11
5.16855
21
-3.8905
0
LINE
8
BLACK
6
CONTINUOUS
10
5.16855
20
-3.8905
11
5.18573
21
-3.8803
0
LINE
8
BLACK
6
CONTINUOUS
10
5.18573
20
-3.8803
11
5.2036
21
-3.87136
0
LINE
8
BLACK
6
CONTINUOUS
10
5.2036
20
-3.87136
11
5.22206
21
-3.86371
0
LINE
8
BLACK
6
CONTINUOUS
10
5.22206
20
-3.86371
11
5.24102
21
-3.8574
0
LINE
8
BLACK
6
CONTINUOUS
10
5.24102
20
-3.8574
11
5.26038
21
-3.85246
0
LINE
8
BLACK
6
CONTINUOUS
10
5.26038
20
-3.85246
11
5.28004
21
-3.84891
0
LINE
8
BLACK
6
CONTINUOUS
10
5.28004
20
-3.84891
11
5.29991
21
-3.84678
0
LINE
8
BLACK
6
CONTINUOUS
10
5.29991
20
-3.84678
11
5.31988
21
-3.84606
0
LINE
8
BLACK
6
CONTINUOUS
10
5.31988
20
-3.84606
11
5.35197
21
-3.84606
0
LINE
8
BLACK
6
CONTINUOUS
10
5.35197
20
-3.84606
11
5.35197
21
-3.83858
0
LINE
8
BLACK
6
CONTINUOUS
10
5.35197
20
-3.83858
11
5.35266
21
-3.83691
0
LINE
8
BLACK
6
CONTINUOUS
10
5.35266
20
-3.83691
11
5.35433
21
-3.83622
0
LINE
8
BLACK
6
CONTINUOUS
10
5.35433
20
-3.83622
11
5.47244
21
-3.83622
0
LINE
8
BLACK
6
CONTINUOUS
10
5.47244
20
-3.83622
11
5.47411
21
-3.83691
0
LINE
8
BLACK
6
CONTINUOUS
10
5.47411
20
-3.83691
11
5.4748
21
-3.83858
0
LINE
8
BLACK
6
CONTINUOUS
10
5.4748
20
-3.83858
11
5.4748
21
-3.84606
0
LINE
8
BLACK
6
CONTINUOUS
10
5.4748
20
-3.84606
11
5.50689
21
-3.84606
0
LINE
8
BLACK
6
CONTINUOUS
10
5.50689
20
-3.84606
11
5.52686
21
-3.84678
0
LINE
8
BLACK
6
CONTINUOUS
10
5.52686
20
-3.84678
11
5.54673
21
-3.84891
0
LINE
8
BLACK
6
CONTINUOUS
10
5.31949
20
-3.85063
11
5.30024
21
-3.85131
0
LINE
8
BLACK
6
CONTINUOUS
10
5.30024
20
-3.85131
11
5.28069
21
-3.85341
0
LINE
8
BLACK
6
CONTINUOUS
10
5.28069
20
-3.85341
11
5.26135
21
-3.85691
0
LINE
8
BLACK
6
CONTINUOUS
10
5.26135
20
-3.85691
11
5.2423
21
-3.86177
0
LINE
8
BLACK
6
CONTINUOUS
10
5.2423
20
-3.86177
11
5.22365
21
-3.86797
0
LINE
8
BLACK
6
CONTINUOUS
10
5.22365
20
-3.86797
11
5.20549
21
-3.8755
0
LINE
8
BLACK
6
CONTINUOUS
10
5.20549
20
-3.8755
11
5.18791
21
-3.8843
0
LINE
8
BLACK
6
CONTINUOUS
10
5.18791
20
-3.8843
11
5.171
21
-3.89433
0
LINE
8
BLACK
6
CONTINUOUS
10
5.171
20
-3.89433
11
5.15486
21
-3.90554
0
LINE
8
BLACK
6
CONTINUOUS
10
5.15486
20
-3.90554
11
5.13955
21
-3.91787
0
LINE
8
BLACK
6
CONTINUOUS
10
5.13955
20
-3.91787
11
5.12516
21
-3.93127
0
LINE
8
BLACK
6
CONTINUOUS
10
5.12516
20
-3.93127
11
5.11177
21
-3.94565
0
LINE
8
BLACK
6
CONTINUOUS
10
5.11177
20
-3.94565
11
5.09943
21
-3.96096
0
LINE
8
BLACK
6
CONTINUOUS
10
5.09943
20
-3.96096
11
5.08822
21
-3.97711
0
LINE
8
BLACK
6
CONTINUOUS
10
5.08822
20
-3.97711
11
5.07819
21
-3.99401
0
LINE
8
BLACK
6
CONTINUOUS
10
5.07819
20
-3.99401
11
5.06939
21
-4.01159
0
LINE
8
BLACK
6
CONTINUOUS
10
5.06939
20
-4.01159
11
5.06187
21
-4.02975
0
LINE
8
BLACK
6
CONTINUOUS
10
5.06187
20
-4.02975
11
5.05566
21
-4.0484
0
LINE
8
BLACK
6
CONTINUOUS
10
5.05566
20
-4.0484
11
5.0508
21
-4.06745
0
LINE
8
BLACK
6
CONTINUOUS
10
5.0508
20
-4.06745
11
5.04731
21
-4.08679
0
LINE
8
BLACK
6
CONTINUOUS
10
5.04731
20
-4.08679
11
5.04521
21
-4.10634
0
LINE
8
BLACK
6
CONTINUOUS
10
5.04521
20
-4.10634
11
5.04452
21
-4.12559
0
LINE
8
BLACK
6
CONTINUOUS
10
5.04452
20
-4.12559
11
5.04469
21
-4.12598
0
LINE
8
BLACK
6
CONTINUOUS
10
5.04469
20
-4.12598
11
5.04469
21
-4.40354
0
LINE
8
BLACK
6
CONTINUOUS
10
5.04469
20
-4.40354
11
5.04452
21
-4.40393
0
LINE
8
BLACK
6
CONTINUOUS
10
5.04452
20
-4.40393
11
5.04521
21
-4.42319
0
LINE
8
BLACK
6
CONTINUOUS
10
5.04521
20
-4.42319
11
5.04731
21
-4.44273
0
LINE
8
BLACK
6
CONTINUOUS
10
5.04731
20
-4.44273
11
5.0508
21
-4.46208
0
LINE
8
BLACK
6
CONTINUOUS
10
5.0508
20
-4.46208
11
5.05566
21
-4.48112
0
LINE
8
BLACK
6
CONTINUOUS
10
5.05566
20
-4.48112
11
5.06187
21
-4.49978
0
LINE
8
BLACK
6
CONTINUOUS
10
5.06187
20
-4.49978
11
5.06939
21
-4.51794
0
LINE
8
BLACK
6
CONTINUOUS
10
5.06939
20
-4.51794
11
5.07819
21
-4.53552
0
LINE
8
BLACK
6
CONTINUOUS
10
5.07819
20
-4.53552
11
5.08822
21
-4.55242
0
LINE
8
BLACK
6
CONTINUOUS
10
5.08822
20
-4.55242
11
5.09943
21
-4.56857
0
LINE
8
BLACK
6
CONTINUOUS
10
5.09943
20
-4.56857
11
5.11177
21
-4.58387
0
LINE
8
BLACK
6
CONTINUOUS
10
5.11177
20
-4.58387
11
5.12516
21
-4.59826
0
LINE
8
BLACK
6
CONTINUOUS
10
5.12516
20
-4.59826
11
5.13955
21
-4.61166
0
LINE
8
BLACK
6
CONTINUOUS
10
5.13955
20
-4.61166
11
5.15486
21
-4.62399
0
LINE
8
BLACK
6
CONTINUOUS
10
5.15486
20
-4.62399
11
5.171
21
-4.6352
0
LINE
8
BLACK
6
CONTINUOUS
10
5.171
20
-4.6352
11
5.18791
21
-4.64523
0
LINE
8
BLACK
6
CONTINUOUS
10
5.18791
20
-4.64523
11
5.20549
21
-4.65403
0
LINE
8
BLACK
6
CONTINUOUS
10
5.20549
20
-4.65403
11
5.22365
21
-4.66155
0
LINE
8
BLACK
6
CONTINUOUS
10
5.22365
20
-4.66155
11
5.2423
21
-4.66776
0
LINE
8
BLACK
6
CONTINUOUS
10
5.2423
20
-4.66776
11
5.26135
21
-4.67262
0
LINE
8
BLACK
6
CONTINUOUS
10
5.26135
20
-4.67262
11
5.28069
21
-4.67611
0
LINE
8
BLACK
6
CONTINUOUS
10
5.28069
20
-4.67611
11
5.30024
21
-4.67821
0
LINE
8
BLACK
6
CONTINUOUS
10
5.30024
20
-4.67821
11
5.31949
21
-4.6789
0
LINE
8
BLACK
6
CONTINUOUS
10
5.31949
20
-4.6789
11
5.31988
21
-4.67874
0
LINE
8
BLACK
6
CONTINUOUS
10
5.31988
20
-4.67874
11
5.50689
21
-4.67874
0
LINE
8
BLACK
6
CONTINUOUS
10
5.50689
20
-4.67874
11
5.50728
21
-4.6789
0
LINE
8
BLACK
6
CONTINUOUS
10
5.50728
20
-4.6789
11
5.52653
21
-4.67821
0
LINE
8
BLACK
6
CONTINUOUS
10
5.52653
20
-4.67821
11
5.54608
21
-4.67611
0
LINE
8
BLACK
6
CONTINUOUS
10
5.54608
20
-4.67611
11
5.56542
21
-4.67262
0
LINE
8
BLACK
6
CONTINUOUS
10
5.56542
20
-4.67262
11
5.58447
21
-4.66776
0
LINE
8
BLACK
6
CONTINUOUS
10
5.58447
20
-4.66776
11
5.60312
21
-4.66155
0
LINE
8
BLACK
6
CONTINUOUS
10
5.60312
20
-4.66155
11
5.62128
21
-4.65403
0
LINE
8
BLACK
6
CONTINUOUS
10
5.62128
20
-4.65403
11
5.63886
21
-4.64523
0
LINE
8
BLACK
6
CONTINUOUS
10
5.63886
20
-4.64523
11
5.65577
21
-4.6352
0
LINE
8
BLACK
6
CONTINUOUS
10
5.65577
20
-4.6352
11
5.67191
21
-4.62399
0
LINE
8
BLACK
6
CONTINUOUS
10
5.67191
20
-4.62399
11
5.68722
21
-4.61166
0
LINE
8
BLACK
6
CONTINUOUS
10
5.68722
20
-4.61166
11
5.70161
21
-4.59826
0
LINE
8
BLACK
6
CONTINUOUS
10
5.70161
20
-4.59826
11
5.715
21
-4.58387
0
LINE
8
BLACK
6
CONTINUOUS
10
5.715
20
-4.58387
11
5.72734
21
-4.56857
0
LINE
8
BLACK
6
CONTINUOUS
10
5.72734
20
-4.56857
11
5.73855
21
-4.55242
0
LINE
8
BLACK
6
CONTINUOUS
10
5.73855
20
-4.55242
11
5.74858
21
-4.53552
0
LINE
8
BLACK
6
CONTINUOUS
10
5.74858
20
-4.53552
11
5.75738
21
-4.51794
0
LINE
8
BLACK
6
CONTINUOUS
10
5.75738
20
-4.51794
11
5.7649
21
-4.49978
0
LINE
8
BLACK
6
CONTINUOUS
10
5.7649
20
-4.49978
11
5.77111
21
-4.48112
0
LINE
8
BLACK
6
CONTINUOUS
10
5.77111
20
-4.48112
11
5.77597
21
-4.46208
0
LINE
8
BLACK
6
CONTINUOUS
10
5.77597
20
-4.46208
11
5.77946
21
-4.44273
0
LINE
8
BLACK
6
CONTINUOUS
10
5.77946
20
-4.44273
11
5.78156
21
-4.42319
0
LINE
8
BLACK
6
CONTINUOUS
10
5.78156
20
-4.42319
11
5.78225
21
-4.40393
0
LINE
8
BLACK
6
CONTINUOUS
10
5.78225
20
-4.40393
11
5.78209
21
-4.40354
0
LINE
8
BLACK
6
CONTINUOUS
10
5.78209
20
-4.40354
11
5.78209
21
-4.12598
0
LINE
8
BLACK
6
CONTINUOUS
10
5.78209
20
-4.12598
11
5.78225
21
-4.12559
0
LINE
8
BLACK
6
CONTINUOUS
10
5.78225
20
-4.12559
11
5.78156
21
-4.10634
0
LINE
8
BLACK
6
CONTINUOUS
10
5.78156
20
-4.10634
11
5.77946
21
-4.08679
0
LINE
8
BLACK
6
CONTINUOUS
10
5.77946
20
-4.08679
11
5.77597
21
-4.06745
0
LINE
8
BLACK
6
CONTINUOUS
10
5.77597
20
-4.06745
11
5.77111
21
-4.0484
0
LINE
8
BLACK
6
CONTINUOUS
10
5.77111
20
-4.0484
11
5.7649
21
-4.02975
0
LINE
8
BLACK
6
CONTINUOUS
10
5.7649
20
-4.02975
11
5.75738
21
-4.01159
0
LINE
8
BLACK
6
CONTINUOUS
10
5.75738
20
-4.01159
11
5.74858
21
-3.99401
0
LINE
8
BLACK
6
CONTINUOUS
10
5.74858
20
-3.99401
11
5.73855
21
-3.97711
0
LINE
8
BLACK
6
CONTINUOUS
10
5.73855
20
-3.97711
11
5.72734
21
-3.96096
0
LINE
8
BLACK
6
CONTINUOUS
10
5.72734
20
-3.96096
11
5.715
21
-3.94565
0
LINE
8
BLACK
6
CONTINUOUS
10
5.715
20
-3.94565
11
5.70161
21
-3.93127
0
LINE
8
BLACK
6
CONTINUOUS
10
5.70161
20
-3.93127
11
5.68722
21
-3.91787
0
LINE
8
BLACK
6
CONTINUOUS
10
5.68722
20
-3.91787
11
5.67191
21
-3.90554
0
LINE
8
BLACK
6
CONTINUOUS
10
5.67191
20
-3.90554
11
5.65577
21
-3.89433
0
LINE
8
BLACK
6
CONTINUOUS
10
5.65577
20
-3.89433
11
5.63886
21
-3.8843
0
LINE
8
BLACK
6
CONTINUOUS
10
5.63886
20
-3.8843
11
5.62128
21
-3.8755
0
LINE
8
BLACK
6
CONTINUOUS
10
5.62128
20
-3.8755
11
5.60312
21
-3.86797
0
LINE
8
BLACK
6
CONTINUOUS
10
5.60312
20
-3.86797
11
5.58447
21
-3.86177
0
LINE
8
BLACK
6
CONTINUOUS
10
5.58447
20
-3.86177
11
5.56542
21
-3.85691
0
LINE
8
BLACK
6
CONTINUOUS
10
5.56542
20
-3.85691
11
5.54608
21
-3.85341
0
LINE
8
BLACK
6
CONTINUOUS
10
5.54608
20
-3.85341
11
5.52653
21
-3.85131
0
LINE
8
BLACK
6
CONTINUOUS
10
5.52653
20
-3.85131
11
5.50728
21
-3.85063
0
LINE
8
BLACK
6
CONTINUOUS
10
5.50728
20
-3.85063
11
5.50689
21
-3.85079
0
LINE
8
BLACK
6
CONTINUOUS
10
5.50689
20
-3.85079
11
5.47244
21
-3.85079
0
LINE
8
BLACK
6
CONTINUOUS
10
5.47244
20
-3.85079
11
5.47077
21
-3.8501
0
LINE
8
BLACK
6
CONTINUOUS
10
5.47077
20
-3.8501
11
5.47008
21
-3.84843
0
LINE
8
BLACK
6
CONTINUOUS
10
5.47008
20
-3.84843
11
5.47008
21
-3.84094
0
LINE
8
BLACK
6
CONTINUOUS
10
5.47008
20
-3.84094
11
5.35669
21
-3.84094
0
LINE
8
BLACK
6
CONTINUOUS
10
5.35669
20
-3.84094
11
5.35669
21
-3.84843
0
LINE
8
BLACK
6
CONTINUOUS
10
5.35669
20
-3.84843
11
5.356
21
-3.8501
0
LINE
8
BLACK
6
CONTINUOUS
10
5.356
20
-3.8501
11
5.35433
21
-3.85079
0
LINE
8
BLACK
6
CONTINUOUS
10
5.35433
20
-3.85079
11
5.31988
21
-3.85079
0
LINE
8
BLACK
6
CONTINUOUS
10
5.31988
20
-3.85079
11
5.31949
21
-3.85063
0
LINE
8
BLACK
6
CONTINUOUS
10
5.33298
20
-4.42391
11
5.33228
21
-4.42224
0
LINE
8
BLACK
6
CONTINUOUS
10
5.33228
20
-4.42224
11
5.33228
21
-4.26476
0
LINE
8
BLACK
6
CONTINUOUS
10
5.33228
20
-4.26476
11
5.33298
21
-4.25418
0
LINE
8
BLACK
6
CONTINUOUS
10
5.33298
20
-4.25418
11
5.33505
21
-4.24377
0
LINE
8
BLACK
6
CONTINUOUS
10
5.33505
20
-4.24377
11
5.33846
21
-4.23373
0
LINE
8
BLACK
6
CONTINUOUS
10
5.33846
20
-4.23373
11
5.34315
21
-4.22421
0
LINE
8
BLACK
6
CONTINUOUS
10
5.34315
20
-4.22421
11
5.34904
21
-4.21539
0
LINE
8
BLACK
6
CONTINUOUS
10
5.34904
20
-4.21539
11
5.35604
21
-4.20742
0
LINE
8
BLACK
6
CONTINUOUS
10
5.35604
20
-4.20742
11
5.36401
21
-4.20042
0
LINE
8
BLACK
6
CONTINUOUS
10
5.36401
20
-4.20042
11
5.37283
21
-4.19453
0
LINE
8
BLACK
6
CONTINUOUS
10
5.37283
20
-4.19453
11
5.38235
21
-4.18983
0
LINE
8
BLACK
6
CONTINUOUS
10
5.38235
20
-4.18983
11
5.39239
21
-4.18642
0
LINE
8
BLACK
6
CONTINUOUS
10
5.39239
20
-4.18642
11
5.4028
21
-4.18436
0
LINE
8
BLACK
6
CONTINUOUS
10
5.4028
20
-4.18436
11
5.41339
21
-4.18366
0
LINE
8
BLACK
6
CONTINUOUS
10
5.41339
20
-4.18366
11
5.42397
21
-4.18436
0
LINE
8
BLACK
6
CONTINUOUS
10
5.42397
20
-4.18436
11
5.43438
21
-4.18642
0
LINE
8
BLACK
6
CONTINUOUS
10
5.43438
20
-4.18642
11
5.44442
21
-4.18983
0
LINE
8
BLACK
6
CONTINUOUS
10
5.44442
20
-4.18983
11
5.45394
21
-4.19453
0
LINE
8
BLACK
6
CONTINUOUS
10
5.45394
20
-4.19453
11
5.46276
21
-4.20042
0
LINE
8
BLACK
6
CONTINUOUS
10
5.46276
20
-4.20042
11
5.47073
21
-4.20742
0
LINE
8
BLACK
6
CONTINUOUS
10
5.47073
20
-4.20742
11
5.47773
21
-4.21539
0
LINE
8
BLACK
6
CONTINUOUS
10
5.47773
20
-4.21539
11
5.48362
21
-4.22421
0
LINE
8
BLACK
6
CONTINUOUS
10
5.48362
20
-4.22421
11
5.48831
21
-4.23373
0
LINE
8
BLACK
6
CONTINUOUS
10
5.48831
20
-4.23373
11
5.49172
21
-4.24377
0
LINE
8
BLACK
6
CONTINUOUS
10
5.49172
20
-4.24377
11
5.49379
21
-4.25418
0
LINE
8
BLACK
6
CONTINUOUS
10
5.49379
20
-4.25418
11
5.49449
21
-4.26476
0
LINE
8
BLACK
6
CONTINUOUS
10
5.49449
20
-4.26476
11
5.49449
21
-4.42224
0
LINE
8
BLACK
6
CONTINUOUS
10
5.49449
20
-4.42224
11
5.4938
21
-4.42391
0
LINE
8
BLACK
6
CONTINUOUS
10
5.4938
20
-4.42391
11
5.49213
21
-4.42461
0
LINE
8
BLACK
6
CONTINUOUS
10
5.49213
20
-4.42461
11
5.33465
21
-4.42461
0
LINE
8
BLACK
6
CONTINUOUS
10
5.33465
20
-4.42461
11
5.33298
21
-4.42391
0
LINE
8
BLACK
6
CONTINUOUS
10
5.40816
20
-4.18839
11
5.39781
21
-4.18981
0
LINE
8
BLACK
6
CONTINUOUS
10
5.39781
20
-4.18981
11
5.38775
21
-4.19263
0
LINE
8
BLACK
6
CONTINUOUS
10
5.38775
20
-4.19263
11
5.37816
21
-4.19679
0
LINE
8
BLACK
6
CONTINUOUS
10
5.37816
20
-4.19679
11
5.36924
21
-4.20222
0
LINE
8
BLACK
6
CONTINUOUS
10
5.36924
20
-4.20222
11
5.36113
21
-4.20881
0
LINE
8
BLACK
6
CONTINUOUS
10
5.36113
20
-4.20881
11
5.354
21
-4.21645
0
LINE
8
BLACK
6
CONTINUOUS
10
5.354
20
-4.21645
11
5.34797
21
-4.22499
0
LINE
8
BLACK
6
CONTINUOUS
10
5.34797
20
-4.22499
11
5.34317
21
-4.23426
0
LINE
8
BLACK
6
CONTINUOUS
10
5.34317
20
-4.23426
11
5.33967
21
-4.24411
0
LINE
8
BLACK
6
CONTINUOUS
10
5.33967
20
-4.24411
11
5.33754
21
-4.25434
0
LINE
8
BLACK
6
CONTINUOUS
10
5.33754
20
-4.25434
11
5.33685
21
-4.26439
0
LINE
8
BLACK
6
CONTINUOUS
10
5.33685
20
-4.26439
11
5.33701
21
-4.26476
0
LINE
8
BLACK
6
CONTINUOUS
10
5.33701
20
-4.26476
11
5.33701
21
-4.41988
0
LINE
8
BLACK
6
CONTINUOUS
10
5.33701
20
-4.41988
11
5.48976
21
-4.41988
0
LINE
8
BLACK
6
CONTINUOUS
10
5.48976
20
-4.41988
11
5.48976
21
-4.26476
0
LINE
8
BLACK
6
CONTINUOUS
10
5.48976
20
-4.26476
11
5.48992
21
-4.26439
0
LINE
8
BLACK
6
CONTINUOUS
10
5.48992
20
-4.26439
11
5.48923
21
-4.25434
0
LINE
8
BLACK
6
CONTINUOUS
10
5.48923
20
-4.25434
11
5.4871
21
-4.24411
0
LINE
8
BLACK
6
CONTINUOUS
10
5.4871
20
-4.24411
11
5.4836
21
-4.23426
0
LINE
8
BLACK
6
CONTINUOUS
10
5.4836
20
-4.23426
11
5.4788
21
-4.22499
0
LINE
8
BLACK
6
CONTINUOUS
10
5.4788
20
-4.22499
11
5.47277
21
-4.21645
0
LINE
8
BLACK
6
CONTINUOUS
10
5.47277
20
-4.21645
11
5.46564
21
-4.20881
0
LINE
8
BLACK
6
CONTINUOUS
10
5.46564
20
-4.20881
11
5.45753
21
-4.20222
0
LINE
8
BLACK
6
CONTINUOUS
10
5.45753
20
-4.20222
11
5.44861
21
-4.19679
0
LINE
8
BLACK
6
CONTINUOUS
10
5.44861
20
-4.19679
11
5.43902
21
-4.19263
0
LINE
8
BLACK
6
CONTINUOUS
10
5.43902
20
-4.19263
11
5.42896
21
-4.18981
0
LINE
8
BLACK
6
CONTINUOUS
10
5.42896
20
-4.18981
11
5.41861
21
-4.18839
0
LINE
8
BLACK
6
CONTINUOUS
10
5.41861
20
-4.18839
11
5.40816
21
-4.18839
0
LINE
8
BLACK
6
CONTINUOUS
10
5.40404
20
-4.25692
11
5.40728
21
-4.25419
0
LINE
8
BLACK
6
CONTINUOUS
10
5.40728
20
-4.25419
11
5.41127
21
-4.25274
0
LINE
8
BLACK
6
CONTINUOUS
10
5.41127
20
-4.25274
11
5.41551
21
-4.25274
0
LINE
8
BLACK
6
CONTINUOUS
10
5.41551
20
-4.25274
11
5.41949
21
-4.25419
0
LINE
8
BLACK
6
CONTINUOUS
10
5.41949
20
-4.25419
11
5.42274
21
-4.25692
0
LINE
8
BLACK
6
CONTINUOUS
10
5.42274
20
-4.25692
11
5.42485
21
-4.26059
0
LINE
8
BLACK
6
CONTINUOUS
10
5.42485
20
-4.26059
11
5.42559
21
-4.26476
0
LINE
8
BLACK
6
CONTINUOUS
10
5.42559
20
-4.26476
11
5.42485
21
-4.26894
0
LINE
8
BLACK
6
CONTINUOUS
10
5.42485
20
-4.26894
11
5.42274
21
-4.27261
0
LINE
8
BLACK
6
CONTINUOUS
10
5.42274
20
-4.27261
11
5.41949
21
-4.27533
0
LINE
8
BLACK
6
CONTINUOUS
10
5.41949
20
-4.27533
11
5.41551
21
-4.27678
0
LINE
8
BLACK
6
CONTINUOUS
10
5.41551
20
-4.27678
11
5.41127
21
-4.27678
0
LINE
8
BLACK
6
CONTINUOUS
10
5.41127
20
-4.27678
11
5.40728
21
-4.27533
0
LINE
8
BLACK
6
CONTINUOUS
10
5.40728
20
-4.27533
11
5.40404
21
-4.27261
0
LINE
8
BLACK
6
CONTINUOUS
10
5.40404
20
-4.27261
11
5.40192
21
-4.26894
0
LINE
8
BLACK
6
CONTINUOUS
10
5.40192
20
-4.26894
11
5.40118
21
-4.26476
0
LINE
8
BLACK
6
CONTINUOUS
10
5.40118
20
-4.26476
11
5.40118
21
-4.26475
0
LINE
8
BLACK
6
CONTINUOUS
10
5.40118
20
-4.26475
11
5.40192
21
-4.26059
0
LINE
8
BLACK
6
CONTINUOUS
10
5.40192
20
-4.26059
11
5.40404
21
-4.25692
0
LINE
8
BLACK
6
CONTINUOUS
10
5.40859
20
-4.27075
11
5.41166
21
-4.27224
0
LINE
8
BLACK
6
CONTINUOUS
10
5.41166
20
-4.27224
11
5.41507
21
-4.27225
0
LINE
8
BLACK
6
CONTINUOUS
10
5.41507
20
-4.27225
11
5.41815
21
-4.27078
0
LINE
8
BLACK
6
CONTINUOUS
10
5.41815
20
-4.27078
11
5.42029
21
-4.26812
0
LINE
8
BLACK
6
CONTINUOUS
10
5.42029
20
-4.26812
11
5.42106
21
-4.26479
0
LINE
8
BLACK
6
CONTINUOUS
10
5.42106
20
-4.26479
11
5.42106
21
-4.26476
0
LINE
8
BLACK
6
CONTINUOUS
10
5.42106
20
-4.26476
11
5.4203
21
-4.26144
0
LINE
8
BLACK
6
CONTINUOUS
10
5.4203
20
-4.26144
11
5.41817
21
-4.25877
0
LINE
8
BLACK
6
CONTINUOUS
10
5.41817
20
-4.25877
11
5.4151
21
-4.25728
0
LINE
8
BLACK
6
CONTINUOUS
10
5.4151
20
-4.25728
11
5.41169
21
-4.25728
0
LINE
8
BLACK
6
CONTINUOUS
10
5.41169
20
-4.25728
11
5.40861
21
-4.25876
0
LINE
8
BLACK
6
CONTINUOUS
10
5.40861
20
-4.25876
11
5.40648
21
-4.26142
0
LINE
8
BLACK
6
CONTINUOUS
10
5.40648
20
-4.26142
11
5.40571
21
-4.26475
0
LINE
8
BLACK
6
CONTINUOUS
10
5.40571
20
-4.26475
11
5.40647
21
-4.26808
0
LINE
8
BLACK
6
CONTINUOUS
10
5.40647
20
-4.26808
11
5.40859
21
-4.27075
0
LINE
8
BLACK
6
CONTINUOUS
10
5.22006
20
-3.21339
11
5.2202
21
-3.2135
0
LINE
8
BLACK
6
CONTINUOUS
10
5.2202
20
-3.2135
11
5.22037
21
-3.21352
0
LINE
8
BLACK
6
CONTINUOUS
10
5.22037
20
-3.21352
11
5.22412
21
-3.21539
0
LINE
8
BLACK
6
CONTINUOUS
10
5.22412
20
-3.21539
11
5.22483
21
-3.21592
0
LINE
8
BLACK
6
CONTINUOUS
10
5.22483
20
-3.21592
11
5.22489
21
-3.21595
0
LINE
8
BLACK
6
CONTINUOUS
10
5.22489
20
-3.21595
11
5.22676
21
-3.21782
0
LINE
8
BLACK
6
CONTINUOUS
10
5.22676
20
-3.21782
11
5.22727
21
-3.21855
0
LINE
8
BLACK
6
CONTINUOUS
10
5.22727
20
-3.21855
11
5.22732
21
-3.21859
0
LINE
8
BLACK
6
CONTINUOUS
10
5.22732
20
-3.21859
11
5.22919
21
-3.22234
0
LINE
8
BLACK
6
CONTINUOUS
10
5.22919
20
-3.22234
11
5.22948
21
-3.22332
0
LINE
8
BLACK
6
CONTINUOUS
10
5.22948
20
-3.22332
11
5.22944
21
-3.22349
0
LINE
8
BLACK
6
CONTINUOUS
10
5.22944
20
-3.22349
11
5.2295
21
-3.22366
0
LINE
8
BLACK
6
CONTINUOUS
10
5.2295
20
-3.22366
11
5.2295
21
-3.23303
0
LINE
8
BLACK
6
CONTINUOUS
10
5.2295
20
-3.23303
11
5.22935
21
-3.2339
0
LINE
8
BLACK
6
CONTINUOUS
10
5.22935
20
-3.2339
11
5.22935
21
-3.23397
0
LINE
8
BLACK
6
CONTINUOUS
10
5.22935
20
-3.23397
11
5.22748
21
-3.23959
0
LINE
8
BLACK
6
CONTINUOUS
10
5.22748
20
-3.23959
11
5.22699
21
-3.24049
0
LINE
8
BLACK
6
CONTINUOUS
10
5.22699
20
-3.24049
11
5.22527
21
-3.24155
0
LINE
8
BLACK
6
CONTINUOUS
10
5.22527
20
-3.24155
11
5.22327
21
-3.24125
0
LINE
8
BLACK
6
CONTINUOUS
10
5.22327
20
-3.24125
11
5.22193
21
-3.23974
0
LINE
8
BLACK
6
CONTINUOUS
10
5.22193
20
-3.23974
11
5.22187
21
-3.23772
0
LINE
8
BLACK
6
CONTINUOUS
10
5.22187
20
-3.23772
11
5.2236
21
-3.23255
0
LINE
8
BLACK
6
CONTINUOUS
10
5.2236
20
-3.23255
11
5.2236
21
-3.22436
0
LINE
8
BLACK
6
CONTINUOUS
10
5.2236
20
-3.22436
11
5.22225
21
-3.22166
0
LINE
8
BLACK
6
CONTINUOUS
10
5.22225
20
-3.22166
11
5.22105
21
-3.22046
0
LINE
8
BLACK
6
CONTINUOUS
10
5.22105
20
-3.22046
11
5.21835
21
-3.21911
0
LINE
8
BLACK
6
CONTINUOUS
10
5.21835
20
-3.21911
11
5.216
21
-3.21911
0
LINE
8
BLACK
6
CONTINUOUS
10
5.216
20
-3.21911
11
5.2133
21
-3.22046
0
LINE
8
BLACK
6
CONTINUOUS
10
5.2133
20
-3.22046
11
5.2121
21
-3.22166
0
LINE
8
BLACK
6
CONTINUOUS
10
5.2121
20
-3.22166
11
5.21059
21
-3.22469
0
LINE
8
BLACK
6
CONTINUOUS
10
5.21059
20
-3.22469
11
5.20879
21
-3.23187
0
LINE
8
BLACK
6
CONTINUOUS
10
5.20879
20
-3.23187
11
5.20859
21
-3.23234
0
LINE
8
BLACK
6
CONTINUOUS
10
5.20859
20
-3.23234
11
5.20857
21
-3.23248
0
LINE
8
BLACK
6
CONTINUOUS
10
5.20857
20
-3.23248
11
5.20669
21
-3.23623
0
LINE
8
BLACK
6
CONTINUOUS
10
5.20669
20
-3.23623
11
5.20617
21
-3.23694
0
LINE
8
BLACK
6
CONTINUOUS
10
5.20617
20
-3.23694
11
5.20614
21
-3.237
0
LINE
8
BLACK
6
CONTINUOUS
10
5.20614
20
-3.237
11
5.20427
21
-3.23887
0
LINE
8
BLACK
6
CONTINUOUS
10
5.20427
20
-3.23887
11
5.20354
21
-3.23938
0
LINE
8
BLACK
6
CONTINUOUS
10
5.20354
20
-3.23938
11
5.2035
21
-3.23942
0
LINE
8
BLACK
6
CONTINUOUS
10
5.2035
20
-3.23942
11
5.19975
21
-3.2413
0
LINE
8
BLACK
6
CONTINUOUS
10
5.19975
20
-3.2413
11
5.19877
21
-3.24159
0
LINE
8
BLACK
6
CONTINUOUS
10
5.19877
20
-3.24159
11
5.19859
21
-3.24155
0
LINE
8
BLACK
6
CONTINUOUS
10
5.19859
20
-3.24155
11
5.19843
21
-3.24161
0
LINE
8
BLACK
6
CONTINUOUS
10
5.19843
20
-3.24161
11
5.19468
21
-3.24161
0
LINE
8
BLACK
6
CONTINUOUS
10
5.19468
20
-3.24161
11
5.19367
21
-3.24143
0
LINE
8
BLACK
6
CONTINUOUS
10
5.19367
20
-3.24143
11
5.19353
21
-3.24132
0
LINE
8
BLACK
6
CONTINUOUS
10
5.19353
20
-3.24132
11
5.19336
21
-3.2413
0
LINE
8
BLACK
6
CONTINUOUS
10
5.19336
20
-3.2413
11
5.18961
21
-3.23942
0
LINE
8
BLACK
6
CONTINUOUS
10
5.18961
20
-3.23942
11
5.1889
21
-3.2389
0
LINE
8
BLACK
6
CONTINUOUS
10
5.1889
20
-3.2389
11
5.18884
21
-3.23887
0
LINE
8
BLACK
6
CONTINUOUS
10
5.18884
20
-3.23887
11
5.18697
21
-3.237
0
LINE
8
BLACK
6
CONTINUOUS
10
5.18697
20
-3.237
11
5.18646
21
-3.23627
0
LINE
8
BLACK
6
CONTINUOUS
10
5.18646
20
-3.23627
11
5.18641
21
-3.23623
0
LINE
8
BLACK
6
CONTINUOUS
10
5.18641
20
-3.23623
11
5.18454
21
-3.23248
0
LINE
8
BLACK
6
CONTINUOUS
10
5.18454
20
-3.23248
11
5.18425
21
-3.2315
0
LINE
8
BLACK
6
CONTINUOUS
10
5.18425
20
-3.2315
11
5.18429
21
-3.23132
0
LINE
8
BLACK
6
CONTINUOUS
10
5.18429
20
-3.23132
11
5.18423
21
-3.23116
0
LINE
8
BLACK
6
CONTINUOUS
10
5.18423
20
-3.23116
11
5.18423
21
-3.22178
0
LINE
8
BLACK
6
CONTINUOUS
10
5.18423
20
-3.22178
11
5.18438
21
-3.22092
0
LINE
8
BLACK
6
CONTINUOUS
10
5.18438
20
-3.22092
11
5.18438
21
-3.22085
0
LINE
8
BLACK
6
CONTINUOUS
10
5.18438
20
-3.22085
11
5.18625
21
-3.21523
0
LINE
8
BLACK
6
CONTINUOUS
10
5.18625
20
-3.21523
11
5.18674
21
-3.21432
0
LINE
8
BLACK
6
CONTINUOUS
10
5.18674
20
-3.21432
11
5.18846
21
-3.21327
0
LINE
8
BLACK
6
CONTINUOUS
10
5.18846
20
-3.21327
11
5.19046
21
-3.21356
0
LINE
8
BLACK
6
CONTINUOUS
10
5.19046
20
-3.21356
11
5.1918
21
-3.21508
0
LINE
8
BLACK
6
CONTINUOUS
10
5.1918
20
-3.21508
11
5.19186
21
-3.21709
0
LINE
8
BLACK
6
CONTINUOUS
10
5.19186
20
-3.21709
11
5.19013
21
-3.22226
0
LINE
8
BLACK
6
CONTINUOUS
10
5.19013
20
-3.22226
11
5.19013
21
-3.23046
0
LINE
8
BLACK
6
CONTINUOUS
10
5.19013
20
-3.23046
11
5.19148
21
-3.23316
0
LINE
8
BLACK
6
CONTINUOUS
10
5.19148
20
-3.23316
11
5.19268
21
-3.23436
0
LINE
8
BLACK
6
CONTINUOUS
10
5.19268
20
-3.23436
11
5.19538
21
-3.2357
0
LINE
8
BLACK
6
CONTINUOUS
10
5.19538
20
-3.2357
11
5.19773
21
-3.2357
0
LINE
8
BLACK
6
CONTINUOUS
10
5.19773
20
-3.2357
11
5.20043
21
-3.23436
0
LINE
8
BLACK
6
CONTINUOUS
10
5.20043
20
-3.23436
11
5.20163
21
-3.23316
0
LINE
8
BLACK
6
CONTINUOUS
10
5.20163
20
-3.23316
11
5.20314
21
-3.23013
0
LINE
8
BLACK
6
CONTINUOUS
10
5.20314
20
-3.23013
11
5.20494
21
-3.22294
0
LINE
8
BLACK
6
CONTINUOUS
10
5.20494
20
-3.22294
11
5.20515
21
-3.22248
0
LINE
8
BLACK
6
CONTINUOUS
10
5.20515
20
-3.22248
11
5.20516
21
-3.22234
0
LINE
8
BLACK
6
CONTINUOUS
10
5.20516
20
-3.22234
11
5.20704
21
-3.21859
0
LINE
8
BLACK
6
CONTINUOUS
10
5.20704
20
-3.21859
11
5.20756
21
-3.21788
0
LINE
8
BLACK
6
CONTINUOUS
10
5.20756
20
-3.21788
11
5.20759
21
-3.21782
0
LINE
8
BLACK
6
CONTINUOUS
10
5.20759
20
-3.21782
11
5.20946
21
-3.21595
0
LINE
8
BLACK
6
CONTINUOUS
10
5.20946
20
-3.21595
11
5.21019
21
-3.21544
0
LINE
8
BLACK
6
CONTINUOUS
10
5.21019
20
-3.21544
11
5.21023
21
-3.21539
0
LINE
8
BLACK
6
CONTINUOUS
10
5.21023
20
-3.21539
11
5.21398
21
-3.21352
0
LINE
8
BLACK
6
CONTINUOUS
10
5.21398
20
-3.21352
11
5.21496
21
-3.21323
0
LINE
8
BLACK
6
CONTINUOUS
10
5.21496
20
-3.21323
11
5.21514
21
-3.21327
0
LINE
8
BLACK
6
CONTINUOUS
10
5.21514
20
-3.21327
11
5.2153
21
-3.21321
0
LINE
8
BLACK
6
CONTINUOUS
10
5.2153
20
-3.21321
11
5.21905
21
-3.21321
0
LINE
8
BLACK
6
CONTINUOUS
10
5.21905
20
-3.21321
11
5.22006
21
-3.21339
0
LINE
8
BLACK
6
CONTINUOUS
10
5.22756
20
-3.17964
11
5.22911
21
-3.18094
0
LINE
8
BLACK
6
CONTINUOUS
10
5.22911
20
-3.18094
11
5.22946
21
-3.18293
0
LINE
8
BLACK
6
CONTINUOUS
10
5.22946
20
-3.18293
11
5.22845
21
-3.18468
0
LINE
8
BLACK
6
CONTINUOUS
10
5.22845
20
-3.18468
11
5.22655
21
-3.18537
0
LINE
8
BLACK
6
CONTINUOUS
10
5.22655
20
-3.18537
11
5.20663
21
-3.18537
0
LINE
8
BLACK
6
CONTINUOUS
10
5.20663
20
-3.18537
11
5.20438
21
-3.18649
0
LINE
8
BLACK
6
CONTINUOUS
10
5.20438
20
-3.18649
11
5.20326
21
-3.18874
0
LINE
8
BLACK
6
CONTINUOUS
10
5.20326
20
-3.18874
11
5.20326
21
-3.19297
0
LINE
8
BLACK
6
CONTINUOUS
10
5.20326
20
-3.19297
11
5.20461
21
-3.19566
0
LINE
8
BLACK
6
CONTINUOUS
10
5.20461
20
-3.19566
11
5.20528
21
-3.19633
0
LINE
8
BLACK
6
CONTINUOUS
10
5.20528
20
-3.19633
11
5.22655
21
-3.19633
0
LINE
8
BLACK
6
CONTINUOUS
10
5.22655
20
-3.19633
11
5.22756
21
-3.19651
0
LINE
8
BLACK
6
CONTINUOUS
10
5.22756
20
-3.19651
11
5.22911
21
-3.19781
0
LINE
8
BLACK
6
CONTINUOUS
10
5.22911
20
-3.19781
11
5.22946
21
-3.1998
0
LINE
8
BLACK
6
CONTINUOUS
10
5.22946
20
-3.1998
11
5.22845
21
-3.20155
0
LINE
8
BLACK
6
CONTINUOUS
10
5.22845
20
-3.20155
11
5.22655
21
-3.20224
0
LINE
8
BLACK
6
CONTINUOUS
10
5.22655
20
-3.20224
11
5.18718
21
-3.20224
0
LINE
8
BLACK
6
CONTINUOUS
10
5.18718
20
-3.20224
11
5.18617
21
-3.20206
0
LINE
8
BLACK
6
CONTINUOUS
10
5.18617
20
-3.20206
11
5.18462
21
-3.20076
0
LINE
8
BLACK
6
CONTINUOUS
10
5.18462
20
-3.20076
11
5.18427
21
-3.19877
0
LINE
8
BLACK
6
CONTINUOUS
10
5.18427
20
-3.19877
11
5.18528
21
-3.19703
0
LINE
8
BLACK
6
CONTINUOUS
10
5.18528
20
-3.19703
11
5.18718
21
-3.19633
0
LINE
8
BLACK
6
CONTINUOUS
10
5.18718
20
-3.19633
11
5.19834
21
-3.19633
0
LINE
8
BLACK
6
CONTINUOUS
10
5.19834
20
-3.19633
11
5.19766
21
-3.19498
0
LINE
8
BLACK
6
CONTINUOUS
10
5.19766
20
-3.19498
11
5.19737
21
-3.194
0
LINE
8
BLACK
6
CONTINUOUS
10
5.19737
20
-3.194
11
5.19741
21
-3.19383
0
LINE
8
BLACK
6
CONTINUOUS
10
5.19741
20
-3.19383
11
5.19735
21
-3.19366
0
LINE
8
BLACK
6
CONTINUOUS
10
5.19735
20
-3.19366
11
5.19735
21
-3.18804
0
LINE
8
BLACK
6
CONTINUOUS
10
5.19735
20
-3.18804
11
5.19753
21
-3.18703
0
LINE
8
BLACK
6
CONTINUOUS
10
5.19753
20
-3.18703
11
5.19764
21
-3.18689
0
LINE
8
BLACK
6
CONTINUOUS
10
5.19764
20
-3.18689
11
5.19766
21
-3.18672
0
LINE
8
BLACK
6
CONTINUOUS
10
5.19766
20
-3.18672
11
5.19954
21
-3.18297
0
LINE
8
BLACK
6
CONTINUOUS
10
5.19954
20
-3.18297
11
5.20015
21
-3.18215
0
LINE
8
BLACK
6
CONTINUOUS
10
5.20015
20
-3.18215
11
5.20055
21
-3.18197
0
LINE
8
BLACK
6
CONTINUOUS
10
5.20055
20
-3.18197
11
5.20086
21
-3.18165
0
LINE
8
BLACK
6
CONTINUOUS
10
5.20086
20
-3.18165
11
5.20461
21
-3.17977
0
LINE
8
BLACK
6
CONTINUOUS
10
5.20461
20
-3.17977
11
5.20559
21
-3.17948
0
LINE
8
BLACK
6
CONTINUOUS
10
5.20559
20
-3.17948
11
5.20576
21
-3.17952
0
LINE
8
BLACK
6
CONTINUOUS
10
5.20576
20
-3.17952
11
5.20593
21
-3.17946
0
LINE
8
BLACK
6
CONTINUOUS
10
5.20593
20
-3.17946
11
5.22655
21
-3.17946
0
LINE
8
BLACK
6
CONTINUOUS
10
5.22655
20
-3.17946
11
5.22756
21
-3.17964
0
LINE
8
BLACK
6
CONTINUOUS
10
5.22756
20
-3.14402
11
5.22911
21
-3.14532
0
LINE
8
BLACK
6
CONTINUOUS
10
5.22911
20
-3.14532
11
5.22946
21
-3.14731
0
LINE
8
BLACK
6
CONTINUOUS
10
5.22946
20
-3.14731
11
5.2288
21
-3.14844
0
LINE
8
BLACK
6
CONTINUOUS
10
5.2288
20
-3.14844
11
5.22919
21
-3.14922
0
LINE
8
BLACK
6
CONTINUOUS
10
5.22919
20
-3.14922
11
5.22948
21
-3.15021
0
LINE
8
BLACK
6
CONTINUOUS
10
5.22948
20
-3.15021
11
5.22944
21
-3.15038
0
LINE
8
BLACK
6
CONTINUOUS
10
5.22944
20
-3.15038
11
5.2295
21
-3.15054
0
LINE
8
BLACK
6
CONTINUOUS
10
5.2295
20
-3.15054
11
5.2295
21
-3.15992
0
LINE
8
BLACK
6
CONTINUOUS
10
5.2295
20
-3.15992
11
5.22933
21
-3.16093
0
LINE
8
BLACK
6
CONTINUOUS
10
5.22933
20
-3.16093
11
5.22921
21
-3.16106
0
LINE
8
BLACK
6
CONTINUOUS
10
5.22921
20
-3.16106
11
5.22919
21
-3.16124
0
LINE
8
BLACK
6
CONTINUOUS
10
5.22919
20
-3.16124
11
5.22732
21
-3.16499
0
LINE
8
BLACK
6
CONTINUOUS
10
5.22732
20
-3.16499
11
5.22671
21
-3.16581
0
LINE
8
BLACK
6
CONTINUOUS
10
5.22671
20
-3.16581
11
5.2263
21
-3.16599
0
LINE
8
BLACK
6
CONTINUOUS
10
5.2263
20
-3.16599
11
5.226
21
-3.16631
0
LINE
8
BLACK
6
CONTINUOUS
10
5.226
20
-3.16631
11
5.22225
21
-3.16818
0
LINE
8
BLACK
6
CONTINUOUS
10
5.22225
20
-3.16818
11
5.22126
21
-3.16848
0
LINE
8
BLACK
6
CONTINUOUS
10
5.22126
20
-3.16848
11
5.22109
21
-3.16843
0
LINE
8
BLACK
6
CONTINUOUS
10
5.22109
20
-3.16843
11
5.22093
21
-3.16849
0
LINE
8
BLACK
6
CONTINUOUS
10
5.22093
20
-3.16849
11
5.21718
21
-3.16849
0
LINE
8
BLACK
6
CONTINUOUS
10
5.21718
20
-3.16849
11
5.21617
21
-3.16832
0
LINE
8
BLACK
6
CONTINUOUS
10
5.21617
20
-3.16832
11
5.21603
21
-3.1682
0
LINE
8
BLACK
6
CONTINUOUS
10
5.21603
20
-3.1682
11
5.21586
21
-3.16818
0
LINE
8
BLACK
6
CONTINUOUS
10
5.21586
20
-3.16818
11
5.21211
21
-3.16631
0
LINE
8
BLACK
6
CONTINUOUS
10
5.21211
20
-3.16631
11
5.21128
21
-3.1657
0
LINE
8
BLACK
6
CONTINUOUS
10
5.21128
20
-3.1657
11
5.21111
21
-3.16529
0
LINE
8
BLACK
6
CONTINUOUS
10
5.21111
20
-3.16529
11
5.21079
21
-3.16499
0
LINE
8
BLACK
6
CONTINUOUS
10
5.21079
20
-3.16499
11
5.20891
21
-3.16124
0
LINE
8
BLACK
6
CONTINUOUS
10
5.20891
20
-3.16124
11
5.20862
21
-3.16026
0
LINE
8
BLACK
6
CONTINUOUS
10
5.20862
20
-3.16026
11
5.20866
21
-3.16008
0
LINE
8
BLACK
6
CONTINUOUS
10
5.20866
20
-3.16008
11
5.2086
21
-3.15992
0
LINE
8
BLACK
6
CONTINUOUS
10
5.2086
20
-3.15992
11
5.2086
21
-3.15124
0
LINE
8
BLACK
6
CONTINUOUS
10
5.2086
20
-3.15124
11
5.20785
21
-3.14975
0
LINE
8
BLACK
6
CONTINUOUS
10
5.20785
20
-3.14975
11
5.20663
21
-3.14975
0
LINE
8
BLACK
6
CONTINUOUS
10
5.20663
20
-3.14975
11
5.20438
21
-3.15087
0
LINE
8
BLACK
6
CONTINUOUS
10
5.20438
20
-3.15087
11
5.20326
21
-3.15312
0
LINE
8
BLACK
6
CONTINUOUS
10
5.20326
20
-3.15312
11
5.20326
21
-3.15922
0
LINE
8
BLACK
6
CONTINUOUS
10
5.20326
20
-3.15922
11
5.20482
21
-3.16235
0
LINE
8
BLACK
6
CONTINUOUS
10
5.20482
20
-3.16235
11
5.20511
21
-3.16333
0
LINE
8
BLACK
6
CONTINUOUS
10
5.20511
20
-3.16333
11
5.20464
21
-3.16529
0
LINE
8
BLACK
6
CONTINUOUS
10
5.20464
20
-3.16529
11
5.20302
21
-3.1665
0
LINE
8
BLACK
6
CONTINUOUS
10
5.20302
20
-3.1665
11
5.201
21
-3.16638
0
LINE
8
BLACK
6
CONTINUOUS
10
5.201
20
-3.16638
11
5.19954
21
-3.16499
0
LINE
8
BLACK
6
CONTINUOUS
10
5.19954
20
-3.16499
11
5.19766
21
-3.16124
0
LINE
8
BLACK
6
CONTINUOUS
10
5.19766
20
-3.16124
11
5.19737
21
-3.16026
0
LINE
8
BLACK
6
CONTINUOUS
10
5.19737
20
-3.16026
11
5.19741
21
-3.16008
0
LINE
8
BLACK
6
CONTINUOUS
10
5.19741
20
-3.16008
11
5.19735
21
-3.15992
0
LINE
8
BLACK
6
CONTINUOUS
10
5.19735
20
-3.15992
11
5.19735
21
-3.15242
0
LINE
8
BLACK
6
CONTINUOUS
10
5.19735
20
-3.15242
11
5.19753
21
-3.15141
0
LINE
8
BLACK
6
CONTINUOUS
10
5.19753
20
-3.15141
11
5.19764
21
-3.15127
0
LINE
8
BLACK
6
CONTINUOUS
10
5.19764
20
-3.15127
11
5.19766
21
-3.1511
0
LINE
8
BLACK
6
CONTINUOUS
10
5.19766
20
-3.1511
11
5.19954
21
-3.14735
0
LINE
8
BLACK
6
CONTINUOUS
10
5.19954
20
-3.14735
11
5.20015
21
-3.14652
0
LINE
8
BLACK
6
CONTINUOUS
10
5.20015
20
-3.14652
11
5.20055
21
-3.14635
0
LINE
8
BLACK
6
CONTINUOUS
10
5.20055
20
-3.14635
11
5.20086
21
-3.14603
0
LINE
8
BLACK
6
CONTINUOUS
10
5.20086
20
-3.14603
11
5.20461
21
-3.14415
0
LINE
8
BLACK
6
CONTINUOUS
10
5.20461
20
-3.14415
11
5.20559
21
-3.14386
0
LINE
8
BLACK
6
CONTINUOUS
10
5.20559
20
-3.14386
11
5.20576
21
-3.1439
0
LINE
8
BLACK
6
CONTINUOUS
10
5.20576
20
-3.1439
11
5.20593
21
-3.14384
0
LINE
8
BLACK
6
CONTINUOUS
10
5.20593
20
-3.14384
11
5.22655
21
-3.14384
0
LINE
8
BLACK
6
CONTINUOUS
10
5.22655
20
-3.14384
11
5.22756
21
-3.14402
0
LINE
8
BLACK
6
CONTINUOUS
10
5.21435
20
-3.14975
11
5.21449
21
-3.15021
0
LINE
8
BLACK
6
CONTINUOUS
10
5.21449
20
-3.15021
11
5.21444
21
-3.15038
0
LINE
8
BLACK
6
CONTINUOUS
10
5.21444
20
-3.15038
11
5.21451
21
-3.15054
0
LINE
8
BLACK
6
CONTINUOUS
10
5.21451
20
-3.15054
11
5.21451
21
-3.15922
0
LINE
8
BLACK
6
CONTINUOUS
10
5.21451
20
-3.15922
11
5.21563
21
-3.16147
0
LINE
8
BLACK
6
CONTINUOUS
10
5.21563
20
-3.16147
11
5.21787
21
-3.16259
0
LINE
8
BLACK
6
CONTINUOUS
10
5.21787
20
-3.16259
11
5.22023
21
-3.16259
0
LINE
8
BLACK
6
CONTINUOUS
10
5.22023
20
-3.16259
11
5.22247
21
-3.16147
0
LINE
8
BLACK
6
CONTINUOUS
10
5.22247
20
-3.16147
11
5.2236
21
-3.15922
0
LINE
8
BLACK
6
CONTINUOUS
10
5.2236
20
-3.15922
11
5.2236
21
-3.15124
0
LINE
8
BLACK
6
CONTINUOUS
10
5.2236
20
-3.15124
11
5.22285
21
-3.14975
0
LINE
8
BLACK
6
CONTINUOUS
10
5.22285
20
-3.14975
11
5.21435
21
-3.14975
0
LINE
8
BLACK
6
CONTINUOUS
10
5.20257
20
-3.11677
11
5.20326
21
-3.11867
0
LINE
8
BLACK
6
CONTINUOUS
10
5.20326
20
-3.11867
11
5.20326
21
-3.12509
0
LINE
8
BLACK
6
CONTINUOUS
10
5.20326
20
-3.12509
11
5.22655
21
-3.12509
0
LINE
8
BLACK
6
CONTINUOUS
10
5.22655
20
-3.12509
11
5.22756
21
-3.12527
0
LINE
8
BLACK
6
CONTINUOUS
10
5.22756
20
-3.12527
11
5.22911
21
-3.12657
0
LINE
8
BLACK
6
CONTINUOUS
10
5.22911
20
-3.12657
11
5.22946
21
-3.12856
0
LINE
8
BLACK
6
CONTINUOUS
10
5.22946
20
-3.12856
11
5.22845
21
-3.13031
0
LINE
8
BLACK
6
CONTINUOUS
10
5.22845
20
-3.13031
11
5.22655
21
-3.131
0
LINE
8
BLACK
6
CONTINUOUS
10
5.22655
20
-3.131
11
5.20326
21
-3.131
0
LINE
8
BLACK
6
CONTINUOUS
10
5.20326
20
-3.131
11
5.20326
21
-3.13367
0
LINE
8
BLACK
6
CONTINUOUS
10
5.20326
20
-3.13367
11
5.20308
21
-3.13468
0
LINE
8
BLACK
6
CONTINUOUS
10
5.20308
20
-3.13468
11
5.20178
21
-3.13623
0
LINE
8
BLACK
6
CONTINUOUS
10
5.20178
20
-3.13623
11
5.19979
21
-3.13658
0
LINE
8
BLACK
6
CONTINUOUS
10
5.19979
20
-3.13658
11
5.19804
21
-3.13557
0
LINE
8
BLACK
6
CONTINUOUS
10
5.19804
20
-3.13557
11
5.19735
21
-3.13367
0
LINE
8
BLACK
6
CONTINUOUS
10
5.19735
20
-3.13367
11
5.19735
21
-3.131
0
LINE
8
BLACK
6
CONTINUOUS
10
5.19735
20
-3.131
11
5.1928
21
-3.131
0
LINE
8
BLACK
6
CONTINUOUS
10
5.1928
20
-3.131
11
5.19179
21
-3.13082
0
LINE
8
BLACK
6
CONTINUOUS
10
5.19179
20
-3.13082
11
5.19166
21
-3.13071
0
LINE
8
BLACK
6
CONTINUOUS
10
5.19166
20
-3.13071
11
5.19148
21
-3.13069
0
LINE
8
BLACK
6
CONTINUOUS
10
5.19148
20
-3.13069
11
5.18773
21
-3.12881
0
LINE
8
BLACK
6
CONTINUOUS
10
5.18773
20
-3.12881
11
5.18691
21
-3.1282
0
LINE
8
BLACK
6
CONTINUOUS
10
5.18691
20
-3.1282
11
5.18674
21
-3.1278
0
LINE
8
BLACK
6
CONTINUOUS
10
5.18674
20
-3.1278
11
5.18641
21
-3.12749
0
LINE
8
BLACK
6
CONTINUOUS
10
5.18641
20
-3.12749
11
5.18454
21
-3.12374
0
LINE
8
BLACK
6
CONTINUOUS
10
5.18454
20
-3.12374
11
5.18425
21
-3.12276
0
LINE
8
BLACK
6
CONTINUOUS
10
5.18425
20
-3.12276
11
5.18429
21
-3.12259
0
LINE
8
BLACK
6
CONTINUOUS
10
5.18429
20
-3.12259
11
5.18423
21
-3.12242
0
LINE
8
BLACK
6
CONTINUOUS
10
5.18423
20
-3.12242
11
5.18423
21
-3.11867
0
LINE
8
BLACK
6
CONTINUOUS
10
5.18423
20
-3.11867
11
5.18441
21
-3.11766
0
LINE
8
BLACK
6
CONTINUOUS
10
5.18441
20
-3.11766
11
5.1857
21
-3.11612
0
LINE
8
BLACK
6
CONTINUOUS
10
5.1857
20
-3.11612
11
5.18769
21
-3.11576
0
LINE
8
BLACK
6
CONTINUOUS
10
5.18769
20
-3.11576
11
5.18944
21
-3.11677
0
LINE
8
BLACK
6
CONTINUOUS
10
5.18944
20
-3.11677
11
5.19013
21
-3.11867
0
LINE
8
BLACK
6
CONTINUOUS
10
5.19013
20
-3.11867
11
5.19013
21
-3.12173
0
LINE
8
BLACK
6
CONTINUOUS
10
5.19013
20
-3.12173
11
5.19126
21
-3.12397
0
LINE
8
BLACK
6
CONTINUOUS
10
5.19126
20
-3.12397
11
5.1935
21
-3.12509
0
LINE
8
BLACK
6
CONTINUOUS
10
5.1935
20
-3.12509
11
5.19735
21
-3.12509
0
LINE
8
BLACK
6
CONTINUOUS
10
5.19735
20
-3.12509
11
5.19735
21
-3.11867
0
LINE
8
BLACK
6
CONTINUOUS
10
5.19735
20
-3.11867
11
5.19753
21
-3.11766
0
LINE
8
BLACK
6
CONTINUOUS
10
5.19753
20
-3.11766
11
5.19883
21
-3.11612
0
LINE
8
BLACK
6
CONTINUOUS
10
5.19883
20
-3.11612
11
5.20082
21
-3.11576
0
LINE
8
BLACK
6
CONTINUOUS
10
5.20082
20
-3.11576
11
5.20257
21
-3.11677
0
LINE
8
BLACK
6
CONTINUOUS
10
5.22881
20
-3.09428
11
5.2295
21
-3.09618
0
LINE
8
BLACK
6
CONTINUOUS
10
5.2295
20
-3.09618
11
5.2295
21
-3.09992
0
LINE
8
BLACK
6
CONTINUOUS
10
5.2295
20
-3.09992
11
5.22933
21
-3.10093
0
LINE
8
BLACK
6
CONTINUOUS
10
5.22933
20
-3.10093
11
5.22921
21
-3.10107
0
LINE
8
BLACK
6
CONTINUOUS
10
5.22921
20
-3.10107
11
5.22919
21
-3.10125
0
LINE
8
BLACK
6
CONTINUOUS
10
5.22919
20
-3.10125
11
5.22732
21
-3.105
0
LINE
8
BLACK
6
CONTINUOUS
10
5.22732
20
-3.105
11
5.22671
21
-3.10582
0
LINE
8
BLACK
6
CONTINUOUS
10
5.22671
20
-3.10582
11
5.2263
21
-3.10599
0
LINE
8
BLACK
6
CONTINUOUS
10
5.2263
20
-3.10599
11
5.226
21
-3.10632
0
LINE
8
BLACK
6
CONTINUOUS
10
5.226
20
-3.10632
11
5.22225
21
-3.10819
0
LINE
8
BLACK
6
CONTINUOUS
10
5.22225
20
-3.10819
11
5.22126
21
-3.10848
0
LINE
8
BLACK
6
CONTINUOUS
10
5.22126
20
-3.10848
11
5.22109
21
-3.10844
0
LINE
8
BLACK
6
CONTINUOUS
10
5.22109
20
-3.10844
11
5.22093
21
-3.1085
0
LINE
8
BLACK
6
CONTINUOUS
10
5.22093
20
-3.1085
11
5.20326
21
-3.1085
0
LINE
8
BLACK
6
CONTINUOUS
10
5.20326
20
-3.1085
11
5.20326
21
-3.11117
0
LINE
8
BLACK
6
CONTINUOUS
10
5.20326
20
-3.11117
11
5.20308
21
-3.11218
0
LINE
8
BLACK
6
CONTINUOUS
10
5.20308
20
-3.11218
11
5.20178
21
-3.11373
0
LINE
8
BLACK
6
CONTINUOUS
10
5.20178
20
-3.11373
11
5.19979
21
-3.11408
0
LINE
8
BLACK
6
CONTINUOUS
10
5.19979
20
-3.11408
11
5.19804
21
-3.11307
0
LINE
8
BLACK
6
CONTINUOUS
10
5.19804
20
-3.11307
11
5.19735
21
-3.11117
0
LINE
8
BLACK
6
CONTINUOUS
10
5.19735
20
-3.11117
11
5.19735
21
-3.1085
0
LINE
8
BLACK
6
CONTINUOUS
10
5.19735
20
-3.1085
11
5.18718
21
-3.1085
0
LINE
8
BLACK
6
CONTINUOUS
10
5.18718
20
-3.1085
11
5.18617
21
-3.10832
0
LINE
8
BLACK
6
CONTINUOUS
10
5.18617
20
-3.10832
11
5.18462
21
-3.10703
0
LINE
8
BLACK
6
CONTINUOUS
10
5.18462
20
-3.10703
11
5.18427
21
-3.10504
0
LINE
8
BLACK
6
CONTINUOUS
10
5.18427
20
-3.10504
11
5.18528
21
-3.10329
0
LINE
8
BLACK
6
CONTINUOUS
10
5.18528
20
-3.10329
11
5.18718
21
-3.1026
0
LINE
8
BLACK
6
CONTINUOUS
10
5.18718
20
-3.1026
11
5.19735
21
-3.1026
0
LINE
8
BLACK
6
CONTINUOUS
10
5.19735
20
-3.1026
11
5.19735
21
-3.09618
0
LINE
8
BLACK
6
CONTINUOUS
10
5.19735
20
-3.09618
11
5.19753
21
-3.09517
0
LINE
8
BLACK
6
CONTINUOUS
10
5.19753
20
-3.09517
11
5.19883
21
-3.09362
0
LINE
8
BLACK
6
CONTINUOUS
10
5.19883
20
-3.09362
11
5.20082
21
-3.09327
0
LINE
8
BLACK
6
CONTINUOUS
10
5.20082
20
-3.09327
11
5.20257
21
-3.09428
0
LINE
8
BLACK
6
CONTINUOUS
10
5.20257
20
-3.09428
11
5.20326
21
-3.09618
0
LINE
8
BLACK
6
CONTINUOUS
10
5.20326
20
-3.09618
11
5.20326
21
-3.1026
0
LINE
8
BLACK
6
CONTINUOUS
10
5.20326
20
-3.1026
11
5.22023
21
-3.1026
0
LINE
8
BLACK
6
CONTINUOUS
10
5.22023
20
-3.1026
11
5.22247
21
-3.10147
0
LINE
8
BLACK
6
CONTINUOUS
10
5.22247
20
-3.10147
11
5.2236
21
-3.09923
0
LINE
8
BLACK
6
CONTINUOUS
10
5.2236
20
-3.09923
11
5.2236
21
-3.09618
0
LINE
8
BLACK
6
CONTINUOUS
10
5.2236
20
-3.09618
11
5.22378
21
-3.09517
0
LINE
8
BLACK
6
CONTINUOUS
10
5.22378
20
-3.09517
11
5.22507
21
-3.09362
0
LINE
8
BLACK
6
CONTINUOUS
10
5.22507
20
-3.09362
11
5.22706
21
-3.09327
0
LINE
8
BLACK
6
CONTINUOUS
10
5.22706
20
-3.09327
11
5.22881
21
-3.09428
0
LINE
8
BLACK
6
CONTINUOUS
10
5.86781
20
-3.04951
11
5.8685
21
-3.05118
0
LINE
8
BLACK
6
CONTINUOUS
10
5.8685
20
-3.05118
11
5.8685
21
-3.07047
0
LINE
8
BLACK
6
CONTINUOUS
10
5.8685
20
-3.07047
11
5.92323
21
-3.07047
0
LINE
8
BLACK
6
CONTINUOUS
10
5.92323
20
-3.07047
11
5.9249
21
-3.07116
0
LINE
8
BLACK
6
CONTINUOUS
10
5.9249
20
-3.07116
11
5.92559
21
-3.07283
0
LINE
8
BLACK
6
CONTINUOUS
10
5.92559
20
-3.07283
11
5.9249
21
-3.0745
0
LINE
8
BLACK
6
CONTINUOUS
10
5.9249
20
-3.0745
11
5.92323
21
-3.0752
0
LINE
8
BLACK
6
CONTINUOUS
10
5.92323
20
-3.0752
11
5.8685
21
-3.0752
0
LINE
8
BLACK
6
CONTINUOUS
10
5.8685
20
-3.0752
11
5.8685
21
-3.09449
0
LINE
8
BLACK
6
CONTINUOUS
10
5.8685
20
-3.09449
11
5.86781
21
-3.09616
0
LINE
8
BLACK
6
CONTINUOUS
10
5.86781
20
-3.09616
11
5.86614
21
-3.09685
0
LINE
8
BLACK
6
CONTINUOUS
10
5.86614
20
-3.09685
11
5.86447
21
-3.09616
0
LINE
8
BLACK
6
CONTINUOUS
10
5.86447
20
-3.09616
11
5.86378
21
-3.09449
0
LINE
8
BLACK
6
CONTINUOUS
10
5.86378
20
-3.09449
11
5.86378
21
-3.0752
0
LINE
8
BLACK
6
CONTINUOUS
10
5.86378
20
-3.0752
11
5.80906
21
-3.0752
0
LINE
8
BLACK
6
CONTINUOUS
10
5.80906
20
-3.0752
11
5.80738
21
-3.0745
0
LINE
8
BLACK
6
CONTINUOUS
10
5.80738
20
-3.0745
11
5.80669
21
-3.07283
0
LINE
8
BLACK
6
CONTINUOUS
10
5.80669
20
-3.07283
11
5.80738
21
-3.07116
0
LINE
8
BLACK
6
CONTINUOUS
10
5.80738
20
-3.07116
11
5.80906
21
-3.07047
0
LINE
8
BLACK
6
CONTINUOUS
10
5.80906
20
-3.07047
11
5.86378
21
-3.07047
0
LINE
8
BLACK
6
CONTINUOUS
10
5.86378
20
-3.07047
11
5.86378
21
-3.05118
0
LINE
8
BLACK
6
CONTINUOUS
10
5.86378
20
-3.05118
11
5.86447
21
-3.04951
0
LINE
8
BLACK
6
CONTINUOUS
10
5.86447
20
-3.04951
11
5.86614
21
-3.04882
0
LINE
8
BLACK
6
CONTINUOUS
10
5.86614
20
-3.04882
11
5.86781
21
-3.04951
0
LINE
8
BLACK
6
CONTINUOUS
10
5.16013
20
-3.04947
11
5.16071
21
-3.05087
0
LINE
8
BLACK
6
CONTINUOUS
10
5.16071
20
-3.05087
11
5.16013
21
-3.05226
0
LINE
8
BLACK
6
CONTINUOUS
10
5.16013
20
-3.05226
11
5.14349
21
-3.0689
0
LINE
8
BLACK
6
CONTINUOUS
10
5.14349
20
-3.0689
11
5.20874
21
-3.0689
0
LINE
8
BLACK
6
CONTINUOUS
10
5.20874
20
-3.0689
11
5.21013
21
-3.06947
0
LINE
8
BLACK
6
CONTINUOUS
10
5.21013
20
-3.06947
11
5.21071
21
-3.07087
0
LINE
8
BLACK
6
CONTINUOUS
10
5.21071
20
-3.07087
11
5.21013
21
-3.07226
0
LINE
8
BLACK
6
CONTINUOUS
10
5.21013
20
-3.07226
11
5.20874
21
-3.07283
0
LINE
8
BLACK
6
CONTINUOUS
10
5.20874
20
-3.07283
11
5.14349
21
-3.07283
0
LINE
8
BLACK
6
CONTINUOUS
10
5.14349
20
-3.07283
11
5.16013
21
-3.08947
0
LINE
8
BLACK
6
CONTINUOUS
10
5.16013
20
-3.08947
11
5.16071
21
-3.09087
0
LINE
8
BLACK
6
CONTINUOUS
10
5.16071
20
-3.09087
11
5.16013
21
-3.09226
0
LINE
8
BLACK
6
CONTINUOUS
10
5.16013
20
-3.09226
11
5.15874
21
-3.09283
0
LINE
8
BLACK
6
CONTINUOUS
10
5.15874
20
-3.09283
11
5.15735
21
-3.09226
0
LINE
8
BLACK
6
CONTINUOUS
10
5.15735
20
-3.09226
11
5.13735
21
-3.07226
0
LINE
8
BLACK
6
CONTINUOUS
10
5.13735
20
-3.07226
11
5.13677
21
-3.07087
0
LINE
8
BLACK
6
CONTINUOUS
10
5.13677
20
-3.07087
11
5.13735
21
-3.06947
0
LINE
8
BLACK
6
CONTINUOUS
10
5.13735
20
-3.06947
11
5.15735
21
-3.04947
0
LINE
8
BLACK
6
CONTINUOUS
10
5.15735
20
-3.04947
11
5.15874
21
-3.0489
0
LINE
8
BLACK
6
CONTINUOUS
10
5.15874
20
-3.0489
11
5.16013
21
-3.04947
0
LINE
8
BLACK
6
CONTINUOUS
10
5.74904
20
-3.06809
11
5.75059
21
-3.06939
0
LINE
8
BLACK
6
CONTINUOUS
10
5.75059
20
-3.06939
11
5.75094
21
-3.07138
0
LINE
8
BLACK
6
CONTINUOUS
10
5.75094
20
-3.07138
11
5.74993
21
-3.07313
0
LINE
8
BLACK
6
CONTINUOUS
10
5.74993
20
-3.07313
11
5.74803
21
-3.07382
0
LINE
8
BLACK
6
CONTINUOUS
10
5.74803
20
-3.07382
11
5.25591
21
-3.07382
0
LINE
8
BLACK
6
CONTINUOUS
10
5.25591
20
-3.07382
11
5.2549
21
-3.07364
0
LINE
8
BLACK
6
CONTINUOUS
10
5.2549
20
-3.07364
11
5.25335
21
-3.07234
0
LINE
8
BLACK
6
CONTINUOUS
10
5.25335
20
-3.07234
11
5.253
21
-3.07035
0
LINE
8
BLACK
6
CONTINUOUS
10
5.253
20
-3.07035
11
5.25401
21
-3.0686
0
LINE
8
BLACK
6
CONTINUOUS
10
5.25401
20
-3.0686
11
5.25591
21
-3.06791
0
LINE
8
BLACK
6
CONTINUOUS
10
5.25591
20
-3.06791
11
5.74803
21
-3.06791
0
LINE
8
BLACK
6
CONTINUOUS
10
5.74803
20
-3.06791
11
5.74904
21
-3.06809
0
LINE
8
BLACK
6
CONTINUOUS
10
5.18955
20
-3.04835
11
5.18982
21
-3.04833
0
LINE
8
BLACK
6
CONTINUOUS
10
5.18982
20
-3.04833
11
5.19045
21
-3.04877
0
LINE
8
BLACK
6
CONTINUOUS
10
5.19045
20
-3.04877
11
5.19114
21
-3.04909
0
LINE
8
BLACK
6
CONTINUOUS
10
5.19114
20
-3.04909
11
5.19302
21
-3.05097
0
LINE
8
BLACK
6
CONTINUOUS
10
5.19302
20
-3.05097
11
5.19324
21
-3.05129
0
LINE
8
BLACK
6
CONTINUOUS
10
5.19324
20
-3.05129
11
5.19335
21
-3.05136
0
LINE
8
BLACK
6
CONTINUOUS
10
5.19335
20
-3.05136
11
5.19338
21
-3.05149
0
LINE
8
BLACK
6
CONTINUOUS
10
5.19338
20
-3.05149
11
5.19339
21
-3.0515
0
LINE
8
BLACK
6
CONTINUOUS
10
5.19339
20
-3.0515
11
5.19349
21
-3.05158
0
LINE
8
BLACK
6
CONTINUOUS
10
5.19349
20
-3.05158
11
5.1935
21
-3.05166
0
LINE
8
BLACK
6
CONTINUOUS
10
5.1935
20
-3.05166
11
5.19361
21
-3.05181
0
LINE
8
BLACK
6
CONTINUOUS
10
5.19361
20
-3.05181
11
5.19367
21
-3.05257
0
LINE
8
BLACK
6
CONTINUOUS
10
5.19367
20
-3.05257
11
5.19387
21
-3.05331
0
LINE
8
BLACK
6
CONTINUOUS
10
5.19387
20
-3.05331
11
5.19381
21
-3.05344
0
LINE
8
BLACK
6
CONTINUOUS
10
5.19381
20
-3.05344
11
5.19384
21
-3.05357
0
LINE
8
BLACK
6
CONTINUOUS
10
5.19384
20
-3.05357
11
5.19377
21
-3.05369
0
LINE
8
BLACK
6
CONTINUOUS
10
5.19377
20
-3.05369
11
5.19378
21
-3.05382
0
LINE
8
BLACK
6
CONTINUOUS
10
5.19378
20
-3.05382
11
5.19334
21
-3.05445
0
LINE
8
BLACK
6
CONTINUOUS
10
5.19334
20
-3.05445
11
5.19302
21
-3.05514
0
LINE
8
BLACK
6
CONTINUOUS
10
5.19302
20
-3.05514
11
5.19114
21
-3.05702
0
LINE
8
BLACK
6
CONTINUOUS
10
5.19114
20
-3.05702
11
5.19082
21
-3.05724
0
LINE
8
BLACK
6
CONTINUOUS
10
5.19082
20
-3.05724
11
5.19075
21
-3.05735
0
LINE
8
BLACK
6
CONTINUOUS
10
5.19075
20
-3.05735
11
5.19062
21
-3.05738
0
LINE
8
BLACK
6
CONTINUOUS
10
5.19062
20
-3.05738
11
5.1903
21
-3.05761
0
LINE
8
BLACK
6
CONTINUOUS
10
5.1903
20
-3.05761
11
5.18954
21
-3.05767
0
LINE
8
BLACK
6
CONTINUOUS
10
5.18954
20
-3.05767
11
5.1888
21
-3.05787
0
LINE
8
BLACK
6
CONTINUOUS
10
5.1888
20
-3.05787
11
5.18856
21
-3.05776
0
LINE
8
BLACK
6
CONTINUOUS
10
5.18856
20
-3.05776
11
5.18829
21
-3.05778
0
LINE
8
BLACK
6
CONTINUOUS
10
5.18829
20
-3.05778
11
5.18766
21
-3.05734
0
LINE
8
BLACK
6
CONTINUOUS
10
5.18766
20
-3.05734
11
5.18697
21
-3.05702
0
LINE
8
BLACK
6
CONTINUOUS
10
5.18697
20
-3.05702
11
5.18509
21
-3.05514
0
LINE
8
BLACK
6
CONTINUOUS
10
5.18509
20
-3.05514
11
5.18487
21
-3.05482
0
LINE
8
BLACK
6
CONTINUOUS
10
5.18487
20
-3.05482
11
5.18476
21
-3.05475
0
LINE
8
BLACK
6
CONTINUOUS
10
5.18476
20
-3.05475
11
5.18473
21
-3.05462
0
LINE
8
BLACK
6
CONTINUOUS
10
5.18473
20
-3.05462
11
5.18472
21
-3.05462
0
LINE
8
BLACK
6
CONTINUOUS
10
5.18472
20
-3.05462
11
5.18462
21
-3.05453
0
LINE
8
BLACK
6
CONTINUOUS
10
5.18462
20
-3.05453
11
5.18461
21
-3.05445
0
LINE
8
BLACK
6
CONTINUOUS
10
5.18461
20
-3.05445
11
5.1845
21
-3.0543
0
LINE
8
BLACK
6
CONTINUOUS
10
5.1845
20
-3.0543
11
5.18444
21
-3.05354
0
LINE
8
BLACK
6
CONTINUOUS
10
5.18444
20
-3.05354
11
5.18424
21
-3.0528
0
LINE
8
BLACK
6
CONTINUOUS
10
5.18424
20
-3.0528
11
5.1843
21
-3.05268
0
LINE
8
BLACK
6
CONTINUOUS
10
5.1843
20
-3.05268
11
5.18427
21
-3.05254
0
LINE
8
BLACK
6
CONTINUOUS
10
5.18427
20
-3.05254
11
5.18434
21
-3.05243
0
LINE
8
BLACK
6
CONTINUOUS
10
5.18434
20
-3.05243
11
5.18433
21
-3.05229
0
LINE
8
BLACK
6
CONTINUOUS
10
5.18433
20
-3.05229
11
5.18477
21
-3.05166
0
LINE
8
BLACK
6
CONTINUOUS
10
5.18477
20
-3.05166
11
5.18509
21
-3.05097
0
LINE
8
BLACK
6
CONTINUOUS
10
5.18509
20
-3.05097
11
5.18697
21
-3.04909
0
LINE
8
BLACK
6
CONTINUOUS
10
5.18697
20
-3.04909
11
5.18729
21
-3.04887
0
LINE
8
BLACK
6
CONTINUOUS
10
5.18729
20
-3.04887
11
5.18736
21
-3.04876
0
LINE
8
BLACK
6
CONTINUOUS
10
5.18736
20
-3.04876
11
5.18749
21
-3.04873
0
LINE
8
BLACK
6
CONTINUOUS
10
5.18749
20
-3.04873
11
5.18781
21
-3.0485
0
LINE
8
BLACK
6
CONTINUOUS
10
5.18781
20
-3.0485
11
5.18857
21
-3.04844
0
LINE
8
BLACK
6
CONTINUOUS
10
5.18857
20
-3.04844
11
5.18931
21
-3.04824
0
LINE
8
BLACK
6
CONTINUOUS
10
5.18931
20
-3.04824
11
5.18955
21
-3.04835
0
LINE
8
BLACK
6
CONTINUOUS
10
5.22756
20
-3.05028
11
5.22911
21
-3.05158
0
LINE
8
BLACK
6
CONTINUOUS
10
5.22911
20
-3.05158
11
5.22946
21
-3.05357
0
LINE
8
BLACK
6
CONTINUOUS
10
5.22946
20
-3.05357
11
5.22845
21
-3.05532
0
LINE
8
BLACK
6
CONTINUOUS
10
5.22845
20
-3.05532
11
5.22655
21
-3.05601
0
LINE
8
BLACK
6
CONTINUOUS
10
5.22655
20
-3.05601
11
5.2003
21
-3.05601
0
LINE
8
BLACK
6
CONTINUOUS
10
5.2003
20
-3.05601
11
5.19929
21
-3.05583
0
LINE
8
BLACK
6
CONTINUOUS
10
5.19929
20
-3.05583
11
5.19775
21
-3.05453
0
LINE
8
BLACK
6
CONTINUOUS
10
5.19775
20
-3.05453
11
5.1974
21
-3.05254
0
LINE
8
BLACK
6
CONTINUOUS
10
5.1974
20
-3.05254
11
5.19841
21
-3.05079
0
LINE
8
BLACK
6
CONTINUOUS
10
5.19841
20
-3.05079
11
5.2003
21
-3.0501
0
LINE
8
BLACK
6
CONTINUOUS
10
5.2003
20
-3.0501
11
5.22655
21
-3.0501
0
LINE
8
BLACK
6
CONTINUOUS
10
5.22655
20
-3.0501
11
5.22756
21
-3.05028
0
LINE
8
BLACK
6
CONTINUOUS
10
5.22756
20
-3.01466
11
5.22911
21
-3.01596
0
LINE
8
BLACK
6
CONTINUOUS
10
5.22911
20
-3.01596
11
5.22946
21
-3.01795
0
LINE
8
BLACK
6
CONTINUOUS
10
5.22946
20
-3.01795
11
5.22845
21
-3.0197
0
LINE
8
BLACK
6
CONTINUOUS
10
5.22845
20
-3.0197
11
5.22655
21
-3.02039
0
LINE
8
BLACK
6
CONTINUOUS
10
5.22655
20
-3.02039
11
5.20663
21
-3.02039
0
LINE
8
BLACK
6
CONTINUOUS
10
5.20663
20
-3.02039
11
5.20438
21
-3.02151
0
LINE
8
BLACK
6
CONTINUOUS
10
5.20438
20
-3.02151
11
5.20326
21
-3.02376
0
LINE
8
BLACK
6
CONTINUOUS
10
5.20326
20
-3.02376
11
5.20326
21
-3.02799
0
LINE
8
BLACK
6
CONTINUOUS
10
5.20326
20
-3.02799
11
5.20461
21
-3.03068
0
LINE
8
BLACK
6
CONTINUOUS
10
5.20461
20
-3.03068
11
5.20528
21
-3.03136
0
LINE
8
BLACK
6
CONTINUOUS
10
5.20528
20
-3.03136
11
5.22655
21
-3.03136
0
LINE
8
BLACK
6
CONTINUOUS
10
5.22655
20
-3.03136
11
5.22756
21
-3.03153
0
LINE
8
BLACK
6
CONTINUOUS
10
5.22756
20
-3.03153
11
5.22911
21
-3.03283
0
LINE
8
BLACK
6
CONTINUOUS
10
5.22911
20
-3.03283
11
5.22946
21
-3.03482
0
LINE
8
BLACK
6
CONTINUOUS
10
5.22946
20
-3.03482
11
5.22845
21
-3.03657
0
LINE
8
BLACK
6
CONTINUOUS
10
5.22845
20
-3.03657
11
5.22655
21
-3.03726
0
LINE
8
BLACK
6
CONTINUOUS
10
5.22655
20
-3.03726
11
5.2003
21
-3.03726
0
LINE
8
BLACK
6
CONTINUOUS
10
5.2003
20
-3.03726
11
5.19929
21
-3.03708
0
LINE
8
BLACK
6
CONTINUOUS
10
5.19929
20
-3.03708
11
5.19775
21
-3.03578
0
LINE
8
BLACK
6
CONTINUOUS
10
5.19775
20
-3.03578
11
5.1974
21
-3.0338
0
LINE
8
BLACK
6
CONTINUOUS
10
5.1974
20
-3.0338
11
5.19841
21
-3.03205
0
LINE
8
BLACK
6
CONTINUOUS
10
5.19841
20
-3.03205
11
5.19864
21
-3.03196
0
LINE
8
BLACK
6
CONTINUOUS
10
5.19864
20
-3.03196
11
5.19766
21
-3.03
0
LINE
8
BLACK
6
CONTINUOUS
10
5.19766
20
-3.03
11
5.19737
21
-3.02902
0
LINE
8
BLACK
6
CONTINUOUS
10
5.19737
20
-3.02902
11
5.19741
21
-3.02885
0
LINE
8
BLACK
6
CONTINUOUS
10
5.19741
20
-3.02885
11
5.19735
21
-3.02868
0
LINE
8
BLACK
6
CONTINUOUS
10
5.19735
20
-3.02868
11
5.19735
21
-3.02306
0
LINE
8
BLACK
6
CONTINUOUS
10
5.19735
20
-3.02306
11
5.19753
21
-3.02205
0
LINE
8
BLACK
6
CONTINUOUS
10
5.19753
20
-3.02205
11
5.19764
21
-3.02191
0
LINE
8
BLACK
6
CONTINUOUS
10
5.19764
20
-3.02191
11
5.19766
21
-3.02174
0
LINE
8
BLACK
6
CONTINUOUS
10
5.19766
20
-3.02174
11
5.19954
21
-3.01799
0
LINE
8
BLACK
6
CONTINUOUS
10
5.19954
20
-3.01799
11
5.20015
21
-3.01717
0
LINE
8
BLACK
6
CONTINUOUS
10
5.20015
20
-3.01717
11
5.20055
21
-3.01699
0
LINE
8
BLACK
6
CONTINUOUS
10
5.20055
20
-3.01699
11
5.20086
21
-3.01667
0
LINE
8
BLACK
6
CONTINUOUS
10
5.20086
20
-3.01667
11
5.20461
21
-3.01479
0
LINE
8
BLACK
6
CONTINUOUS
10
5.20461
20
-3.01479
11
5.20559
21
-3.0145
0
LINE
8
BLACK
6
CONTINUOUS
10
5.20559
20
-3.0145
11
5.20576
21
-3.01454
0
LINE
8
BLACK
6
CONTINUOUS
10
5.20576
20
-3.01454
11
5.20593
21
-3.01448
0
LINE
8
BLACK
6
CONTINUOUS
10
5.20593
20
-3.01448
11
5.22655
21
-3.01448
0
LINE
8
BLACK
6
CONTINUOUS
10
5.22655
20
-3.01448
11
5.22756
21
-3.01466
0
LINE
8
BLACK
6
CONTINUOUS
10
4.68671
20
-2.97077
11
4.6874
21
-2.97244
0
LINE
8
BLACK
6
CONTINUOUS
10
4.6874
20
-2.97244
11
4.6874
21
-2.99173
0
LINE
8
BLACK
6
CONTINUOUS
10
4.6874
20
-2.99173
11
4.74213
21
-2.99173
0
LINE
8
BLACK
6
CONTINUOUS
10
4.74213
20
-2.99173
11
4.7438
21
-2.99242
0
LINE
8
BLACK
6
CONTINUOUS
10
4.7438
20
-2.99242
11
4.74449
21
-2.99409
0
LINE
8
BLACK
6
CONTINUOUS
10
4.74449
20
-2.99409
11
4.7438
21
-2.99576
0
LINE
8
BLACK
6
CONTINUOUS
10
4.7438
20
-2.99576
11
4.74213
21
-2.99646
0
LINE
8
BLACK
6
CONTINUOUS
10
4.74213
20
-2.99646
11
4.6874
21
-2.99646
0
LINE
8
BLACK
6
CONTINUOUS
10
4.6874
20
-2.99646
11
4.6874
21
-3.01575
0
LINE
8
BLACK
6
CONTINUOUS
10
4.6874
20
-3.01575
11
4.68671
21
-3.01742
0
LINE
8
BLACK
6
CONTINUOUS
10
4.68671
20
-3.01742
11
4.68504
21
-3.01811
0
LINE
8
BLACK
6
CONTINUOUS
10
4.68504
20
-3.01811
11
4.68337
21
-3.01742
0
LINE
8
BLACK
6
CONTINUOUS
10
4.68337
20
-3.01742
11
4.68268
21
-3.01575
0
LINE
8
BLACK
6
CONTINUOUS
10
4.68268
20
-3.01575
11
4.68268
21
-2.99646
0
LINE
8
BLACK
6
CONTINUOUS
10
4.68268
20
-2.99646
11
4.62795
21
-2.99646
0
LINE
8
BLACK
6
CONTINUOUS
10
4.62795
20
-2.99646
11
4.62628
21
-2.99576
0
LINE
8
BLACK
6
CONTINUOUS
10
4.62628
20
-2.99576
11
4.62559
21
-2.99409
0
LINE
8
BLACK
6
CONTINUOUS
10
4.62559
20
-2.99409
11
4.62628
21
-2.99242
0
LINE
8
BLACK
6
CONTINUOUS
10
4.62628
20
-2.99242
11
4.62795
21
-2.99173
0
LINE
8
BLACK
6
CONTINUOUS
10
4.62795
20
-2.99173
11
4.68268
21
-2.99173
0
LINE
8
BLACK
6
CONTINUOUS
10
4.68268
20
-2.99173
11
4.68268
21
-2.97244
0
LINE
8
BLACK
6
CONTINUOUS
10
4.68268
20
-2.97244
11
4.68337
21
-2.97077
0
LINE
8
BLACK
6
CONTINUOUS
10
4.68337
20
-2.97077
11
4.68504
21
-2.97008
0
LINE
8
BLACK
6
CONTINUOUS
10
4.68504
20
-2.97008
11
4.68671
21
-2.97077
0
LINE
8
BLACK
6
CONTINUOUS
10
6.1434
20
-2.97077
11
6.14409
21
-2.97244
0
LINE
8
BLACK
6
CONTINUOUS
10
6.14409
20
-2.97244
11
6.14409
21
-2.99173
0
LINE
8
BLACK
6
CONTINUOUS
10
6.14409
20
-2.99173
11
6.19882
21
-2.99173
0
LINE
8
BLACK
6
CONTINUOUS
10
6.19882
20
-2.99173
11
6.20049
21
-2.99242
0
LINE
8
BLACK
6
CONTINUOUS
10
6.20049
20
-2.99242
11
6.20118
21
-2.99409
0
LINE
8
BLACK
6
CONTINUOUS
10
6.20118
20
-2.99409
11
6.20049
21
-2.99576
0
LINE
8
BLACK
6
CONTINUOUS
10
6.20049
20
-2.99576
11
6.19882
21
-2.99646
0
LINE
8
BLACK
6
CONTINUOUS
10
6.19882
20
-2.99646
11
6.14409
21
-2.99646
0
LINE
8
BLACK
6
CONTINUOUS
10
6.14409
20
-2.99646
11
6.14409
21
-3.01575
0
LINE
8
BLACK
6
CONTINUOUS
10
6.14409
20
-3.01575
11
6.1434
21
-3.01742
0
LINE
8
BLACK
6
CONTINUOUS
10
6.1434
20
-3.01742
11
6.14173
21
-3.01811
0
LINE
8
BLACK
6
CONTINUOUS
10
6.14173
20
-3.01811
11
6.14006
21
-3.01742
0
LINE
8
BLACK
6
CONTINUOUS
10
6.14006
20
-3.01742
11
6.13937
21
-3.01575
0
LINE
8
BLACK
6
CONTINUOUS
10
6.13937
20
-3.01575
11
6.13937
21
-2.99646
0
LINE
8
BLACK
6
CONTINUOUS
10
6.13937
20
-2.99646
11
6.08465
21
-2.99646
0
LINE
8
BLACK
6
CONTINUOUS
10
6.08465
20
-2.99646
11
6.08298
21
-2.99576
0
LINE
8
BLACK
6
CONTINUOUS
10
6.08298
20
-2.99576
11
6.08228
21
-2.99409
0
LINE
8
BLACK
6
CONTINUOUS
10
6.08228
20
-2.99409
11
6.08298
21
-2.99242
0
LINE
8
BLACK
6
CONTINUOUS
10
6.08298
20
-2.99242
11
6.08465
21
-2.99173
0
LINE
8
BLACK
6
CONTINUOUS
10
6.08465
20
-2.99173
11
6.13937
21
-2.99173
0
LINE
8
BLACK
6
CONTINUOUS
10
6.13937
20
-2.99173
11
6.13937
21
-2.97244
0
LINE
8
BLACK
6
CONTINUOUS
10
6.13937
20
-2.97244
11
6.14006
21
-2.97077
0
LINE
8
BLACK
6
CONTINUOUS
10
6.14006
20
-2.97077
11
6.14173
21
-2.97008
0
LINE
8
BLACK
6
CONTINUOUS
10
6.14173
20
-2.97008
11
6.1434
21
-2.97077
0
LINE
8
BLACK
6
CONTINUOUS
10
5.22194
20
-2.98091
11
5.22207
21
-2.98103
0
LINE
8
BLACK
6
CONTINUOUS
10
5.22207
20
-2.98103
11
5.22225
21
-2.98105
0
LINE
8
BLACK
6
CONTINUOUS
10
5.22225
20
-2.98105
11
5.226
21
-2.98292
0
LINE
8
BLACK
6
CONTINUOUS
10
5.226
20
-2.98292
11
5.22682
21
-2.98353
0
LINE
8
BLACK
6
CONTINUOUS
10
5.22682
20
-2.98353
11
5.227
21
-2.98394
0
LINE
8
BLACK
6
CONTINUOUS
10
5.227
20
-2.98394
11
5.22732
21
-2.98424
0
LINE
8
BLACK
6
CONTINUOUS
10
5.22732
20
-2.98424
11
5.22919
21
-2.98799
0
LINE
8
BLACK
6
CONTINUOUS
10
5.22919
20
-2.98799
11
5.22948
21
-2.98898
0
LINE
8
BLACK
6
CONTINUOUS
10
5.22948
20
-2.98898
11
5.22944
21
-2.98915
0
LINE
8
BLACK
6
CONTINUOUS
10
5.22944
20
-2.98915
11
5.2295
21
-2.98931
0
LINE
8
BLACK
6
CONTINUOUS
10
5.2295
20
-2.98931
11
5.2295
21
-2.99681
0
LINE
8
BLACK
6
CONTINUOUS
10
5.2295
20
-2.99681
11
5.22933
21
-2.99782
0
LINE
8
BLACK
6
CONTINUOUS
10
5.22933
20
-2.99782
11
5.22921
21
-2.99796
0
LINE
8
BLACK
6
CONTINUOUS
10
5.22921
20
-2.99796
11
5.22919
21
-2.99813
0
LINE
8
BLACK
6
CONTINUOUS
10
5.22919
20
-2.99813
11
5.22732
21
-3.00188
0
LINE
8
BLACK
6
CONTINUOUS
10
5.22732
20
-3.00188
11
5.22671
21
-3.00271
0
LINE
8
BLACK
6
CONTINUOUS
10
5.22671
20
-3.00271
11
5.22485
21
-3.00351
0
LINE
8
BLACK
6
CONTINUOUS
10
5.22485
20
-3.00351
11
5.22292
21
-3.00293
0
LINE
8
BLACK
6
CONTINUOUS
10
5.22292
20
-3.00293
11
5.2218
21
-3.00125
0
LINE
8
BLACK
6
CONTINUOUS
10
5.2218
20
-3.00125
11
5.22203
21
-2.99924
0
LINE
8
BLACK
6
CONTINUOUS
10
5.22203
20
-2.99924
11
5.2236
21
-2.99612
0
LINE
8
BLACK
6
CONTINUOUS
10
5.2236
20
-2.99612
11
5.2236
21
-2.99001
0
LINE
8
BLACK
6
CONTINUOUS
10
5.2236
20
-2.99001
11
5.22247
21
-2.98777
0
LINE
8
BLACK
6
CONTINUOUS
10
5.22247
20
-2.98777
11
5.22023
21
-2.98664
0
LINE
8
BLACK
6
CONTINUOUS
10
5.22023
20
-2.98664
11
5.21975
21
-2.98664
0
LINE
8
BLACK
6
CONTINUOUS
10
5.21975
20
-2.98664
11
5.2175
21
-2.98777
0
LINE
8
BLACK
6
CONTINUOUS
10
5.2175
20
-2.98777
11
5.21638
21
-2.99001
0
LINE
8
BLACK
6
CONTINUOUS
10
5.21638
20
-2.99001
11
5.21638
21
-2.99494
0
LINE
8
BLACK
6
CONTINUOUS
10
5.21638
20
-2.99494
11
5.2162
21
-2.99595
0
LINE
8
BLACK
6
CONTINUOUS
10
5.2162
20
-2.99595
11
5.21609
21
-2.99608
0
LINE
8
BLACK
6
CONTINUOUS
10
5.21609
20
-2.99608
11
5.21607
21
-2.99626
0
LINE
8
BLACK
6
CONTINUOUS
10
5.21607
20
-2.99626
11
5.21419
21
-3.00001
0
LINE
8
BLACK
6
CONTINUOUS
10
5.21419
20
-3.00001
11
5.21358
21
-3.00083
0
LINE
8
BLACK
6
CONTINUOUS
10
5.21358
20
-3.00083
11
5.21318
21
-3.00101
0
LINE
8
BLACK
6
CONTINUOUS
10
5.21318
20
-3.00101
11
5.21287
21
-3.00133
0
LINE
8
BLACK
6
CONTINUOUS
10
5.21287
20
-3.00133
11
5.20912
21
-3.0032
0
LINE
8
BLACK
6
CONTINUOUS
10
5.20912
20
-3.0032
11
5.20814
21
-3.0035
0
LINE
8
BLACK
6
CONTINUOUS
10
5.20814
20
-3.0035
11
5.20797
21
-3.00345
0
LINE
8
BLACK
6
CONTINUOUS
10
5.20797
20
-3.00345
11
5.2078
21
-3.00352
0
LINE
8
BLACK
6
CONTINUOUS
10
5.2078
20
-3.00352
11
5.20593
21
-3.00352
0
LINE
8
BLACK
6
CONTINUOUS
10
5.20593
20
-3.00352
11
5.20492
21
-3.00334
0
LINE
8
BLACK
6
CONTINUOUS
10
5.20492
20
-3.00334
11
5.20478
21
-3.00322
0
LINE
8
BLACK
6
CONTINUOUS
10
5.20478
20
-3.00322
11
5.20461
21
-3.0032
0
LINE
8
BLACK
6
CONTINUOUS
10
5.20461
20
-3.0032
11
5.20086
21
-3.00133
0
LINE
8
BLACK
6
CONTINUOUS
10
5.20086
20
-3.00133
11
5.20003
21
-3.00072
0
LINE
8
BLACK
6
CONTINUOUS
10
5.20003
20
-3.00072
11
5.19986
21
-3.00031
0
LINE
8
BLACK
6
CONTINUOUS
10
5.19986
20
-3.00031
11
5.19954
21
-3.00001
0
LINE
8
BLACK
6
CONTINUOUS
10
5.19954
20
-3.00001
11
5.19766
21
-2.99626
0
LINE
8
BLACK
6
CONTINUOUS
10
5.19766
20
-2.99626
11
5.19737
21
-2.99528
0
LINE
8
BLACK
6
CONTINUOUS
10
5.19737
20
-2.99528
11
5.19741
21
-2.9951
0
LINE
8
BLACK
6
CONTINUOUS
10
5.19741
20
-2.9951
11
5.19735
21
-2.99494
0
LINE
8
BLACK
6
CONTINUOUS
10
5.19735
20
-2.99494
11
5.19735
21
-2.98931
0
LINE
8
BLACK
6
CONTINUOUS
10
5.19735
20
-2.98931
11
5.19753
21
-2.9883
0
LINE
8
BLACK
6
CONTINUOUS
10
5.19753
20
-2.9883
11
5.19764
21
-2.98817
0
LINE
8
BLACK
6
CONTINUOUS
10
5.19764
20
-2.98817
11
5.19766
21
-2.98799
0
LINE
8
BLACK
6
CONTINUOUS
10
5.19766
20
-2.98799
11
5.19954
21
-2.98424
0
LINE
8
BLACK
6
CONTINUOUS
10
5.19954
20
-2.98424
11
5.20015
21
-2.98342
0
LINE
8
BLACK
6
CONTINUOUS
10
5.20015
20
-2.98342
11
5.202
21
-2.98262
0
LINE
8
BLACK
6
CONTINUOUS
10
5.202
20
-2.98262
11
5.20394
21
-2.98319
0
LINE
8
BLACK
6
CONTINUOUS
10
5.20394
20
-2.98319
11
5.20505
21
-2.98488
0
LINE
8
BLACK
6
CONTINUOUS
10
5.20505
20
-2.98488
11
5.20482
21
-2.98688
0
LINE
8
BLACK
6
CONTINUOUS
10
5.20482
20
-2.98688
11
5.20326
21
-2.99001
0
LINE
8
BLACK
6
CONTINUOUS
10
5.20326
20
-2.99001
11
5.20326
21
-2.99424
0
LINE
8
BLACK
6
CONTINUOUS
10
5.20326
20
-2.99424
11
5.20438
21
-2.99649
0
LINE
8
BLACK
6
CONTINUOUS
10
5.20438
20
-2.99649
11
5.20663
21
-2.99761
0
LINE
8
BLACK
6
CONTINUOUS
10
5.20663
20
-2.99761
11
5.20711
21
-2.99761
0
LINE
8
BLACK
6
CONTINUOUS
10
5.20711
20
-2.99761
11
5.20935
21
-2.99649
0
LINE
8
BLACK
6
CONTINUOUS
10
5.20935
20
-2.99649
11
5.21047
21
-2.99424
0
LINE
8
BLACK
6
CONTINUOUS
10
5.21047
20
-2.99424
11
5.21047
21
-2.98931
0
LINE
8
BLACK
6
CONTINUOUS
10
5.21047
20
-2.98931
11
5.21065
21
-2.9883
0
LINE
8
BLACK
6
CONTINUOUS
10
5.21065
20
-2.9883
11
5.21077
21
-2.98817
0
LINE
8
BLACK
6
CONTINUOUS
10
5.21077
20
-2.98817
11
5.21079
21
-2.98799
0
LINE
8
BLACK
6
CONTINUOUS
10
5.21079
20
-2.98799
11
5.21266
21
-2.98424
0
LINE
8
BLACK
6
CONTINUOUS
10
5.21266
20
-2.98424
11
5.21327
21
-2.98342
0
LINE
8
BLACK
6
CONTINUOUS
10
5.21327
20
-2.98342
11
5.21368
21
-2.98324
0
LINE
8
BLACK
6
CONTINUOUS
10
5.21368
20
-2.98324
11
5.21398
21
-2.98292
0
LINE
8
BLACK
6
CONTINUOUS
10
5.21398
20
-2.98292
11
5.21773
21
-2.98105
0
LINE
8
BLACK
6
CONTINUOUS
10
5.21773
20
-2.98105
11
5.21871
21
-2.98076
0
LINE
8
BLACK
6
CONTINUOUS
10
5.21871
20
-2.98076
11
5.21889
21
-2.9808
0
LINE
8
BLACK
6
CONTINUOUS
10
5.21889
20
-2.9808
11
5.21905
21
-2.98074
0
LINE
8
BLACK
6
CONTINUOUS
10
5.21905
20
-2.98074
11
5.22093
21
-2.98074
0
LINE
8
BLACK
6
CONTINUOUS
10
5.22093
20
-2.98074
11
5.22194
21
-2.98091
0
LINE
8
BLACK
6
CONTINUOUS
10
5.21069
20
-2.94717
11
5.21106
21
-2.94748
0
LINE
8
BLACK
6
CONTINUOUS
10
5.21106
20
-2.94748
11
5.21152
21
-2.94764
0
LINE
8
BLACK
6
CONTINUOUS
10
5.21152
20
-2.94764
11
5.21181
21
-2.94811
0
LINE
8
BLACK
6
CONTINUOUS
10
5.21181
20
-2.94811
11
5.21223
21
-2.94847
0
LINE
8
BLACK
6
CONTINUOUS
10
5.21223
20
-2.94847
11
5.21232
21
-2.94895
0
LINE
8
BLACK
6
CONTINUOUS
10
5.21232
20
-2.94895
11
5.21257
21
-2.94936
0
LINE
8
BLACK
6
CONTINUOUS
10
5.21257
20
-2.94936
11
5.21585
21
-2.96574
0
LINE
8
BLACK
6
CONTINUOUS
10
5.21585
20
-2.96574
11
5.22023
21
-2.96574
0
LINE
8
BLACK
6
CONTINUOUS
10
5.22023
20
-2.96574
11
5.22247
21
-2.96462
0
LINE
8
BLACK
6
CONTINUOUS
10
5.22247
20
-2.96462
11
5.2236
21
-2.96237
0
LINE
8
BLACK
6
CONTINUOUS
10
5.2236
20
-2.96237
11
5.2236
21
-2.95627
0
LINE
8
BLACK
6
CONTINUOUS
10
5.2236
20
-2.95627
11
5.22203
21
-2.95314
0
LINE
8
BLACK
6
CONTINUOUS
10
5.22203
20
-2.95314
11
5.22174
21
-2.95216
0
LINE
8
BLACK
6
CONTINUOUS
10
5.22174
20
-2.95216
11
5.22221
21
-2.95019
0
LINE
8
BLACK
6
CONTINUOUS
10
5.22221
20
-2.95019
11
5.22383
21
-2.94899
0
LINE
8
BLACK
6
CONTINUOUS
10
5.22383
20
-2.94899
11
5.22585
21
-2.94911
0
LINE
8
BLACK
6
CONTINUOUS
10
5.22585
20
-2.94911
11
5.22732
21
-2.9505
0
LINE
8
BLACK
6
CONTINUOUS
10
5.22732
20
-2.9505
11
5.22919
21
-2.95425
0
LINE
8
BLACK
6
CONTINUOUS
10
5.22919
20
-2.95425
11
5.22948
21
-2.95523
0
LINE
8
BLACK
6
CONTINUOUS
10
5.22948
20
-2.95523
11
5.22944
21
-2.9554
0
LINE
8
BLACK
6
CONTINUOUS
10
5.22944
20
-2.9554
11
5.2295
21
-2.95557
0
LINE
8
BLACK
6
CONTINUOUS
10
5.2295
20
-2.95557
11
5.2295
21
-2.96307
0
LINE
8
BLACK
6
CONTINUOUS
10
5.2295
20
-2.96307
11
5.22933
21
-2.96408
0
LINE
8
BLACK
6
CONTINUOUS
10
5.22933
20
-2.96408
11
5.22921
21
-2.96421
0
LINE
8
BLACK
6
CONTINUOUS
10
5.22921
20
-2.96421
11
5.22919
21
-2.96439
0
LINE
8
BLACK
6
CONTINUOUS
10
5.22919
20
-2.96439
11
5.22732
21
-2.96814
0
LINE
8
BLACK
6
CONTINUOUS
10
5.22732
20
-2.96814
11
5.22671
21
-2.96896
0
LINE
8
BLACK
6
CONTINUOUS
10
5.22671
20
-2.96896
11
5.2263
21
-2.96914
0
LINE
8
BLACK
6
CONTINUOUS
10
5.2263
20
-2.96914
11
5.226
21
-2.96946
0
LINE
8
BLACK
6
CONTINUOUS
10
5.226
20
-2.96946
11
5.22225
21
-2.97133
0
LINE
8
BLACK
6
CONTINUOUS
10
5.22225
20
-2.97133
11
5.22126
21
-2.97162
0
LINE
8
BLACK
6
CONTINUOUS
10
5.22126
20
-2.97162
11
5.22109
21
-2.97158
0
LINE
8
BLACK
6
CONTINUOUS
10
5.22109
20
-2.97158
11
5.22093
21
-2.97164
0
LINE
8
BLACK
6
CONTINUOUS
10
5.22093
20
-2.97164
11
5.20593
21
-2.97164
0
LINE
8
BLACK
6
CONTINUOUS
10
5.20593
20
-2.97164
11
5.20492
21
-2.97147
0
LINE
8
BLACK
6
CONTINUOUS
10
5.20492
20
-2.97147
11
5.20478
21
-2.97135
0
LINE
8
BLACK
6
CONTINUOUS
10
5.20478
20
-2.97135
11
5.20461
21
-2.97133
0
LINE
8
BLACK
6
CONTINUOUS
10
5.20461
20
-2.97133
11
5.20086
21
-2.96946
0
LINE
8
BLACK
6
CONTINUOUS
10
5.20086
20
-2.96946
11
5.20003
21
-2.96885
0
LINE
8
BLACK
6
CONTINUOUS
10
5.20003
20
-2.96885
11
5.19986
21
-2.96844
0
LINE
8
BLACK
6
CONTINUOUS
10
5.19986
20
-2.96844
11
5.19954
21
-2.96814
0
LINE
8
BLACK
6
CONTINUOUS
10
5.19954
20
-2.96814
11
5.19766
21
-2.96439
0
LINE
8
BLACK
6
CONTINUOUS
10
5.19766
20
-2.96439
11
5.19737
21
-2.9634
0
LINE
8
BLACK
6
CONTINUOUS
10
5.19737
20
-2.9634
11
5.19741
21
-2.96323
0
LINE
8
BLACK
6
CONTINUOUS
10
5.19741
20
-2.96323
11
5.19735
21
-2.96307
0
LINE
8
BLACK
6
CONTINUOUS
10
5.19735
20
-2.96307
11
5.19735
21
-2.95557
0
LINE
8
BLACK
6
CONTINUOUS
10
5.19735
20
-2.95557
11
5.19753
21
-2.95456
0
LINE
8
BLACK
6
CONTINUOUS
10
5.19753
20
-2.95456
11
5.19764
21
-2.95442
0
LINE
8
BLACK
6
CONTINUOUS
10
5.19764
20
-2.95442
11
5.19766
21
-2.95425
0
LINE
8
BLACK
6
CONTINUOUS
10
5.19766
20
-2.95425
11
5.19954
21
-2.9505
0
LINE
8
BLACK
6
CONTINUOUS
10
5.19954
20
-2.9505
11
5.20015
21
-2.94967
0
LINE
8
BLACK
6
CONTINUOUS
10
5.20015
20
-2.94967
11
5.20055
21
-2.9495
0
LINE
8
BLACK
6
CONTINUOUS
10
5.20055
20
-2.9495
11
5.20086
21
-2.94918
0
LINE
8
BLACK
6
CONTINUOUS
10
5.20086
20
-2.94918
11
5.20461
21
-2.9473
0
LINE
8
BLACK
6
CONTINUOUS
10
5.20461
20
-2.9473
11
5.20559
21
-2.94701
0
LINE
8
BLACK
6
CONTINUOUS
10
5.20559
20
-2.94701
11
5.20576
21
-2.94705
0
LINE
8
BLACK
6
CONTINUOUS
10
5.20576
20
-2.94705
11
5.20593
21
-2.94699
0
LINE
8
BLACK
6
CONTINUOUS
10
5.20593
20
-2.94699
11
5.20968
21
-2.94699
0
LINE
8
BLACK
6
CONTINUOUS
10
5.20968
20
-2.94699
11
5.21069
21
-2.94717
0
LINE
8
BLACK
6
CONTINUOUS
10
5.20663
20
-2.9529
11
5.20438
21
-2.95402
0
LINE
8
BLACK
6
CONTINUOUS
10
5.20438
20
-2.95402
11
5.20326
21
-2.95627
0
LINE
8
BLACK
6
CONTINUOUS
10
5.20326
20
-2.95627
11
5.20326
21
-2.96237
0
LINE
8
BLACK
6
CONTINUOUS
10
5.20326
20
-2.96237
11
5.20438
21
-2.96462
0
LINE
8
BLACK
6
CONTINUOUS
10
5.20438
20
-2.96462
11
5.20663
21
-2.96574
0
LINE
8
BLACK
6
CONTINUOUS
10
5.20663
20
-2.96574
11
5.20983
21
-2.96574
0
LINE
8
BLACK
6
CONTINUOUS
10
5.20983
20
-2.96574
11
5.20726
21
-2.9529
0
LINE
8
BLACK
6
CONTINUOUS
10
5.20726
20
-2.9529
11
5.20663
21
-2.9529
0
LINE
8
BLACK
6
CONTINUOUS
10
5.20257
20
-2.91992
11
5.20326
21
-2.92182
0
LINE
8
BLACK
6
CONTINUOUS
10
5.20326
20
-2.92182
11
5.20326
21
-2.92487
0
LINE
8
BLACK
6
CONTINUOUS
10
5.20326
20
-2.92487
11
5.20461
21
-2.92757
0
LINE
8
BLACK
6
CONTINUOUS
10
5.20461
20
-2.92757
11
5.2058
21
-2.92877
0
LINE
8
BLACK
6
CONTINUOUS
10
5.2058
20
-2.92877
11
5.2085
21
-2.93012
0
LINE
8
BLACK
6
CONTINUOUS
10
5.2085
20
-2.93012
11
5.22655
21
-2.93012
0
LINE
8
BLACK
6
CONTINUOUS
10
5.22655
20
-2.93012
11
5.22756
21
-2.9303
0
LINE
8
BLACK
6
CONTINUOUS
10
5.22756
20
-2.9303
11
5.22911
21
-2.93159
0
LINE
8
BLACK
6
CONTINUOUS
10
5.22911
20
-2.93159
11
5.22946
21
-2.93358
0
LINE
8
BLACK
6
CONTINUOUS
10
5.22946
20
-2.93358
11
5.22845
21
-2.93533
0
LINE
8
BLACK
6
CONTINUOUS
10
5.22845
20
-2.93533
11
5.22655
21
-2.93602
0
LINE
8
BLACK
6
CONTINUOUS
10
5.22655
20
-2.93602
11
5.2003
21
-2.93602
0
LINE
8
BLACK
6
CONTINUOUS
10
5.2003
20
-2.93602
11
5.19929
21
-2.93585
0
LINE
8
BLACK
6
CONTINUOUS
10
5.19929
20
-2.93585
11
5.19775
21
-2.93455
0
LINE
8
BLACK
6
CONTINUOUS
10
5.19775
20
-2.93455
11
5.1974
21
-2.93256
0
LINE
8
BLACK
6
CONTINUOUS
10
5.1974
20
-2.93256
11
5.19841
21
-2.93081
0
LINE
8
BLACK
6
CONTINUOUS
10
5.19841
20
-2.93081
11
5.19943
21
-2.93043
0
LINE
8
BLACK
6
CONTINUOUS
10
5.19943
20
-2.93043
11
5.19766
21
-2.92689
0
LINE
8
BLACK
6
CONTINUOUS
10
5.19766
20
-2.92689
11
5.19737
21
-2.92591
0
LINE
8
BLACK
6
CONTINUOUS
10
5.19737
20
-2.92591
11
5.19741
21
-2.92574
0
LINE
8
BLACK
6
CONTINUOUS
10
5.19741
20
-2.92574
11
5.19735
21
-2.92557
0
LINE
8
BLACK
6
CONTINUOUS
10
5.19735
20
-2.92557
11
5.19735
21
-2.92182
0
LINE
8
BLACK
6
CONTINUOUS
10
5.19735
20
-2.92182
11
5.19753
21
-2.92081
0
LINE
8
BLACK
6
CONTINUOUS
10
5.19753
20
-2.92081
11
5.19883
21
-2.91927
0
LINE
8
BLACK
6
CONTINUOUS
10
5.19883
20
-2.91927
11
5.20082
21
-2.91891
0
LINE
8
BLACK
6
CONTINUOUS
10
5.20082
20
-2.91891
11
5.20257
21
-2.91992
0
LINE
8
BLACK
6
CONTINUOUS
10
5.22881
20
-2.89743
11
5.2295
21
-2.89933
0
LINE
8
BLACK
6
CONTINUOUS
10
5.2295
20
-2.89933
11
5.2295
21
-2.90307
0
LINE
8
BLACK
6
CONTINUOUS
10
5.2295
20
-2.90307
11
5.22933
21
-2.90408
0
LINE
8
BLACK
6
CONTINUOUS
10
5.22933
20
-2.90408
11
5.22921
21
-2.90422
0
LINE
8
BLACK
6
CONTINUOUS
10
5.22921
20
-2.90422
11
5.22919
21
-2.9044
0
LINE
8
BLACK
6
CONTINUOUS
10
5.22919
20
-2.9044
11
5.22732
21
-2.90814
0
LINE
8
BLACK
6
CONTINUOUS
10
5.22732
20
-2.90814
11
5.22671
21
-2.90897
0
LINE
8
BLACK
6
CONTINUOUS
10
5.22671
20
-2.90897
11
5.2263
21
-2.90914
0
LINE
8
BLACK
6
CONTINUOUS
10
5.2263
20
-2.90914
11
5.226
21
-2.90947
0
LINE
8
BLACK
6
CONTINUOUS
10
5.226
20
-2.90947
11
5.22225
21
-2.91134
0
LINE
8
BLACK
6
CONTINUOUS
10
5.22225
20
-2.91134
11
5.22126
21
-2.91163
0
LINE
8
BLACK
6
CONTINUOUS
10
5.22126
20
-2.91163
11
5.22109
21
-2.91159
0
LINE
8
BLACK
6
CONTINUOUS
10
5.22109
20
-2.91159
11
5.22093
21
-2.91165
0
LINE
8
BLACK
6
CONTINUOUS
10
5.22093
20
-2.91165
11
5.20326
21
-2.91165
0
LINE
8
BLACK
6
CONTINUOUS
10
5.20326
20
-2.91165
11
5.20326
21
-2.91432
0
LINE
8
BLACK
6
CONTINUOUS
10
5.20326
20
-2.91432
11
5.20308
21
-2.91533
0
LINE
8
BLACK
6
CONTINUOUS
10
5.20308
20
-2.91533
11
5.20178
21
-2.91688
0
LINE
8
BLACK
6
CONTINUOUS
10
5.20178
20
-2.91688
11
5.19979
21
-2.91723
0
LINE
8
BLACK
6
CONTINUOUS
10
5.19979
20
-2.91723
11
5.19804
21
-2.91622
0
LINE
8
BLACK
6
CONTINUOUS
10
5.19804
20
-2.91622
11
5.19735
21
-2.91432
0
LINE
8
BLACK
6
CONTINUOUS
10
5.19735
20
-2.91432
11
5.19735
21
-2.91165
0
LINE
8
BLACK
6
CONTINUOUS
10
5.19735
20
-2.91165
11
5.18718
21
-2.91165
0
LINE
8
BLACK
6
CONTINUOUS
10
5.18718
20
-2.91165
11
5.18617
21
-2.91147
0
LINE
8
BLACK
6
CONTINUOUS
10
5.18617
20
-2.91147
11
5.18462
21
-2.91018
0
LINE
8
BLACK
6
CONTINUOUS
10
5.18462
20
-2.91018
11
5.18427
21
-2.90819
0
LINE
8
BLACK
6
CONTINUOUS
10
5.18427
20
-2.90819
11
5.18528
21
-2.90644
0
LINE
8
BLACK
6
CONTINUOUS
10
5.18528
20
-2.90644
11
5.18718
21
-2.90575
0
LINE
8
BLACK
6
CONTINUOUS
10
5.18718
20
-2.90575
11
5.19735
21
-2.90575
0
LINE
8
BLACK
6
CONTINUOUS
10
5.19735
20
-2.90575
11
5.19735
21
-2.89933
0
LINE
8
BLACK
6
CONTINUOUS
10
5.19735
20
-2.89933
11
5.19753
21
-2.89832
0
LINE
8
BLACK
6
CONTINUOUS
10
5.19753
20
-2.89832
11
5.19883
21
-2.89677
0
LINE
8
BLACK
6
CONTINUOUS
10
5.19883
20
-2.89677
11
5.20082
21
-2.89642
0
LINE
8
BLACK
6
CONTINUOUS
10
5.20082
20
-2.89642
11
5.20257
21
-2.89743
0
LINE
8
BLACK
6
CONTINUOUS
10
5.20257
20
-2.89743
11
5.20326
21
-2.89933
0
LINE
8
BLACK
6
CONTINUOUS
10
5.20326
20
-2.89933
11
5.20326
21
-2.90575
0
LINE
8
BLACK
6
CONTINUOUS
10
5.20326
20
-2.90575
11
5.22023
21
-2.90575
0
LINE
8
BLACK
6
CONTINUOUS
10
5.22023
20
-2.90575
11
5.22247
21
-2.90462
0
LINE
8
BLACK
6
CONTINUOUS
10
5.22247
20
-2.90462
11
5.2236
21
-2.90238
0
LINE
8
BLACK
6
CONTINUOUS
10
5.2236
20
-2.90238
11
5.2236
21
-2.89933
0
LINE
8
BLACK
6
CONTINUOUS
10
5.2236
20
-2.89933
11
5.22378
21
-2.89832
0
LINE
8
BLACK
6
CONTINUOUS
10
5.22378
20
-2.89832
11
5.22507
21
-2.89677
0
LINE
8
BLACK
6
CONTINUOUS
10
5.22507
20
-2.89677
11
5.22706
21
-2.89642
0
LINE
8
BLACK
6
CONTINUOUS
10
5.22706
20
-2.89642
11
5.22881
21
-2.89743
0
LINE
8
BLACK
6
CONTINUOUS
10
5.41565
20
-1.46464
11
5.41634
21
-1.46654
0
LINE
8
BLACK
6
CONTINUOUS
10
5.41634
20
-1.46654
11
5.41634
21
-1.87992
0
LINE
8
BLACK
6
CONTINUOUS
10
5.41634
20
-1.87992
11
5.41616
21
-1.88093
0
LINE
8
BLACK
6
CONTINUOUS
10
5.41616
20
-1.88093
11
5.41486
21
-1.88248
0
LINE
8
BLACK
6
CONTINUOUS
10
5.41486
20
-1.88248
11
5.41287
21
-1.88283
0
LINE
8
BLACK
6
CONTINUOUS
10
5.41287
20
-1.88283
11
5.41112
21
-1.88182
0
LINE
8
BLACK
6
CONTINUOUS
10
5.41112
20
-1.88182
11
5.41043
21
-1.87992
0
LINE
8
BLACK
6
CONTINUOUS
10
5.41043
20
-1.87992
11
5.41043
21
-1.46654
0
LINE
8
BLACK
6
CONTINUOUS
10
5.41043
20
-1.46654
11
5.41061
21
-1.46553
0
LINE
8
BLACK
6
CONTINUOUS
10
5.41061
20
-1.46553
11
5.41191
21
-1.46398
0
LINE
8
BLACK
6
CONTINUOUS
10
5.41191
20
-1.46398
11
5.4139
21
-1.46363
0
LINE
8
BLACK
6
CONTINUOUS
10
5.4139
20
-1.46363
11
5.41565
21
-1.46464
  0
ENDSEC
  0
EOF
