<?xml version="1.0" standalone="no"?>
 <!DOCTYPE svg PUBLIC "-//W3C//DTD SVG 1.1//EN" 
 "http://www.w3.org/Graphics/SVG/1.1/DTD/svg11.dtd"> 
<svg
  xmlns:svg="http://www.w3.org/2000/svg"
  xmlns="http://www.w3.org/2000/svg"
  xmlns:xlink="http://www.w3.org/1999/xlink"
  version="1.1"
  width="29.700220cm" height="21.000720cm" viewBox="0 0 297002200 210007200">
<title>SVG Picture created as redshift-B_Fab.svg date 2022/10/07 12:26:32 </title>
  <desc>Picture generated by PCBNEW </desc>
<g style="fill:#000000; fill-opacity:1.000000;stroke:#000000; stroke-opacity:1.000000;
stroke-linecap:round; stroke-linejoin:round;"
 transform="translate(0 0) scale(1 1)">
</g>
<g style="fill:#000000; fill-opacity:0.0; 
stroke:#000000; stroke-width:0.000000; stroke-opacity:1; 
stroke-linecap:round; stroke-linejoin:round;">
</g>
<g style="fill:#000000; fill-opacity:0.0; 
stroke:#000000; stroke-width:150000.000000; stroke-opacity:1; 
stroke-linecap:round; stroke-linejoin:round;">
<g transform="rotate(-90.000000 125250000.000000 106000000.000000)">
<text x="125250000.000000" y="106500000.000000"
transform="scale(-1 1) translate(-250500000.000000 0)"
textLength="6662143.000000" font-size="1333333.000000" lengthAdjust="spacingAndGlyphs"
text-anchor="middle" opacity="0">TestPoint</text>
</g>
<g class="stroked-text"><desc>TestPoint</desc>
<path d="M124702380 102666666
L124702380 103238095
" />
<path d="M125702380 102952380
L124702380 102952380
" />
<path d="M125654761 103952380
L125702380 103857142
L125702380 103666666
L125654761 103571428
L125559523 103523809
L125178571 103523809
L125083333 103571428
L125035714 103666666
L125035714 103857142
L125083333 103952380
L125178571 104000000
L125273809 104000000
L125369047 103523809
" />
<path d="M125654761 104380952
L125702380 104476190
L125702380 104666666
L125654761 104761904
L125559523 104809523
L125511904 104809523
L125416666 104761904
L125369047 104666666
L125369047 104523809
L125321428 104428571
L125226190 104380952
L125178571 104380952
L125083333 104428571
L125035714 104523809
L125035714 104666666
L125083333 104761904
" />
<path d="M125035714 105095238
L125035714 105476190
" />
<path d="M124702380 105238095
L125559523 105238095
L125654761 105285714
L125702380 105380952
L125702380 105476190
" />
<path d="M125702380 105809523
L124702380 105809523
L124702380 106190476
L124750000 106285714
L124797619 106333333
L124892857 106380952
L125035714 106380952
L125130952 106333333
L125178571 106285714
L125226190 106190476
L125226190 105809523
" />
<path d="M125702380 106952380
L125654761 106857142
L125607142 106809523
L125511904 106761904
L125226190 106761904
L125130952 106809523
L125083333 106857142
L125035714 106952380
L125035714 107095238
L125083333 107190476
L125130952 107238095
L125226190 107285714
L125511904 107285714
L125607142 107238095
L125654761 107190476
L125702380 107095238
L125702380 106952380
" />
<path d="M125702380 107714285
L125035714 107714285
" />
<path d="M124702380 107714285
L124750000 107666666
L124797619 107714285
L124750000 107761904
L124702380 107714285
L124797619 107714285
" />
<path d="M125035714 108190476
L125702380 108190476
" />
<path d="M125130952 108190476
L125083333 108238095
L125035714 108333333
L125035714 108476190
L125083333 108571428
L125178571 108619047
L125702380 108619047
" />
<path d="M125035714 108952380
L125035714 109333333
" />
<path d="M124702380 109095238
L125559523 109095238
L125654761 109142857
L125702380 109238095
L125702380 109333333
" />
</g><g transform="rotate(-90.000000 128650000.000000 106000000.000000)">
<text x="128650000.000000" y="106500000.000000"
transform="scale(-1 1) translate(-257300000.000000 0)"
textLength="2519286.000000" font-size="1333333.000000" lengthAdjust="spacingAndGlyphs"
text-anchor="middle" opacity="0">TP5</text>
</g>
<g class="stroked-text"><desc>TP5</desc>
<path d="M128102380 104738095
L128102380 105309523
" />
<path d="M129102380 105023809
L128102380 105023809
" />
<path d="M129102380 105642857
L128102380 105642857
L128102380 106023809
L128150000 106119047
L128197619 106166666
L128292857 106214285
L128435714 106214285
L128530952 106166666
L128578571 106119047
L128626190 106023809
L128626190 105642857
" />
<path d="M128102380 107119047
L128102380 106642857
L128578571 106595238
L128530952 106642857
L128483333 106738095
L128483333 106976190
L128530952 107071428
L128578571 107119047
L128673809 107166666
L128911904 107166666
L129007142 107119047
L129054761 107071428
L129102380 106976190
L129102380 106738095
L129054761 106642857
L129007142 106595238
" />
</g><g transform="rotate(-90.000000 154750000.000000 80500000.000000)">
<text x="154750000.000000" y="81000000.000000"
transform="scale(-1 1) translate(-309500000.000000 0)"
textLength="6662143.000000" font-size="1333333.000000" lengthAdjust="spacingAndGlyphs"
text-anchor="middle" opacity="0">TestPoint</text>
</g>
<g class="stroked-text"><desc>TestPoint</desc>
<path d="M154202380 77166666
L154202380 77738095
" />
<path d="M155202380 77452380
L154202380 77452380
" />
<path d="M155154761 78452380
L155202380 78357142
L155202380 78166666
L155154761 78071428
L155059523 78023809
L154678571 78023809
L154583333 78071428
L154535714 78166666
L154535714 78357142
L154583333 78452380
L154678571 78500000
L154773809 78500000
L154869047 78023809
" />
<path d="M155154761 78880952
L155202380 78976190
L155202380 79166666
L155154761 79261904
L155059523 79309523
L155011904 79309523
L154916666 79261904
L154869047 79166666
L154869047 79023809
L154821428 78928571
L154726190 78880952
L154678571 78880952
L154583333 78928571
L154535714 79023809
L154535714 79166666
L154583333 79261904
" />
<path d="M154535714 79595238
L154535714 79976190
" />
<path d="M154202380 79738095
L155059523 79738095
L155154761 79785714
L155202380 79880952
L155202380 79976190
" />
<path d="M155202380 80309523
L154202380 80309523
L154202380 80690476
L154250000 80785714
L154297619 80833333
L154392857 80880952
L154535714 80880952
L154630952 80833333
L154678571 80785714
L154726190 80690476
L154726190 80309523
" />
<path d="M155202380 81452380
L155154761 81357142
L155107142 81309523
L155011904 81261904
L154726190 81261904
L154630952 81309523
L154583333 81357142
L154535714 81452380
L154535714 81595238
L154583333 81690476
L154630952 81738095
L154726190 81785714
L155011904 81785714
L155107142 81738095
L155154761 81690476
L155202380 81595238
L155202380 81452380
" />
<path d="M155202380 82214285
L154535714 82214285
" />
<path d="M154202380 82214285
L154250000 82166666
L154297619 82214285
L154250000 82261904
L154202380 82214285
L154297619 82214285
" />
<path d="M154535714 82690476
L155202380 82690476
" />
<path d="M154630952 82690476
L154583333 82738095
L154535714 82833333
L154535714 82976190
L154583333 83071428
L154678571 83119047
L155202380 83119047
" />
<path d="M154535714 83452380
L154535714 83833333
" />
<path d="M154202380 83595238
L155059523 83595238
L155154761 83642857
L155202380 83738095
L155202380 83833333
" />
</g><g transform="rotate(-90.000000 158150000.000000 80500000.000000)">
<text x="158150000.000000" y="81000000.000000"
transform="scale(-1 1) translate(-316300000.000000 0)"
textLength="2519286.000000" font-size="1333333.000000" lengthAdjust="spacingAndGlyphs"
text-anchor="middle" opacity="0">TP6</text>
</g>
<g class="stroked-text"><desc>TP6</desc>
<path d="M157602380 79238095
L157602380 79809523
" />
<path d="M158602380 79523809
L157602380 79523809
" />
<path d="M158602380 80142857
L157602380 80142857
L157602380 80523809
L157650000 80619047
L157697619 80666666
L157792857 80714285
L157935714 80714285
L158030952 80666666
L158078571 80619047
L158126190 80523809
L158126190 80142857
" />
<path d="M157602380 81571428
L157602380 81380952
L157650000 81285714
L157697619 81238095
L157840476 81142857
L158030952 81095238
L158411904 81095238
L158507142 81142857
L158554761 81190476
L158602380 81285714
L158602380 81476190
L158554761 81571428
L158507142 81619047
L158411904 81666666
L158173809 81666666
L158078571 81619047
L158030952 81571428
L157983333 81476190
L157983333 81285714
L158030952 81190476
L158078571 81142857
L158173809 81095238
" />
</g><g transform="rotate(-90.000000 124250000.000000 75250000.000000)">
<text x="124250000.000000" y="75750000.000000"
transform="scale(-1 1) translate(-248500000.000000 0)"
textLength="6662143.000000" font-size="1333333.000000" lengthAdjust="spacingAndGlyphs"
text-anchor="middle" opacity="0">TestPoint</text>
</g>
<g class="stroked-text"><desc>TestPoint</desc>
<path d="M123702380 71916666
L123702380 72488095
" />
<path d="M124702380 72202380
L123702380 72202380
" />
<path d="M124654761 73202380
L124702380 73107142
L124702380 72916666
L124654761 72821428
L124559523 72773809
L124178571 72773809
L124083333 72821428
L124035714 72916666
L124035714 73107142
L124083333 73202380
L124178571 73250000
L124273809 73250000
L124369047 72773809
" />
<path d="M124654761 73630952
L124702380 73726190
L124702380 73916666
L124654761 74011904
L124559523 74059523
L124511904 74059523
L124416666 74011904
L124369047 73916666
L124369047 73773809
L124321428 73678571
L124226190 73630952
L124178571 73630952
L124083333 73678571
L124035714 73773809
L124035714 73916666
L124083333 74011904
" />
<path d="M124035714 74345238
L124035714 74726190
" />
<path d="M123702380 74488095
L124559523 74488095
L124654761 74535714
L124702380 74630952
L124702380 74726190
" />
<path d="M124702380 75059523
L123702380 75059523
L123702380 75440476
L123750000 75535714
L123797619 75583333
L123892857 75630952
L124035714 75630952
L124130952 75583333
L124178571 75535714
L124226190 75440476
L124226190 75059523
" />
<path d="M124702380 76202380
L124654761 76107142
L124607142 76059523
L124511904 76011904
L124226190 76011904
L124130952 76059523
L124083333 76107142
L124035714 76202380
L124035714 76345238
L124083333 76440476
L124130952 76488095
L124226190 76535714
L124511904 76535714
L124607142 76488095
L124654761 76440476
L124702380 76345238
L124702380 76202380
" />
<path d="M124702380 76964285
L124035714 76964285
" />
<path d="M123702380 76964285
L123750000 76916666
L123797619 76964285
L123750000 77011904
L123702380 76964285
L123797619 76964285
" />
<path d="M124035714 77440476
L124702380 77440476
" />
<path d="M124130952 77440476
L124083333 77488095
L124035714 77583333
L124035714 77726190
L124083333 77821428
L124178571 77869047
L124702380 77869047
" />
<path d="M124035714 78202380
L124035714 78583333
" />
<path d="M123702380 78345238
L124559523 78345238
L124654761 78392857
L124702380 78488095
L124702380 78583333
" />
</g><g transform="rotate(-90.000000 127650000.000000 75250000.000000)">
<text x="127650000.000000" y="75750000.000000"
transform="scale(-1 1) translate(-255300000.000000 0)"
textLength="2519286.000000" font-size="1333333.000000" lengthAdjust="spacingAndGlyphs"
text-anchor="middle" opacity="0">TP9</text>
</g>
<g class="stroked-text"><desc>TP9</desc>
<path d="M127102380 73988095
L127102380 74559523
" />
<path d="M128102380 74273809
L127102380 74273809
" />
<path d="M128102380 74892857
L127102380 74892857
L127102380 75273809
L127150000 75369047
L127197619 75416666
L127292857 75464285
L127435714 75464285
L127530952 75416666
L127578571 75369047
L127626190 75273809
L127626190 74892857
" />
<path d="M128102380 75940476
L128102380 76130952
L128054761 76226190
L128007142 76273809
L127864285 76369047
L127673809 76416666
L127292857 76416666
L127197619 76369047
L127150000 76321428
L127102380 76226190
L127102380 76035714
L127150000 75940476
L127197619 75892857
L127292857 75845238
L127530952 75845238
L127626190 75892857
L127673809 75940476
L127721428 76035714
L127721428 76226190
L127673809 76321428
L127626190 76369047
L127530952 76416666
" />
</g><g transform="rotate(-90.000000 154750000.000000 85500000.000000)">
<text x="154750000.000000" y="86000000.000000"
transform="scale(-1 1) translate(-309500000.000000 0)"
textLength="6662143.000000" font-size="1333333.000000" lengthAdjust="spacingAndGlyphs"
text-anchor="middle" opacity="0">TestPoint</text>
</g>
<g class="stroked-text"><desc>TestPoint</desc>
<path d="M154202380 82166666
L154202380 82738095
" />
<path d="M155202380 82452380
L154202380 82452380
" />
<path d="M155154761 83452380
L155202380 83357142
L155202380 83166666
L155154761 83071428
L155059523 83023809
L154678571 83023809
L154583333 83071428
L154535714 83166666
L154535714 83357142
L154583333 83452380
L154678571 83500000
L154773809 83500000
L154869047 83023809
" />
<path d="M155154761 83880952
L155202380 83976190
L155202380 84166666
L155154761 84261904
L155059523 84309523
L155011904 84309523
L154916666 84261904
L154869047 84166666
L154869047 84023809
L154821428 83928571
L154726190 83880952
L154678571 83880952
L154583333 83928571
L154535714 84023809
L154535714 84166666
L154583333 84261904
" />
<path d="M154535714 84595238
L154535714 84976190
" />
<path d="M154202380 84738095
L155059523 84738095
L155154761 84785714
L155202380 84880952
L155202380 84976190
" />
<path d="M155202380 85309523
L154202380 85309523
L154202380 85690476
L154250000 85785714
L154297619 85833333
L154392857 85880952
L154535714 85880952
L154630952 85833333
L154678571 85785714
L154726190 85690476
L154726190 85309523
" />
<path d="M155202380 86452380
L155154761 86357142
L155107142 86309523
L155011904 86261904
L154726190 86261904
L154630952 86309523
L154583333 86357142
L154535714 86452380
L154535714 86595238
L154583333 86690476
L154630952 86738095
L154726190 86785714
L155011904 86785714
L155107142 86738095
L155154761 86690476
L155202380 86595238
L155202380 86452380
" />
<path d="M155202380 87214285
L154535714 87214285
" />
<path d="M154202380 87214285
L154250000 87166666
L154297619 87214285
L154250000 87261904
L154202380 87214285
L154297619 87214285
" />
<path d="M154535714 87690476
L155202380 87690476
" />
<path d="M154630952 87690476
L154583333 87738095
L154535714 87833333
L154535714 87976190
L154583333 88071428
L154678571 88119047
L155202380 88119047
" />
<path d="M154535714 88452380
L154535714 88833333
" />
<path d="M154202380 88595238
L155059523 88595238
L155154761 88642857
L155202380 88738095
L155202380 88833333
" />
</g><g transform="rotate(-90.000000 158150000.000000 85500000.000000)">
<text x="158150000.000000" y="86000000.000000"
transform="scale(-1 1) translate(-316300000.000000 0)"
textLength="2519286.000000" font-size="1333333.000000" lengthAdjust="spacingAndGlyphs"
text-anchor="middle" opacity="0">TP7</text>
</g>
<g class="stroked-text"><desc>TP7</desc>
<path d="M157602380 84238095
L157602380 84809523
" />
<path d="M158602380 84523809
L157602380 84523809
" />
<path d="M158602380 85142857
L157602380 85142857
L157602380 85523809
L157650000 85619047
L157697619 85666666
L157792857 85714285
L157935714 85714285
L158030952 85666666
L158078571 85619047
L158126190 85523809
L158126190 85142857
" />
<path d="M157602380 86047619
L157602380 86714285
L158602380 86285714
" />
</g><g transform="rotate(-90.000000 120750000.000000 81000000.000000)">
<text x="120750000.000000" y="81500000.000000"
transform="scale(-1 1) translate(-241500000.000000 0)"
textLength="6662143.000000" font-size="1333333.000000" lengthAdjust="spacingAndGlyphs"
text-anchor="middle" opacity="0">TestPoint</text>
</g>
<g class="stroked-text"><desc>TestPoint</desc>
<path d="M120202380 77666666
L120202380 78238095
" />
<path d="M121202380 77952380
L120202380 77952380
" />
<path d="M121154761 78952380
L121202380 78857142
L121202380 78666666
L121154761 78571428
L121059523 78523809
L120678571 78523809
L120583333 78571428
L120535714 78666666
L120535714 78857142
L120583333 78952380
L120678571 79000000
L120773809 79000000
L120869047 78523809
" />
<path d="M121154761 79380952
L121202380 79476190
L121202380 79666666
L121154761 79761904
L121059523 79809523
L121011904 79809523
L120916666 79761904
L120869047 79666666
L120869047 79523809
L120821428 79428571
L120726190 79380952
L120678571 79380952
L120583333 79428571
L120535714 79523809
L120535714 79666666
L120583333 79761904
" />
<path d="M120535714 80095238
L120535714 80476190
" />
<path d="M120202380 80238095
L121059523 80238095
L121154761 80285714
L121202380 80380952
L121202380 80476190
" />
<path d="M121202380 80809523
L120202380 80809523
L120202380 81190476
L120250000 81285714
L120297619 81333333
L120392857 81380952
L120535714 81380952
L120630952 81333333
L120678571 81285714
L120726190 81190476
L120726190 80809523
" />
<path d="M121202380 81952380
L121154761 81857142
L121107142 81809523
L121011904 81761904
L120726190 81761904
L120630952 81809523
L120583333 81857142
L120535714 81952380
L120535714 82095238
L120583333 82190476
L120630952 82238095
L120726190 82285714
L121011904 82285714
L121107142 82238095
L121154761 82190476
L121202380 82095238
L121202380 81952380
" />
<path d="M121202380 82714285
L120535714 82714285
" />
<path d="M120202380 82714285
L120250000 82666666
L120297619 82714285
L120250000 82761904
L120202380 82714285
L120297619 82714285
" />
<path d="M120535714 83190476
L121202380 83190476
" />
<path d="M120630952 83190476
L120583333 83238095
L120535714 83333333
L120535714 83476190
L120583333 83571428
L120678571 83619047
L121202380 83619047
" />
<path d="M120535714 83952380
L120535714 84333333
" />
<path d="M120202380 84095238
L121059523 84095238
L121154761 84142857
L121202380 84238095
L121202380 84333333
" />
</g><g transform="rotate(-90.000000 124150000.000000 81000000.000000)">
<text x="124150000.000000" y="81500000.000000"
transform="scale(-1 1) translate(-248300000.000000 0)"
textLength="3471667.000000" font-size="1333333.000000" lengthAdjust="spacingAndGlyphs"
text-anchor="middle" opacity="0">TP13</text>
</g>
<g class="stroked-text"><desc>TP13</desc>
<path d="M123602380 79261904
L123602380 79833333
" />
<path d="M124602380 79547619
L123602380 79547619
" />
<path d="M124602380 80166666
L123602380 80166666
L123602380 80547619
L123650000 80642857
L123697619 80690476
L123792857 80738095
L123935714 80738095
L124030952 80690476
L124078571 80642857
L124126190 80547619
L124126190 80166666
" />
<path d="M124602380 81690476
L124602380 81119047
" />
<path d="M124602380 81404761
L123602380 81404761
L123745238 81309523
L123840476 81214285
L123888095 81119047
" />
<path d="M123602380 82023809
L123602380 82642857
L123983333 82309523
L123983333 82452380
L124030952 82547619
L124078571 82595238
L124173809 82642857
L124411904 82642857
L124507142 82595238
L124554761 82547619
L124602380 82452380
L124602380 82166666
L124554761 82071428
L124507142 82023809
" />
</g><g transform="rotate(-90.000000 125250000.000000 100000000.000000)">
<text x="125250000.000000" y="100500000.000000"
transform="scale(-1 1) translate(-250500000.000000 0)"
textLength="6662143.000000" font-size="1333333.000000" lengthAdjust="spacingAndGlyphs"
text-anchor="middle" opacity="0">TestPoint</text>
</g>
<g class="stroked-text"><desc>TestPoint</desc>
<path d="M124702380 96666666
L124702380 97238095
" />
<path d="M125702380 96952380
L124702380 96952380
" />
<path d="M125654761 97952380
L125702380 97857142
L125702380 97666666
L125654761 97571428
L125559523 97523809
L125178571 97523809
L125083333 97571428
L125035714 97666666
L125035714 97857142
L125083333 97952380
L125178571 98000000
L125273809 98000000
L125369047 97523809
" />
<path d="M125654761 98380952
L125702380 98476190
L125702380 98666666
L125654761 98761904
L125559523 98809523
L125511904 98809523
L125416666 98761904
L125369047 98666666
L125369047 98523809
L125321428 98428571
L125226190 98380952
L125178571 98380952
L125083333 98428571
L125035714 98523809
L125035714 98666666
L125083333 98761904
" />
<path d="M125035714 99095238
L125035714 99476190
" />
<path d="M124702380 99238095
L125559523 99238095
L125654761 99285714
L125702380 99380952
L125702380 99476190
" />
<path d="M125702380 99809523
L124702380 99809523
L124702380 100190476
L124750000 100285714
L124797619 100333333
L124892857 100380952
L125035714 100380952
L125130952 100333333
L125178571 100285714
L125226190 100190476
L125226190 99809523
" />
<path d="M125702380 100952380
L125654761 100857142
L125607142 100809523
L125511904 100761904
L125226190 100761904
L125130952 100809523
L125083333 100857142
L125035714 100952380
L125035714 101095238
L125083333 101190476
L125130952 101238095
L125226190 101285714
L125511904 101285714
L125607142 101238095
L125654761 101190476
L125702380 101095238
L125702380 100952380
" />
<path d="M125702380 101714285
L125035714 101714285
" />
<path d="M124702380 101714285
L124750000 101666666
L124797619 101714285
L124750000 101761904
L124702380 101714285
L124797619 101714285
" />
<path d="M125035714 102190476
L125702380 102190476
" />
<path d="M125130952 102190476
L125083333 102238095
L125035714 102333333
L125035714 102476190
L125083333 102571428
L125178571 102619047
L125702380 102619047
" />
<path d="M125035714 102952380
L125035714 103333333
" />
<path d="M124702380 103095238
L125559523 103095238
L125654761 103142857
L125702380 103238095
L125702380 103333333
" />
</g><g transform="rotate(-90.000000 128650000.000000 100000000.000000)">
<text x="128650000.000000" y="100500000.000000"
transform="scale(-1 1) translate(-257300000.000000 0)"
textLength="2519286.000000" font-size="1333333.000000" lengthAdjust="spacingAndGlyphs"
text-anchor="middle" opacity="0">TP3</text>
</g>
<g class="stroked-text"><desc>TP3</desc>
<path d="M128102380 98738095
L128102380 99309523
" />
<path d="M129102380 99023809
L128102380 99023809
" />
<path d="M129102380 99642857
L128102380 99642857
L128102380 100023809
L128150000 100119047
L128197619 100166666
L128292857 100214285
L128435714 100214285
L128530952 100166666
L128578571 100119047
L128626190 100023809
L128626190 99642857
" />
<path d="M128102380 100547619
L128102380 101166666
L128483333 100833333
L128483333 100976190
L128530952 101071428
L128578571 101119047
L128673809 101166666
L128911904 101166666
L129007142 101119047
L129054761 101071428
L129102380 100976190
L129102380 100690476
L129054761 100595238
L129007142 100547619
" />
</g><g transform="rotate(-90.000000 147250000.000000 77500000.000000)">
<text x="147250000.000000" y="78000000.000000"
transform="scale(-1 1) translate(-294500000.000000 0)"
textLength="6662143.000000" font-size="1333333.000000" lengthAdjust="spacingAndGlyphs"
text-anchor="middle" opacity="0">TestPoint</text>
</g>
<g class="stroked-text"><desc>TestPoint</desc>
<path d="M146702380 74166666
L146702380 74738095
" />
<path d="M147702380 74452380
L146702380 74452380
" />
<path d="M147654761 75452380
L147702380 75357142
L147702380 75166666
L147654761 75071428
L147559523 75023809
L147178571 75023809
L147083333 75071428
L147035714 75166666
L147035714 75357142
L147083333 75452380
L147178571 75500000
L147273809 75500000
L147369047 75023809
" />
<path d="M147654761 75880952
L147702380 75976190
L147702380 76166666
L147654761 76261904
L147559523 76309523
L147511904 76309523
L147416666 76261904
L147369047 76166666
L147369047 76023809
L147321428 75928571
L147226190 75880952
L147178571 75880952
L147083333 75928571
L147035714 76023809
L147035714 76166666
L147083333 76261904
" />
<path d="M147035714 76595238
L147035714 76976190
" />
<path d="M146702380 76738095
L147559523 76738095
L147654761 76785714
L147702380 76880952
L147702380 76976190
" />
<path d="M147702380 77309523
L146702380 77309523
L146702380 77690476
L146750000 77785714
L146797619 77833333
L146892857 77880952
L147035714 77880952
L147130952 77833333
L147178571 77785714
L147226190 77690476
L147226190 77309523
" />
<path d="M147702380 78452380
L147654761 78357142
L147607142 78309523
L147511904 78261904
L147226190 78261904
L147130952 78309523
L147083333 78357142
L147035714 78452380
L147035714 78595238
L147083333 78690476
L147130952 78738095
L147226190 78785714
L147511904 78785714
L147607142 78738095
L147654761 78690476
L147702380 78595238
L147702380 78452380
" />
<path d="M147702380 79214285
L147035714 79214285
" />
<path d="M146702380 79214285
L146750000 79166666
L146797619 79214285
L146750000 79261904
L146702380 79214285
L146797619 79214285
" />
<path d="M147035714 79690476
L147702380 79690476
" />
<path d="M147130952 79690476
L147083333 79738095
L147035714 79833333
L147035714 79976190
L147083333 80071428
L147178571 80119047
L147702380 80119047
" />
<path d="M147035714 80452380
L147035714 80833333
" />
<path d="M146702380 80595238
L147559523 80595238
L147654761 80642857
L147702380 80738095
L147702380 80833333
" />
</g><g transform="rotate(-90.000000 150650000.000000 77500000.000000)">
<text x="150650000.000000" y="78000000.000000"
transform="scale(-1 1) translate(-301300000.000000 0)"
textLength="3471667.000000" font-size="1333333.000000" lengthAdjust="spacingAndGlyphs"
text-anchor="middle" opacity="0">TP10</text>
</g>
<g class="stroked-text"><desc>TP10</desc>
<path d="M150102380 75761904
L150102380 76333333
" />
<path d="M151102380 76047619
L150102380 76047619
" />
<path d="M151102380 76666666
L150102380 76666666
L150102380 77047619
L150150000 77142857
L150197619 77190476
L150292857 77238095
L150435714 77238095
L150530952 77190476
L150578571 77142857
L150626190 77047619
L150626190 76666666
" />
<path d="M151102380 78190476
L151102380 77619047
" />
<path d="M151102380 77904761
L150102380 77904761
L150245238 77809523
L150340476 77714285
L150388095 77619047
" />
<path d="M150102380 78809523
L150102380 78904761
L150150000 79000000
L150197619 79047619
L150292857 79095238
L150483333 79142857
L150721428 79142857
L150911904 79095238
L151007142 79047619
L151054761 79000000
L151102380 78904761
L151102380 78809523
L151054761 78714285
L151007142 78666666
L150911904 78619047
L150721428 78571428
L150483333 78571428
L150292857 78619047
L150197619 78666666
L150150000 78714285
L150102380 78809523
" />
</g><g transform="rotate(-90.000000 147250000.000000 82500000.000000)">
<text x="147250000.000000" y="83000000.000000"
transform="scale(-1 1) translate(-294500000.000000 0)"
textLength="6662143.000000" font-size="1333333.000000" lengthAdjust="spacingAndGlyphs"
text-anchor="middle" opacity="0">TestPoint</text>
</g>
<g class="stroked-text"><desc>TestPoint</desc>
<path d="M146702380 79166666
L146702380 79738095
" />
<path d="M147702380 79452380
L146702380 79452380
" />
<path d="M147654761 80452380
L147702380 80357142
L147702380 80166666
L147654761 80071428
L147559523 80023809
L147178571 80023809
L147083333 80071428
L147035714 80166666
L147035714 80357142
L147083333 80452380
L147178571 80500000
L147273809 80500000
L147369047 80023809
" />
<path d="M147654761 80880952
L147702380 80976190
L147702380 81166666
L147654761 81261904
L147559523 81309523
L147511904 81309523
L147416666 81261904
L147369047 81166666
L147369047 81023809
L147321428 80928571
L147226190 80880952
L147178571 80880952
L147083333 80928571
L147035714 81023809
L147035714 81166666
L147083333 81261904
" />
<path d="M147035714 81595238
L147035714 81976190
" />
<path d="M146702380 81738095
L147559523 81738095
L147654761 81785714
L147702380 81880952
L147702380 81976190
" />
<path d="M147702380 82309523
L146702380 82309523
L146702380 82690476
L146750000 82785714
L146797619 82833333
L146892857 82880952
L147035714 82880952
L147130952 82833333
L147178571 82785714
L147226190 82690476
L147226190 82309523
" />
<path d="M147702380 83452380
L147654761 83357142
L147607142 83309523
L147511904 83261904
L147226190 83261904
L147130952 83309523
L147083333 83357142
L147035714 83452380
L147035714 83595238
L147083333 83690476
L147130952 83738095
L147226190 83785714
L147511904 83785714
L147607142 83738095
L147654761 83690476
L147702380 83595238
L147702380 83452380
" />
<path d="M147702380 84214285
L147035714 84214285
" />
<path d="M146702380 84214285
L146750000 84166666
L146797619 84214285
L146750000 84261904
L146702380 84214285
L146797619 84214285
" />
<path d="M147035714 84690476
L147702380 84690476
" />
<path d="M147130952 84690476
L147083333 84738095
L147035714 84833333
L147035714 84976190
L147083333 85071428
L147178571 85119047
L147702380 85119047
" />
<path d="M147035714 85452380
L147035714 85833333
" />
<path d="M146702380 85595238
L147559523 85595238
L147654761 85642857
L147702380 85738095
L147702380 85833333
" />
</g><g transform="rotate(-90.000000 150650000.000000 82500000.000000)">
<text x="150650000.000000" y="83000000.000000"
transform="scale(-1 1) translate(-301300000.000000 0)"
textLength="3471667.000000" font-size="1333333.000000" lengthAdjust="spacingAndGlyphs"
text-anchor="middle" opacity="0">TP11</text>
</g>
<g class="stroked-text"><desc>TP11</desc>
<path d="M150102380 80761904
L150102380 81333333
" />
<path d="M151102380 81047619
L150102380 81047619
" />
<path d="M151102380 81666666
L150102380 81666666
L150102380 82047619
L150150000 82142857
L150197619 82190476
L150292857 82238095
L150435714 82238095
L150530952 82190476
L150578571 82142857
L150626190 82047619
L150626190 81666666
" />
<path d="M151102380 83190476
L151102380 82619047
" />
<path d="M151102380 82904761
L150102380 82904761
L150245238 82809523
L150340476 82714285
L150388095 82619047
" />
<path d="M151102380 84142857
L151102380 83571428
" />
<path d="M151102380 83857142
L150102380 83857142
L150245238 83761904
L150340476 83666666
L150388095 83571428
" />
</g><g transform="rotate(-90.000000 117250000.000000 75500000.000000)">
<text x="117250000.000000" y="76000000.000000"
transform="scale(-1 1) translate(-234500000.000000 0)"
textLength="6662143.000000" font-size="1333333.000000" lengthAdjust="spacingAndGlyphs"
text-anchor="middle" opacity="0">TestPoint</text>
</g>
<g class="stroked-text"><desc>TestPoint</desc>
<path d="M116702380 72166666
L116702380 72738095
" />
<path d="M117702380 72452380
L116702380 72452380
" />
<path d="M117654761 73452380
L117702380 73357142
L117702380 73166666
L117654761 73071428
L117559523 73023809
L117178571 73023809
L117083333 73071428
L117035714 73166666
L117035714 73357142
L117083333 73452380
L117178571 73500000
L117273809 73500000
L117369047 73023809
" />
<path d="M117654761 73880952
L117702380 73976190
L117702380 74166666
L117654761 74261904
L117559523 74309523
L117511904 74309523
L117416666 74261904
L117369047 74166666
L117369047 74023809
L117321428 73928571
L117226190 73880952
L117178571 73880952
L117083333 73928571
L117035714 74023809
L117035714 74166666
L117083333 74261904
" />
<path d="M117035714 74595238
L117035714 74976190
" />
<path d="M116702380 74738095
L117559523 74738095
L117654761 74785714
L117702380 74880952
L117702380 74976190
" />
<path d="M117702380 75309523
L116702380 75309523
L116702380 75690476
L116750000 75785714
L116797619 75833333
L116892857 75880952
L117035714 75880952
L117130952 75833333
L117178571 75785714
L117226190 75690476
L117226190 75309523
" />
<path d="M117702380 76452380
L117654761 76357142
L117607142 76309523
L117511904 76261904
L117226190 76261904
L117130952 76309523
L117083333 76357142
L117035714 76452380
L117035714 76595238
L117083333 76690476
L117130952 76738095
L117226190 76785714
L117511904 76785714
L117607142 76738095
L117654761 76690476
L117702380 76595238
L117702380 76452380
" />
<path d="M117702380 77214285
L117035714 77214285
" />
<path d="M116702380 77214285
L116750000 77166666
L116797619 77214285
L116750000 77261904
L116702380 77214285
L116797619 77214285
" />
<path d="M117035714 77690476
L117702380 77690476
" />
<path d="M117130952 77690476
L117083333 77738095
L117035714 77833333
L117035714 77976190
L117083333 78071428
L117178571 78119047
L117702380 78119047
" />
<path d="M117035714 78452380
L117035714 78833333
" />
<path d="M116702380 78595238
L117559523 78595238
L117654761 78642857
L117702380 78738095
L117702380 78833333
" />
</g><g transform="rotate(-90.000000 120650000.000000 75500000.000000)">
<text x="120650000.000000" y="76000000.000000"
transform="scale(-1 1) translate(-241300000.000000 0)"
textLength="2519286.000000" font-size="1333333.000000" lengthAdjust="spacingAndGlyphs"
text-anchor="middle" opacity="0">TP2</text>
</g>
<g class="stroked-text"><desc>TP2</desc>
<path d="M120102380 74238095
L120102380 74809523
" />
<path d="M121102380 74523809
L120102380 74523809
" />
<path d="M121102380 75142857
L120102380 75142857
L120102380 75523809
L120150000 75619047
L120197619 75666666
L120292857 75714285
L120435714 75714285
L120530952 75666666
L120578571 75619047
L120626190 75523809
L120626190 75142857
" />
<path d="M120197619 76095238
L120150000 76142857
L120102380 76238095
L120102380 76476190
L120150000 76571428
L120197619 76619047
L120292857 76666666
L120388095 76666666
L120530952 76619047
L121102380 76047619
L121102380 76666666
" />
</g><g transform="rotate(-90.000000 120750000.000000 75250000.000000)">
<text x="120750000.000000" y="75750000.000000"
transform="scale(-1 1) translate(-241500000.000000 0)"
textLength="6662143.000000" font-size="1333333.000000" lengthAdjust="spacingAndGlyphs"
text-anchor="middle" opacity="0">TestPoint</text>
</g>
<g class="stroked-text"><desc>TestPoint</desc>
<path d="M120202380 71916666
L120202380 72488095
" />
<path d="M121202380 72202380
L120202380 72202380
" />
<path d="M121154761 73202380
L121202380 73107142
L121202380 72916666
L121154761 72821428
L121059523 72773809
L120678571 72773809
L120583333 72821428
L120535714 72916666
L120535714 73107142
L120583333 73202380
L120678571 73250000
L120773809 73250000
L120869047 72773809
" />
<path d="M121154761 73630952
L121202380 73726190
L121202380 73916666
L121154761 74011904
L121059523 74059523
L121011904 74059523
L120916666 74011904
L120869047 73916666
L120869047 73773809
L120821428 73678571
L120726190 73630952
L120678571 73630952
L120583333 73678571
L120535714 73773809
L120535714 73916666
L120583333 74011904
" />
<path d="M120535714 74345238
L120535714 74726190
" />
<path d="M120202380 74488095
L121059523 74488095
L121154761 74535714
L121202380 74630952
L121202380 74726190
" />
<path d="M121202380 75059523
L120202380 75059523
L120202380 75440476
L120250000 75535714
L120297619 75583333
L120392857 75630952
L120535714 75630952
L120630952 75583333
L120678571 75535714
L120726190 75440476
L120726190 75059523
" />
<path d="M121202380 76202380
L121154761 76107142
L121107142 76059523
L121011904 76011904
L120726190 76011904
L120630952 76059523
L120583333 76107142
L120535714 76202380
L120535714 76345238
L120583333 76440476
L120630952 76488095
L120726190 76535714
L121011904 76535714
L121107142 76488095
L121154761 76440476
L121202380 76345238
L121202380 76202380
" />
<path d="M121202380 76964285
L120535714 76964285
" />
<path d="M120202380 76964285
L120250000 76916666
L120297619 76964285
L120250000 77011904
L120202380 76964285
L120297619 76964285
" />
<path d="M120535714 77440476
L121202380 77440476
" />
<path d="M120630952 77440476
L120583333 77488095
L120535714 77583333
L120535714 77726190
L120583333 77821428
L120678571 77869047
L121202380 77869047
" />
<path d="M120535714 78202380
L120535714 78583333
" />
<path d="M120202380 78345238
L121059523 78345238
L121154761 78392857
L121202380 78488095
L121202380 78583333
" />
</g><g transform="rotate(-90.000000 124150000.000000 75250000.000000)">
<text x="124150000.000000" y="75750000.000000"
transform="scale(-1 1) translate(-248300000.000000 0)"
textLength="2519286.000000" font-size="1333333.000000" lengthAdjust="spacingAndGlyphs"
text-anchor="middle" opacity="0">TP8</text>
</g>
<g class="stroked-text"><desc>TP8</desc>
<path d="M123602380 73988095
L123602380 74559523
" />
<path d="M124602380 74273809
L123602380 74273809
" />
<path d="M124602380 74892857
L123602380 74892857
L123602380 75273809
L123650000 75369047
L123697619 75416666
L123792857 75464285
L123935714 75464285
L124030952 75416666
L124078571 75369047
L124126190 75273809
L124126190 74892857
" />
<path d="M124030952 76035714
L123983333 75940476
L123935714 75892857
L123840476 75845238
L123792857 75845238
L123697619 75892857
L123650000 75940476
L123602380 76035714
L123602380 76226190
L123650000 76321428
L123697619 76369047
L123792857 76416666
L123840476 76416666
L123935714 76369047
L123983333 76321428
L124030952 76226190
L124030952 76035714
L124078571 75940476
L124126190 75892857
L124221428 75845238
L124411904 75845238
L124507142 75892857
L124554761 75940476
L124602380 76035714
L124602380 76226190
L124554761 76321428
L124507142 76369047
L124411904 76416666
L124221428 76416666
L124126190 76369047
L124078571 76321428
L124030952 76226190
" />
</g><g transform="rotate(-90.000000 151250000.000000 117250000.000000)">
<text x="151250000.000000" y="117750000.000000"
transform="scale(-1 1) translate(-302500000.000000 0)"
textLength="6662143.000000" font-size="1333333.000000" lengthAdjust="spacingAndGlyphs"
text-anchor="middle" opacity="0">TestPoint</text>
</g>
<g class="stroked-text"><desc>TestPoint</desc>
<path d="M150702380 113916666
L150702380 114488095
" />
<path d="M151702380 114202380
L150702380 114202380
" />
<path d="M151654761 115202380
L151702380 115107142
L151702380 114916666
L151654761 114821428
L151559523 114773809
L151178571 114773809
L151083333 114821428
L151035714 114916666
L151035714 115107142
L151083333 115202380
L151178571 115250000
L151273809 115250000
L151369047 114773809
" />
<path d="M151654761 115630952
L151702380 115726190
L151702380 115916666
L151654761 116011904
L151559523 116059523
L151511904 116059523
L151416666 116011904
L151369047 115916666
L151369047 115773809
L151321428 115678571
L151226190 115630952
L151178571 115630952
L151083333 115678571
L151035714 115773809
L151035714 115916666
L151083333 116011904
" />
<path d="M151035714 116345238
L151035714 116726190
" />
<path d="M150702380 116488095
L151559523 116488095
L151654761 116535714
L151702380 116630952
L151702380 116726190
" />
<path d="M151702380 117059523
L150702380 117059523
L150702380 117440476
L150750000 117535714
L150797619 117583333
L150892857 117630952
L151035714 117630952
L151130952 117583333
L151178571 117535714
L151226190 117440476
L151226190 117059523
" />
<path d="M151702380 118202380
L151654761 118107142
L151607142 118059523
L151511904 118011904
L151226190 118011904
L151130952 118059523
L151083333 118107142
L151035714 118202380
L151035714 118345238
L151083333 118440476
L151130952 118488095
L151226190 118535714
L151511904 118535714
L151607142 118488095
L151654761 118440476
L151702380 118345238
L151702380 118202380
" />
<path d="M151702380 118964285
L151035714 118964285
" />
<path d="M150702380 118964285
L150750000 118916666
L150797619 118964285
L150750000 119011904
L150702380 118964285
L150797619 118964285
" />
<path d="M151035714 119440476
L151702380 119440476
" />
<path d="M151130952 119440476
L151083333 119488095
L151035714 119583333
L151035714 119726190
L151083333 119821428
L151178571 119869047
L151702380 119869047
" />
<path d="M151035714 120202380
L151035714 120583333
" />
<path d="M150702380 120345238
L151559523 120345238
L151654761 120392857
L151702380 120488095
L151702380 120583333
" />
</g><g transform="rotate(-90.000000 154650000.000000 117250000.000000)">
<text x="154650000.000000" y="117750000.000000"
transform="scale(-1 1) translate(-309300000.000000 0)"
textLength="3471667.000000" font-size="1333333.000000" lengthAdjust="spacingAndGlyphs"
text-anchor="middle" opacity="0">TP12</text>
</g>
<g class="stroked-text"><desc>TP12</desc>
<path d="M154102380 115511904
L154102380 116083333
" />
<path d="M155102380 115797619
L154102380 115797619
" />
<path d="M155102380 116416666
L154102380 116416666
L154102380 116797619
L154150000 116892857
L154197619 116940476
L154292857 116988095
L154435714 116988095
L154530952 116940476
L154578571 116892857
L154626190 116797619
L154626190 116416666
" />
<path d="M155102380 117940476
L155102380 117369047
" />
<path d="M155102380 117654761
L154102380 117654761
L154245238 117559523
L154340476 117464285
L154388095 117369047
" />
<path d="M154197619 118321428
L154150000 118369047
L154102380 118464285
L154102380 118702380
L154150000 118797619
L154197619 118845238
L154292857 118892857
L154388095 118892857
L154530952 118845238
L155102380 118273809
L155102380 118892857
" />
</g><text x="152000000.000000" y="113250000.000000"
transform="scale(-1 1) translate(-304000000.000000 0)"
textLength="6662143.000000" font-size="1333333.000000" lengthAdjust="spacingAndGlyphs"
text-anchor="middle" opacity="0">TestPoint</text>
<g class="stroked-text"><desc>TestPoint</desc>
<path d="M155333333 112202380
L154761904 112202380
" />
<path d="M155047619 113202380
L155047619 112202380
" />
<path d="M154047619 113154761
L154142857 113202380
L154333333 113202380
L154428571 113154761
L154476190 113059523
L154476190 112678571
L154428571 112583333
L154333333 112535714
L154142857 112535714
L154047619 112583333
L154000000 112678571
L154000000 112773809
L154476190 112869047
" />
<path d="M153619047 113154761
L153523809 113202380
L153333333 113202380
L153238095 113154761
L153190476 113059523
L153190476 113011904
L153238095 112916666
L153333333 112869047
L153476190 112869047
L153571428 112821428
L153619047 112726190
L153619047 112678571
L153571428 112583333
L153476190 112535714
L153333333 112535714
L153238095 112583333
" />
<path d="M152904761 112535714
L152523809 112535714
" />
<path d="M152761904 112202380
L152761904 113059523
L152714285 113154761
L152619047 113202380
L152523809 113202380
" />
<path d="M152190476 113202380
L152190476 112202380
L151809523 112202380
L151714285 112250000
L151666666 112297619
L151619047 112392857
L151619047 112535714
L151666666 112630952
L151714285 112678571
L151809523 112726190
L152190476 112726190
" />
<path d="M151047619 113202380
L151142857 113154761
L151190476 113107142
L151238095 113011904
L151238095 112726190
L151190476 112630952
L151142857 112583333
L151047619 112535714
L150904761 112535714
L150809523 112583333
L150761904 112630952
L150714285 112726190
L150714285 113011904
L150761904 113107142
L150809523 113154761
L150904761 113202380
L151047619 113202380
" />
<path d="M150285714 113202380
L150285714 112535714
" />
<path d="M150285714 112202380
L150333333 112250000
L150285714 112297619
L150238095 112250000
L150285714 112202380
L150285714 112297619
" />
<path d="M149809523 112535714
L149809523 113202380
" />
<path d="M149809523 112630952
L149761904 112583333
L149666666 112535714
L149523809 112535714
L149428571 112583333
L149380952 112678571
L149380952 113202380
" />
<path d="M149047619 112535714
L148666666 112535714
" />
<path d="M148904761 112202380
L148904761 113059523
L148857142 113154761
L148761904 113202380
L148666666 113202380
" />
</g><text x="152000000.000000" y="109850000.000000"
transform="scale(-1 1) translate(-304000000.000000 0)"
textLength="3471667.000000" font-size="1333333.000000" lengthAdjust="spacingAndGlyphs"
text-anchor="middle" opacity="0">TP18</text>
<g class="stroked-text"><desc>TP18</desc>
<path d="M153738095 108802380
L153166666 108802380
" />
<path d="M153452380 109802380
L153452380 108802380
" />
<path d="M152833333 109802380
L152833333 108802380
L152452380 108802380
L152357142 108850000
L152309523 108897619
L152261904 108992857
L152261904 109135714
L152309523 109230952
L152357142 109278571
L152452380 109326190
L152833333 109326190
" />
<path d="M151309523 109802380
L151880952 109802380
" />
<path d="M151595238 109802380
L151595238 108802380
L151690476 108945238
L151785714 109040476
L151880952 109088095
" />
<path d="M150738095 109230952
L150833333 109183333
L150880952 109135714
L150928571 109040476
L150928571 108992857
L150880952 108897619
L150833333 108850000
L150738095 108802380
L150547619 108802380
L150452380 108850000
L150404761 108897619
L150357142 108992857
L150357142 109040476
L150404761 109135714
L150452380 109183333
L150547619 109230952
L150738095 109230952
L150833333 109278571
L150880952 109326190
L150928571 109421428
L150928571 109611904
L150880952 109707142
L150833333 109754761
L150738095 109802380
L150547619 109802380
L150452380 109754761
L150404761 109707142
L150357142 109611904
L150357142 109421428
L150404761 109326190
L150452380 109278571
L150547619 109230952
" />
</g><text x="147750000.000000" y="71500000.000000"
transform="scale(-1 1) translate(-295500000.000000 0)"
textLength="6662143.000000" font-size="1333333.000000" lengthAdjust="spacingAndGlyphs"
text-anchor="middle" opacity="0">TestPoint</text>
<g class="stroked-text"><desc>TestPoint</desc>
<path d="M151083333 70452380
L150511904 70452380
" />
<path d="M150797619 71452380
L150797619 70452380
" />
<path d="M149797619 71404761
L149892857 71452380
L150083333 71452380
L150178571 71404761
L150226190 71309523
L150226190 70928571
L150178571 70833333
L150083333 70785714
L149892857 70785714
L149797619 70833333
L149750000 70928571
L149750000 71023809
L150226190 71119047
" />
<path d="M149369047 71404761
L149273809 71452380
L149083333 71452380
L148988095 71404761
L148940476 71309523
L148940476 71261904
L148988095 71166666
L149083333 71119047
L149226190 71119047
L149321428 71071428
L149369047 70976190
L149369047 70928571
L149321428 70833333
L149226190 70785714
L149083333 70785714
L148988095 70833333
" />
<path d="M148654761 70785714
L148273809 70785714
" />
<path d="M148511904 70452380
L148511904 71309523
L148464285 71404761
L148369047 71452380
L148273809 71452380
" />
<path d="M147940476 71452380
L147940476 70452380
L147559523 70452380
L147464285 70500000
L147416666 70547619
L147369047 70642857
L147369047 70785714
L147416666 70880952
L147464285 70928571
L147559523 70976190
L147940476 70976190
" />
<path d="M146797619 71452380
L146892857 71404761
L146940476 71357142
L146988095 71261904
L146988095 70976190
L146940476 70880952
L146892857 70833333
L146797619 70785714
L146654761 70785714
L146559523 70833333
L146511904 70880952
L146464285 70976190
L146464285 71261904
L146511904 71357142
L146559523 71404761
L146654761 71452380
L146797619 71452380
" />
<path d="M146035714 71452380
L146035714 70785714
" />
<path d="M146035714 70452380
L146083333 70500000
L146035714 70547619
L145988095 70500000
L146035714 70452380
L146035714 70547619
" />
<path d="M145559523 70785714
L145559523 71452380
" />
<path d="M145559523 70880952
L145511904 70833333
L145416666 70785714
L145273809 70785714
L145178571 70833333
L145130952 70928571
L145130952 71452380
" />
<path d="M144797619 70785714
L144416666 70785714
" />
<path d="M144654761 70452380
L144654761 71309523
L144607142 71404761
L144511904 71452380
L144416666 71452380
" />
</g><text x="147750000.000000" y="68100000.000000"
transform="scale(-1 1) translate(-295500000.000000 0)"
textLength="3471667.000000" font-size="1333333.000000" lengthAdjust="spacingAndGlyphs"
text-anchor="middle" opacity="0">TP17</text>
<g class="stroked-text"><desc>TP17</desc>
<path d="M149488095 67052380
L148916666 67052380
" />
<path d="M149202380 68052380
L149202380 67052380
" />
<path d="M148583333 68052380
L148583333 67052380
L148202380 67052380
L148107142 67100000
L148059523 67147619
L148011904 67242857
L148011904 67385714
L148059523 67480952
L148107142 67528571
L148202380 67576190
L148583333 67576190
" />
<path d="M147059523 68052380
L147630952 68052380
" />
<path d="M147345238 68052380
L147345238 67052380
L147440476 67195238
L147535714 67290476
L147630952 67338095
" />
<path d="M146726190 67052380
L146059523 67052380
L146488095 68052380
" />
</g><g transform="rotate(-90.000000 145000000.000000 117250000.000000)">
<text x="145000000.000000" y="117750000.000000"
transform="scale(-1 1) translate(-290000000.000000 0)"
textLength="6662143.000000" font-size="1333333.000000" lengthAdjust="spacingAndGlyphs"
text-anchor="middle" opacity="0">TestPoint</text>
</g>
<g class="stroked-text"><desc>TestPoint</desc>
<path d="M144452380 113916666
L144452380 114488095
" />
<path d="M145452380 114202380
L144452380 114202380
" />
<path d="M145404761 115202380
L145452380 115107142
L145452380 114916666
L145404761 114821428
L145309523 114773809
L144928571 114773809
L144833333 114821428
L144785714 114916666
L144785714 115107142
L144833333 115202380
L144928571 115250000
L145023809 115250000
L145119047 114773809
" />
<path d="M145404761 115630952
L145452380 115726190
L145452380 115916666
L145404761 116011904
L145309523 116059523
L145261904 116059523
L145166666 116011904
L145119047 115916666
L145119047 115773809
L145071428 115678571
L144976190 115630952
L144928571 115630952
L144833333 115678571
L144785714 115773809
L144785714 115916666
L144833333 116011904
" />
<path d="M144785714 116345238
L144785714 116726190
" />
<path d="M144452380 116488095
L145309523 116488095
L145404761 116535714
L145452380 116630952
L145452380 116726190
" />
<path d="M145452380 117059523
L144452380 117059523
L144452380 117440476
L144500000 117535714
L144547619 117583333
L144642857 117630952
L144785714 117630952
L144880952 117583333
L144928571 117535714
L144976190 117440476
L144976190 117059523
" />
<path d="M145452380 118202380
L145404761 118107142
L145357142 118059523
L145261904 118011904
L144976190 118011904
L144880952 118059523
L144833333 118107142
L144785714 118202380
L144785714 118345238
L144833333 118440476
L144880952 118488095
L144976190 118535714
L145261904 118535714
L145357142 118488095
L145404761 118440476
L145452380 118345238
L145452380 118202380
" />
<path d="M145452380 118964285
L144785714 118964285
" />
<path d="M144452380 118964285
L144500000 118916666
L144547619 118964285
L144500000 119011904
L144452380 118964285
L144547619 118964285
" />
<path d="M144785714 119440476
L145452380 119440476
" />
<path d="M144880952 119440476
L144833333 119488095
L144785714 119583333
L144785714 119726190
L144833333 119821428
L144928571 119869047
L145452380 119869047
" />
<path d="M144785714 120202380
L144785714 120583333
" />
<path d="M144452380 120345238
L145309523 120345238
L145404761 120392857
L145452380 120488095
L145452380 120583333
" />
</g><g transform="rotate(-90.000000 148400000.000000 117250000.000000)">
<text x="148400000.000000" y="117750000.000000"
transform="scale(-1 1) translate(-296800000.000000 0)"
textLength="3471667.000000" font-size="1333333.000000" lengthAdjust="spacingAndGlyphs"
text-anchor="middle" opacity="0">TP16</text>
</g>
<g class="stroked-text"><desc>TP16</desc>
<path d="M147852380 115511904
L147852380 116083333
" />
<path d="M148852380 115797619
L147852380 115797619
" />
<path d="M148852380 116416666
L147852380 116416666
L147852380 116797619
L147900000 116892857
L147947619 116940476
L148042857 116988095
L148185714 116988095
L148280952 116940476
L148328571 116892857
L148376190 116797619
L148376190 116416666
" />
<path d="M148852380 117940476
L148852380 117369047
" />
<path d="M148852380 117654761
L147852380 117654761
L147995238 117559523
L148090476 117464285
L148138095 117369047
" />
<path d="M147852380 118797619
L147852380 118607142
L147900000 118511904
L147947619 118464285
L148090476 118369047
L148280952 118321428
L148661904 118321428
L148757142 118369047
L148804761 118416666
L148852380 118511904
L148852380 118702380
L148804761 118797619
L148757142 118845238
L148661904 118892857
L148423809 118892857
L148328571 118845238
L148280952 118797619
L148233333 118702380
L148233333 118511904
L148280952 118416666
L148328571 118369047
L148423809 118321428
" />
</g><g transform="rotate(-90.000000 117250000.000000 80500000.000000)">
<text x="117250000.000000" y="81000000.000000"
transform="scale(-1 1) translate(-234500000.000000 0)"
textLength="6662143.000000" font-size="1333333.000000" lengthAdjust="spacingAndGlyphs"
text-anchor="middle" opacity="0">TestPoint</text>
</g>
<g class="stroked-text"><desc>TestPoint</desc>
<path d="M116702380 77166666
L116702380 77738095
" />
<path d="M117702380 77452380
L116702380 77452380
" />
<path d="M117654761 78452380
L117702380 78357142
L117702380 78166666
L117654761 78071428
L117559523 78023809
L117178571 78023809
L117083333 78071428
L117035714 78166666
L117035714 78357142
L117083333 78452380
L117178571 78500000
L117273809 78500000
L117369047 78023809
" />
<path d="M117654761 78880952
L117702380 78976190
L117702380 79166666
L117654761 79261904
L117559523 79309523
L117511904 79309523
L117416666 79261904
L117369047 79166666
L117369047 79023809
L117321428 78928571
L117226190 78880952
L117178571 78880952
L117083333 78928571
L117035714 79023809
L117035714 79166666
L117083333 79261904
" />
<path d="M117035714 79595238
L117035714 79976190
" />
<path d="M116702380 79738095
L117559523 79738095
L117654761 79785714
L117702380 79880952
L117702380 79976190
" />
<path d="M117702380 80309523
L116702380 80309523
L116702380 80690476
L116750000 80785714
L116797619 80833333
L116892857 80880952
L117035714 80880952
L117130952 80833333
L117178571 80785714
L117226190 80690476
L117226190 80309523
" />
<path d="M117702380 81452380
L117654761 81357142
L117607142 81309523
L117511904 81261904
L117226190 81261904
L117130952 81309523
L117083333 81357142
L117035714 81452380
L117035714 81595238
L117083333 81690476
L117130952 81738095
L117226190 81785714
L117511904 81785714
L117607142 81738095
L117654761 81690476
L117702380 81595238
L117702380 81452380
" />
<path d="M117702380 82214285
L117035714 82214285
" />
<path d="M116702380 82214285
L116750000 82166666
L116797619 82214285
L116750000 82261904
L116702380 82214285
L116797619 82214285
" />
<path d="M117035714 82690476
L117702380 82690476
" />
<path d="M117130952 82690476
L117083333 82738095
L117035714 82833333
L117035714 82976190
L117083333 83071428
L117178571 83119047
L117702380 83119047
" />
<path d="M117035714 83452380
L117035714 83833333
" />
<path d="M116702380 83595238
L117559523 83595238
L117654761 83642857
L117702380 83738095
L117702380 83833333
" />
</g><g transform="rotate(-90.000000 120650000.000000 80500000.000000)">
<text x="120650000.000000" y="81000000.000000"
transform="scale(-1 1) translate(-241300000.000000 0)"
textLength="2519286.000000" font-size="1333333.000000" lengthAdjust="spacingAndGlyphs"
text-anchor="middle" opacity="0">TP4</text>
</g>
<g class="stroked-text"><desc>TP4</desc>
<path d="M120102380 79238095
L120102380 79809523
" />
<path d="M121102380 79523809
L120102380 79523809
" />
<path d="M121102380 80142857
L120102380 80142857
L120102380 80523809
L120150000 80619047
L120197619 80666666
L120292857 80714285
L120435714 80714285
L120530952 80666666
L120578571 80619047
L120626190 80523809
L120626190 80142857
" />
<path d="M120435714 81571428
L121102380 81571428
" />
<path d="M120054761 81333333
L120769047 81095238
L120769047 81714285
" />
</g><g transform="rotate(-90.000000 148000000.000000 117250000.000000)">
<text x="148000000.000000" y="117750000.000000"
transform="scale(-1 1) translate(-296000000.000000 0)"
textLength="6662143.000000" font-size="1333333.000000" lengthAdjust="spacingAndGlyphs"
text-anchor="middle" opacity="0">TestPoint</text>
</g>
<g class="stroked-text"><desc>TestPoint</desc>
<path d="M147452380 113916666
L147452380 114488095
" />
<path d="M148452380 114202380
L147452380 114202380
" />
<path d="M148404761 115202380
L148452380 115107142
L148452380 114916666
L148404761 114821428
L148309523 114773809
L147928571 114773809
L147833333 114821428
L147785714 114916666
L147785714 115107142
L147833333 115202380
L147928571 115250000
L148023809 115250000
L148119047 114773809
" />
<path d="M148404761 115630952
L148452380 115726190
L148452380 115916666
L148404761 116011904
L148309523 116059523
L148261904 116059523
L148166666 116011904
L148119047 115916666
L148119047 115773809
L148071428 115678571
L147976190 115630952
L147928571 115630952
L147833333 115678571
L147785714 115773809
L147785714 115916666
L147833333 116011904
" />
<path d="M147785714 116345238
L147785714 116726190
" />
<path d="M147452380 116488095
L148309523 116488095
L148404761 116535714
L148452380 116630952
L148452380 116726190
" />
<path d="M148452380 117059523
L147452380 117059523
L147452380 117440476
L147500000 117535714
L147547619 117583333
L147642857 117630952
L147785714 117630952
L147880952 117583333
L147928571 117535714
L147976190 117440476
L147976190 117059523
" />
<path d="M148452380 118202380
L148404761 118107142
L148357142 118059523
L148261904 118011904
L147976190 118011904
L147880952 118059523
L147833333 118107142
L147785714 118202380
L147785714 118345238
L147833333 118440476
L147880952 118488095
L147976190 118535714
L148261904 118535714
L148357142 118488095
L148404761 118440476
L148452380 118345238
L148452380 118202380
" />
<path d="M148452380 118964285
L147785714 118964285
" />
<path d="M147452380 118964285
L147500000 118916666
L147547619 118964285
L147500000 119011904
L147452380 118964285
L147547619 118964285
" />
<path d="M147785714 119440476
L148452380 119440476
" />
<path d="M147880952 119440476
L147833333 119488095
L147785714 119583333
L147785714 119726190
L147833333 119821428
L147928571 119869047
L148452380 119869047
" />
<path d="M147785714 120202380
L147785714 120583333
" />
<path d="M147452380 120345238
L148309523 120345238
L148404761 120392857
L148452380 120488095
L148452380 120583333
" />
</g><g transform="rotate(-90.000000 151400000.000000 117250000.000000)">
<text x="151400000.000000" y="117750000.000000"
transform="scale(-1 1) translate(-302800000.000000 0)"
textLength="3471667.000000" font-size="1333333.000000" lengthAdjust="spacingAndGlyphs"
text-anchor="middle" opacity="0">TP14</text>
</g>
<g class="stroked-text"><desc>TP14</desc>
<path d="M150852380 115511904
L150852380 116083333
" />
<path d="M151852380 115797619
L150852380 115797619
" />
<path d="M151852380 116416666
L150852380 116416666
L150852380 116797619
L150900000 116892857
L150947619 116940476
L151042857 116988095
L151185714 116988095
L151280952 116940476
L151328571 116892857
L151376190 116797619
L151376190 116416666
" />
<path d="M151852380 117940476
L151852380 117369047
" />
<path d="M151852380 117654761
L150852380 117654761
L150995238 117559523
L151090476 117464285
L151138095 117369047
" />
<path d="M151185714 118797619
L151852380 118797619
" />
<path d="M150804761 118559523
L151519047 118321428
L151519047 118940476
" />
</g><g transform="rotate(-90.000000 125250000.000000 102500000.000000)">
<text x="125250000.000000" y="103000000.000000"
transform="scale(-1 1) translate(-250500000.000000 0)"
textLength="6662143.000000" font-size="1333333.000000" lengthAdjust="spacingAndGlyphs"
text-anchor="middle" opacity="0">TestPoint</text>
</g>
<g class="stroked-text"><desc>TestPoint</desc>
<path d="M124702380 99166666
L124702380 99738095
" />
<path d="M125702380 99452380
L124702380 99452380
" />
<path d="M125654761 100452380
L125702380 100357142
L125702380 100166666
L125654761 100071428
L125559523 100023809
L125178571 100023809
L125083333 100071428
L125035714 100166666
L125035714 100357142
L125083333 100452380
L125178571 100500000
L125273809 100500000
L125369047 100023809
" />
<path d="M125654761 100880952
L125702380 100976190
L125702380 101166666
L125654761 101261904
L125559523 101309523
L125511904 101309523
L125416666 101261904
L125369047 101166666
L125369047 101023809
L125321428 100928571
L125226190 100880952
L125178571 100880952
L125083333 100928571
L125035714 101023809
L125035714 101166666
L125083333 101261904
" />
<path d="M125035714 101595238
L125035714 101976190
" />
<path d="M124702380 101738095
L125559523 101738095
L125654761 101785714
L125702380 101880952
L125702380 101976190
" />
<path d="M125702380 102309523
L124702380 102309523
L124702380 102690476
L124750000 102785714
L124797619 102833333
L124892857 102880952
L125035714 102880952
L125130952 102833333
L125178571 102785714
L125226190 102690476
L125226190 102309523
" />
<path d="M125702380 103452380
L125654761 103357142
L125607142 103309523
L125511904 103261904
L125226190 103261904
L125130952 103309523
L125083333 103357142
L125035714 103452380
L125035714 103595238
L125083333 103690476
L125130952 103738095
L125226190 103785714
L125511904 103785714
L125607142 103738095
L125654761 103690476
L125702380 103595238
L125702380 103452380
" />
<path d="M125702380 104214285
L125035714 104214285
" />
<path d="M124702380 104214285
L124750000 104166666
L124797619 104214285
L124750000 104261904
L124702380 104214285
L124797619 104214285
" />
<path d="M125035714 104690476
L125702380 104690476
" />
<path d="M125130952 104690476
L125083333 104738095
L125035714 104833333
L125035714 104976190
L125083333 105071428
L125178571 105119047
L125702380 105119047
" />
<path d="M125035714 105452380
L125035714 105833333
" />
<path d="M124702380 105595238
L125559523 105595238
L125654761 105642857
L125702380 105738095
L125702380 105833333
" />
</g><g transform="rotate(-90.000000 128650000.000000 102500000.000000)">
<text x="128650000.000000" y="103000000.000000"
transform="scale(-1 1) translate(-257300000.000000 0)"
textLength="2519286.000000" font-size="1333333.000000" lengthAdjust="spacingAndGlyphs"
text-anchor="middle" opacity="0">TP1</text>
</g>
<g class="stroked-text"><desc>TP1</desc>
<path d="M128102380 101238095
L128102380 101809523
" />
<path d="M129102380 101523809
L128102380 101523809
" />
<path d="M129102380 102142857
L128102380 102142857
L128102380 102523809
L128150000 102619047
L128197619 102666666
L128292857 102714285
L128435714 102714285
L128530952 102666666
L128578571 102619047
L128626190 102523809
L128626190 102142857
" />
<path d="M129102380 103666666
L129102380 103095238
" />
<path d="M129102380 103380952
L128102380 103380952
L128245238 103285714
L128340476 103190476
L128388095 103095238
" />
</g><g transform="rotate(-90.000000 120750000.000000 78000000.000000)">
<text x="120750000.000000" y="78500000.000000"
transform="scale(-1 1) translate(-241500000.000000 0)"
textLength="6662143.000000" font-size="1333333.000000" lengthAdjust="spacingAndGlyphs"
text-anchor="middle" opacity="0">TestPoint</text>
</g>
<g class="stroked-text"><desc>TestPoint</desc>
<path d="M120202380 74666666
L120202380 75238095
" />
<path d="M121202380 74952380
L120202380 74952380
" />
<path d="M121154761 75952380
L121202380 75857142
L121202380 75666666
L121154761 75571428
L121059523 75523809
L120678571 75523809
L120583333 75571428
L120535714 75666666
L120535714 75857142
L120583333 75952380
L120678571 76000000
L120773809 76000000
L120869047 75523809
" />
<path d="M121154761 76380952
L121202380 76476190
L121202380 76666666
L121154761 76761904
L121059523 76809523
L121011904 76809523
L120916666 76761904
L120869047 76666666
L120869047 76523809
L120821428 76428571
L120726190 76380952
L120678571 76380952
L120583333 76428571
L120535714 76523809
L120535714 76666666
L120583333 76761904
" />
<path d="M120535714 77095238
L120535714 77476190
" />
<path d="M120202380 77238095
L121059523 77238095
L121154761 77285714
L121202380 77380952
L121202380 77476190
" />
<path d="M121202380 77809523
L120202380 77809523
L120202380 78190476
L120250000 78285714
L120297619 78333333
L120392857 78380952
L120535714 78380952
L120630952 78333333
L120678571 78285714
L120726190 78190476
L120726190 77809523
" />
<path d="M121202380 78952380
L121154761 78857142
L121107142 78809523
L121011904 78761904
L120726190 78761904
L120630952 78809523
L120583333 78857142
L120535714 78952380
L120535714 79095238
L120583333 79190476
L120630952 79238095
L120726190 79285714
L121011904 79285714
L121107142 79238095
L121154761 79190476
L121202380 79095238
L121202380 78952380
" />
<path d="M121202380 79714285
L120535714 79714285
" />
<path d="M120202380 79714285
L120250000 79666666
L120297619 79714285
L120250000 79761904
L120202380 79714285
L120297619 79714285
" />
<path d="M120535714 80190476
L121202380 80190476
" />
<path d="M120630952 80190476
L120583333 80238095
L120535714 80333333
L120535714 80476190
L120583333 80571428
L120678571 80619047
L121202380 80619047
" />
<path d="M120535714 80952380
L120535714 81333333
" />
<path d="M120202380 81095238
L121059523 81095238
L121154761 81142857
L121202380 81238095
L121202380 81333333
" />
</g><g transform="rotate(-90.000000 124150000.000000 78000000.000000)">
<text x="124150000.000000" y="78500000.000000"
transform="scale(-1 1) translate(-248300000.000000 0)"
textLength="3471667.000000" font-size="1333333.000000" lengthAdjust="spacingAndGlyphs"
text-anchor="middle" opacity="0">TP15</text>
</g>
<g class="stroked-text"><desc>TP15</desc>
<path d="M123602380 76261904
L123602380 76833333
" />
<path d="M124602380 76547619
L123602380 76547619
" />
<path d="M124602380 77166666
L123602380 77166666
L123602380 77547619
L123650000 77642857
L123697619 77690476
L123792857 77738095
L123935714 77738095
L124030952 77690476
L124078571 77642857
L124126190 77547619
L124126190 77166666
" />
<path d="M124602380 78690476
L124602380 78119047
" />
<path d="M124602380 78404761
L123602380 78404761
L123745238 78309523
L123840476 78214285
L123888095 78119047
" />
<path d="M123602380 79595238
L123602380 79119047
L124078571 79071428
L124030952 79119047
L123983333 79214285
L123983333 79452380
L124030952 79547619
L124078571 79595238
L124173809 79642857
L124411904 79642857
L124507142 79595238
L124554761 79547619
L124602380 79452380
L124602380 79214285
L124554761 79119047
L124507142 79071428
" />
</g><g >
</g>
<g >
</g>
<g >
</g>
<g >
</g>
<g >
</g>
<g >
</g>
<g >
</g>
<g >
</g>
<g >
</g>
<g >
</g>
<g >
</g>
<g >
</g>
<g >
</g>
<g >
</g>
<g >
</g>
<g >
</g>
<g >
</g>
<g >
</g>
<g >
</g>
<g >
</g>
<g >
</g>
<g >
</g>
<g >
</g>
<g >
</g>
<g >
</g>
<g >
</g>
<g >
</g>
<g >
</g>
<g >
</g>
<g >
</g>
<g >
</g>
<g >
</g>
<g >
</g>
<g >
</g>
<g >
</g>
<g >
</g>
<g >
</g>
<g >
</g>
<g >
</g>
<g >
</g>
<g >
</g>
<g >
</g>
<g >
</g>
<g >
</g>
<g >
</g>
<g >
</g>
<g >
</g>
<g >
</g>
<g >
</g>
<g >
</g>
<g >
</g>
<g >
</g>
<g >
</g>
<g >
</g>
<g >
</g>
<g >
</g>
<g >
</g>
<g >
</g>
<g >
</g>
<g >
</g>
<g >
</g>
<g >
</g>
<g >
</g>
<g >
</g>
<g >
</g>
<g >
</g>
<g >
</g>
<g >
</g>
<g >
</g>
<g >
</g>
<g >
</g>
<g >
</g>
<g >
</g>
<g >
</g>
<g >
</g>
<g >
</g>
<g >
</g>
<g >
</g>
<g >
</g>
<g >
</g>
</g> 
</svg>
