<?xml version="1.0" standalone="no"?>
 <!DOCTYPE svg PUBLIC "-//W3C//DTD SVG 1.1//EN" 
 "http://www.w3.org/Graphics/SVG/1.1/DTD/svg11.dtd"> 
<svg
  xmlns:svg="http://www.w3.org/2000/svg"
  xmlns="http://www.w3.org/2000/svg"
  xmlns:xlink="http://www.w3.org/1999/xlink"
  version="1.1"
  width="29.700220cm" height="21.000720cm" viewBox="0 0 297002200 210007200">
<title>SVG Picture created as redshift-Edge_Cuts.svg date 2022/10/07 12:24:33 </title>
  <desc>Picture generated by PCBNEW </desc>
<g style="fill:#000000; fill-opacity:1.000000;stroke:#000000; stroke-opacity:1.000000;
stroke-linecap:round; stroke-linejoin:round;"
 transform="translate(0 0) scale(1 1)">
</g>
<g style="fill:#000000; fill-opacity:0.0; 
stroke:#000000; stroke-width:0.000000; stroke-opacity:1; 
stroke-linecap:round; stroke-linejoin:round;">
</g>
<g style="fill:#000000; fill-opacity:0.0; 
stroke:#000000; stroke-width:100000.000000; stroke-opacity:1; 
stroke-linecap:round; stroke-linejoin:round;">
<path d="M133146447.008931 71853646.997790 A500047.000000 500047.000000 0.0 0 0 133646446.997696 71353552.000000" />
<path d="M144646446 83353553
L144646446 72353553
" />
<path d="M142146447 83853554
L144146447 83853552
" />
<path d="M133646448.002209 86853553.000000 A499952.000000 499952.000000 0.0 0 0 134146447.000000 87353551.997791" />
<path d="M141646444.997791 68853553.000000 A500045.000000 500045.000000 0.0 0 0 141146447.000000 68353555.002209" />
<path d="M132000000 55500000
L143000000 55500000
" />
<path d="M141146447.008837 87353645.997790 A500046.000000 500046.000000 0.0 0 0 141646445.997791 86853553.000000" />
<path d="M144646445.997791 72353553.000000 A500046.000000 500046.000000 0.0 0 0 144146447.000000 71853554.002209" />
<path d="M157000000.000000 119000000.000000 A3000000.000000 3000000.000000 0.0 0 0 160000000.000000 116000000.000000" />
<path d="M160000000 68000000
L160000000 116000000
" />
<path d="M131146446.991165 71853648.002208 A499952.000000 499952.000000 0.0 0 0 130646448.002209 72353553.000000" />
<path d="M130646448.002209 83353553.000000 A499952.000000 499952.000000 0.0 0 0 131146447.000000 83853551.997791" />
<path d="M134146446.991165 68353648.002208 A499952.000000 499952.000000 0.0 0 0 133646448.002209 68853553.000000" />
<path d="M132000000 55500000
L132000000 63000000
" />
<path d="M141646445 68853553
L141646448 71353553
" />
<path d="M141646449.002209 71353553.000094 A499951.000000 499951.000000 0.0 0 0 142146448.000000 71853550.997696" />
<path d="M142146447 71853552
L144146447 71853554
" />
<path d="M143000000.000000 63000000.000000 A2000000.000000 2000000.000000 0.0 0 0 145000000.000000 65000000.000000" />
<path d="M133646445.997791 84353553.000000 A500046.000000 500046.000000 0.0 0 0 133146447.000000 83853554.002209" />
<path d="M145000000 65000000
L157000000 65000000
" />
<path d="M160000000.000000 68000000.000000 A3000000.000000 3000000.000000 0.0 0 0 157000000.000000 65000000.000000" />
<path d="M144146447.008837 83853645.997790 A500046.000000 500046.000000 0.0 0 0 144646445.997791 83353553.000000" />
<path d="M141146447 68353554
L134146447 68353554
" />
<path d="M141646448 84353553
L141646446 86853553
" />
<path d="M118000000 119000000
L157000000 119000000
" />
<path d="M142146446.991165 83853648.002208 A499952.000000 499952.000000 0.0 0 0 141646448.002209 84353553.000000" />
<path d="M118000000.000000 65000000.000000 A3000000.000000 3000000.000000 0.0 0 0 115000000.000000 68000000.000000" />
<path d="M133146447 71853552
L131146447 71853554
" />
<path d="M133646446 71353553
L133646449 68853553
" />
<path d="M133146447 83853554
L131146447 83853552
" />
<path d="M133646448 86853553
L133646446 84353553
" />
<path d="M134146447 87353552
L141146447 87353552
" />
<path d="M115000000 116000000
L115000000 68000000
" />
<path d="M143000000 63000000
L143000000 55500000
" />
<path d="M130000000.000000 65000000.000000 A2000000.000000 2000000.000000 0.0 0 0 132000000.000000 63000000.000000" />
<path d="M115000000.000000 116000000.000000 A3000000.000000 3000000.000000 0.0 0 0 118000000.000000 119000000.000000" />
<path d="M130646448 83353553
L130646448 72353553
" />
<path d="M118000000 65000000
L130000000 65000000
" />
</g>
<g style="fill:#000000; fill-opacity:0.0; 
stroke:#000000; stroke-width:50000.000000; stroke-opacity:1; 
stroke-linecap:round; stroke-linejoin:round;">
<path d="M133200000 116765000
L133200000 99505000
" />
<path d="M141800000 99505000
L141800000 116765000
" />
<path d="M141800000 99505000
L133200000 99505000
" />
<path d="M141800000 116765000
L133200000 116765000
" />
<g >
</g>
<g >
</g>
<g >
</g>
<g >
</g>
<g >
</g>
<g >
</g>
<g >
</g>
<g >
</g>
<g >
</g>
<g >
</g>
<g >
</g>
<g >
</g>
<g >
</g>
<g >
</g>
<g >
</g>
<g >
</g>
<g >
</g>
<g >
</g>
<g >
</g>
<g >
</g>
<g >
</g>
<g >
</g>
<g >
</g>
<g >
</g>
<g >
</g>
<g >
</g>
<g >
</g>
<g >
</g>
<g >
</g>
<g >
</g>
<g >
</g>
<g >
</g>
<g >
</g>
<g >
</g>
<g >
</g>
<g >
</g>
<g >
</g>
<g >
</g>
<g >
</g>
<g >
</g>
<g >
</g>
<g >
</g>
<g >
</g>
<g >
</g>
<g >
</g>
<g >
</g>
<g >
</g>
<g >
</g>
<g >
</g>
<g >
</g>
<g >
</g>
<g >
</g>
<g >
</g>
<g >
</g>
<g >
</g>
<g >
</g>
<g >
</g>
<g >
</g>
<g >
</g>
<g >
</g>
<g >
</g>
<g >
</g>
<g >
</g>
<g >
</g>
<g >
</g>
<g >
</g>
<g >
</g>
<g >
</g>
<g >
</g>
<g >
</g>
<g >
</g>
<g >
</g>
<g >
</g>
<g >
</g>
<g >
</g>
<g >
</g>
<g >
</g>
<g >
</g>
<g >
</g>
<g >
</g>
</g> 
</svg>
