M48
INCH,TZ
T1C0.0098
T2C0.0118
T3C0.0157
T4C0.0236
T5C0.0276
T6C0.0315
T7C0.0394
%
G90
G05
T1
X52559Y-36614
X54232Y-36425
X54232Y-36811
T2
X47146Y-34547
X48622Y-34350
X49508Y-43799
X50394Y-39370
X50394Y-40354
X50394Y-41831
X50591Y-41535
X50787Y-39164
X50886Y-37894
X50886Y-38287
X50886Y-38681
X50975Y-40354
X51171Y-41831
X51575Y-35236
X51575Y-35630
X51575Y-36024
X51584Y-39370
X51969Y-25689
X52165Y-38367
X52510Y-24705
X52549Y-36220
X52559Y-38780
X52657Y-35827
X52756Y-25689
X52953Y-38780
X53120Y-35246
X53346Y-38780
X53354Y-35835
X53364Y-37205
X53445Y-36811
X53521Y-37598
X53543Y-23720
X53600Y-36383
X53642Y-25394
X53740Y-35138
X53740Y-38297
X53740Y-38780
X53788Y-35878
X53819Y-37303
X54134Y-38091
X54134Y-38780
X54145Y-34634
X54232Y-37598
X54331Y-35039
X54347Y-35908
X54487Y-37303
X54528Y-34646
X54528Y-38780
X54626Y-25394
X54724Y-23720
X54724Y-35728
X54724Y-36220
X54823Y-36830
X54902Y-37385
X54941Y-38367
X55023Y-24608
X55118Y-25161
X55118Y-26772
X55217Y-38681
X55394Y-25984
X55401Y-24717
X55413Y-34646
X55610Y-36417
X55610Y-36811
X55610Y-38681
X55748Y-34646
X55906Y-24705
X56004Y-36417
X56004Y-36811
X56201Y-35827
X56791Y-35630
X56791Y-36811
X56799Y-36417
X57087Y-33760
X57087Y-37008
X57185Y-35630
X57382Y-40551
X57382Y-40945
X57382Y-41831
X57382Y-42224
X57579Y-37303
X57579Y-37697
X57579Y-38091
X57638Y-26417
X57776Y-27756
X57972Y-43012
X57992Y-40984
X58268Y-42126
X58366Y-44882
X58563Y-42815
X58858Y-44882
X58866Y-41445
X59252Y-26870
X59341Y-41142
X59341Y-41535
X59350Y-44439
X59350Y-44882
X59843Y-43406
X60335Y-44882
X60531Y-42421
X60531Y-42815
X60925Y-38878
X61122Y-43021
X62598Y-37894
X62598Y-38976
T3
X47539Y-30709
X47769Y-31404
X58957Y-46555
X60236Y-46555
T5
X52028Y-39620
X52028Y-40321
X52028Y-41022
X52028Y-41722
X52028Y-42423
X52028Y-43124
X52028Y-43825
X52028Y-44526
X56240Y-39970
X56240Y-40671
X56240Y-41372
X56240Y-42073
X56240Y-42774
X56240Y-43474
X56240Y-44175
X56240Y-44876
T6
X62106Y-39567
X62106Y-40354
X62106Y-41142
X62106Y-41929
X62106Y-42717
X62106Y-43504
T7
X46850Y-28709
X46850Y-30709
X46850Y-32709
X50787Y-29724
X50787Y-30709
X50787Y-31693
X58661Y-29496
X58661Y-31496
X58661Y-33496
X61417Y-28709
X61417Y-30709
X61417Y-32709
T4
G00X52433Y-22598
M15
G01X52433Y-22283
M16
G05
G00X52433Y-24303
M15
G01X52433Y-23870
M16
G05
G00X55835Y-22598
M15
G01X55835Y-22283
M16
G05
G00X55835Y-24303
M15
G01X55835Y-23870
M16
G05
T7
G00X50197Y-28661
M15
G01X49803Y-28661
M16
G05
G00X50197Y-32756
M15
G01X49803Y-32756
M16
G05
T0
M30
