%TF.GenerationSoftware,KiCad,Pcbnew,6.0.7+dfsg-1~bpo11+1*%
%TF.CreationDate,2022-10-07T12:23:40+00:00*%
%TF.ProjectId,redshift,72656473-6869-4667-942e-6b696361645f,0.2*%
%TF.SameCoordinates,Original*%
%TF.FileFunction,Copper,L2,Inr*%
%TF.FilePolarity,Positive*%
%FSLAX46Y46*%
G04 Gerber Fmt 4.6, Leading zero omitted, Abs format (unit mm)*
G04 Created by KiCad (PCBNEW 6.0.7+dfsg-1~bpo11+1) date 2022-10-07 12:23:40*
%MOMM*%
%LPD*%
G01*
G04 APERTURE LIST*
%TA.AperFunction,ComponentPad*%
%ADD10C,1.700000*%
%TD*%
%TA.AperFunction,ComponentPad*%
%ADD11O,2.700000X1.700000*%
%TD*%
%TA.AperFunction,ComponentPad*%
%ADD12O,1.050000X2.100000*%
%TD*%
%TA.AperFunction,ComponentPad*%
%ADD13O,1.000000X2.000000*%
%TD*%
%TA.AperFunction,ComponentPad*%
%ADD14R,1.350000X1.350000*%
%TD*%
%TA.AperFunction,ComponentPad*%
%ADD15O,1.350000X1.350000*%
%TD*%
%TA.AperFunction,ComponentPad*%
%ADD16R,1.400000X1.400000*%
%TD*%
%TA.AperFunction,ComponentPad*%
%ADD17C,1.400000*%
%TD*%
%TA.AperFunction,ViaPad*%
%ADD18C,0.450000*%
%TD*%
%TA.AperFunction,ViaPad*%
%ADD19C,0.500000*%
%TD*%
%TA.AperFunction,ViaPad*%
%ADD20C,0.800000*%
%TD*%
%TA.AperFunction,Conductor*%
%ADD21C,0.450000*%
%TD*%
G04 APERTURE END LIST*
D10*
%TO.N,/ENC_A*%
%TO.C,ENC1*%
X129000000Y-80500000D03*
%TO.N,/ENC_B*%
X129000000Y-78000000D03*
%TO.N,GND*%
X129000000Y-75500000D03*
D11*
%TO.N,N/C*%
X127000000Y-72800000D03*
X127000000Y-83200000D03*
%TD*%
D12*
%TO.N,/SH*%
%TO.C,J1*%
X141820000Y-61180000D03*
D13*
X141820000Y-57000000D03*
X133180000Y-57000000D03*
D12*
X133180000Y-61180000D03*
%TD*%
D10*
%TO.N,GND*%
%TO.C,SW3*%
X149000000Y-74920000D03*
%TO.N,/SW3_M_NO*%
X149000000Y-80000000D03*
%TO.N,/SW3_M_NC*%
X149000000Y-85080000D03*
%TD*%
D14*
%TO.N,GND*%
%TO.C,J3*%
X157750000Y-100500000D03*
D15*
%TO.N,/DBG_VIN*%
X157750000Y-102500000D03*
%TO.N,/RESET*%
X157750000Y-104500000D03*
%TO.N,/SWDIO*%
X157750000Y-106500000D03*
%TO.N,/SWO*%
X157750000Y-108500000D03*
%TO.N,/SWCLK*%
X157750000Y-110500000D03*
%TD*%
D16*
%TO.N,N/C*%
%TO.C,U1*%
X142850000Y-113985000D03*
D17*
X142850000Y-112205000D03*
%TO.N,GND*%
X142850000Y-110425000D03*
%TO.N,Net-(C19-Pad1)*%
X142850000Y-108645000D03*
%TO.N,Net-(C21-Pad1)*%
X142850000Y-106865000D03*
%TO.N,unconnected-(U1-Pad6)*%
X142850000Y-105085000D03*
%TO.N,Net-(C17-Pad2)*%
X142850000Y-103305000D03*
%TO.N,GND*%
X142850000Y-101525000D03*
%TO.N,/SNSR_MTN*%
X132150000Y-100635000D03*
%TO.N,/FC6_SCK*%
X132150000Y-102415000D03*
%TO.N,/FC6_MOSI*%
X132150000Y-104195000D03*
%TO.N,/FC6_MISO*%
X132150000Y-105975000D03*
%TO.N,/FC6_CS1*%
X132150000Y-107755000D03*
%TO.N,/SNSR_RST*%
X132150000Y-109535000D03*
%TO.N,/SNSR_LED*%
X132150000Y-111315000D03*
%TO.N,N/C*%
X132150000Y-113095000D03*
%TD*%
D10*
%TO.N,GND*%
%TO.C,SW2*%
X156000000Y-72920000D03*
%TO.N,/SW2_R_NO*%
X156000000Y-78000000D03*
%TO.N,/SW2_R_NC*%
X156000000Y-83080000D03*
%TD*%
%TO.N,GND*%
%TO.C,SW1*%
X119000000Y-72920000D03*
%TO.N,/SW1_L_NO*%
X119000000Y-78000000D03*
%TO.N,/SW1_L_NC*%
X119000000Y-83080000D03*
%TD*%
D18*
%TO.N,+5V*%
X146750000Y-70500000D03*
D19*
X140700000Y-66000000D03*
X147300000Y-104100000D03*
%TO.N,+3V3*%
X138500000Y-88000000D03*
X146250000Y-94750000D03*
X131000000Y-89500000D03*
X145750000Y-104000000D03*
X138500000Y-98500000D03*
X145750000Y-103000000D03*
X142250000Y-92500000D03*
X123500000Y-87250000D03*
X146400000Y-67100000D03*
X134500000Y-98500000D03*
X146250000Y-95750000D03*
X142750000Y-91000000D03*
X131000000Y-91500000D03*
X136500000Y-98500000D03*
X125750000Y-111250000D03*
X139549011Y-97450989D03*
X142250000Y-93500000D03*
D20*
X153000000Y-118250000D03*
D19*
X131000000Y-90500000D03*
%TO.N,+1V8*%
X147250000Y-109250000D03*
%TO.N,/USB_D+*%
X136250000Y-64500000D03*
X138042518Y-91207482D03*
%TO.N,/USB_D-*%
X138000000Y-89000000D03*
X138750000Y-64500000D03*
%TO.N,/VBUS_*%
X136000000Y-60250000D03*
X159000000Y-96250000D03*
X140718767Y-62781233D03*
X139000000Y-60250000D03*
X139759355Y-62504544D03*
%TO.N,/USB1_LED*%
X136143360Y-92413402D03*
X119750000Y-87750000D03*
D18*
%TO.N,/FC6_CS1*%
X140250000Y-98250000D03*
D19*
%TO.N,/RESET*%
X136620878Y-91129122D03*
X150725500Y-104500000D03*
%TO.N,/FC6_SCK*%
X128000000Y-102500000D03*
X129475500Y-102500000D03*
X135750000Y-93500000D03*
%TO.N,/FC6_MOSI*%
X131024500Y-100000000D03*
X128000000Y-100000000D03*
%TO.N,/FC6_MISO*%
X137750000Y-95500000D03*
X129975500Y-106250000D03*
X128000000Y-106250000D03*
D18*
%TO.N,/SW1_L_NC*%
X135519107Y-91020248D03*
D19*
%TO.N,/SNSR_RST*%
X132500000Y-97450989D03*
X129000000Y-99475500D03*
X136500000Y-97274500D03*
%TO.N,/SW1_L_NO*%
X136500000Y-89250000D03*
%TO.N,GND*%
X136700989Y-94750000D03*
X144270000Y-92500000D03*
X142000000Y-62750000D03*
X145750000Y-107250000D03*
X144250000Y-90500000D03*
X128500000Y-105500000D03*
X146250000Y-96750000D03*
X134000000Y-65250000D03*
X139451727Y-94957641D03*
X134925500Y-89524020D03*
X150750000Y-114000000D03*
X140000000Y-68000000D03*
X141600989Y-88000000D03*
D20*
X149750000Y-118250000D03*
D19*
X145000000Y-85750000D03*
X133475011Y-92000000D03*
X137500000Y-98500000D03*
X148000000Y-107000000D03*
X140750000Y-88000000D03*
X153250000Y-114000000D03*
X150500000Y-68250000D03*
X135500000Y-98500000D03*
X149500000Y-114000000D03*
X148750000Y-108750000D03*
X140000000Y-63909500D03*
X145750000Y-106250000D03*
X145250000Y-90500000D03*
X132000000Y-65250000D03*
X149520000Y-105270000D03*
X137528381Y-87971619D03*
X144250000Y-93500000D03*
X133374500Y-62750000D03*
D18*
X141250000Y-92500000D03*
D19*
X133500000Y-98500000D03*
X129250000Y-96250000D03*
X154750000Y-98750000D03*
%TO.N,/SW4_NC*%
X135544503Y-94500000D03*
X129250000Y-97250000D03*
%TO.N,/SW4_NO*%
X135944011Y-95500000D03*
X129250000Y-98250000D03*
D18*
%TO.N,/SW2_R_NO*%
X137750000Y-92519503D03*
%TO.N,/SW2_R_NC*%
X137750000Y-93500000D03*
%TO.N,/SW3_M_NO*%
X139000000Y-90750000D03*
%TO.N,/SW3_M_NC*%
X139000000Y-92000000D03*
%TO.N,/ENC_B*%
X133500000Y-93000000D03*
D20*
X120750000Y-78000000D03*
%TO.N,/ENC_A*%
X121334080Y-79767133D03*
D18*
X133750000Y-91000000D03*
D19*
%TO.N,/SWO*%
X150750000Y-112874500D03*
X139250000Y-93548273D03*
X155250000Y-109274500D03*
D18*
%TO.N,/SWCLK*%
X141250000Y-93500000D03*
D19*
X153750000Y-108750000D03*
%TO.N,/SWDIO*%
X153750000Y-107750000D03*
X145000000Y-94000000D03*
%TO.N,/SNSR_MTN*%
X138397276Y-94749989D03*
%TO.N,/ISP*%
X141250000Y-98250000D03*
X150725500Y-105500000D03*
X152000000Y-110250000D03*
X137500000Y-96750000D03*
%TO.N,/DBG_VIN*%
X159000000Y-99000000D03*
X148250000Y-114000000D03*
%TD*%
D21*
%TO.N,/SH*%
X133180000Y-57000000D02*
X141820000Y-57000000D01*
X133180000Y-57000000D02*
X133180000Y-61180000D01*
X141820000Y-57000000D02*
X141820000Y-61180000D01*
%TD*%
%TA.AperFunction,Conductor*%
%TO.N,GND*%
G36*
X142941121Y-55521002D02*
G01*
X142987614Y-55574658D01*
X142999000Y-55627000D01*
X142999000Y-62986315D01*
X142997755Y-63000000D01*
X142994707Y-63000000D01*
X142995892Y-63018078D01*
X142999730Y-63076634D01*
X143000000Y-63084875D01*
X143000000Y-65000000D01*
X144915125Y-65000000D01*
X144923366Y-65000270D01*
X145000000Y-65005293D01*
X145000000Y-65002076D01*
X145009737Y-65001000D01*
X156996710Y-65001000D01*
X157003305Y-65001173D01*
X157266322Y-65014958D01*
X157266791Y-65014983D01*
X157308840Y-65017344D01*
X157321486Y-65018697D01*
X157353265Y-65023730D01*
X157518893Y-65049963D01*
X157520170Y-65050173D01*
X157629945Y-65068826D01*
X157641449Y-65071338D01*
X157758932Y-65102817D01*
X157821271Y-65119521D01*
X157823503Y-65120142D01*
X157943493Y-65154711D01*
X157953763Y-65158154D01*
X158122270Y-65222838D01*
X158125299Y-65224046D01*
X158189293Y-65250553D01*
X158245795Y-65273957D01*
X158254780Y-65278099D01*
X158413041Y-65358737D01*
X158416786Y-65360726D01*
X158533315Y-65425129D01*
X158540992Y-65429735D01*
X158688581Y-65525581D01*
X158692869Y-65528492D01*
X158802697Y-65606419D01*
X158809079Y-65611260D01*
X158945199Y-65721489D01*
X158949863Y-65725457D01*
X159050758Y-65815622D01*
X159055875Y-65820461D01*
X159179539Y-65944125D01*
X159184378Y-65949242D01*
X159220987Y-65990207D01*
X159274543Y-66050137D01*
X159278511Y-66054801D01*
X159388740Y-66190921D01*
X159393581Y-66197303D01*
X159471508Y-66307131D01*
X159474419Y-66311419D01*
X159570265Y-66459008D01*
X159574871Y-66466685D01*
X159639274Y-66583214D01*
X159641263Y-66586959D01*
X159721901Y-66745220D01*
X159726043Y-66754205D01*
X159774211Y-66870491D01*
X159775947Y-66874683D01*
X159777169Y-66877747D01*
X159841845Y-67046235D01*
X159845289Y-67056507D01*
X159879858Y-67176497D01*
X159880479Y-67178729D01*
X159892959Y-67225304D01*
X159928662Y-67358551D01*
X159931174Y-67370055D01*
X159949827Y-67479830D01*
X159950037Y-67481107D01*
X159976270Y-67646735D01*
X159981303Y-67678514D01*
X159982656Y-67691159D01*
X159985023Y-67733306D01*
X159985048Y-67733777D01*
X159998827Y-67996696D01*
X159999000Y-68003290D01*
X159999000Y-115996710D01*
X159998827Y-116003304D01*
X159985048Y-116266223D01*
X159985023Y-116266694D01*
X159982656Y-116308841D01*
X159981303Y-116321486D01*
X159950037Y-116518893D01*
X159949827Y-116520170D01*
X159931174Y-116629945D01*
X159928662Y-116641449D01*
X159880490Y-116821232D01*
X159879858Y-116823503D01*
X159845289Y-116943493D01*
X159841845Y-116953765D01*
X159777169Y-117122253D01*
X159775947Y-117125317D01*
X159726043Y-117245795D01*
X159721901Y-117254780D01*
X159641263Y-117413041D01*
X159639274Y-117416786D01*
X159574871Y-117533315D01*
X159570265Y-117540992D01*
X159474419Y-117688581D01*
X159471508Y-117692869D01*
X159393581Y-117802697D01*
X159388740Y-117809079D01*
X159278511Y-117945199D01*
X159274543Y-117949863D01*
X159184378Y-118050758D01*
X159179539Y-118055875D01*
X159055875Y-118179539D01*
X159050758Y-118184378D01*
X158968898Y-118257533D01*
X158949863Y-118274543D01*
X158945199Y-118278511D01*
X158809079Y-118388740D01*
X158802697Y-118393581D01*
X158692869Y-118471508D01*
X158688581Y-118474419D01*
X158540992Y-118570265D01*
X158533315Y-118574871D01*
X158416786Y-118639274D01*
X158413041Y-118641263D01*
X158254780Y-118721901D01*
X158245795Y-118726043D01*
X158226530Y-118734023D01*
X158125299Y-118775954D01*
X158122270Y-118777162D01*
X157953765Y-118841845D01*
X157943493Y-118845289D01*
X157823503Y-118879858D01*
X157821271Y-118880479D01*
X157758932Y-118897183D01*
X157641449Y-118928662D01*
X157629945Y-118931174D01*
X157520170Y-118949827D01*
X157518893Y-118950037D01*
X157353265Y-118976270D01*
X157321486Y-118981303D01*
X157308840Y-118982656D01*
X157266791Y-118985017D01*
X157266322Y-118985042D01*
X157003305Y-118998827D01*
X156996710Y-118999000D01*
X153263724Y-118999000D01*
X153195603Y-118978998D01*
X153149110Y-118925342D01*
X153139006Y-118855068D01*
X153168500Y-118790488D01*
X153215507Y-118756591D01*
X153269993Y-118734023D01*
X153269998Y-118734020D01*
X153277625Y-118730861D01*
X153392621Y-118642621D01*
X153480861Y-118527625D01*
X153536330Y-118393709D01*
X153555250Y-118250000D01*
X153536330Y-118106291D01*
X153480861Y-117972375D01*
X153392621Y-117857379D01*
X153277625Y-117769139D01*
X153143709Y-117713670D01*
X153000000Y-117694750D01*
X152856291Y-117713670D01*
X152722375Y-117769139D01*
X152607379Y-117857379D01*
X152519139Y-117972375D01*
X152463670Y-118106291D01*
X152444750Y-118250000D01*
X152463670Y-118393709D01*
X152519139Y-118527625D01*
X152607379Y-118642621D01*
X152722375Y-118730861D01*
X152730002Y-118734020D01*
X152730007Y-118734023D01*
X152784493Y-118756591D01*
X152839774Y-118801139D01*
X152862196Y-118868502D01*
X152844638Y-118937293D01*
X152792677Y-118985672D01*
X152736276Y-118999000D01*
X118003290Y-118999000D01*
X117996695Y-118998827D01*
X117733678Y-118985042D01*
X117733209Y-118985017D01*
X117691160Y-118982656D01*
X117678514Y-118981303D01*
X117646735Y-118976270D01*
X117481107Y-118950037D01*
X117479830Y-118949827D01*
X117370055Y-118931174D01*
X117358551Y-118928662D01*
X117241068Y-118897183D01*
X117178729Y-118880479D01*
X117176497Y-118879858D01*
X117056507Y-118845289D01*
X117046235Y-118841845D01*
X116877730Y-118777162D01*
X116874701Y-118775954D01*
X116773470Y-118734023D01*
X116754205Y-118726043D01*
X116745220Y-118721901D01*
X116586959Y-118641263D01*
X116583214Y-118639274D01*
X116466685Y-118574871D01*
X116459008Y-118570265D01*
X116311419Y-118474419D01*
X116307131Y-118471508D01*
X116197303Y-118393581D01*
X116190921Y-118388740D01*
X116054801Y-118278511D01*
X116050137Y-118274543D01*
X116031102Y-118257533D01*
X115949242Y-118184378D01*
X115944125Y-118179539D01*
X115820461Y-118055875D01*
X115815622Y-118050758D01*
X115725457Y-117949863D01*
X115721489Y-117945199D01*
X115611260Y-117809079D01*
X115606419Y-117802697D01*
X115528492Y-117692869D01*
X115525581Y-117688581D01*
X115429735Y-117540992D01*
X115425129Y-117533315D01*
X115360726Y-117416786D01*
X115358737Y-117413041D01*
X115278099Y-117254780D01*
X115273957Y-117245795D01*
X115224053Y-117125317D01*
X115222831Y-117122253D01*
X115158155Y-116953765D01*
X115154711Y-116943493D01*
X115120142Y-116823503D01*
X115119510Y-116821232D01*
X115071338Y-116641449D01*
X115068826Y-116629945D01*
X115050173Y-116520170D01*
X115049963Y-116518893D01*
X115018697Y-116321486D01*
X115017344Y-116308841D01*
X115014977Y-116266694D01*
X115014952Y-116266223D01*
X115001173Y-116003304D01*
X115001000Y-115996710D01*
X115001000Y-111250000D01*
X125344508Y-111250000D01*
X125346059Y-111259793D01*
X125356249Y-111324128D01*
X125364354Y-111375304D01*
X125421950Y-111488342D01*
X125511658Y-111578050D01*
X125624696Y-111635646D01*
X125634485Y-111637196D01*
X125634487Y-111637197D01*
X125740207Y-111653941D01*
X125750000Y-111655492D01*
X125759793Y-111653941D01*
X125865513Y-111637197D01*
X125865515Y-111637196D01*
X125875304Y-111635646D01*
X125988342Y-111578050D01*
X126078050Y-111488342D01*
X126135646Y-111375304D01*
X126143752Y-111324128D01*
X126153941Y-111259793D01*
X126155492Y-111250000D01*
X126150557Y-111218842D01*
X126137197Y-111134487D01*
X126137196Y-111134485D01*
X126135646Y-111124696D01*
X126078050Y-111011658D01*
X125988342Y-110921950D01*
X125875304Y-110864354D01*
X125865515Y-110862804D01*
X125865513Y-110862803D01*
X125759793Y-110846059D01*
X125750000Y-110844508D01*
X125740207Y-110846059D01*
X125634487Y-110862803D01*
X125634485Y-110862804D01*
X125624696Y-110864354D01*
X125511658Y-110921950D01*
X125421950Y-111011658D01*
X125364354Y-111124696D01*
X125362804Y-111134485D01*
X125362803Y-111134487D01*
X125349443Y-111218842D01*
X125344508Y-111250000D01*
X115001000Y-111250000D01*
X115001000Y-106250000D01*
X127594508Y-106250000D01*
X127596059Y-106259793D01*
X127611523Y-106357427D01*
X127614354Y-106375304D01*
X127671950Y-106488342D01*
X127761658Y-106578050D01*
X127874696Y-106635646D01*
X127884485Y-106637196D01*
X127884487Y-106637197D01*
X127990207Y-106653941D01*
X128000000Y-106655492D01*
X128009793Y-106653941D01*
X128115513Y-106637197D01*
X128115515Y-106637196D01*
X128125304Y-106635646D01*
X128238342Y-106578050D01*
X128328050Y-106488342D01*
X128385646Y-106375304D01*
X128388478Y-106357427D01*
X128403941Y-106259793D01*
X128405492Y-106250000D01*
X129570008Y-106250000D01*
X129571559Y-106259793D01*
X129587023Y-106357427D01*
X129589854Y-106375304D01*
X129647450Y-106488342D01*
X129737158Y-106578050D01*
X129850196Y-106635646D01*
X129859985Y-106637196D01*
X129859987Y-106637197D01*
X129965707Y-106653941D01*
X129975500Y-106655492D01*
X129985293Y-106653941D01*
X130091013Y-106637197D01*
X130091015Y-106637196D01*
X130100804Y-106635646D01*
X130213842Y-106578050D01*
X130303550Y-106488342D01*
X130361146Y-106375304D01*
X130363978Y-106357427D01*
X130379441Y-106259793D01*
X130380992Y-106250000D01*
X130361146Y-106124696D01*
X130303550Y-106011658D01*
X130213842Y-105921950D01*
X130100804Y-105864354D01*
X130091015Y-105862804D01*
X130091013Y-105862803D01*
X129985293Y-105846059D01*
X129975500Y-105844508D01*
X129965707Y-105846059D01*
X129859987Y-105862803D01*
X129859985Y-105862804D01*
X129850196Y-105864354D01*
X129737158Y-105921950D01*
X129647450Y-106011658D01*
X129589854Y-106124696D01*
X129570008Y-106250000D01*
X128405492Y-106250000D01*
X128385646Y-106124696D01*
X128328050Y-106011658D01*
X128238342Y-105921950D01*
X128125304Y-105864354D01*
X128115515Y-105862804D01*
X128115513Y-105862803D01*
X128009793Y-105846059D01*
X128000000Y-105844508D01*
X127990207Y-105846059D01*
X127884487Y-105862803D01*
X127884485Y-105862804D01*
X127874696Y-105864354D01*
X127761658Y-105921950D01*
X127671950Y-106011658D01*
X127614354Y-106124696D01*
X127594508Y-106250000D01*
X115001000Y-106250000D01*
X115001000Y-102500000D01*
X127594508Y-102500000D01*
X127596059Y-102509793D01*
X127612620Y-102614354D01*
X127614354Y-102625304D01*
X127671950Y-102738342D01*
X127761658Y-102828050D01*
X127874696Y-102885646D01*
X127884485Y-102887196D01*
X127884487Y-102887197D01*
X127990207Y-102903941D01*
X128000000Y-102905492D01*
X128009793Y-102903941D01*
X128115513Y-102887197D01*
X128115515Y-102887196D01*
X128125304Y-102885646D01*
X128238342Y-102828050D01*
X128328050Y-102738342D01*
X128385646Y-102625304D01*
X128387381Y-102614354D01*
X128403941Y-102509793D01*
X128405492Y-102500000D01*
X129070008Y-102500000D01*
X129071559Y-102509793D01*
X129088120Y-102614354D01*
X129089854Y-102625304D01*
X129147450Y-102738342D01*
X129237158Y-102828050D01*
X129350196Y-102885646D01*
X129359985Y-102887196D01*
X129359987Y-102887197D01*
X129465707Y-102903941D01*
X129475500Y-102905492D01*
X129485293Y-102903941D01*
X129591013Y-102887197D01*
X129591015Y-102887196D01*
X129600804Y-102885646D01*
X129713842Y-102828050D01*
X129803550Y-102738342D01*
X129861146Y-102625304D01*
X129862881Y-102614354D01*
X129879441Y-102509793D01*
X129880992Y-102500000D01*
X129868569Y-102421565D01*
X129862697Y-102384487D01*
X129862696Y-102384485D01*
X129861146Y-102374696D01*
X129803550Y-102261658D01*
X129713842Y-102171950D01*
X129600804Y-102114354D01*
X129591015Y-102112804D01*
X129591013Y-102112803D01*
X129485293Y-102096059D01*
X129475500Y-102094508D01*
X129465707Y-102096059D01*
X129359987Y-102112803D01*
X129359985Y-102112804D01*
X129350196Y-102114354D01*
X129237158Y-102171950D01*
X129147450Y-102261658D01*
X129089854Y-102374696D01*
X129088304Y-102384485D01*
X129088303Y-102384487D01*
X129082431Y-102421565D01*
X129070008Y-102500000D01*
X128405492Y-102500000D01*
X128393069Y-102421565D01*
X128387197Y-102384487D01*
X128387196Y-102384485D01*
X128385646Y-102374696D01*
X128328050Y-102261658D01*
X128238342Y-102171950D01*
X128125304Y-102114354D01*
X128115515Y-102112804D01*
X128115513Y-102112803D01*
X128009793Y-102096059D01*
X128000000Y-102094508D01*
X127990207Y-102096059D01*
X127884487Y-102112803D01*
X127884485Y-102112804D01*
X127874696Y-102114354D01*
X127761658Y-102171950D01*
X127671950Y-102261658D01*
X127614354Y-102374696D01*
X127612804Y-102384485D01*
X127612803Y-102384487D01*
X127606931Y-102421565D01*
X127594508Y-102500000D01*
X115001000Y-102500000D01*
X115001000Y-100000000D01*
X127594508Y-100000000D01*
X127614354Y-100125304D01*
X127671950Y-100238342D01*
X127761658Y-100328050D01*
X127874696Y-100385646D01*
X127884485Y-100387196D01*
X127884487Y-100387197D01*
X127990207Y-100403941D01*
X128000000Y-100405492D01*
X128009793Y-100403941D01*
X128115513Y-100387197D01*
X128115515Y-100387196D01*
X128125304Y-100385646D01*
X128238342Y-100328050D01*
X128328050Y-100238342D01*
X128385646Y-100125304D01*
X128405492Y-100000000D01*
X130619008Y-100000000D01*
X130638854Y-100125304D01*
X130696450Y-100238342D01*
X130786158Y-100328050D01*
X130899196Y-100385646D01*
X130908985Y-100387196D01*
X130908987Y-100387197D01*
X131014707Y-100403941D01*
X131024500Y-100405492D01*
X131146211Y-100386215D01*
X131146214Y-100386215D01*
X131149804Y-100385646D01*
X131149878Y-100386110D01*
X131213700Y-100384289D01*
X131274496Y-100420953D01*
X131305819Y-100484666D01*
X131306974Y-100519317D01*
X131294815Y-100635000D01*
X131295505Y-100641565D01*
X131307323Y-100754000D01*
X131313503Y-100812803D01*
X131368750Y-100982835D01*
X131458141Y-101137665D01*
X131462559Y-101142572D01*
X131462560Y-101142573D01*
X131538120Y-101226490D01*
X131577770Y-101270526D01*
X131722407Y-101375612D01*
X131728433Y-101378295D01*
X131728440Y-101378299D01*
X131799403Y-101409893D01*
X131853499Y-101455873D01*
X131874149Y-101523800D01*
X131854797Y-101592108D01*
X131799404Y-101640107D01*
X131728438Y-101671703D01*
X131728436Y-101671704D01*
X131722408Y-101674388D01*
X131717067Y-101678268D01*
X131717066Y-101678269D01*
X131683024Y-101703002D01*
X131577770Y-101779474D01*
X131573357Y-101784376D01*
X131573355Y-101784377D01*
X131475272Y-101893309D01*
X131458141Y-101912335D01*
X131368750Y-102067165D01*
X131313503Y-102237197D01*
X131294815Y-102415000D01*
X131295505Y-102421565D01*
X131302874Y-102491671D01*
X131313503Y-102592803D01*
X131368750Y-102762835D01*
X131458141Y-102917665D01*
X131462559Y-102922572D01*
X131462560Y-102922573D01*
X131541094Y-103009793D01*
X131577770Y-103050526D01*
X131583109Y-103054405D01*
X131683298Y-103127197D01*
X131722407Y-103155612D01*
X131728433Y-103158295D01*
X131728440Y-103158299D01*
X131799403Y-103189893D01*
X131853499Y-103235873D01*
X131874149Y-103303800D01*
X131854797Y-103372108D01*
X131799404Y-103420107D01*
X131728438Y-103451703D01*
X131728436Y-103451704D01*
X131722408Y-103454388D01*
X131577770Y-103559474D01*
X131573357Y-103564376D01*
X131573355Y-103564377D01*
X131476496Y-103671950D01*
X131458141Y-103692335D01*
X131454838Y-103698056D01*
X131408128Y-103778961D01*
X131368750Y-103847165D01*
X131366708Y-103853450D01*
X131322273Y-103990207D01*
X131313503Y-104017197D01*
X131312813Y-104023760D01*
X131312813Y-104023761D01*
X131297238Y-104171950D01*
X131294815Y-104195000D01*
X131295505Y-104201565D01*
X131312774Y-104365863D01*
X131313503Y-104372803D01*
X131368750Y-104542835D01*
X131458141Y-104697665D01*
X131462559Y-104702572D01*
X131462560Y-104702573D01*
X131501080Y-104745353D01*
X131577770Y-104830526D01*
X131583109Y-104834405D01*
X131683298Y-104907197D01*
X131722407Y-104935612D01*
X131728433Y-104938295D01*
X131728440Y-104938299D01*
X131799403Y-104969893D01*
X131853499Y-105015873D01*
X131874149Y-105083800D01*
X131854797Y-105152108D01*
X131799404Y-105200107D01*
X131728438Y-105231703D01*
X131728436Y-105231704D01*
X131722408Y-105234388D01*
X131717067Y-105238268D01*
X131717066Y-105238269D01*
X131660179Y-105279600D01*
X131577770Y-105339474D01*
X131458141Y-105472335D01*
X131368750Y-105627165D01*
X131313503Y-105797197D01*
X131312813Y-105803760D01*
X131312813Y-105803761D01*
X131302284Y-105903941D01*
X131294815Y-105975000D01*
X131295505Y-105981565D01*
X131302874Y-106051671D01*
X131313503Y-106152803D01*
X131368750Y-106322835D01*
X131458141Y-106477665D01*
X131462559Y-106482572D01*
X131462560Y-106482573D01*
X131542216Y-106571039D01*
X131577770Y-106610526D01*
X131583109Y-106614405D01*
X131683298Y-106687197D01*
X131722407Y-106715612D01*
X131728433Y-106718295D01*
X131728440Y-106718299D01*
X131799403Y-106749893D01*
X131853499Y-106795873D01*
X131874149Y-106863800D01*
X131854797Y-106932108D01*
X131799404Y-106980107D01*
X131728438Y-107011703D01*
X131728436Y-107011704D01*
X131722408Y-107014388D01*
X131577770Y-107119474D01*
X131458141Y-107252335D01*
X131454838Y-107258056D01*
X131404030Y-107346059D01*
X131368750Y-107407165D01*
X131313503Y-107577197D01*
X131312813Y-107583760D01*
X131312813Y-107583761D01*
X131302081Y-107685873D01*
X131294815Y-107755000D01*
X131295505Y-107761565D01*
X131307460Y-107875304D01*
X131313503Y-107932803D01*
X131368750Y-108102835D01*
X131372053Y-108108557D01*
X131372054Y-108108558D01*
X131391555Y-108142335D01*
X131458141Y-108257665D01*
X131462559Y-108262572D01*
X131462560Y-108262573D01*
X131554205Y-108364354D01*
X131577770Y-108390526D01*
X131583109Y-108394405D01*
X131683298Y-108467197D01*
X131722407Y-108495612D01*
X131728433Y-108498295D01*
X131728440Y-108498299D01*
X131799403Y-108529893D01*
X131853499Y-108575873D01*
X131874149Y-108643800D01*
X131854797Y-108712108D01*
X131799404Y-108760107D01*
X131728438Y-108791703D01*
X131728436Y-108791704D01*
X131722408Y-108794388D01*
X131717067Y-108798268D01*
X131717066Y-108798269D01*
X131596846Y-108885614D01*
X131577770Y-108899474D01*
X131573357Y-108904376D01*
X131573355Y-108904377D01*
X131493739Y-108992799D01*
X131458141Y-109032335D01*
X131454838Y-109038056D01*
X131385019Y-109158987D01*
X131368750Y-109187165D01*
X131357585Y-109221527D01*
X131335525Y-109289422D01*
X131313503Y-109357197D01*
X131312813Y-109363760D01*
X131312813Y-109363761D01*
X131300647Y-109479509D01*
X131294815Y-109535000D01*
X131313503Y-109712803D01*
X131368750Y-109882835D01*
X131458141Y-110037665D01*
X131462559Y-110042572D01*
X131462560Y-110042573D01*
X131565298Y-110156674D01*
X131577770Y-110170526D01*
X131722407Y-110275612D01*
X131728433Y-110278295D01*
X131728440Y-110278299D01*
X131799403Y-110309893D01*
X131853499Y-110355873D01*
X131874149Y-110423800D01*
X131854797Y-110492108D01*
X131799404Y-110540107D01*
X131728438Y-110571703D01*
X131728436Y-110571704D01*
X131722408Y-110574388D01*
X131577770Y-110679474D01*
X131573357Y-110684376D01*
X131573355Y-110684377D01*
X131474839Y-110793790D01*
X131458141Y-110812335D01*
X131368750Y-110967165D01*
X131313503Y-111137197D01*
X131312813Y-111143760D01*
X131312813Y-111143761D01*
X131297786Y-111286737D01*
X131294815Y-111315000D01*
X131295505Y-111321565D01*
X131302874Y-111391671D01*
X131313503Y-111492803D01*
X131315543Y-111499080D01*
X131315543Y-111499082D01*
X131341202Y-111578050D01*
X131368750Y-111662835D01*
X131458141Y-111817665D01*
X131577770Y-111950526D01*
X131583109Y-111954405D01*
X131683298Y-112027197D01*
X131722407Y-112055612D01*
X131728433Y-112058295D01*
X131728440Y-112058299D01*
X131799403Y-112089893D01*
X131853499Y-112135873D01*
X131874149Y-112203800D01*
X131854797Y-112272108D01*
X131799404Y-112320107D01*
X131728438Y-112351703D01*
X131728436Y-112351704D01*
X131722408Y-112354388D01*
X131577770Y-112459474D01*
X131573357Y-112464376D01*
X131573355Y-112464377D01*
X131551316Y-112488854D01*
X131458141Y-112592335D01*
X131368750Y-112747165D01*
X131313503Y-112917197D01*
X131312813Y-112923760D01*
X131312813Y-112923761D01*
X131301277Y-113033523D01*
X131294815Y-113095000D01*
X131295505Y-113101565D01*
X131299885Y-113143233D01*
X131313503Y-113272803D01*
X131368750Y-113442835D01*
X131458141Y-113597665D01*
X131462559Y-113602572D01*
X131462560Y-113602573D01*
X131531341Y-113678961D01*
X131577770Y-113730526D01*
X131583109Y-113734405D01*
X131632777Y-113770491D01*
X131722407Y-113835612D01*
X131728435Y-113838296D01*
X131728437Y-113838297D01*
X131879702Y-113905644D01*
X131885733Y-113908329D01*
X131973171Y-113926915D01*
X132054152Y-113944128D01*
X132054156Y-113944128D01*
X132060609Y-113945500D01*
X132239391Y-113945500D01*
X132245844Y-113944128D01*
X132245848Y-113944128D01*
X132326829Y-113926915D01*
X132414267Y-113908329D01*
X132420298Y-113905644D01*
X132571563Y-113838297D01*
X132571565Y-113838296D01*
X132577593Y-113835612D01*
X132667224Y-113770491D01*
X132716891Y-113734405D01*
X132722230Y-113730526D01*
X132768660Y-113678961D01*
X132837440Y-113602573D01*
X132837441Y-113602572D01*
X132841859Y-113597665D01*
X132931250Y-113442835D01*
X132953167Y-113375382D01*
X132993241Y-113316776D01*
X133058637Y-113289139D01*
X133128594Y-113301246D01*
X133180900Y-113349252D01*
X133199000Y-113414318D01*
X133199000Y-116764802D01*
X133198918Y-116765000D01*
X133199000Y-116765198D01*
X133199235Y-116765765D01*
X133200000Y-116766082D01*
X133200198Y-116766000D01*
X141799802Y-116766000D01*
X141800000Y-116766082D01*
X141800765Y-116765765D01*
X141801000Y-116765198D01*
X141801082Y-116765000D01*
X141801000Y-116764802D01*
X141801000Y-114848941D01*
X141821002Y-114780820D01*
X141874658Y-114734327D01*
X141944932Y-114724223D01*
X142009512Y-114753717D01*
X142031763Y-114778938D01*
X142041496Y-114793504D01*
X142051815Y-114800399D01*
X142080958Y-114819872D01*
X142080960Y-114819873D01*
X142091278Y-114826767D01*
X142135180Y-114835500D01*
X143564820Y-114835500D01*
X143608722Y-114826767D01*
X143619040Y-114819873D01*
X143619042Y-114819872D01*
X143648185Y-114800399D01*
X143658504Y-114793504D01*
X143668235Y-114778941D01*
X143684872Y-114754042D01*
X143684873Y-114754040D01*
X143691767Y-114743722D01*
X143700500Y-114699820D01*
X143700500Y-114000000D01*
X147844508Y-114000000D01*
X147864354Y-114125304D01*
X147921950Y-114238342D01*
X148011658Y-114328050D01*
X148124696Y-114385646D01*
X148134485Y-114387196D01*
X148134487Y-114387197D01*
X148240207Y-114403941D01*
X148250000Y-114405492D01*
X148259793Y-114403941D01*
X148365513Y-114387197D01*
X148365515Y-114387196D01*
X148375304Y-114385646D01*
X148488342Y-114328050D01*
X148578050Y-114238342D01*
X148635646Y-114125304D01*
X148655492Y-114000000D01*
X148635646Y-113874696D01*
X148578050Y-113761658D01*
X148488342Y-113671950D01*
X148375304Y-113614354D01*
X148365515Y-113612804D01*
X148365513Y-113612803D01*
X148259793Y-113596059D01*
X148250000Y-113594508D01*
X148240207Y-113596059D01*
X148134487Y-113612803D01*
X148134485Y-113612804D01*
X148124696Y-113614354D01*
X148011658Y-113671950D01*
X147921950Y-113761658D01*
X147864354Y-113874696D01*
X147844508Y-114000000D01*
X143700500Y-114000000D01*
X143700500Y-113270180D01*
X143691767Y-113226278D01*
X143684873Y-113215960D01*
X143684872Y-113215958D01*
X143665399Y-113186815D01*
X143658504Y-113176496D01*
X143625429Y-113154396D01*
X143619042Y-113150128D01*
X143619040Y-113150127D01*
X143608722Y-113143233D01*
X143564820Y-113134500D01*
X143405398Y-113134500D01*
X143337277Y-113114498D01*
X143290784Y-113060842D01*
X143280680Y-112990568D01*
X143310174Y-112925988D01*
X143331337Y-112906564D01*
X143361991Y-112884293D01*
X143375470Y-112874500D01*
X150344508Y-112874500D01*
X150364354Y-112999804D01*
X150421950Y-113112842D01*
X150511658Y-113202550D01*
X150624696Y-113260146D01*
X150634485Y-113261696D01*
X150634487Y-113261697D01*
X150740207Y-113278441D01*
X150750000Y-113279992D01*
X150759793Y-113278441D01*
X150865513Y-113261697D01*
X150865515Y-113261696D01*
X150875304Y-113260146D01*
X150988342Y-113202550D01*
X151078050Y-113112842D01*
X151135646Y-112999804D01*
X151155492Y-112874500D01*
X151153941Y-112864707D01*
X151137197Y-112758987D01*
X151137196Y-112758985D01*
X151135646Y-112749196D01*
X151078050Y-112636158D01*
X150988342Y-112546450D01*
X150875304Y-112488854D01*
X150865515Y-112487304D01*
X150865513Y-112487303D01*
X150759793Y-112470559D01*
X150750000Y-112469008D01*
X150740207Y-112470559D01*
X150634487Y-112487303D01*
X150634485Y-112487304D01*
X150624696Y-112488854D01*
X150511658Y-112546450D01*
X150421950Y-112636158D01*
X150364354Y-112749196D01*
X150362804Y-112758985D01*
X150362803Y-112758987D01*
X150346059Y-112864707D01*
X150344508Y-112874500D01*
X143375470Y-112874500D01*
X143422230Y-112840526D01*
X143495649Y-112758987D01*
X143537440Y-112712573D01*
X143537441Y-112712572D01*
X143541859Y-112707665D01*
X143631250Y-112552835D01*
X143686497Y-112382803D01*
X143697127Y-112281671D01*
X143704495Y-112211565D01*
X143705185Y-112205000D01*
X143697919Y-112135873D01*
X143687187Y-112033761D01*
X143687187Y-112033760D01*
X143686497Y-112027197D01*
X143631250Y-111857165D01*
X143541859Y-111702335D01*
X143478617Y-111632098D01*
X143447900Y-111568090D01*
X143456663Y-111497637D01*
X143482054Y-111466532D01*
X143479937Y-111464840D01*
X143499623Y-111440212D01*
X143492554Y-111426764D01*
X142862812Y-110797022D01*
X142848868Y-110789408D01*
X142847035Y-110789539D01*
X142840420Y-110793790D01*
X142206724Y-111427486D01*
X142200294Y-111439261D01*
X142221299Y-111466411D01*
X142218935Y-111468240D01*
X142244349Y-111500038D01*
X142251654Y-111570658D01*
X142221383Y-111632098D01*
X142158141Y-111702335D01*
X142068750Y-111857165D01*
X142066708Y-111863450D01*
X142046833Y-111924618D01*
X142006759Y-111983224D01*
X141941363Y-112010861D01*
X141871406Y-111998754D01*
X141819100Y-111950748D01*
X141801000Y-111885682D01*
X141801000Y-111166980D01*
X141821002Y-111098859D01*
X141837905Y-111077885D01*
X142477978Y-110437812D01*
X142484356Y-110426132D01*
X143214408Y-110426132D01*
X143214539Y-110427965D01*
X143218790Y-110434580D01*
X143852486Y-111068276D01*
X143864261Y-111074706D01*
X143876276Y-111065410D01*
X143897001Y-111035811D01*
X143902479Y-111026323D01*
X143987159Y-110844723D01*
X143990907Y-110834429D01*
X144042769Y-110640878D01*
X144044671Y-110630091D01*
X144062135Y-110430475D01*
X144062135Y-110419525D01*
X144047304Y-110250000D01*
X151594508Y-110250000D01*
X151596059Y-110259793D01*
X151610082Y-110348329D01*
X151614354Y-110375304D01*
X151671950Y-110488342D01*
X151761658Y-110578050D01*
X151874696Y-110635646D01*
X151884485Y-110637196D01*
X151884487Y-110637197D01*
X151990207Y-110653941D01*
X152000000Y-110655492D01*
X152009793Y-110653941D01*
X152115513Y-110637197D01*
X152115515Y-110637196D01*
X152125304Y-110635646D01*
X152238342Y-110578050D01*
X152316392Y-110500000D01*
X156919953Y-110500000D01*
X156938092Y-110672576D01*
X156991714Y-110837611D01*
X157078478Y-110987889D01*
X157082899Y-110992799D01*
X157171235Y-111090906D01*
X157194590Y-111116845D01*
X157334976Y-111218842D01*
X157341004Y-111221526D01*
X157341006Y-111221527D01*
X157426953Y-111259793D01*
X157493501Y-111289422D01*
X157578368Y-111307461D01*
X157656779Y-111324128D01*
X157656783Y-111324128D01*
X157663236Y-111325500D01*
X157836764Y-111325500D01*
X157843217Y-111324128D01*
X157843221Y-111324128D01*
X157921631Y-111307461D01*
X158006499Y-111289422D01*
X158073047Y-111259793D01*
X158158994Y-111221527D01*
X158158996Y-111221526D01*
X158165024Y-111218842D01*
X158305410Y-111116845D01*
X158328766Y-111090906D01*
X158417101Y-110992799D01*
X158421522Y-110987889D01*
X158508286Y-110837611D01*
X158561908Y-110672576D01*
X158580047Y-110500000D01*
X158579218Y-110492108D01*
X158567869Y-110384137D01*
X158561908Y-110327424D01*
X158508286Y-110162389D01*
X158421522Y-110012111D01*
X158305410Y-109883155D01*
X158210487Y-109814189D01*
X158170366Y-109785039D01*
X158170365Y-109785038D01*
X158165024Y-109781158D01*
X158158996Y-109778474D01*
X158158994Y-109778473D01*
X158012530Y-109713263D01*
X158012529Y-109713263D01*
X158006499Y-109710578D01*
X157921631Y-109692539D01*
X157843221Y-109675872D01*
X157843217Y-109675872D01*
X157836764Y-109674500D01*
X157663236Y-109674500D01*
X157656783Y-109675872D01*
X157656779Y-109675872D01*
X157578369Y-109692539D01*
X157493501Y-109710578D01*
X157487472Y-109713262D01*
X157487470Y-109713263D01*
X157341007Y-109778473D01*
X157341005Y-109778474D01*
X157334977Y-109781158D01*
X157329636Y-109785038D01*
X157329635Y-109785039D01*
X157234281Y-109854318D01*
X157194590Y-109883155D01*
X157078478Y-110012111D01*
X156991714Y-110162389D01*
X156938092Y-110327424D01*
X156932131Y-110384137D01*
X156920783Y-110492108D01*
X156919953Y-110500000D01*
X152316392Y-110500000D01*
X152328050Y-110488342D01*
X152385646Y-110375304D01*
X152389919Y-110348329D01*
X152403941Y-110259793D01*
X152405492Y-110250000D01*
X152385646Y-110124696D01*
X152328050Y-110011658D01*
X152238342Y-109921950D01*
X152125304Y-109864354D01*
X152115515Y-109862804D01*
X152115513Y-109862803D01*
X152009793Y-109846059D01*
X152000000Y-109844508D01*
X151990207Y-109846059D01*
X151884487Y-109862803D01*
X151884485Y-109862804D01*
X151874696Y-109864354D01*
X151761658Y-109921950D01*
X151671950Y-110011658D01*
X151614354Y-110124696D01*
X151594508Y-110250000D01*
X144047304Y-110250000D01*
X144044671Y-110219909D01*
X144042769Y-110209122D01*
X143990907Y-110015571D01*
X143987159Y-110005277D01*
X143902479Y-109823677D01*
X143897001Y-109814189D01*
X143875689Y-109783752D01*
X143865212Y-109775377D01*
X143851764Y-109782446D01*
X143222022Y-110412188D01*
X143214408Y-110426132D01*
X142484356Y-110426132D01*
X142485592Y-110423868D01*
X142485461Y-110422035D01*
X142481210Y-110415420D01*
X141837905Y-109772115D01*
X141803879Y-109709803D01*
X141801000Y-109683020D01*
X141801000Y-108964318D01*
X141821002Y-108896197D01*
X141874658Y-108849704D01*
X141944932Y-108839600D01*
X142009512Y-108869094D01*
X142046833Y-108925382D01*
X142068750Y-108992835D01*
X142072053Y-108998557D01*
X142072054Y-108998558D01*
X142094858Y-109038056D01*
X142158141Y-109147665D01*
X142162559Y-109152572D01*
X142162560Y-109152573D01*
X142221383Y-109217902D01*
X142252100Y-109281910D01*
X142243337Y-109352363D01*
X142217946Y-109383468D01*
X142220063Y-109385160D01*
X142200377Y-109409788D01*
X142207446Y-109423236D01*
X142837188Y-110052978D01*
X142851132Y-110060592D01*
X142852965Y-110060461D01*
X142859580Y-110056210D01*
X143493276Y-109422514D01*
X143499706Y-109410739D01*
X143478701Y-109383589D01*
X143481065Y-109381760D01*
X143455651Y-109349962D01*
X143448346Y-109279342D01*
X143462803Y-109250000D01*
X146844508Y-109250000D01*
X146846059Y-109259793D01*
X146860721Y-109352363D01*
X146864354Y-109375304D01*
X146921950Y-109488342D01*
X147011658Y-109578050D01*
X147124696Y-109635646D01*
X147134485Y-109637196D01*
X147134487Y-109637197D01*
X147240207Y-109653941D01*
X147250000Y-109655492D01*
X147259793Y-109653941D01*
X147365513Y-109637197D01*
X147365515Y-109637196D01*
X147375304Y-109635646D01*
X147488342Y-109578050D01*
X147578050Y-109488342D01*
X147635646Y-109375304D01*
X147639280Y-109352363D01*
X147651612Y-109274500D01*
X154844508Y-109274500D01*
X154846059Y-109284293D01*
X154862035Y-109385160D01*
X154864354Y-109399804D01*
X154921950Y-109512842D01*
X155011658Y-109602550D01*
X155124696Y-109660146D01*
X155134485Y-109661696D01*
X155134487Y-109661697D01*
X155240207Y-109678441D01*
X155250000Y-109679992D01*
X155259793Y-109678441D01*
X155365513Y-109661697D01*
X155365515Y-109661696D01*
X155375304Y-109660146D01*
X155488342Y-109602550D01*
X155578050Y-109512842D01*
X155635646Y-109399804D01*
X155637966Y-109385160D01*
X155653941Y-109284293D01*
X155655492Y-109274500D01*
X155635646Y-109149196D01*
X155578050Y-109036158D01*
X155488342Y-108946450D01*
X155375304Y-108888854D01*
X155365515Y-108887304D01*
X155365513Y-108887303D01*
X155259793Y-108870559D01*
X155250000Y-108869008D01*
X155240207Y-108870559D01*
X155134487Y-108887303D01*
X155134485Y-108887304D01*
X155124696Y-108888854D01*
X155011658Y-108946450D01*
X154921950Y-109036158D01*
X154864354Y-109149196D01*
X154844508Y-109274500D01*
X147651612Y-109274500D01*
X147653941Y-109259793D01*
X147655492Y-109250000D01*
X147650057Y-109215682D01*
X147637197Y-109134487D01*
X147637196Y-109134485D01*
X147635646Y-109124696D01*
X147578050Y-109011658D01*
X147488342Y-108921950D01*
X147375304Y-108864354D01*
X147365515Y-108862804D01*
X147365513Y-108862803D01*
X147259793Y-108846059D01*
X147250000Y-108844508D01*
X147240207Y-108846059D01*
X147134487Y-108862803D01*
X147134485Y-108862804D01*
X147124696Y-108864354D01*
X147011658Y-108921950D01*
X146921950Y-109011658D01*
X146864354Y-109124696D01*
X146862804Y-109134485D01*
X146862803Y-109134487D01*
X146849943Y-109215682D01*
X146844508Y-109250000D01*
X143462803Y-109250000D01*
X143478617Y-109217902D01*
X143537440Y-109152573D01*
X143537441Y-109152572D01*
X143541859Y-109147665D01*
X143605142Y-109038056D01*
X143627946Y-108998558D01*
X143627947Y-108998557D01*
X143631250Y-108992835D01*
X143686497Y-108822803D01*
X143694149Y-108750000D01*
X153344508Y-108750000D01*
X153346059Y-108759793D01*
X153362620Y-108864354D01*
X153364354Y-108875304D01*
X153421950Y-108988342D01*
X153511658Y-109078050D01*
X153624696Y-109135646D01*
X153634485Y-109137196D01*
X153634487Y-109137197D01*
X153740207Y-109153941D01*
X153750000Y-109155492D01*
X153759793Y-109153941D01*
X153865513Y-109137197D01*
X153865515Y-109137196D01*
X153875304Y-109135646D01*
X153988342Y-109078050D01*
X154078050Y-108988342D01*
X154135646Y-108875304D01*
X154137381Y-108864354D01*
X154153941Y-108759793D01*
X154155492Y-108750000D01*
X154145118Y-108684500D01*
X154137197Y-108634487D01*
X154137196Y-108634485D01*
X154135646Y-108624696D01*
X154078050Y-108511658D01*
X154066392Y-108500000D01*
X156919953Y-108500000D01*
X156938092Y-108672576D01*
X156940132Y-108678855D01*
X156940133Y-108678859D01*
X156960066Y-108740207D01*
X156991714Y-108837611D01*
X157078478Y-108987889D01*
X157194590Y-109116845D01*
X157334976Y-109218842D01*
X157341004Y-109221526D01*
X157341006Y-109221527D01*
X157481981Y-109284293D01*
X157493501Y-109289422D01*
X157578369Y-109307461D01*
X157656779Y-109324128D01*
X157656783Y-109324128D01*
X157663236Y-109325500D01*
X157836764Y-109325500D01*
X157843217Y-109324128D01*
X157843221Y-109324128D01*
X157921631Y-109307461D01*
X158006499Y-109289422D01*
X158018019Y-109284293D01*
X158158994Y-109221527D01*
X158158996Y-109221526D01*
X158165024Y-109218842D01*
X158305410Y-109116845D01*
X158421522Y-108987889D01*
X158508286Y-108837611D01*
X158539934Y-108740207D01*
X158559867Y-108678859D01*
X158559868Y-108678855D01*
X158561908Y-108672576D01*
X158580047Y-108500000D01*
X158561908Y-108327424D01*
X158554816Y-108305595D01*
X158535807Y-108247092D01*
X158508286Y-108162389D01*
X158421522Y-108012111D01*
X158305410Y-107883155D01*
X158165024Y-107781158D01*
X158158996Y-107778474D01*
X158158994Y-107778473D01*
X158012530Y-107713263D01*
X158012529Y-107713263D01*
X158006499Y-107710578D01*
X157921631Y-107692539D01*
X157843221Y-107675872D01*
X157843217Y-107675872D01*
X157836764Y-107674500D01*
X157663236Y-107674500D01*
X157656783Y-107675872D01*
X157656779Y-107675872D01*
X157578369Y-107692539D01*
X157493501Y-107710578D01*
X157487472Y-107713262D01*
X157487470Y-107713263D01*
X157341007Y-107778473D01*
X157341005Y-107778474D01*
X157334977Y-107781158D01*
X157329636Y-107785038D01*
X157329635Y-107785039D01*
X157265452Y-107831671D01*
X157194590Y-107883155D01*
X157078478Y-108012111D01*
X156991714Y-108162389D01*
X156964193Y-108247092D01*
X156945185Y-108305595D01*
X156938092Y-108327424D01*
X156919953Y-108500000D01*
X154066392Y-108500000D01*
X153988342Y-108421950D01*
X153875304Y-108364354D01*
X153876294Y-108362412D01*
X153828542Y-108329759D01*
X153800905Y-108264362D01*
X153813012Y-108194405D01*
X153861019Y-108142100D01*
X153875068Y-108135683D01*
X153875304Y-108135646D01*
X153988342Y-108078050D01*
X154078050Y-107988342D01*
X154135646Y-107875304D01*
X154144072Y-107822108D01*
X154153941Y-107759793D01*
X154155492Y-107750000D01*
X154150028Y-107715500D01*
X154137197Y-107634487D01*
X154137196Y-107634485D01*
X154135646Y-107624696D01*
X154078050Y-107511658D01*
X153988342Y-107421950D01*
X153875304Y-107364354D01*
X153865515Y-107362804D01*
X153865513Y-107362803D01*
X153759793Y-107346059D01*
X153750000Y-107344508D01*
X153740207Y-107346059D01*
X153634487Y-107362803D01*
X153634485Y-107362804D01*
X153624696Y-107364354D01*
X153511658Y-107421950D01*
X153421950Y-107511658D01*
X153364354Y-107624696D01*
X153362804Y-107634485D01*
X153362803Y-107634487D01*
X153349972Y-107715500D01*
X153344508Y-107750000D01*
X153346059Y-107759793D01*
X153355929Y-107822108D01*
X153364354Y-107875304D01*
X153421950Y-107988342D01*
X153511658Y-108078050D01*
X153623367Y-108134969D01*
X153624696Y-108135646D01*
X153623706Y-108137588D01*
X153671458Y-108170241D01*
X153699095Y-108235638D01*
X153686988Y-108305595D01*
X153638981Y-108357900D01*
X153624932Y-108364317D01*
X153624696Y-108364354D01*
X153511658Y-108421950D01*
X153421950Y-108511658D01*
X153364354Y-108624696D01*
X153362804Y-108634485D01*
X153362803Y-108634487D01*
X153354882Y-108684500D01*
X153344508Y-108750000D01*
X143694149Y-108750000D01*
X143697127Y-108721671D01*
X143704495Y-108651565D01*
X143705185Y-108645000D01*
X143697919Y-108575873D01*
X143687187Y-108473761D01*
X143687187Y-108473760D01*
X143686497Y-108467197D01*
X143631250Y-108297165D01*
X143595728Y-108235638D01*
X143545162Y-108148056D01*
X143541859Y-108142335D01*
X143488028Y-108082550D01*
X143426645Y-108014377D01*
X143426643Y-108014376D01*
X143422230Y-108009474D01*
X143325345Y-107939082D01*
X143282935Y-107908269D01*
X143282933Y-107908268D01*
X143277593Y-107904388D01*
X143271567Y-107901705D01*
X143271560Y-107901701D01*
X143200597Y-107870107D01*
X143146501Y-107824127D01*
X143125851Y-107756200D01*
X143145203Y-107687892D01*
X143200597Y-107639893D01*
X143271560Y-107608299D01*
X143271567Y-107608295D01*
X143277593Y-107605612D01*
X143316703Y-107577197D01*
X143416891Y-107504405D01*
X143422230Y-107500526D01*
X143492981Y-107421950D01*
X143537440Y-107372573D01*
X143537441Y-107372572D01*
X143541859Y-107367665D01*
X143631250Y-107212835D01*
X143686497Y-107042803D01*
X143697127Y-106941671D01*
X143704495Y-106871565D01*
X143705185Y-106865000D01*
X143697919Y-106795873D01*
X143687187Y-106693761D01*
X143687187Y-106693760D01*
X143686497Y-106687197D01*
X143676196Y-106655492D01*
X143633292Y-106523450D01*
X143631250Y-106517165D01*
X143621340Y-106500000D01*
X156919953Y-106500000D01*
X156938092Y-106672576D01*
X156940132Y-106678855D01*
X156940133Y-106678859D01*
X156944975Y-106693761D01*
X156991714Y-106837611D01*
X157078478Y-106987889D01*
X157194590Y-107116845D01*
X157204957Y-107124377D01*
X157318058Y-107206550D01*
X157334976Y-107218842D01*
X157341004Y-107221526D01*
X157341006Y-107221527D01*
X157487470Y-107286737D01*
X157493501Y-107289422D01*
X157578369Y-107307461D01*
X157656779Y-107324128D01*
X157656783Y-107324128D01*
X157663236Y-107325500D01*
X157836764Y-107325500D01*
X157843217Y-107324128D01*
X157843221Y-107324128D01*
X157921632Y-107307461D01*
X158006499Y-107289422D01*
X158012530Y-107286737D01*
X158158994Y-107221527D01*
X158158996Y-107221526D01*
X158165024Y-107218842D01*
X158181943Y-107206550D01*
X158295043Y-107124377D01*
X158305410Y-107116845D01*
X158421522Y-106987889D01*
X158508286Y-106837611D01*
X158555025Y-106693761D01*
X158559867Y-106678859D01*
X158559868Y-106678855D01*
X158561908Y-106672576D01*
X158580047Y-106500000D01*
X158561908Y-106327424D01*
X158551152Y-106294318D01*
X158528822Y-106225595D01*
X158508286Y-106162389D01*
X158421522Y-106012111D01*
X158382196Y-105968435D01*
X158309832Y-105888066D01*
X158309831Y-105888065D01*
X158305410Y-105883155D01*
X158187100Y-105797197D01*
X158170366Y-105785039D01*
X158170365Y-105785038D01*
X158165024Y-105781158D01*
X158158996Y-105778474D01*
X158158994Y-105778473D01*
X158012530Y-105713263D01*
X158012529Y-105713263D01*
X158006499Y-105710578D01*
X157921632Y-105692539D01*
X157843221Y-105675872D01*
X157843217Y-105675872D01*
X157836764Y-105674500D01*
X157663236Y-105674500D01*
X157656783Y-105675872D01*
X157656779Y-105675872D01*
X157578368Y-105692539D01*
X157493501Y-105710578D01*
X157487472Y-105713262D01*
X157487470Y-105713263D01*
X157341007Y-105778473D01*
X157341005Y-105778474D01*
X157334977Y-105781158D01*
X157329636Y-105785038D01*
X157329635Y-105785039D01*
X157270436Y-105828050D01*
X157194590Y-105883155D01*
X157190169Y-105888065D01*
X157190168Y-105888066D01*
X157117804Y-105968435D01*
X157078478Y-106012111D01*
X156991714Y-106162389D01*
X156971178Y-106225595D01*
X156948849Y-106294318D01*
X156938092Y-106327424D01*
X156919953Y-106500000D01*
X143621340Y-106500000D01*
X143617550Y-106493435D01*
X143545162Y-106368056D01*
X143541859Y-106362335D01*
X143480616Y-106294318D01*
X143426645Y-106234377D01*
X143426643Y-106234376D01*
X143422230Y-106229474D01*
X143338540Y-106168669D01*
X143282935Y-106128269D01*
X143282933Y-106128268D01*
X143277593Y-106124388D01*
X143271567Y-106121705D01*
X143271560Y-106121701D01*
X143200597Y-106090107D01*
X143146501Y-106044127D01*
X143125851Y-105976200D01*
X143145203Y-105907892D01*
X143200597Y-105859893D01*
X143271560Y-105828299D01*
X143271567Y-105828295D01*
X143277593Y-105825612D01*
X143316703Y-105797197D01*
X143416891Y-105724405D01*
X143422230Y-105720526D01*
X143431188Y-105710578D01*
X143537440Y-105592573D01*
X143537441Y-105592572D01*
X143541859Y-105587665D01*
X143592472Y-105500000D01*
X150320008Y-105500000D01*
X150321559Y-105509793D01*
X150333893Y-105587665D01*
X150339854Y-105625304D01*
X150397450Y-105738342D01*
X150487158Y-105828050D01*
X150600196Y-105885646D01*
X150609985Y-105887196D01*
X150609987Y-105887197D01*
X150715707Y-105903941D01*
X150725500Y-105905492D01*
X150735293Y-105903941D01*
X150841013Y-105887197D01*
X150841015Y-105887196D01*
X150850804Y-105885646D01*
X150963842Y-105828050D01*
X151053550Y-105738342D01*
X151111146Y-105625304D01*
X151117108Y-105587665D01*
X151129441Y-105509793D01*
X151130992Y-105500000D01*
X151129441Y-105490207D01*
X151112697Y-105384487D01*
X151112696Y-105384485D01*
X151111146Y-105374696D01*
X151053550Y-105261658D01*
X150963842Y-105171950D01*
X150850804Y-105114354D01*
X150851794Y-105112412D01*
X150804042Y-105079759D01*
X150776405Y-105014362D01*
X150788512Y-104944405D01*
X150836519Y-104892100D01*
X150850568Y-104885683D01*
X150850804Y-104885646D01*
X150963842Y-104828050D01*
X151053550Y-104738342D01*
X151111146Y-104625304D01*
X151117046Y-104588056D01*
X151129441Y-104509793D01*
X151130992Y-104500000D01*
X156919953Y-104500000D01*
X156938092Y-104672576D01*
X156940132Y-104678855D01*
X156940133Y-104678859D01*
X156947838Y-104702573D01*
X156991714Y-104837611D01*
X157078478Y-104987889D01*
X157194590Y-105116845D01*
X157270435Y-105171950D01*
X157309190Y-105200107D01*
X157334976Y-105218842D01*
X157341004Y-105221526D01*
X157341006Y-105221527D01*
X157450981Y-105270491D01*
X157493501Y-105289422D01*
X157578368Y-105307461D01*
X157656779Y-105324128D01*
X157656783Y-105324128D01*
X157663236Y-105325500D01*
X157836764Y-105325500D01*
X157843217Y-105324128D01*
X157843221Y-105324128D01*
X157921632Y-105307461D01*
X158006499Y-105289422D01*
X158049019Y-105270491D01*
X158158994Y-105221527D01*
X158158996Y-105221526D01*
X158165024Y-105218842D01*
X158190811Y-105200107D01*
X158229565Y-105171950D01*
X158305410Y-105116845D01*
X158421522Y-104987889D01*
X158508286Y-104837611D01*
X158552162Y-104702573D01*
X158559867Y-104678859D01*
X158559868Y-104678855D01*
X158561908Y-104672576D01*
X158580047Y-104500000D01*
X158561908Y-104327424D01*
X158559834Y-104321039D01*
X158528728Y-104225304D01*
X158508286Y-104162389D01*
X158421522Y-104012111D01*
X158360560Y-103944405D01*
X158309832Y-103888066D01*
X158309831Y-103888065D01*
X158305410Y-103883155D01*
X158165024Y-103781158D01*
X158158996Y-103778474D01*
X158158994Y-103778473D01*
X158012530Y-103713263D01*
X158012529Y-103713263D01*
X158006499Y-103710578D01*
X157920672Y-103692335D01*
X157843221Y-103675872D01*
X157843217Y-103675872D01*
X157836764Y-103674500D01*
X157663236Y-103674500D01*
X157656783Y-103675872D01*
X157656779Y-103675872D01*
X157579328Y-103692335D01*
X157493501Y-103710578D01*
X157487472Y-103713262D01*
X157487470Y-103713263D01*
X157341007Y-103778473D01*
X157341005Y-103778474D01*
X157334977Y-103781158D01*
X157329636Y-103785038D01*
X157329635Y-103785039D01*
X157204876Y-103875682D01*
X157194590Y-103883155D01*
X157190169Y-103888065D01*
X157190168Y-103888066D01*
X157139440Y-103944405D01*
X157078478Y-104012111D01*
X156991714Y-104162389D01*
X156971272Y-104225304D01*
X156940167Y-104321039D01*
X156938092Y-104327424D01*
X156919953Y-104500000D01*
X151130992Y-104500000D01*
X151122990Y-104449474D01*
X151112697Y-104384487D01*
X151112696Y-104384485D01*
X151111146Y-104374696D01*
X151053550Y-104261658D01*
X150963842Y-104171950D01*
X150850804Y-104114354D01*
X150841015Y-104112804D01*
X150841013Y-104112803D01*
X150735293Y-104096059D01*
X150725500Y-104094508D01*
X150715707Y-104096059D01*
X150609987Y-104112803D01*
X150609985Y-104112804D01*
X150600196Y-104114354D01*
X150487158Y-104171950D01*
X150397450Y-104261658D01*
X150339854Y-104374696D01*
X150338304Y-104384485D01*
X150338303Y-104384487D01*
X150328010Y-104449474D01*
X150320008Y-104500000D01*
X150321559Y-104509793D01*
X150333955Y-104588056D01*
X150339854Y-104625304D01*
X150397450Y-104738342D01*
X150487158Y-104828050D01*
X150556191Y-104863224D01*
X150600196Y-104885646D01*
X150599206Y-104887588D01*
X150646958Y-104920241D01*
X150674595Y-104985638D01*
X150662488Y-105055595D01*
X150614481Y-105107900D01*
X150600432Y-105114317D01*
X150600196Y-105114354D01*
X150487158Y-105171950D01*
X150397450Y-105261658D01*
X150339854Y-105374696D01*
X150338304Y-105384485D01*
X150338303Y-105384487D01*
X150321559Y-105490207D01*
X150320008Y-105500000D01*
X143592472Y-105500000D01*
X143631250Y-105432835D01*
X143686497Y-105262803D01*
X143691526Y-105214961D01*
X143704495Y-105091565D01*
X143705185Y-105085000D01*
X143697761Y-105014362D01*
X143687187Y-104913761D01*
X143687187Y-104913760D01*
X143686497Y-104907197D01*
X143631250Y-104737165D01*
X143541859Y-104582335D01*
X143472669Y-104505492D01*
X143426645Y-104454377D01*
X143426643Y-104454376D01*
X143422230Y-104449474D01*
X143319308Y-104374696D01*
X143282935Y-104348269D01*
X143282933Y-104348268D01*
X143277593Y-104344388D01*
X143271567Y-104341705D01*
X143271560Y-104341701D01*
X143200597Y-104310107D01*
X143146501Y-104264127D01*
X143125851Y-104196200D01*
X143145203Y-104127892D01*
X143200597Y-104079893D01*
X143271560Y-104048299D01*
X143271567Y-104048295D01*
X143277593Y-104045612D01*
X143316703Y-104017197D01*
X143340372Y-104000000D01*
X145344508Y-104000000D01*
X145346059Y-104009793D01*
X145362620Y-104114354D01*
X145364354Y-104125304D01*
X145421950Y-104238342D01*
X145511658Y-104328050D01*
X145624696Y-104385646D01*
X145634485Y-104387196D01*
X145634487Y-104387197D01*
X145740207Y-104403941D01*
X145750000Y-104405492D01*
X145759793Y-104403941D01*
X145865513Y-104387197D01*
X145865515Y-104387196D01*
X145875304Y-104385646D01*
X145988342Y-104328050D01*
X146078050Y-104238342D01*
X146135646Y-104125304D01*
X146137381Y-104114354D01*
X146139654Y-104100000D01*
X146894508Y-104100000D01*
X146896059Y-104109793D01*
X146908515Y-104188435D01*
X146914354Y-104225304D01*
X146971950Y-104338342D01*
X147061658Y-104428050D01*
X147174696Y-104485646D01*
X147184485Y-104487196D01*
X147184487Y-104487197D01*
X147290207Y-104503941D01*
X147300000Y-104505492D01*
X147309793Y-104503941D01*
X147415513Y-104487197D01*
X147415515Y-104487196D01*
X147425304Y-104485646D01*
X147538342Y-104428050D01*
X147628050Y-104338342D01*
X147685646Y-104225304D01*
X147691486Y-104188435D01*
X147703941Y-104109793D01*
X147705492Y-104100000D01*
X147702307Y-104079893D01*
X147687197Y-103984487D01*
X147687196Y-103984485D01*
X147685646Y-103974696D01*
X147628050Y-103861658D01*
X147538342Y-103771950D01*
X147425304Y-103714354D01*
X147415515Y-103712804D01*
X147415513Y-103712803D01*
X147309793Y-103696059D01*
X147300000Y-103694508D01*
X147290207Y-103696059D01*
X147184487Y-103712803D01*
X147184485Y-103712804D01*
X147174696Y-103714354D01*
X147061658Y-103771950D01*
X146971950Y-103861658D01*
X146914354Y-103974696D01*
X146912804Y-103984485D01*
X146912803Y-103984487D01*
X146897693Y-104079893D01*
X146894508Y-104100000D01*
X146139654Y-104100000D01*
X146153941Y-104009793D01*
X146155492Y-104000000D01*
X146146687Y-103944405D01*
X146137197Y-103884487D01*
X146137196Y-103884485D01*
X146135646Y-103874696D01*
X146078050Y-103761658D01*
X145988342Y-103671950D01*
X145875304Y-103614354D01*
X145876294Y-103612412D01*
X145828542Y-103579759D01*
X145800905Y-103514362D01*
X145813012Y-103444405D01*
X145861019Y-103392100D01*
X145875068Y-103385683D01*
X145875304Y-103385646D01*
X145988342Y-103328050D01*
X146078050Y-103238342D01*
X146135646Y-103125304D01*
X146147455Y-103050748D01*
X146153941Y-103009793D01*
X146155492Y-103000000D01*
X146142452Y-102917665D01*
X146137197Y-102884487D01*
X146137196Y-102884485D01*
X146135646Y-102874696D01*
X146078050Y-102761658D01*
X145988342Y-102671950D01*
X145875304Y-102614354D01*
X145865515Y-102612804D01*
X145865513Y-102612803D01*
X145759793Y-102596059D01*
X145750000Y-102594508D01*
X145740207Y-102596059D01*
X145634487Y-102612803D01*
X145634485Y-102612804D01*
X145624696Y-102614354D01*
X145511658Y-102671950D01*
X145421950Y-102761658D01*
X145364354Y-102874696D01*
X145362804Y-102884485D01*
X145362803Y-102884487D01*
X145357548Y-102917665D01*
X145344508Y-103000000D01*
X145346059Y-103009793D01*
X145352546Y-103050748D01*
X145364354Y-103125304D01*
X145421950Y-103238342D01*
X145511658Y-103328050D01*
X145602089Y-103374127D01*
X145624696Y-103385646D01*
X145623706Y-103387588D01*
X145671458Y-103420241D01*
X145699095Y-103485638D01*
X145686988Y-103555595D01*
X145638981Y-103607900D01*
X145624932Y-103614317D01*
X145624696Y-103614354D01*
X145511658Y-103671950D01*
X145421950Y-103761658D01*
X145364354Y-103874696D01*
X145362804Y-103884485D01*
X145362803Y-103884487D01*
X145353313Y-103944405D01*
X145344508Y-104000000D01*
X143340372Y-104000000D01*
X143416891Y-103944405D01*
X143422230Y-103940526D01*
X143469466Y-103888066D01*
X143537440Y-103812573D01*
X143537441Y-103812572D01*
X143541859Y-103807665D01*
X143631250Y-103652835D01*
X143686497Y-103482803D01*
X143697127Y-103381671D01*
X143704495Y-103311565D01*
X143705185Y-103305000D01*
X143697251Y-103229509D01*
X143687187Y-103133761D01*
X143687187Y-103133760D01*
X143686497Y-103127197D01*
X143683134Y-103116845D01*
X143633292Y-102963450D01*
X143631250Y-102957165D01*
X143541859Y-102802335D01*
X143513187Y-102770491D01*
X143478617Y-102732098D01*
X143447900Y-102668090D01*
X143456663Y-102597637D01*
X143482054Y-102566532D01*
X143479937Y-102564840D01*
X143499623Y-102540212D01*
X143492554Y-102526764D01*
X142862812Y-101897022D01*
X142848868Y-101889408D01*
X142847035Y-101889539D01*
X142840420Y-101893790D01*
X142206724Y-102527486D01*
X142200294Y-102539261D01*
X142221299Y-102566411D01*
X142218935Y-102568240D01*
X142244349Y-102600038D01*
X142251654Y-102670658D01*
X142221383Y-102732098D01*
X142186814Y-102770491D01*
X142158141Y-102802335D01*
X142068750Y-102957165D01*
X142066708Y-102963450D01*
X142046833Y-103024618D01*
X142006759Y-103083224D01*
X141941363Y-103110861D01*
X141871406Y-103098754D01*
X141819100Y-103050748D01*
X141801000Y-102985682D01*
X141801000Y-102266980D01*
X141821002Y-102198859D01*
X141837905Y-102177885D01*
X142477978Y-101537812D01*
X142484356Y-101526132D01*
X143214408Y-101526132D01*
X143214539Y-101527965D01*
X143218790Y-101534580D01*
X143852486Y-102168276D01*
X143864261Y-102174706D01*
X143876276Y-102165410D01*
X143897001Y-102135811D01*
X143902479Y-102126323D01*
X143987159Y-101944723D01*
X143990907Y-101934429D01*
X144042769Y-101740878D01*
X144044671Y-101730091D01*
X144062135Y-101530475D01*
X144062135Y-101519525D01*
X144044671Y-101319909D01*
X144042769Y-101309122D01*
X144018800Y-101219669D01*
X156567001Y-101219669D01*
X156567371Y-101226490D01*
X156572895Y-101277352D01*
X156576521Y-101292604D01*
X156621676Y-101413054D01*
X156630214Y-101428649D01*
X156706715Y-101530724D01*
X156719276Y-101543285D01*
X156821351Y-101619786D01*
X156836946Y-101628324D01*
X156957394Y-101673478D01*
X156972649Y-101677105D01*
X157023514Y-101682631D01*
X157030328Y-101683000D01*
X157091810Y-101683000D01*
X157159931Y-101703002D01*
X157206424Y-101756658D01*
X157216528Y-101826932D01*
X157185448Y-101893309D01*
X157078478Y-102012111D01*
X156991714Y-102162389D01*
X156938092Y-102327424D01*
X156919953Y-102500000D01*
X156938092Y-102672576D01*
X156940132Y-102678855D01*
X156940133Y-102678859D01*
X156945502Y-102695382D01*
X156991714Y-102837611D01*
X157078478Y-102987889D01*
X157194590Y-103116845D01*
X157334976Y-103218842D01*
X157341004Y-103221526D01*
X157341006Y-103221527D01*
X157439771Y-103265500D01*
X157493501Y-103289422D01*
X157572436Y-103306200D01*
X157656779Y-103324128D01*
X157656783Y-103324128D01*
X157663236Y-103325500D01*
X157836764Y-103325500D01*
X157843217Y-103324128D01*
X157843221Y-103324128D01*
X157927564Y-103306200D01*
X158006499Y-103289422D01*
X158060229Y-103265500D01*
X158158994Y-103221527D01*
X158158996Y-103221526D01*
X158165024Y-103218842D01*
X158305410Y-103116845D01*
X158421522Y-102987889D01*
X158508286Y-102837611D01*
X158554498Y-102695382D01*
X158559867Y-102678859D01*
X158559868Y-102678855D01*
X158561908Y-102672576D01*
X158580047Y-102500000D01*
X158561908Y-102327424D01*
X158508286Y-102162389D01*
X158421522Y-102012111D01*
X158314551Y-101893307D01*
X158283835Y-101829301D01*
X158292600Y-101758848D01*
X158338063Y-101704317D01*
X158408189Y-101682999D01*
X158469669Y-101682999D01*
X158476490Y-101682629D01*
X158527352Y-101677105D01*
X158542604Y-101673479D01*
X158663054Y-101628324D01*
X158678649Y-101619786D01*
X158780724Y-101543285D01*
X158793285Y-101530724D01*
X158869786Y-101428649D01*
X158878324Y-101413054D01*
X158923478Y-101292606D01*
X158927105Y-101277351D01*
X158932631Y-101226486D01*
X158933000Y-101219672D01*
X158933000Y-100772115D01*
X158928525Y-100756876D01*
X158927135Y-100755671D01*
X158919452Y-100754000D01*
X156585116Y-100754000D01*
X156569877Y-100758475D01*
X156568672Y-100759865D01*
X156567001Y-100767548D01*
X156567001Y-101219669D01*
X144018800Y-101219669D01*
X143990907Y-101115571D01*
X143987159Y-101105277D01*
X143902479Y-100923677D01*
X143897001Y-100914189D01*
X143875689Y-100883752D01*
X143865212Y-100875377D01*
X143851764Y-100882446D01*
X143222022Y-101512188D01*
X143214408Y-101526132D01*
X142484356Y-101526132D01*
X142485592Y-101523868D01*
X142485461Y-101522035D01*
X142481210Y-101515420D01*
X141837905Y-100872115D01*
X141803879Y-100809803D01*
X141801000Y-100783020D01*
X141801000Y-100509788D01*
X142200377Y-100509788D01*
X142207446Y-100523236D01*
X142837188Y-101152978D01*
X142851132Y-101160592D01*
X142852965Y-101160461D01*
X142859580Y-101156210D01*
X143493276Y-100522514D01*
X143499706Y-100510739D01*
X143490410Y-100498724D01*
X143460811Y-100477999D01*
X143451323Y-100472521D01*
X143269723Y-100387841D01*
X143259429Y-100384093D01*
X143065878Y-100332231D01*
X143055091Y-100330329D01*
X142855475Y-100312865D01*
X142844525Y-100312865D01*
X142644909Y-100330329D01*
X142634122Y-100332231D01*
X142440571Y-100384093D01*
X142430277Y-100387841D01*
X142248677Y-100472521D01*
X142239189Y-100477999D01*
X142208752Y-100499311D01*
X142200377Y-100509788D01*
X141801000Y-100509788D01*
X141801000Y-100227885D01*
X156567000Y-100227885D01*
X156571475Y-100243124D01*
X156572865Y-100244329D01*
X156580548Y-100246000D01*
X157477885Y-100246000D01*
X157493124Y-100241525D01*
X157494329Y-100240135D01*
X157496000Y-100232452D01*
X157496000Y-100227885D01*
X158004000Y-100227885D01*
X158008475Y-100243124D01*
X158009865Y-100244329D01*
X158017548Y-100246000D01*
X158914884Y-100246000D01*
X158930123Y-100241525D01*
X158931328Y-100240135D01*
X158932999Y-100232452D01*
X158932999Y-99780331D01*
X158932629Y-99773510D01*
X158927105Y-99722648D01*
X158923479Y-99707396D01*
X158875172Y-99578538D01*
X158877451Y-99577684D01*
X158865074Y-99521095D01*
X158889809Y-99454547D01*
X158946597Y-99411935D01*
X158990504Y-99403988D01*
X159000000Y-99405492D01*
X159009793Y-99403941D01*
X159115513Y-99387197D01*
X159115515Y-99387196D01*
X159125304Y-99385646D01*
X159238342Y-99328050D01*
X159328050Y-99238342D01*
X159385646Y-99125304D01*
X159391507Y-99088303D01*
X159403941Y-99009793D01*
X159405492Y-99000000D01*
X159387626Y-98887197D01*
X159387197Y-98884487D01*
X159387196Y-98884485D01*
X159385646Y-98874696D01*
X159328050Y-98761658D01*
X159238342Y-98671950D01*
X159125304Y-98614354D01*
X159115515Y-98612804D01*
X159115513Y-98612803D01*
X159009793Y-98596059D01*
X159000000Y-98594508D01*
X158990207Y-98596059D01*
X158884487Y-98612803D01*
X158884485Y-98612804D01*
X158874696Y-98614354D01*
X158761658Y-98671950D01*
X158671950Y-98761658D01*
X158614354Y-98874696D01*
X158612804Y-98884485D01*
X158612803Y-98884487D01*
X158612374Y-98887197D01*
X158594508Y-99000000D01*
X158596059Y-99009793D01*
X158608494Y-99088303D01*
X158614354Y-99125304D01*
X158618854Y-99134135D01*
X158618855Y-99134139D01*
X158620236Y-99136849D01*
X158620921Y-99140496D01*
X158621920Y-99143571D01*
X158621522Y-99143700D01*
X158633338Y-99206626D01*
X158606635Y-99272410D01*
X158548607Y-99313314D01*
X158494357Y-99319311D01*
X158476481Y-99317369D01*
X158469672Y-99317000D01*
X158022115Y-99317000D01*
X158006876Y-99321475D01*
X158005671Y-99322865D01*
X158004000Y-99330548D01*
X158004000Y-100227885D01*
X157496000Y-100227885D01*
X157496000Y-99335116D01*
X157491525Y-99319877D01*
X157490135Y-99318672D01*
X157482452Y-99317001D01*
X157030331Y-99317001D01*
X157023510Y-99317371D01*
X156972648Y-99322895D01*
X156957396Y-99326521D01*
X156836946Y-99371676D01*
X156821351Y-99380214D01*
X156719276Y-99456715D01*
X156706715Y-99469276D01*
X156630214Y-99571351D01*
X156621676Y-99586946D01*
X156576522Y-99707394D01*
X156572895Y-99722649D01*
X156567369Y-99773514D01*
X156567000Y-99780328D01*
X156567000Y-100227885D01*
X141801000Y-100227885D01*
X141801000Y-99505198D01*
X141801082Y-99505000D01*
X141800765Y-99504235D01*
X141800198Y-99504000D01*
X141800000Y-99503918D01*
X141799802Y-99504000D01*
X133200198Y-99504000D01*
X133200000Y-99503918D01*
X133199802Y-99504000D01*
X133199235Y-99504235D01*
X133198918Y-99505000D01*
X133199000Y-99505198D01*
X133199000Y-100315682D01*
X133178998Y-100383803D01*
X133125342Y-100430296D01*
X133055068Y-100440400D01*
X132990488Y-100410906D01*
X132953167Y-100354618D01*
X132933292Y-100293450D01*
X132931250Y-100287165D01*
X132907484Y-100246000D01*
X132845162Y-100138056D01*
X132841859Y-100132335D01*
X132835528Y-100125304D01*
X132726645Y-100004377D01*
X132726643Y-100004376D01*
X132722230Y-99999474D01*
X132577593Y-99894388D01*
X132571565Y-99891704D01*
X132571563Y-99891703D01*
X132420298Y-99824356D01*
X132420297Y-99824356D01*
X132414267Y-99821671D01*
X132326829Y-99803085D01*
X132245848Y-99785872D01*
X132245844Y-99785872D01*
X132239391Y-99784500D01*
X132060609Y-99784500D01*
X132054156Y-99785872D01*
X132054152Y-99785872D01*
X131973171Y-99803085D01*
X131885733Y-99821671D01*
X131879703Y-99824356D01*
X131879702Y-99824356D01*
X131728438Y-99891703D01*
X131728436Y-99891704D01*
X131722408Y-99894388D01*
X131717067Y-99898268D01*
X131717066Y-99898269D01*
X131611513Y-99974958D01*
X131544645Y-99998817D01*
X131475494Y-99982736D01*
X131426013Y-99931822D01*
X131413004Y-99892734D01*
X131411699Y-99884493D01*
X131411696Y-99884485D01*
X131410146Y-99874696D01*
X131352550Y-99761658D01*
X131262842Y-99671950D01*
X131149804Y-99614354D01*
X131140015Y-99612804D01*
X131140013Y-99612803D01*
X131034293Y-99596059D01*
X131024500Y-99594508D01*
X131014707Y-99596059D01*
X130908987Y-99612803D01*
X130908985Y-99612804D01*
X130899196Y-99614354D01*
X130786158Y-99671950D01*
X130696450Y-99761658D01*
X130638854Y-99874696D01*
X130619008Y-100000000D01*
X128405492Y-100000000D01*
X128385646Y-99874696D01*
X128328050Y-99761658D01*
X128238342Y-99671950D01*
X128125304Y-99614354D01*
X128115515Y-99612804D01*
X128115513Y-99612803D01*
X128009793Y-99596059D01*
X128000000Y-99594508D01*
X127990207Y-99596059D01*
X127884487Y-99612803D01*
X127884485Y-99612804D01*
X127874696Y-99614354D01*
X127761658Y-99671950D01*
X127671950Y-99761658D01*
X127614354Y-99874696D01*
X127594508Y-100000000D01*
X115001000Y-100000000D01*
X115001000Y-99475500D01*
X128594508Y-99475500D01*
X128596059Y-99485293D01*
X128600336Y-99512294D01*
X128614354Y-99600804D01*
X128671950Y-99713842D01*
X128761658Y-99803550D01*
X128874696Y-99861146D01*
X128884485Y-99862696D01*
X128884487Y-99862697D01*
X128990207Y-99879441D01*
X129000000Y-99880992D01*
X129009793Y-99879441D01*
X129115513Y-99862697D01*
X129115515Y-99862696D01*
X129125304Y-99861146D01*
X129238342Y-99803550D01*
X129328050Y-99713842D01*
X129385646Y-99600804D01*
X129399665Y-99512294D01*
X129403941Y-99485293D01*
X129405492Y-99475500D01*
X129402173Y-99454547D01*
X129387197Y-99359987D01*
X129387196Y-99359985D01*
X129385646Y-99350196D01*
X129328050Y-99237158D01*
X129238342Y-99147450D01*
X129125304Y-99089854D01*
X129115515Y-99088304D01*
X129115513Y-99088303D01*
X129009793Y-99071559D01*
X129000000Y-99070008D01*
X128990207Y-99071559D01*
X128884487Y-99088303D01*
X128884485Y-99088304D01*
X128874696Y-99089854D01*
X128761658Y-99147450D01*
X128671950Y-99237158D01*
X128614354Y-99350196D01*
X128612804Y-99359985D01*
X128612803Y-99359987D01*
X128597827Y-99454547D01*
X128594508Y-99475500D01*
X115001000Y-99475500D01*
X115001000Y-98250000D01*
X128844508Y-98250000D01*
X128864354Y-98375304D01*
X128921950Y-98488342D01*
X129011658Y-98578050D01*
X129124696Y-98635646D01*
X129134485Y-98637196D01*
X129134487Y-98637197D01*
X129240207Y-98653941D01*
X129250000Y-98655492D01*
X129259793Y-98653941D01*
X129365513Y-98637197D01*
X129365515Y-98637196D01*
X129375304Y-98635646D01*
X129488342Y-98578050D01*
X129566392Y-98500000D01*
X134094508Y-98500000D01*
X134096059Y-98509793D01*
X134112620Y-98614354D01*
X134114354Y-98625304D01*
X134171950Y-98738342D01*
X134261658Y-98828050D01*
X134374696Y-98885646D01*
X134384485Y-98887196D01*
X134384487Y-98887197D01*
X134490207Y-98903941D01*
X134500000Y-98905492D01*
X134509793Y-98903941D01*
X134615513Y-98887197D01*
X134615515Y-98887196D01*
X134625304Y-98885646D01*
X134738342Y-98828050D01*
X134828050Y-98738342D01*
X134885646Y-98625304D01*
X134887381Y-98614354D01*
X134903941Y-98509793D01*
X134905492Y-98500000D01*
X136094508Y-98500000D01*
X136096059Y-98509793D01*
X136112620Y-98614354D01*
X136114354Y-98625304D01*
X136171950Y-98738342D01*
X136261658Y-98828050D01*
X136374696Y-98885646D01*
X136384485Y-98887196D01*
X136384487Y-98887197D01*
X136490207Y-98903941D01*
X136500000Y-98905492D01*
X136509793Y-98903941D01*
X136615513Y-98887197D01*
X136615515Y-98887196D01*
X136625304Y-98885646D01*
X136738342Y-98828050D01*
X136828050Y-98738342D01*
X136885646Y-98625304D01*
X136887381Y-98614354D01*
X136903941Y-98509793D01*
X136905492Y-98500000D01*
X138094508Y-98500000D01*
X138096059Y-98509793D01*
X138112620Y-98614354D01*
X138114354Y-98625304D01*
X138171950Y-98738342D01*
X138261658Y-98828050D01*
X138374696Y-98885646D01*
X138384485Y-98887196D01*
X138384487Y-98887197D01*
X138490207Y-98903941D01*
X138500000Y-98905492D01*
X138509793Y-98903941D01*
X138615513Y-98887197D01*
X138615515Y-98887196D01*
X138625304Y-98885646D01*
X138738342Y-98828050D01*
X138828050Y-98738342D01*
X138885646Y-98625304D01*
X138887381Y-98614354D01*
X138903941Y-98509793D01*
X138905492Y-98500000D01*
X138901289Y-98473465D01*
X138887197Y-98384487D01*
X138887196Y-98384485D01*
X138885646Y-98374696D01*
X138828050Y-98261658D01*
X138816392Y-98250000D01*
X139869819Y-98250000D01*
X139888426Y-98367482D01*
X139942427Y-98473465D01*
X140026535Y-98557573D01*
X140132518Y-98611574D01*
X140250000Y-98630181D01*
X140367482Y-98611574D01*
X140473465Y-98557573D01*
X140557573Y-98473465D01*
X140611574Y-98367482D01*
X140613125Y-98357689D01*
X140616190Y-98348256D01*
X140617806Y-98348781D01*
X140643302Y-98294990D01*
X140703568Y-98257460D01*
X140774557Y-98258469D01*
X140833732Y-98297697D01*
X140861792Y-98359134D01*
X140862802Y-98365508D01*
X140864354Y-98375304D01*
X140921950Y-98488342D01*
X141011658Y-98578050D01*
X141124696Y-98635646D01*
X141134485Y-98637196D01*
X141134487Y-98637197D01*
X141240207Y-98653941D01*
X141250000Y-98655492D01*
X141259793Y-98653941D01*
X141365513Y-98637197D01*
X141365515Y-98637196D01*
X141375304Y-98635646D01*
X141488342Y-98578050D01*
X141578050Y-98488342D01*
X141635646Y-98375304D01*
X141655492Y-98250000D01*
X141643130Y-98171950D01*
X141637197Y-98134487D01*
X141637196Y-98134485D01*
X141635646Y-98124696D01*
X141578050Y-98011658D01*
X141488342Y-97921950D01*
X141375304Y-97864354D01*
X141365515Y-97862804D01*
X141365513Y-97862803D01*
X141259793Y-97846059D01*
X141250000Y-97844508D01*
X141240207Y-97846059D01*
X141134487Y-97862803D01*
X141134485Y-97862804D01*
X141124696Y-97864354D01*
X141011658Y-97921950D01*
X140921950Y-98011658D01*
X140864354Y-98124696D01*
X140862803Y-98134489D01*
X140862802Y-98134492D01*
X140861792Y-98140866D01*
X140831378Y-98205018D01*
X140771109Y-98242543D01*
X140700120Y-98241528D01*
X140640949Y-98202294D01*
X140617650Y-98151270D01*
X140616190Y-98151744D01*
X140613125Y-98142310D01*
X140611574Y-98132518D01*
X140557573Y-98026535D01*
X140473465Y-97942427D01*
X140367482Y-97888426D01*
X140250000Y-97869819D01*
X140132518Y-97888426D01*
X140026535Y-97942427D01*
X139942427Y-98026535D01*
X139888426Y-98132518D01*
X139869819Y-98250000D01*
X138816392Y-98250000D01*
X138738342Y-98171950D01*
X138625304Y-98114354D01*
X138615515Y-98112804D01*
X138615513Y-98112803D01*
X138509793Y-98096059D01*
X138500000Y-98094508D01*
X138490207Y-98096059D01*
X138384487Y-98112803D01*
X138384485Y-98112804D01*
X138374696Y-98114354D01*
X138261658Y-98171950D01*
X138171950Y-98261658D01*
X138114354Y-98374696D01*
X138112804Y-98384485D01*
X138112803Y-98384487D01*
X138098711Y-98473465D01*
X138094508Y-98500000D01*
X136905492Y-98500000D01*
X136901289Y-98473465D01*
X136887197Y-98384487D01*
X136887196Y-98384485D01*
X136885646Y-98374696D01*
X136828050Y-98261658D01*
X136738342Y-98171950D01*
X136625304Y-98114354D01*
X136615515Y-98112804D01*
X136615513Y-98112803D01*
X136509793Y-98096059D01*
X136500000Y-98094508D01*
X136490207Y-98096059D01*
X136384487Y-98112803D01*
X136384485Y-98112804D01*
X136374696Y-98114354D01*
X136261658Y-98171950D01*
X136171950Y-98261658D01*
X136114354Y-98374696D01*
X136112804Y-98384485D01*
X136112803Y-98384487D01*
X136098711Y-98473465D01*
X136094508Y-98500000D01*
X134905492Y-98500000D01*
X134901289Y-98473465D01*
X134887197Y-98384487D01*
X134887196Y-98384485D01*
X134885646Y-98374696D01*
X134828050Y-98261658D01*
X134738342Y-98171950D01*
X134625304Y-98114354D01*
X134615515Y-98112804D01*
X134615513Y-98112803D01*
X134509793Y-98096059D01*
X134500000Y-98094508D01*
X134490207Y-98096059D01*
X134384487Y-98112803D01*
X134384485Y-98112804D01*
X134374696Y-98114354D01*
X134261658Y-98171950D01*
X134171950Y-98261658D01*
X134114354Y-98374696D01*
X134112804Y-98384485D01*
X134112803Y-98384487D01*
X134098711Y-98473465D01*
X134094508Y-98500000D01*
X129566392Y-98500000D01*
X129578050Y-98488342D01*
X129635646Y-98375304D01*
X129655492Y-98250000D01*
X129643130Y-98171950D01*
X129637197Y-98134487D01*
X129637196Y-98134485D01*
X129635646Y-98124696D01*
X129578050Y-98011658D01*
X129488342Y-97921950D01*
X129375304Y-97864354D01*
X129376294Y-97862412D01*
X129328542Y-97829759D01*
X129300905Y-97764362D01*
X129313012Y-97694405D01*
X129361019Y-97642100D01*
X129375068Y-97635683D01*
X129375304Y-97635646D01*
X129488342Y-97578050D01*
X129578050Y-97488342D01*
X129597082Y-97450989D01*
X132094508Y-97450989D01*
X132114354Y-97576293D01*
X132171950Y-97689331D01*
X132261658Y-97779039D01*
X132374696Y-97836635D01*
X132384485Y-97838185D01*
X132384487Y-97838186D01*
X132490207Y-97854930D01*
X132500000Y-97856481D01*
X132509793Y-97854930D01*
X132615513Y-97838186D01*
X132615515Y-97838185D01*
X132625304Y-97836635D01*
X132738342Y-97779039D01*
X132828050Y-97689331D01*
X132885646Y-97576293D01*
X132905492Y-97450989D01*
X132897385Y-97399804D01*
X132887197Y-97335476D01*
X132887196Y-97335474D01*
X132885646Y-97325685D01*
X132859566Y-97274500D01*
X136094508Y-97274500D01*
X136096059Y-97284293D01*
X136111873Y-97384137D01*
X136114354Y-97399804D01*
X136171950Y-97512842D01*
X136261658Y-97602550D01*
X136374696Y-97660146D01*
X136384485Y-97661696D01*
X136384487Y-97661697D01*
X136490207Y-97678441D01*
X136500000Y-97679992D01*
X136509793Y-97678441D01*
X136615513Y-97661697D01*
X136615515Y-97661696D01*
X136625304Y-97660146D01*
X136738342Y-97602550D01*
X136828050Y-97512842D01*
X136859566Y-97450989D01*
X139143519Y-97450989D01*
X139163365Y-97576293D01*
X139220961Y-97689331D01*
X139310669Y-97779039D01*
X139423707Y-97836635D01*
X139433496Y-97838185D01*
X139433498Y-97838186D01*
X139539218Y-97854930D01*
X139549011Y-97856481D01*
X139558804Y-97854930D01*
X139664524Y-97838186D01*
X139664526Y-97838185D01*
X139674315Y-97836635D01*
X139787353Y-97779039D01*
X139877061Y-97689331D01*
X139934657Y-97576293D01*
X139954503Y-97450989D01*
X139946396Y-97399804D01*
X139936208Y-97335476D01*
X139936207Y-97335474D01*
X139934657Y-97325685D01*
X139877061Y-97212647D01*
X139787353Y-97122939D01*
X139674315Y-97065343D01*
X139664526Y-97063793D01*
X139664524Y-97063792D01*
X139558804Y-97047048D01*
X139549011Y-97045497D01*
X139539218Y-97047048D01*
X139433498Y-97063792D01*
X139433496Y-97063793D01*
X139423707Y-97065343D01*
X139310669Y-97122939D01*
X139220961Y-97212647D01*
X139163365Y-97325685D01*
X139161815Y-97335474D01*
X139161814Y-97335476D01*
X139151626Y-97399804D01*
X139143519Y-97450989D01*
X136859566Y-97450989D01*
X136885646Y-97399804D01*
X136888128Y-97384137D01*
X136903941Y-97284293D01*
X136905492Y-97274500D01*
X136885646Y-97149196D01*
X136828050Y-97036158D01*
X136738342Y-96946450D01*
X136625304Y-96888854D01*
X136615515Y-96887304D01*
X136615513Y-96887303D01*
X136509793Y-96870559D01*
X136500000Y-96869008D01*
X136490207Y-96870559D01*
X136384487Y-96887303D01*
X136384485Y-96887304D01*
X136374696Y-96888854D01*
X136261658Y-96946450D01*
X136171950Y-97036158D01*
X136114354Y-97149196D01*
X136094508Y-97274500D01*
X132859566Y-97274500D01*
X132828050Y-97212647D01*
X132738342Y-97122939D01*
X132625304Y-97065343D01*
X132615515Y-97063793D01*
X132615513Y-97063792D01*
X132509793Y-97047048D01*
X132500000Y-97045497D01*
X132490207Y-97047048D01*
X132384487Y-97063792D01*
X132384485Y-97063793D01*
X132374696Y-97065343D01*
X132261658Y-97122939D01*
X132171950Y-97212647D01*
X132114354Y-97325685D01*
X132112804Y-97335474D01*
X132112803Y-97335476D01*
X132102615Y-97399804D01*
X132094508Y-97450989D01*
X129597082Y-97450989D01*
X129635646Y-97375304D01*
X129655492Y-97250000D01*
X129640278Y-97153941D01*
X129637197Y-97134487D01*
X129637196Y-97134485D01*
X129635646Y-97124696D01*
X129578050Y-97011658D01*
X129488342Y-96921950D01*
X129375304Y-96864354D01*
X129365515Y-96862804D01*
X129365513Y-96862803D01*
X129259793Y-96846059D01*
X129250000Y-96844508D01*
X129240207Y-96846059D01*
X129134487Y-96862803D01*
X129134485Y-96862804D01*
X129124696Y-96864354D01*
X129011658Y-96921950D01*
X128921950Y-97011658D01*
X128864354Y-97124696D01*
X128862804Y-97134485D01*
X128862803Y-97134487D01*
X128859722Y-97153941D01*
X128844508Y-97250000D01*
X128864354Y-97375304D01*
X128921950Y-97488342D01*
X129011658Y-97578050D01*
X129123367Y-97634969D01*
X129124696Y-97635646D01*
X129123706Y-97637588D01*
X129171458Y-97670241D01*
X129199095Y-97735638D01*
X129186988Y-97805595D01*
X129138981Y-97857900D01*
X129124932Y-97864317D01*
X129124696Y-97864354D01*
X129011658Y-97921950D01*
X128921950Y-98011658D01*
X128864354Y-98124696D01*
X128862804Y-98134485D01*
X128862803Y-98134487D01*
X128856870Y-98171950D01*
X128844508Y-98250000D01*
X115001000Y-98250000D01*
X115001000Y-96750000D01*
X137094508Y-96750000D01*
X137096059Y-96759793D01*
X137112620Y-96864354D01*
X137114354Y-96875304D01*
X137171950Y-96988342D01*
X137261658Y-97078050D01*
X137374696Y-97135646D01*
X137384485Y-97137196D01*
X137384487Y-97137197D01*
X137490207Y-97153941D01*
X137500000Y-97155492D01*
X137509793Y-97153941D01*
X137615513Y-97137197D01*
X137615515Y-97137196D01*
X137625304Y-97135646D01*
X137738342Y-97078050D01*
X137828050Y-96988342D01*
X137885646Y-96875304D01*
X137887381Y-96864354D01*
X137903941Y-96759793D01*
X137905492Y-96750000D01*
X137887626Y-96637197D01*
X137887197Y-96634487D01*
X137887196Y-96634485D01*
X137885646Y-96624696D01*
X137828050Y-96511658D01*
X137738342Y-96421950D01*
X137625304Y-96364354D01*
X137615515Y-96362804D01*
X137615513Y-96362803D01*
X137509793Y-96346059D01*
X137500000Y-96344508D01*
X137490207Y-96346059D01*
X137384487Y-96362803D01*
X137384485Y-96362804D01*
X137374696Y-96364354D01*
X137261658Y-96421950D01*
X137171950Y-96511658D01*
X137114354Y-96624696D01*
X137112804Y-96634485D01*
X137112803Y-96634487D01*
X137112374Y-96637197D01*
X137094508Y-96750000D01*
X115001000Y-96750000D01*
X115001000Y-96250000D01*
X158594508Y-96250000D01*
X158596059Y-96259793D01*
X158612620Y-96364354D01*
X158614354Y-96375304D01*
X158671950Y-96488342D01*
X158761658Y-96578050D01*
X158874696Y-96635646D01*
X158884485Y-96637196D01*
X158884487Y-96637197D01*
X158990207Y-96653941D01*
X159000000Y-96655492D01*
X159009793Y-96653941D01*
X159115513Y-96637197D01*
X159115515Y-96637196D01*
X159125304Y-96635646D01*
X159238342Y-96578050D01*
X159328050Y-96488342D01*
X159385646Y-96375304D01*
X159387381Y-96364354D01*
X159403941Y-96259793D01*
X159405492Y-96250000D01*
X159387626Y-96137197D01*
X159387197Y-96134487D01*
X159387196Y-96134485D01*
X159385646Y-96124696D01*
X159328050Y-96011658D01*
X159238342Y-95921950D01*
X159125304Y-95864354D01*
X159115515Y-95862804D01*
X159115513Y-95862803D01*
X159009793Y-95846059D01*
X159000000Y-95844508D01*
X158990207Y-95846059D01*
X158884487Y-95862803D01*
X158884485Y-95862804D01*
X158874696Y-95864354D01*
X158761658Y-95921950D01*
X158671950Y-96011658D01*
X158614354Y-96124696D01*
X158612804Y-96134485D01*
X158612803Y-96134487D01*
X158612374Y-96137197D01*
X158594508Y-96250000D01*
X115001000Y-96250000D01*
X115001000Y-95500000D01*
X135538519Y-95500000D01*
X135558365Y-95625304D01*
X135615961Y-95738342D01*
X135705669Y-95828050D01*
X135818707Y-95885646D01*
X135828496Y-95887196D01*
X135828498Y-95887197D01*
X135934218Y-95903941D01*
X135944011Y-95905492D01*
X135953804Y-95903941D01*
X136059524Y-95887197D01*
X136059526Y-95887196D01*
X136069315Y-95885646D01*
X136182353Y-95828050D01*
X136272061Y-95738342D01*
X136329657Y-95625304D01*
X136349503Y-95500000D01*
X137344508Y-95500000D01*
X137364354Y-95625304D01*
X137421950Y-95738342D01*
X137511658Y-95828050D01*
X137624696Y-95885646D01*
X137634485Y-95887196D01*
X137634487Y-95887197D01*
X137740207Y-95903941D01*
X137750000Y-95905492D01*
X137759793Y-95903941D01*
X137865513Y-95887197D01*
X137865515Y-95887196D01*
X137875304Y-95885646D01*
X137988342Y-95828050D01*
X138066392Y-95750000D01*
X145844508Y-95750000D01*
X145846059Y-95759793D01*
X145862620Y-95864354D01*
X145864354Y-95875304D01*
X145921950Y-95988342D01*
X146011658Y-96078050D01*
X146124696Y-96135646D01*
X146134485Y-96137196D01*
X146134487Y-96137197D01*
X146240207Y-96153941D01*
X146250000Y-96155492D01*
X146259793Y-96153941D01*
X146365513Y-96137197D01*
X146365515Y-96137196D01*
X146375304Y-96135646D01*
X146488342Y-96078050D01*
X146578050Y-95988342D01*
X146635646Y-95875304D01*
X146637381Y-95864354D01*
X146653941Y-95759793D01*
X146655492Y-95750000D01*
X146635646Y-95624696D01*
X146578050Y-95511658D01*
X146488342Y-95421950D01*
X146375304Y-95364354D01*
X146376294Y-95362412D01*
X146328542Y-95329759D01*
X146300905Y-95264362D01*
X146313012Y-95194405D01*
X146361019Y-95142100D01*
X146375068Y-95135683D01*
X146375304Y-95135646D01*
X146488342Y-95078050D01*
X146578050Y-94988342D01*
X146635646Y-94875304D01*
X146637199Y-94865502D01*
X146653941Y-94759793D01*
X146655492Y-94750000D01*
X146635646Y-94624696D01*
X146578050Y-94511658D01*
X146488342Y-94421950D01*
X146375304Y-94364354D01*
X146365515Y-94362804D01*
X146365513Y-94362803D01*
X146259793Y-94346059D01*
X146250000Y-94344508D01*
X146240207Y-94346059D01*
X146134487Y-94362803D01*
X146134485Y-94362804D01*
X146124696Y-94364354D01*
X146011658Y-94421950D01*
X145921950Y-94511658D01*
X145864354Y-94624696D01*
X145844508Y-94750000D01*
X145846059Y-94759793D01*
X145862802Y-94865502D01*
X145864354Y-94875304D01*
X145921950Y-94988342D01*
X146011658Y-95078050D01*
X146115841Y-95131134D01*
X146124696Y-95135646D01*
X146123706Y-95137588D01*
X146171458Y-95170241D01*
X146199095Y-95235638D01*
X146186988Y-95305595D01*
X146138981Y-95357900D01*
X146124932Y-95364317D01*
X146124696Y-95364354D01*
X146011658Y-95421950D01*
X145921950Y-95511658D01*
X145864354Y-95624696D01*
X145844508Y-95750000D01*
X138066392Y-95750000D01*
X138078050Y-95738342D01*
X138135646Y-95625304D01*
X138155492Y-95500000D01*
X138143130Y-95421950D01*
X138137197Y-95384487D01*
X138137196Y-95384485D01*
X138135646Y-95374696D01*
X138099376Y-95303512D01*
X138086272Y-95233735D01*
X138112972Y-95167950D01*
X138171000Y-95127044D01*
X138241931Y-95124004D01*
X138253610Y-95128360D01*
X138253705Y-95128069D01*
X138263138Y-95131134D01*
X138271972Y-95135635D01*
X138281761Y-95137185D01*
X138281763Y-95137186D01*
X138387483Y-95153930D01*
X138397276Y-95155481D01*
X138407069Y-95153930D01*
X138512789Y-95137186D01*
X138512791Y-95137185D01*
X138522580Y-95135635D01*
X138635618Y-95078039D01*
X138725326Y-94988331D01*
X138782922Y-94875293D01*
X138790405Y-94828050D01*
X138801217Y-94759782D01*
X138802768Y-94749989D01*
X138799524Y-94729509D01*
X138784473Y-94634476D01*
X138784472Y-94634474D01*
X138782922Y-94624685D01*
X138725326Y-94511647D01*
X138635618Y-94421939D01*
X138522580Y-94364343D01*
X138512791Y-94362793D01*
X138512789Y-94362792D01*
X138407069Y-94346048D01*
X138397276Y-94344497D01*
X138387483Y-94346048D01*
X138281763Y-94362792D01*
X138281761Y-94362793D01*
X138271972Y-94364343D01*
X138158934Y-94421939D01*
X138069226Y-94511647D01*
X138011630Y-94624685D01*
X138010080Y-94634474D01*
X138010079Y-94634476D01*
X137995028Y-94729509D01*
X137991784Y-94749989D01*
X137993335Y-94759782D01*
X138004148Y-94828050D01*
X138011630Y-94875293D01*
X138026227Y-94903941D01*
X138047900Y-94946477D01*
X138061004Y-95016254D01*
X138034304Y-95082039D01*
X137976276Y-95122945D01*
X137905345Y-95125985D01*
X137893666Y-95121629D01*
X137893571Y-95121920D01*
X137884137Y-95118854D01*
X137875304Y-95114354D01*
X137865515Y-95112804D01*
X137865513Y-95112803D01*
X137759793Y-95096059D01*
X137750000Y-95094508D01*
X137740207Y-95096059D01*
X137634487Y-95112803D01*
X137634485Y-95112804D01*
X137624696Y-95114354D01*
X137511658Y-95171950D01*
X137421950Y-95261658D01*
X137364354Y-95374696D01*
X137362804Y-95384485D01*
X137362803Y-95384487D01*
X137356870Y-95421950D01*
X137344508Y-95500000D01*
X136349503Y-95500000D01*
X136337141Y-95421950D01*
X136331208Y-95384487D01*
X136331207Y-95384485D01*
X136329657Y-95374696D01*
X136272061Y-95261658D01*
X136182353Y-95171950D01*
X136069315Y-95114354D01*
X136059526Y-95112804D01*
X136059524Y-95112803D01*
X135953804Y-95096059D01*
X135944011Y-95094508D01*
X135934218Y-95096059D01*
X135828498Y-95112803D01*
X135828496Y-95112804D01*
X135818707Y-95114354D01*
X135705669Y-95171950D01*
X135615961Y-95261658D01*
X135558365Y-95374696D01*
X135556815Y-95384485D01*
X135556814Y-95384487D01*
X135550881Y-95421950D01*
X135538519Y-95500000D01*
X115001000Y-95500000D01*
X115001000Y-94500000D01*
X135139011Y-94500000D01*
X135158857Y-94625304D01*
X135216453Y-94738342D01*
X135306161Y-94828050D01*
X135419199Y-94885646D01*
X135428988Y-94887196D01*
X135428990Y-94887197D01*
X135534710Y-94903941D01*
X135544503Y-94905492D01*
X135554296Y-94903941D01*
X135660016Y-94887197D01*
X135660018Y-94887196D01*
X135669807Y-94885646D01*
X135782845Y-94828050D01*
X135872553Y-94738342D01*
X135930149Y-94625304D01*
X135949995Y-94500000D01*
X135937633Y-94421950D01*
X135931700Y-94384487D01*
X135931699Y-94384485D01*
X135930149Y-94374696D01*
X135872553Y-94261658D01*
X135782845Y-94171950D01*
X135774014Y-94167450D01*
X135774008Y-94167446D01*
X135721636Y-94140761D01*
X135670021Y-94092013D01*
X135652955Y-94023098D01*
X135660826Y-94000000D01*
X144594508Y-94000000D01*
X144596059Y-94009793D01*
X144612620Y-94114354D01*
X144614354Y-94125304D01*
X144671950Y-94238342D01*
X144761658Y-94328050D01*
X144874696Y-94385646D01*
X144884485Y-94387196D01*
X144884487Y-94387197D01*
X144990207Y-94403941D01*
X145000000Y-94405492D01*
X145009793Y-94403941D01*
X145115513Y-94387197D01*
X145115515Y-94387196D01*
X145125304Y-94385646D01*
X145238342Y-94328050D01*
X145328050Y-94238342D01*
X145385646Y-94125304D01*
X145387381Y-94114354D01*
X145403941Y-94009793D01*
X145405492Y-94000000D01*
X145387626Y-93887197D01*
X145387197Y-93884487D01*
X145387196Y-93884485D01*
X145385646Y-93874696D01*
X145328050Y-93761658D01*
X145238342Y-93671950D01*
X145125304Y-93614354D01*
X145115515Y-93612804D01*
X145115513Y-93612803D01*
X145009793Y-93596059D01*
X145000000Y-93594508D01*
X144990207Y-93596059D01*
X144884487Y-93612803D01*
X144884485Y-93612804D01*
X144874696Y-93614354D01*
X144761658Y-93671950D01*
X144671950Y-93761658D01*
X144614354Y-93874696D01*
X144612804Y-93884485D01*
X144612803Y-93884487D01*
X144612374Y-93887197D01*
X144594508Y-94000000D01*
X135660826Y-94000000D01*
X135675856Y-93955897D01*
X135731454Y-93911745D01*
X135759128Y-93904046D01*
X135814059Y-93895346D01*
X135865512Y-93887197D01*
X135865513Y-93887197D01*
X135875304Y-93885646D01*
X135988342Y-93828050D01*
X136078050Y-93738342D01*
X136135646Y-93625304D01*
X136137381Y-93614354D01*
X136153941Y-93509793D01*
X136155492Y-93500000D01*
X137369819Y-93500000D01*
X137388426Y-93617482D01*
X137442427Y-93723465D01*
X137526535Y-93807573D01*
X137632518Y-93861574D01*
X137750000Y-93880181D01*
X137867482Y-93861574D01*
X137973465Y-93807573D01*
X138057573Y-93723465D01*
X138111574Y-93617482D01*
X138122535Y-93548273D01*
X138844508Y-93548273D01*
X138846059Y-93558066D01*
X138856869Y-93626316D01*
X138864354Y-93673577D01*
X138921950Y-93786615D01*
X139011658Y-93876323D01*
X139124696Y-93933919D01*
X139134485Y-93935469D01*
X139134487Y-93935470D01*
X139240207Y-93952214D01*
X139250000Y-93953765D01*
X139259793Y-93952214D01*
X139365513Y-93935470D01*
X139365515Y-93935469D01*
X139375304Y-93933919D01*
X139488342Y-93876323D01*
X139578050Y-93786615D01*
X139635646Y-93673577D01*
X139643132Y-93626316D01*
X139653941Y-93558066D01*
X139655492Y-93548273D01*
X139653941Y-93538480D01*
X139647847Y-93500000D01*
X140869819Y-93500000D01*
X140888426Y-93617482D01*
X140942427Y-93723465D01*
X141026535Y-93807573D01*
X141132518Y-93861574D01*
X141250000Y-93880181D01*
X141367482Y-93861574D01*
X141473465Y-93807573D01*
X141557573Y-93723465D01*
X141611574Y-93617482D01*
X141613125Y-93607689D01*
X141616190Y-93598256D01*
X141617806Y-93598781D01*
X141643302Y-93544990D01*
X141703568Y-93507460D01*
X141774557Y-93508469D01*
X141833732Y-93547697D01*
X141861792Y-93609134D01*
X141862802Y-93615508D01*
X141864354Y-93625304D01*
X141921950Y-93738342D01*
X142011658Y-93828050D01*
X142124696Y-93885646D01*
X142134485Y-93887196D01*
X142134487Y-93887197D01*
X142240207Y-93903941D01*
X142250000Y-93905492D01*
X142259793Y-93903941D01*
X142365513Y-93887197D01*
X142365515Y-93887196D01*
X142375304Y-93885646D01*
X142488342Y-93828050D01*
X142578050Y-93738342D01*
X142635646Y-93625304D01*
X142637381Y-93614354D01*
X142653941Y-93509793D01*
X142655492Y-93500000D01*
X142647936Y-93452294D01*
X142637197Y-93384487D01*
X142637196Y-93384485D01*
X142635646Y-93374696D01*
X142578050Y-93261658D01*
X142488342Y-93171950D01*
X142375304Y-93114354D01*
X142376294Y-93112412D01*
X142328542Y-93079759D01*
X142300905Y-93014362D01*
X142313012Y-92944405D01*
X142361019Y-92892100D01*
X142375068Y-92885683D01*
X142375304Y-92885646D01*
X142488342Y-92828050D01*
X142578050Y-92738342D01*
X142635646Y-92625304D01*
X142655492Y-92500000D01*
X142653941Y-92490207D01*
X142637197Y-92384487D01*
X142637196Y-92384485D01*
X142635646Y-92374696D01*
X142578050Y-92261658D01*
X142488342Y-92171950D01*
X142375304Y-92114354D01*
X142365515Y-92112804D01*
X142365513Y-92112803D01*
X142259793Y-92096059D01*
X142250000Y-92094508D01*
X142240207Y-92096059D01*
X142134487Y-92112803D01*
X142134485Y-92112804D01*
X142124696Y-92114354D01*
X142011658Y-92171950D01*
X141921950Y-92261658D01*
X141864354Y-92374696D01*
X141862804Y-92384485D01*
X141862803Y-92384487D01*
X141846059Y-92490207D01*
X141844508Y-92500000D01*
X141864354Y-92625304D01*
X141921950Y-92738342D01*
X142011658Y-92828050D01*
X142106895Y-92876576D01*
X142124696Y-92885646D01*
X142123706Y-92887588D01*
X142171458Y-92920241D01*
X142199095Y-92985638D01*
X142186988Y-93055595D01*
X142138981Y-93107900D01*
X142124932Y-93114317D01*
X142124696Y-93114354D01*
X142011658Y-93171950D01*
X141921950Y-93261658D01*
X141864354Y-93374696D01*
X141862803Y-93384489D01*
X141862802Y-93384492D01*
X141861792Y-93390866D01*
X141831378Y-93455018D01*
X141771109Y-93492543D01*
X141700120Y-93491528D01*
X141640949Y-93452294D01*
X141617650Y-93401270D01*
X141616190Y-93401744D01*
X141613125Y-93392310D01*
X141611574Y-93382518D01*
X141557573Y-93276535D01*
X141473465Y-93192427D01*
X141367482Y-93138426D01*
X141250000Y-93119819D01*
X141132518Y-93138426D01*
X141026535Y-93192427D01*
X140942427Y-93276535D01*
X140888426Y-93382518D01*
X140869819Y-93500000D01*
X139647847Y-93500000D01*
X139637197Y-93432760D01*
X139637196Y-93432758D01*
X139635646Y-93422969D01*
X139578050Y-93309931D01*
X139488342Y-93220223D01*
X139375304Y-93162627D01*
X139365515Y-93161077D01*
X139365513Y-93161076D01*
X139259793Y-93144332D01*
X139250000Y-93142781D01*
X139240207Y-93144332D01*
X139134487Y-93161076D01*
X139134485Y-93161077D01*
X139124696Y-93162627D01*
X139011658Y-93220223D01*
X138921950Y-93309931D01*
X138864354Y-93422969D01*
X138862804Y-93432758D01*
X138862803Y-93432760D01*
X138846059Y-93538480D01*
X138844508Y-93548273D01*
X138122535Y-93548273D01*
X138130181Y-93500000D01*
X138111574Y-93382518D01*
X138057573Y-93276535D01*
X137973465Y-93192427D01*
X137867482Y-93138426D01*
X137840805Y-93134201D01*
X137776651Y-93103790D01*
X137750276Y-93061434D01*
X137720630Y-93106146D01*
X137659195Y-93134201D01*
X137632518Y-93138426D01*
X137526535Y-93192427D01*
X137442427Y-93276535D01*
X137388426Y-93382518D01*
X137369819Y-93500000D01*
X136155492Y-93500000D01*
X136147936Y-93452294D01*
X136137197Y-93384487D01*
X136137196Y-93384485D01*
X136135646Y-93374696D01*
X136078050Y-93261658D01*
X135988342Y-93171950D01*
X135875304Y-93114354D01*
X135865515Y-93112804D01*
X135865513Y-93112803D01*
X135759793Y-93096059D01*
X135750000Y-93094508D01*
X135740207Y-93096059D01*
X135634487Y-93112803D01*
X135634485Y-93112804D01*
X135624696Y-93114354D01*
X135511658Y-93171950D01*
X135421950Y-93261658D01*
X135364354Y-93374696D01*
X135362804Y-93384485D01*
X135362803Y-93384487D01*
X135352064Y-93452294D01*
X135344508Y-93500000D01*
X135346059Y-93509793D01*
X135362620Y-93614354D01*
X135364354Y-93625304D01*
X135421950Y-93738342D01*
X135511658Y-93828050D01*
X135520489Y-93832550D01*
X135520495Y-93832554D01*
X135572867Y-93859239D01*
X135624482Y-93907987D01*
X135641548Y-93976902D01*
X135618647Y-94044103D01*
X135563049Y-94088255D01*
X135535375Y-94095954D01*
X135480444Y-94104654D01*
X135428991Y-94112803D01*
X135428990Y-94112803D01*
X135419199Y-94114354D01*
X135306161Y-94171950D01*
X135216453Y-94261658D01*
X135158857Y-94374696D01*
X135157307Y-94384485D01*
X135157306Y-94384487D01*
X135151373Y-94421950D01*
X135139011Y-94500000D01*
X115001000Y-94500000D01*
X115001000Y-93000000D01*
X133119819Y-93000000D01*
X133138426Y-93117482D01*
X133142927Y-93126315D01*
X133142927Y-93126316D01*
X133163722Y-93167128D01*
X133192427Y-93223465D01*
X133276535Y-93307573D01*
X133382518Y-93361574D01*
X133500000Y-93380181D01*
X133617482Y-93361574D01*
X133723465Y-93307573D01*
X133807573Y-93223465D01*
X133836278Y-93167128D01*
X133857073Y-93126316D01*
X133857073Y-93126315D01*
X133861574Y-93117482D01*
X133880181Y-93000000D01*
X133861574Y-92882518D01*
X133807573Y-92776535D01*
X133723465Y-92692427D01*
X133617482Y-92638426D01*
X133500000Y-92619819D01*
X133382518Y-92638426D01*
X133276535Y-92692427D01*
X133192427Y-92776535D01*
X133138426Y-92882518D01*
X133119819Y-93000000D01*
X115001000Y-93000000D01*
X115001000Y-92413402D01*
X135737868Y-92413402D01*
X135739419Y-92423195D01*
X135754673Y-92519503D01*
X135757714Y-92538706D01*
X135815310Y-92651744D01*
X135905018Y-92741452D01*
X136018056Y-92799048D01*
X136027845Y-92800598D01*
X136027847Y-92800599D01*
X136133567Y-92817343D01*
X136143360Y-92818894D01*
X136153153Y-92817343D01*
X136258873Y-92800599D01*
X136258875Y-92800598D01*
X136268664Y-92799048D01*
X136381702Y-92741452D01*
X136471410Y-92651744D01*
X136529006Y-92538706D01*
X136532048Y-92519503D01*
X137369819Y-92519503D01*
X137388426Y-92636985D01*
X137442427Y-92742968D01*
X137526535Y-92827076D01*
X137632518Y-92881077D01*
X137642313Y-92882628D01*
X137642315Y-92882629D01*
X137659200Y-92885304D01*
X137723352Y-92915717D01*
X137749723Y-92958071D01*
X137779367Y-92913361D01*
X137840800Y-92885304D01*
X137857685Y-92882629D01*
X137857687Y-92882628D01*
X137867482Y-92881077D01*
X137973465Y-92827076D01*
X138057573Y-92742968D01*
X138111574Y-92636985D01*
X138130181Y-92519503D01*
X138111574Y-92402021D01*
X138057573Y-92296038D01*
X137973465Y-92211930D01*
X137867482Y-92157929D01*
X137750000Y-92139322D01*
X137632518Y-92157929D01*
X137526535Y-92211930D01*
X137442427Y-92296038D01*
X137388426Y-92402021D01*
X137369819Y-92519503D01*
X136532048Y-92519503D01*
X136547301Y-92423195D01*
X136548852Y-92413402D01*
X136540643Y-92361574D01*
X136530557Y-92297889D01*
X136530556Y-92297887D01*
X136529006Y-92288098D01*
X136471410Y-92175060D01*
X136381702Y-92085352D01*
X136268664Y-92027756D01*
X136258875Y-92026206D01*
X136258873Y-92026205D01*
X136153153Y-92009461D01*
X136143360Y-92007910D01*
X136133567Y-92009461D01*
X136027847Y-92026205D01*
X136027845Y-92026206D01*
X136018056Y-92027756D01*
X135905018Y-92085352D01*
X135815310Y-92175060D01*
X135757714Y-92288098D01*
X135756164Y-92297887D01*
X135756163Y-92297889D01*
X135746077Y-92361574D01*
X135737868Y-92413402D01*
X115001000Y-92413402D01*
X115001000Y-92000000D01*
X138619819Y-92000000D01*
X138638426Y-92117482D01*
X138692427Y-92223465D01*
X138776535Y-92307573D01*
X138882518Y-92361574D01*
X139000000Y-92380181D01*
X139117482Y-92361574D01*
X139223465Y-92307573D01*
X139307573Y-92223465D01*
X139361574Y-92117482D01*
X139380181Y-92000000D01*
X139361574Y-91882518D01*
X139307573Y-91776535D01*
X139223465Y-91692427D01*
X139117482Y-91638426D01*
X139000000Y-91619819D01*
X138882518Y-91638426D01*
X138776535Y-91692427D01*
X138692427Y-91776535D01*
X138638426Y-91882518D01*
X138619819Y-92000000D01*
X115001000Y-92000000D01*
X115001000Y-91500000D01*
X130594508Y-91500000D01*
X130596059Y-91509793D01*
X130609504Y-91594679D01*
X130614354Y-91625304D01*
X130671950Y-91738342D01*
X130761658Y-91828050D01*
X130874696Y-91885646D01*
X130884485Y-91887196D01*
X130884487Y-91887197D01*
X130990207Y-91903941D01*
X131000000Y-91905492D01*
X131009793Y-91903941D01*
X131115513Y-91887197D01*
X131115515Y-91887196D01*
X131125304Y-91885646D01*
X131238342Y-91828050D01*
X131328050Y-91738342D01*
X131385646Y-91625304D01*
X131390497Y-91594679D01*
X131403941Y-91509793D01*
X131405492Y-91500000D01*
X131397598Y-91450161D01*
X131387197Y-91384487D01*
X131387196Y-91384485D01*
X131385646Y-91374696D01*
X131328050Y-91261658D01*
X131238342Y-91171950D01*
X131125304Y-91114354D01*
X131126294Y-91112412D01*
X131078542Y-91079759D01*
X131050905Y-91014362D01*
X131053391Y-91000000D01*
X133369819Y-91000000D01*
X133388426Y-91117482D01*
X133442427Y-91223465D01*
X133526535Y-91307573D01*
X133632518Y-91361574D01*
X133750000Y-91380181D01*
X133867482Y-91361574D01*
X133973465Y-91307573D01*
X134057573Y-91223465D01*
X134111574Y-91117482D01*
X134126974Y-91020248D01*
X135138926Y-91020248D01*
X135157533Y-91137730D01*
X135211534Y-91243713D01*
X135295642Y-91327821D01*
X135322722Y-91341619D01*
X135387206Y-91374475D01*
X135401625Y-91381822D01*
X135519107Y-91400429D01*
X135636589Y-91381822D01*
X135651009Y-91374475D01*
X135715492Y-91341619D01*
X135742572Y-91327821D01*
X135826680Y-91243713D01*
X135880681Y-91137730D01*
X135882044Y-91129122D01*
X136215386Y-91129122D01*
X136216937Y-91138915D01*
X136232685Y-91238342D01*
X136235232Y-91254426D01*
X136292828Y-91367464D01*
X136382536Y-91457172D01*
X136495574Y-91514768D01*
X136505363Y-91516318D01*
X136505365Y-91516319D01*
X136611085Y-91533063D01*
X136620878Y-91534614D01*
X136630671Y-91533063D01*
X136736391Y-91516319D01*
X136736393Y-91516318D01*
X136746182Y-91514768D01*
X136859220Y-91457172D01*
X136948928Y-91367464D01*
X137006524Y-91254426D01*
X137009072Y-91238342D01*
X137013960Y-91207482D01*
X137637026Y-91207482D01*
X137638577Y-91217275D01*
X137652879Y-91307573D01*
X137656872Y-91332786D01*
X137714468Y-91445824D01*
X137804176Y-91535532D01*
X137917214Y-91593128D01*
X137927003Y-91594678D01*
X137927005Y-91594679D01*
X138032725Y-91611423D01*
X138042518Y-91612974D01*
X138052311Y-91611423D01*
X138158031Y-91594679D01*
X138158033Y-91594678D01*
X138167822Y-91593128D01*
X138280860Y-91535532D01*
X138370568Y-91445824D01*
X138428164Y-91332786D01*
X138432158Y-91307573D01*
X138446459Y-91217275D01*
X138448010Y-91207482D01*
X138437150Y-91138915D01*
X138429715Y-91091969D01*
X138429714Y-91091967D01*
X138428164Y-91082178D01*
X138370568Y-90969140D01*
X138280860Y-90879432D01*
X138167822Y-90821836D01*
X138158033Y-90820286D01*
X138158031Y-90820285D01*
X138052311Y-90803541D01*
X138042518Y-90801990D01*
X138032725Y-90803541D01*
X137927005Y-90820285D01*
X137927003Y-90820286D01*
X137917214Y-90821836D01*
X137804176Y-90879432D01*
X137714468Y-90969140D01*
X137656872Y-91082178D01*
X137655322Y-91091967D01*
X137655321Y-91091969D01*
X137647886Y-91138915D01*
X137637026Y-91207482D01*
X137013960Y-91207482D01*
X137024819Y-91138915D01*
X137026370Y-91129122D01*
X137014725Y-91055595D01*
X137008075Y-91013609D01*
X137008074Y-91013607D01*
X137006524Y-91003818D01*
X136948928Y-90890780D01*
X136859220Y-90801072D01*
X136758986Y-90750000D01*
X138619819Y-90750000D01*
X138638426Y-90867482D01*
X138642927Y-90876315D01*
X138642927Y-90876316D01*
X138656404Y-90902766D01*
X138692427Y-90973465D01*
X138776535Y-91057573D01*
X138882518Y-91111574D01*
X139000000Y-91130181D01*
X139117482Y-91111574D01*
X139223465Y-91057573D01*
X139281038Y-91000000D01*
X142344508Y-91000000D01*
X142346059Y-91009793D01*
X142362620Y-91114354D01*
X142364354Y-91125304D01*
X142421950Y-91238342D01*
X142511658Y-91328050D01*
X142624696Y-91385646D01*
X142634485Y-91387196D01*
X142634487Y-91387197D01*
X142740207Y-91403941D01*
X142750000Y-91405492D01*
X142759793Y-91403941D01*
X142865513Y-91387197D01*
X142865515Y-91387196D01*
X142875304Y-91385646D01*
X142988342Y-91328050D01*
X143078050Y-91238342D01*
X143135646Y-91125304D01*
X143137381Y-91114354D01*
X143153941Y-91009793D01*
X143155492Y-91000000D01*
X143150604Y-90969140D01*
X143137197Y-90884487D01*
X143137196Y-90884485D01*
X143135646Y-90874696D01*
X143078050Y-90761658D01*
X142988342Y-90671950D01*
X142875304Y-90614354D01*
X142865515Y-90612804D01*
X142865513Y-90612803D01*
X142759793Y-90596059D01*
X142750000Y-90594508D01*
X142740207Y-90596059D01*
X142634487Y-90612803D01*
X142634485Y-90612804D01*
X142624696Y-90614354D01*
X142511658Y-90671950D01*
X142421950Y-90761658D01*
X142364354Y-90874696D01*
X142362804Y-90884485D01*
X142362803Y-90884487D01*
X142349396Y-90969140D01*
X142344508Y-91000000D01*
X139281038Y-91000000D01*
X139307573Y-90973465D01*
X139343596Y-90902766D01*
X139357073Y-90876316D01*
X139357073Y-90876315D01*
X139361574Y-90867482D01*
X139380181Y-90750000D01*
X139361574Y-90632518D01*
X139307573Y-90526535D01*
X139223465Y-90442427D01*
X139117482Y-90388426D01*
X139000000Y-90369819D01*
X138882518Y-90388426D01*
X138776535Y-90442427D01*
X138692427Y-90526535D01*
X138638426Y-90632518D01*
X138619819Y-90750000D01*
X136758986Y-90750000D01*
X136746182Y-90743476D01*
X136736393Y-90741926D01*
X136736391Y-90741925D01*
X136630671Y-90725181D01*
X136620878Y-90723630D01*
X136611085Y-90725181D01*
X136505365Y-90741925D01*
X136505363Y-90741926D01*
X136495574Y-90743476D01*
X136382536Y-90801072D01*
X136292828Y-90890780D01*
X136235232Y-91003818D01*
X136233682Y-91013607D01*
X136233681Y-91013609D01*
X136227031Y-91055595D01*
X136215386Y-91129122D01*
X135882044Y-91129122D01*
X135899288Y-91020248D01*
X135880681Y-90902766D01*
X135875247Y-90892100D01*
X135842611Y-90828050D01*
X135826680Y-90796783D01*
X135742572Y-90712675D01*
X135636589Y-90658674D01*
X135519107Y-90640067D01*
X135401625Y-90658674D01*
X135295642Y-90712675D01*
X135211534Y-90796783D01*
X135195603Y-90828050D01*
X135162968Y-90892100D01*
X135157533Y-90902766D01*
X135138926Y-91020248D01*
X134126974Y-91020248D01*
X134130181Y-91000000D01*
X134111574Y-90882518D01*
X134057573Y-90776535D01*
X133973465Y-90692427D01*
X133867482Y-90638426D01*
X133750000Y-90619819D01*
X133632518Y-90638426D01*
X133526535Y-90692427D01*
X133442427Y-90776535D01*
X133388426Y-90882518D01*
X133369819Y-91000000D01*
X131053391Y-91000000D01*
X131063012Y-90944405D01*
X131111019Y-90892100D01*
X131125068Y-90885683D01*
X131125304Y-90885646D01*
X131238342Y-90828050D01*
X131328050Y-90738342D01*
X131385646Y-90625304D01*
X131387381Y-90614354D01*
X131403941Y-90509793D01*
X131405492Y-90500000D01*
X131397484Y-90449438D01*
X131387197Y-90384487D01*
X131387196Y-90384485D01*
X131385646Y-90374696D01*
X131328050Y-90261658D01*
X131238342Y-90171950D01*
X131125304Y-90114354D01*
X131126294Y-90112412D01*
X131078542Y-90079759D01*
X131050905Y-90014362D01*
X131063012Y-89944405D01*
X131111019Y-89892100D01*
X131125068Y-89885683D01*
X131125304Y-89885646D01*
X131238342Y-89828050D01*
X131328050Y-89738342D01*
X131385646Y-89625304D01*
X131392418Y-89582550D01*
X131403941Y-89509793D01*
X131405492Y-89500000D01*
X131387626Y-89387197D01*
X131387197Y-89384487D01*
X131387196Y-89384485D01*
X131385646Y-89374696D01*
X131328050Y-89261658D01*
X131316392Y-89250000D01*
X136094508Y-89250000D01*
X136096059Y-89259793D01*
X136107583Y-89332550D01*
X136114354Y-89375304D01*
X136171950Y-89488342D01*
X136261658Y-89578050D01*
X136374696Y-89635646D01*
X136384485Y-89637196D01*
X136384487Y-89637197D01*
X136490207Y-89653941D01*
X136500000Y-89655492D01*
X136509793Y-89653941D01*
X136615513Y-89637197D01*
X136615515Y-89637196D01*
X136625304Y-89635646D01*
X136738342Y-89578050D01*
X136828050Y-89488342D01*
X136885646Y-89375304D01*
X136892418Y-89332550D01*
X136903941Y-89259793D01*
X136905492Y-89250000D01*
X136893130Y-89171950D01*
X136887197Y-89134487D01*
X136887196Y-89134485D01*
X136885646Y-89124696D01*
X136828050Y-89011658D01*
X136816392Y-89000000D01*
X137594508Y-89000000D01*
X137596059Y-89009793D01*
X137612620Y-89114354D01*
X137614354Y-89125304D01*
X137671950Y-89238342D01*
X137761658Y-89328050D01*
X137874696Y-89385646D01*
X137884485Y-89387196D01*
X137884487Y-89387197D01*
X137990207Y-89403941D01*
X138000000Y-89405492D01*
X138009793Y-89403941D01*
X138115513Y-89387197D01*
X138115515Y-89387196D01*
X138125304Y-89385646D01*
X138238342Y-89328050D01*
X138328050Y-89238342D01*
X138385646Y-89125304D01*
X138387381Y-89114354D01*
X138403941Y-89009793D01*
X138405492Y-89000000D01*
X138393130Y-88921950D01*
X138387197Y-88884487D01*
X138387196Y-88884485D01*
X138385646Y-88874696D01*
X138328050Y-88761658D01*
X138238342Y-88671950D01*
X138125304Y-88614354D01*
X138115515Y-88612804D01*
X138115513Y-88612803D01*
X138009793Y-88596059D01*
X138000000Y-88594508D01*
X137990207Y-88596059D01*
X137884487Y-88612803D01*
X137884485Y-88612804D01*
X137874696Y-88614354D01*
X137761658Y-88671950D01*
X137671950Y-88761658D01*
X137614354Y-88874696D01*
X137612804Y-88884485D01*
X137612803Y-88884487D01*
X137606870Y-88921950D01*
X137594508Y-89000000D01*
X136816392Y-89000000D01*
X136738342Y-88921950D01*
X136625304Y-88864354D01*
X136615515Y-88862804D01*
X136615513Y-88862803D01*
X136509793Y-88846059D01*
X136500000Y-88844508D01*
X136490207Y-88846059D01*
X136384487Y-88862803D01*
X136384485Y-88862804D01*
X136374696Y-88864354D01*
X136261658Y-88921950D01*
X136171950Y-89011658D01*
X136114354Y-89124696D01*
X136112804Y-89134485D01*
X136112803Y-89134487D01*
X136106870Y-89171950D01*
X136094508Y-89250000D01*
X131316392Y-89250000D01*
X131238342Y-89171950D01*
X131125304Y-89114354D01*
X131115515Y-89112804D01*
X131115513Y-89112803D01*
X131009793Y-89096059D01*
X131000000Y-89094508D01*
X130990207Y-89096059D01*
X130884487Y-89112803D01*
X130884485Y-89112804D01*
X130874696Y-89114354D01*
X130761658Y-89171950D01*
X130671950Y-89261658D01*
X130614354Y-89374696D01*
X130612804Y-89384485D01*
X130612803Y-89384487D01*
X130612374Y-89387197D01*
X130594508Y-89500000D01*
X130596059Y-89509793D01*
X130607583Y-89582550D01*
X130614354Y-89625304D01*
X130671950Y-89738342D01*
X130761658Y-89828050D01*
X130873367Y-89884969D01*
X130874696Y-89885646D01*
X130873706Y-89887588D01*
X130921458Y-89920241D01*
X130949095Y-89985638D01*
X130936988Y-90055595D01*
X130888981Y-90107900D01*
X130874932Y-90114317D01*
X130874696Y-90114354D01*
X130761658Y-90171950D01*
X130671950Y-90261658D01*
X130614354Y-90374696D01*
X130612804Y-90384485D01*
X130612803Y-90384487D01*
X130602516Y-90449438D01*
X130594508Y-90500000D01*
X130596059Y-90509793D01*
X130612620Y-90614354D01*
X130614354Y-90625304D01*
X130671950Y-90738342D01*
X130761658Y-90828050D01*
X130868557Y-90882518D01*
X130874696Y-90885646D01*
X130873706Y-90887588D01*
X130921458Y-90920241D01*
X130949095Y-90985638D01*
X130936988Y-91055595D01*
X130888981Y-91107900D01*
X130874932Y-91114317D01*
X130874696Y-91114354D01*
X130761658Y-91171950D01*
X130671950Y-91261658D01*
X130614354Y-91374696D01*
X130612804Y-91384485D01*
X130612803Y-91384487D01*
X130602402Y-91450161D01*
X130594508Y-91500000D01*
X115001000Y-91500000D01*
X115001000Y-87750000D01*
X119344508Y-87750000D01*
X119364354Y-87875304D01*
X119421950Y-87988342D01*
X119511658Y-88078050D01*
X119624696Y-88135646D01*
X119634485Y-88137196D01*
X119634487Y-88137197D01*
X119740207Y-88153941D01*
X119750000Y-88155492D01*
X119759793Y-88153941D01*
X119865513Y-88137197D01*
X119865515Y-88137196D01*
X119875304Y-88135646D01*
X119988342Y-88078050D01*
X120066392Y-88000000D01*
X138094508Y-88000000D01*
X138096059Y-88009793D01*
X138107583Y-88082550D01*
X138114354Y-88125304D01*
X138171950Y-88238342D01*
X138261658Y-88328050D01*
X138374696Y-88385646D01*
X138384485Y-88387196D01*
X138384487Y-88387197D01*
X138490207Y-88403941D01*
X138500000Y-88405492D01*
X138509793Y-88403941D01*
X138615513Y-88387197D01*
X138615515Y-88387196D01*
X138625304Y-88385646D01*
X138738342Y-88328050D01*
X138828050Y-88238342D01*
X138885646Y-88125304D01*
X138892418Y-88082550D01*
X138903941Y-88009793D01*
X138905492Y-88000000D01*
X138885646Y-87874696D01*
X138828050Y-87761658D01*
X138738342Y-87671950D01*
X138625304Y-87614354D01*
X138615515Y-87612804D01*
X138615513Y-87612803D01*
X138566251Y-87605001D01*
X138502098Y-87574589D01*
X138499020Y-87569646D01*
X138449536Y-87601448D01*
X138433749Y-87605001D01*
X138384487Y-87612803D01*
X138384485Y-87612804D01*
X138374696Y-87614354D01*
X138261658Y-87671950D01*
X138171950Y-87761658D01*
X138114354Y-87874696D01*
X138094508Y-88000000D01*
X120066392Y-88000000D01*
X120078050Y-87988342D01*
X120135646Y-87875304D01*
X120155492Y-87750000D01*
X120143130Y-87671950D01*
X120137197Y-87634487D01*
X120137196Y-87634485D01*
X120135646Y-87624696D01*
X120078050Y-87511658D01*
X119988342Y-87421950D01*
X119875304Y-87364354D01*
X119865515Y-87362804D01*
X119865513Y-87362803D01*
X119759793Y-87346059D01*
X119750000Y-87344508D01*
X119740207Y-87346059D01*
X119634487Y-87362803D01*
X119634485Y-87362804D01*
X119624696Y-87364354D01*
X119511658Y-87421950D01*
X119421950Y-87511658D01*
X119364354Y-87624696D01*
X119362804Y-87634485D01*
X119362803Y-87634487D01*
X119356870Y-87671950D01*
X119344508Y-87750000D01*
X115001000Y-87750000D01*
X115001000Y-87250000D01*
X123094508Y-87250000D01*
X123096059Y-87259793D01*
X123112620Y-87364354D01*
X123114354Y-87375304D01*
X123171950Y-87488342D01*
X123261658Y-87578050D01*
X123374696Y-87635646D01*
X123384485Y-87637196D01*
X123384487Y-87637197D01*
X123490207Y-87653941D01*
X123500000Y-87655492D01*
X123509793Y-87653941D01*
X123615513Y-87637197D01*
X123615515Y-87637196D01*
X123625304Y-87635646D01*
X123738342Y-87578050D01*
X123828050Y-87488342D01*
X123885646Y-87375304D01*
X123887381Y-87364354D01*
X123903941Y-87259793D01*
X123905492Y-87250000D01*
X123903941Y-87240207D01*
X123887197Y-87134487D01*
X123887196Y-87134485D01*
X123885646Y-87124696D01*
X123828050Y-87011658D01*
X123738342Y-86921950D01*
X123625304Y-86864354D01*
X123615515Y-86862804D01*
X123615513Y-86862803D01*
X123509793Y-86846059D01*
X123500000Y-86844508D01*
X123490207Y-86846059D01*
X123384487Y-86862803D01*
X123384485Y-86862804D01*
X123374696Y-86864354D01*
X123261658Y-86921950D01*
X123171950Y-87011658D01*
X123114354Y-87124696D01*
X123112804Y-87134485D01*
X123112803Y-87134487D01*
X123096059Y-87240207D01*
X123094508Y-87250000D01*
X115001000Y-87250000D01*
X115001000Y-83065963D01*
X117994757Y-83065963D01*
X118011175Y-83261483D01*
X118065258Y-83450091D01*
X118068076Y-83455574D01*
X118152123Y-83619113D01*
X118152126Y-83619117D01*
X118154944Y-83624601D01*
X118276818Y-83778369D01*
X118281511Y-83782363D01*
X118281512Y-83782364D01*
X118417003Y-83897675D01*
X118426238Y-83905535D01*
X118431616Y-83908541D01*
X118431618Y-83908542D01*
X118467932Y-83928837D01*
X118597513Y-84001257D01*
X118784118Y-84061889D01*
X118978946Y-84085121D01*
X118985081Y-84084649D01*
X118985083Y-84084649D01*
X119168434Y-84070541D01*
X119168438Y-84070540D01*
X119174576Y-84070068D01*
X119363556Y-84017303D01*
X119538689Y-83928837D01*
X119568515Y-83905535D01*
X119648781Y-83842824D01*
X119693303Y-83808040D01*
X119697477Y-83803205D01*
X119817485Y-83664173D01*
X119817485Y-83664172D01*
X119821509Y-83659511D01*
X119918425Y-83488909D01*
X119980358Y-83302732D01*
X119987130Y-83249126D01*
X125495541Y-83249126D01*
X125525935Y-83450097D01*
X125528141Y-83456092D01*
X125528141Y-83456093D01*
X125531269Y-83464595D01*
X125596119Y-83640852D01*
X125599479Y-83646272D01*
X125599480Y-83646273D01*
X125699863Y-83808176D01*
X125699866Y-83808180D01*
X125703226Y-83813599D01*
X125707612Y-83818237D01*
X125831648Y-83949401D01*
X125842881Y-83961280D01*
X126009379Y-84077863D01*
X126195919Y-84158586D01*
X126241947Y-84168202D01*
X126390144Y-84199162D01*
X126390149Y-84199163D01*
X126394880Y-84200151D01*
X126399762Y-84200407D01*
X126399871Y-84200413D01*
X126399887Y-84200413D01*
X126401539Y-84200500D01*
X127550800Y-84200500D01*
X127598793Y-84195625D01*
X127695868Y-84185765D01*
X127695870Y-84185765D01*
X127702216Y-84185120D01*
X127896172Y-84124338D01*
X127912187Y-84115461D01*
X127948751Y-84095193D01*
X128073944Y-84025797D01*
X128080869Y-84019862D01*
X128144945Y-83964942D01*
X128228271Y-83893523D01*
X128232451Y-83888135D01*
X128298372Y-83803149D01*
X128352848Y-83732919D01*
X128442587Y-83550545D01*
X128464974Y-83464602D01*
X128492212Y-83360034D01*
X128492212Y-83360031D01*
X128493822Y-83353852D01*
X128504459Y-83150874D01*
X128474065Y-82949903D01*
X128403881Y-82759148D01*
X128350345Y-82672802D01*
X128300137Y-82591824D01*
X128300134Y-82591820D01*
X128296774Y-82586401D01*
X128157119Y-82438720D01*
X127990621Y-82322137D01*
X127804081Y-82241414D01*
X127758053Y-82231798D01*
X127609856Y-82200838D01*
X127609851Y-82200837D01*
X127605120Y-82199849D01*
X127600238Y-82199593D01*
X127600129Y-82199587D01*
X127600113Y-82199587D01*
X127598461Y-82199500D01*
X126449200Y-82199500D01*
X126401207Y-82204375D01*
X126304132Y-82214235D01*
X126304130Y-82214235D01*
X126297784Y-82214880D01*
X126103828Y-82275662D01*
X125926056Y-82374203D01*
X125771729Y-82506477D01*
X125767822Y-82511514D01*
X125767820Y-82511516D01*
X125713331Y-82581763D01*
X125647152Y-82667081D01*
X125557413Y-82849455D01*
X125555804Y-82855633D01*
X125555803Y-82855635D01*
X125529603Y-82956220D01*
X125506178Y-83046148D01*
X125495541Y-83249126D01*
X119987130Y-83249126D01*
X120004949Y-83108071D01*
X120005341Y-83080000D01*
X119986194Y-82884728D01*
X119984413Y-82878829D01*
X119984412Y-82878824D01*
X119931265Y-82702793D01*
X119929484Y-82696894D01*
X119837370Y-82523653D01*
X119713361Y-82371602D01*
X119562180Y-82246535D01*
X119389585Y-82153213D01*
X119295869Y-82124203D01*
X119208039Y-82097015D01*
X119208036Y-82097014D01*
X119202152Y-82095193D01*
X119196027Y-82094549D01*
X119196026Y-82094549D01*
X119013147Y-82075327D01*
X119013146Y-82075327D01*
X119007019Y-82074683D01*
X118884383Y-82085844D01*
X118817759Y-82091907D01*
X118817758Y-82091907D01*
X118811618Y-82092466D01*
X118805704Y-82094207D01*
X118805702Y-82094207D01*
X118676734Y-82132165D01*
X118623393Y-82147864D01*
X118617928Y-82150721D01*
X118454972Y-82235912D01*
X118454968Y-82235915D01*
X118449512Y-82238767D01*
X118444712Y-82242627D01*
X118444711Y-82242627D01*
X118410326Y-82270273D01*
X118296600Y-82361711D01*
X118170480Y-82512016D01*
X118167516Y-82517408D01*
X118167513Y-82517412D01*
X118132136Y-82581763D01*
X118075956Y-82683954D01*
X118074095Y-82689821D01*
X118074094Y-82689823D01*
X118052103Y-82759148D01*
X118016628Y-82870978D01*
X117994757Y-83065963D01*
X115001000Y-83065963D01*
X115001000Y-80485963D01*
X127994757Y-80485963D01*
X128011175Y-80681483D01*
X128065258Y-80870091D01*
X128068076Y-80875574D01*
X128152123Y-81039113D01*
X128152126Y-81039117D01*
X128154944Y-81044601D01*
X128276818Y-81198369D01*
X128426238Y-81325535D01*
X128431616Y-81328541D01*
X128431618Y-81328542D01*
X128467932Y-81348837D01*
X128597513Y-81421257D01*
X128784118Y-81481889D01*
X128978946Y-81505121D01*
X128985081Y-81504649D01*
X128985083Y-81504649D01*
X129168434Y-81490541D01*
X129168438Y-81490540D01*
X129174576Y-81490068D01*
X129363556Y-81437303D01*
X129538689Y-81348837D01*
X129568515Y-81325535D01*
X129688453Y-81231829D01*
X129693303Y-81228040D01*
X129723084Y-81193539D01*
X129817485Y-81084173D01*
X129817485Y-81084172D01*
X129821509Y-81079511D01*
X129918425Y-80908909D01*
X129980358Y-80722732D01*
X130004949Y-80528071D01*
X130005341Y-80500000D01*
X129986194Y-80304728D01*
X129984413Y-80298829D01*
X129984412Y-80298824D01*
X129931265Y-80122793D01*
X129929484Y-80116894D01*
X129837370Y-79943653D01*
X129713361Y-79791602D01*
X129562180Y-79666535D01*
X129389585Y-79573213D01*
X129295868Y-79544203D01*
X129208039Y-79517015D01*
X129208036Y-79517014D01*
X129202152Y-79515193D01*
X129196027Y-79514549D01*
X129196026Y-79514549D01*
X129013147Y-79495327D01*
X129013146Y-79495327D01*
X129007019Y-79494683D01*
X128884383Y-79505844D01*
X128817759Y-79511907D01*
X128817758Y-79511907D01*
X128811618Y-79512466D01*
X128805704Y-79514207D01*
X128805702Y-79514207D01*
X128676734Y-79552165D01*
X128623393Y-79567864D01*
X128617928Y-79570721D01*
X128454972Y-79655912D01*
X128454968Y-79655915D01*
X128449512Y-79658767D01*
X128444712Y-79662627D01*
X128444711Y-79662627D01*
X128410326Y-79690273D01*
X128296600Y-79781711D01*
X128170480Y-79932016D01*
X128167516Y-79937408D01*
X128167513Y-79937412D01*
X128119611Y-80024546D01*
X128075956Y-80103954D01*
X128016628Y-80290978D01*
X127994757Y-80485963D01*
X115001000Y-80485963D01*
X115001000Y-79767133D01*
X120778830Y-79767133D01*
X120797750Y-79910842D01*
X120853219Y-80044758D01*
X120941459Y-80159754D01*
X121056455Y-80247994D01*
X121190371Y-80303463D01*
X121334080Y-80322383D01*
X121477789Y-80303463D01*
X121611705Y-80247994D01*
X121726701Y-80159754D01*
X121814941Y-80044758D01*
X121870410Y-79910842D01*
X121889330Y-79767133D01*
X121870410Y-79623424D01*
X121814941Y-79489508D01*
X121726701Y-79374512D01*
X121611705Y-79286272D01*
X121477789Y-79230803D01*
X121334080Y-79211883D01*
X121190371Y-79230803D01*
X121056455Y-79286272D01*
X120941459Y-79374512D01*
X120853219Y-79489508D01*
X120797750Y-79623424D01*
X120778830Y-79767133D01*
X115001000Y-79767133D01*
X115001000Y-77985963D01*
X117994757Y-77985963D01*
X118011175Y-78181483D01*
X118065258Y-78370091D01*
X118068076Y-78375574D01*
X118152123Y-78539113D01*
X118152126Y-78539117D01*
X118154944Y-78544601D01*
X118276818Y-78698369D01*
X118426238Y-78825535D01*
X118431616Y-78828541D01*
X118431618Y-78828542D01*
X118467932Y-78848837D01*
X118597513Y-78921257D01*
X118784118Y-78981889D01*
X118978946Y-79005121D01*
X118985081Y-79004649D01*
X118985083Y-79004649D01*
X119168434Y-78990541D01*
X119168438Y-78990540D01*
X119174576Y-78990068D01*
X119363556Y-78937303D01*
X119538689Y-78848837D01*
X119568515Y-78825535D01*
X119688453Y-78731829D01*
X119693303Y-78728040D01*
X119723084Y-78693539D01*
X119817485Y-78584173D01*
X119817485Y-78584172D01*
X119821509Y-78579511D01*
X119918425Y-78408909D01*
X119980358Y-78222732D01*
X119982975Y-78202016D01*
X120011357Y-78136940D01*
X120070416Y-78097538D01*
X120141402Y-78096321D01*
X120201777Y-78133676D01*
X120224390Y-78169590D01*
X120269139Y-78277625D01*
X120357379Y-78392621D01*
X120472375Y-78480861D01*
X120606291Y-78536330D01*
X120750000Y-78555250D01*
X120893709Y-78536330D01*
X121027625Y-78480861D01*
X121142621Y-78392621D01*
X121230861Y-78277625D01*
X121286330Y-78143709D01*
X121305250Y-78000000D01*
X121303402Y-77985963D01*
X127994757Y-77985963D01*
X128011175Y-78181483D01*
X128065258Y-78370091D01*
X128068076Y-78375574D01*
X128152123Y-78539113D01*
X128152126Y-78539117D01*
X128154944Y-78544601D01*
X128276818Y-78698369D01*
X128426238Y-78825535D01*
X128431616Y-78828541D01*
X128431618Y-78828542D01*
X128467932Y-78848837D01*
X128597513Y-78921257D01*
X128784118Y-78981889D01*
X128978946Y-79005121D01*
X128985081Y-79004649D01*
X128985083Y-79004649D01*
X129168434Y-78990541D01*
X129168438Y-78990540D01*
X129174576Y-78990068D01*
X129363556Y-78937303D01*
X129538689Y-78848837D01*
X129568515Y-78825535D01*
X129688453Y-78731829D01*
X129693303Y-78728040D01*
X129723084Y-78693539D01*
X129817485Y-78584173D01*
X129817485Y-78584172D01*
X129821509Y-78579511D01*
X129918425Y-78408909D01*
X129980358Y-78222732D01*
X130004949Y-78028071D01*
X130005341Y-78000000D01*
X129986194Y-77804728D01*
X129984413Y-77798829D01*
X129984412Y-77798824D01*
X129931265Y-77622793D01*
X129929484Y-77616894D01*
X129837370Y-77443653D01*
X129713361Y-77291602D01*
X129562180Y-77166535D01*
X129389585Y-77073213D01*
X129337936Y-77057225D01*
X129278776Y-77017974D01*
X129250228Y-76952970D01*
X129261356Y-76882851D01*
X129308627Y-76829879D01*
X129338986Y-76816174D01*
X129492255Y-76770191D01*
X129501842Y-76766433D01*
X129693098Y-76672738D01*
X129701944Y-76667465D01*
X129749247Y-76633723D01*
X129757648Y-76623023D01*
X129750660Y-76609870D01*
X129012812Y-75872022D01*
X128998868Y-75864408D01*
X128997035Y-75864539D01*
X128990420Y-75868790D01*
X128246737Y-76612473D01*
X128239977Y-76624853D01*
X128245258Y-76631907D01*
X128406756Y-76726279D01*
X128416042Y-76730729D01*
X128615001Y-76806703D01*
X128624898Y-76809579D01*
X128645834Y-76813838D01*
X128708599Y-76847020D01*
X128743462Y-76908867D01*
X128739353Y-76979745D01*
X128697577Y-77037149D01*
X128656291Y-77058182D01*
X128623393Y-77067864D01*
X128617928Y-77070721D01*
X128454972Y-77155912D01*
X128454968Y-77155915D01*
X128449512Y-77158767D01*
X128444712Y-77162627D01*
X128444711Y-77162627D01*
X128410326Y-77190273D01*
X128296600Y-77281711D01*
X128170480Y-77432016D01*
X128167516Y-77437408D01*
X128167513Y-77437412D01*
X128119819Y-77524168D01*
X128075956Y-77603954D01*
X128074095Y-77609821D01*
X128074094Y-77609823D01*
X128071851Y-77616894D01*
X128016628Y-77790978D01*
X127994757Y-77985963D01*
X121303402Y-77985963D01*
X121286330Y-77856291D01*
X121230861Y-77722375D01*
X121142621Y-77607379D01*
X121027625Y-77519139D01*
X120893709Y-77463670D01*
X120750000Y-77444750D01*
X120606291Y-77463670D01*
X120472375Y-77519139D01*
X120357379Y-77607379D01*
X120269139Y-77722375D01*
X120265980Y-77730002D01*
X120265977Y-77730007D01*
X120225462Y-77827822D01*
X120180914Y-77883103D01*
X120113551Y-77905525D01*
X120044760Y-77887967D01*
X119996381Y-77836006D01*
X119986403Y-77806855D01*
X119986194Y-77804728D01*
X119984412Y-77798824D01*
X119931265Y-77622793D01*
X119929484Y-77616894D01*
X119837370Y-77443653D01*
X119713361Y-77291602D01*
X119562180Y-77166535D01*
X119389585Y-77073213D01*
X119273081Y-77037149D01*
X119208039Y-77017015D01*
X119208036Y-77017014D01*
X119202152Y-77015193D01*
X119196027Y-77014549D01*
X119196026Y-77014549D01*
X119013147Y-76995327D01*
X119013146Y-76995327D01*
X119007019Y-76994683D01*
X118884383Y-77005844D01*
X118817759Y-77011907D01*
X118817758Y-77011907D01*
X118811618Y-77012466D01*
X118805704Y-77014207D01*
X118805702Y-77014207D01*
X118727753Y-77037149D01*
X118623393Y-77067864D01*
X118617928Y-77070721D01*
X118454972Y-77155912D01*
X118454968Y-77155915D01*
X118449512Y-77158767D01*
X118444712Y-77162627D01*
X118444711Y-77162627D01*
X118410326Y-77190273D01*
X118296600Y-77281711D01*
X118170480Y-77432016D01*
X118167516Y-77437408D01*
X118167513Y-77437412D01*
X118119819Y-77524168D01*
X118075956Y-77603954D01*
X118074095Y-77609821D01*
X118074094Y-77609823D01*
X118071851Y-77616894D01*
X118016628Y-77790978D01*
X117994757Y-77985963D01*
X115001000Y-77985963D01*
X115001000Y-75471863D01*
X127638050Y-75471863D01*
X127650309Y-75684477D01*
X127651745Y-75694697D01*
X127698565Y-75902446D01*
X127701645Y-75912275D01*
X127781770Y-76109603D01*
X127786413Y-76118794D01*
X127866460Y-76249420D01*
X127876916Y-76258880D01*
X127885694Y-76255096D01*
X128627978Y-75512812D01*
X128634356Y-75501132D01*
X129364408Y-75501132D01*
X129364539Y-75502965D01*
X129368790Y-75509580D01*
X130110474Y-76251264D01*
X130122484Y-76257823D01*
X130134223Y-76248855D01*
X130165004Y-76206019D01*
X130170315Y-76197180D01*
X130264670Y-76006267D01*
X130268469Y-75996672D01*
X130330376Y-75792915D01*
X130332555Y-75782834D01*
X130360590Y-75569887D01*
X130361109Y-75563212D01*
X130362572Y-75503364D01*
X130362378Y-75496646D01*
X130344781Y-75282604D01*
X130343096Y-75272424D01*
X130291214Y-75065875D01*
X130287894Y-75056124D01*
X130202972Y-74860814D01*
X130198105Y-74851739D01*
X130133063Y-74751197D01*
X130122377Y-74741995D01*
X130112812Y-74746398D01*
X129372022Y-75487188D01*
X129364408Y-75501132D01*
X128634356Y-75501132D01*
X128635592Y-75498868D01*
X128635461Y-75497035D01*
X128631210Y-75490420D01*
X127889849Y-74749059D01*
X127878313Y-74742759D01*
X127866031Y-74752382D01*
X127818089Y-74822662D01*
X127813004Y-74831613D01*
X127723338Y-75024783D01*
X127719775Y-75034470D01*
X127662864Y-75239681D01*
X127660933Y-75249800D01*
X127638302Y-75461574D01*
X127638050Y-75471863D01*
X115001000Y-75471863D01*
X115001000Y-74376427D01*
X128241223Y-74376427D01*
X128247968Y-74388758D01*
X128987188Y-75127978D01*
X129001132Y-75135592D01*
X129002965Y-75135461D01*
X129009580Y-75131210D01*
X129753389Y-74387401D01*
X129760410Y-74374544D01*
X129753611Y-74365213D01*
X129749554Y-74362518D01*
X129563117Y-74259599D01*
X129553705Y-74255369D01*
X129352959Y-74184280D01*
X129342989Y-74181646D01*
X129133327Y-74144301D01*
X129123073Y-74143331D01*
X128910116Y-74140728D01*
X128899832Y-74141448D01*
X128689321Y-74173661D01*
X128679293Y-74176050D01*
X128476868Y-74242212D01*
X128467359Y-74246209D01*
X128278466Y-74344540D01*
X128269734Y-74350039D01*
X128249677Y-74365099D01*
X128241223Y-74376427D01*
X115001000Y-74376427D01*
X115001000Y-74044853D01*
X118239977Y-74044853D01*
X118245258Y-74051907D01*
X118406756Y-74146279D01*
X118416042Y-74150729D01*
X118615001Y-74226703D01*
X118624899Y-74229579D01*
X118833595Y-74272038D01*
X118843823Y-74273257D01*
X119056650Y-74281062D01*
X119066936Y-74280595D01*
X119278185Y-74253534D01*
X119288262Y-74251392D01*
X119492255Y-74190191D01*
X119501842Y-74186433D01*
X119693098Y-74092738D01*
X119701944Y-74087465D01*
X119749247Y-74053723D01*
X119757648Y-74043023D01*
X119750660Y-74029870D01*
X119012812Y-73292022D01*
X118998868Y-73284408D01*
X118997035Y-73284539D01*
X118990420Y-73288790D01*
X118246737Y-74032473D01*
X118239977Y-74044853D01*
X115001000Y-74044853D01*
X115001000Y-72891863D01*
X117638050Y-72891863D01*
X117650309Y-73104477D01*
X117651745Y-73114697D01*
X117698565Y-73322446D01*
X117701645Y-73332275D01*
X117781770Y-73529603D01*
X117786413Y-73538794D01*
X117866460Y-73669420D01*
X117876916Y-73678880D01*
X117885694Y-73675096D01*
X118627978Y-72932812D01*
X118634356Y-72921132D01*
X119364408Y-72921132D01*
X119364539Y-72922965D01*
X119368790Y-72929580D01*
X120110474Y-73671264D01*
X120122484Y-73677823D01*
X120134223Y-73668855D01*
X120165004Y-73626019D01*
X120170315Y-73617180D01*
X120264670Y-73426267D01*
X120268469Y-73416672D01*
X120330376Y-73212915D01*
X120332555Y-73202834D01*
X120360590Y-72989887D01*
X120361109Y-72983212D01*
X120362572Y-72923364D01*
X120362378Y-72916646D01*
X120356827Y-72849126D01*
X125495541Y-72849126D01*
X125525935Y-73050097D01*
X125596119Y-73240852D01*
X125599479Y-73246272D01*
X125599480Y-73246273D01*
X125699863Y-73408176D01*
X125699866Y-73408180D01*
X125703226Y-73413599D01*
X125707612Y-73418237D01*
X125812926Y-73529603D01*
X125842881Y-73561280D01*
X126009379Y-73677863D01*
X126195919Y-73758586D01*
X126224419Y-73764540D01*
X126390144Y-73799162D01*
X126390149Y-73799163D01*
X126394880Y-73800151D01*
X126399762Y-73800407D01*
X126399871Y-73800413D01*
X126399887Y-73800413D01*
X126401539Y-73800500D01*
X127550800Y-73800500D01*
X127609437Y-73794544D01*
X127695868Y-73785765D01*
X127695870Y-73785765D01*
X127702216Y-73785120D01*
X127896172Y-73724338D01*
X128073944Y-73625797D01*
X128228271Y-73493523D01*
X128352848Y-73332919D01*
X128442587Y-73150545D01*
X128468752Y-73050097D01*
X128492212Y-72960034D01*
X128492212Y-72960031D01*
X128493822Y-72953852D01*
X128504459Y-72750874D01*
X128474065Y-72549903D01*
X128403881Y-72359148D01*
X128400535Y-72353751D01*
X130641241Y-72353751D01*
X130645448Y-72353751D01*
X130645448Y-83352733D01*
X130645387Y-83353502D01*
X130645366Y-83353553D01*
X130642278Y-83353553D01*
X130654910Y-83465745D01*
X130692193Y-83572312D01*
X130752257Y-83667910D01*
X130832090Y-83747743D01*
X130927688Y-83807807D01*
X130980971Y-83826448D01*
X131027580Y-83842755D01*
X131027582Y-83842756D01*
X131034255Y-83845090D01*
X131146447Y-83857722D01*
X131146333Y-83858731D01*
X131146645Y-83858766D01*
X131146645Y-83854552D01*
X133139358Y-83854554D01*
X133153475Y-83855347D01*
X133197998Y-83860367D01*
X133200311Y-83860650D01*
X133249086Y-83867075D01*
X133249663Y-83867151D01*
X133274827Y-83873145D01*
X133317659Y-83888135D01*
X133324246Y-83890649D01*
X133365726Y-83907833D01*
X133384539Y-83917553D01*
X133423642Y-83942125D01*
X133433307Y-83948848D01*
X133468289Y-83975691D01*
X133480679Y-83986558D01*
X133513442Y-84019321D01*
X133524309Y-84031711D01*
X133551152Y-84066693D01*
X133557875Y-84076358D01*
X133582447Y-84115461D01*
X133592167Y-84134274D01*
X133609351Y-84175754D01*
X133611865Y-84182341D01*
X133626855Y-84225173D01*
X133632849Y-84250337D01*
X133639347Y-84299662D01*
X133639633Y-84302002D01*
X133644653Y-84346525D01*
X133645446Y-84360642D01*
X133645448Y-86852733D01*
X133645387Y-86853502D01*
X133645366Y-86853553D01*
X133642278Y-86853553D01*
X133654910Y-86965745D01*
X133692193Y-87072312D01*
X133752257Y-87167910D01*
X133832090Y-87247743D01*
X133927688Y-87307807D01*
X133980971Y-87326448D01*
X134027580Y-87342755D01*
X134027582Y-87342756D01*
X134034255Y-87345090D01*
X134146447Y-87357722D01*
X134146333Y-87358731D01*
X134146645Y-87358766D01*
X134146645Y-87354552D01*
X138414038Y-87354552D01*
X138482159Y-87374554D01*
X138498603Y-87393532D01*
X138504818Y-87384159D01*
X138569813Y-87355591D01*
X138585962Y-87354552D01*
X141145068Y-87354552D01*
X141146447Y-87354661D01*
X141146447Y-87357816D01*
X141221527Y-87349350D01*
X141251606Y-87345958D01*
X141251608Y-87345958D01*
X141258645Y-87345164D01*
X141365214Y-87307862D01*
X141460811Y-87247782D01*
X141540641Y-87167936D01*
X141600703Y-87072328D01*
X141637985Y-86965752D01*
X141650616Y-86853553D01*
X141651625Y-86853667D01*
X141651660Y-86853355D01*
X141647446Y-86853355D01*
X141647447Y-85065963D01*
X147994757Y-85065963D01*
X148011175Y-85261483D01*
X148065258Y-85450091D01*
X148068076Y-85455574D01*
X148152123Y-85619113D01*
X148152126Y-85619117D01*
X148154944Y-85624601D01*
X148276818Y-85778369D01*
X148426238Y-85905535D01*
X148431616Y-85908541D01*
X148431618Y-85908542D01*
X148467932Y-85928837D01*
X148597513Y-86001257D01*
X148784118Y-86061889D01*
X148978946Y-86085121D01*
X148985081Y-86084649D01*
X148985083Y-86084649D01*
X149168434Y-86070541D01*
X149168438Y-86070540D01*
X149174576Y-86070068D01*
X149363556Y-86017303D01*
X149538689Y-85928837D01*
X149568515Y-85905535D01*
X149688453Y-85811829D01*
X149693303Y-85808040D01*
X149723084Y-85773539D01*
X149817485Y-85664173D01*
X149817485Y-85664172D01*
X149821509Y-85659511D01*
X149918425Y-85488909D01*
X149980358Y-85302732D01*
X150004949Y-85108071D01*
X150005341Y-85080000D01*
X149986194Y-84884728D01*
X149984413Y-84878829D01*
X149984412Y-84878824D01*
X149931265Y-84702793D01*
X149929484Y-84696894D01*
X149837370Y-84523653D01*
X149713361Y-84371602D01*
X149562180Y-84246535D01*
X149389585Y-84153213D01*
X149286297Y-84121240D01*
X149208039Y-84097015D01*
X149208036Y-84097014D01*
X149202152Y-84095193D01*
X149196027Y-84094549D01*
X149196026Y-84094549D01*
X149013147Y-84075327D01*
X149013146Y-84075327D01*
X149007019Y-84074683D01*
X148884383Y-84085844D01*
X148817759Y-84091907D01*
X148817758Y-84091907D01*
X148811618Y-84092466D01*
X148805704Y-84094207D01*
X148805702Y-84094207D01*
X148713853Y-84121240D01*
X148623393Y-84147864D01*
X148617928Y-84150721D01*
X148454972Y-84235912D01*
X148454968Y-84235915D01*
X148449512Y-84238767D01*
X148444712Y-84242627D01*
X148444711Y-84242627D01*
X148434576Y-84250776D01*
X148296600Y-84361711D01*
X148170480Y-84512016D01*
X148167516Y-84517408D01*
X148167513Y-84517412D01*
X148088813Y-84660567D01*
X148075956Y-84683954D01*
X148016628Y-84870978D01*
X147994757Y-85065963D01*
X141647447Y-85065963D01*
X141647448Y-84360642D01*
X141648241Y-84346524D01*
X141653503Y-84299858D01*
X141653778Y-84297607D01*
X141659914Y-84250776D01*
X141665918Y-84225527D01*
X141681588Y-84180758D01*
X141684087Y-84174215D01*
X141700433Y-84134764D01*
X141710155Y-84115950D01*
X141735554Y-84075536D01*
X141742274Y-84065876D01*
X141768085Y-84032245D01*
X141778947Y-84019862D01*
X141812726Y-83986089D01*
X141825113Y-83975227D01*
X141858777Y-83949401D01*
X141868416Y-83942699D01*
X141908830Y-83917310D01*
X141927633Y-83907598D01*
X141967121Y-83891245D01*
X141973668Y-83888748D01*
X142018500Y-83873065D01*
X142043667Y-83867075D01*
X142087670Y-83861287D01*
X142090006Y-83861002D01*
X142117024Y-83857960D01*
X142140257Y-83855345D01*
X142154350Y-83854554D01*
X143880490Y-83854552D01*
X144145068Y-83854552D01*
X144146447Y-83854661D01*
X144146447Y-83857816D01*
X144221527Y-83849350D01*
X144251606Y-83845958D01*
X144251608Y-83845958D01*
X144258645Y-83845164D01*
X144365214Y-83807862D01*
X144371291Y-83804043D01*
X144454816Y-83751550D01*
X144454818Y-83751549D01*
X144460811Y-83747782D01*
X144540641Y-83667936D01*
X144554250Y-83646273D01*
X144596939Y-83578320D01*
X144596940Y-83578318D01*
X144600703Y-83572328D01*
X144637985Y-83465752D01*
X144650616Y-83353553D01*
X144651625Y-83353667D01*
X144651660Y-83353355D01*
X144647446Y-83353355D01*
X144647446Y-83065963D01*
X154994757Y-83065963D01*
X155011175Y-83261483D01*
X155065258Y-83450091D01*
X155068076Y-83455574D01*
X155152123Y-83619113D01*
X155152126Y-83619117D01*
X155154944Y-83624601D01*
X155276818Y-83778369D01*
X155281511Y-83782363D01*
X155281512Y-83782364D01*
X155417003Y-83897675D01*
X155426238Y-83905535D01*
X155431616Y-83908541D01*
X155431618Y-83908542D01*
X155467932Y-83928837D01*
X155597513Y-84001257D01*
X155784118Y-84061889D01*
X155978946Y-84085121D01*
X155985081Y-84084649D01*
X155985083Y-84084649D01*
X156168434Y-84070541D01*
X156168438Y-84070540D01*
X156174576Y-84070068D01*
X156363556Y-84017303D01*
X156538689Y-83928837D01*
X156568515Y-83905535D01*
X156648781Y-83842824D01*
X156693303Y-83808040D01*
X156697477Y-83803205D01*
X156817485Y-83664173D01*
X156817485Y-83664172D01*
X156821509Y-83659511D01*
X156918425Y-83488909D01*
X156980358Y-83302732D01*
X157004949Y-83108071D01*
X157005341Y-83080000D01*
X156986194Y-82884728D01*
X156984413Y-82878829D01*
X156984412Y-82878824D01*
X156931265Y-82702793D01*
X156929484Y-82696894D01*
X156837370Y-82523653D01*
X156713361Y-82371602D01*
X156562180Y-82246535D01*
X156389585Y-82153213D01*
X156295869Y-82124203D01*
X156208039Y-82097015D01*
X156208036Y-82097014D01*
X156202152Y-82095193D01*
X156196027Y-82094549D01*
X156196026Y-82094549D01*
X156013147Y-82075327D01*
X156013146Y-82075327D01*
X156007019Y-82074683D01*
X155884383Y-82085844D01*
X155817759Y-82091907D01*
X155817758Y-82091907D01*
X155811618Y-82092466D01*
X155805704Y-82094207D01*
X155805702Y-82094207D01*
X155676734Y-82132165D01*
X155623393Y-82147864D01*
X155617928Y-82150721D01*
X155454972Y-82235912D01*
X155454968Y-82235915D01*
X155449512Y-82238767D01*
X155444712Y-82242627D01*
X155444711Y-82242627D01*
X155410326Y-82270273D01*
X155296600Y-82361711D01*
X155170480Y-82512016D01*
X155167516Y-82517408D01*
X155167513Y-82517412D01*
X155132136Y-82581763D01*
X155075956Y-82683954D01*
X155074095Y-82689821D01*
X155074094Y-82689823D01*
X155052103Y-82759148D01*
X155016628Y-82870978D01*
X154994757Y-83065963D01*
X144647446Y-83065963D01*
X144647446Y-79985963D01*
X147994757Y-79985963D01*
X148011175Y-80181483D01*
X148065258Y-80370091D01*
X148068076Y-80375574D01*
X148152123Y-80539113D01*
X148152126Y-80539117D01*
X148154944Y-80544601D01*
X148276818Y-80698369D01*
X148281511Y-80702363D01*
X148281512Y-80702364D01*
X148312321Y-80728584D01*
X148426238Y-80825535D01*
X148431616Y-80828541D01*
X148431618Y-80828542D01*
X148467932Y-80848837D01*
X148597513Y-80921257D01*
X148784118Y-80981889D01*
X148978946Y-81005121D01*
X148985081Y-81004649D01*
X148985083Y-81004649D01*
X149168434Y-80990541D01*
X149168438Y-80990540D01*
X149174576Y-80990068D01*
X149363556Y-80937303D01*
X149538689Y-80848837D01*
X149568515Y-80825535D01*
X149688453Y-80731829D01*
X149693303Y-80728040D01*
X149703167Y-80716613D01*
X149817485Y-80584173D01*
X149817485Y-80584172D01*
X149821509Y-80579511D01*
X149918425Y-80408909D01*
X149980358Y-80222732D01*
X150004949Y-80028071D01*
X150005341Y-80000000D01*
X149986194Y-79804728D01*
X149984413Y-79798829D01*
X149984412Y-79798824D01*
X149931265Y-79622793D01*
X149929484Y-79616894D01*
X149837370Y-79443653D01*
X149713361Y-79291602D01*
X149562180Y-79166535D01*
X149389585Y-79073213D01*
X149295869Y-79044203D01*
X149208039Y-79017015D01*
X149208036Y-79017014D01*
X149202152Y-79015193D01*
X149196027Y-79014549D01*
X149196026Y-79014549D01*
X149013147Y-78995327D01*
X149013146Y-78995327D01*
X149007019Y-78994683D01*
X148884383Y-79005844D01*
X148817759Y-79011907D01*
X148817758Y-79011907D01*
X148811618Y-79012466D01*
X148805704Y-79014207D01*
X148805702Y-79014207D01*
X148676734Y-79052165D01*
X148623393Y-79067864D01*
X148617928Y-79070721D01*
X148454972Y-79155912D01*
X148454968Y-79155915D01*
X148449512Y-79158767D01*
X148444712Y-79162627D01*
X148444711Y-79162627D01*
X148410326Y-79190273D01*
X148296600Y-79281711D01*
X148170480Y-79432016D01*
X148167516Y-79437408D01*
X148167513Y-79437412D01*
X148142476Y-79482955D01*
X148075956Y-79603954D01*
X148016628Y-79790978D01*
X147994757Y-79985963D01*
X144647446Y-79985963D01*
X144647446Y-77985963D01*
X154994757Y-77985963D01*
X155011175Y-78181483D01*
X155065258Y-78370091D01*
X155068076Y-78375574D01*
X155152123Y-78539113D01*
X155152126Y-78539117D01*
X155154944Y-78544601D01*
X155276818Y-78698369D01*
X155426238Y-78825535D01*
X155431616Y-78828541D01*
X155431618Y-78828542D01*
X155467932Y-78848837D01*
X155597513Y-78921257D01*
X155784118Y-78981889D01*
X155978946Y-79005121D01*
X155985081Y-79004649D01*
X155985083Y-79004649D01*
X156168434Y-78990541D01*
X156168438Y-78990540D01*
X156174576Y-78990068D01*
X156363556Y-78937303D01*
X156538689Y-78848837D01*
X156568515Y-78825535D01*
X156688453Y-78731829D01*
X156693303Y-78728040D01*
X156723084Y-78693539D01*
X156817485Y-78584173D01*
X156817485Y-78584172D01*
X156821509Y-78579511D01*
X156918425Y-78408909D01*
X156980358Y-78222732D01*
X157004949Y-78028071D01*
X157005341Y-78000000D01*
X156986194Y-77804728D01*
X156984413Y-77798829D01*
X156984412Y-77798824D01*
X156931265Y-77622793D01*
X156929484Y-77616894D01*
X156837370Y-77443653D01*
X156713361Y-77291602D01*
X156562180Y-77166535D01*
X156389585Y-77073213D01*
X156273081Y-77037149D01*
X156208039Y-77017015D01*
X156208036Y-77017014D01*
X156202152Y-77015193D01*
X156196027Y-77014549D01*
X156196026Y-77014549D01*
X156013147Y-76995327D01*
X156013146Y-76995327D01*
X156007019Y-76994683D01*
X155884383Y-77005844D01*
X155817759Y-77011907D01*
X155817758Y-77011907D01*
X155811618Y-77012466D01*
X155805704Y-77014207D01*
X155805702Y-77014207D01*
X155727753Y-77037149D01*
X155623393Y-77067864D01*
X155617928Y-77070721D01*
X155454972Y-77155912D01*
X155454968Y-77155915D01*
X155449512Y-77158767D01*
X155444712Y-77162627D01*
X155444711Y-77162627D01*
X155410326Y-77190273D01*
X155296600Y-77281711D01*
X155170480Y-77432016D01*
X155167516Y-77437408D01*
X155167513Y-77437412D01*
X155119819Y-77524168D01*
X155075956Y-77603954D01*
X155074095Y-77609821D01*
X155074094Y-77609823D01*
X155071851Y-77616894D01*
X155016628Y-77790978D01*
X154994757Y-77985963D01*
X144647446Y-77985963D01*
X144647446Y-76044853D01*
X148239977Y-76044853D01*
X148245258Y-76051907D01*
X148406756Y-76146279D01*
X148416042Y-76150729D01*
X148615001Y-76226703D01*
X148624899Y-76229579D01*
X148833595Y-76272038D01*
X148843823Y-76273257D01*
X149056650Y-76281062D01*
X149066936Y-76280595D01*
X149278185Y-76253534D01*
X149288262Y-76251392D01*
X149492255Y-76190191D01*
X149501842Y-76186433D01*
X149693098Y-76092738D01*
X149701944Y-76087465D01*
X149749247Y-76053723D01*
X149757648Y-76043023D01*
X149750660Y-76029870D01*
X149012812Y-75292022D01*
X148998868Y-75284408D01*
X148997035Y-75284539D01*
X148990420Y-75288790D01*
X148246737Y-76032473D01*
X148239977Y-76044853D01*
X144647446Y-76044853D01*
X144647446Y-74891863D01*
X147638050Y-74891863D01*
X147650309Y-75104477D01*
X147651745Y-75114697D01*
X147698565Y-75322446D01*
X147701645Y-75332275D01*
X147781770Y-75529603D01*
X147786413Y-75538794D01*
X147866460Y-75669420D01*
X147876916Y-75678880D01*
X147885694Y-75675096D01*
X148627978Y-74932812D01*
X148634356Y-74921132D01*
X149364408Y-74921132D01*
X149364539Y-74922965D01*
X149368790Y-74929580D01*
X150110474Y-75671264D01*
X150122484Y-75677823D01*
X150134223Y-75668855D01*
X150165004Y-75626019D01*
X150170315Y-75617180D01*
X150264670Y-75426267D01*
X150268469Y-75416672D01*
X150330376Y-75212915D01*
X150332555Y-75202834D01*
X150360590Y-74989887D01*
X150361109Y-74983212D01*
X150362572Y-74923364D01*
X150362378Y-74916646D01*
X150344781Y-74702604D01*
X150343096Y-74692424D01*
X150291214Y-74485875D01*
X150287894Y-74476124D01*
X150202972Y-74280814D01*
X150198105Y-74271739D01*
X150133063Y-74171197D01*
X150122377Y-74161995D01*
X150112812Y-74166398D01*
X149372022Y-74907188D01*
X149364408Y-74921132D01*
X148634356Y-74921132D01*
X148635592Y-74918868D01*
X148635461Y-74917035D01*
X148631210Y-74910420D01*
X147889849Y-74169059D01*
X147878313Y-74162759D01*
X147866031Y-74172382D01*
X147818089Y-74242662D01*
X147813004Y-74251613D01*
X147723338Y-74444783D01*
X147719775Y-74454470D01*
X147662864Y-74659681D01*
X147660933Y-74669800D01*
X147638302Y-74881574D01*
X147638050Y-74891863D01*
X144647446Y-74891863D01*
X144647446Y-73796427D01*
X148241223Y-73796427D01*
X148247968Y-73808758D01*
X148987188Y-74547978D01*
X149001132Y-74555592D01*
X149002965Y-74555461D01*
X149009580Y-74551210D01*
X149515937Y-74044853D01*
X155239977Y-74044853D01*
X155245258Y-74051907D01*
X155406756Y-74146279D01*
X155416042Y-74150729D01*
X155615001Y-74226703D01*
X155624899Y-74229579D01*
X155833595Y-74272038D01*
X155843823Y-74273257D01*
X156056650Y-74281062D01*
X156066936Y-74280595D01*
X156278185Y-74253534D01*
X156288262Y-74251392D01*
X156492255Y-74190191D01*
X156501842Y-74186433D01*
X156693098Y-74092738D01*
X156701944Y-74087465D01*
X156749247Y-74053723D01*
X156757648Y-74043023D01*
X156750660Y-74029870D01*
X156012812Y-73292022D01*
X155998868Y-73284408D01*
X155997035Y-73284539D01*
X155990420Y-73288790D01*
X155246737Y-74032473D01*
X155239977Y-74044853D01*
X149515937Y-74044853D01*
X149753389Y-73807401D01*
X149760410Y-73794544D01*
X149753611Y-73785213D01*
X149749554Y-73782518D01*
X149563117Y-73679599D01*
X149553705Y-73675369D01*
X149352959Y-73604280D01*
X149342989Y-73601646D01*
X149133327Y-73564301D01*
X149123073Y-73563331D01*
X148910116Y-73560728D01*
X148899832Y-73561448D01*
X148689321Y-73593661D01*
X148679293Y-73596050D01*
X148476868Y-73662212D01*
X148467359Y-73666209D01*
X148278466Y-73764540D01*
X148269734Y-73770039D01*
X148249677Y-73785099D01*
X148241223Y-73796427D01*
X144647446Y-73796427D01*
X144647446Y-72891863D01*
X154638050Y-72891863D01*
X154650309Y-73104477D01*
X154651745Y-73114697D01*
X154698565Y-73322446D01*
X154701645Y-73332275D01*
X154781770Y-73529603D01*
X154786413Y-73538794D01*
X154866460Y-73669420D01*
X154876916Y-73678880D01*
X154885694Y-73675096D01*
X155627978Y-72932812D01*
X155634356Y-72921132D01*
X156364408Y-72921132D01*
X156364539Y-72922965D01*
X156368790Y-72929580D01*
X157110474Y-73671264D01*
X157122484Y-73677823D01*
X157134223Y-73668855D01*
X157165004Y-73626019D01*
X157170315Y-73617180D01*
X157264670Y-73426267D01*
X157268469Y-73416672D01*
X157330376Y-73212915D01*
X157332555Y-73202834D01*
X157360590Y-72989887D01*
X157361109Y-72983212D01*
X157362572Y-72923364D01*
X157362378Y-72916646D01*
X157344781Y-72702604D01*
X157343096Y-72692424D01*
X157291214Y-72485875D01*
X157287894Y-72476124D01*
X157202972Y-72280814D01*
X157198105Y-72271739D01*
X157133063Y-72171197D01*
X157122377Y-72161995D01*
X157112812Y-72166398D01*
X156372022Y-72907188D01*
X156364408Y-72921132D01*
X155634356Y-72921132D01*
X155635592Y-72918868D01*
X155635461Y-72917035D01*
X155631210Y-72910420D01*
X154889849Y-72169059D01*
X154878313Y-72162759D01*
X154866031Y-72172382D01*
X154818089Y-72242662D01*
X154813004Y-72251613D01*
X154723338Y-72444783D01*
X154719775Y-72454470D01*
X154662864Y-72659681D01*
X154660933Y-72669800D01*
X154638302Y-72881574D01*
X154638050Y-72891863D01*
X144647446Y-72891863D01*
X144647446Y-72354349D01*
X144647505Y-72353610D01*
X144647528Y-72353553D01*
X144650616Y-72353553D01*
X144641511Y-72272802D01*
X144638760Y-72248399D01*
X144638760Y-72248397D01*
X144637967Y-72241368D01*
X144635631Y-72234693D01*
X144635630Y-72234689D01*
X144603011Y-72141489D01*
X144600674Y-72134811D01*
X144540608Y-72039221D01*
X144460779Y-71959392D01*
X144454791Y-71955629D01*
X144454788Y-71955627D01*
X144412984Y-71929359D01*
X144365189Y-71899326D01*
X144335026Y-71888769D01*
X144265311Y-71864370D01*
X144265307Y-71864369D01*
X144258632Y-71862033D01*
X144251603Y-71861240D01*
X144251601Y-71861240D01*
X144146447Y-71849384D01*
X144146560Y-71848381D01*
X144146249Y-71848346D01*
X144146249Y-71852554D01*
X142153531Y-71852552D01*
X142139436Y-71851761D01*
X142131944Y-71850918D01*
X142094820Y-71846738D01*
X142092622Y-71846470D01*
X142043229Y-71839971D01*
X142018063Y-71833981D01*
X141975216Y-71818991D01*
X141968614Y-71816471D01*
X141927157Y-71799301D01*
X141921593Y-71796427D01*
X155241223Y-71796427D01*
X155247968Y-71808758D01*
X155987188Y-72547978D01*
X156001132Y-72555592D01*
X156002965Y-72555461D01*
X156009580Y-72551210D01*
X156753389Y-71807401D01*
X156760410Y-71794544D01*
X156753611Y-71785213D01*
X156749554Y-71782518D01*
X156563117Y-71679599D01*
X156553705Y-71675369D01*
X156352959Y-71604280D01*
X156342989Y-71601646D01*
X156133327Y-71564301D01*
X156123073Y-71563331D01*
X155910116Y-71560728D01*
X155899832Y-71561448D01*
X155689321Y-71593661D01*
X155679293Y-71596050D01*
X155476868Y-71662212D01*
X155467359Y-71666209D01*
X155278466Y-71764540D01*
X155269734Y-71770039D01*
X155249677Y-71785099D01*
X155241223Y-71796427D01*
X141921593Y-71796427D01*
X141908339Y-71789581D01*
X141897097Y-71782518D01*
X141869213Y-71764998D01*
X141859567Y-71758288D01*
X141837254Y-71741167D01*
X141824585Y-71731446D01*
X141812194Y-71720579D01*
X141779424Y-71687809D01*
X141768556Y-71675417D01*
X141741714Y-71640435D01*
X141734988Y-71630766D01*
X141713176Y-71596050D01*
X141710419Y-71591662D01*
X141700698Y-71572843D01*
X141683526Y-71531379D01*
X141681008Y-71524780D01*
X141666021Y-71481946D01*
X141660028Y-71456770D01*
X141653541Y-71407464D01*
X141653255Y-71405125D01*
X141653024Y-71403068D01*
X141648239Y-71360572D01*
X141647448Y-71346476D01*
X141647447Y-70500000D01*
X146369819Y-70500000D01*
X146388426Y-70617482D01*
X146442427Y-70723465D01*
X146526535Y-70807573D01*
X146632518Y-70861574D01*
X146750000Y-70880181D01*
X146867482Y-70861574D01*
X146973465Y-70807573D01*
X147057573Y-70723465D01*
X147111574Y-70617482D01*
X147130181Y-70500000D01*
X147111574Y-70382518D01*
X147057573Y-70276535D01*
X146973465Y-70192427D01*
X146867482Y-70138426D01*
X146750000Y-70119819D01*
X146632518Y-70138426D01*
X146526535Y-70192427D01*
X146442427Y-70276535D01*
X146388426Y-70382518D01*
X146369819Y-70500000D01*
X141647447Y-70500000D01*
X141647445Y-68854349D01*
X141647504Y-68853610D01*
X141647527Y-68853553D01*
X141650615Y-68853553D01*
X141637966Y-68741369D01*
X141635630Y-68734694D01*
X141635629Y-68734690D01*
X141603010Y-68641489D01*
X141600673Y-68634811D01*
X141540607Y-68539222D01*
X141460778Y-68459393D01*
X141372602Y-68403985D01*
X141371178Y-68403090D01*
X141371176Y-68403089D01*
X141365189Y-68399327D01*
X141336558Y-68389307D01*
X141265310Y-68364371D01*
X141265306Y-68364370D01*
X141258631Y-68362034D01*
X141251602Y-68361241D01*
X141251600Y-68361241D01*
X141146447Y-68349385D01*
X141146560Y-68348381D01*
X141146252Y-68348346D01*
X141146252Y-68352554D01*
X134146680Y-68352554D01*
X134146637Y-68352551D01*
X134146447Y-68352472D01*
X134146447Y-68349478D01*
X134034268Y-68362107D01*
X133927712Y-68399381D01*
X133832122Y-68459432D01*
X133752291Y-68539248D01*
X133692222Y-68634827D01*
X133654928Y-68741376D01*
X133642278Y-68853553D01*
X133641276Y-68853440D01*
X133641241Y-68853753D01*
X133645449Y-68853753D01*
X133645446Y-71346487D01*
X133644655Y-71360583D01*
X133639872Y-71403068D01*
X133639575Y-71405496D01*
X133632733Y-71457218D01*
X133626754Y-71482297D01*
X133612439Y-71523220D01*
X133609921Y-71529819D01*
X133597122Y-71560728D01*
X133591899Y-71573340D01*
X133582181Y-71592155D01*
X133574565Y-71604280D01*
X133558448Y-71629935D01*
X133551730Y-71639595D01*
X133523831Y-71675962D01*
X133512967Y-71688350D01*
X133481219Y-71720103D01*
X133468831Y-71730969D01*
X133432475Y-71758872D01*
X133422807Y-71765599D01*
X133385047Y-71789330D01*
X133366232Y-71799052D01*
X133322674Y-71817100D01*
X133316112Y-71819606D01*
X133275272Y-71833901D01*
X133250115Y-71839893D01*
X133195262Y-71847120D01*
X133192937Y-71847404D01*
X133175381Y-71849384D01*
X133154328Y-71851758D01*
X133140209Y-71852552D01*
X131158165Y-71852554D01*
X131146680Y-71852554D01*
X131146637Y-71852551D01*
X131146447Y-71852472D01*
X131146447Y-71849478D01*
X131034268Y-71862107D01*
X130927712Y-71899381D01*
X130832122Y-71959432D01*
X130752291Y-72039248D01*
X130692222Y-72134827D01*
X130689886Y-72141501D01*
X130689885Y-72141503D01*
X130657269Y-72234689D01*
X130654928Y-72241376D01*
X130654135Y-72248406D01*
X130654135Y-72248407D01*
X130652029Y-72267081D01*
X130642278Y-72353553D01*
X130641276Y-72353440D01*
X130641241Y-72353751D01*
X128400535Y-72353751D01*
X128390377Y-72337368D01*
X128300137Y-72191824D01*
X128300134Y-72191820D01*
X128296774Y-72186401D01*
X128217267Y-72102325D01*
X128161508Y-72043361D01*
X128161507Y-72043360D01*
X128157119Y-72038720D01*
X127990621Y-71922137D01*
X127804081Y-71841414D01*
X127758053Y-71831798D01*
X127609856Y-71800838D01*
X127609851Y-71800837D01*
X127605120Y-71799849D01*
X127600238Y-71799593D01*
X127600129Y-71799587D01*
X127600113Y-71799587D01*
X127598461Y-71799500D01*
X126449200Y-71799500D01*
X126401207Y-71804375D01*
X126304132Y-71814235D01*
X126304130Y-71814235D01*
X126297784Y-71814880D01*
X126103828Y-71875662D01*
X125926056Y-71974203D01*
X125771729Y-72106477D01*
X125767822Y-72111514D01*
X125767820Y-72111516D01*
X125721527Y-72171197D01*
X125647152Y-72267081D01*
X125557413Y-72449455D01*
X125555804Y-72455633D01*
X125555803Y-72455635D01*
X125529603Y-72556220D01*
X125506178Y-72646148D01*
X125495541Y-72849126D01*
X120356827Y-72849126D01*
X120344781Y-72702604D01*
X120343096Y-72692424D01*
X120291214Y-72485875D01*
X120287894Y-72476124D01*
X120202972Y-72280814D01*
X120198105Y-72271739D01*
X120133063Y-72171197D01*
X120122377Y-72161995D01*
X120112812Y-72166398D01*
X119372022Y-72907188D01*
X119364408Y-72921132D01*
X118634356Y-72921132D01*
X118635592Y-72918868D01*
X118635461Y-72917035D01*
X118631210Y-72910420D01*
X117889849Y-72169059D01*
X117878313Y-72162759D01*
X117866031Y-72172382D01*
X117818089Y-72242662D01*
X117813004Y-72251613D01*
X117723338Y-72444783D01*
X117719775Y-72454470D01*
X117662864Y-72659681D01*
X117660933Y-72669800D01*
X117638302Y-72881574D01*
X117638050Y-72891863D01*
X115001000Y-72891863D01*
X115001000Y-71796427D01*
X118241223Y-71796427D01*
X118247968Y-71808758D01*
X118987188Y-72547978D01*
X119001132Y-72555592D01*
X119002965Y-72555461D01*
X119009580Y-72551210D01*
X119753389Y-71807401D01*
X119760410Y-71794544D01*
X119753611Y-71785213D01*
X119749554Y-71782518D01*
X119563117Y-71679599D01*
X119553705Y-71675369D01*
X119352959Y-71604280D01*
X119342989Y-71601646D01*
X119133327Y-71564301D01*
X119123073Y-71563331D01*
X118910116Y-71560728D01*
X118899832Y-71561448D01*
X118689321Y-71593661D01*
X118679293Y-71596050D01*
X118476868Y-71662212D01*
X118467359Y-71666209D01*
X118278466Y-71764540D01*
X118269734Y-71770039D01*
X118249677Y-71785099D01*
X118241223Y-71796427D01*
X115001000Y-71796427D01*
X115001000Y-68003290D01*
X115001173Y-67996696D01*
X115014952Y-67733777D01*
X115014977Y-67733306D01*
X115017344Y-67691159D01*
X115018697Y-67678514D01*
X115023730Y-67646735D01*
X115049963Y-67481107D01*
X115050173Y-67479830D01*
X115068826Y-67370055D01*
X115071338Y-67358551D01*
X115107041Y-67225304D01*
X115119521Y-67178729D01*
X115120142Y-67176497D01*
X115142181Y-67100000D01*
X145994508Y-67100000D01*
X146014354Y-67225304D01*
X146071950Y-67338342D01*
X146161658Y-67428050D01*
X146274696Y-67485646D01*
X146284485Y-67487196D01*
X146284487Y-67487197D01*
X146390207Y-67503941D01*
X146400000Y-67505492D01*
X146409793Y-67503941D01*
X146515513Y-67487197D01*
X146515515Y-67487196D01*
X146525304Y-67485646D01*
X146638342Y-67428050D01*
X146728050Y-67338342D01*
X146785646Y-67225304D01*
X146805492Y-67100000D01*
X146800957Y-67071367D01*
X146787197Y-66984487D01*
X146787196Y-66984485D01*
X146785646Y-66974696D01*
X146728050Y-66861658D01*
X146638342Y-66771950D01*
X146525304Y-66714354D01*
X146515515Y-66712804D01*
X146515513Y-66712803D01*
X146409793Y-66696059D01*
X146400000Y-66694508D01*
X146390207Y-66696059D01*
X146284487Y-66712803D01*
X146284485Y-66712804D01*
X146274696Y-66714354D01*
X146161658Y-66771950D01*
X146071950Y-66861658D01*
X146014354Y-66974696D01*
X146012804Y-66984485D01*
X146012803Y-66984487D01*
X145999043Y-67071367D01*
X145994508Y-67100000D01*
X115142181Y-67100000D01*
X115154711Y-67056507D01*
X115158155Y-67046235D01*
X115222831Y-66877747D01*
X115224053Y-66874683D01*
X115225790Y-66870491D01*
X115273957Y-66754205D01*
X115278099Y-66745220D01*
X115358737Y-66586959D01*
X115360726Y-66583214D01*
X115425129Y-66466685D01*
X115429735Y-66459008D01*
X115525581Y-66311419D01*
X115528492Y-66307131D01*
X115606419Y-66197303D01*
X115611260Y-66190921D01*
X115721489Y-66054801D01*
X115725457Y-66050137D01*
X115770262Y-66000000D01*
X140294508Y-66000000D01*
X140296059Y-66009793D01*
X140303188Y-66054801D01*
X140314354Y-66125304D01*
X140371950Y-66238342D01*
X140461658Y-66328050D01*
X140574696Y-66385646D01*
X140584485Y-66387196D01*
X140584487Y-66387197D01*
X140690207Y-66403941D01*
X140700000Y-66405492D01*
X140709793Y-66403941D01*
X140815513Y-66387197D01*
X140815515Y-66387196D01*
X140825304Y-66385646D01*
X140938342Y-66328050D01*
X141028050Y-66238342D01*
X141085646Y-66125304D01*
X141096813Y-66054801D01*
X141103941Y-66009793D01*
X141105492Y-66000000D01*
X141097453Y-65949242D01*
X141087197Y-65884487D01*
X141087196Y-65884485D01*
X141085646Y-65874696D01*
X141028050Y-65761658D01*
X140938342Y-65671950D01*
X140825304Y-65614354D01*
X140815515Y-65612804D01*
X140815513Y-65612803D01*
X140709793Y-65596059D01*
X140700000Y-65594508D01*
X140690207Y-65596059D01*
X140584487Y-65612803D01*
X140584485Y-65612804D01*
X140574696Y-65614354D01*
X140461658Y-65671950D01*
X140371950Y-65761658D01*
X140314354Y-65874696D01*
X140312804Y-65884485D01*
X140312803Y-65884487D01*
X140302547Y-65949242D01*
X140294508Y-66000000D01*
X115770262Y-66000000D01*
X115779013Y-65990207D01*
X115815622Y-65949242D01*
X115820461Y-65944125D01*
X115944125Y-65820461D01*
X115949242Y-65815622D01*
X116050137Y-65725457D01*
X116054801Y-65721489D01*
X116190921Y-65611260D01*
X116197303Y-65606419D01*
X116307131Y-65528492D01*
X116311419Y-65525581D01*
X116459008Y-65429735D01*
X116466685Y-65425129D01*
X116583214Y-65360726D01*
X116586959Y-65358737D01*
X116745220Y-65278099D01*
X116754205Y-65273957D01*
X116810707Y-65250553D01*
X116874701Y-65224046D01*
X116877730Y-65222838D01*
X117046237Y-65158154D01*
X117056507Y-65154711D01*
X117176497Y-65120142D01*
X117178729Y-65119521D01*
X117241068Y-65102817D01*
X117358551Y-65071338D01*
X117370055Y-65068826D01*
X117479830Y-65050173D01*
X117481107Y-65049963D01*
X117646735Y-65023730D01*
X117678514Y-65018697D01*
X117691160Y-65017344D01*
X117733209Y-65014983D01*
X117733678Y-65014958D01*
X117996695Y-65001173D01*
X118003290Y-65001000D01*
X129986315Y-65001000D01*
X130000000Y-65002245D01*
X130000000Y-65005293D01*
X130076634Y-65000270D01*
X130084875Y-65000000D01*
X132000000Y-65000000D01*
X132000000Y-64500000D01*
X135844508Y-64500000D01*
X135864354Y-64625304D01*
X135921950Y-64738342D01*
X136011658Y-64828050D01*
X136124696Y-64885646D01*
X136134485Y-64887196D01*
X136134487Y-64887197D01*
X136240207Y-64903941D01*
X136250000Y-64905492D01*
X136259793Y-64903941D01*
X136365513Y-64887197D01*
X136365515Y-64887196D01*
X136375304Y-64885646D01*
X136488342Y-64828050D01*
X136578050Y-64738342D01*
X136635646Y-64625304D01*
X136655492Y-64500000D01*
X138344508Y-64500000D01*
X138364354Y-64625304D01*
X138421950Y-64738342D01*
X138511658Y-64828050D01*
X138624696Y-64885646D01*
X138634485Y-64887196D01*
X138634487Y-64887197D01*
X138740207Y-64903941D01*
X138750000Y-64905492D01*
X138759793Y-64903941D01*
X138865513Y-64887197D01*
X138865515Y-64887196D01*
X138875304Y-64885646D01*
X138988342Y-64828050D01*
X139078050Y-64738342D01*
X139135646Y-64625304D01*
X139155492Y-64500000D01*
X139135646Y-64374696D01*
X139078050Y-64261658D01*
X138988342Y-64171950D01*
X138875304Y-64114354D01*
X138865515Y-64112804D01*
X138865513Y-64112803D01*
X138759793Y-64096059D01*
X138750000Y-64094508D01*
X138740207Y-64096059D01*
X138634487Y-64112803D01*
X138634485Y-64112804D01*
X138624696Y-64114354D01*
X138511658Y-64171950D01*
X138421950Y-64261658D01*
X138364354Y-64374696D01*
X138344508Y-64500000D01*
X136655492Y-64500000D01*
X136635646Y-64374696D01*
X136578050Y-64261658D01*
X136488342Y-64171950D01*
X136375304Y-64114354D01*
X136365515Y-64112804D01*
X136365513Y-64112803D01*
X136259793Y-64096059D01*
X136250000Y-64094508D01*
X136240207Y-64096059D01*
X136134487Y-64112803D01*
X136134485Y-64112804D01*
X136124696Y-64114354D01*
X136011658Y-64171950D01*
X135921950Y-64261658D01*
X135864354Y-64374696D01*
X135844508Y-64500000D01*
X132000000Y-64500000D01*
X132000000Y-63084875D01*
X132000270Y-63076634D01*
X132004108Y-63018078D01*
X132005293Y-63000000D01*
X132002076Y-63000000D01*
X132001000Y-62990263D01*
X132001000Y-62504544D01*
X139353863Y-62504544D01*
X139355414Y-62514337D01*
X139361336Y-62551724D01*
X139373709Y-62629848D01*
X139431305Y-62742886D01*
X139521013Y-62832594D01*
X139634051Y-62890190D01*
X139643840Y-62891740D01*
X139643842Y-62891741D01*
X139749562Y-62908485D01*
X139759355Y-62910036D01*
X139769148Y-62908485D01*
X139874868Y-62891741D01*
X139874870Y-62891740D01*
X139884659Y-62890190D01*
X139997697Y-62832594D01*
X140087405Y-62742886D01*
X140090289Y-62737226D01*
X140144945Y-62695082D01*
X140215682Y-62689008D01*
X140278472Y-62722142D01*
X140313382Y-62783963D01*
X140315105Y-62792788D01*
X140330778Y-62891741D01*
X140333121Y-62906537D01*
X140390717Y-63019575D01*
X140480425Y-63109283D01*
X140593463Y-63166879D01*
X140603252Y-63168429D01*
X140603254Y-63168430D01*
X140708974Y-63185174D01*
X140718767Y-63186725D01*
X140728560Y-63185174D01*
X140834280Y-63168430D01*
X140834282Y-63168429D01*
X140844071Y-63166879D01*
X140957109Y-63109283D01*
X141046817Y-63019575D01*
X141104413Y-62906537D01*
X141106757Y-62891741D01*
X141122708Y-62791026D01*
X141124259Y-62781233D01*
X141119296Y-62749897D01*
X141105964Y-62665720D01*
X141105963Y-62665718D01*
X141104413Y-62655929D01*
X141046817Y-62542891D01*
X140957109Y-62453183D01*
X140844071Y-62395587D01*
X140834282Y-62394037D01*
X140834280Y-62394036D01*
X140728560Y-62377292D01*
X140718767Y-62375741D01*
X140708974Y-62377292D01*
X140603254Y-62394036D01*
X140603252Y-62394037D01*
X140593463Y-62395587D01*
X140480425Y-62453183D01*
X140390717Y-62542891D01*
X140387833Y-62548551D01*
X140333177Y-62590695D01*
X140262440Y-62596769D01*
X140199650Y-62563635D01*
X140164740Y-62501814D01*
X140163017Y-62492989D01*
X140146552Y-62389032D01*
X140146552Y-62389031D01*
X140145001Y-62379240D01*
X140087405Y-62266202D01*
X139997697Y-62176494D01*
X139884659Y-62118898D01*
X139874870Y-62117348D01*
X139874868Y-62117347D01*
X139769148Y-62100603D01*
X139759355Y-62099052D01*
X139749562Y-62100603D01*
X139643842Y-62117347D01*
X139643840Y-62117348D01*
X139634051Y-62118898D01*
X139521013Y-62176494D01*
X139431305Y-62266202D01*
X139373709Y-62379240D01*
X139372159Y-62389029D01*
X139372158Y-62389031D01*
X139371120Y-62395587D01*
X139353863Y-62504544D01*
X132001000Y-62504544D01*
X132001000Y-61745996D01*
X132504500Y-61745996D01*
X132519181Y-61867313D01*
X132576973Y-62020255D01*
X132669579Y-62154997D01*
X132675249Y-62160048D01*
X132675250Y-62160050D01*
X132701576Y-62183505D01*
X132791652Y-62263760D01*
X132798361Y-62267312D01*
X132798362Y-62267313D01*
X132929434Y-62336712D01*
X132929436Y-62336713D01*
X132936145Y-62340265D01*
X132987215Y-62353093D01*
X133087345Y-62378244D01*
X133087349Y-62378244D01*
X133094716Y-62380095D01*
X133102315Y-62380135D01*
X133102317Y-62380135D01*
X133170347Y-62380491D01*
X133258210Y-62380951D01*
X133265590Y-62379179D01*
X133265592Y-62379179D01*
X133409811Y-62344556D01*
X133409815Y-62344555D01*
X133417190Y-62342784D01*
X133562476Y-62267796D01*
X133568200Y-62262803D01*
X133679956Y-62165312D01*
X133679959Y-62165309D01*
X133685681Y-62160317D01*
X133779693Y-62026552D01*
X133839083Y-61874224D01*
X133855500Y-61749527D01*
X133855500Y-60745196D01*
X134134055Y-60745196D01*
X134171484Y-60876158D01*
X134244165Y-60991350D01*
X134346255Y-61081513D01*
X134354378Y-61085327D01*
X134354380Y-61085328D01*
X134413607Y-61113135D01*
X134469548Y-61139399D01*
X134478412Y-61140779D01*
X134478415Y-61140780D01*
X134541897Y-61150664D01*
X134572956Y-61155500D01*
X134644145Y-61155500D01*
X134683589Y-61149851D01*
X134735943Y-61142354D01*
X134735946Y-61142353D01*
X134744829Y-61141081D01*
X134868820Y-61084706D01*
X134972004Y-60995796D01*
X135046087Y-60881501D01*
X135085113Y-60751006D01*
X135085148Y-60745196D01*
X139914055Y-60745196D01*
X139951484Y-60876158D01*
X140024165Y-60991350D01*
X140126255Y-61081513D01*
X140134378Y-61085327D01*
X140134380Y-61085328D01*
X140193607Y-61113135D01*
X140249548Y-61139399D01*
X140258412Y-61140779D01*
X140258415Y-61140780D01*
X140321897Y-61150664D01*
X140352956Y-61155500D01*
X140424145Y-61155500D01*
X140463589Y-61149851D01*
X140515943Y-61142354D01*
X140515946Y-61142353D01*
X140524829Y-61141081D01*
X140648820Y-61084706D01*
X140752004Y-60995796D01*
X140826087Y-60881501D01*
X140865113Y-60751006D01*
X140865945Y-60614804D01*
X140828516Y-60483842D01*
X140755835Y-60368650D01*
X140723107Y-60339745D01*
X140660473Y-60284429D01*
X140653745Y-60278487D01*
X140645622Y-60274673D01*
X140645620Y-60274672D01*
X140572211Y-60240207D01*
X140530452Y-60220601D01*
X140521588Y-60219221D01*
X140521585Y-60219220D01*
X140458103Y-60209336D01*
X140427044Y-60204500D01*
X140355855Y-60204500D01*
X140316411Y-60210149D01*
X140264057Y-60217646D01*
X140264054Y-60217647D01*
X140255171Y-60218919D01*
X140131180Y-60275294D01*
X140027996Y-60364204D01*
X139953913Y-60478499D01*
X139951342Y-60487096D01*
X139951341Y-60487098D01*
X139947415Y-60500227D01*
X139914887Y-60608994D01*
X139914055Y-60745196D01*
X135085148Y-60745196D01*
X135085945Y-60614804D01*
X135048516Y-60483842D01*
X134975835Y-60368650D01*
X134943107Y-60339745D01*
X134880473Y-60284429D01*
X134873745Y-60278487D01*
X134865622Y-60274673D01*
X134865620Y-60274672D01*
X134813070Y-60250000D01*
X135594508Y-60250000D01*
X135596059Y-60259793D01*
X135612359Y-60362706D01*
X135614354Y-60375304D01*
X135671950Y-60488342D01*
X135761658Y-60578050D01*
X135874696Y-60635646D01*
X135884485Y-60637196D01*
X135884487Y-60637197D01*
X135990207Y-60653941D01*
X136000000Y-60655492D01*
X136009793Y-60653941D01*
X136115513Y-60637197D01*
X136115515Y-60637196D01*
X136125304Y-60635646D01*
X136238342Y-60578050D01*
X136328050Y-60488342D01*
X136385646Y-60375304D01*
X136387642Y-60362706D01*
X136403941Y-60259793D01*
X136405492Y-60250000D01*
X138594508Y-60250000D01*
X138596059Y-60259793D01*
X138612359Y-60362706D01*
X138614354Y-60375304D01*
X138671950Y-60488342D01*
X138761658Y-60578050D01*
X138874696Y-60635646D01*
X138884485Y-60637196D01*
X138884487Y-60637197D01*
X138990207Y-60653941D01*
X139000000Y-60655492D01*
X139009793Y-60653941D01*
X139115513Y-60637197D01*
X139115515Y-60637196D01*
X139125304Y-60635646D01*
X139238342Y-60578050D01*
X139328050Y-60488342D01*
X139385646Y-60375304D01*
X139387642Y-60362706D01*
X139403941Y-60259793D01*
X139405492Y-60250000D01*
X139385646Y-60124696D01*
X139328050Y-60011658D01*
X139238342Y-59921950D01*
X139125304Y-59864354D01*
X139115515Y-59862804D01*
X139115513Y-59862803D01*
X139009793Y-59846059D01*
X139000000Y-59844508D01*
X138990207Y-59846059D01*
X138884487Y-59862803D01*
X138884485Y-59862804D01*
X138874696Y-59864354D01*
X138761658Y-59921950D01*
X138671950Y-60011658D01*
X138614354Y-60124696D01*
X138594508Y-60250000D01*
X136405492Y-60250000D01*
X136385646Y-60124696D01*
X136328050Y-60011658D01*
X136238342Y-59921950D01*
X136125304Y-59864354D01*
X136115515Y-59862804D01*
X136115513Y-59862803D01*
X136009793Y-59846059D01*
X136000000Y-59844508D01*
X135990207Y-59846059D01*
X135884487Y-59862803D01*
X135884485Y-59862804D01*
X135874696Y-59864354D01*
X135761658Y-59921950D01*
X135671950Y-60011658D01*
X135614354Y-60124696D01*
X135594508Y-60250000D01*
X134813070Y-60250000D01*
X134792211Y-60240207D01*
X134750452Y-60220601D01*
X134741588Y-60219221D01*
X134741585Y-60219220D01*
X134678103Y-60209336D01*
X134647044Y-60204500D01*
X134575855Y-60204500D01*
X134536411Y-60210149D01*
X134484057Y-60217646D01*
X134484054Y-60217647D01*
X134475171Y-60218919D01*
X134351180Y-60275294D01*
X134247996Y-60364204D01*
X134173913Y-60478499D01*
X134171342Y-60487096D01*
X134171341Y-60487098D01*
X134167415Y-60500227D01*
X134134887Y-60608994D01*
X134134055Y-60745196D01*
X133855500Y-60745196D01*
X133855500Y-60614004D01*
X133840819Y-60492687D01*
X133783027Y-60339745D01*
X133742759Y-60281155D01*
X133694723Y-60211262D01*
X133694722Y-60211261D01*
X133690421Y-60205003D01*
X133597679Y-60122373D01*
X133560125Y-60062125D01*
X133555500Y-60028299D01*
X133555500Y-58098313D01*
X133575502Y-58030192D01*
X133597302Y-58005607D01*
X133597940Y-58005202D01*
X133710448Y-57885393D01*
X133752720Y-57808502D01*
X133785807Y-57748316D01*
X133789627Y-57741368D01*
X133809734Y-57663058D01*
X133828529Y-57589855D01*
X133828529Y-57589852D01*
X133830500Y-57582177D01*
X133830500Y-57501500D01*
X133850502Y-57433379D01*
X133904158Y-57386886D01*
X133956500Y-57375500D01*
X141043500Y-57375500D01*
X141111621Y-57395502D01*
X141158114Y-57449158D01*
X141169500Y-57501500D01*
X141169500Y-57540925D01*
X141184929Y-57663058D01*
X141245432Y-57815871D01*
X141342037Y-57948837D01*
X141348141Y-57953887D01*
X141348147Y-57953893D01*
X141398816Y-57995810D01*
X141438554Y-58054643D01*
X141444500Y-58092894D01*
X141444500Y-60028830D01*
X141424498Y-60096951D01*
X141401329Y-60123779D01*
X141320044Y-60194688D01*
X141320041Y-60194691D01*
X141314319Y-60199683D01*
X141220307Y-60333448D01*
X141160917Y-60485776D01*
X141144500Y-60610473D01*
X141144500Y-61745996D01*
X141159181Y-61867313D01*
X141216973Y-62020255D01*
X141309579Y-62154997D01*
X141315249Y-62160048D01*
X141315250Y-62160050D01*
X141341576Y-62183505D01*
X141431652Y-62263760D01*
X141438361Y-62267312D01*
X141438362Y-62267313D01*
X141569434Y-62336712D01*
X141569436Y-62336713D01*
X141576145Y-62340265D01*
X141627215Y-62353093D01*
X141727345Y-62378244D01*
X141727349Y-62378244D01*
X141734716Y-62380095D01*
X141742315Y-62380135D01*
X141742317Y-62380135D01*
X141810347Y-62380491D01*
X141898210Y-62380951D01*
X141905590Y-62379179D01*
X141905592Y-62379179D01*
X142049811Y-62344556D01*
X142049815Y-62344555D01*
X142057190Y-62342784D01*
X142202476Y-62267796D01*
X142208200Y-62262803D01*
X142319956Y-62165312D01*
X142319959Y-62165309D01*
X142325681Y-62160317D01*
X142419693Y-62026552D01*
X142479083Y-61874224D01*
X142495500Y-61749527D01*
X142495500Y-60614004D01*
X142480819Y-60492687D01*
X142423027Y-60339745D01*
X142382759Y-60281155D01*
X142334723Y-60211262D01*
X142334722Y-60211261D01*
X142330421Y-60205003D01*
X142237679Y-60122373D01*
X142200125Y-60062125D01*
X142195500Y-60028299D01*
X142195500Y-58098313D01*
X142215502Y-58030192D01*
X142237302Y-58005607D01*
X142237940Y-58005202D01*
X142350448Y-57885393D01*
X142392720Y-57808502D01*
X142425807Y-57748316D01*
X142429627Y-57741368D01*
X142449734Y-57663058D01*
X142468529Y-57589855D01*
X142468529Y-57589852D01*
X142470500Y-57582177D01*
X142470500Y-56459075D01*
X142455071Y-56336942D01*
X142394568Y-56184129D01*
X142297963Y-56051163D01*
X142171326Y-55946400D01*
X142022613Y-55876421D01*
X142014830Y-55874936D01*
X142014826Y-55874935D01*
X141868956Y-55847109D01*
X141868954Y-55847109D01*
X141861170Y-55845624D01*
X141779155Y-55850784D01*
X141705051Y-55855446D01*
X141705049Y-55855446D01*
X141697140Y-55855944D01*
X141689604Y-55858393D01*
X141689602Y-55858393D01*
X141647637Y-55872028D01*
X141540829Y-55906732D01*
X141402060Y-55994798D01*
X141289552Y-56114607D01*
X141285735Y-56121551D01*
X141285733Y-56121553D01*
X141244506Y-56196545D01*
X141210373Y-56258632D01*
X141208403Y-56266304D01*
X141208402Y-56266307D01*
X141188247Y-56344807D01*
X141169500Y-56417823D01*
X141169500Y-56498500D01*
X141149498Y-56566621D01*
X141095842Y-56613114D01*
X141043500Y-56624500D01*
X133956500Y-56624500D01*
X133888379Y-56604498D01*
X133841886Y-56550842D01*
X133830500Y-56498500D01*
X133830500Y-56459075D01*
X133815071Y-56336942D01*
X133754568Y-56184129D01*
X133657963Y-56051163D01*
X133531326Y-55946400D01*
X133382613Y-55876421D01*
X133374830Y-55874936D01*
X133374826Y-55874935D01*
X133228956Y-55847109D01*
X133228954Y-55847109D01*
X133221170Y-55845624D01*
X133139155Y-55850784D01*
X133065051Y-55855446D01*
X133065049Y-55855446D01*
X133057140Y-55855944D01*
X133049604Y-55858393D01*
X133049602Y-55858393D01*
X133007637Y-55872028D01*
X132900829Y-55906732D01*
X132762060Y-55994798D01*
X132649552Y-56114607D01*
X132645735Y-56121551D01*
X132645733Y-56121553D01*
X132604506Y-56196545D01*
X132570373Y-56258632D01*
X132568403Y-56266304D01*
X132568402Y-56266307D01*
X132548247Y-56344807D01*
X132529500Y-56417823D01*
X132529500Y-57540925D01*
X132544929Y-57663058D01*
X132605432Y-57815871D01*
X132702037Y-57948837D01*
X132708141Y-57953887D01*
X132708147Y-57953893D01*
X132758816Y-57995810D01*
X132798554Y-58054643D01*
X132804500Y-58092894D01*
X132804500Y-60028830D01*
X132784498Y-60096951D01*
X132761329Y-60123779D01*
X132680044Y-60194688D01*
X132680041Y-60194691D01*
X132674319Y-60199683D01*
X132580307Y-60333448D01*
X132520917Y-60485776D01*
X132504500Y-60610473D01*
X132504500Y-61745996D01*
X132001000Y-61745996D01*
X132001000Y-55627000D01*
X132021002Y-55558879D01*
X132074658Y-55512386D01*
X132127000Y-55501000D01*
X142873000Y-55501000D01*
X142941121Y-55521002D01*
G37*
%TD.AperFunction*%
%TD*%
M02*
