%TF.GenerationSoftware,KiCad,Pcbnew,6.0.7+dfsg-1~bpo11+1*%
%TF.CreationDate,2022-10-07T12:23:40+00:00*%
%TF.ProjectId,redshift,72656473-6869-4667-942e-6b696361645f,0.2*%
%TF.SameCoordinates,Original*%
%TF.FileFunction,OtherDrawing,Comment*%
%FSLAX46Y46*%
G04 Gerber Fmt 4.6, Leading zero omitted, Abs format (unit mm)*
G04 Created by KiCad (PCBNEW 6.0.7+dfsg-1~bpo11+1) date 2022-10-07 12:23:40*
%MOMM*%
%LPD*%
G01*
G04 APERTURE LIST*
%ADD10C,0.150000*%
%ADD11C,0.100000*%
%ADD12C,0.120000*%
G04 APERTURE END LIST*
D10*
X133500000Y-78000000D02*
X146000000Y-78000000D01*
X137500000Y-47750000D02*
X137500000Y-37250000D01*
X125952380Y-62761904D02*
X125952380Y-62666666D01*
X126000000Y-62571428D01*
X126047619Y-62523809D01*
X126142857Y-62476190D01*
X126333333Y-62428571D01*
X126571428Y-62428571D01*
X126761904Y-62476190D01*
X126857142Y-62523809D01*
X126904761Y-62571428D01*
X126952380Y-62666666D01*
X126952380Y-62761904D01*
X126904761Y-62857142D01*
X126857142Y-62904761D01*
X126761904Y-62952380D01*
X126571428Y-63000000D01*
X126333333Y-63000000D01*
X126142857Y-62952380D01*
X126047619Y-62904761D01*
X126000000Y-62857142D01*
X125952380Y-62761904D01*
X126857142Y-62000000D02*
X126904761Y-61952380D01*
X126952380Y-62000000D01*
X126904761Y-62047619D01*
X126857142Y-62000000D01*
X126952380Y-62000000D01*
X125952380Y-61619047D02*
X125952380Y-61000000D01*
X126333333Y-61333333D01*
X126333333Y-61190476D01*
X126380952Y-61095238D01*
X126428571Y-61047619D01*
X126523809Y-61000000D01*
X126761904Y-61000000D01*
X126857142Y-61047619D01*
X126904761Y-61095238D01*
X126952380Y-61190476D01*
X126952380Y-61476190D01*
X126904761Y-61571428D01*
X126857142Y-61619047D01*
X125952380Y-60666666D02*
X125952380Y-60000000D01*
X126952380Y-60428571D01*
X126285714Y-59190476D02*
X126952380Y-59190476D01*
X125904761Y-59428571D02*
X126619047Y-59666666D01*
X126619047Y-59047619D01*
X125952380Y-58476190D02*
X125952380Y-58380952D01*
X126000000Y-58285714D01*
X126047619Y-58238095D01*
X126142857Y-58190476D01*
X126333333Y-58142857D01*
X126571428Y-58142857D01*
X126761904Y-58190476D01*
X126857142Y-58238095D01*
X126904761Y-58285714D01*
X126952380Y-58380952D01*
X126952380Y-58476190D01*
X126904761Y-58571428D01*
X126857142Y-58619047D01*
X126761904Y-58666666D01*
X126571428Y-58714285D01*
X126333333Y-58714285D01*
X126142857Y-58666666D01*
X126047619Y-58619047D01*
X126000000Y-58571428D01*
X125952380Y-58476190D01*
X126952380Y-56952380D02*
X126285714Y-56952380D01*
X125952380Y-56952380D02*
X126000000Y-57000000D01*
X126047619Y-56952380D01*
X126000000Y-56904761D01*
X125952380Y-56952380D01*
X126047619Y-56952380D01*
X126285714Y-56476190D02*
X126952380Y-56476190D01*
X126380952Y-56476190D02*
X126333333Y-56428571D01*
X126285714Y-56333333D01*
X126285714Y-56190476D01*
X126333333Y-56095238D01*
X126428571Y-56047619D01*
X126952380Y-56047619D01*
X131500000Y-55500000D02*
X129413580Y-55500000D01*
X131500000Y-65000000D02*
X129413580Y-65000000D01*
X130000000Y-55500000D02*
X130000000Y-65000000D01*
X130000000Y-55500000D02*
X130000000Y-65000000D01*
X130000000Y-55500000D02*
X129413579Y-56626504D01*
X130000000Y-55500000D02*
X130586421Y-56626504D01*
X130000000Y-65000000D02*
X130586421Y-63873496D01*
X130000000Y-65000000D02*
X129413579Y-63873496D01*
X134071428Y-122452380D02*
X133500000Y-122452380D01*
X133785714Y-122452380D02*
X133785714Y-121452380D01*
X133690476Y-121595238D01*
X133595238Y-121690476D01*
X133500000Y-121738095D01*
X134500000Y-122357142D02*
X134547619Y-122404761D01*
X134500000Y-122452380D01*
X134452380Y-122404761D01*
X134500000Y-122357142D01*
X134500000Y-122452380D01*
X134880952Y-121452380D02*
X135547619Y-121452380D01*
X135119047Y-122452380D01*
X135833333Y-121452380D02*
X136500000Y-121452380D01*
X136071428Y-122452380D01*
X137404761Y-122452380D02*
X136833333Y-122452380D01*
X137119047Y-122452380D02*
X137119047Y-121452380D01*
X137023809Y-121595238D01*
X136928571Y-121690476D01*
X136833333Y-121738095D01*
X137738095Y-121452380D02*
X138404761Y-121452380D01*
X137976190Y-122452380D01*
X139547619Y-122452380D02*
X139547619Y-121785714D01*
X139547619Y-121452380D02*
X139500000Y-121500000D01*
X139547619Y-121547619D01*
X139595238Y-121500000D01*
X139547619Y-121452380D01*
X139547619Y-121547619D01*
X140023809Y-121785714D02*
X140023809Y-122452380D01*
X140023809Y-121880952D02*
X140071428Y-121833333D01*
X140166666Y-121785714D01*
X140309523Y-121785714D01*
X140404761Y-121833333D01*
X140452380Y-121928571D01*
X140452380Y-122452380D01*
X115000000Y-119500000D02*
X115000000Y-122586419D01*
X160000000Y-119500000D02*
X160000000Y-122586419D01*
X115000000Y-121999999D02*
X132734524Y-121999999D01*
X141265476Y-121999999D02*
X160000000Y-121999999D01*
X115000000Y-121999999D02*
X116126504Y-122586420D01*
X115000000Y-121999999D02*
X116126504Y-121413578D01*
X160000000Y-121999999D02*
X158873496Y-121413578D01*
X160000000Y-121999999D02*
X158873496Y-122586420D01*
X108702380Y-88928571D02*
X108702380Y-89500000D01*
X108702380Y-89214285D02*
X107702380Y-89214285D01*
X107845238Y-89309523D01*
X107940476Y-89404761D01*
X107988095Y-89500000D01*
X108607142Y-88500000D02*
X108654761Y-88452380D01*
X108702380Y-88500000D01*
X108654761Y-88547619D01*
X108607142Y-88500000D01*
X108702380Y-88500000D01*
X107702380Y-88119047D02*
X107702380Y-87452380D01*
X108702380Y-87880952D01*
X107702380Y-86880952D02*
X107702380Y-86785714D01*
X107750000Y-86690476D01*
X107797619Y-86642857D01*
X107892857Y-86595238D01*
X108083333Y-86547619D01*
X108321428Y-86547619D01*
X108511904Y-86595238D01*
X108607142Y-86642857D01*
X108654761Y-86690476D01*
X108702380Y-86785714D01*
X108702380Y-86880952D01*
X108654761Y-86976190D01*
X108607142Y-87023809D01*
X108511904Y-87071428D01*
X108321428Y-87119047D01*
X108083333Y-87119047D01*
X107892857Y-87071428D01*
X107797619Y-87023809D01*
X107750000Y-86976190D01*
X107702380Y-86880952D01*
X107702380Y-85642857D02*
X107702380Y-86119047D01*
X108178571Y-86166666D01*
X108130952Y-86119047D01*
X108083333Y-86023809D01*
X108083333Y-85785714D01*
X108130952Y-85690476D01*
X108178571Y-85642857D01*
X108273809Y-85595238D01*
X108511904Y-85595238D01*
X108607142Y-85642857D01*
X108654761Y-85690476D01*
X108702380Y-85785714D01*
X108702380Y-86023809D01*
X108654761Y-86119047D01*
X108607142Y-86166666D01*
X107702380Y-85261904D02*
X107702380Y-84595238D01*
X108702380Y-85023809D01*
X108702380Y-83452380D02*
X108035714Y-83452380D01*
X107702380Y-83452380D02*
X107750000Y-83500000D01*
X107797619Y-83452380D01*
X107750000Y-83404761D01*
X107702380Y-83452380D01*
X107797619Y-83452380D01*
X108035714Y-82976190D02*
X108702380Y-82976190D01*
X108130952Y-82976190D02*
X108083333Y-82928571D01*
X108035714Y-82833333D01*
X108035714Y-82690476D01*
X108083333Y-82595238D01*
X108178571Y-82547619D01*
X108702380Y-82547619D01*
X137000000Y-65000000D02*
X107913580Y-65000000D01*
X137000000Y-108325000D02*
X107913580Y-108325000D01*
X108500000Y-65000000D02*
X108500000Y-81734524D01*
X108500000Y-90265476D02*
X108500000Y-108325000D01*
X108500000Y-65000000D02*
X107913579Y-66126504D01*
X108500000Y-65000000D02*
X109086421Y-66126504D01*
X108500000Y-108325000D02*
X109086421Y-107198496D01*
X108500000Y-108325000D02*
X107913579Y-107198496D01*
X129202380Y-52761904D02*
X129202380Y-52666666D01*
X129250000Y-52571428D01*
X129297619Y-52523809D01*
X129392857Y-52476190D01*
X129583333Y-52428571D01*
X129821428Y-52428571D01*
X130011904Y-52476190D01*
X130107142Y-52523809D01*
X130154761Y-52571428D01*
X130202380Y-52666666D01*
X130202380Y-52761904D01*
X130154761Y-52857142D01*
X130107142Y-52904761D01*
X130011904Y-52952380D01*
X129821428Y-53000000D01*
X129583333Y-53000000D01*
X129392857Y-52952380D01*
X129297619Y-52904761D01*
X129250000Y-52857142D01*
X129202380Y-52761904D01*
X130107142Y-52000000D02*
X130154761Y-51952380D01*
X130202380Y-52000000D01*
X130154761Y-52047619D01*
X130107142Y-52000000D01*
X130202380Y-52000000D01*
X129202380Y-51333333D02*
X129202380Y-51238095D01*
X129250000Y-51142857D01*
X129297619Y-51095238D01*
X129392857Y-51047619D01*
X129583333Y-51000000D01*
X129821428Y-51000000D01*
X130011904Y-51047619D01*
X130107142Y-51095238D01*
X130154761Y-51142857D01*
X130202380Y-51238095D01*
X130202380Y-51333333D01*
X130154761Y-51428571D01*
X130107142Y-51476190D01*
X130011904Y-51523809D01*
X129821428Y-51571428D01*
X129583333Y-51571428D01*
X129392857Y-51523809D01*
X129297619Y-51476190D01*
X129250000Y-51428571D01*
X129202380Y-51333333D01*
X129535714Y-50142857D02*
X130202380Y-50142857D01*
X129154761Y-50380952D02*
X129869047Y-50619047D01*
X129869047Y-50000000D01*
X130202380Y-49571428D02*
X130202380Y-49380952D01*
X130154761Y-49285714D01*
X130107142Y-49238095D01*
X129964285Y-49142857D01*
X129773809Y-49095238D01*
X129392857Y-49095238D01*
X129297619Y-49142857D01*
X129250000Y-49190476D01*
X129202380Y-49285714D01*
X129202380Y-49476190D01*
X129250000Y-49571428D01*
X129297619Y-49619047D01*
X129392857Y-49666666D01*
X129630952Y-49666666D01*
X129726190Y-49619047D01*
X129773809Y-49571428D01*
X129821428Y-49476190D01*
X129821428Y-49285714D01*
X129773809Y-49190476D01*
X129726190Y-49142857D01*
X129630952Y-49095238D01*
X129297619Y-48714285D02*
X129250000Y-48666666D01*
X129202380Y-48571428D01*
X129202380Y-48333333D01*
X129250000Y-48238095D01*
X129297619Y-48190476D01*
X129392857Y-48142857D01*
X129488095Y-48142857D01*
X129630952Y-48190476D01*
X130202380Y-48761904D01*
X130202380Y-48142857D01*
X130202380Y-46952380D02*
X129535714Y-46952380D01*
X129202380Y-46952380D02*
X129250000Y-47000000D01*
X129297619Y-46952380D01*
X129250000Y-46904761D01*
X129202380Y-46952380D01*
X129297619Y-46952380D01*
X129535714Y-46476190D02*
X130202380Y-46476190D01*
X129630952Y-46476190D02*
X129583333Y-46428571D01*
X129535714Y-46333333D01*
X129535714Y-46190476D01*
X129583333Y-46095238D01*
X129678571Y-46047619D01*
X130202380Y-46047619D01*
X131500000Y-55500000D02*
X128913580Y-55500000D01*
X131500000Y-54250000D02*
X128913580Y-54250000D01*
X129500000Y-55500000D02*
X129500000Y-54250000D01*
X129500000Y-55500000D02*
X129500000Y-54250000D01*
X129500000Y-55500000D02*
X130086421Y-54373496D01*
X129500000Y-55500000D02*
X128913579Y-54373496D01*
X129500000Y-54250000D02*
X128913579Y-55376504D01*
X129500000Y-54250000D02*
X130086421Y-55376504D01*
X163047619Y-91000000D02*
X163000000Y-90952380D01*
X162952380Y-90857142D01*
X162952380Y-90619047D01*
X163000000Y-90523809D01*
X163047619Y-90476190D01*
X163142857Y-90428571D01*
X163238095Y-90428571D01*
X163380952Y-90476190D01*
X163952380Y-91047619D01*
X163952380Y-90428571D01*
X163857142Y-90000000D02*
X163904761Y-89952380D01*
X163952380Y-90000000D01*
X163904761Y-90047619D01*
X163857142Y-90000000D01*
X163952380Y-90000000D01*
X162952380Y-89047619D02*
X162952380Y-89523809D01*
X163428571Y-89571428D01*
X163380952Y-89523809D01*
X163333333Y-89428571D01*
X163333333Y-89190476D01*
X163380952Y-89095238D01*
X163428571Y-89047619D01*
X163523809Y-89000000D01*
X163761904Y-89000000D01*
X163857142Y-89047619D01*
X163904761Y-89095238D01*
X163952380Y-89190476D01*
X163952380Y-89428571D01*
X163904761Y-89523809D01*
X163857142Y-89571428D01*
X162952380Y-88380952D02*
X162952380Y-88285714D01*
X163000000Y-88190476D01*
X163047619Y-88142857D01*
X163142857Y-88095238D01*
X163333333Y-88047619D01*
X163571428Y-88047619D01*
X163761904Y-88095238D01*
X163857142Y-88142857D01*
X163904761Y-88190476D01*
X163952380Y-88285714D01*
X163952380Y-88380952D01*
X163904761Y-88476190D01*
X163857142Y-88523809D01*
X163761904Y-88571428D01*
X163571428Y-88619047D01*
X163333333Y-88619047D01*
X163142857Y-88571428D01*
X163047619Y-88523809D01*
X163000000Y-88476190D01*
X162952380Y-88380952D01*
X162952380Y-87428571D02*
X162952380Y-87333333D01*
X163000000Y-87238095D01*
X163047619Y-87190476D01*
X163142857Y-87142857D01*
X163333333Y-87095238D01*
X163571428Y-87095238D01*
X163761904Y-87142857D01*
X163857142Y-87190476D01*
X163904761Y-87238095D01*
X163952380Y-87333333D01*
X163952380Y-87428571D01*
X163904761Y-87523809D01*
X163857142Y-87571428D01*
X163761904Y-87619047D01*
X163571428Y-87666666D01*
X163333333Y-87666666D01*
X163142857Y-87619047D01*
X163047619Y-87571428D01*
X163000000Y-87523809D01*
X162952380Y-87428571D01*
X162952380Y-86476190D02*
X162952380Y-86380952D01*
X163000000Y-86285714D01*
X163047619Y-86238095D01*
X163142857Y-86190476D01*
X163333333Y-86142857D01*
X163571428Y-86142857D01*
X163761904Y-86190476D01*
X163857142Y-86238095D01*
X163904761Y-86285714D01*
X163952380Y-86380952D01*
X163952380Y-86476190D01*
X163904761Y-86571428D01*
X163857142Y-86619047D01*
X163761904Y-86666666D01*
X163571428Y-86714285D01*
X163333333Y-86714285D01*
X163142857Y-86666666D01*
X163047619Y-86619047D01*
X163000000Y-86571428D01*
X162952380Y-86476190D01*
X163952380Y-84952380D02*
X163285714Y-84952380D01*
X162952380Y-84952380D02*
X163000000Y-85000000D01*
X163047619Y-84952380D01*
X163000000Y-84904761D01*
X162952380Y-84952380D01*
X163047619Y-84952380D01*
X163285714Y-84476190D02*
X163952380Y-84476190D01*
X163380952Y-84476190D02*
X163333333Y-84428571D01*
X163285714Y-84333333D01*
X163285714Y-84190476D01*
X163333333Y-84095238D01*
X163428571Y-84047619D01*
X163952380Y-84047619D01*
X160500000Y-55500000D02*
X164086420Y-55500000D01*
X160500000Y-119000000D02*
X164086420Y-119000000D01*
X163500000Y-55500000D02*
X163500000Y-83234524D01*
X163500000Y-91765476D02*
X163500000Y-119000000D01*
X163500000Y-55500000D02*
X162913579Y-56626504D01*
X163500000Y-55500000D02*
X164086421Y-56626504D01*
X163500000Y-119000000D02*
X164086421Y-117873496D01*
X163500000Y-119000000D02*
X162913579Y-117873496D01*
%TO.C,ENC1*%
X132706761Y-82261904D02*
X132754380Y-82119047D01*
X132754380Y-81880952D01*
X132706761Y-81785714D01*
X132659142Y-81738095D01*
X132563904Y-81690476D01*
X132468666Y-81690476D01*
X132373428Y-81738095D01*
X132325809Y-81785714D01*
X132278190Y-81880952D01*
X132230571Y-82071428D01*
X132182952Y-82166666D01*
X132135333Y-82214285D01*
X132040095Y-82261904D01*
X131944857Y-82261904D01*
X131849619Y-82214285D01*
X131802000Y-82166666D01*
X131754380Y-82071428D01*
X131754380Y-81833333D01*
X131802000Y-81690476D01*
X132754380Y-81261904D02*
X131754380Y-81261904D01*
X132754380Y-80833333D02*
X132230571Y-80833333D01*
X132135333Y-80880952D01*
X132087714Y-80976190D01*
X132087714Y-81119047D01*
X132135333Y-81214285D01*
X132182952Y-81261904D01*
X132754380Y-79928571D02*
X132230571Y-79928571D01*
X132135333Y-79976190D01*
X132087714Y-80071428D01*
X132087714Y-80261904D01*
X132135333Y-80357142D01*
X132706761Y-79928571D02*
X132754380Y-80023809D01*
X132754380Y-80261904D01*
X132706761Y-80357142D01*
X132611523Y-80404761D01*
X132516285Y-80404761D01*
X132421047Y-80357142D01*
X132373428Y-80261904D01*
X132373428Y-80023809D01*
X132325809Y-79928571D01*
X132087714Y-79595238D02*
X132087714Y-79214285D01*
X132754380Y-79452380D02*
X131897238Y-79452380D01*
X131802000Y-79404761D01*
X131754380Y-79309523D01*
X131754380Y-79214285D01*
X132087714Y-79023809D02*
X132087714Y-78642857D01*
X131754380Y-78880952D02*
X132611523Y-78880952D01*
X132706761Y-78833333D01*
X132754380Y-78738095D01*
X132754380Y-78642857D01*
X132754380Y-77547619D02*
X132087714Y-77547619D01*
X131754380Y-77547619D02*
X131802000Y-77595238D01*
X131849619Y-77547619D01*
X131802000Y-77500000D01*
X131754380Y-77547619D01*
X131849619Y-77547619D01*
X132087714Y-77071428D02*
X132754380Y-77071428D01*
X132182952Y-77071428D02*
X132135333Y-77023809D01*
X132087714Y-76928571D01*
X132087714Y-76785714D01*
X132135333Y-76690476D01*
X132230571Y-76642857D01*
X132754380Y-76642857D01*
X132706761Y-76214285D02*
X132754380Y-76119047D01*
X132754380Y-75928571D01*
X132706761Y-75833333D01*
X132611523Y-75785714D01*
X132563904Y-75785714D01*
X132468666Y-75833333D01*
X132421047Y-75928571D01*
X132421047Y-76071428D01*
X132373428Y-76166666D01*
X132278190Y-76214285D01*
X132230571Y-76214285D01*
X132135333Y-76166666D01*
X132087714Y-76071428D01*
X132087714Y-75928571D01*
X132135333Y-75833333D01*
X132706761Y-74976190D02*
X132754380Y-75071428D01*
X132754380Y-75261904D01*
X132706761Y-75357142D01*
X132611523Y-75404761D01*
X132230571Y-75404761D01*
X132135333Y-75357142D01*
X132087714Y-75261904D01*
X132087714Y-75071428D01*
X132135333Y-74976190D01*
X132230571Y-74928571D01*
X132325809Y-74928571D01*
X132421047Y-75404761D01*
X132754380Y-74500000D02*
X132087714Y-74500000D01*
X132278190Y-74500000D02*
X132182952Y-74452380D01*
X132135333Y-74404761D01*
X132087714Y-74309523D01*
X132087714Y-74214285D01*
X132087714Y-74023809D02*
X132087714Y-73642857D01*
X131754380Y-73880952D02*
X132611523Y-73880952D01*
X132706761Y-73833333D01*
X132754380Y-73738095D01*
X132754380Y-73642857D01*
D11*
X130524000Y-78000000D02*
X131032000Y-77492000D01*
X130524000Y-78000000D02*
X131032000Y-78508000D01*
X130524000Y-78000000D02*
X132302000Y-78000000D01*
D12*
%TO.C,SW3*%
X147550000Y-78050000D02*
X150450000Y-78050000D01*
X149000000Y-78600000D02*
X149000000Y-77500000D01*
%TO.C,U1*%
X128075000Y-104800000D02*
X128075000Y-111850000D01*
X139000000Y-97500000D02*
X139000000Y-97750000D01*
X146925000Y-104800000D02*
X146925000Y-111850000D01*
X139000000Y-97750000D02*
X139875000Y-97750000D01*
X135125000Y-97750000D02*
X136000000Y-97750000D01*
X136000000Y-97500000D02*
X136000000Y-97750000D01*
X139500000Y-112325000D02*
X135500000Y-112325000D01*
X135500000Y-112325000D02*
X135500000Y-108325000D01*
X139500000Y-108325000D02*
X139500000Y-112325000D01*
X135125000Y-118900000D02*
X139875000Y-118900000D01*
X136000000Y-97500000D02*
X139000000Y-97500000D01*
X146925000Y-104800000D02*
G75*
G03*
X139875000Y-97750000I-7050000J0D01*
G01*
X139875000Y-118900000D02*
G75*
G03*
X146925000Y-111850000I0J7050000D01*
G01*
X135125000Y-97750000D02*
G75*
G03*
X128075000Y-104800000I0J-7050000D01*
G01*
X139500000Y-108325000D02*
G75*
G03*
X135500000Y-108325000I-2000000J0D01*
G01*
X128075000Y-111850000D02*
G75*
G03*
X135125000Y-118900000I7050000J0D01*
G01*
X137750000Y-108325000D02*
G75*
G03*
X137750000Y-108325000I-250000J0D01*
G01*
%TO.C,SW2*%
X156000000Y-76600000D02*
X156000000Y-75500000D01*
X154550000Y-76050000D02*
X157450000Y-76050000D01*
%TO.C,SW1*%
X119000000Y-76600000D02*
X119000000Y-75500000D01*
X117550000Y-76050000D02*
X120450000Y-76050000D01*
%TD*%
M02*
