%TF.GenerationSoftware,KiCad,Pcbnew,6.0.7+dfsg-1~bpo11+1*%
%TF.CreationDate,2022-10-07T14:18:51+00:00*%
%TF.ProjectId,redshift,72656473-6869-4667-942e-6b696361645f,0.2*%
%TF.SameCoordinates,Original*%
%TF.FileFunction,AssemblyDrawing,Top*%
%FSLAX46Y46*%
G04 Gerber Fmt 4.6, Leading zero omitted, Abs format (unit mm)*
G04 Created by KiCad (PCBNEW 6.0.7+dfsg-1~bpo11+1) date 2022-10-07 14:18:51*
%MOMM*%
%LPD*%
G01*
G04 APERTURE LIST*
%ADD10C,0.150000*%
%ADD11C,0.040000*%
%ADD12C,0.080000*%
%ADD13C,0.060000*%
%ADD14C,0.062500*%
%ADD15C,0.075000*%
%ADD16C,0.090000*%
%ADD17C,0.254000*%
%ADD18C,0.100000*%
%ADD19C,0.120000*%
%ADD20C,0.127000*%
%ADD21C,0.200000*%
G04 APERTURE END LIST*
D10*
%TO.C,R6*%
X144404761Y-95032380D02*
X143833333Y-95032380D01*
X144119047Y-95032380D02*
X144119047Y-94032380D01*
X144023809Y-94175238D01*
X143928571Y-94270476D01*
X143833333Y-94318095D01*
X145023809Y-94032380D02*
X145119047Y-94032380D01*
X145214285Y-94080000D01*
X145261904Y-94127619D01*
X145309523Y-94222857D01*
X145357142Y-94413333D01*
X145357142Y-94651428D01*
X145309523Y-94841904D01*
X145261904Y-94937142D01*
X145214285Y-94984761D01*
X145119047Y-95032380D01*
X145023809Y-95032380D01*
X144928571Y-94984761D01*
X144880952Y-94937142D01*
X144833333Y-94841904D01*
X144785714Y-94651428D01*
X144785714Y-94413333D01*
X144833333Y-94222857D01*
X144880952Y-94127619D01*
X144928571Y-94080000D01*
X145023809Y-94032380D01*
X145785714Y-95032380D02*
X145785714Y-94032380D01*
X145880952Y-94651428D02*
X146166666Y-95032380D01*
X146166666Y-94365714D02*
X145785714Y-94746666D01*
D11*
X144956666Y-95867619D02*
X144870000Y-95743809D01*
X144808095Y-95867619D02*
X144808095Y-95607619D01*
X144907142Y-95607619D01*
X144931904Y-95620000D01*
X144944285Y-95632380D01*
X144956666Y-95657142D01*
X144956666Y-95694285D01*
X144944285Y-95719047D01*
X144931904Y-95731428D01*
X144907142Y-95743809D01*
X144808095Y-95743809D01*
X145179523Y-95607619D02*
X145130000Y-95607619D01*
X145105238Y-95620000D01*
X145092857Y-95632380D01*
X145068095Y-95669523D01*
X145055714Y-95719047D01*
X145055714Y-95818095D01*
X145068095Y-95842857D01*
X145080476Y-95855238D01*
X145105238Y-95867619D01*
X145154761Y-95867619D01*
X145179523Y-95855238D01*
X145191904Y-95842857D01*
X145204285Y-95818095D01*
X145204285Y-95756190D01*
X145191904Y-95731428D01*
X145179523Y-95719047D01*
X145154761Y-95706666D01*
X145105238Y-95706666D01*
X145080476Y-95719047D01*
X145068095Y-95731428D01*
X145055714Y-95756190D01*
D10*
%TO.C,FB1*%
X140238095Y-64151428D02*
X140285714Y-64103809D01*
X140380952Y-64056190D01*
X140571428Y-64151428D01*
X140666666Y-64103809D01*
X140714285Y-64056190D01*
D11*
X140291666Y-65232142D02*
X140208333Y-65232142D01*
X140208333Y-65363095D02*
X140208333Y-65113095D01*
X140327380Y-65113095D01*
X140505952Y-65232142D02*
X140541666Y-65244047D01*
X140553571Y-65255952D01*
X140565476Y-65279761D01*
X140565476Y-65315476D01*
X140553571Y-65339285D01*
X140541666Y-65351190D01*
X140517857Y-65363095D01*
X140422619Y-65363095D01*
X140422619Y-65113095D01*
X140505952Y-65113095D01*
X140529761Y-65125000D01*
X140541666Y-65136904D01*
X140553571Y-65160714D01*
X140553571Y-65184523D01*
X140541666Y-65208333D01*
X140529761Y-65220238D01*
X140505952Y-65232142D01*
X140422619Y-65232142D01*
X140803571Y-65363095D02*
X140660714Y-65363095D01*
X140732142Y-65363095D02*
X140732142Y-65113095D01*
X140708333Y-65148809D01*
X140684523Y-65172619D01*
X140660714Y-65184523D01*
D10*
%TO.C,C24*%
X141722380Y-95112380D02*
X141150952Y-95112380D01*
X141436666Y-95112380D02*
X141436666Y-94112380D01*
X141341428Y-94255238D01*
X141246190Y-94350476D01*
X141150952Y-94398095D01*
X142341428Y-94112380D02*
X142436666Y-94112380D01*
X142531904Y-94160000D01*
X142579523Y-94207619D01*
X142627142Y-94302857D01*
X142674761Y-94493333D01*
X142674761Y-94731428D01*
X142627142Y-94921904D01*
X142579523Y-95017142D01*
X142531904Y-95064761D01*
X142436666Y-95112380D01*
X142341428Y-95112380D01*
X142246190Y-95064761D01*
X142198571Y-95017142D01*
X142150952Y-94921904D01*
X142103333Y-94731428D01*
X142103333Y-94493333D01*
X142150952Y-94302857D01*
X142198571Y-94207619D01*
X142246190Y-94160000D01*
X142341428Y-94112380D01*
X143293809Y-94112380D02*
X143389047Y-94112380D01*
X143484285Y-94160000D01*
X143531904Y-94207619D01*
X143579523Y-94302857D01*
X143627142Y-94493333D01*
X143627142Y-94731428D01*
X143579523Y-94921904D01*
X143531904Y-95017142D01*
X143484285Y-95064761D01*
X143389047Y-95112380D01*
X143293809Y-95112380D01*
X143198571Y-95064761D01*
X143150952Y-95017142D01*
X143103333Y-94921904D01*
X143055714Y-94731428D01*
X143055714Y-94493333D01*
X143103333Y-94302857D01*
X143150952Y-94207619D01*
X143198571Y-94160000D01*
X143293809Y-94112380D01*
X144055714Y-94445714D02*
X144055714Y-95112380D01*
X144055714Y-94540952D02*
X144103333Y-94493333D01*
X144198571Y-94445714D01*
X144341428Y-94445714D01*
X144436666Y-94493333D01*
X144484285Y-94588571D01*
X144484285Y-95112380D01*
X145293809Y-94588571D02*
X144960476Y-94588571D01*
X144960476Y-95112380D02*
X144960476Y-94112380D01*
X145436666Y-94112380D01*
D11*
X143109285Y-93589285D02*
X143097380Y-93601190D01*
X143061666Y-93613095D01*
X143037857Y-93613095D01*
X143002142Y-93601190D01*
X142978333Y-93577380D01*
X142966428Y-93553571D01*
X142954523Y-93505952D01*
X142954523Y-93470238D01*
X142966428Y-93422619D01*
X142978333Y-93398809D01*
X143002142Y-93375000D01*
X143037857Y-93363095D01*
X143061666Y-93363095D01*
X143097380Y-93375000D01*
X143109285Y-93386904D01*
X143204523Y-93386904D02*
X143216428Y-93375000D01*
X143240238Y-93363095D01*
X143299761Y-93363095D01*
X143323571Y-93375000D01*
X143335476Y-93386904D01*
X143347380Y-93410714D01*
X143347380Y-93434523D01*
X143335476Y-93470238D01*
X143192619Y-93613095D01*
X143347380Y-93613095D01*
X143561666Y-93446428D02*
X143561666Y-93613095D01*
X143502142Y-93351190D02*
X143442619Y-93529761D01*
X143597380Y-93529761D01*
D10*
%TO.C,C11*%
X130357142Y-89887619D02*
X130404761Y-89840000D01*
X130500000Y-89792380D01*
X130738095Y-89792380D01*
X130833333Y-89840000D01*
X130880952Y-89887619D01*
X130928571Y-89982857D01*
X130928571Y-90078095D01*
X130880952Y-90220952D01*
X130309523Y-90792380D01*
X130928571Y-90792380D01*
X131309523Y-89887619D02*
X131357142Y-89840000D01*
X131452380Y-89792380D01*
X131690476Y-89792380D01*
X131785714Y-89840000D01*
X131833333Y-89887619D01*
X131880952Y-89982857D01*
X131880952Y-90078095D01*
X131833333Y-90220952D01*
X131261904Y-90792380D01*
X131880952Y-90792380D01*
X132738095Y-90125714D02*
X132738095Y-90792380D01*
X132309523Y-90125714D02*
X132309523Y-90649523D01*
X132357142Y-90744761D01*
X132452380Y-90792380D01*
X132595238Y-90792380D01*
X132690476Y-90744761D01*
X132738095Y-90697142D01*
X133547619Y-90268571D02*
X133214285Y-90268571D01*
X133214285Y-90792380D02*
X133214285Y-89792380D01*
X133690476Y-89792380D01*
D11*
X131839285Y-91589285D02*
X131827380Y-91601190D01*
X131791666Y-91613095D01*
X131767857Y-91613095D01*
X131732142Y-91601190D01*
X131708333Y-91577380D01*
X131696428Y-91553571D01*
X131684523Y-91505952D01*
X131684523Y-91470238D01*
X131696428Y-91422619D01*
X131708333Y-91398809D01*
X131732142Y-91375000D01*
X131767857Y-91363095D01*
X131791666Y-91363095D01*
X131827380Y-91375000D01*
X131839285Y-91386904D01*
X132077380Y-91613095D02*
X131934523Y-91613095D01*
X132005952Y-91613095D02*
X132005952Y-91363095D01*
X131982142Y-91398809D01*
X131958333Y-91422619D01*
X131934523Y-91434523D01*
X132315476Y-91613095D02*
X132172619Y-91613095D01*
X132244047Y-91613095D02*
X132244047Y-91363095D01*
X132220238Y-91398809D01*
X132196428Y-91422619D01*
X132172619Y-91434523D01*
D10*
%TO.C,C13*%
X130833333Y-88125714D02*
X130833333Y-88792380D01*
X130595238Y-87744761D02*
X130357142Y-88459047D01*
X130976190Y-88459047D01*
X131261904Y-87792380D02*
X131928571Y-87792380D01*
X131500000Y-88792380D01*
X132309523Y-88125714D02*
X132309523Y-89125714D01*
X132309523Y-88173333D02*
X132404761Y-88125714D01*
X132595238Y-88125714D01*
X132690476Y-88173333D01*
X132738095Y-88220952D01*
X132785714Y-88316190D01*
X132785714Y-88601904D01*
X132738095Y-88697142D01*
X132690476Y-88744761D01*
X132595238Y-88792380D01*
X132404761Y-88792380D01*
X132309523Y-88744761D01*
X133547619Y-88268571D02*
X133214285Y-88268571D01*
X133214285Y-88792380D02*
X133214285Y-87792380D01*
X133690476Y-87792380D01*
D11*
X131839285Y-89589285D02*
X131827380Y-89601190D01*
X131791666Y-89613095D01*
X131767857Y-89613095D01*
X131732142Y-89601190D01*
X131708333Y-89577380D01*
X131696428Y-89553571D01*
X131684523Y-89505952D01*
X131684523Y-89470238D01*
X131696428Y-89422619D01*
X131708333Y-89398809D01*
X131732142Y-89375000D01*
X131767857Y-89363095D01*
X131791666Y-89363095D01*
X131827380Y-89375000D01*
X131839285Y-89386904D01*
X132077380Y-89613095D02*
X131934523Y-89613095D01*
X132005952Y-89613095D02*
X132005952Y-89363095D01*
X131982142Y-89398809D01*
X131958333Y-89422619D01*
X131934523Y-89434523D01*
X132160714Y-89363095D02*
X132315476Y-89363095D01*
X132232142Y-89458333D01*
X132267857Y-89458333D01*
X132291666Y-89470238D01*
X132303571Y-89482142D01*
X132315476Y-89505952D01*
X132315476Y-89565476D01*
X132303571Y-89589285D01*
X132291666Y-89601190D01*
X132267857Y-89613095D01*
X132196428Y-89613095D01*
X132172619Y-89601190D01*
X132160714Y-89589285D01*
D10*
%TO.C,C10*%
X147119047Y-67807619D02*
X147166666Y-67760000D01*
X147261904Y-67712380D01*
X147500000Y-67712380D01*
X147595238Y-67760000D01*
X147642857Y-67807619D01*
X147690476Y-67902857D01*
X147690476Y-67998095D01*
X147642857Y-68140952D01*
X147071428Y-68712380D01*
X147690476Y-68712380D01*
X148119047Y-68617142D02*
X148166666Y-68664761D01*
X148119047Y-68712380D01*
X148071428Y-68664761D01*
X148119047Y-68617142D01*
X148119047Y-68712380D01*
X148547619Y-67807619D02*
X148595238Y-67760000D01*
X148690476Y-67712380D01*
X148928571Y-67712380D01*
X149023809Y-67760000D01*
X149071428Y-67807619D01*
X149119047Y-67902857D01*
X149119047Y-67998095D01*
X149071428Y-68140952D01*
X148500000Y-68712380D01*
X149119047Y-68712380D01*
X149976190Y-68045714D02*
X149976190Y-68712380D01*
X149547619Y-68045714D02*
X149547619Y-68569523D01*
X149595238Y-68664761D01*
X149690476Y-68712380D01*
X149833333Y-68712380D01*
X149928571Y-68664761D01*
X149976190Y-68617142D01*
X150785714Y-68188571D02*
X150452380Y-68188571D01*
X150452380Y-68712380D02*
X150452380Y-67712380D01*
X150928571Y-67712380D01*
D11*
X148839285Y-67189285D02*
X148827380Y-67201190D01*
X148791666Y-67213095D01*
X148767857Y-67213095D01*
X148732142Y-67201190D01*
X148708333Y-67177380D01*
X148696428Y-67153571D01*
X148684523Y-67105952D01*
X148684523Y-67070238D01*
X148696428Y-67022619D01*
X148708333Y-66998809D01*
X148732142Y-66975000D01*
X148767857Y-66963095D01*
X148791666Y-66963095D01*
X148827380Y-66975000D01*
X148839285Y-66986904D01*
X149077380Y-67213095D02*
X148934523Y-67213095D01*
X149005952Y-67213095D02*
X149005952Y-66963095D01*
X148982142Y-66998809D01*
X148958333Y-67022619D01*
X148934523Y-67034523D01*
X149232142Y-66963095D02*
X149255952Y-66963095D01*
X149279761Y-66975000D01*
X149291666Y-66986904D01*
X149303571Y-67010714D01*
X149315476Y-67058333D01*
X149315476Y-67117857D01*
X149303571Y-67165476D01*
X149291666Y-67189285D01*
X149279761Y-67201190D01*
X149255952Y-67213095D01*
X149232142Y-67213095D01*
X149208333Y-67201190D01*
X149196428Y-67189285D01*
X149184523Y-67165476D01*
X149172619Y-67117857D01*
X149172619Y-67058333D01*
X149184523Y-67010714D01*
X149196428Y-66986904D01*
X149208333Y-66975000D01*
X149232142Y-66963095D01*
D10*
%TO.C,C8*%
X138387619Y-68610952D02*
X138340000Y-68563333D01*
X138292380Y-68468095D01*
X138292380Y-68230000D01*
X138340000Y-68134761D01*
X138387619Y-68087142D01*
X138482857Y-68039523D01*
X138578095Y-68039523D01*
X138720952Y-68087142D01*
X139292380Y-68658571D01*
X139292380Y-68039523D01*
X139197142Y-67610952D02*
X139244761Y-67563333D01*
X139292380Y-67610952D01*
X139244761Y-67658571D01*
X139197142Y-67610952D01*
X139292380Y-67610952D01*
X138387619Y-67182380D02*
X138340000Y-67134761D01*
X138292380Y-67039523D01*
X138292380Y-66801428D01*
X138340000Y-66706190D01*
X138387619Y-66658571D01*
X138482857Y-66610952D01*
X138578095Y-66610952D01*
X138720952Y-66658571D01*
X139292380Y-67230000D01*
X139292380Y-66610952D01*
X138625714Y-65753809D02*
X139292380Y-65753809D01*
X138625714Y-66182380D02*
X139149523Y-66182380D01*
X139244761Y-66134761D01*
X139292380Y-66039523D01*
X139292380Y-65896666D01*
X139244761Y-65801428D01*
X139197142Y-65753809D01*
X138768571Y-64944285D02*
X138768571Y-65277619D01*
X139292380Y-65277619D02*
X138292380Y-65277619D01*
X138292380Y-64801428D01*
D11*
X140089285Y-66771666D02*
X140101190Y-66783571D01*
X140113095Y-66819285D01*
X140113095Y-66843095D01*
X140101190Y-66878809D01*
X140077380Y-66902619D01*
X140053571Y-66914523D01*
X140005952Y-66926428D01*
X139970238Y-66926428D01*
X139922619Y-66914523D01*
X139898809Y-66902619D01*
X139875000Y-66878809D01*
X139863095Y-66843095D01*
X139863095Y-66819285D01*
X139875000Y-66783571D01*
X139886904Y-66771666D01*
X139970238Y-66628809D02*
X139958333Y-66652619D01*
X139946428Y-66664523D01*
X139922619Y-66676428D01*
X139910714Y-66676428D01*
X139886904Y-66664523D01*
X139875000Y-66652619D01*
X139863095Y-66628809D01*
X139863095Y-66581190D01*
X139875000Y-66557380D01*
X139886904Y-66545476D01*
X139910714Y-66533571D01*
X139922619Y-66533571D01*
X139946428Y-66545476D01*
X139958333Y-66557380D01*
X139970238Y-66581190D01*
X139970238Y-66628809D01*
X139982142Y-66652619D01*
X139994047Y-66664523D01*
X140017857Y-66676428D01*
X140065476Y-66676428D01*
X140089285Y-66664523D01*
X140101190Y-66652619D01*
X140113095Y-66628809D01*
X140113095Y-66581190D01*
X140101190Y-66557380D01*
X140089285Y-66545476D01*
X140065476Y-66533571D01*
X140017857Y-66533571D01*
X139994047Y-66545476D01*
X139982142Y-66557380D01*
X139970238Y-66581190D01*
D10*
%TO.C,ENC1*%
X131484380Y-82928571D02*
X131008190Y-83261904D01*
X131484380Y-83500000D02*
X130484380Y-83500000D01*
X130484380Y-83119047D01*
X130532000Y-83023809D01*
X130579619Y-82976190D01*
X130674857Y-82928571D01*
X130817714Y-82928571D01*
X130912952Y-82976190D01*
X130960571Y-83023809D01*
X131008190Y-83119047D01*
X131008190Y-83500000D01*
X131484380Y-82357142D02*
X131436761Y-82452380D01*
X131389142Y-82500000D01*
X131293904Y-82547619D01*
X131008190Y-82547619D01*
X130912952Y-82500000D01*
X130865333Y-82452380D01*
X130817714Y-82357142D01*
X130817714Y-82214285D01*
X130865333Y-82119047D01*
X130912952Y-82071428D01*
X131008190Y-82023809D01*
X131293904Y-82023809D01*
X131389142Y-82071428D01*
X131436761Y-82119047D01*
X131484380Y-82214285D01*
X131484380Y-82357142D01*
X130817714Y-81738095D02*
X130817714Y-81357142D01*
X130484380Y-81595238D02*
X131341523Y-81595238D01*
X131436761Y-81547619D01*
X131484380Y-81452380D01*
X131484380Y-81357142D01*
X131484380Y-80595238D02*
X130960571Y-80595238D01*
X130865333Y-80642857D01*
X130817714Y-80738095D01*
X130817714Y-80928571D01*
X130865333Y-81023809D01*
X131436761Y-80595238D02*
X131484380Y-80690476D01*
X131484380Y-80928571D01*
X131436761Y-81023809D01*
X131341523Y-81071428D01*
X131246285Y-81071428D01*
X131151047Y-81023809D01*
X131103428Y-80928571D01*
X131103428Y-80690476D01*
X131055809Y-80595238D01*
X131484380Y-80119047D02*
X130817714Y-80119047D01*
X131008190Y-80119047D02*
X130912952Y-80071428D01*
X130865333Y-80023809D01*
X130817714Y-79928571D01*
X130817714Y-79833333D01*
X130817714Y-79595238D02*
X131484380Y-79357142D01*
X130817714Y-79119047D02*
X131484380Y-79357142D01*
X131722476Y-79452380D01*
X131770095Y-79500000D01*
X131817714Y-79595238D01*
X131579619Y-78976190D02*
X131579619Y-78214285D01*
X130960571Y-77976190D02*
X130960571Y-77642857D01*
X131484380Y-77500000D02*
X131484380Y-77976190D01*
X130484380Y-77976190D01*
X130484380Y-77500000D01*
X130817714Y-77071428D02*
X131484380Y-77071428D01*
X130912952Y-77071428D02*
X130865333Y-77023809D01*
X130817714Y-76928571D01*
X130817714Y-76785714D01*
X130865333Y-76690476D01*
X130960571Y-76642857D01*
X131484380Y-76642857D01*
X131436761Y-75738095D02*
X131484380Y-75833333D01*
X131484380Y-76023809D01*
X131436761Y-76119047D01*
X131389142Y-76166666D01*
X131293904Y-76214285D01*
X131008190Y-76214285D01*
X130912952Y-76166666D01*
X130865333Y-76119047D01*
X130817714Y-76023809D01*
X130817714Y-75833333D01*
X130865333Y-75738095D01*
X131484380Y-75166666D02*
X131436761Y-75261904D01*
X131389142Y-75309523D01*
X131293904Y-75357142D01*
X131008190Y-75357142D01*
X130912952Y-75309523D01*
X130865333Y-75261904D01*
X130817714Y-75166666D01*
X130817714Y-75023809D01*
X130865333Y-74928571D01*
X130912952Y-74880952D01*
X131008190Y-74833333D01*
X131293904Y-74833333D01*
X131389142Y-74880952D01*
X131436761Y-74928571D01*
X131484380Y-75023809D01*
X131484380Y-75166666D01*
X131484380Y-73976190D02*
X130484380Y-73976190D01*
X131436761Y-73976190D02*
X131484380Y-74071428D01*
X131484380Y-74261904D01*
X131436761Y-74357142D01*
X131389142Y-74404761D01*
X131293904Y-74452380D01*
X131008190Y-74452380D01*
X130912952Y-74404761D01*
X130865333Y-74357142D01*
X130817714Y-74261904D01*
X130817714Y-74071428D01*
X130865333Y-73976190D01*
X131436761Y-73119047D02*
X131484380Y-73214285D01*
X131484380Y-73404761D01*
X131436761Y-73500000D01*
X131341523Y-73547619D01*
X130960571Y-73547619D01*
X130865333Y-73500000D01*
X130817714Y-73404761D01*
X130817714Y-73214285D01*
X130865333Y-73119047D01*
X130960571Y-73071428D01*
X131055809Y-73071428D01*
X131151047Y-73547619D01*
X131484380Y-72642857D02*
X130817714Y-72642857D01*
X131008190Y-72642857D02*
X130912952Y-72595238D01*
X130865333Y-72547619D01*
X130817714Y-72452380D01*
X130817714Y-72357142D01*
X126928571Y-79714285D02*
X126928571Y-79380952D01*
X127452380Y-79238095D02*
X127452380Y-79714285D01*
X126452380Y-79714285D01*
X126452380Y-79238095D01*
X127452380Y-78809523D02*
X126452380Y-78809523D01*
X127452380Y-78238095D01*
X126452380Y-78238095D01*
X127357142Y-77190476D02*
X127404761Y-77238095D01*
X127452380Y-77380952D01*
X127452380Y-77476190D01*
X127404761Y-77619047D01*
X127309523Y-77714285D01*
X127214285Y-77761904D01*
X127023809Y-77809523D01*
X126880952Y-77809523D01*
X126690476Y-77761904D01*
X126595238Y-77714285D01*
X126500000Y-77619047D01*
X126452380Y-77476190D01*
X126452380Y-77380952D01*
X126500000Y-77238095D01*
X126547619Y-77190476D01*
X127452380Y-76238095D02*
X127452380Y-76809523D01*
X127452380Y-76523809D02*
X126452380Y-76523809D01*
X126595238Y-76619047D01*
X126690476Y-76714285D01*
X126738095Y-76809523D01*
%TO.C,C14*%
X134627142Y-88707619D02*
X134674761Y-88660000D01*
X134770000Y-88612380D01*
X135008095Y-88612380D01*
X135103333Y-88660000D01*
X135150952Y-88707619D01*
X135198571Y-88802857D01*
X135198571Y-88898095D01*
X135150952Y-89040952D01*
X134579523Y-89612380D01*
X135198571Y-89612380D01*
X135579523Y-88707619D02*
X135627142Y-88660000D01*
X135722380Y-88612380D01*
X135960476Y-88612380D01*
X136055714Y-88660000D01*
X136103333Y-88707619D01*
X136150952Y-88802857D01*
X136150952Y-88898095D01*
X136103333Y-89040952D01*
X135531904Y-89612380D01*
X136150952Y-89612380D01*
X137008095Y-88945714D02*
X137008095Y-89612380D01*
X136579523Y-88945714D02*
X136579523Y-89469523D01*
X136627142Y-89564761D01*
X136722380Y-89612380D01*
X136865238Y-89612380D01*
X136960476Y-89564761D01*
X137008095Y-89517142D01*
X137817619Y-89088571D02*
X137484285Y-89088571D01*
X137484285Y-89612380D02*
X137484285Y-88612380D01*
X137960476Y-88612380D01*
D11*
X136109285Y-88089285D02*
X136097380Y-88101190D01*
X136061666Y-88113095D01*
X136037857Y-88113095D01*
X136002142Y-88101190D01*
X135978333Y-88077380D01*
X135966428Y-88053571D01*
X135954523Y-88005952D01*
X135954523Y-87970238D01*
X135966428Y-87922619D01*
X135978333Y-87898809D01*
X136002142Y-87875000D01*
X136037857Y-87863095D01*
X136061666Y-87863095D01*
X136097380Y-87875000D01*
X136109285Y-87886904D01*
X136347380Y-88113095D02*
X136204523Y-88113095D01*
X136275952Y-88113095D02*
X136275952Y-87863095D01*
X136252142Y-87898809D01*
X136228333Y-87922619D01*
X136204523Y-87934523D01*
X136561666Y-87946428D02*
X136561666Y-88113095D01*
X136502142Y-87851190D02*
X136442619Y-88029761D01*
X136597380Y-88029761D01*
D10*
%TO.C,C20*%
X143107142Y-109957619D02*
X143154761Y-109910000D01*
X143250000Y-109862380D01*
X143488095Y-109862380D01*
X143583333Y-109910000D01*
X143630952Y-109957619D01*
X143678571Y-110052857D01*
X143678571Y-110148095D01*
X143630952Y-110290952D01*
X143059523Y-110862380D01*
X143678571Y-110862380D01*
X144059523Y-109957619D02*
X144107142Y-109910000D01*
X144202380Y-109862380D01*
X144440476Y-109862380D01*
X144535714Y-109910000D01*
X144583333Y-109957619D01*
X144630952Y-110052857D01*
X144630952Y-110148095D01*
X144583333Y-110290952D01*
X144011904Y-110862380D01*
X144630952Y-110862380D01*
X145488095Y-110195714D02*
X145488095Y-110862380D01*
X145059523Y-110195714D02*
X145059523Y-110719523D01*
X145107142Y-110814761D01*
X145202380Y-110862380D01*
X145345238Y-110862380D01*
X145440476Y-110814761D01*
X145488095Y-110767142D01*
X146297619Y-110338571D02*
X145964285Y-110338571D01*
X145964285Y-110862380D02*
X145964285Y-109862380D01*
X146440476Y-109862380D01*
D11*
X144589285Y-109339285D02*
X144577380Y-109351190D01*
X144541666Y-109363095D01*
X144517857Y-109363095D01*
X144482142Y-109351190D01*
X144458333Y-109327380D01*
X144446428Y-109303571D01*
X144434523Y-109255952D01*
X144434523Y-109220238D01*
X144446428Y-109172619D01*
X144458333Y-109148809D01*
X144482142Y-109125000D01*
X144517857Y-109113095D01*
X144541666Y-109113095D01*
X144577380Y-109125000D01*
X144589285Y-109136904D01*
X144684523Y-109136904D02*
X144696428Y-109125000D01*
X144720238Y-109113095D01*
X144779761Y-109113095D01*
X144803571Y-109125000D01*
X144815476Y-109136904D01*
X144827380Y-109160714D01*
X144827380Y-109184523D01*
X144815476Y-109220238D01*
X144672619Y-109363095D01*
X144827380Y-109363095D01*
X144982142Y-109113095D02*
X145005952Y-109113095D01*
X145029761Y-109125000D01*
X145041666Y-109136904D01*
X145053571Y-109160714D01*
X145065476Y-109208333D01*
X145065476Y-109267857D01*
X145053571Y-109315476D01*
X145041666Y-109339285D01*
X145029761Y-109351190D01*
X145005952Y-109363095D01*
X144982142Y-109363095D01*
X144958333Y-109351190D01*
X144946428Y-109339285D01*
X144934523Y-109315476D01*
X144922619Y-109267857D01*
X144922619Y-109208333D01*
X144934523Y-109160714D01*
X144946428Y-109136904D01*
X144958333Y-109125000D01*
X144982142Y-109113095D01*
D10*
%TO.C,D3*%
X140743095Y-96086666D02*
X141219285Y-96086666D01*
X140647857Y-96372380D02*
X140981190Y-95372380D01*
X141314523Y-96372380D01*
X141647857Y-96372380D02*
X141647857Y-95372380D01*
X141981190Y-96086666D01*
X142314523Y-95372380D01*
X142314523Y-96372380D01*
X143124047Y-95848571D02*
X143266904Y-95896190D01*
X143314523Y-95943809D01*
X143362142Y-96039047D01*
X143362142Y-96181904D01*
X143314523Y-96277142D01*
X143266904Y-96324761D01*
X143171666Y-96372380D01*
X142790714Y-96372380D01*
X142790714Y-95372380D01*
X143124047Y-95372380D01*
X143219285Y-95420000D01*
X143266904Y-95467619D01*
X143314523Y-95562857D01*
X143314523Y-95658095D01*
X143266904Y-95753333D01*
X143219285Y-95800952D01*
X143124047Y-95848571D01*
X142790714Y-95848571D01*
X143790714Y-95848571D02*
X144124047Y-95848571D01*
X144266904Y-96372380D02*
X143790714Y-96372380D01*
X143790714Y-95372380D01*
X144266904Y-95372380D01*
X145266904Y-96372380D02*
X144933571Y-95896190D01*
X144695476Y-96372380D02*
X144695476Y-95372380D01*
X145076428Y-95372380D01*
X145171666Y-95420000D01*
X145219285Y-95467619D01*
X145266904Y-95562857D01*
X145266904Y-95705714D01*
X145219285Y-95800952D01*
X145171666Y-95848571D01*
X145076428Y-95896190D01*
X144695476Y-95896190D01*
D11*
X142820476Y-94863095D02*
X142820476Y-94613095D01*
X142880000Y-94613095D01*
X142915714Y-94625000D01*
X142939523Y-94648809D01*
X142951428Y-94672619D01*
X142963333Y-94720238D01*
X142963333Y-94755952D01*
X142951428Y-94803571D01*
X142939523Y-94827380D01*
X142915714Y-94851190D01*
X142880000Y-94863095D01*
X142820476Y-94863095D01*
X143046666Y-94613095D02*
X143201428Y-94613095D01*
X143118095Y-94708333D01*
X143153809Y-94708333D01*
X143177619Y-94720238D01*
X143189523Y-94732142D01*
X143201428Y-94755952D01*
X143201428Y-94815476D01*
X143189523Y-94839285D01*
X143177619Y-94851190D01*
X143153809Y-94863095D01*
X143082380Y-94863095D01*
X143058571Y-94851190D01*
X143046666Y-94839285D01*
D10*
%TO.C,J1*%
X122649523Y-63087380D02*
X122649523Y-63896904D01*
X122697142Y-63992142D01*
X122744761Y-64039761D01*
X122840000Y-64087380D01*
X123030476Y-64087380D01*
X123125714Y-64039761D01*
X123173333Y-63992142D01*
X123220952Y-63896904D01*
X123220952Y-63087380D01*
X123649523Y-64039761D02*
X123792380Y-64087380D01*
X124030476Y-64087380D01*
X124125714Y-64039761D01*
X124173333Y-63992142D01*
X124220952Y-63896904D01*
X124220952Y-63801666D01*
X124173333Y-63706428D01*
X124125714Y-63658809D01*
X124030476Y-63611190D01*
X123840000Y-63563571D01*
X123744761Y-63515952D01*
X123697142Y-63468333D01*
X123649523Y-63373095D01*
X123649523Y-63277857D01*
X123697142Y-63182619D01*
X123744761Y-63135000D01*
X123840000Y-63087380D01*
X124078095Y-63087380D01*
X124220952Y-63135000D01*
X124982857Y-63563571D02*
X125125714Y-63611190D01*
X125173333Y-63658809D01*
X125220952Y-63754047D01*
X125220952Y-63896904D01*
X125173333Y-63992142D01*
X125125714Y-64039761D01*
X125030476Y-64087380D01*
X124649523Y-64087380D01*
X124649523Y-63087380D01*
X124982857Y-63087380D01*
X125078095Y-63135000D01*
X125125714Y-63182619D01*
X125173333Y-63277857D01*
X125173333Y-63373095D01*
X125125714Y-63468333D01*
X125078095Y-63515952D01*
X124982857Y-63563571D01*
X124649523Y-63563571D01*
X125411428Y-64182619D02*
X126173333Y-64182619D01*
X126982857Y-63992142D02*
X126935238Y-64039761D01*
X126792380Y-64087380D01*
X126697142Y-64087380D01*
X126554285Y-64039761D01*
X126459047Y-63944523D01*
X126411428Y-63849285D01*
X126363809Y-63658809D01*
X126363809Y-63515952D01*
X126411428Y-63325476D01*
X126459047Y-63230238D01*
X126554285Y-63135000D01*
X126697142Y-63087380D01*
X126792380Y-63087380D01*
X126935238Y-63135000D01*
X126982857Y-63182619D01*
X127173333Y-64182619D02*
X127935238Y-64182619D01*
X128744761Y-64087380D02*
X128411428Y-63611190D01*
X128173333Y-64087380D02*
X128173333Y-63087380D01*
X128554285Y-63087380D01*
X128649523Y-63135000D01*
X128697142Y-63182619D01*
X128744761Y-63277857D01*
X128744761Y-63420714D01*
X128697142Y-63515952D01*
X128649523Y-63563571D01*
X128554285Y-63611190D01*
X128173333Y-63611190D01*
X129554285Y-64039761D02*
X129459047Y-64087380D01*
X129268571Y-64087380D01*
X129173333Y-64039761D01*
X129125714Y-63944523D01*
X129125714Y-63563571D01*
X129173333Y-63468333D01*
X129268571Y-63420714D01*
X129459047Y-63420714D01*
X129554285Y-63468333D01*
X129601904Y-63563571D01*
X129601904Y-63658809D01*
X129125714Y-63754047D01*
X130459047Y-64039761D02*
X130363809Y-64087380D01*
X130173333Y-64087380D01*
X130078095Y-64039761D01*
X130030476Y-63992142D01*
X129982857Y-63896904D01*
X129982857Y-63611190D01*
X130030476Y-63515952D01*
X130078095Y-63468333D01*
X130173333Y-63420714D01*
X130363809Y-63420714D01*
X130459047Y-63468333D01*
X131268571Y-64039761D02*
X131173333Y-64087380D01*
X130982857Y-64087380D01*
X130887619Y-64039761D01*
X130840000Y-63944523D01*
X130840000Y-63563571D01*
X130887619Y-63468333D01*
X130982857Y-63420714D01*
X131173333Y-63420714D01*
X131268571Y-63468333D01*
X131316190Y-63563571D01*
X131316190Y-63658809D01*
X130840000Y-63754047D01*
X131744761Y-63420714D02*
X131744761Y-64420714D01*
X131744761Y-63468333D02*
X131840000Y-63420714D01*
X132030476Y-63420714D01*
X132125714Y-63468333D01*
X132173333Y-63515952D01*
X132220952Y-63611190D01*
X132220952Y-63896904D01*
X132173333Y-63992142D01*
X132125714Y-64039761D01*
X132030476Y-64087380D01*
X131840000Y-64087380D01*
X131744761Y-64039761D01*
X132506666Y-63420714D02*
X132887619Y-63420714D01*
X132649523Y-63087380D02*
X132649523Y-63944523D01*
X132697142Y-64039761D01*
X132792380Y-64087380D01*
X132887619Y-64087380D01*
X133649523Y-64087380D02*
X133649523Y-63563571D01*
X133601904Y-63468333D01*
X133506666Y-63420714D01*
X133316190Y-63420714D01*
X133220952Y-63468333D01*
X133649523Y-64039761D02*
X133554285Y-64087380D01*
X133316190Y-64087380D01*
X133220952Y-64039761D01*
X133173333Y-63944523D01*
X133173333Y-63849285D01*
X133220952Y-63754047D01*
X133316190Y-63706428D01*
X133554285Y-63706428D01*
X133649523Y-63658809D01*
X134554285Y-64039761D02*
X134459047Y-64087380D01*
X134268571Y-64087380D01*
X134173333Y-64039761D01*
X134125714Y-63992142D01*
X134078095Y-63896904D01*
X134078095Y-63611190D01*
X134125714Y-63515952D01*
X134173333Y-63468333D01*
X134268571Y-63420714D01*
X134459047Y-63420714D01*
X134554285Y-63468333D01*
X135125714Y-64087380D02*
X135030476Y-64039761D01*
X134982857Y-63944523D01*
X134982857Y-63087380D01*
X135887619Y-64039761D02*
X135792380Y-64087380D01*
X135601904Y-64087380D01*
X135506666Y-64039761D01*
X135459047Y-63944523D01*
X135459047Y-63563571D01*
X135506666Y-63468333D01*
X135601904Y-63420714D01*
X135792380Y-63420714D01*
X135887619Y-63468333D01*
X135935238Y-63563571D01*
X135935238Y-63658809D01*
X135459047Y-63754047D01*
X136125714Y-64182619D02*
X136887619Y-64182619D01*
X137125714Y-63087380D02*
X137125714Y-63896904D01*
X137173333Y-63992142D01*
X137220952Y-64039761D01*
X137316190Y-64087380D01*
X137506666Y-64087380D01*
X137601904Y-64039761D01*
X137649523Y-63992142D01*
X137697142Y-63896904D01*
X137697142Y-63087380D01*
X138125714Y-64039761D02*
X138268571Y-64087380D01*
X138506666Y-64087380D01*
X138601904Y-64039761D01*
X138649523Y-63992142D01*
X138697142Y-63896904D01*
X138697142Y-63801666D01*
X138649523Y-63706428D01*
X138601904Y-63658809D01*
X138506666Y-63611190D01*
X138316190Y-63563571D01*
X138220952Y-63515952D01*
X138173333Y-63468333D01*
X138125714Y-63373095D01*
X138125714Y-63277857D01*
X138173333Y-63182619D01*
X138220952Y-63135000D01*
X138316190Y-63087380D01*
X138554285Y-63087380D01*
X138697142Y-63135000D01*
X139459047Y-63563571D02*
X139601904Y-63611190D01*
X139649523Y-63658809D01*
X139697142Y-63754047D01*
X139697142Y-63896904D01*
X139649523Y-63992142D01*
X139601904Y-64039761D01*
X139506666Y-64087380D01*
X139125714Y-64087380D01*
X139125714Y-63087380D01*
X139459047Y-63087380D01*
X139554285Y-63135000D01*
X139601904Y-63182619D01*
X139649523Y-63277857D01*
X139649523Y-63373095D01*
X139601904Y-63468333D01*
X139554285Y-63515952D01*
X139459047Y-63563571D01*
X139125714Y-63563571D01*
X140078095Y-63182619D02*
X140125714Y-63135000D01*
X140220952Y-63087380D01*
X140459047Y-63087380D01*
X140554285Y-63135000D01*
X140601904Y-63182619D01*
X140649523Y-63277857D01*
X140649523Y-63373095D01*
X140601904Y-63515952D01*
X140030476Y-64087380D01*
X140649523Y-64087380D01*
X141078095Y-63992142D02*
X141125714Y-64039761D01*
X141078095Y-64087380D01*
X141030476Y-64039761D01*
X141078095Y-63992142D01*
X141078095Y-64087380D01*
X141744761Y-63087380D02*
X141840000Y-63087380D01*
X141935238Y-63135000D01*
X141982857Y-63182619D01*
X142030476Y-63277857D01*
X142078095Y-63468333D01*
X142078095Y-63706428D01*
X142030476Y-63896904D01*
X141982857Y-63992142D01*
X141935238Y-64039761D01*
X141840000Y-64087380D01*
X141744761Y-64087380D01*
X141649523Y-64039761D01*
X141601904Y-63992142D01*
X141554285Y-63896904D01*
X141506666Y-63706428D01*
X141506666Y-63468333D01*
X141554285Y-63277857D01*
X141601904Y-63182619D01*
X141649523Y-63135000D01*
X141744761Y-63087380D01*
D12*
X130888571Y-54644761D02*
X130888571Y-54324761D01*
X131010476Y-54324761D01*
X131040952Y-54340000D01*
X131056190Y-54355238D01*
X131071428Y-54385714D01*
X131071428Y-54431428D01*
X131056190Y-54461904D01*
X131040952Y-54477142D01*
X131010476Y-54492380D01*
X130888571Y-54492380D01*
X131391428Y-54614285D02*
X131376190Y-54629523D01*
X131330476Y-54644761D01*
X131300000Y-54644761D01*
X131254285Y-54629523D01*
X131223809Y-54599047D01*
X131208571Y-54568571D01*
X131193333Y-54507619D01*
X131193333Y-54461904D01*
X131208571Y-54400952D01*
X131223809Y-54370476D01*
X131254285Y-54340000D01*
X131300000Y-54324761D01*
X131330476Y-54324761D01*
X131376190Y-54340000D01*
X131391428Y-54355238D01*
X131635238Y-54477142D02*
X131680952Y-54492380D01*
X131696190Y-54507619D01*
X131711428Y-54538095D01*
X131711428Y-54583809D01*
X131696190Y-54614285D01*
X131680952Y-54629523D01*
X131650476Y-54644761D01*
X131528571Y-54644761D01*
X131528571Y-54324761D01*
X131635238Y-54324761D01*
X131665714Y-54340000D01*
X131680952Y-54355238D01*
X131696190Y-54385714D01*
X131696190Y-54416190D01*
X131680952Y-54446666D01*
X131665714Y-54461904D01*
X131635238Y-54477142D01*
X131528571Y-54477142D01*
X131848571Y-54522857D02*
X132092380Y-54522857D01*
X132244761Y-54477142D02*
X132351428Y-54477142D01*
X132397142Y-54644761D02*
X132244761Y-54644761D01*
X132244761Y-54324761D01*
X132397142Y-54324761D01*
X132534285Y-54644761D02*
X132534285Y-54324761D01*
X132610476Y-54324761D01*
X132656190Y-54340000D01*
X132686666Y-54370476D01*
X132701904Y-54400952D01*
X132717142Y-54461904D01*
X132717142Y-54507619D01*
X132701904Y-54568571D01*
X132686666Y-54599047D01*
X132656190Y-54629523D01*
X132610476Y-54644761D01*
X132534285Y-54644761D01*
X133021904Y-54340000D02*
X132991428Y-54324761D01*
X132945714Y-54324761D01*
X132900000Y-54340000D01*
X132869523Y-54370476D01*
X132854285Y-54400952D01*
X132839047Y-54461904D01*
X132839047Y-54507619D01*
X132854285Y-54568571D01*
X132869523Y-54599047D01*
X132900000Y-54629523D01*
X132945714Y-54644761D01*
X132976190Y-54644761D01*
X133021904Y-54629523D01*
X133037142Y-54614285D01*
X133037142Y-54507619D01*
X132976190Y-54507619D01*
X133174285Y-54477142D02*
X133280952Y-54477142D01*
X133326666Y-54644761D02*
X133174285Y-54644761D01*
X133174285Y-54324761D01*
X133326666Y-54324761D01*
D10*
%TO.C,L1*%
X133715714Y-88261904D02*
X134382380Y-88261904D01*
X133334761Y-88500000D02*
X134049047Y-88738095D01*
X134049047Y-88119047D01*
X133715714Y-87309523D02*
X134382380Y-87309523D01*
X133715714Y-87738095D02*
X134239523Y-87738095D01*
X134334761Y-87690476D01*
X134382380Y-87595238D01*
X134382380Y-87452380D01*
X134334761Y-87357142D01*
X134287142Y-87309523D01*
X133382380Y-86928571D02*
X133382380Y-86261904D01*
X134382380Y-86690476D01*
X134382380Y-85880952D02*
X133382380Y-85880952D01*
X133858571Y-85880952D02*
X133858571Y-85309523D01*
X134382380Y-85309523D02*
X133382380Y-85309523D01*
D13*
X132680952Y-87066666D02*
X132680952Y-87257142D01*
X132280952Y-87257142D01*
X132680952Y-86723809D02*
X132680952Y-86952380D01*
X132680952Y-86838095D02*
X132280952Y-86838095D01*
X132338095Y-86876190D01*
X132376190Y-86914285D01*
X132395238Y-86952380D01*
D10*
%TO.C,D4*%
X141333333Y-96420000D02*
X141238095Y-96372380D01*
X141095238Y-96372380D01*
X140952380Y-96420000D01*
X140857142Y-96515238D01*
X140809523Y-96610476D01*
X140761904Y-96800952D01*
X140761904Y-96943809D01*
X140809523Y-97134285D01*
X140857142Y-97229523D01*
X140952380Y-97324761D01*
X141095238Y-97372380D01*
X141190476Y-97372380D01*
X141333333Y-97324761D01*
X141380952Y-97277142D01*
X141380952Y-96943809D01*
X141190476Y-96943809D01*
X142380952Y-97372380D02*
X142047619Y-96896190D01*
X141809523Y-97372380D02*
X141809523Y-96372380D01*
X142190476Y-96372380D01*
X142285714Y-96420000D01*
X142333333Y-96467619D01*
X142380952Y-96562857D01*
X142380952Y-96705714D01*
X142333333Y-96800952D01*
X142285714Y-96848571D01*
X142190476Y-96896190D01*
X141809523Y-96896190D01*
X142809523Y-96848571D02*
X143142857Y-96848571D01*
X143285714Y-97372380D02*
X142809523Y-97372380D01*
X142809523Y-96372380D01*
X143285714Y-96372380D01*
X143714285Y-96848571D02*
X144047619Y-96848571D01*
X144190476Y-97372380D02*
X143714285Y-97372380D01*
X143714285Y-96372380D01*
X144190476Y-96372380D01*
X144619047Y-97372380D02*
X144619047Y-96372380D01*
X145190476Y-97372380D01*
X145190476Y-96372380D01*
D11*
X142815476Y-95863095D02*
X142815476Y-95613095D01*
X142875000Y-95613095D01*
X142910714Y-95625000D01*
X142934523Y-95648809D01*
X142946428Y-95672619D01*
X142958333Y-95720238D01*
X142958333Y-95755952D01*
X142946428Y-95803571D01*
X142934523Y-95827380D01*
X142910714Y-95851190D01*
X142875000Y-95863095D01*
X142815476Y-95863095D01*
X143172619Y-95696428D02*
X143172619Y-95863095D01*
X143113095Y-95601190D02*
X143053571Y-95779761D01*
X143208333Y-95779761D01*
D10*
%TO.C,C2*%
X146952380Y-106862380D02*
X146380952Y-106862380D01*
X146666666Y-106862380D02*
X146666666Y-105862380D01*
X146571428Y-106005238D01*
X146476190Y-106100476D01*
X146380952Y-106148095D01*
X147571428Y-105862380D02*
X147666666Y-105862380D01*
X147761904Y-105910000D01*
X147809523Y-105957619D01*
X147857142Y-106052857D01*
X147904761Y-106243333D01*
X147904761Y-106481428D01*
X147857142Y-106671904D01*
X147809523Y-106767142D01*
X147761904Y-106814761D01*
X147666666Y-106862380D01*
X147571428Y-106862380D01*
X147476190Y-106814761D01*
X147428571Y-106767142D01*
X147380952Y-106671904D01*
X147333333Y-106481428D01*
X147333333Y-106243333D01*
X147380952Y-106052857D01*
X147428571Y-105957619D01*
X147476190Y-105910000D01*
X147571428Y-105862380D01*
X148523809Y-105862380D02*
X148619047Y-105862380D01*
X148714285Y-105910000D01*
X148761904Y-105957619D01*
X148809523Y-106052857D01*
X148857142Y-106243333D01*
X148857142Y-106481428D01*
X148809523Y-106671904D01*
X148761904Y-106767142D01*
X148714285Y-106814761D01*
X148619047Y-106862380D01*
X148523809Y-106862380D01*
X148428571Y-106814761D01*
X148380952Y-106767142D01*
X148333333Y-106671904D01*
X148285714Y-106481428D01*
X148285714Y-106243333D01*
X148333333Y-106052857D01*
X148380952Y-105957619D01*
X148428571Y-105910000D01*
X148523809Y-105862380D01*
X149285714Y-106195714D02*
X149285714Y-106862380D01*
X149285714Y-106290952D02*
X149333333Y-106243333D01*
X149428571Y-106195714D01*
X149571428Y-106195714D01*
X149666666Y-106243333D01*
X149714285Y-106338571D01*
X149714285Y-106862380D01*
X150523809Y-106338571D02*
X150190476Y-106338571D01*
X150190476Y-106862380D02*
X150190476Y-105862380D01*
X150666666Y-105862380D01*
D11*
X148458333Y-105339285D02*
X148446428Y-105351190D01*
X148410714Y-105363095D01*
X148386904Y-105363095D01*
X148351190Y-105351190D01*
X148327380Y-105327380D01*
X148315476Y-105303571D01*
X148303571Y-105255952D01*
X148303571Y-105220238D01*
X148315476Y-105172619D01*
X148327380Y-105148809D01*
X148351190Y-105125000D01*
X148386904Y-105113095D01*
X148410714Y-105113095D01*
X148446428Y-105125000D01*
X148458333Y-105136904D01*
X148553571Y-105136904D02*
X148565476Y-105125000D01*
X148589285Y-105113095D01*
X148648809Y-105113095D01*
X148672619Y-105125000D01*
X148684523Y-105136904D01*
X148696428Y-105160714D01*
X148696428Y-105184523D01*
X148684523Y-105220238D01*
X148541666Y-105363095D01*
X148696428Y-105363095D01*
D10*
%TO.C,U3*%
X145702380Y-113000000D02*
X145702380Y-112428571D01*
X146702380Y-112714285D02*
X145702380Y-112714285D01*
X146607142Y-111523809D02*
X146654761Y-111571428D01*
X146702380Y-111714285D01*
X146702380Y-111809523D01*
X146654761Y-111952380D01*
X146559523Y-112047619D01*
X146464285Y-112095238D01*
X146273809Y-112142857D01*
X146130952Y-112142857D01*
X145940476Y-112095238D01*
X145845238Y-112047619D01*
X145750000Y-111952380D01*
X145702380Y-111809523D01*
X145702380Y-111714285D01*
X145750000Y-111571428D01*
X145797619Y-111523809D01*
X146702380Y-110523809D02*
X146226190Y-110857142D01*
X146702380Y-111095238D02*
X145702380Y-111095238D01*
X145702380Y-110714285D01*
X145750000Y-110619047D01*
X145797619Y-110571428D01*
X145892857Y-110523809D01*
X146035714Y-110523809D01*
X146130952Y-110571428D01*
X146178571Y-110619047D01*
X146226190Y-110714285D01*
X146226190Y-111095238D01*
X145797619Y-110142857D02*
X145750000Y-110095238D01*
X145702380Y-110000000D01*
X145702380Y-109761904D01*
X145750000Y-109666666D01*
X145797619Y-109619047D01*
X145892857Y-109571428D01*
X145988095Y-109571428D01*
X146130952Y-109619047D01*
X146702380Y-110190476D01*
X146702380Y-109571428D01*
X146702380Y-108666666D02*
X146702380Y-109142857D01*
X145702380Y-109142857D01*
X146178571Y-108333333D02*
X146178571Y-108000000D01*
X146702380Y-107857142D02*
X146702380Y-108333333D01*
X145702380Y-108333333D01*
X145702380Y-107857142D01*
X146702380Y-106904761D02*
X146702380Y-107476190D01*
X146702380Y-107190476D02*
X145702380Y-107190476D01*
X145845238Y-107285714D01*
X145940476Y-107380952D01*
X145988095Y-107476190D01*
X146702380Y-106428571D02*
X146702380Y-106238095D01*
X146654761Y-106142857D01*
X146607142Y-106095238D01*
X146464285Y-106000000D01*
X146273809Y-105952380D01*
X145892857Y-105952380D01*
X145797619Y-106000000D01*
X145750000Y-106047619D01*
X145702380Y-106142857D01*
X145702380Y-106333333D01*
X145750000Y-106428571D01*
X145797619Y-106476190D01*
X145892857Y-106523809D01*
X146130952Y-106523809D01*
X146226190Y-106476190D01*
X146273809Y-106428571D01*
X146321428Y-106333333D01*
X146321428Y-106142857D01*
X146273809Y-106047619D01*
X146226190Y-106000000D01*
X146130952Y-105952380D01*
X146654761Y-105476190D02*
X146702380Y-105476190D01*
X146797619Y-105523809D01*
X146845238Y-105571428D01*
X146702380Y-104571428D02*
X146702380Y-105047619D01*
X145702380Y-105047619D01*
X146702380Y-104238095D02*
X145702380Y-104238095D01*
X146416666Y-103904761D01*
X145702380Y-103571428D01*
X146702380Y-103571428D01*
X147083333Y-102809523D02*
X147035714Y-102857142D01*
X146892857Y-102952380D01*
X146797619Y-103000000D01*
X146654761Y-103047619D01*
X146416666Y-103095238D01*
X146226190Y-103095238D01*
X145988095Y-103047619D01*
X145845238Y-103000000D01*
X145750000Y-102952380D01*
X145607142Y-102857142D01*
X145559523Y-102809523D01*
X146607142Y-101857142D02*
X146654761Y-101904761D01*
X146702380Y-102047619D01*
X146702380Y-102142857D01*
X146654761Y-102285714D01*
X146559523Y-102380952D01*
X146464285Y-102428571D01*
X146273809Y-102476190D01*
X146130952Y-102476190D01*
X145940476Y-102428571D01*
X145845238Y-102380952D01*
X145750000Y-102285714D01*
X145702380Y-102142857D01*
X145702380Y-102047619D01*
X145750000Y-101904761D01*
X145797619Y-101857142D01*
X145702380Y-101571428D02*
X145702380Y-101000000D01*
X146702380Y-101285714D02*
X145702380Y-101285714D01*
D14*
X147695238Y-106780952D02*
X147695238Y-107104761D01*
X147714285Y-107142857D01*
X147733333Y-107161904D01*
X147771428Y-107180952D01*
X147847619Y-107180952D01*
X147885714Y-107161904D01*
X147904761Y-107142857D01*
X147923809Y-107104761D01*
X147923809Y-106780952D01*
X148076190Y-106780952D02*
X148323809Y-106780952D01*
X148190476Y-106933333D01*
X148247619Y-106933333D01*
X148285714Y-106952380D01*
X148304761Y-106971428D01*
X148323809Y-107009523D01*
X148323809Y-107104761D01*
X148304761Y-107142857D01*
X148285714Y-107161904D01*
X148247619Y-107180952D01*
X148133333Y-107180952D01*
X148095238Y-107161904D01*
X148076190Y-107142857D01*
D10*
%TO.C,C4*%
X134432380Y-97292380D02*
X133860952Y-97292380D01*
X134146666Y-97292380D02*
X134146666Y-96292380D01*
X134051428Y-96435238D01*
X133956190Y-96530476D01*
X133860952Y-96578095D01*
X135051428Y-96292380D02*
X135146666Y-96292380D01*
X135241904Y-96340000D01*
X135289523Y-96387619D01*
X135337142Y-96482857D01*
X135384761Y-96673333D01*
X135384761Y-96911428D01*
X135337142Y-97101904D01*
X135289523Y-97197142D01*
X135241904Y-97244761D01*
X135146666Y-97292380D01*
X135051428Y-97292380D01*
X134956190Y-97244761D01*
X134908571Y-97197142D01*
X134860952Y-97101904D01*
X134813333Y-96911428D01*
X134813333Y-96673333D01*
X134860952Y-96482857D01*
X134908571Y-96387619D01*
X134956190Y-96340000D01*
X135051428Y-96292380D01*
X136003809Y-96292380D02*
X136099047Y-96292380D01*
X136194285Y-96340000D01*
X136241904Y-96387619D01*
X136289523Y-96482857D01*
X136337142Y-96673333D01*
X136337142Y-96911428D01*
X136289523Y-97101904D01*
X136241904Y-97197142D01*
X136194285Y-97244761D01*
X136099047Y-97292380D01*
X136003809Y-97292380D01*
X135908571Y-97244761D01*
X135860952Y-97197142D01*
X135813333Y-97101904D01*
X135765714Y-96911428D01*
X135765714Y-96673333D01*
X135813333Y-96482857D01*
X135860952Y-96387619D01*
X135908571Y-96340000D01*
X136003809Y-96292380D01*
X136765714Y-96625714D02*
X136765714Y-97292380D01*
X136765714Y-96720952D02*
X136813333Y-96673333D01*
X136908571Y-96625714D01*
X137051428Y-96625714D01*
X137146666Y-96673333D01*
X137194285Y-96768571D01*
X137194285Y-97292380D01*
X138003809Y-96768571D02*
X137670476Y-96768571D01*
X137670476Y-97292380D02*
X137670476Y-96292380D01*
X138146666Y-96292380D01*
D11*
X135938333Y-98089285D02*
X135926428Y-98101190D01*
X135890714Y-98113095D01*
X135866904Y-98113095D01*
X135831190Y-98101190D01*
X135807380Y-98077380D01*
X135795476Y-98053571D01*
X135783571Y-98005952D01*
X135783571Y-97970238D01*
X135795476Y-97922619D01*
X135807380Y-97898809D01*
X135831190Y-97875000D01*
X135866904Y-97863095D01*
X135890714Y-97863095D01*
X135926428Y-97875000D01*
X135938333Y-97886904D01*
X136152619Y-97946428D02*
X136152619Y-98113095D01*
X136093095Y-97851190D02*
X136033571Y-98029761D01*
X136188333Y-98029761D01*
D10*
%TO.C,C15*%
X146290952Y-88976190D02*
X146243333Y-89071428D01*
X146195714Y-89119047D01*
X146100476Y-89166666D01*
X146052857Y-89166666D01*
X145957619Y-89119047D01*
X145910000Y-89071428D01*
X145862380Y-88976190D01*
X145862380Y-88785714D01*
X145910000Y-88690476D01*
X145957619Y-88642857D01*
X146052857Y-88595238D01*
X146100476Y-88595238D01*
X146195714Y-88642857D01*
X146243333Y-88690476D01*
X146290952Y-88785714D01*
X146290952Y-88976190D01*
X146338571Y-89071428D01*
X146386190Y-89119047D01*
X146481428Y-89166666D01*
X146671904Y-89166666D01*
X146767142Y-89119047D01*
X146814761Y-89071428D01*
X146862380Y-88976190D01*
X146862380Y-88785714D01*
X146814761Y-88690476D01*
X146767142Y-88642857D01*
X146671904Y-88595238D01*
X146481428Y-88595238D01*
X146386190Y-88642857D01*
X146338571Y-88690476D01*
X146290952Y-88785714D01*
X146195714Y-88166666D02*
X147195714Y-88166666D01*
X146243333Y-88166666D02*
X146195714Y-88071428D01*
X146195714Y-87880952D01*
X146243333Y-87785714D01*
X146290952Y-87738095D01*
X146386190Y-87690476D01*
X146671904Y-87690476D01*
X146767142Y-87738095D01*
X146814761Y-87785714D01*
X146862380Y-87880952D01*
X146862380Y-88071428D01*
X146814761Y-88166666D01*
X146338571Y-86928571D02*
X146338571Y-87261904D01*
X146862380Y-87261904D02*
X145862380Y-87261904D01*
X145862380Y-86785714D01*
D11*
X145339285Y-88160714D02*
X145351190Y-88172619D01*
X145363095Y-88208333D01*
X145363095Y-88232142D01*
X145351190Y-88267857D01*
X145327380Y-88291666D01*
X145303571Y-88303571D01*
X145255952Y-88315476D01*
X145220238Y-88315476D01*
X145172619Y-88303571D01*
X145148809Y-88291666D01*
X145125000Y-88267857D01*
X145113095Y-88232142D01*
X145113095Y-88208333D01*
X145125000Y-88172619D01*
X145136904Y-88160714D01*
X145363095Y-87922619D02*
X145363095Y-88065476D01*
X145363095Y-87994047D02*
X145113095Y-87994047D01*
X145148809Y-88017857D01*
X145172619Y-88041666D01*
X145184523Y-88065476D01*
X145113095Y-87696428D02*
X145113095Y-87815476D01*
X145232142Y-87827380D01*
X145220238Y-87815476D01*
X145208333Y-87791666D01*
X145208333Y-87732142D01*
X145220238Y-87708333D01*
X145232142Y-87696428D01*
X145255952Y-87684523D01*
X145315476Y-87684523D01*
X145339285Y-87696428D01*
X145351190Y-87708333D01*
X145363095Y-87732142D01*
X145363095Y-87791666D01*
X145351190Y-87815476D01*
X145339285Y-87827380D01*
D10*
%TO.C,R4*%
X121654761Y-86532380D02*
X121083333Y-86532380D01*
X121369047Y-86532380D02*
X121369047Y-85532380D01*
X121273809Y-85675238D01*
X121178571Y-85770476D01*
X121083333Y-85818095D01*
X122273809Y-85532380D02*
X122369047Y-85532380D01*
X122464285Y-85580000D01*
X122511904Y-85627619D01*
X122559523Y-85722857D01*
X122607142Y-85913333D01*
X122607142Y-86151428D01*
X122559523Y-86341904D01*
X122511904Y-86437142D01*
X122464285Y-86484761D01*
X122369047Y-86532380D01*
X122273809Y-86532380D01*
X122178571Y-86484761D01*
X122130952Y-86437142D01*
X122083333Y-86341904D01*
X122035714Y-86151428D01*
X122035714Y-85913333D01*
X122083333Y-85722857D01*
X122130952Y-85627619D01*
X122178571Y-85580000D01*
X122273809Y-85532380D01*
X123035714Y-86532380D02*
X123035714Y-85532380D01*
X123130952Y-86151428D02*
X123416666Y-86532380D01*
X123416666Y-85865714D02*
X123035714Y-86246666D01*
D11*
X122206666Y-87367619D02*
X122120000Y-87243809D01*
X122058095Y-87367619D02*
X122058095Y-87107619D01*
X122157142Y-87107619D01*
X122181904Y-87120000D01*
X122194285Y-87132380D01*
X122206666Y-87157142D01*
X122206666Y-87194285D01*
X122194285Y-87219047D01*
X122181904Y-87231428D01*
X122157142Y-87243809D01*
X122058095Y-87243809D01*
X122429523Y-87194285D02*
X122429523Y-87367619D01*
X122367619Y-87095238D02*
X122305714Y-87280952D01*
X122466666Y-87280952D01*
D10*
%TO.C,Y1*%
X144752380Y-96573809D02*
X145752380Y-95907142D01*
X144752380Y-95907142D02*
X145752380Y-96573809D01*
X145752380Y-94954761D02*
X145276190Y-95288095D01*
X145752380Y-95526190D02*
X144752380Y-95526190D01*
X144752380Y-95145238D01*
X144800000Y-95050000D01*
X144847619Y-95002380D01*
X144942857Y-94954761D01*
X145085714Y-94954761D01*
X145180952Y-95002380D01*
X145228571Y-95050000D01*
X145276190Y-95145238D01*
X145276190Y-95526190D01*
X145657142Y-93954761D02*
X145704761Y-94002380D01*
X145752380Y-94145238D01*
X145752380Y-94240476D01*
X145704761Y-94383333D01*
X145609523Y-94478571D01*
X145514285Y-94526190D01*
X145323809Y-94573809D01*
X145180952Y-94573809D01*
X144990476Y-94526190D01*
X144895238Y-94478571D01*
X144800000Y-94383333D01*
X144752380Y-94240476D01*
X144752380Y-94145238D01*
X144800000Y-94002380D01*
X144847619Y-93954761D01*
X144800000Y-93002380D02*
X144752380Y-93097619D01*
X144752380Y-93240476D01*
X144800000Y-93383333D01*
X144895238Y-93478571D01*
X144990476Y-93526190D01*
X145180952Y-93573809D01*
X145323809Y-93573809D01*
X145514285Y-93526190D01*
X145609523Y-93478571D01*
X145704761Y-93383333D01*
X145752380Y-93240476D01*
X145752380Y-93145238D01*
X145704761Y-93002380D01*
X145657142Y-92954761D01*
X145323809Y-92954761D01*
X145323809Y-93145238D01*
X145228571Y-92192857D02*
X145276190Y-92050000D01*
X145323809Y-92002380D01*
X145419047Y-91954761D01*
X145561904Y-91954761D01*
X145657142Y-92002380D01*
X145704761Y-92050000D01*
X145752380Y-92145238D01*
X145752380Y-92526190D01*
X144752380Y-92526190D01*
X144752380Y-92192857D01*
X144800000Y-92097619D01*
X144847619Y-92050000D01*
X144942857Y-92002380D01*
X145038095Y-92002380D01*
X145133333Y-92050000D01*
X145180952Y-92097619D01*
X145228571Y-92192857D01*
X145228571Y-92526190D01*
X145752380Y-91002380D02*
X145752380Y-91573809D01*
X145752380Y-91288095D02*
X144752380Y-91288095D01*
X144895238Y-91383333D01*
X144990476Y-91478571D01*
X145038095Y-91573809D01*
X144752380Y-90145238D02*
X144752380Y-90335714D01*
X144800000Y-90430952D01*
X144847619Y-90478571D01*
X144990476Y-90573809D01*
X145180952Y-90621428D01*
X145561904Y-90621428D01*
X145657142Y-90573809D01*
X145704761Y-90526190D01*
X145752380Y-90430952D01*
X145752380Y-90240476D01*
X145704761Y-90145238D01*
X145657142Y-90097619D01*
X145561904Y-90050000D01*
X145323809Y-90050000D01*
X145228571Y-90097619D01*
X145180952Y-90145238D01*
X145133333Y-90240476D01*
X145133333Y-90430952D01*
X145180952Y-90526190D01*
X145228571Y-90573809D01*
X145323809Y-90621428D01*
X145752380Y-89621428D02*
X144752380Y-89621428D01*
X145466666Y-89288095D01*
X144752380Y-88954761D01*
X145752380Y-88954761D01*
X144752380Y-88288095D02*
X144752380Y-88192857D01*
X144800000Y-88097619D01*
X144847619Y-88050000D01*
X144942857Y-88002380D01*
X145133333Y-87954761D01*
X145371428Y-87954761D01*
X145561904Y-88002380D01*
X145657142Y-88050000D01*
X145704761Y-88097619D01*
X145752380Y-88192857D01*
X145752380Y-88288095D01*
X145704761Y-88383333D01*
X145657142Y-88430952D01*
X145561904Y-88478571D01*
X145371428Y-88526190D01*
X145133333Y-88526190D01*
X144942857Y-88478571D01*
X144847619Y-88430952D01*
X144800000Y-88383333D01*
X144752380Y-88288095D01*
X144752380Y-87335714D02*
X144752380Y-87240476D01*
X144800000Y-87145238D01*
X144847619Y-87097619D01*
X144942857Y-87050000D01*
X145133333Y-87002380D01*
X145371428Y-87002380D01*
X145561904Y-87050000D01*
X145657142Y-87097619D01*
X145704761Y-87145238D01*
X145752380Y-87240476D01*
X145752380Y-87335714D01*
X145704761Y-87430952D01*
X145657142Y-87478571D01*
X145561904Y-87526190D01*
X145371428Y-87573809D01*
X145133333Y-87573809D01*
X144942857Y-87526190D01*
X144847619Y-87478571D01*
X144800000Y-87430952D01*
X144752380Y-87335714D01*
X144752380Y-86383333D02*
X144752380Y-86288095D01*
X144800000Y-86192857D01*
X144847619Y-86145238D01*
X144942857Y-86097619D01*
X145133333Y-86050000D01*
X145371428Y-86050000D01*
X145561904Y-86097619D01*
X145657142Y-86145238D01*
X145704761Y-86192857D01*
X145752380Y-86288095D01*
X145752380Y-86383333D01*
X145704761Y-86478571D01*
X145657142Y-86526190D01*
X145561904Y-86573809D01*
X145371428Y-86621428D01*
X145133333Y-86621428D01*
X144942857Y-86573809D01*
X144847619Y-86526190D01*
X144800000Y-86478571D01*
X144752380Y-86383333D01*
X145228571Y-85288095D02*
X145228571Y-85621428D01*
X145752380Y-85621428D02*
X144752380Y-85621428D01*
X144752380Y-85145238D01*
X144752380Y-84859523D02*
X145752380Y-84192857D01*
X144752380Y-84192857D02*
X145752380Y-84859523D01*
X145752380Y-83811904D02*
X144752380Y-83811904D01*
X145752380Y-83240476D01*
X144752380Y-83240476D01*
X145752380Y-82240476D02*
X145752380Y-82811904D01*
X145752380Y-82526190D02*
X144752380Y-82526190D01*
X144895238Y-82621428D01*
X144990476Y-82716666D01*
X145038095Y-82811904D01*
X144752380Y-81383333D02*
X144752380Y-81573809D01*
X144800000Y-81669047D01*
X144847619Y-81716666D01*
X144990476Y-81811904D01*
X145180952Y-81859523D01*
X145561904Y-81859523D01*
X145657142Y-81811904D01*
X145704761Y-81764285D01*
X145752380Y-81669047D01*
X145752380Y-81478571D01*
X145704761Y-81383333D01*
X145657142Y-81335714D01*
X145561904Y-81288095D01*
X145323809Y-81288095D01*
X145228571Y-81335714D01*
X145180952Y-81383333D01*
X145133333Y-81478571D01*
X145133333Y-81669047D01*
X145180952Y-81764285D01*
X145228571Y-81811904D01*
X145323809Y-81859523D01*
X145752380Y-80288095D02*
X145276190Y-80621428D01*
X145752380Y-80859523D02*
X144752380Y-80859523D01*
X144752380Y-80478571D01*
X144800000Y-80383333D01*
X144847619Y-80335714D01*
X144942857Y-80288095D01*
X145085714Y-80288095D01*
X145180952Y-80335714D01*
X145228571Y-80383333D01*
X145276190Y-80478571D01*
X145276190Y-80859523D01*
X144752380Y-79669047D02*
X144752380Y-79573809D01*
X144800000Y-79478571D01*
X144847619Y-79430952D01*
X144942857Y-79383333D01*
X145133333Y-79335714D01*
X145371428Y-79335714D01*
X145561904Y-79383333D01*
X145657142Y-79430952D01*
X145704761Y-79478571D01*
X145752380Y-79573809D01*
X145752380Y-79669047D01*
X145704761Y-79764285D01*
X145657142Y-79811904D01*
X145561904Y-79859523D01*
X145371428Y-79907142D01*
X145133333Y-79907142D01*
X144942857Y-79859523D01*
X144847619Y-79811904D01*
X144800000Y-79764285D01*
X144752380Y-79669047D01*
D15*
X143288095Y-87788095D02*
X143526190Y-87788095D01*
X143026190Y-87954761D02*
X143288095Y-87788095D01*
X143026190Y-87621428D01*
X143526190Y-87192857D02*
X143526190Y-87478571D01*
X143526190Y-87335714D02*
X143026190Y-87335714D01*
X143097619Y-87383333D01*
X143145238Y-87430952D01*
X143169047Y-87478571D01*
D10*
%TO.C,C1*%
X132792380Y-66297619D02*
X132792380Y-66869047D01*
X132792380Y-66583333D02*
X131792380Y-66583333D01*
X131935238Y-66678571D01*
X132030476Y-66773809D01*
X132078095Y-66869047D01*
X131792380Y-65678571D02*
X131792380Y-65583333D01*
X131840000Y-65488095D01*
X131887619Y-65440476D01*
X131982857Y-65392857D01*
X132173333Y-65345238D01*
X132411428Y-65345238D01*
X132601904Y-65392857D01*
X132697142Y-65440476D01*
X132744761Y-65488095D01*
X132792380Y-65583333D01*
X132792380Y-65678571D01*
X132744761Y-65773809D01*
X132697142Y-65821428D01*
X132601904Y-65869047D01*
X132411428Y-65916666D01*
X132173333Y-65916666D01*
X131982857Y-65869047D01*
X131887619Y-65821428D01*
X131840000Y-65773809D01*
X131792380Y-65678571D01*
X131792380Y-64726190D02*
X131792380Y-64630952D01*
X131840000Y-64535714D01*
X131887619Y-64488095D01*
X131982857Y-64440476D01*
X132173333Y-64392857D01*
X132411428Y-64392857D01*
X132601904Y-64440476D01*
X132697142Y-64488095D01*
X132744761Y-64535714D01*
X132792380Y-64630952D01*
X132792380Y-64726190D01*
X132744761Y-64821428D01*
X132697142Y-64869047D01*
X132601904Y-64916666D01*
X132411428Y-64964285D01*
X132173333Y-64964285D01*
X131982857Y-64916666D01*
X131887619Y-64869047D01*
X131840000Y-64821428D01*
X131792380Y-64726190D01*
X132125714Y-63964285D02*
X132792380Y-63964285D01*
X132220952Y-63964285D02*
X132173333Y-63916666D01*
X132125714Y-63821428D01*
X132125714Y-63678571D01*
X132173333Y-63583333D01*
X132268571Y-63535714D01*
X132792380Y-63535714D01*
X132268571Y-62726190D02*
X132268571Y-63059523D01*
X132792380Y-63059523D02*
X131792380Y-63059523D01*
X131792380Y-62583333D01*
D11*
X133589285Y-64791666D02*
X133601190Y-64803571D01*
X133613095Y-64839285D01*
X133613095Y-64863095D01*
X133601190Y-64898809D01*
X133577380Y-64922619D01*
X133553571Y-64934523D01*
X133505952Y-64946428D01*
X133470238Y-64946428D01*
X133422619Y-64934523D01*
X133398809Y-64922619D01*
X133375000Y-64898809D01*
X133363095Y-64863095D01*
X133363095Y-64839285D01*
X133375000Y-64803571D01*
X133386904Y-64791666D01*
X133613095Y-64553571D02*
X133613095Y-64696428D01*
X133613095Y-64625000D02*
X133363095Y-64625000D01*
X133398809Y-64648809D01*
X133422619Y-64672619D01*
X133434523Y-64696428D01*
D10*
%TO.C,U2*%
X143480495Y-69095923D02*
X143480495Y-68455923D01*
X143693828Y-68913066D01*
X143907161Y-68455923D01*
X143907161Y-69095923D01*
X144211923Y-69095923D02*
X144211923Y-68455923D01*
X144882400Y-69034971D02*
X144851923Y-69065447D01*
X144760495Y-69095923D01*
X144699542Y-69095923D01*
X144608114Y-69065447D01*
X144547161Y-69004495D01*
X144516685Y-68943542D01*
X144486209Y-68821638D01*
X144486209Y-68730209D01*
X144516685Y-68608304D01*
X144547161Y-68547352D01*
X144608114Y-68486400D01*
X144699542Y-68455923D01*
X144760495Y-68455923D01*
X144851923Y-68486400D01*
X144882400Y-68516876D01*
X145461447Y-68455923D02*
X145156685Y-68455923D01*
X145126209Y-68760685D01*
X145156685Y-68730209D01*
X145217638Y-68699733D01*
X145370019Y-68699733D01*
X145430971Y-68730209D01*
X145461447Y-68760685D01*
X145491923Y-68821638D01*
X145491923Y-68974019D01*
X145461447Y-69034971D01*
X145430971Y-69065447D01*
X145370019Y-69095923D01*
X145217638Y-69095923D01*
X145156685Y-69065447D01*
X145126209Y-69034971D01*
X145705257Y-68455923D02*
X146101447Y-68455923D01*
X145888114Y-68699733D01*
X145979542Y-68699733D01*
X146040495Y-68730209D01*
X146070971Y-68760685D01*
X146101447Y-68821638D01*
X146101447Y-68974019D01*
X146070971Y-69034971D01*
X146040495Y-69065447D01*
X145979542Y-69095923D01*
X145796685Y-69095923D01*
X145735733Y-69065447D01*
X145705257Y-69034971D01*
X146650019Y-68455923D02*
X146528114Y-68455923D01*
X146467161Y-68486400D01*
X146436685Y-68516876D01*
X146375733Y-68608304D01*
X146345257Y-68730209D01*
X146345257Y-68974019D01*
X146375733Y-69034971D01*
X146406209Y-69065447D01*
X146467161Y-69095923D01*
X146589066Y-69095923D01*
X146650019Y-69065447D01*
X146680495Y-69034971D01*
X146710971Y-68974019D01*
X146710971Y-68821638D01*
X146680495Y-68760685D01*
X146650019Y-68730209D01*
X146589066Y-68699733D01*
X146467161Y-68699733D01*
X146406209Y-68730209D01*
X146375733Y-68760685D01*
X146345257Y-68821638D01*
X147290019Y-68455923D02*
X146985257Y-68455923D01*
X146954780Y-68760685D01*
X146985257Y-68730209D01*
X147046209Y-68699733D01*
X147198590Y-68699733D01*
X147259542Y-68730209D01*
X147290019Y-68760685D01*
X147320495Y-68821638D01*
X147320495Y-68974019D01*
X147290019Y-69034971D01*
X147259542Y-69065447D01*
X147198590Y-69095923D01*
X147046209Y-69095923D01*
X146985257Y-69065447D01*
X146954780Y-69034971D01*
X147594780Y-68852114D02*
X148082400Y-68852114D01*
X148326209Y-68455923D02*
X148722400Y-68455923D01*
X148509066Y-68699733D01*
X148600495Y-68699733D01*
X148661447Y-68730209D01*
X148691923Y-68760685D01*
X148722400Y-68821638D01*
X148722400Y-68974019D01*
X148691923Y-69034971D01*
X148661447Y-69065447D01*
X148600495Y-69095923D01*
X148417638Y-69095923D01*
X148356685Y-69065447D01*
X148326209Y-69034971D01*
X148996685Y-69034971D02*
X149027161Y-69065447D01*
X148996685Y-69095923D01*
X148966209Y-69065447D01*
X148996685Y-69034971D01*
X148996685Y-69095923D01*
X149240495Y-68455923D02*
X149636685Y-68455923D01*
X149423352Y-68699733D01*
X149514780Y-68699733D01*
X149575733Y-68730209D01*
X149606209Y-68760685D01*
X149636685Y-68821638D01*
X149636685Y-68974019D01*
X149606209Y-69034971D01*
X149575733Y-69065447D01*
X149514780Y-69095923D01*
X149331923Y-69095923D01*
X149270971Y-69065447D01*
X149240495Y-69034971D01*
X150032876Y-68791161D02*
X150032876Y-69095923D01*
X149819542Y-68455923D02*
X150032876Y-68791161D01*
X150246209Y-68455923D01*
X150825257Y-69034971D02*
X150794780Y-69065447D01*
X150703352Y-69095923D01*
X150642400Y-69095923D01*
X150550971Y-69065447D01*
X150490019Y-69004495D01*
X150459542Y-68943542D01*
X150429066Y-68821638D01*
X150429066Y-68730209D01*
X150459542Y-68608304D01*
X150490019Y-68547352D01*
X150550971Y-68486400D01*
X150642400Y-68455923D01*
X150703352Y-68455923D01*
X150794780Y-68486400D01*
X150825257Y-68516876D01*
X151404304Y-68455923D02*
X151099542Y-68455923D01*
X151069066Y-68760685D01*
X151099542Y-68730209D01*
X151160495Y-68699733D01*
X151312876Y-68699733D01*
X151373828Y-68730209D01*
X151404304Y-68760685D01*
X151434780Y-68821638D01*
X151434780Y-68974019D01*
X151404304Y-69034971D01*
X151373828Y-69065447D01*
X151312876Y-69095923D01*
X151160495Y-69095923D01*
X151099542Y-69065447D01*
X151069066Y-69034971D01*
X151709066Y-68852114D02*
X152196685Y-68852114D01*
X152410019Y-68455923D02*
X152775733Y-68455923D01*
X152592876Y-69095923D02*
X152592876Y-68455923D01*
X153354780Y-69095923D02*
X153141447Y-68791161D01*
X152989066Y-69095923D02*
X152989066Y-68455923D01*
X153232876Y-68455923D01*
X153293828Y-68486400D01*
X153324304Y-68516876D01*
X153354780Y-68577828D01*
X153354780Y-68669257D01*
X153324304Y-68730209D01*
X153293828Y-68760685D01*
X153232876Y-68791161D01*
X152989066Y-68791161D01*
%TO.C,C23*%
X142043809Y-86540952D02*
X141948571Y-86493333D01*
X141900952Y-86445714D01*
X141853333Y-86350476D01*
X141853333Y-86302857D01*
X141900952Y-86207619D01*
X141948571Y-86160000D01*
X142043809Y-86112380D01*
X142234285Y-86112380D01*
X142329523Y-86160000D01*
X142377142Y-86207619D01*
X142424761Y-86302857D01*
X142424761Y-86350476D01*
X142377142Y-86445714D01*
X142329523Y-86493333D01*
X142234285Y-86540952D01*
X142043809Y-86540952D01*
X141948571Y-86588571D01*
X141900952Y-86636190D01*
X141853333Y-86731428D01*
X141853333Y-86921904D01*
X141900952Y-87017142D01*
X141948571Y-87064761D01*
X142043809Y-87112380D01*
X142234285Y-87112380D01*
X142329523Y-87064761D01*
X142377142Y-87017142D01*
X142424761Y-86921904D01*
X142424761Y-86731428D01*
X142377142Y-86636190D01*
X142329523Y-86588571D01*
X142234285Y-86540952D01*
X142853333Y-86445714D02*
X142853333Y-87445714D01*
X142853333Y-86493333D02*
X142948571Y-86445714D01*
X143139047Y-86445714D01*
X143234285Y-86493333D01*
X143281904Y-86540952D01*
X143329523Y-86636190D01*
X143329523Y-86921904D01*
X143281904Y-87017142D01*
X143234285Y-87064761D01*
X143139047Y-87112380D01*
X142948571Y-87112380D01*
X142853333Y-87064761D01*
X144091428Y-86588571D02*
X143758095Y-86588571D01*
X143758095Y-87112380D02*
X143758095Y-86112380D01*
X144234285Y-86112380D01*
D11*
X142859285Y-85589285D02*
X142847380Y-85601190D01*
X142811666Y-85613095D01*
X142787857Y-85613095D01*
X142752142Y-85601190D01*
X142728333Y-85577380D01*
X142716428Y-85553571D01*
X142704523Y-85505952D01*
X142704523Y-85470238D01*
X142716428Y-85422619D01*
X142728333Y-85398809D01*
X142752142Y-85375000D01*
X142787857Y-85363095D01*
X142811666Y-85363095D01*
X142847380Y-85375000D01*
X142859285Y-85386904D01*
X142954523Y-85386904D02*
X142966428Y-85375000D01*
X142990238Y-85363095D01*
X143049761Y-85363095D01*
X143073571Y-85375000D01*
X143085476Y-85386904D01*
X143097380Y-85410714D01*
X143097380Y-85434523D01*
X143085476Y-85470238D01*
X142942619Y-85613095D01*
X143097380Y-85613095D01*
X143180714Y-85363095D02*
X143335476Y-85363095D01*
X143252142Y-85458333D01*
X143287857Y-85458333D01*
X143311666Y-85470238D01*
X143323571Y-85482142D01*
X143335476Y-85505952D01*
X143335476Y-85565476D01*
X143323571Y-85589285D01*
X143311666Y-85601190D01*
X143287857Y-85613095D01*
X143216428Y-85613095D01*
X143192619Y-85601190D01*
X143180714Y-85589285D01*
D10*
%TO.C,C6*%
X141432380Y-92112380D02*
X140860952Y-92112380D01*
X141146666Y-92112380D02*
X141146666Y-91112380D01*
X141051428Y-91255238D01*
X140956190Y-91350476D01*
X140860952Y-91398095D01*
X142051428Y-91112380D02*
X142146666Y-91112380D01*
X142241904Y-91160000D01*
X142289523Y-91207619D01*
X142337142Y-91302857D01*
X142384761Y-91493333D01*
X142384761Y-91731428D01*
X142337142Y-91921904D01*
X142289523Y-92017142D01*
X142241904Y-92064761D01*
X142146666Y-92112380D01*
X142051428Y-92112380D01*
X141956190Y-92064761D01*
X141908571Y-92017142D01*
X141860952Y-91921904D01*
X141813333Y-91731428D01*
X141813333Y-91493333D01*
X141860952Y-91302857D01*
X141908571Y-91207619D01*
X141956190Y-91160000D01*
X142051428Y-91112380D01*
X143003809Y-91112380D02*
X143099047Y-91112380D01*
X143194285Y-91160000D01*
X143241904Y-91207619D01*
X143289523Y-91302857D01*
X143337142Y-91493333D01*
X143337142Y-91731428D01*
X143289523Y-91921904D01*
X143241904Y-92017142D01*
X143194285Y-92064761D01*
X143099047Y-92112380D01*
X143003809Y-92112380D01*
X142908571Y-92064761D01*
X142860952Y-92017142D01*
X142813333Y-91921904D01*
X142765714Y-91731428D01*
X142765714Y-91493333D01*
X142813333Y-91302857D01*
X142860952Y-91207619D01*
X142908571Y-91160000D01*
X143003809Y-91112380D01*
X143765714Y-91445714D02*
X143765714Y-92112380D01*
X143765714Y-91540952D02*
X143813333Y-91493333D01*
X143908571Y-91445714D01*
X144051428Y-91445714D01*
X144146666Y-91493333D01*
X144194285Y-91588571D01*
X144194285Y-92112380D01*
X145003809Y-91588571D02*
X144670476Y-91588571D01*
X144670476Y-92112380D02*
X144670476Y-91112380D01*
X145146666Y-91112380D01*
D11*
X142938333Y-90589285D02*
X142926428Y-90601190D01*
X142890714Y-90613095D01*
X142866904Y-90613095D01*
X142831190Y-90601190D01*
X142807380Y-90577380D01*
X142795476Y-90553571D01*
X142783571Y-90505952D01*
X142783571Y-90470238D01*
X142795476Y-90422619D01*
X142807380Y-90398809D01*
X142831190Y-90375000D01*
X142866904Y-90363095D01*
X142890714Y-90363095D01*
X142926428Y-90375000D01*
X142938333Y-90386904D01*
X143152619Y-90363095D02*
X143105000Y-90363095D01*
X143081190Y-90375000D01*
X143069285Y-90386904D01*
X143045476Y-90422619D01*
X143033571Y-90470238D01*
X143033571Y-90565476D01*
X143045476Y-90589285D01*
X143057380Y-90601190D01*
X143081190Y-90613095D01*
X143128809Y-90613095D01*
X143152619Y-90601190D01*
X143164523Y-90589285D01*
X143176428Y-90565476D01*
X143176428Y-90505952D01*
X143164523Y-90482142D01*
X143152619Y-90470238D01*
X143128809Y-90458333D01*
X143081190Y-90458333D01*
X143057380Y-90470238D01*
X143045476Y-90482142D01*
X143033571Y-90505952D01*
D10*
%TO.C,D5*%
X128357142Y-110532380D02*
X128023809Y-110056190D01*
X127785714Y-110532380D02*
X127785714Y-109532380D01*
X128166666Y-109532380D01*
X128261904Y-109580000D01*
X128309523Y-109627619D01*
X128357142Y-109722857D01*
X128357142Y-109865714D01*
X128309523Y-109960952D01*
X128261904Y-110008571D01*
X128166666Y-110056190D01*
X127785714Y-110056190D01*
X128785714Y-110008571D02*
X129119047Y-110008571D01*
X129261904Y-110532380D02*
X128785714Y-110532380D01*
X128785714Y-109532380D01*
X129261904Y-109532380D01*
X129690476Y-110532380D02*
X129690476Y-109532380D01*
X129928571Y-109532380D01*
X130071428Y-109580000D01*
X130166666Y-109675238D01*
X130214285Y-109770476D01*
X130261904Y-109960952D01*
X130261904Y-110103809D01*
X130214285Y-110294285D01*
X130166666Y-110389523D01*
X130071428Y-110484761D01*
X129928571Y-110532380D01*
X129690476Y-110532380D01*
D11*
X128815476Y-111363095D02*
X128815476Y-111113095D01*
X128875000Y-111113095D01*
X128910714Y-111125000D01*
X128934523Y-111148809D01*
X128946428Y-111172619D01*
X128958333Y-111220238D01*
X128958333Y-111255952D01*
X128946428Y-111303571D01*
X128934523Y-111327380D01*
X128910714Y-111351190D01*
X128875000Y-111363095D01*
X128815476Y-111363095D01*
X129184523Y-111113095D02*
X129065476Y-111113095D01*
X129053571Y-111232142D01*
X129065476Y-111220238D01*
X129089285Y-111208333D01*
X129148809Y-111208333D01*
X129172619Y-111220238D01*
X129184523Y-111232142D01*
X129196428Y-111255952D01*
X129196428Y-111315476D01*
X129184523Y-111339285D01*
X129172619Y-111351190D01*
X129148809Y-111363095D01*
X129089285Y-111363095D01*
X129065476Y-111351190D01*
X129053571Y-111339285D01*
D10*
%TO.C,C12*%
X130452380Y-89792380D02*
X129880952Y-89792380D01*
X130166666Y-89792380D02*
X130166666Y-88792380D01*
X130071428Y-88935238D01*
X129976190Y-89030476D01*
X129880952Y-89078095D01*
X131071428Y-88792380D02*
X131166666Y-88792380D01*
X131261904Y-88840000D01*
X131309523Y-88887619D01*
X131357142Y-88982857D01*
X131404761Y-89173333D01*
X131404761Y-89411428D01*
X131357142Y-89601904D01*
X131309523Y-89697142D01*
X131261904Y-89744761D01*
X131166666Y-89792380D01*
X131071428Y-89792380D01*
X130976190Y-89744761D01*
X130928571Y-89697142D01*
X130880952Y-89601904D01*
X130833333Y-89411428D01*
X130833333Y-89173333D01*
X130880952Y-88982857D01*
X130928571Y-88887619D01*
X130976190Y-88840000D01*
X131071428Y-88792380D01*
X132023809Y-88792380D02*
X132119047Y-88792380D01*
X132214285Y-88840000D01*
X132261904Y-88887619D01*
X132309523Y-88982857D01*
X132357142Y-89173333D01*
X132357142Y-89411428D01*
X132309523Y-89601904D01*
X132261904Y-89697142D01*
X132214285Y-89744761D01*
X132119047Y-89792380D01*
X132023809Y-89792380D01*
X131928571Y-89744761D01*
X131880952Y-89697142D01*
X131833333Y-89601904D01*
X131785714Y-89411428D01*
X131785714Y-89173333D01*
X131833333Y-88982857D01*
X131880952Y-88887619D01*
X131928571Y-88840000D01*
X132023809Y-88792380D01*
X132785714Y-89125714D02*
X132785714Y-89792380D01*
X132785714Y-89220952D02*
X132833333Y-89173333D01*
X132928571Y-89125714D01*
X133071428Y-89125714D01*
X133166666Y-89173333D01*
X133214285Y-89268571D01*
X133214285Y-89792380D01*
X134023809Y-89268571D02*
X133690476Y-89268571D01*
X133690476Y-89792380D02*
X133690476Y-88792380D01*
X134166666Y-88792380D01*
D11*
X131839285Y-90589285D02*
X131827380Y-90601190D01*
X131791666Y-90613095D01*
X131767857Y-90613095D01*
X131732142Y-90601190D01*
X131708333Y-90577380D01*
X131696428Y-90553571D01*
X131684523Y-90505952D01*
X131684523Y-90470238D01*
X131696428Y-90422619D01*
X131708333Y-90398809D01*
X131732142Y-90375000D01*
X131767857Y-90363095D01*
X131791666Y-90363095D01*
X131827380Y-90375000D01*
X131839285Y-90386904D01*
X132077380Y-90613095D02*
X131934523Y-90613095D01*
X132005952Y-90613095D02*
X132005952Y-90363095D01*
X131982142Y-90398809D01*
X131958333Y-90422619D01*
X131934523Y-90434523D01*
X132172619Y-90386904D02*
X132184523Y-90375000D01*
X132208333Y-90363095D01*
X132267857Y-90363095D01*
X132291666Y-90375000D01*
X132303571Y-90386904D01*
X132315476Y-90410714D01*
X132315476Y-90434523D01*
X132303571Y-90470238D01*
X132160714Y-90613095D01*
X132315476Y-90613095D01*
D10*
%TO.C,SW4*%
X150202380Y-99352380D02*
X150202380Y-98352380D01*
X150583333Y-98352380D01*
X150678571Y-98400000D01*
X150726190Y-98447619D01*
X150773809Y-98542857D01*
X150773809Y-98685714D01*
X150726190Y-98780952D01*
X150678571Y-98828571D01*
X150583333Y-98876190D01*
X150202380Y-98876190D01*
X151059523Y-98352380D02*
X151630952Y-98352380D01*
X151345238Y-99352380D02*
X151345238Y-98352380D01*
X151916666Y-99304761D02*
X152059523Y-99352380D01*
X152297619Y-99352380D01*
X152392857Y-99304761D01*
X152440476Y-99257142D01*
X152488095Y-99161904D01*
X152488095Y-99066666D01*
X152440476Y-98971428D01*
X152392857Y-98923809D01*
X152297619Y-98876190D01*
X152107142Y-98828571D01*
X152011904Y-98780952D01*
X151964285Y-98733333D01*
X151916666Y-98638095D01*
X151916666Y-98542857D01*
X151964285Y-98447619D01*
X152011904Y-98400000D01*
X152107142Y-98352380D01*
X152345238Y-98352380D01*
X152488095Y-98400000D01*
X153059523Y-98780952D02*
X152964285Y-98733333D01*
X152916666Y-98685714D01*
X152869047Y-98590476D01*
X152869047Y-98542857D01*
X152916666Y-98447619D01*
X152964285Y-98400000D01*
X153059523Y-98352380D01*
X153250000Y-98352380D01*
X153345238Y-98400000D01*
X153392857Y-98447619D01*
X153440476Y-98542857D01*
X153440476Y-98590476D01*
X153392857Y-98685714D01*
X153345238Y-98733333D01*
X153250000Y-98780952D01*
X153059523Y-98780952D01*
X152964285Y-98828571D01*
X152916666Y-98876190D01*
X152869047Y-98971428D01*
X152869047Y-99161904D01*
X152916666Y-99257142D01*
X152964285Y-99304761D01*
X153059523Y-99352380D01*
X153250000Y-99352380D01*
X153345238Y-99304761D01*
X153392857Y-99257142D01*
X153440476Y-99161904D01*
X153440476Y-98971428D01*
X153392857Y-98876190D01*
X153345238Y-98828571D01*
X153250000Y-98780952D01*
X154392857Y-99352380D02*
X153821428Y-99352380D01*
X154107142Y-99352380D02*
X154107142Y-98352380D01*
X154011904Y-98495238D01*
X153916666Y-98590476D01*
X153821428Y-98638095D01*
X155011904Y-98352380D02*
X155107142Y-98352380D01*
X155202380Y-98400000D01*
X155250000Y-98447619D01*
X155297619Y-98542857D01*
X155345238Y-98733333D01*
X155345238Y-98971428D01*
X155297619Y-99161904D01*
X155250000Y-99257142D01*
X155202380Y-99304761D01*
X155107142Y-99352380D01*
X155011904Y-99352380D01*
X154916666Y-99304761D01*
X154869047Y-99257142D01*
X154821428Y-99161904D01*
X154773809Y-98971428D01*
X154773809Y-98733333D01*
X154821428Y-98542857D01*
X154869047Y-98447619D01*
X154916666Y-98400000D01*
X155011904Y-98352380D01*
D16*
X151950000Y-101742857D02*
X152035714Y-101771428D01*
X152178571Y-101771428D01*
X152235714Y-101742857D01*
X152264285Y-101714285D01*
X152292857Y-101657142D01*
X152292857Y-101600000D01*
X152264285Y-101542857D01*
X152235714Y-101514285D01*
X152178571Y-101485714D01*
X152064285Y-101457142D01*
X152007142Y-101428571D01*
X151978571Y-101400000D01*
X151950000Y-101342857D01*
X151950000Y-101285714D01*
X151978571Y-101228571D01*
X152007142Y-101200000D01*
X152064285Y-101171428D01*
X152207142Y-101171428D01*
X152292857Y-101200000D01*
X152492857Y-101171428D02*
X152635714Y-101771428D01*
X152750000Y-101342857D01*
X152864285Y-101771428D01*
X153007142Y-101171428D01*
X153492857Y-101371428D02*
X153492857Y-101771428D01*
X153350000Y-101142857D02*
X153207142Y-101571428D01*
X153578571Y-101571428D01*
D10*
%TO.C,C22*%
X143345238Y-107195714D02*
X143345238Y-107862380D01*
X143107142Y-106814761D02*
X142869047Y-107529047D01*
X143488095Y-107529047D01*
X143869047Y-107767142D02*
X143916666Y-107814761D01*
X143869047Y-107862380D01*
X143821428Y-107814761D01*
X143869047Y-107767142D01*
X143869047Y-107862380D01*
X144250000Y-106862380D02*
X144916666Y-106862380D01*
X144488095Y-107862380D01*
X145726190Y-107195714D02*
X145726190Y-107862380D01*
X145297619Y-107195714D02*
X145297619Y-107719523D01*
X145345238Y-107814761D01*
X145440476Y-107862380D01*
X145583333Y-107862380D01*
X145678571Y-107814761D01*
X145726190Y-107767142D01*
X146535714Y-107338571D02*
X146202380Y-107338571D01*
X146202380Y-107862380D02*
X146202380Y-106862380D01*
X146678571Y-106862380D01*
D11*
X144589285Y-106339285D02*
X144577380Y-106351190D01*
X144541666Y-106363095D01*
X144517857Y-106363095D01*
X144482142Y-106351190D01*
X144458333Y-106327380D01*
X144446428Y-106303571D01*
X144434523Y-106255952D01*
X144434523Y-106220238D01*
X144446428Y-106172619D01*
X144458333Y-106148809D01*
X144482142Y-106125000D01*
X144517857Y-106113095D01*
X144541666Y-106113095D01*
X144577380Y-106125000D01*
X144589285Y-106136904D01*
X144684523Y-106136904D02*
X144696428Y-106125000D01*
X144720238Y-106113095D01*
X144779761Y-106113095D01*
X144803571Y-106125000D01*
X144815476Y-106136904D01*
X144827380Y-106160714D01*
X144827380Y-106184523D01*
X144815476Y-106220238D01*
X144672619Y-106363095D01*
X144827380Y-106363095D01*
X144922619Y-106136904D02*
X144934523Y-106125000D01*
X144958333Y-106113095D01*
X145017857Y-106113095D01*
X145041666Y-106125000D01*
X145053571Y-106136904D01*
X145065476Y-106160714D01*
X145065476Y-106184523D01*
X145053571Y-106220238D01*
X144910714Y-106363095D01*
X145065476Y-106363095D01*
D10*
%TO.C,D2*%
X119607142Y-88872380D02*
X119273809Y-88396190D01*
X119035714Y-88872380D02*
X119035714Y-87872380D01*
X119416666Y-87872380D01*
X119511904Y-87920000D01*
X119559523Y-87967619D01*
X119607142Y-88062857D01*
X119607142Y-88205714D01*
X119559523Y-88300952D01*
X119511904Y-88348571D01*
X119416666Y-88396190D01*
X119035714Y-88396190D01*
X120035714Y-88348571D02*
X120369047Y-88348571D01*
X120511904Y-88872380D02*
X120035714Y-88872380D01*
X120035714Y-87872380D01*
X120511904Y-87872380D01*
X120940476Y-88872380D02*
X120940476Y-87872380D01*
X121178571Y-87872380D01*
X121321428Y-87920000D01*
X121416666Y-88015238D01*
X121464285Y-88110476D01*
X121511904Y-88300952D01*
X121511904Y-88443809D01*
X121464285Y-88634285D01*
X121416666Y-88729523D01*
X121321428Y-88824761D01*
X121178571Y-88872380D01*
X120940476Y-88872380D01*
D11*
X120065476Y-87363095D02*
X120065476Y-87113095D01*
X120125000Y-87113095D01*
X120160714Y-87125000D01*
X120184523Y-87148809D01*
X120196428Y-87172619D01*
X120208333Y-87220238D01*
X120208333Y-87255952D01*
X120196428Y-87303571D01*
X120184523Y-87327380D01*
X120160714Y-87351190D01*
X120125000Y-87363095D01*
X120065476Y-87363095D01*
X120303571Y-87136904D02*
X120315476Y-87125000D01*
X120339285Y-87113095D01*
X120398809Y-87113095D01*
X120422619Y-87125000D01*
X120434523Y-87136904D01*
X120446428Y-87160714D01*
X120446428Y-87184523D01*
X120434523Y-87220238D01*
X120291666Y-87363095D01*
X120446428Y-87363095D01*
D10*
%TO.C,D7*%
X158282380Y-103952380D02*
X157282380Y-103952380D01*
X158282380Y-103380952D01*
X157282380Y-103380952D01*
X158234761Y-102952380D02*
X158282380Y-102809523D01*
X158282380Y-102571428D01*
X158234761Y-102476190D01*
X158187142Y-102428571D01*
X158091904Y-102380952D01*
X157996666Y-102380952D01*
X157901428Y-102428571D01*
X157853809Y-102476190D01*
X157806190Y-102571428D01*
X157758571Y-102761904D01*
X157710952Y-102857142D01*
X157663333Y-102904761D01*
X157568095Y-102952380D01*
X157472857Y-102952380D01*
X157377619Y-102904761D01*
X157330000Y-102857142D01*
X157282380Y-102761904D01*
X157282380Y-102523809D01*
X157330000Y-102380952D01*
X158282380Y-101380952D02*
X157806190Y-101714285D01*
X158282380Y-101952380D02*
X157282380Y-101952380D01*
X157282380Y-101571428D01*
X157330000Y-101476190D01*
X157377619Y-101428571D01*
X157472857Y-101380952D01*
X157615714Y-101380952D01*
X157710952Y-101428571D01*
X157758571Y-101476190D01*
X157806190Y-101571428D01*
X157806190Y-101952380D01*
X157282380Y-100761904D02*
X157282380Y-100666666D01*
X157330000Y-100571428D01*
X157377619Y-100523809D01*
X157472857Y-100476190D01*
X157663333Y-100428571D01*
X157901428Y-100428571D01*
X158091904Y-100476190D01*
X158187142Y-100523809D01*
X158234761Y-100571428D01*
X158282380Y-100666666D01*
X158282380Y-100761904D01*
X158234761Y-100857142D01*
X158187142Y-100904761D01*
X158091904Y-100952380D01*
X157901428Y-101000000D01*
X157663333Y-101000000D01*
X157472857Y-100952380D01*
X157377619Y-100904761D01*
X157330000Y-100857142D01*
X157282380Y-100761904D01*
X157282380Y-99523809D02*
X157282380Y-100000000D01*
X157758571Y-100047619D01*
X157710952Y-100000000D01*
X157663333Y-99904761D01*
X157663333Y-99666666D01*
X157710952Y-99571428D01*
X157758571Y-99523809D01*
X157853809Y-99476190D01*
X158091904Y-99476190D01*
X158187142Y-99523809D01*
X158234761Y-99571428D01*
X158282380Y-99666666D01*
X158282380Y-99904761D01*
X158234761Y-100000000D01*
X158187142Y-100047619D01*
X157758571Y-98714285D02*
X157758571Y-99047619D01*
X158282380Y-99047619D02*
X157282380Y-99047619D01*
X157282380Y-98571428D01*
X157615714Y-97761904D02*
X158282380Y-97761904D01*
X157234761Y-98000000D02*
X157949047Y-98238095D01*
X157949047Y-97619047D01*
X157282380Y-97047619D02*
X157282380Y-96952380D01*
X157330000Y-96857142D01*
X157377619Y-96809523D01*
X157472857Y-96761904D01*
X157663333Y-96714285D01*
X157901428Y-96714285D01*
X158091904Y-96761904D01*
X158187142Y-96809523D01*
X158234761Y-96857142D01*
X158282380Y-96952380D01*
X158282380Y-97047619D01*
X158234761Y-97142857D01*
X158187142Y-97190476D01*
X158091904Y-97238095D01*
X157901428Y-97285714D01*
X157663333Y-97285714D01*
X157472857Y-97238095D01*
X157377619Y-97190476D01*
X157330000Y-97142857D01*
X157282380Y-97047619D01*
X158282380Y-96285714D02*
X157282380Y-96285714D01*
X158282380Y-95714285D01*
X157282380Y-95714285D01*
X157282380Y-95333333D02*
X158282380Y-94666666D01*
X157282380Y-94666666D02*
X158282380Y-95333333D01*
X157282380Y-94428571D02*
X157282380Y-93857142D01*
X158282380Y-94142857D02*
X157282380Y-94142857D01*
X157282380Y-93047619D02*
X157282380Y-93523809D01*
X157758571Y-93571428D01*
X157710952Y-93523809D01*
X157663333Y-93428571D01*
X157663333Y-93190476D01*
X157710952Y-93095238D01*
X157758571Y-93047619D01*
X157853809Y-93000000D01*
X158091904Y-93000000D01*
X158187142Y-93047619D01*
X158234761Y-93095238D01*
X158282380Y-93190476D01*
X158282380Y-93428571D01*
X158234761Y-93523809D01*
X158187142Y-93571428D01*
X157330000Y-92047619D02*
X157282380Y-92142857D01*
X157282380Y-92285714D01*
X157330000Y-92428571D01*
X157425238Y-92523809D01*
X157520476Y-92571428D01*
X157710952Y-92619047D01*
X157853809Y-92619047D01*
X158044285Y-92571428D01*
X158139523Y-92523809D01*
X158234761Y-92428571D01*
X158282380Y-92285714D01*
X158282380Y-92190476D01*
X158234761Y-92047619D01*
X158187142Y-92000000D01*
X157853809Y-92000000D01*
X157853809Y-92190476D01*
D11*
X159113095Y-98184523D02*
X158863095Y-98184523D01*
X158863095Y-98125000D01*
X158875000Y-98089285D01*
X158898809Y-98065476D01*
X158922619Y-98053571D01*
X158970238Y-98041666D01*
X159005952Y-98041666D01*
X159053571Y-98053571D01*
X159077380Y-98065476D01*
X159101190Y-98089285D01*
X159113095Y-98125000D01*
X159113095Y-98184523D01*
X158863095Y-97958333D02*
X158863095Y-97791666D01*
X159113095Y-97898809D01*
D10*
%TO.C,SW3*%
X145594761Y-82214285D02*
X145642380Y-82071428D01*
X145642380Y-81833333D01*
X145594761Y-81738095D01*
X145547142Y-81690476D01*
X145451904Y-81642857D01*
X145356666Y-81642857D01*
X145261428Y-81690476D01*
X145213809Y-81738095D01*
X145166190Y-81833333D01*
X145118571Y-82023809D01*
X145070952Y-82119047D01*
X145023333Y-82166666D01*
X144928095Y-82214285D01*
X144832857Y-82214285D01*
X144737619Y-82166666D01*
X144690000Y-82119047D01*
X144642380Y-82023809D01*
X144642380Y-81785714D01*
X144690000Y-81642857D01*
X144642380Y-81309523D02*
X145642380Y-81071428D01*
X144928095Y-80880952D01*
X145642380Y-80690476D01*
X144642380Y-80452380D01*
X145737619Y-80309523D02*
X145737619Y-79547619D01*
X145594761Y-79357142D02*
X145642380Y-79214285D01*
X145642380Y-78976190D01*
X145594761Y-78880952D01*
X145547142Y-78833333D01*
X145451904Y-78785714D01*
X145356666Y-78785714D01*
X145261428Y-78833333D01*
X145213809Y-78880952D01*
X145166190Y-78976190D01*
X145118571Y-79166666D01*
X145070952Y-79261904D01*
X145023333Y-79309523D01*
X144928095Y-79357142D01*
X144832857Y-79357142D01*
X144737619Y-79309523D01*
X144690000Y-79261904D01*
X144642380Y-79166666D01*
X144642380Y-78928571D01*
X144690000Y-78785714D01*
X145642380Y-78357142D02*
X144642380Y-78357142D01*
X144642380Y-77976190D01*
X144690000Y-77880952D01*
X144737619Y-77833333D01*
X144832857Y-77785714D01*
X144975714Y-77785714D01*
X145070952Y-77833333D01*
X145118571Y-77880952D01*
X145166190Y-77976190D01*
X145166190Y-78357142D01*
X147499761Y-81333333D02*
X147547380Y-81190476D01*
X147547380Y-80952380D01*
X147499761Y-80857142D01*
X147452142Y-80809523D01*
X147356904Y-80761904D01*
X147261666Y-80761904D01*
X147166428Y-80809523D01*
X147118809Y-80857142D01*
X147071190Y-80952380D01*
X147023571Y-81142857D01*
X146975952Y-81238095D01*
X146928333Y-81285714D01*
X146833095Y-81333333D01*
X146737857Y-81333333D01*
X146642619Y-81285714D01*
X146595000Y-81238095D01*
X146547380Y-81142857D01*
X146547380Y-80904761D01*
X146595000Y-80761904D01*
X146547380Y-80428571D02*
X147547380Y-80190476D01*
X146833095Y-80000000D01*
X147547380Y-79809523D01*
X146547380Y-79571428D01*
X146547380Y-79285714D02*
X146547380Y-78666666D01*
X146928333Y-79000000D01*
X146928333Y-78857142D01*
X146975952Y-78761904D01*
X147023571Y-78714285D01*
X147118809Y-78666666D01*
X147356904Y-78666666D01*
X147452142Y-78714285D01*
X147499761Y-78761904D01*
X147547380Y-78857142D01*
X147547380Y-79142857D01*
X147499761Y-79238095D01*
X147452142Y-79285714D01*
%TO.C,C9*%
X137952380Y-89612380D02*
X137380952Y-89612380D01*
X137666666Y-89612380D02*
X137666666Y-88612380D01*
X137571428Y-88755238D01*
X137476190Y-88850476D01*
X137380952Y-88898095D01*
X138571428Y-88612380D02*
X138666666Y-88612380D01*
X138761904Y-88660000D01*
X138809523Y-88707619D01*
X138857142Y-88802857D01*
X138904761Y-88993333D01*
X138904761Y-89231428D01*
X138857142Y-89421904D01*
X138809523Y-89517142D01*
X138761904Y-89564761D01*
X138666666Y-89612380D01*
X138571428Y-89612380D01*
X138476190Y-89564761D01*
X138428571Y-89517142D01*
X138380952Y-89421904D01*
X138333333Y-89231428D01*
X138333333Y-88993333D01*
X138380952Y-88802857D01*
X138428571Y-88707619D01*
X138476190Y-88660000D01*
X138571428Y-88612380D01*
X139523809Y-88612380D02*
X139619047Y-88612380D01*
X139714285Y-88660000D01*
X139761904Y-88707619D01*
X139809523Y-88802857D01*
X139857142Y-88993333D01*
X139857142Y-89231428D01*
X139809523Y-89421904D01*
X139761904Y-89517142D01*
X139714285Y-89564761D01*
X139619047Y-89612380D01*
X139523809Y-89612380D01*
X139428571Y-89564761D01*
X139380952Y-89517142D01*
X139333333Y-89421904D01*
X139285714Y-89231428D01*
X139285714Y-88993333D01*
X139333333Y-88802857D01*
X139380952Y-88707619D01*
X139428571Y-88660000D01*
X139523809Y-88612380D01*
X140285714Y-88945714D02*
X140285714Y-89612380D01*
X140285714Y-89040952D02*
X140333333Y-88993333D01*
X140428571Y-88945714D01*
X140571428Y-88945714D01*
X140666666Y-88993333D01*
X140714285Y-89088571D01*
X140714285Y-89612380D01*
X141523809Y-89088571D02*
X141190476Y-89088571D01*
X141190476Y-89612380D02*
X141190476Y-88612380D01*
X141666666Y-88612380D01*
D11*
X139458333Y-88089285D02*
X139446428Y-88101190D01*
X139410714Y-88113095D01*
X139386904Y-88113095D01*
X139351190Y-88101190D01*
X139327380Y-88077380D01*
X139315476Y-88053571D01*
X139303571Y-88005952D01*
X139303571Y-87970238D01*
X139315476Y-87922619D01*
X139327380Y-87898809D01*
X139351190Y-87875000D01*
X139386904Y-87863095D01*
X139410714Y-87863095D01*
X139446428Y-87875000D01*
X139458333Y-87886904D01*
X139577380Y-88113095D02*
X139625000Y-88113095D01*
X139648809Y-88101190D01*
X139660714Y-88089285D01*
X139684523Y-88053571D01*
X139696428Y-88005952D01*
X139696428Y-87910714D01*
X139684523Y-87886904D01*
X139672619Y-87875000D01*
X139648809Y-87863095D01*
X139601190Y-87863095D01*
X139577380Y-87875000D01*
X139565476Y-87886904D01*
X139553571Y-87910714D01*
X139553571Y-87970238D01*
X139565476Y-87994047D01*
X139577380Y-88005952D01*
X139601190Y-88017857D01*
X139648809Y-88017857D01*
X139672619Y-88005952D01*
X139684523Y-87994047D01*
X139696428Y-87970238D01*
D10*
%TO.C,R1*%
X131782380Y-65821428D02*
X131782380Y-66392857D01*
X131782380Y-66107142D02*
X130782380Y-66107142D01*
X130925238Y-66202380D01*
X131020476Y-66297619D01*
X131068095Y-66392857D01*
X130782380Y-65202380D02*
X130782380Y-65107142D01*
X130830000Y-65011904D01*
X130877619Y-64964285D01*
X130972857Y-64916666D01*
X131163333Y-64869047D01*
X131401428Y-64869047D01*
X131591904Y-64916666D01*
X131687142Y-64964285D01*
X131734761Y-65011904D01*
X131782380Y-65107142D01*
X131782380Y-65202380D01*
X131734761Y-65297619D01*
X131687142Y-65345238D01*
X131591904Y-65392857D01*
X131401428Y-65440476D01*
X131163333Y-65440476D01*
X130972857Y-65392857D01*
X130877619Y-65345238D01*
X130830000Y-65297619D01*
X130782380Y-65202380D01*
X130782380Y-64250000D02*
X130782380Y-64154761D01*
X130830000Y-64059523D01*
X130877619Y-64011904D01*
X130972857Y-63964285D01*
X131163333Y-63916666D01*
X131401428Y-63916666D01*
X131591904Y-63964285D01*
X131687142Y-64011904D01*
X131734761Y-64059523D01*
X131782380Y-64154761D01*
X131782380Y-64250000D01*
X131734761Y-64345238D01*
X131687142Y-64392857D01*
X131591904Y-64440476D01*
X131401428Y-64488095D01*
X131163333Y-64488095D01*
X130972857Y-64440476D01*
X130877619Y-64392857D01*
X130830000Y-64345238D01*
X130782380Y-64250000D01*
X131782380Y-63488095D02*
X130782380Y-63488095D01*
X131401428Y-63392857D02*
X131782380Y-63107142D01*
X131115714Y-63107142D02*
X131496666Y-63488095D01*
D11*
X132617619Y-64793333D02*
X132493809Y-64880000D01*
X132617619Y-64941904D02*
X132357619Y-64941904D01*
X132357619Y-64842857D01*
X132370000Y-64818095D01*
X132382380Y-64805714D01*
X132407142Y-64793333D01*
X132444285Y-64793333D01*
X132469047Y-64805714D01*
X132481428Y-64818095D01*
X132493809Y-64842857D01*
X132493809Y-64941904D01*
X132617619Y-64545714D02*
X132617619Y-64694285D01*
X132617619Y-64620000D02*
X132357619Y-64620000D01*
X132394761Y-64644761D01*
X132419523Y-64669523D01*
X132431904Y-64694285D01*
D10*
%TO.C,C3*%
X132452380Y-97292380D02*
X131880952Y-97292380D01*
X132166666Y-97292380D02*
X132166666Y-96292380D01*
X132071428Y-96435238D01*
X131976190Y-96530476D01*
X131880952Y-96578095D01*
X133071428Y-96292380D02*
X133166666Y-96292380D01*
X133261904Y-96340000D01*
X133309523Y-96387619D01*
X133357142Y-96482857D01*
X133404761Y-96673333D01*
X133404761Y-96911428D01*
X133357142Y-97101904D01*
X133309523Y-97197142D01*
X133261904Y-97244761D01*
X133166666Y-97292380D01*
X133071428Y-97292380D01*
X132976190Y-97244761D01*
X132928571Y-97197142D01*
X132880952Y-97101904D01*
X132833333Y-96911428D01*
X132833333Y-96673333D01*
X132880952Y-96482857D01*
X132928571Y-96387619D01*
X132976190Y-96340000D01*
X133071428Y-96292380D01*
X134023809Y-96292380D02*
X134119047Y-96292380D01*
X134214285Y-96340000D01*
X134261904Y-96387619D01*
X134309523Y-96482857D01*
X134357142Y-96673333D01*
X134357142Y-96911428D01*
X134309523Y-97101904D01*
X134261904Y-97197142D01*
X134214285Y-97244761D01*
X134119047Y-97292380D01*
X134023809Y-97292380D01*
X133928571Y-97244761D01*
X133880952Y-97197142D01*
X133833333Y-97101904D01*
X133785714Y-96911428D01*
X133785714Y-96673333D01*
X133833333Y-96482857D01*
X133880952Y-96387619D01*
X133928571Y-96340000D01*
X134023809Y-96292380D01*
X134785714Y-96625714D02*
X134785714Y-97292380D01*
X134785714Y-96720952D02*
X134833333Y-96673333D01*
X134928571Y-96625714D01*
X135071428Y-96625714D01*
X135166666Y-96673333D01*
X135214285Y-96768571D01*
X135214285Y-97292380D01*
X136023809Y-96768571D02*
X135690476Y-96768571D01*
X135690476Y-97292380D02*
X135690476Y-96292380D01*
X136166666Y-96292380D01*
D11*
X133958333Y-98089285D02*
X133946428Y-98101190D01*
X133910714Y-98113095D01*
X133886904Y-98113095D01*
X133851190Y-98101190D01*
X133827380Y-98077380D01*
X133815476Y-98053571D01*
X133803571Y-98005952D01*
X133803571Y-97970238D01*
X133815476Y-97922619D01*
X133827380Y-97898809D01*
X133851190Y-97875000D01*
X133886904Y-97863095D01*
X133910714Y-97863095D01*
X133946428Y-97875000D01*
X133958333Y-97886904D01*
X134041666Y-97863095D02*
X134196428Y-97863095D01*
X134113095Y-97958333D01*
X134148809Y-97958333D01*
X134172619Y-97970238D01*
X134184523Y-97982142D01*
X134196428Y-98005952D01*
X134196428Y-98065476D01*
X134184523Y-98089285D01*
X134172619Y-98101190D01*
X134148809Y-98113095D01*
X134077380Y-98113095D01*
X134053571Y-98101190D01*
X134041666Y-98089285D01*
D10*
%TO.C,R7*%
X126394761Y-112872380D02*
X125823333Y-112872380D01*
X126109047Y-112872380D02*
X126109047Y-111872380D01*
X126013809Y-112015238D01*
X125918571Y-112110476D01*
X125823333Y-112158095D01*
X127013809Y-111872380D02*
X127109047Y-111872380D01*
X127204285Y-111920000D01*
X127251904Y-111967619D01*
X127299523Y-112062857D01*
X127347142Y-112253333D01*
X127347142Y-112491428D01*
X127299523Y-112681904D01*
X127251904Y-112777142D01*
X127204285Y-112824761D01*
X127109047Y-112872380D01*
X127013809Y-112872380D01*
X126918571Y-112824761D01*
X126870952Y-112777142D01*
X126823333Y-112681904D01*
X126775714Y-112491428D01*
X126775714Y-112253333D01*
X126823333Y-112062857D01*
X126870952Y-111967619D01*
X126918571Y-111920000D01*
X127013809Y-111872380D01*
X127775714Y-112872380D02*
X127775714Y-111872380D01*
X127870952Y-112491428D02*
X128156666Y-112872380D01*
X128156666Y-112205714D02*
X127775714Y-112586666D01*
D11*
X126946666Y-111367619D02*
X126860000Y-111243809D01*
X126798095Y-111367619D02*
X126798095Y-111107619D01*
X126897142Y-111107619D01*
X126921904Y-111120000D01*
X126934285Y-111132380D01*
X126946666Y-111157142D01*
X126946666Y-111194285D01*
X126934285Y-111219047D01*
X126921904Y-111231428D01*
X126897142Y-111243809D01*
X126798095Y-111243809D01*
X127033333Y-111107619D02*
X127206666Y-111107619D01*
X127095238Y-111367619D01*
D10*
%TO.C,R2*%
X140622380Y-64630952D02*
X140622380Y-65107142D01*
X141098571Y-65154761D01*
X141050952Y-65107142D01*
X141003333Y-65011904D01*
X141003333Y-64773809D01*
X141050952Y-64678571D01*
X141098571Y-64630952D01*
X141193809Y-64583333D01*
X141431904Y-64583333D01*
X141527142Y-64630952D01*
X141574761Y-64678571D01*
X141622380Y-64773809D01*
X141622380Y-65011904D01*
X141574761Y-65107142D01*
X141527142Y-65154761D01*
X141527142Y-64154761D02*
X141574761Y-64107142D01*
X141622380Y-64154761D01*
X141574761Y-64202380D01*
X141527142Y-64154761D01*
X141622380Y-64154761D01*
X141622380Y-63154761D02*
X141622380Y-63726190D01*
X141622380Y-63440476D02*
X140622380Y-63440476D01*
X140765238Y-63535714D01*
X140860476Y-63630952D01*
X140908095Y-63726190D01*
X141622380Y-62726190D02*
X140622380Y-62726190D01*
X141241428Y-62630952D02*
X141622380Y-62345238D01*
X140955714Y-62345238D02*
X141336666Y-62726190D01*
D11*
X140117619Y-63793333D02*
X139993809Y-63880000D01*
X140117619Y-63941904D02*
X139857619Y-63941904D01*
X139857619Y-63842857D01*
X139870000Y-63818095D01*
X139882380Y-63805714D01*
X139907142Y-63793333D01*
X139944285Y-63793333D01*
X139969047Y-63805714D01*
X139981428Y-63818095D01*
X139993809Y-63842857D01*
X139993809Y-63941904D01*
X139882380Y-63694285D02*
X139870000Y-63681904D01*
X139857619Y-63657142D01*
X139857619Y-63595238D01*
X139870000Y-63570476D01*
X139882380Y-63558095D01*
X139907142Y-63545714D01*
X139931904Y-63545714D01*
X139969047Y-63558095D01*
X140117619Y-63706666D01*
X140117619Y-63545714D01*
D10*
%TO.C,D6*%
X148357142Y-67482380D02*
X148023809Y-67006190D01*
X147785714Y-67482380D02*
X147785714Y-66482380D01*
X148166666Y-66482380D01*
X148261904Y-66530000D01*
X148309523Y-66577619D01*
X148357142Y-66672857D01*
X148357142Y-66815714D01*
X148309523Y-66910952D01*
X148261904Y-66958571D01*
X148166666Y-67006190D01*
X147785714Y-67006190D01*
X148785714Y-66958571D02*
X149119047Y-66958571D01*
X149261904Y-67482380D02*
X148785714Y-67482380D01*
X148785714Y-66482380D01*
X149261904Y-66482380D01*
X149690476Y-67482380D02*
X149690476Y-66482380D01*
X149928571Y-66482380D01*
X150071428Y-66530000D01*
X150166666Y-66625238D01*
X150214285Y-66720476D01*
X150261904Y-66910952D01*
X150261904Y-67053809D01*
X150214285Y-67244285D01*
X150166666Y-67339523D01*
X150071428Y-67434761D01*
X149928571Y-67482380D01*
X149690476Y-67482380D01*
D11*
X148815476Y-68313095D02*
X148815476Y-68063095D01*
X148875000Y-68063095D01*
X148910714Y-68075000D01*
X148934523Y-68098809D01*
X148946428Y-68122619D01*
X148958333Y-68170238D01*
X148958333Y-68205952D01*
X148946428Y-68253571D01*
X148934523Y-68277380D01*
X148910714Y-68301190D01*
X148875000Y-68313095D01*
X148815476Y-68313095D01*
X149172619Y-68063095D02*
X149125000Y-68063095D01*
X149101190Y-68075000D01*
X149089285Y-68086904D01*
X149065476Y-68122619D01*
X149053571Y-68170238D01*
X149053571Y-68265476D01*
X149065476Y-68289285D01*
X149077380Y-68301190D01*
X149101190Y-68313095D01*
X149148809Y-68313095D01*
X149172619Y-68301190D01*
X149184523Y-68289285D01*
X149196428Y-68265476D01*
X149196428Y-68205952D01*
X149184523Y-68182142D01*
X149172619Y-68170238D01*
X149148809Y-68158333D01*
X149101190Y-68158333D01*
X149077380Y-68170238D01*
X149065476Y-68182142D01*
X149053571Y-68205952D01*
D10*
%TO.C,C17*%
X143202380Y-102292380D02*
X142630952Y-102292380D01*
X142916666Y-102292380D02*
X142916666Y-101292380D01*
X142821428Y-101435238D01*
X142726190Y-101530476D01*
X142630952Y-101578095D01*
X143821428Y-101292380D02*
X143916666Y-101292380D01*
X144011904Y-101340000D01*
X144059523Y-101387619D01*
X144107142Y-101482857D01*
X144154761Y-101673333D01*
X144154761Y-101911428D01*
X144107142Y-102101904D01*
X144059523Y-102197142D01*
X144011904Y-102244761D01*
X143916666Y-102292380D01*
X143821428Y-102292380D01*
X143726190Y-102244761D01*
X143678571Y-102197142D01*
X143630952Y-102101904D01*
X143583333Y-101911428D01*
X143583333Y-101673333D01*
X143630952Y-101482857D01*
X143678571Y-101387619D01*
X143726190Y-101340000D01*
X143821428Y-101292380D01*
X144773809Y-101292380D02*
X144869047Y-101292380D01*
X144964285Y-101340000D01*
X145011904Y-101387619D01*
X145059523Y-101482857D01*
X145107142Y-101673333D01*
X145107142Y-101911428D01*
X145059523Y-102101904D01*
X145011904Y-102197142D01*
X144964285Y-102244761D01*
X144869047Y-102292380D01*
X144773809Y-102292380D01*
X144678571Y-102244761D01*
X144630952Y-102197142D01*
X144583333Y-102101904D01*
X144535714Y-101911428D01*
X144535714Y-101673333D01*
X144583333Y-101482857D01*
X144630952Y-101387619D01*
X144678571Y-101340000D01*
X144773809Y-101292380D01*
X145535714Y-101625714D02*
X145535714Y-102292380D01*
X145535714Y-101720952D02*
X145583333Y-101673333D01*
X145678571Y-101625714D01*
X145821428Y-101625714D01*
X145916666Y-101673333D01*
X145964285Y-101768571D01*
X145964285Y-102292380D01*
X146773809Y-101768571D02*
X146440476Y-101768571D01*
X146440476Y-102292380D02*
X146440476Y-101292380D01*
X146916666Y-101292380D01*
D11*
X144589285Y-103089285D02*
X144577380Y-103101190D01*
X144541666Y-103113095D01*
X144517857Y-103113095D01*
X144482142Y-103101190D01*
X144458333Y-103077380D01*
X144446428Y-103053571D01*
X144434523Y-103005952D01*
X144434523Y-102970238D01*
X144446428Y-102922619D01*
X144458333Y-102898809D01*
X144482142Y-102875000D01*
X144517857Y-102863095D01*
X144541666Y-102863095D01*
X144577380Y-102875000D01*
X144589285Y-102886904D01*
X144827380Y-103113095D02*
X144684523Y-103113095D01*
X144755952Y-103113095D02*
X144755952Y-102863095D01*
X144732142Y-102898809D01*
X144708333Y-102922619D01*
X144684523Y-102934523D01*
X144910714Y-102863095D02*
X145077380Y-102863095D01*
X144970238Y-103113095D01*
D10*
%TO.C,C7*%
X146202380Y-110362380D02*
X145630952Y-110362380D01*
X145916666Y-110362380D02*
X145916666Y-109362380D01*
X145821428Y-109505238D01*
X145726190Y-109600476D01*
X145630952Y-109648095D01*
X146821428Y-109362380D02*
X146916666Y-109362380D01*
X147011904Y-109410000D01*
X147059523Y-109457619D01*
X147107142Y-109552857D01*
X147154761Y-109743333D01*
X147154761Y-109981428D01*
X147107142Y-110171904D01*
X147059523Y-110267142D01*
X147011904Y-110314761D01*
X146916666Y-110362380D01*
X146821428Y-110362380D01*
X146726190Y-110314761D01*
X146678571Y-110267142D01*
X146630952Y-110171904D01*
X146583333Y-109981428D01*
X146583333Y-109743333D01*
X146630952Y-109552857D01*
X146678571Y-109457619D01*
X146726190Y-109410000D01*
X146821428Y-109362380D01*
X147773809Y-109362380D02*
X147869047Y-109362380D01*
X147964285Y-109410000D01*
X148011904Y-109457619D01*
X148059523Y-109552857D01*
X148107142Y-109743333D01*
X148107142Y-109981428D01*
X148059523Y-110171904D01*
X148011904Y-110267142D01*
X147964285Y-110314761D01*
X147869047Y-110362380D01*
X147773809Y-110362380D01*
X147678571Y-110314761D01*
X147630952Y-110267142D01*
X147583333Y-110171904D01*
X147535714Y-109981428D01*
X147535714Y-109743333D01*
X147583333Y-109552857D01*
X147630952Y-109457619D01*
X147678571Y-109410000D01*
X147773809Y-109362380D01*
X148535714Y-109695714D02*
X148535714Y-110362380D01*
X148535714Y-109790952D02*
X148583333Y-109743333D01*
X148678571Y-109695714D01*
X148821428Y-109695714D01*
X148916666Y-109743333D01*
X148964285Y-109838571D01*
X148964285Y-110362380D01*
X149773809Y-109838571D02*
X149440476Y-109838571D01*
X149440476Y-110362380D02*
X149440476Y-109362380D01*
X149916666Y-109362380D01*
D11*
X147708333Y-108839285D02*
X147696428Y-108851190D01*
X147660714Y-108863095D01*
X147636904Y-108863095D01*
X147601190Y-108851190D01*
X147577380Y-108827380D01*
X147565476Y-108803571D01*
X147553571Y-108755952D01*
X147553571Y-108720238D01*
X147565476Y-108672619D01*
X147577380Y-108648809D01*
X147601190Y-108625000D01*
X147636904Y-108613095D01*
X147660714Y-108613095D01*
X147696428Y-108625000D01*
X147708333Y-108636904D01*
X147791666Y-108613095D02*
X147958333Y-108613095D01*
X147851190Y-108863095D01*
D10*
%TO.C,C5*%
X136432380Y-97292380D02*
X135860952Y-97292380D01*
X136146666Y-97292380D02*
X136146666Y-96292380D01*
X136051428Y-96435238D01*
X135956190Y-96530476D01*
X135860952Y-96578095D01*
X137051428Y-96292380D02*
X137146666Y-96292380D01*
X137241904Y-96340000D01*
X137289523Y-96387619D01*
X137337142Y-96482857D01*
X137384761Y-96673333D01*
X137384761Y-96911428D01*
X137337142Y-97101904D01*
X137289523Y-97197142D01*
X137241904Y-97244761D01*
X137146666Y-97292380D01*
X137051428Y-97292380D01*
X136956190Y-97244761D01*
X136908571Y-97197142D01*
X136860952Y-97101904D01*
X136813333Y-96911428D01*
X136813333Y-96673333D01*
X136860952Y-96482857D01*
X136908571Y-96387619D01*
X136956190Y-96340000D01*
X137051428Y-96292380D01*
X138003809Y-96292380D02*
X138099047Y-96292380D01*
X138194285Y-96340000D01*
X138241904Y-96387619D01*
X138289523Y-96482857D01*
X138337142Y-96673333D01*
X138337142Y-96911428D01*
X138289523Y-97101904D01*
X138241904Y-97197142D01*
X138194285Y-97244761D01*
X138099047Y-97292380D01*
X138003809Y-97292380D01*
X137908571Y-97244761D01*
X137860952Y-97197142D01*
X137813333Y-97101904D01*
X137765714Y-96911428D01*
X137765714Y-96673333D01*
X137813333Y-96482857D01*
X137860952Y-96387619D01*
X137908571Y-96340000D01*
X138003809Y-96292380D01*
X138765714Y-96625714D02*
X138765714Y-97292380D01*
X138765714Y-96720952D02*
X138813333Y-96673333D01*
X138908571Y-96625714D01*
X139051428Y-96625714D01*
X139146666Y-96673333D01*
X139194285Y-96768571D01*
X139194285Y-97292380D01*
X140003809Y-96768571D02*
X139670476Y-96768571D01*
X139670476Y-97292380D02*
X139670476Y-96292380D01*
X140146666Y-96292380D01*
D11*
X137938333Y-98089285D02*
X137926428Y-98101190D01*
X137890714Y-98113095D01*
X137866904Y-98113095D01*
X137831190Y-98101190D01*
X137807380Y-98077380D01*
X137795476Y-98053571D01*
X137783571Y-98005952D01*
X137783571Y-97970238D01*
X137795476Y-97922619D01*
X137807380Y-97898809D01*
X137831190Y-97875000D01*
X137866904Y-97863095D01*
X137890714Y-97863095D01*
X137926428Y-97875000D01*
X137938333Y-97886904D01*
X138164523Y-97863095D02*
X138045476Y-97863095D01*
X138033571Y-97982142D01*
X138045476Y-97970238D01*
X138069285Y-97958333D01*
X138128809Y-97958333D01*
X138152619Y-97970238D01*
X138164523Y-97982142D01*
X138176428Y-98005952D01*
X138176428Y-98065476D01*
X138164523Y-98089285D01*
X138152619Y-98101190D01*
X138128809Y-98113095D01*
X138069285Y-98113095D01*
X138045476Y-98101190D01*
X138033571Y-98089285D01*
D10*
%TO.C,C16*%
X141702380Y-94112380D02*
X141130952Y-94112380D01*
X141416666Y-94112380D02*
X141416666Y-93112380D01*
X141321428Y-93255238D01*
X141226190Y-93350476D01*
X141130952Y-93398095D01*
X142321428Y-93112380D02*
X142416666Y-93112380D01*
X142511904Y-93160000D01*
X142559523Y-93207619D01*
X142607142Y-93302857D01*
X142654761Y-93493333D01*
X142654761Y-93731428D01*
X142607142Y-93921904D01*
X142559523Y-94017142D01*
X142511904Y-94064761D01*
X142416666Y-94112380D01*
X142321428Y-94112380D01*
X142226190Y-94064761D01*
X142178571Y-94017142D01*
X142130952Y-93921904D01*
X142083333Y-93731428D01*
X142083333Y-93493333D01*
X142130952Y-93302857D01*
X142178571Y-93207619D01*
X142226190Y-93160000D01*
X142321428Y-93112380D01*
X143273809Y-93112380D02*
X143369047Y-93112380D01*
X143464285Y-93160000D01*
X143511904Y-93207619D01*
X143559523Y-93302857D01*
X143607142Y-93493333D01*
X143607142Y-93731428D01*
X143559523Y-93921904D01*
X143511904Y-94017142D01*
X143464285Y-94064761D01*
X143369047Y-94112380D01*
X143273809Y-94112380D01*
X143178571Y-94064761D01*
X143130952Y-94017142D01*
X143083333Y-93921904D01*
X143035714Y-93731428D01*
X143035714Y-93493333D01*
X143083333Y-93302857D01*
X143130952Y-93207619D01*
X143178571Y-93160000D01*
X143273809Y-93112380D01*
X144035714Y-93445714D02*
X144035714Y-94112380D01*
X144035714Y-93540952D02*
X144083333Y-93493333D01*
X144178571Y-93445714D01*
X144321428Y-93445714D01*
X144416666Y-93493333D01*
X144464285Y-93588571D01*
X144464285Y-94112380D01*
X145273809Y-93588571D02*
X144940476Y-93588571D01*
X144940476Y-94112380D02*
X144940476Y-93112380D01*
X145416666Y-93112380D01*
D11*
X143089285Y-92589285D02*
X143077380Y-92601190D01*
X143041666Y-92613095D01*
X143017857Y-92613095D01*
X142982142Y-92601190D01*
X142958333Y-92577380D01*
X142946428Y-92553571D01*
X142934523Y-92505952D01*
X142934523Y-92470238D01*
X142946428Y-92422619D01*
X142958333Y-92398809D01*
X142982142Y-92375000D01*
X143017857Y-92363095D01*
X143041666Y-92363095D01*
X143077380Y-92375000D01*
X143089285Y-92386904D01*
X143327380Y-92613095D02*
X143184523Y-92613095D01*
X143255952Y-92613095D02*
X143255952Y-92363095D01*
X143232142Y-92398809D01*
X143208333Y-92422619D01*
X143184523Y-92434523D01*
X143541666Y-92363095D02*
X143494047Y-92363095D01*
X143470238Y-92375000D01*
X143458333Y-92386904D01*
X143434523Y-92422619D01*
X143422619Y-92470238D01*
X143422619Y-92565476D01*
X143434523Y-92589285D01*
X143446428Y-92601190D01*
X143470238Y-92613095D01*
X143517857Y-92613095D01*
X143541666Y-92601190D01*
X143553571Y-92589285D01*
X143565476Y-92565476D01*
X143565476Y-92505952D01*
X143553571Y-92482142D01*
X143541666Y-92470238D01*
X143517857Y-92458333D01*
X143470238Y-92458333D01*
X143446428Y-92470238D01*
X143434523Y-92482142D01*
X143422619Y-92505952D01*
D10*
%TO.C,R8*%
X129154761Y-107122380D02*
X128583333Y-107122380D01*
X128869047Y-107122380D02*
X128869047Y-106122380D01*
X128773809Y-106265238D01*
X128678571Y-106360476D01*
X128583333Y-106408095D01*
X129773809Y-106122380D02*
X129869047Y-106122380D01*
X129964285Y-106170000D01*
X130011904Y-106217619D01*
X130059523Y-106312857D01*
X130107142Y-106503333D01*
X130107142Y-106741428D01*
X130059523Y-106931904D01*
X130011904Y-107027142D01*
X129964285Y-107074761D01*
X129869047Y-107122380D01*
X129773809Y-107122380D01*
X129678571Y-107074761D01*
X129630952Y-107027142D01*
X129583333Y-106931904D01*
X129535714Y-106741428D01*
X129535714Y-106503333D01*
X129583333Y-106312857D01*
X129630952Y-106217619D01*
X129678571Y-106170000D01*
X129773809Y-106122380D01*
X130535714Y-107122380D02*
X130535714Y-106122380D01*
X130630952Y-106741428D02*
X130916666Y-107122380D01*
X130916666Y-106455714D02*
X130535714Y-106836666D01*
D11*
X129706666Y-105617619D02*
X129620000Y-105493809D01*
X129558095Y-105617619D02*
X129558095Y-105357619D01*
X129657142Y-105357619D01*
X129681904Y-105370000D01*
X129694285Y-105382380D01*
X129706666Y-105407142D01*
X129706666Y-105444285D01*
X129694285Y-105469047D01*
X129681904Y-105481428D01*
X129657142Y-105493809D01*
X129558095Y-105493809D01*
X129855238Y-105469047D02*
X129830476Y-105456666D01*
X129818095Y-105444285D01*
X129805714Y-105419523D01*
X129805714Y-105407142D01*
X129818095Y-105382380D01*
X129830476Y-105370000D01*
X129855238Y-105357619D01*
X129904761Y-105357619D01*
X129929523Y-105370000D01*
X129941904Y-105382380D01*
X129954285Y-105407142D01*
X129954285Y-105419523D01*
X129941904Y-105444285D01*
X129929523Y-105456666D01*
X129904761Y-105469047D01*
X129855238Y-105469047D01*
X129830476Y-105481428D01*
X129818095Y-105493809D01*
X129805714Y-105518571D01*
X129805714Y-105568095D01*
X129818095Y-105592857D01*
X129830476Y-105605238D01*
X129855238Y-105617619D01*
X129904761Y-105617619D01*
X129929523Y-105605238D01*
X129941904Y-105592857D01*
X129954285Y-105568095D01*
X129954285Y-105518571D01*
X129941904Y-105493809D01*
X129929523Y-105481428D01*
X129904761Y-105469047D01*
D10*
%TO.C,J2*%
X130454761Y-97654761D02*
X130502380Y-97511904D01*
X130502380Y-97273809D01*
X130454761Y-97178571D01*
X130407142Y-97130952D01*
X130311904Y-97083333D01*
X130216666Y-97083333D01*
X130121428Y-97130952D01*
X130073809Y-97178571D01*
X130026190Y-97273809D01*
X129978571Y-97464285D01*
X129930952Y-97559523D01*
X129883333Y-97607142D01*
X129788095Y-97654761D01*
X129692857Y-97654761D01*
X129597619Y-97607142D01*
X129550000Y-97559523D01*
X129502380Y-97464285D01*
X129502380Y-97226190D01*
X129550000Y-97083333D01*
X130502380Y-96654761D02*
X129835714Y-96654761D01*
X129502380Y-96654761D02*
X129550000Y-96702380D01*
X129597619Y-96654761D01*
X129550000Y-96607142D01*
X129502380Y-96654761D01*
X129597619Y-96654761D01*
X130502380Y-95750000D02*
X129502380Y-95750000D01*
X130454761Y-95750000D02*
X130502380Y-95845238D01*
X130502380Y-96035714D01*
X130454761Y-96130952D01*
X130407142Y-96178571D01*
X130311904Y-96226190D01*
X130026190Y-96226190D01*
X129930952Y-96178571D01*
X129883333Y-96130952D01*
X129835714Y-96035714D01*
X129835714Y-95845238D01*
X129883333Y-95750000D01*
X130454761Y-94892857D02*
X130502380Y-94988095D01*
X130502380Y-95178571D01*
X130454761Y-95273809D01*
X130359523Y-95321428D01*
X129978571Y-95321428D01*
X129883333Y-95273809D01*
X129835714Y-95178571D01*
X129835714Y-94988095D01*
X129883333Y-94892857D01*
X129978571Y-94845238D01*
X130073809Y-94845238D01*
X130169047Y-95321428D01*
X125952380Y-96583333D02*
X126666666Y-96583333D01*
X126809523Y-96630952D01*
X126904761Y-96726190D01*
X126952380Y-96869047D01*
X126952380Y-96964285D01*
X126047619Y-96154761D02*
X126000000Y-96107142D01*
X125952380Y-96011904D01*
X125952380Y-95773809D01*
X126000000Y-95678571D01*
X126047619Y-95630952D01*
X126142857Y-95583333D01*
X126238095Y-95583333D01*
X126380952Y-95630952D01*
X126952380Y-96202380D01*
X126952380Y-95583333D01*
%TO.C,J4*%
X155342142Y-121761904D02*
X155389761Y-121809523D01*
X155437380Y-121952380D01*
X155437380Y-122047619D01*
X155389761Y-122190476D01*
X155294523Y-122285714D01*
X155199285Y-122333333D01*
X155008809Y-122380952D01*
X154865952Y-122380952D01*
X154675476Y-122333333D01*
X154580238Y-122285714D01*
X154485000Y-122190476D01*
X154437380Y-122047619D01*
X154437380Y-121952380D01*
X154485000Y-121809523D01*
X154532619Y-121761904D01*
X155437380Y-121190476D02*
X155389761Y-121285714D01*
X155342142Y-121333333D01*
X155246904Y-121380952D01*
X154961190Y-121380952D01*
X154865952Y-121333333D01*
X154818333Y-121285714D01*
X154770714Y-121190476D01*
X154770714Y-121047619D01*
X154818333Y-120952380D01*
X154865952Y-120904761D01*
X154961190Y-120857142D01*
X155246904Y-120857142D01*
X155342142Y-120904761D01*
X155389761Y-120952380D01*
X155437380Y-121047619D01*
X155437380Y-121190476D01*
X154770714Y-120428571D02*
X155437380Y-120428571D01*
X154865952Y-120428571D02*
X154818333Y-120380952D01*
X154770714Y-120285714D01*
X154770714Y-120142857D01*
X154818333Y-120047619D01*
X154913571Y-120000000D01*
X155437380Y-120000000D01*
X154770714Y-119523809D02*
X155437380Y-119523809D01*
X154865952Y-119523809D02*
X154818333Y-119476190D01*
X154770714Y-119380952D01*
X154770714Y-119238095D01*
X154818333Y-119142857D01*
X154913571Y-119095238D01*
X155437380Y-119095238D01*
X155532619Y-118857142D02*
X155532619Y-118095238D01*
X155151666Y-117904761D02*
X155151666Y-117428571D01*
X155437380Y-118000000D02*
X154437380Y-117666666D01*
X155437380Y-117333333D01*
X155437380Y-116428571D02*
X154961190Y-116761904D01*
X155437380Y-117000000D02*
X154437380Y-117000000D01*
X154437380Y-116619047D01*
X154485000Y-116523809D01*
X154532619Y-116476190D01*
X154627857Y-116428571D01*
X154770714Y-116428571D01*
X154865952Y-116476190D01*
X154913571Y-116523809D01*
X154961190Y-116619047D01*
X154961190Y-117000000D01*
X155437380Y-116000000D02*
X154437380Y-116000000D01*
X155151666Y-115666666D01*
X154437380Y-115333333D01*
X155437380Y-115333333D01*
X155532619Y-115095238D02*
X155532619Y-114333333D01*
X154437380Y-113809523D02*
X155151666Y-113809523D01*
X155294523Y-113857142D01*
X155389761Y-113952380D01*
X155437380Y-114095238D01*
X155437380Y-114190476D01*
X154437380Y-113476190D02*
X154437380Y-112904761D01*
X155437380Y-113190476D02*
X154437380Y-113190476D01*
X155151666Y-112619047D02*
X155151666Y-112142857D01*
X155437380Y-112714285D02*
X154437380Y-112380952D01*
X155437380Y-112047619D01*
X154485000Y-111190476D02*
X154437380Y-111285714D01*
X154437380Y-111428571D01*
X154485000Y-111571428D01*
X154580238Y-111666666D01*
X154675476Y-111714285D01*
X154865952Y-111761904D01*
X155008809Y-111761904D01*
X155199285Y-111714285D01*
X155294523Y-111666666D01*
X155389761Y-111571428D01*
X155437380Y-111428571D01*
X155437380Y-111333333D01*
X155389761Y-111190476D01*
X155342142Y-111142857D01*
X155008809Y-111142857D01*
X155008809Y-111333333D01*
X155532619Y-110952380D02*
X155532619Y-110190476D01*
X155389761Y-110000000D02*
X155437380Y-109857142D01*
X155437380Y-109619047D01*
X155389761Y-109523809D01*
X155342142Y-109476190D01*
X155246904Y-109428571D01*
X155151666Y-109428571D01*
X155056428Y-109476190D01*
X155008809Y-109523809D01*
X154961190Y-109619047D01*
X154913571Y-109809523D01*
X154865952Y-109904761D01*
X154818333Y-109952380D01*
X154723095Y-110000000D01*
X154627857Y-110000000D01*
X154532619Y-109952380D01*
X154485000Y-109904761D01*
X154437380Y-109809523D01*
X154437380Y-109571428D01*
X154485000Y-109428571D01*
X154437380Y-109095238D02*
X155437380Y-108857142D01*
X154723095Y-108666666D01*
X155437380Y-108476190D01*
X154437380Y-108238095D01*
X155437380Y-107857142D02*
X154437380Y-107857142D01*
X154437380Y-107619047D01*
X154485000Y-107476190D01*
X154580238Y-107380952D01*
X154675476Y-107333333D01*
X154865952Y-107285714D01*
X155008809Y-107285714D01*
X155199285Y-107333333D01*
X155294523Y-107380952D01*
X155389761Y-107476190D01*
X155437380Y-107619047D01*
X155437380Y-107857142D01*
X155532619Y-107095238D02*
X155532619Y-106333333D01*
X155437380Y-105571428D02*
X155437380Y-106142857D01*
X155437380Y-105857142D02*
X154437380Y-105857142D01*
X154580238Y-105952380D01*
X154675476Y-106047619D01*
X154723095Y-106142857D01*
X154437380Y-104952380D02*
X154437380Y-104857142D01*
X154485000Y-104761904D01*
X154532619Y-104714285D01*
X154627857Y-104666666D01*
X154818333Y-104619047D01*
X155056428Y-104619047D01*
X155246904Y-104666666D01*
X155342142Y-104714285D01*
X155389761Y-104761904D01*
X155437380Y-104857142D01*
X155437380Y-104952380D01*
X155389761Y-105047619D01*
X155342142Y-105095238D01*
X155246904Y-105142857D01*
X155056428Y-105190476D01*
X154818333Y-105190476D01*
X154627857Y-105142857D01*
X154532619Y-105095238D01*
X154485000Y-105047619D01*
X154437380Y-104952380D01*
X150416666Y-112952380D02*
X150416666Y-113666666D01*
X150369047Y-113809523D01*
X150273809Y-113904761D01*
X150130952Y-113952380D01*
X150035714Y-113952380D01*
X151321428Y-113285714D02*
X151321428Y-113952380D01*
X151083333Y-112904761D02*
X150845238Y-113619047D01*
X151464285Y-113619047D01*
%TO.C,J3*%
X150964285Y-112917142D02*
X150916666Y-112964761D01*
X150773809Y-113012380D01*
X150678571Y-113012380D01*
X150535714Y-112964761D01*
X150440476Y-112869523D01*
X150392857Y-112774285D01*
X150345238Y-112583809D01*
X150345238Y-112440952D01*
X150392857Y-112250476D01*
X150440476Y-112155238D01*
X150535714Y-112060000D01*
X150678571Y-112012380D01*
X150773809Y-112012380D01*
X150916666Y-112060000D01*
X150964285Y-112107619D01*
X151535714Y-113012380D02*
X151440476Y-112964761D01*
X151392857Y-112917142D01*
X151345238Y-112821904D01*
X151345238Y-112536190D01*
X151392857Y-112440952D01*
X151440476Y-112393333D01*
X151535714Y-112345714D01*
X151678571Y-112345714D01*
X151773809Y-112393333D01*
X151821428Y-112440952D01*
X151869047Y-112536190D01*
X151869047Y-112821904D01*
X151821428Y-112917142D01*
X151773809Y-112964761D01*
X151678571Y-113012380D01*
X151535714Y-113012380D01*
X152297619Y-112345714D02*
X152297619Y-113012380D01*
X152297619Y-112440952D02*
X152345238Y-112393333D01*
X152440476Y-112345714D01*
X152583333Y-112345714D01*
X152678571Y-112393333D01*
X152726190Y-112488571D01*
X152726190Y-113012380D01*
X153202380Y-112345714D02*
X153202380Y-113012380D01*
X153202380Y-112440952D02*
X153250000Y-112393333D01*
X153345238Y-112345714D01*
X153488095Y-112345714D01*
X153583333Y-112393333D01*
X153630952Y-112488571D01*
X153630952Y-113012380D01*
X153869047Y-113107619D02*
X154630952Y-113107619D01*
X155059523Y-112012380D02*
X155154761Y-112012380D01*
X155250000Y-112060000D01*
X155297619Y-112107619D01*
X155345238Y-112202857D01*
X155392857Y-112393333D01*
X155392857Y-112631428D01*
X155345238Y-112821904D01*
X155297619Y-112917142D01*
X155250000Y-112964761D01*
X155154761Y-113012380D01*
X155059523Y-113012380D01*
X154964285Y-112964761D01*
X154916666Y-112917142D01*
X154869047Y-112821904D01*
X154821428Y-112631428D01*
X154821428Y-112393333D01*
X154869047Y-112202857D01*
X154916666Y-112107619D01*
X154964285Y-112060000D01*
X155059523Y-112012380D01*
X156345238Y-113012380D02*
X155773809Y-113012380D01*
X156059523Y-113012380D02*
X156059523Y-112012380D01*
X155964285Y-112155238D01*
X155869047Y-112250476D01*
X155773809Y-112298095D01*
X156678571Y-113012380D02*
X157202380Y-112345714D01*
X156678571Y-112345714D02*
X157202380Y-113012380D01*
X157773809Y-112012380D02*
X157869047Y-112012380D01*
X157964285Y-112060000D01*
X158011904Y-112107619D01*
X158059523Y-112202857D01*
X158107142Y-112393333D01*
X158107142Y-112631428D01*
X158059523Y-112821904D01*
X158011904Y-112917142D01*
X157964285Y-112964761D01*
X157869047Y-113012380D01*
X157773809Y-113012380D01*
X157678571Y-112964761D01*
X157630952Y-112917142D01*
X157583333Y-112821904D01*
X157535714Y-112631428D01*
X157535714Y-112393333D01*
X157583333Y-112202857D01*
X157630952Y-112107619D01*
X157678571Y-112060000D01*
X157773809Y-112012380D01*
X158964285Y-112012380D02*
X158773809Y-112012380D01*
X158678571Y-112060000D01*
X158630952Y-112107619D01*
X158535714Y-112250476D01*
X158488095Y-112440952D01*
X158488095Y-112821904D01*
X158535714Y-112917142D01*
X158583333Y-112964761D01*
X158678571Y-113012380D01*
X158869047Y-113012380D01*
X158964285Y-112964761D01*
X159011904Y-112917142D01*
X159059523Y-112821904D01*
X159059523Y-112583809D01*
X159011904Y-112488571D01*
X158964285Y-112440952D01*
X158869047Y-112393333D01*
X158678571Y-112393333D01*
X158583333Y-112440952D01*
X158535714Y-112488571D01*
X158488095Y-112583809D01*
X159250000Y-113107619D02*
X160011904Y-113107619D01*
X160583333Y-112488571D02*
X160250000Y-112488571D01*
X160250000Y-113012380D02*
X160250000Y-112012380D01*
X160726190Y-112012380D01*
X161488095Y-112964761D02*
X161392857Y-113012380D01*
X161202380Y-113012380D01*
X161107142Y-112964761D01*
X161059523Y-112869523D01*
X161059523Y-112488571D01*
X161107142Y-112393333D01*
X161202380Y-112345714D01*
X161392857Y-112345714D01*
X161488095Y-112393333D01*
X161535714Y-112488571D01*
X161535714Y-112583809D01*
X161059523Y-112679047D01*
X161964285Y-113012380D02*
X161964285Y-112345714D01*
X161964285Y-112440952D02*
X162011904Y-112393333D01*
X162107142Y-112345714D01*
X162250000Y-112345714D01*
X162345238Y-112393333D01*
X162392857Y-112488571D01*
X162392857Y-113012380D01*
X162392857Y-112488571D02*
X162440476Y-112393333D01*
X162535714Y-112345714D01*
X162678571Y-112345714D01*
X162773809Y-112393333D01*
X162821428Y-112488571D01*
X162821428Y-113012380D01*
X163726190Y-113012380D02*
X163726190Y-112488571D01*
X163678571Y-112393333D01*
X163583333Y-112345714D01*
X163392857Y-112345714D01*
X163297619Y-112393333D01*
X163726190Y-112964761D02*
X163630952Y-113012380D01*
X163392857Y-113012380D01*
X163297619Y-112964761D01*
X163250000Y-112869523D01*
X163250000Y-112774285D01*
X163297619Y-112679047D01*
X163392857Y-112631428D01*
X163630952Y-112631428D01*
X163726190Y-112583809D01*
X164345238Y-113012380D02*
X164250000Y-112964761D01*
X164202380Y-112869523D01*
X164202380Y-112012380D01*
X165107142Y-112964761D02*
X165011904Y-113012380D01*
X164821428Y-113012380D01*
X164726190Y-112964761D01*
X164678571Y-112869523D01*
X164678571Y-112488571D01*
X164726190Y-112393333D01*
X164821428Y-112345714D01*
X165011904Y-112345714D01*
X165107142Y-112393333D01*
X165154761Y-112488571D01*
X165154761Y-112583809D01*
X164678571Y-112679047D01*
X157202380Y-105833333D02*
X157916666Y-105833333D01*
X158059523Y-105880952D01*
X158154761Y-105976190D01*
X158202380Y-106119047D01*
X158202380Y-106214285D01*
X157202380Y-105452380D02*
X157202380Y-104833333D01*
X157583333Y-105166666D01*
X157583333Y-105023809D01*
X157630952Y-104928571D01*
X157678571Y-104880952D01*
X157773809Y-104833333D01*
X158011904Y-104833333D01*
X158107142Y-104880952D01*
X158154761Y-104928571D01*
X158202380Y-105023809D01*
X158202380Y-105309523D01*
X158154761Y-105404761D01*
X158107142Y-105452380D01*
%TO.C,C18*%
X143678571Y-103292380D02*
X143107142Y-103292380D01*
X143392857Y-103292380D02*
X143392857Y-102292380D01*
X143297619Y-102435238D01*
X143202380Y-102530476D01*
X143107142Y-102578095D01*
X144297619Y-102292380D02*
X144392857Y-102292380D01*
X144488095Y-102340000D01*
X144535714Y-102387619D01*
X144583333Y-102482857D01*
X144630952Y-102673333D01*
X144630952Y-102911428D01*
X144583333Y-103101904D01*
X144535714Y-103197142D01*
X144488095Y-103244761D01*
X144392857Y-103292380D01*
X144297619Y-103292380D01*
X144202380Y-103244761D01*
X144154761Y-103197142D01*
X144107142Y-103101904D01*
X144059523Y-102911428D01*
X144059523Y-102673333D01*
X144107142Y-102482857D01*
X144154761Y-102387619D01*
X144202380Y-102340000D01*
X144297619Y-102292380D01*
X145488095Y-102625714D02*
X145488095Y-103292380D01*
X145059523Y-102625714D02*
X145059523Y-103149523D01*
X145107142Y-103244761D01*
X145202380Y-103292380D01*
X145345238Y-103292380D01*
X145440476Y-103244761D01*
X145488095Y-103197142D01*
X146297619Y-102768571D02*
X145964285Y-102768571D01*
X145964285Y-103292380D02*
X145964285Y-102292380D01*
X146440476Y-102292380D01*
D11*
X144589285Y-104089285D02*
X144577380Y-104101190D01*
X144541666Y-104113095D01*
X144517857Y-104113095D01*
X144482142Y-104101190D01*
X144458333Y-104077380D01*
X144446428Y-104053571D01*
X144434523Y-104005952D01*
X144434523Y-103970238D01*
X144446428Y-103922619D01*
X144458333Y-103898809D01*
X144482142Y-103875000D01*
X144517857Y-103863095D01*
X144541666Y-103863095D01*
X144577380Y-103875000D01*
X144589285Y-103886904D01*
X144827380Y-104113095D02*
X144684523Y-104113095D01*
X144755952Y-104113095D02*
X144755952Y-103863095D01*
X144732142Y-103898809D01*
X144708333Y-103922619D01*
X144684523Y-103934523D01*
X144970238Y-103970238D02*
X144946428Y-103958333D01*
X144934523Y-103946428D01*
X144922619Y-103922619D01*
X144922619Y-103910714D01*
X144934523Y-103886904D01*
X144946428Y-103875000D01*
X144970238Y-103863095D01*
X145017857Y-103863095D01*
X145041666Y-103875000D01*
X145053571Y-103886904D01*
X145065476Y-103910714D01*
X145065476Y-103922619D01*
X145053571Y-103946428D01*
X145041666Y-103958333D01*
X145017857Y-103970238D01*
X144970238Y-103970238D01*
X144946428Y-103982142D01*
X144934523Y-103994047D01*
X144922619Y-104017857D01*
X144922619Y-104065476D01*
X144934523Y-104089285D01*
X144946428Y-104101190D01*
X144970238Y-104113095D01*
X145017857Y-104113095D01*
X145041666Y-104101190D01*
X145053571Y-104089285D01*
X145065476Y-104065476D01*
X145065476Y-104017857D01*
X145053571Y-103994047D01*
X145041666Y-103982142D01*
X145017857Y-103970238D01*
D10*
%TO.C,R5*%
X144414761Y-94032380D02*
X143843333Y-94032380D01*
X144129047Y-94032380D02*
X144129047Y-93032380D01*
X144033809Y-93175238D01*
X143938571Y-93270476D01*
X143843333Y-93318095D01*
X145033809Y-93032380D02*
X145129047Y-93032380D01*
X145224285Y-93080000D01*
X145271904Y-93127619D01*
X145319523Y-93222857D01*
X145367142Y-93413333D01*
X145367142Y-93651428D01*
X145319523Y-93841904D01*
X145271904Y-93937142D01*
X145224285Y-93984761D01*
X145129047Y-94032380D01*
X145033809Y-94032380D01*
X144938571Y-93984761D01*
X144890952Y-93937142D01*
X144843333Y-93841904D01*
X144795714Y-93651428D01*
X144795714Y-93413333D01*
X144843333Y-93222857D01*
X144890952Y-93127619D01*
X144938571Y-93080000D01*
X145033809Y-93032380D01*
X145795714Y-94032380D02*
X145795714Y-93032380D01*
X145890952Y-93651428D02*
X146176666Y-94032380D01*
X146176666Y-93365714D02*
X145795714Y-93746666D01*
D11*
X144966666Y-94867619D02*
X144880000Y-94743809D01*
X144818095Y-94867619D02*
X144818095Y-94607619D01*
X144917142Y-94607619D01*
X144941904Y-94620000D01*
X144954285Y-94632380D01*
X144966666Y-94657142D01*
X144966666Y-94694285D01*
X144954285Y-94719047D01*
X144941904Y-94731428D01*
X144917142Y-94743809D01*
X144818095Y-94743809D01*
X145201904Y-94607619D02*
X145078095Y-94607619D01*
X145065714Y-94731428D01*
X145078095Y-94719047D01*
X145102857Y-94706666D01*
X145164761Y-94706666D01*
X145189523Y-94719047D01*
X145201904Y-94731428D01*
X145214285Y-94756190D01*
X145214285Y-94818095D01*
X145201904Y-94842857D01*
X145189523Y-94855238D01*
X145164761Y-94867619D01*
X145102857Y-94867619D01*
X145078095Y-94855238D01*
X145065714Y-94842857D01*
D10*
%TO.C,U1*%
X131071428Y-98562380D02*
X131071428Y-97562380D01*
X131452380Y-97562380D01*
X131547619Y-97610000D01*
X131595238Y-97657619D01*
X131642857Y-97752857D01*
X131642857Y-97895714D01*
X131595238Y-97990952D01*
X131547619Y-98038571D01*
X131452380Y-98086190D01*
X131071428Y-98086190D01*
X132023809Y-98276666D02*
X132500000Y-98276666D01*
X131928571Y-98562380D02*
X132261904Y-97562380D01*
X132595238Y-98562380D01*
X132833333Y-97562380D02*
X133071428Y-98562380D01*
X133261904Y-97848095D01*
X133452380Y-98562380D01*
X133690476Y-97562380D01*
X133976190Y-97562380D02*
X134595238Y-97562380D01*
X134261904Y-97943333D01*
X134404761Y-97943333D01*
X134500000Y-97990952D01*
X134547619Y-98038571D01*
X134595238Y-98133809D01*
X134595238Y-98371904D01*
X134547619Y-98467142D01*
X134500000Y-98514761D01*
X134404761Y-98562380D01*
X134119047Y-98562380D01*
X134023809Y-98514761D01*
X133976190Y-98467142D01*
X134928571Y-97562380D02*
X135547619Y-97562380D01*
X135214285Y-97943333D01*
X135357142Y-97943333D01*
X135452380Y-97990952D01*
X135500000Y-98038571D01*
X135547619Y-98133809D01*
X135547619Y-98371904D01*
X135500000Y-98467142D01*
X135452380Y-98514761D01*
X135357142Y-98562380D01*
X135071428Y-98562380D01*
X134976190Y-98514761D01*
X134928571Y-98467142D01*
X136023809Y-98562380D02*
X136214285Y-98562380D01*
X136309523Y-98514761D01*
X136357142Y-98467142D01*
X136452380Y-98324285D01*
X136500000Y-98133809D01*
X136500000Y-97752857D01*
X136452380Y-97657619D01*
X136404761Y-97610000D01*
X136309523Y-97562380D01*
X136119047Y-97562380D01*
X136023809Y-97610000D01*
X135976190Y-97657619D01*
X135928571Y-97752857D01*
X135928571Y-97990952D01*
X135976190Y-98086190D01*
X136023809Y-98133809D01*
X136119047Y-98181428D01*
X136309523Y-98181428D01*
X136404761Y-98133809D01*
X136452380Y-98086190D01*
X136500000Y-97990952D01*
X136976190Y-98562380D02*
X137166666Y-98562380D01*
X137261904Y-98514761D01*
X137309523Y-98467142D01*
X137404761Y-98324285D01*
X137452380Y-98133809D01*
X137452380Y-97752857D01*
X137404761Y-97657619D01*
X137357142Y-97610000D01*
X137261904Y-97562380D01*
X137071428Y-97562380D01*
X136976190Y-97610000D01*
X136928571Y-97657619D01*
X136880952Y-97752857D01*
X136880952Y-97990952D01*
X136928571Y-98086190D01*
X136976190Y-98133809D01*
X137071428Y-98181428D01*
X137261904Y-98181428D01*
X137357142Y-98133809D01*
X137404761Y-98086190D01*
X137452380Y-97990952D01*
X137880952Y-98562380D02*
X137880952Y-97562380D01*
X138119047Y-97562380D01*
X138261904Y-97610000D01*
X138357142Y-97705238D01*
X138404761Y-97800476D01*
X138452380Y-97990952D01*
X138452380Y-98133809D01*
X138404761Y-98324285D01*
X138357142Y-98419523D01*
X138261904Y-98514761D01*
X138119047Y-98562380D01*
X137880952Y-98562380D01*
X138880952Y-98562380D02*
X138880952Y-97562380D01*
X139214285Y-98276666D01*
X139547619Y-97562380D01*
X139547619Y-98562380D01*
X139928571Y-98229047D02*
X140214285Y-98229047D01*
X140452380Y-97562380D02*
X141023809Y-97562380D01*
X140738095Y-98562380D02*
X140738095Y-97562380D01*
X141785714Y-97895714D02*
X141785714Y-98562380D01*
X141547619Y-97514761D02*
X141309523Y-98229047D01*
X141928571Y-98229047D01*
X142976190Y-98657619D02*
X142880952Y-98610000D01*
X142785714Y-98514761D01*
X142642857Y-98371904D01*
X142547619Y-98324285D01*
X142452380Y-98324285D01*
X142500000Y-98562380D02*
X142404761Y-98514761D01*
X142309523Y-98419523D01*
X142261904Y-98229047D01*
X142261904Y-97895714D01*
X142309523Y-97705238D01*
X142404761Y-97610000D01*
X142500000Y-97562380D01*
X142690476Y-97562380D01*
X142785714Y-97610000D01*
X142880952Y-97705238D01*
X142928571Y-97895714D01*
X142928571Y-98229047D01*
X142880952Y-98419523D01*
X142785714Y-98514761D01*
X142690476Y-98562380D01*
X142500000Y-98562380D01*
X143357142Y-97562380D02*
X143357142Y-98371904D01*
X143404761Y-98467142D01*
X143452380Y-98514761D01*
X143547619Y-98562380D01*
X143738095Y-98562380D01*
X143833333Y-98514761D01*
X143880952Y-98467142D01*
X143928571Y-98371904D01*
X143928571Y-97562380D01*
X136738095Y-106587380D02*
X136738095Y-107396904D01*
X136785714Y-107492142D01*
X136833333Y-107539761D01*
X136928571Y-107587380D01*
X137119047Y-107587380D01*
X137214285Y-107539761D01*
X137261904Y-107492142D01*
X137309523Y-107396904D01*
X137309523Y-106587380D01*
X138309523Y-107587380D02*
X137738095Y-107587380D01*
X138023809Y-107587380D02*
X138023809Y-106587380D01*
X137928571Y-106730238D01*
X137833333Y-106825476D01*
X137738095Y-106873095D01*
D17*
%TO.C,IC1*%
X136260238Y-93574523D02*
X136260238Y-92304523D01*
X137590714Y-93453571D02*
X137530238Y-93514047D01*
X137348809Y-93574523D01*
X137227857Y-93574523D01*
X137046428Y-93514047D01*
X136925476Y-93393095D01*
X136865000Y-93272142D01*
X136804523Y-93030238D01*
X136804523Y-92848809D01*
X136865000Y-92606904D01*
X136925476Y-92485952D01*
X137046428Y-92365000D01*
X137227857Y-92304523D01*
X137348809Y-92304523D01*
X137530238Y-92365000D01*
X137590714Y-92425476D01*
X138800238Y-93574523D02*
X138074523Y-93574523D01*
X138437380Y-93574523D02*
X138437380Y-92304523D01*
X138316428Y-92485952D01*
X138195476Y-92606904D01*
X138074523Y-92667380D01*
D10*
%TO.C,C19*%
X143202380Y-109862380D02*
X142630952Y-109862380D01*
X142916666Y-109862380D02*
X142916666Y-108862380D01*
X142821428Y-109005238D01*
X142726190Y-109100476D01*
X142630952Y-109148095D01*
X143821428Y-108862380D02*
X143916666Y-108862380D01*
X144011904Y-108910000D01*
X144059523Y-108957619D01*
X144107142Y-109052857D01*
X144154761Y-109243333D01*
X144154761Y-109481428D01*
X144107142Y-109671904D01*
X144059523Y-109767142D01*
X144011904Y-109814761D01*
X143916666Y-109862380D01*
X143821428Y-109862380D01*
X143726190Y-109814761D01*
X143678571Y-109767142D01*
X143630952Y-109671904D01*
X143583333Y-109481428D01*
X143583333Y-109243333D01*
X143630952Y-109052857D01*
X143678571Y-108957619D01*
X143726190Y-108910000D01*
X143821428Y-108862380D01*
X144773809Y-108862380D02*
X144869047Y-108862380D01*
X144964285Y-108910000D01*
X145011904Y-108957619D01*
X145059523Y-109052857D01*
X145107142Y-109243333D01*
X145107142Y-109481428D01*
X145059523Y-109671904D01*
X145011904Y-109767142D01*
X144964285Y-109814761D01*
X144869047Y-109862380D01*
X144773809Y-109862380D01*
X144678571Y-109814761D01*
X144630952Y-109767142D01*
X144583333Y-109671904D01*
X144535714Y-109481428D01*
X144535714Y-109243333D01*
X144583333Y-109052857D01*
X144630952Y-108957619D01*
X144678571Y-108910000D01*
X144773809Y-108862380D01*
X145535714Y-109195714D02*
X145535714Y-109862380D01*
X145535714Y-109290952D02*
X145583333Y-109243333D01*
X145678571Y-109195714D01*
X145821428Y-109195714D01*
X145916666Y-109243333D01*
X145964285Y-109338571D01*
X145964285Y-109862380D01*
X146773809Y-109338571D02*
X146440476Y-109338571D01*
X146440476Y-109862380D02*
X146440476Y-108862380D01*
X146916666Y-108862380D01*
D11*
X144589285Y-108339285D02*
X144577380Y-108351190D01*
X144541666Y-108363095D01*
X144517857Y-108363095D01*
X144482142Y-108351190D01*
X144458333Y-108327380D01*
X144446428Y-108303571D01*
X144434523Y-108255952D01*
X144434523Y-108220238D01*
X144446428Y-108172619D01*
X144458333Y-108148809D01*
X144482142Y-108125000D01*
X144517857Y-108113095D01*
X144541666Y-108113095D01*
X144577380Y-108125000D01*
X144589285Y-108136904D01*
X144827380Y-108363095D02*
X144684523Y-108363095D01*
X144755952Y-108363095D02*
X144755952Y-108113095D01*
X144732142Y-108148809D01*
X144708333Y-108172619D01*
X144684523Y-108184523D01*
X144946428Y-108363095D02*
X144994047Y-108363095D01*
X145017857Y-108351190D01*
X145029761Y-108339285D01*
X145053571Y-108303571D01*
X145065476Y-108255952D01*
X145065476Y-108160714D01*
X145053571Y-108136904D01*
X145041666Y-108125000D01*
X145017857Y-108113095D01*
X144970238Y-108113095D01*
X144946428Y-108125000D01*
X144934523Y-108136904D01*
X144922619Y-108160714D01*
X144922619Y-108220238D01*
X144934523Y-108244047D01*
X144946428Y-108255952D01*
X144970238Y-108267857D01*
X145017857Y-108267857D01*
X145041666Y-108255952D01*
X145053571Y-108244047D01*
X145065476Y-108220238D01*
D10*
%TO.C,SW2*%
X152594761Y-80214285D02*
X152642380Y-80071428D01*
X152642380Y-79833333D01*
X152594761Y-79738095D01*
X152547142Y-79690476D01*
X152451904Y-79642857D01*
X152356666Y-79642857D01*
X152261428Y-79690476D01*
X152213809Y-79738095D01*
X152166190Y-79833333D01*
X152118571Y-80023809D01*
X152070952Y-80119047D01*
X152023333Y-80166666D01*
X151928095Y-80214285D01*
X151832857Y-80214285D01*
X151737619Y-80166666D01*
X151690000Y-80119047D01*
X151642380Y-80023809D01*
X151642380Y-79785714D01*
X151690000Y-79642857D01*
X151642380Y-79309523D02*
X152642380Y-79071428D01*
X151928095Y-78880952D01*
X152642380Y-78690476D01*
X151642380Y-78452380D01*
X152737619Y-78309523D02*
X152737619Y-77547619D01*
X152594761Y-77357142D02*
X152642380Y-77214285D01*
X152642380Y-76976190D01*
X152594761Y-76880952D01*
X152547142Y-76833333D01*
X152451904Y-76785714D01*
X152356666Y-76785714D01*
X152261428Y-76833333D01*
X152213809Y-76880952D01*
X152166190Y-76976190D01*
X152118571Y-77166666D01*
X152070952Y-77261904D01*
X152023333Y-77309523D01*
X151928095Y-77357142D01*
X151832857Y-77357142D01*
X151737619Y-77309523D01*
X151690000Y-77261904D01*
X151642380Y-77166666D01*
X151642380Y-76928571D01*
X151690000Y-76785714D01*
X152642380Y-76357142D02*
X151642380Y-76357142D01*
X151642380Y-75976190D01*
X151690000Y-75880952D01*
X151737619Y-75833333D01*
X151832857Y-75785714D01*
X151975714Y-75785714D01*
X152070952Y-75833333D01*
X152118571Y-75880952D01*
X152166190Y-75976190D01*
X152166190Y-76357142D01*
X154499761Y-79333333D02*
X154547380Y-79190476D01*
X154547380Y-78952380D01*
X154499761Y-78857142D01*
X154452142Y-78809523D01*
X154356904Y-78761904D01*
X154261666Y-78761904D01*
X154166428Y-78809523D01*
X154118809Y-78857142D01*
X154071190Y-78952380D01*
X154023571Y-79142857D01*
X153975952Y-79238095D01*
X153928333Y-79285714D01*
X153833095Y-79333333D01*
X153737857Y-79333333D01*
X153642619Y-79285714D01*
X153595000Y-79238095D01*
X153547380Y-79142857D01*
X153547380Y-78904761D01*
X153595000Y-78761904D01*
X153547380Y-78428571D02*
X154547380Y-78190476D01*
X153833095Y-78000000D01*
X154547380Y-77809523D01*
X153547380Y-77571428D01*
X153642619Y-77238095D02*
X153595000Y-77190476D01*
X153547380Y-77095238D01*
X153547380Y-76857142D01*
X153595000Y-76761904D01*
X153642619Y-76714285D01*
X153737857Y-76666666D01*
X153833095Y-76666666D01*
X153975952Y-76714285D01*
X154547380Y-77285714D01*
X154547380Y-76666666D01*
%TO.C,F1*%
X141622380Y-65559523D02*
X141622380Y-66035714D01*
X142098571Y-66083333D01*
X142050952Y-66035714D01*
X142003333Y-65940476D01*
X142003333Y-65702380D01*
X142050952Y-65607142D01*
X142098571Y-65559523D01*
X142193809Y-65511904D01*
X142431904Y-65511904D01*
X142527142Y-65559523D01*
X142574761Y-65607142D01*
X142622380Y-65702380D01*
X142622380Y-65940476D01*
X142574761Y-66035714D01*
X142527142Y-66083333D01*
X141622380Y-64892857D02*
X141622380Y-64797619D01*
X141670000Y-64702380D01*
X141717619Y-64654761D01*
X141812857Y-64607142D01*
X142003333Y-64559523D01*
X142241428Y-64559523D01*
X142431904Y-64607142D01*
X142527142Y-64654761D01*
X142574761Y-64702380D01*
X142622380Y-64797619D01*
X142622380Y-64892857D01*
X142574761Y-64988095D01*
X142527142Y-65035714D01*
X142431904Y-65083333D01*
X142241428Y-65130952D01*
X142003333Y-65130952D01*
X141812857Y-65083333D01*
X141717619Y-65035714D01*
X141670000Y-64988095D01*
X141622380Y-64892857D01*
X141622380Y-63940476D02*
X141622380Y-63845238D01*
X141670000Y-63750000D01*
X141717619Y-63702380D01*
X141812857Y-63654761D01*
X142003333Y-63607142D01*
X142241428Y-63607142D01*
X142431904Y-63654761D01*
X142527142Y-63702380D01*
X142574761Y-63750000D01*
X142622380Y-63845238D01*
X142622380Y-63940476D01*
X142574761Y-64035714D01*
X142527142Y-64083333D01*
X142431904Y-64130952D01*
X142241428Y-64178571D01*
X142003333Y-64178571D01*
X141812857Y-64130952D01*
X141717619Y-64083333D01*
X141670000Y-64035714D01*
X141622380Y-63940476D01*
X142622380Y-63178571D02*
X141955714Y-63178571D01*
X142050952Y-63178571D02*
X142003333Y-63130952D01*
X141955714Y-63035714D01*
X141955714Y-62892857D01*
X142003333Y-62797619D01*
X142098571Y-62750000D01*
X142622380Y-62750000D01*
X142098571Y-62750000D02*
X142003333Y-62702380D01*
X141955714Y-62607142D01*
X141955714Y-62464285D01*
X142003333Y-62369047D01*
X142098571Y-62321428D01*
X142622380Y-62321428D01*
X142336666Y-61892857D02*
X142336666Y-61416666D01*
X142622380Y-61988095D02*
X141622380Y-61654761D01*
X142622380Y-61321428D01*
D11*
X140982142Y-63833333D02*
X140982142Y-63916666D01*
X141113095Y-63916666D02*
X140863095Y-63916666D01*
X140863095Y-63797619D01*
X141113095Y-63571428D02*
X141113095Y-63714285D01*
X141113095Y-63642857D02*
X140863095Y-63642857D01*
X140898809Y-63666666D01*
X140922619Y-63690476D01*
X140934523Y-63714285D01*
D10*
%TO.C,R13*%
X146304761Y-69822380D02*
X145733333Y-69822380D01*
X146019047Y-69822380D02*
X146019047Y-68822380D01*
X145923809Y-68965238D01*
X145828571Y-69060476D01*
X145733333Y-69108095D01*
X146923809Y-68822380D02*
X147019047Y-68822380D01*
X147114285Y-68870000D01*
X147161904Y-68917619D01*
X147209523Y-69012857D01*
X147257142Y-69203333D01*
X147257142Y-69441428D01*
X147209523Y-69631904D01*
X147161904Y-69727142D01*
X147114285Y-69774761D01*
X147019047Y-69822380D01*
X146923809Y-69822380D01*
X146828571Y-69774761D01*
X146780952Y-69727142D01*
X146733333Y-69631904D01*
X146685714Y-69441428D01*
X146685714Y-69203333D01*
X146733333Y-69012857D01*
X146780952Y-68917619D01*
X146828571Y-68870000D01*
X146923809Y-68822380D01*
X147685714Y-69822380D02*
X147685714Y-68822380D01*
X147780952Y-69441428D02*
X148066666Y-69822380D01*
X148066666Y-69155714D02*
X147685714Y-69536666D01*
D11*
X146732857Y-68317619D02*
X146646190Y-68193809D01*
X146584285Y-68317619D02*
X146584285Y-68057619D01*
X146683333Y-68057619D01*
X146708095Y-68070000D01*
X146720476Y-68082380D01*
X146732857Y-68107142D01*
X146732857Y-68144285D01*
X146720476Y-68169047D01*
X146708095Y-68181428D01*
X146683333Y-68193809D01*
X146584285Y-68193809D01*
X146980476Y-68317619D02*
X146831904Y-68317619D01*
X146906190Y-68317619D02*
X146906190Y-68057619D01*
X146881428Y-68094761D01*
X146856666Y-68119523D01*
X146831904Y-68131904D01*
X147067142Y-68057619D02*
X147228095Y-68057619D01*
X147141428Y-68156666D01*
X147178571Y-68156666D01*
X147203333Y-68169047D01*
X147215714Y-68181428D01*
X147228095Y-68206190D01*
X147228095Y-68268095D01*
X147215714Y-68292857D01*
X147203333Y-68305238D01*
X147178571Y-68317619D01*
X147104285Y-68317619D01*
X147079523Y-68305238D01*
X147067142Y-68292857D01*
D10*
%TO.C,C21*%
X143222380Y-108862380D02*
X142650952Y-108862380D01*
X142936666Y-108862380D02*
X142936666Y-107862380D01*
X142841428Y-108005238D01*
X142746190Y-108100476D01*
X142650952Y-108148095D01*
X143841428Y-107862380D02*
X143936666Y-107862380D01*
X144031904Y-107910000D01*
X144079523Y-107957619D01*
X144127142Y-108052857D01*
X144174761Y-108243333D01*
X144174761Y-108481428D01*
X144127142Y-108671904D01*
X144079523Y-108767142D01*
X144031904Y-108814761D01*
X143936666Y-108862380D01*
X143841428Y-108862380D01*
X143746190Y-108814761D01*
X143698571Y-108767142D01*
X143650952Y-108671904D01*
X143603333Y-108481428D01*
X143603333Y-108243333D01*
X143650952Y-108052857D01*
X143698571Y-107957619D01*
X143746190Y-107910000D01*
X143841428Y-107862380D01*
X144793809Y-107862380D02*
X144889047Y-107862380D01*
X144984285Y-107910000D01*
X145031904Y-107957619D01*
X145079523Y-108052857D01*
X145127142Y-108243333D01*
X145127142Y-108481428D01*
X145079523Y-108671904D01*
X145031904Y-108767142D01*
X144984285Y-108814761D01*
X144889047Y-108862380D01*
X144793809Y-108862380D01*
X144698571Y-108814761D01*
X144650952Y-108767142D01*
X144603333Y-108671904D01*
X144555714Y-108481428D01*
X144555714Y-108243333D01*
X144603333Y-108052857D01*
X144650952Y-107957619D01*
X144698571Y-107910000D01*
X144793809Y-107862380D01*
X145555714Y-108195714D02*
X145555714Y-108862380D01*
X145555714Y-108290952D02*
X145603333Y-108243333D01*
X145698571Y-108195714D01*
X145841428Y-108195714D01*
X145936666Y-108243333D01*
X145984285Y-108338571D01*
X145984285Y-108862380D01*
X146793809Y-108338571D02*
X146460476Y-108338571D01*
X146460476Y-108862380D02*
X146460476Y-107862380D01*
X146936666Y-107862380D01*
D11*
X144609285Y-107339285D02*
X144597380Y-107351190D01*
X144561666Y-107363095D01*
X144537857Y-107363095D01*
X144502142Y-107351190D01*
X144478333Y-107327380D01*
X144466428Y-107303571D01*
X144454523Y-107255952D01*
X144454523Y-107220238D01*
X144466428Y-107172619D01*
X144478333Y-107148809D01*
X144502142Y-107125000D01*
X144537857Y-107113095D01*
X144561666Y-107113095D01*
X144597380Y-107125000D01*
X144609285Y-107136904D01*
X144704523Y-107136904D02*
X144716428Y-107125000D01*
X144740238Y-107113095D01*
X144799761Y-107113095D01*
X144823571Y-107125000D01*
X144835476Y-107136904D01*
X144847380Y-107160714D01*
X144847380Y-107184523D01*
X144835476Y-107220238D01*
X144692619Y-107363095D01*
X144847380Y-107363095D01*
X145085476Y-107363095D02*
X144942619Y-107363095D01*
X145014047Y-107363095D02*
X145014047Y-107113095D01*
X144990238Y-107148809D01*
X144966428Y-107172619D01*
X144942619Y-107184523D01*
D10*
%TO.C,SW1*%
X115594761Y-80214285D02*
X115642380Y-80071428D01*
X115642380Y-79833333D01*
X115594761Y-79738095D01*
X115547142Y-79690476D01*
X115451904Y-79642857D01*
X115356666Y-79642857D01*
X115261428Y-79690476D01*
X115213809Y-79738095D01*
X115166190Y-79833333D01*
X115118571Y-80023809D01*
X115070952Y-80119047D01*
X115023333Y-80166666D01*
X114928095Y-80214285D01*
X114832857Y-80214285D01*
X114737619Y-80166666D01*
X114690000Y-80119047D01*
X114642380Y-80023809D01*
X114642380Y-79785714D01*
X114690000Y-79642857D01*
X114642380Y-79309523D02*
X115642380Y-79071428D01*
X114928095Y-78880952D01*
X115642380Y-78690476D01*
X114642380Y-78452380D01*
X115737619Y-78309523D02*
X115737619Y-77547619D01*
X115594761Y-77357142D02*
X115642380Y-77214285D01*
X115642380Y-76976190D01*
X115594761Y-76880952D01*
X115547142Y-76833333D01*
X115451904Y-76785714D01*
X115356666Y-76785714D01*
X115261428Y-76833333D01*
X115213809Y-76880952D01*
X115166190Y-76976190D01*
X115118571Y-77166666D01*
X115070952Y-77261904D01*
X115023333Y-77309523D01*
X114928095Y-77357142D01*
X114832857Y-77357142D01*
X114737619Y-77309523D01*
X114690000Y-77261904D01*
X114642380Y-77166666D01*
X114642380Y-76928571D01*
X114690000Y-76785714D01*
X115642380Y-76357142D02*
X114642380Y-76357142D01*
X114642380Y-75976190D01*
X114690000Y-75880952D01*
X114737619Y-75833333D01*
X114832857Y-75785714D01*
X114975714Y-75785714D01*
X115070952Y-75833333D01*
X115118571Y-75880952D01*
X115166190Y-75976190D01*
X115166190Y-76357142D01*
X117499761Y-79333333D02*
X117547380Y-79190476D01*
X117547380Y-78952380D01*
X117499761Y-78857142D01*
X117452142Y-78809523D01*
X117356904Y-78761904D01*
X117261666Y-78761904D01*
X117166428Y-78809523D01*
X117118809Y-78857142D01*
X117071190Y-78952380D01*
X117023571Y-79142857D01*
X116975952Y-79238095D01*
X116928333Y-79285714D01*
X116833095Y-79333333D01*
X116737857Y-79333333D01*
X116642619Y-79285714D01*
X116595000Y-79238095D01*
X116547380Y-79142857D01*
X116547380Y-78904761D01*
X116595000Y-78761904D01*
X116547380Y-78428571D02*
X117547380Y-78190476D01*
X116833095Y-78000000D01*
X117547380Y-77809523D01*
X116547380Y-77571428D01*
X117547380Y-76666666D02*
X117547380Y-77238095D01*
X117547380Y-76952380D02*
X116547380Y-76952380D01*
X116690238Y-77047619D01*
X116785476Y-77142857D01*
X116833095Y-77238095D01*
%TO.C,R3*%
X135122380Y-65630952D02*
X135122380Y-66107142D01*
X135598571Y-66154761D01*
X135550952Y-66107142D01*
X135503333Y-66011904D01*
X135503333Y-65773809D01*
X135550952Y-65678571D01*
X135598571Y-65630952D01*
X135693809Y-65583333D01*
X135931904Y-65583333D01*
X136027142Y-65630952D01*
X136074761Y-65678571D01*
X136122380Y-65773809D01*
X136122380Y-66011904D01*
X136074761Y-66107142D01*
X136027142Y-66154761D01*
X136027142Y-65154761D02*
X136074761Y-65107142D01*
X136122380Y-65154761D01*
X136074761Y-65202380D01*
X136027142Y-65154761D01*
X136122380Y-65154761D01*
X136122380Y-64154761D02*
X136122380Y-64726190D01*
X136122380Y-64440476D02*
X135122380Y-64440476D01*
X135265238Y-64535714D01*
X135360476Y-64630952D01*
X135408095Y-64726190D01*
X136122380Y-63726190D02*
X135122380Y-63726190D01*
X135741428Y-63630952D02*
X136122380Y-63345238D01*
X135455714Y-63345238D02*
X135836666Y-63726190D01*
D11*
X134617619Y-64793333D02*
X134493809Y-64880000D01*
X134617619Y-64941904D02*
X134357619Y-64941904D01*
X134357619Y-64842857D01*
X134370000Y-64818095D01*
X134382380Y-64805714D01*
X134407142Y-64793333D01*
X134444285Y-64793333D01*
X134469047Y-64805714D01*
X134481428Y-64818095D01*
X134493809Y-64842857D01*
X134493809Y-64941904D01*
X134357619Y-64706666D02*
X134357619Y-64545714D01*
X134456666Y-64632380D01*
X134456666Y-64595238D01*
X134469047Y-64570476D01*
X134481428Y-64558095D01*
X134506190Y-64545714D01*
X134568095Y-64545714D01*
X134592857Y-64558095D01*
X134605238Y-64570476D01*
X134617619Y-64595238D01*
X134617619Y-64669523D01*
X134605238Y-64694285D01*
X134592857Y-64706666D01*
D18*
%TO.C,R6*%
X145525000Y-95480000D02*
X145525000Y-96020000D01*
X145525000Y-96020000D02*
X144475000Y-96020000D01*
X144475000Y-95480000D02*
X145525000Y-95480000D01*
X144475000Y-96020000D02*
X144475000Y-95480000D01*
%TO.C,FB1*%
X141000000Y-65500000D02*
X140000000Y-65500000D01*
X140000000Y-65500000D02*
X140000000Y-65000000D01*
X140000000Y-65000000D02*
X141000000Y-65000000D01*
X141000000Y-65000000D02*
X141000000Y-65500000D01*
%TO.C,C24*%
X142770000Y-93750000D02*
X142770000Y-93250000D01*
X143770000Y-93250000D02*
X143770000Y-93750000D01*
X142770000Y-93250000D02*
X143770000Y-93250000D01*
X143770000Y-93750000D02*
X142770000Y-93750000D01*
%TO.C,C11*%
X131500000Y-91250000D02*
X132500000Y-91250000D01*
X131500000Y-91750000D02*
X131500000Y-91250000D01*
X132500000Y-91250000D02*
X132500000Y-91750000D01*
X132500000Y-91750000D02*
X131500000Y-91750000D01*
%TO.C,C13*%
X131500000Y-89750000D02*
X131500000Y-89250000D01*
X131500000Y-89250000D02*
X132500000Y-89250000D01*
X132500000Y-89750000D02*
X131500000Y-89750000D01*
X132500000Y-89250000D02*
X132500000Y-89750000D01*
%TO.C,C10*%
X149500000Y-67350000D02*
X148500000Y-67350000D01*
X149500000Y-66850000D02*
X149500000Y-67350000D01*
X148500000Y-66850000D02*
X149500000Y-66850000D01*
X148500000Y-67350000D02*
X148500000Y-66850000D01*
%TO.C,C8*%
X140250000Y-67230000D02*
X139750000Y-67230000D01*
X139750000Y-67230000D02*
X139750000Y-66230000D01*
X139750000Y-66230000D02*
X140250000Y-66230000D01*
X140250000Y-66230000D02*
X140250000Y-67230000D01*
D19*
%TO.C,ENC1*%
X124800000Y-73100000D02*
X129950000Y-73100000D01*
X124800000Y-82900000D02*
X124800000Y-73100000D01*
X129950000Y-82900000D02*
X124800000Y-82900000D01*
X129950000Y-73100000D02*
X129950000Y-82900000D01*
D18*
%TO.C,C14*%
X135770000Y-87750000D02*
X136770000Y-87750000D01*
X136770000Y-87750000D02*
X136770000Y-88250000D01*
X136770000Y-88250000D02*
X135770000Y-88250000D01*
X135770000Y-88250000D02*
X135770000Y-87750000D01*
%TO.C,C20*%
X145250000Y-109000000D02*
X145250000Y-109500000D01*
X145250000Y-109500000D02*
X144250000Y-109500000D01*
X144250000Y-109500000D02*
X144250000Y-109000000D01*
X144250000Y-109000000D02*
X145250000Y-109000000D01*
%TO.C,D3*%
X143505000Y-94500000D02*
X143505000Y-95000000D01*
X142505000Y-95000000D02*
X142505000Y-94500000D01*
X142505000Y-94500000D02*
X143505000Y-94500000D01*
X143505000Y-95000000D02*
X142505000Y-95000000D01*
X142705000Y-95000000D02*
X142705000Y-94500000D01*
X142605000Y-95000000D02*
X142605000Y-94500000D01*
%TO.C,J1*%
X142290000Y-54400000D02*
X142290000Y-61930000D01*
X132710000Y-61930000D02*
X132710000Y-54400000D01*
X132700000Y-54400000D02*
X129100000Y-54400000D01*
X132710000Y-54400000D02*
X142290000Y-54400000D01*
X142290000Y-61930000D02*
X132710000Y-61930000D01*
%TO.C,L1*%
X132087500Y-86200000D02*
X132912500Y-86200000D01*
X132912500Y-87800000D02*
X132087500Y-87800000D01*
X132087500Y-87800000D02*
X132087500Y-86200000D01*
X132912500Y-86200000D02*
X132912500Y-87800000D01*
%TO.C,D4*%
X143500000Y-96000000D02*
X142500000Y-96000000D01*
X142600000Y-96000000D02*
X142600000Y-95500000D01*
X142500000Y-95500000D02*
X143500000Y-95500000D01*
X143500000Y-95500000D02*
X143500000Y-96000000D01*
X142500000Y-96000000D02*
X142500000Y-95500000D01*
X142700000Y-96000000D02*
X142700000Y-95500000D01*
%TO.C,C2*%
X148000000Y-105000000D02*
X149000000Y-105000000D01*
X149000000Y-105500000D02*
X148000000Y-105500000D01*
X149000000Y-105000000D02*
X149000000Y-105500000D01*
X148000000Y-105500000D02*
X148000000Y-105000000D01*
%TO.C,U3*%
X147150000Y-106350000D02*
X147150000Y-107650000D01*
X148500000Y-106350000D02*
X147150000Y-106350000D01*
X148850000Y-107650000D02*
X148850000Y-106700000D01*
X148500000Y-106350000D02*
X148850000Y-106700000D01*
X147150000Y-107650000D02*
X148850000Y-107650000D01*
%TO.C,C4*%
X135480000Y-97750000D02*
X136480000Y-97750000D01*
X136480000Y-98250000D02*
X135480000Y-98250000D01*
X135480000Y-98250000D02*
X135480000Y-97750000D01*
X136480000Y-97750000D02*
X136480000Y-98250000D01*
%TO.C,C15*%
X145000000Y-88500000D02*
X145000000Y-87500000D01*
X145500000Y-88500000D02*
X145000000Y-88500000D01*
X145500000Y-87500000D02*
X145500000Y-88500000D01*
X145000000Y-87500000D02*
X145500000Y-87500000D01*
%TO.C,R4*%
X122775000Y-87520000D02*
X121725000Y-87520000D01*
X122775000Y-86980000D02*
X122775000Y-87520000D01*
X121725000Y-86980000D02*
X122775000Y-86980000D01*
X121725000Y-87520000D02*
X121725000Y-86980000D01*
%TO.C,Y1*%
X142500000Y-88450000D02*
X142500000Y-86650000D01*
X144000000Y-88550000D02*
X142600000Y-88550000D01*
X142600000Y-86550000D02*
X144000000Y-86550000D01*
X142500000Y-86650000D02*
X142600000Y-86550000D01*
X144100000Y-88450000D02*
X144000000Y-88550000D01*
X143600000Y-88550000D02*
X144100000Y-88050000D01*
X144000000Y-86550000D02*
X144100000Y-86650000D01*
X142600000Y-88550000D02*
X142500000Y-88450000D01*
X144100000Y-86650000D02*
X144100000Y-88450000D01*
%TO.C,C1*%
X133250000Y-65250000D02*
X133250000Y-64250000D01*
X133750000Y-64250000D02*
X133750000Y-65250000D01*
X133750000Y-65250000D02*
X133250000Y-65250000D01*
X133250000Y-64250000D02*
X133750000Y-64250000D01*
D20*
%TO.C,U2*%
X143075000Y-68012500D02*
X144325000Y-68012500D01*
X144325000Y-68012500D02*
X144325000Y-65987500D01*
X143075000Y-65987500D02*
X143075000Y-68012500D01*
X144325000Y-65987500D02*
X143075000Y-65987500D01*
D21*
X141700000Y-66100000D02*
G75*
G03*
X141700000Y-66100000I-100000J0D01*
G01*
D18*
%TO.C,C23*%
X143520000Y-85250000D02*
X143520000Y-85750000D01*
X143520000Y-85750000D02*
X142520000Y-85750000D01*
X142520000Y-85750000D02*
X142520000Y-85250000D01*
X142520000Y-85250000D02*
X143520000Y-85250000D01*
%TO.C,C6*%
X143480000Y-90250000D02*
X143480000Y-90750000D01*
X142480000Y-90250000D02*
X143480000Y-90250000D01*
X142480000Y-90750000D02*
X142480000Y-90250000D01*
X143480000Y-90750000D02*
X142480000Y-90750000D01*
%TO.C,D5*%
X129500000Y-111500000D02*
X128500000Y-111500000D01*
X128500000Y-111000000D02*
X129500000Y-111000000D01*
X129300000Y-111000000D02*
X129300000Y-111500000D01*
X129400000Y-111000000D02*
X129400000Y-111500000D01*
X129500000Y-111000000D02*
X129500000Y-111500000D01*
X128500000Y-111500000D02*
X128500000Y-111000000D01*
%TO.C,C12*%
X132500000Y-90750000D02*
X131500000Y-90750000D01*
X131500000Y-90250000D02*
X132500000Y-90250000D01*
X131500000Y-90750000D02*
X131500000Y-90250000D01*
X132500000Y-90250000D02*
X132500000Y-90750000D01*
%TO.C,SW4*%
X152350000Y-100400000D02*
X153150000Y-100400000D01*
X150650000Y-103100000D02*
X154850000Y-103100000D01*
X150650000Y-99900000D02*
X150650000Y-103100000D01*
X154850000Y-103100000D02*
X154850000Y-99900000D01*
X153150000Y-102600000D02*
X152350000Y-102600000D01*
X154850000Y-99900000D02*
X150650000Y-99900000D01*
X153150000Y-102600000D02*
G75*
G03*
X153150000Y-100400000I0J1100000D01*
G01*
X152350000Y-100400000D02*
G75*
G03*
X152350000Y-102600000I0J-1100000D01*
G01*
%TO.C,C22*%
X145250000Y-106500000D02*
X144250000Y-106500000D01*
X145250000Y-106000000D02*
X145250000Y-106500000D01*
X144250000Y-106000000D02*
X145250000Y-106000000D01*
X144250000Y-106500000D02*
X144250000Y-106000000D01*
%TO.C,D2*%
X119750000Y-87500000D02*
X119750000Y-87000000D01*
X119750000Y-87000000D02*
X120750000Y-87000000D01*
X120750000Y-87500000D02*
X119750000Y-87500000D01*
X120750000Y-87000000D02*
X120750000Y-87500000D01*
X119850000Y-87500000D02*
X119850000Y-87000000D01*
X119950000Y-87500000D02*
X119950000Y-87000000D01*
%TO.C,D7*%
X158750000Y-97500000D02*
X159250000Y-97500000D01*
X158750000Y-97600000D02*
X159250000Y-97600000D01*
X159250000Y-97500000D02*
X159250000Y-98500000D01*
X159250000Y-98500000D02*
X158750000Y-98500000D01*
X158750000Y-97700000D02*
X159250000Y-97700000D01*
X158750000Y-98500000D02*
X158750000Y-97500000D01*
D19*
%TO.C,SW3*%
X151900000Y-86400000D02*
X146100000Y-86400000D01*
X146100000Y-73600000D02*
X151900000Y-73600000D01*
X146100000Y-86400000D02*
X146100000Y-73600000D01*
X151900000Y-73600000D02*
X151900000Y-86400000D01*
D18*
%TO.C,C9*%
X139000000Y-87750000D02*
X140000000Y-87750000D01*
X139000000Y-88250000D02*
X139000000Y-87750000D01*
X140000000Y-88250000D02*
X139000000Y-88250000D01*
X140000000Y-87750000D02*
X140000000Y-88250000D01*
%TO.C,R1*%
X132230000Y-65275000D02*
X132230000Y-64225000D01*
X132230000Y-64225000D02*
X132770000Y-64225000D01*
X132770000Y-65275000D02*
X132230000Y-65275000D01*
X132770000Y-64225000D02*
X132770000Y-65275000D01*
%TO.C,C3*%
X134500000Y-97750000D02*
X134500000Y-98250000D01*
X133500000Y-97750000D02*
X134500000Y-97750000D01*
X134500000Y-98250000D02*
X133500000Y-98250000D01*
X133500000Y-98250000D02*
X133500000Y-97750000D01*
%TO.C,R7*%
X126465000Y-111520000D02*
X126465000Y-110980000D01*
X127515000Y-110980000D02*
X127515000Y-111520000D01*
X127515000Y-111520000D02*
X126465000Y-111520000D01*
X126465000Y-110980000D02*
X127515000Y-110980000D01*
%TO.C,R2*%
X140270000Y-63225000D02*
X140270000Y-64275000D01*
X140270000Y-64275000D02*
X139730000Y-64275000D01*
X139730000Y-63225000D02*
X140270000Y-63225000D01*
X139730000Y-64275000D02*
X139730000Y-63225000D01*
%TO.C,D6*%
X149500000Y-68450000D02*
X148500000Y-68450000D01*
X149300000Y-67950000D02*
X149300000Y-68450000D01*
X148500000Y-68450000D02*
X148500000Y-67950000D01*
X149400000Y-67950000D02*
X149400000Y-68450000D01*
X148500000Y-67950000D02*
X149500000Y-67950000D01*
X149500000Y-67950000D02*
X149500000Y-68450000D01*
%TO.C,C17*%
X144250000Y-103250000D02*
X144250000Y-102750000D01*
X145250000Y-103250000D02*
X144250000Y-103250000D01*
X144250000Y-102750000D02*
X145250000Y-102750000D01*
X145250000Y-102750000D02*
X145250000Y-103250000D01*
%TO.C,C7*%
X148250000Y-108500000D02*
X148250000Y-109000000D01*
X148250000Y-109000000D02*
X147250000Y-109000000D01*
X147250000Y-109000000D02*
X147250000Y-108500000D01*
X147250000Y-108500000D02*
X148250000Y-108500000D01*
%TO.C,C5*%
X138480000Y-98250000D02*
X137480000Y-98250000D01*
X137480000Y-97750000D02*
X138480000Y-97750000D01*
X138480000Y-97750000D02*
X138480000Y-98250000D01*
X137480000Y-98250000D02*
X137480000Y-97750000D01*
%TO.C,C16*%
X143750000Y-92250000D02*
X143750000Y-92750000D01*
X142750000Y-92250000D02*
X143750000Y-92250000D01*
X143750000Y-92750000D02*
X142750000Y-92750000D01*
X142750000Y-92750000D02*
X142750000Y-92250000D01*
%TO.C,R8*%
X130275000Y-105770000D02*
X129225000Y-105770000D01*
X130275000Y-105230000D02*
X130275000Y-105770000D01*
X129225000Y-105230000D02*
X130275000Y-105230000D01*
X129225000Y-105770000D02*
X129225000Y-105230000D01*
%TO.C,J2*%
X127042893Y-98250000D02*
X127750000Y-97750000D01*
X124850000Y-99750000D02*
X124850000Y-92750000D01*
X125800000Y-98400000D02*
X125800000Y-98100000D01*
X125200000Y-94100000D02*
X125200000Y-94400000D01*
X125800000Y-95400000D02*
X125800000Y-95100000D01*
X127750000Y-99750000D02*
X127750000Y-92750000D01*
X125200000Y-97100000D02*
X125200000Y-97400000D01*
X125800000Y-96400000D02*
X125800000Y-96100000D01*
X125200000Y-98100000D02*
X125200000Y-98400000D01*
X125200000Y-97400000D02*
X125800000Y-97400000D01*
X125200000Y-95100000D02*
X125200000Y-95400000D01*
X125800000Y-97100000D02*
X125200000Y-97100000D01*
X125800000Y-95100000D02*
X125200000Y-95100000D01*
X125800000Y-94400000D02*
X125800000Y-94100000D01*
X125200000Y-98400000D02*
X125800000Y-98400000D01*
X125200000Y-94400000D02*
X125800000Y-94400000D01*
X125200000Y-96400000D02*
X125800000Y-96400000D01*
X127750000Y-92750000D02*
X124850000Y-92750000D01*
X125200000Y-95400000D02*
X125800000Y-95400000D01*
X125200000Y-96100000D02*
X125200000Y-96400000D01*
X125800000Y-98100000D02*
X125200000Y-98100000D01*
X127750000Y-98750000D02*
X127042893Y-98250000D01*
X125800000Y-96100000D02*
X125200000Y-96100000D01*
X127750000Y-99750000D02*
X124850000Y-99750000D01*
X125800000Y-97400000D02*
X125800000Y-97100000D01*
X125800000Y-94100000D02*
X125200000Y-94100000D01*
%TO.C,J4*%
X153490000Y-110750000D02*
X153490000Y-111795000D01*
X149280000Y-115205000D02*
X149280000Y-116250000D01*
X147575000Y-111795000D02*
X153925000Y-111795000D01*
X148010000Y-115205000D02*
X147575000Y-114770000D01*
X153090000Y-110750000D02*
X153490000Y-110750000D01*
X148410000Y-116250000D02*
X148410000Y-115205000D01*
X151820000Y-116250000D02*
X152220000Y-116250000D01*
X150950000Y-110750000D02*
X150950000Y-111795000D01*
X150550000Y-115205000D02*
X150550000Y-116250000D01*
X150950000Y-116250000D02*
X150950000Y-115205000D01*
X152220000Y-110750000D02*
X152220000Y-111795000D01*
X150550000Y-110750000D02*
X150950000Y-110750000D01*
X148010000Y-110750000D02*
X148410000Y-110750000D01*
X153925000Y-111795000D02*
X153925000Y-115205000D01*
X151820000Y-115205000D02*
X151820000Y-116250000D01*
X148010000Y-116250000D02*
X148410000Y-116250000D01*
X151820000Y-111795000D02*
X151820000Y-110750000D01*
X150550000Y-111795000D02*
X150550000Y-110750000D01*
X153090000Y-116250000D02*
X153490000Y-116250000D01*
X148010000Y-115205000D02*
X148010000Y-116250000D01*
X150550000Y-116250000D02*
X150950000Y-116250000D01*
X148410000Y-110750000D02*
X148410000Y-111795000D01*
X153090000Y-111795000D02*
X153090000Y-110750000D01*
X153490000Y-116250000D02*
X153490000Y-115205000D01*
X153090000Y-115205000D02*
X153090000Y-116250000D01*
X152220000Y-116250000D02*
X152220000Y-115205000D01*
X149680000Y-116250000D02*
X149680000Y-115205000D01*
X147575000Y-114770000D02*
X147575000Y-111795000D01*
X148010000Y-111795000D02*
X148010000Y-110750000D01*
X149280000Y-116250000D02*
X149680000Y-116250000D01*
X151820000Y-110750000D02*
X152220000Y-110750000D01*
X153925000Y-115205000D02*
X148010000Y-115205000D01*
X149280000Y-110750000D02*
X149680000Y-110750000D01*
X149680000Y-110750000D02*
X149680000Y-111795000D01*
X149280000Y-111795000D02*
X149280000Y-110750000D01*
%TO.C,J3*%
X158750000Y-111500000D02*
X156750000Y-111500000D01*
X157250000Y-99500000D02*
X158750000Y-99500000D01*
X158750000Y-99500000D02*
X158750000Y-111500000D01*
X156750000Y-100000000D02*
X157250000Y-99500000D01*
X156750000Y-111500000D02*
X156750000Y-100000000D01*
%TO.C,C18*%
X145250000Y-104250000D02*
X144250000Y-104250000D01*
X144250000Y-104250000D02*
X144250000Y-103750000D01*
X145250000Y-103750000D02*
X145250000Y-104250000D01*
X144250000Y-103750000D02*
X145250000Y-103750000D01*
%TO.C,R5*%
X144485000Y-94480000D02*
X145535000Y-94480000D01*
X145535000Y-95020000D02*
X144485000Y-95020000D01*
X144485000Y-95020000D02*
X144485000Y-94480000D01*
X145535000Y-94480000D02*
X145535000Y-95020000D01*
%TO.C,D1*%
X138198843Y-66191300D02*
X138744943Y-66191300D01*
X136801843Y-65708700D02*
X136255743Y-65708700D01*
X136255743Y-66191300D02*
X136801843Y-66191300D01*
X136801843Y-63808700D02*
X136255743Y-63808700D01*
X138198843Y-64291300D02*
X138744943Y-64291300D01*
X136255743Y-65708700D02*
X136255743Y-66191300D01*
X138198843Y-66498600D02*
X136801843Y-66498600D01*
X136255743Y-64291300D02*
X136801843Y-64291300D01*
X138198843Y-65302300D02*
X138198843Y-66191300D01*
X138744943Y-65302300D02*
X138198843Y-65302300D01*
X136801843Y-63501400D02*
X138198843Y-63501400D01*
X136255743Y-63808700D02*
X136255743Y-64291300D01*
X138198843Y-63808700D02*
X138198843Y-64291300D01*
X136801843Y-64291300D02*
X136801843Y-63808700D01*
X138744943Y-63808700D02*
X138198843Y-63808700D01*
X138744943Y-64291300D02*
X138744943Y-63808700D01*
X138744943Y-66191300D02*
X138744943Y-65302300D01*
X136801843Y-66498600D02*
X136801843Y-63501400D01*
X136801843Y-66191300D02*
X136801843Y-65708700D01*
X138198843Y-63501400D02*
X138198843Y-66498600D01*
X138071843Y-66244600D02*
G75*
G03*
X138071843Y-66244600I-127000J0D01*
G01*
D19*
%TO.C,U1*%
X142050000Y-99035000D02*
X142050000Y-115235000D01*
X142050000Y-115235000D02*
X132950000Y-115235000D01*
X142050000Y-99035000D02*
X132950000Y-99035000D01*
X132950000Y-115235000D02*
X132950000Y-99035000D01*
D20*
%TO.C,IC1*%
X140500000Y-96550000D02*
X141050000Y-96000000D01*
X133950000Y-89450000D02*
X141050000Y-89450000D01*
X140500000Y-96550000D02*
X133950000Y-96550000D01*
X141050000Y-89450000D02*
X141050000Y-96000000D01*
X133950000Y-96550000D02*
X133950000Y-89450000D01*
D21*
X141100000Y-96500000D02*
G75*
G03*
X141100000Y-96500000I-100000J0D01*
G01*
D18*
%TO.C,C19*%
X144250000Y-108500000D02*
X144250000Y-108000000D01*
X145250000Y-108000000D02*
X145250000Y-108500000D01*
X144250000Y-108000000D02*
X145250000Y-108000000D01*
X145250000Y-108500000D02*
X144250000Y-108500000D01*
D19*
%TO.C,SW2*%
X153100000Y-84400000D02*
X153100000Y-71600000D01*
X158900000Y-84400000D02*
X153100000Y-84400000D01*
X158900000Y-71600000D02*
X158900000Y-84400000D01*
X153100000Y-71600000D02*
X158900000Y-71600000D01*
D18*
%TO.C,F1*%
X141250000Y-64250000D02*
X140750000Y-64250000D01*
X140750000Y-64250000D02*
X140750000Y-63250000D01*
X141250000Y-63250000D02*
X141250000Y-64250000D01*
X140750000Y-63250000D02*
X141250000Y-63250000D01*
%TO.C,R13*%
X146375000Y-68470000D02*
X146375000Y-67930000D01*
X147425000Y-68470000D02*
X146375000Y-68470000D01*
X146375000Y-67930000D02*
X147425000Y-67930000D01*
X147425000Y-67930000D02*
X147425000Y-68470000D01*
%TO.C,C21*%
X144270000Y-107000000D02*
X145270000Y-107000000D01*
X145270000Y-107500000D02*
X144270000Y-107500000D01*
X145270000Y-107000000D02*
X145270000Y-107500000D01*
X144270000Y-107500000D02*
X144270000Y-107000000D01*
D19*
%TO.C,SW1*%
X121900000Y-71600000D02*
X121900000Y-84400000D01*
X121900000Y-84400000D02*
X116100000Y-84400000D01*
X116100000Y-84400000D02*
X116100000Y-71600000D01*
X116100000Y-71600000D02*
X121900000Y-71600000D01*
D18*
%TO.C,R3*%
X134770000Y-64225000D02*
X134770000Y-65275000D01*
X134230000Y-65275000D02*
X134230000Y-64225000D01*
X134770000Y-65275000D02*
X134230000Y-65275000D01*
X134230000Y-64225000D02*
X134770000Y-64225000D01*
%TD*%
M02*
