<?xml version="1.0" standalone="no"?>
 <!DOCTYPE svg PUBLIC "-//W3C//DTD SVG 1.1//EN" 
 "http://www.w3.org/Graphics/SVG/1.1/DTD/svg11.dtd"> 
<svg
  xmlns:svg="http://www.w3.org/2000/svg"
  xmlns="http://www.w3.org/2000/svg"
  xmlns:xlink="http://www.w3.org/1999/xlink"
  version="1.1"
  width="29.700220cm" height="21.000720cm" viewBox="0 0 297002200 210007200">
<title>SVG Picture created as redshift-User_Drawings.svg date 2022/10/07 10:40:19 </title>
  <desc>Picture generated by PCBNEW </desc>
<g style="fill:#000000; fill-opacity:1.000000;stroke:#000000; stroke-opacity:1.000000;
stroke-linecap:round; stroke-linejoin:round;"
 transform="translate(0 0) scale(1 1)">
</g>
<g style="fill:#000000; fill-opacity:0.0; 
stroke:#000000; stroke-width:0.000000; stroke-opacity:1; 
stroke-linecap:round; stroke-linejoin:round;">
</g>
<g style="fill:#000000; fill-opacity:0.0; 
stroke:#000000; stroke-width:150000.000000; stroke-opacity:1; 
stroke-linecap:round; stroke-linejoin:round;">
<path d="M163502200 78000000
L151002200 78000000
" />
<path d="M159502200 47750000
L159502200 37250000
" />
<g transform="rotate(-90.000000 170502200.000000 59500000.000000)">
<text x="170502200.000000" y="60000000.000000"
textLength="7575952.000000" font-size="1333333.000000" lengthAdjust="spacingAndGlyphs"
text-anchor="middle" opacity="0">0.3740 in</text>
</g>
<g class="stroked-text"><desc>0.3740 in</desc>
<path d="M171049820 62761904
L171049820 62666666
L171002200 62571428
L170954581 62523809
L170859343 62476190
L170668867 62428571
L170430772 62428571
L170240296 62476190
L170145058 62523809
L170097439 62571428
L170049820 62666666
L170049820 62761904
L170097439 62857142
L170145058 62904761
L170240296 62952380
L170430772 63000000
L170668867 63000000
L170859343 62952380
L170954581 62904761
L171002200 62857142
L171049820 62761904
" />
<path d="M170145058 62000000
L170097439 61952380
L170049820 62000000
L170097439 62047619
L170145058 62000000
L170049820 62000000
" />
<path d="M171049820 61619047
L171049820 61000000
L170668867 61333333
L170668867 61190476
L170621248 61095238
L170573629 61047619
L170478391 61000000
L170240296 61000000
L170145058 61047619
L170097439 61095238
L170049820 61190476
L170049820 61476190
L170097439 61571428
L170145058 61619047
" />
<path d="M171049820 60666666
L171049820 60000000
L170049820 60428571
" />
<path d="M170716486 59190476
L170049820 59190476
" />
<path d="M171097439 59428571
L170383153 59666666
L170383153 59047619
" />
<path d="M171049820 58476190
L171049820 58380952
L171002200 58285714
L170954581 58238095
L170859343 58190476
L170668867 58142857
L170430772 58142857
L170240296 58190476
L170145058 58238095
L170097439 58285714
L170049820 58380952
L170049820 58476190
L170097439 58571428
L170145058 58619047
L170240296 58666666
L170430772 58714285
L170668867 58714285
L170859343 58666666
L170954581 58619047
L171002200 58571428
L171049820 58476190
" />
<path d="M170049820 56952380
L170716486 56952380
" />
<path d="M171049820 56952380
L171002200 57000000
L170954581 56952380
L171002200 56904761
L171049820 56952380
L170954581 56952380
" />
<path d="M170716486 56476190
L170049820 56476190
" />
<path d="M170621248 56476190
L170668867 56428571
L170716486 56333333
L170716486 56190476
L170668867 56095238
L170573629 56047619
L170049820 56047619
" />
</g><path d="M165502200 55500000
L167588620 55500000
" />
<path d="M165502200 65000000
L167588620 65000000
" />
<path d="M167002200 55500000
L167002200 65000000
" />
<path d="M167002200 55500000
L167002200 65000000
" />
<path d="M167002200 55500000
L167588621 56626504
" />
<path d="M167002200 55500000
L166415779 56626504
" />
<path d="M167002200 65000000
L166415779 63873496
" />
<path d="M167002200 65000000
L167588621 63873496
" />
<text x="160002200.000000" y="122500000.000000"
textLength="7575952.000000" font-size="1333333.000000" lengthAdjust="spacingAndGlyphs"
text-anchor="middle" opacity="0">1.7717 in</text>
<g class="stroked-text"><desc>1.7717 in</desc>
<path d="M162930772 122452380
L163502200 122452380
" />
<path d="M163216486 122452380
L163216486 121452380
L163311724 121595238
L163406962 121690476
L163502200 121738095
" />
<path d="M162502200 122357142
L162454581 122404761
L162502200 122452380
L162549820 122404761
L162502200 122357142
L162502200 122452380
" />
<path d="M162121248 121452380
L161454581 121452380
L161883153 122452380
" />
<path d="M161168867 121452380
L160502200 121452380
L160930772 122452380
" />
<path d="M159597439 122452380
L160168867 122452380
" />
<path d="M159883153 122452380
L159883153 121452380
L159978391 121595238
L160073629 121690476
L160168867 121738095
" />
<path d="M159264105 121452380
L158597439 121452380
L159026010 122452380
" />
<path d="M157454581 122452380
L157454581 121785714
" />
<path d="M157454581 121452380
L157502200 121500000
L157454581 121547619
L157406962 121500000
L157454581 121452380
L157454581 121547619
" />
<path d="M156978391 121785714
L156978391 122452380
" />
<path d="M156978391 121880952
L156930772 121833333
L156835534 121785714
L156692677 121785714
L156597439 121833333
L156549820 121928571
L156549820 122452380
" />
</g><path d="M182002200 119500000
L182002200 122586419
" />
<path d="M137002200 119500000
L137002200 122586419
" />
<path d="M182002200 121999999
L164267676 121999999
" />
<path d="M155736724 121999999
L137002200 121999999
" />
<path d="M182002200 121999999
L180875696 122586420
" />
<path d="M182002200 121999999
L180875696 121413578
" />
<path d="M137002200 121999999
L138128704 121413578
" />
<path d="M137002200 121999999
L138128704 122586420
" />
<g transform="rotate(-90.000000 188752200.000000 86000000.000000)">
<text x="188752200.000000" y="86500000.000000"
textLength="7575952.000000" font-size="1333333.000000" lengthAdjust="spacingAndGlyphs"
text-anchor="middle" opacity="0">1.7057 in</text>
</g>
<g class="stroked-text"><desc>1.7057 in</desc>
<path d="M188299820 88928571
L188299820 89500000
" />
<path d="M188299820 89214285
L189299820 89214285
L189156962 89309523
L189061724 89404761
L189014105 89500000
" />
<path d="M188395058 88500000
L188347439 88452380
L188299820 88500000
L188347439 88547619
L188395058 88500000
L188299820 88500000
" />
<path d="M189299820 88119047
L189299820 87452380
L188299820 87880952
" />
<path d="M189299820 86880952
L189299820 86785714
L189252200 86690476
L189204581 86642857
L189109343 86595238
L188918867 86547619
L188680772 86547619
L188490296 86595238
L188395058 86642857
L188347439 86690476
L188299820 86785714
L188299820 86880952
L188347439 86976190
L188395058 87023809
L188490296 87071428
L188680772 87119047
L188918867 87119047
L189109343 87071428
L189204581 87023809
L189252200 86976190
L189299820 86880952
" />
<path d="M189299820 85642857
L189299820 86119047
L188823629 86166666
L188871248 86119047
L188918867 86023809
L188918867 85785714
L188871248 85690476
L188823629 85642857
L188728391 85595238
L188490296 85595238
L188395058 85642857
L188347439 85690476
L188299820 85785714
L188299820 86023809
L188347439 86119047
L188395058 86166666
" />
<path d="M189299820 85261904
L189299820 84595238
L188299820 85023809
" />
<path d="M188299820 83452380
L188966486 83452380
" />
<path d="M189299820 83452380
L189252200 83500000
L189204581 83452380
L189252200 83404761
L189299820 83452380
L189204581 83452380
" />
<path d="M188966486 82976190
L188299820 82976190
" />
<path d="M188871248 82976190
L188918867 82928571
L188966486 82833333
L188966486 82690476
L188918867 82595238
L188823629 82547619
L188299820 82547619
" />
</g><path d="M160002200 65000000
L189088620 65000000
" />
<path d="M160002200 108325000
L189088620 108325000
" />
<path d="M188502200 65000000
L188502200 81734524
" />
<path d="M188502200 90265476
L188502200 108325000
" />
<path d="M188502200 65000000
L189088621 66126504
" />
<path d="M188502200 65000000
L187915779 66126504
" />
<path d="M188502200 108325000
L187915779 107198496
" />
<path d="M188502200 108325000
L189088621 107198496
" />
<g transform="rotate(-90.000000 167252200.000000 49500000.000000)">
<text x="167252200.000000" y="50000000.000000"
textLength="7575952.000000" font-size="1333333.000000" lengthAdjust="spacingAndGlyphs"
text-anchor="middle" opacity="0">0.0492 in</text>
</g>
<g class="stroked-text"><desc>0.0492 in</desc>
<path d="M167799820 52761904
L167799820 52666666
L167752200 52571428
L167704581 52523809
L167609343 52476190
L167418867 52428571
L167180772 52428571
L166990296 52476190
L166895058 52523809
L166847439 52571428
L166799820 52666666
L166799820 52761904
L166847439 52857142
L166895058 52904761
L166990296 52952380
L167180772 53000000
L167418867 53000000
L167609343 52952380
L167704581 52904761
L167752200 52857142
L167799820 52761904
" />
<path d="M166895058 52000000
L166847439 51952380
L166799820 52000000
L166847439 52047619
L166895058 52000000
L166799820 52000000
" />
<path d="M167799820 51333333
L167799820 51238095
L167752200 51142857
L167704581 51095238
L167609343 51047619
L167418867 51000000
L167180772 51000000
L166990296 51047619
L166895058 51095238
L166847439 51142857
L166799820 51238095
L166799820 51333333
L166847439 51428571
L166895058 51476190
L166990296 51523809
L167180772 51571428
L167418867 51571428
L167609343 51523809
L167704581 51476190
L167752200 51428571
L167799820 51333333
" />
<path d="M167466486 50142857
L166799820 50142857
" />
<path d="M167847439 50380952
L167133153 50619047
L167133153 50000000
" />
<path d="M166799820 49571428
L166799820 49380952
L166847439 49285714
L166895058 49238095
L167037915 49142857
L167228391 49095238
L167609343 49095238
L167704581 49142857
L167752200 49190476
L167799820 49285714
L167799820 49476190
L167752200 49571428
L167704581 49619047
L167609343 49666666
L167371248 49666666
L167276010 49619047
L167228391 49571428
L167180772 49476190
L167180772 49285714
L167228391 49190476
L167276010 49142857
L167371248 49095238
" />
<path d="M167704581 48714285
L167752200 48666666
L167799820 48571428
L167799820 48333333
L167752200 48238095
L167704581 48190476
L167609343 48142857
L167514105 48142857
L167371248 48190476
L166799820 48761904
L166799820 48142857
" />
<path d="M166799820 46952380
L167466486 46952380
" />
<path d="M167799820 46952380
L167752200 47000000
L167704581 46952380
L167752200 46904761
L167799820 46952380
L167704581 46952380
" />
<path d="M167466486 46476190
L166799820 46476190
" />
<path d="M167371248 46476190
L167418867 46428571
L167466486 46333333
L167466486 46190476
L167418867 46095238
L167323629 46047619
L166799820 46047619
" />
</g><path d="M165502200 55500000
L168088620 55500000
" />
<path d="M165502200 54250000
L168088620 54250000
" />
<path d="M167502200 55500000
L167502200 54250000
" />
<path d="M167502200 55500000
L167502200 54250000
" />
<path d="M167502200 55500000
L166915779 54373496
" />
<path d="M167502200 55500000
L168088621 54373496
" />
<path d="M167502200 54250000
L168088621 55376504
" />
<path d="M167502200 54250000
L166915779 55376504
" />
<g transform="rotate(-90.000000 133502200.000000 87500000.000000)">
<text x="133502200.000000" y="88000000.000000"
textLength="7575952.000000" font-size="1333333.000000" lengthAdjust="spacingAndGlyphs"
text-anchor="middle" opacity="0">2.5000 in</text>
</g>
<g class="stroked-text"><desc>2.5000 in</desc>
<path d="M133954581 91000000
L134002200 90952380
L134049820 90857142
L134049820 90619047
L134002200 90523809
L133954581 90476190
L133859343 90428571
L133764105 90428571
L133621248 90476190
L133049820 91047619
L133049820 90428571
" />
<path d="M133145058 90000000
L133097439 89952380
L133049820 90000000
L133097439 90047619
L133145058 90000000
L133049820 90000000
" />
<path d="M134049820 89047619
L134049820 89523809
L133573629 89571428
L133621248 89523809
L133668867 89428571
L133668867 89190476
L133621248 89095238
L133573629 89047619
L133478391 89000000
L133240296 89000000
L133145058 89047619
L133097439 89095238
L133049820 89190476
L133049820 89428571
L133097439 89523809
L133145058 89571428
" />
<path d="M134049820 88380952
L134049820 88285714
L134002200 88190476
L133954581 88142857
L133859343 88095238
L133668867 88047619
L133430772 88047619
L133240296 88095238
L133145058 88142857
L133097439 88190476
L133049820 88285714
L133049820 88380952
L133097439 88476190
L133145058 88523809
L133240296 88571428
L133430772 88619047
L133668867 88619047
L133859343 88571428
L133954581 88523809
L134002200 88476190
L134049820 88380952
" />
<path d="M134049820 87428571
L134049820 87333333
L134002200 87238095
L133954581 87190476
L133859343 87142857
L133668867 87095238
L133430772 87095238
L133240296 87142857
L133145058 87190476
L133097439 87238095
L133049820 87333333
L133049820 87428571
L133097439 87523809
L133145058 87571428
L133240296 87619047
L133430772 87666666
L133668867 87666666
L133859343 87619047
L133954581 87571428
L134002200 87523809
L134049820 87428571
" />
<path d="M134049820 86476190
L134049820 86380952
L134002200 86285714
L133954581 86238095
L133859343 86190476
L133668867 86142857
L133430772 86142857
L133240296 86190476
L133145058 86238095
L133097439 86285714
L133049820 86380952
L133049820 86476190
L133097439 86571428
L133145058 86619047
L133240296 86666666
L133430772 86714285
L133668867 86714285
L133859343 86666666
L133954581 86619047
L134002200 86571428
L134049820 86476190
" />
<path d="M133049820 84952380
L133716486 84952380
" />
<path d="M134049820 84952380
L134002200 85000000
L133954581 84952380
L134002200 84904761
L134049820 84952380
L133954581 84952380
" />
<path d="M133716486 84476190
L133049820 84476190
" />
<path d="M133621248 84476190
L133668867 84428571
L133716486 84333333
L133716486 84190476
L133668867 84095238
L133573629 84047619
L133049820 84047619
" />
</g><path d="M136502200 55500000
L132915780 55500000
" />
<path d="M136502200 119000000
L132915780 119000000
" />
<path d="M133502200 55500000
L133502200 83234524
" />
<path d="M133502200 91765476
L133502200 119000000
" />
<path d="M133502200 55500000
L134088621 56626504
" />
<path d="M133502200 55500000
L132915779 56626504
" />
<path d="M133502200 119000000
L132915779 117873496
" />
<path d="M133502200 119000000
L134088621 117873496
" />
<g transform="rotate(-90.000000 164700200.000000 78000000.000000)">
<text x="164700200.000000" y="78500000.000000"
textLength="9099762.000000" font-size="1333333.000000" lengthAdjust="spacingAndGlyphs"
text-anchor="middle" opacity="0">Shaft insert</text>
</g>
<g class="stroked-text"><desc>Shaft insert</desc>
<path d="M164295439 82261904
L164247820 82119047
L164247820 81880952
L164295439 81785714
L164343058 81738095
L164438296 81690476
L164533534 81690476
L164628772 81738095
L164676391 81785714
L164724010 81880952
L164771629 82071428
L164819248 82166666
L164866867 82214285
L164962105 82261904
L165057343 82261904
L165152581 82214285
L165200200 82166666
L165247820 82071428
L165247820 81833333
L165200200 81690476
" />
<path d="M164247820 81261904
L165247820 81261904
" />
<path d="M164247820 80833333
L164771629 80833333
L164866867 80880952
L164914486 80976190
L164914486 81119047
L164866867 81214285
L164819248 81261904
" />
<path d="M164247820 79928571
L164771629 79928571
L164866867 79976190
L164914486 80071428
L164914486 80261904
L164866867 80357142
" />
<path d="M164295439 79928571
L164247820 80023809
L164247820 80261904
L164295439 80357142
L164390677 80404761
L164485915 80404761
L164581153 80357142
L164628772 80261904
L164628772 80023809
L164676391 79928571
" />
<path d="M164914486 79595238
L164914486 79214285
" />
<path d="M164247820 79452380
L165104962 79452380
L165200200 79404761
L165247820 79309523
L165247820 79214285
" />
<path d="M164914486 79023809
L164914486 78642857
" />
<path d="M165247820 78880952
L164390677 78880952
L164295439 78833333
L164247820 78738095
L164247820 78642857
" />
<path d="M164247820 77547619
L164914486 77547619
" />
<path d="M165247820 77547619
L165200200 77595238
L165152581 77547619
L165200200 77500000
L165247820 77547619
L165152581 77547619
" />
<path d="M164914486 77071428
L164247820 77071428
" />
<path d="M164819248 77071428
L164866867 77023809
L164914486 76928571
L164914486 76785714
L164866867 76690476
L164771629 76642857
L164247820 76642857
" />
<path d="M164295439 76214285
L164247820 76119047
L164247820 75928571
L164295439 75833333
L164390677 75785714
L164438296 75785714
L164533534 75833333
L164581153 75928571
L164581153 76071428
L164628772 76166666
L164724010 76214285
L164771629 76214285
L164866867 76166666
L164914486 76071428
L164914486 75928571
L164866867 75833333
" />
<path d="M164295439 74976190
L164247820 75071428
L164247820 75261904
L164295439 75357142
L164390677 75404761
L164771629 75404761
L164866867 75357142
L164914486 75261904
L164914486 75071428
L164866867 74976190
L164771629 74928571
L164676391 74928571
L164581153 75404761
" />
<path d="M164247820 74500000
L164914486 74500000
" />
<path d="M164724010 74500000
L164819248 74452380
L164866867 74404761
L164914486 74309523
L164914486 74214285
" />
<path d="M164914486 74023809
L164914486 73642857
" />
<path d="M165247820 73880952
L164390677 73880952
L164295439 73833333
L164247820 73738095
L164247820 73642857
" />
</g></g>
<g style="fill:#000000; fill-opacity:0.0; 
stroke:#000000; stroke-width:100000.000000; stroke-opacity:1; 
stroke-linecap:round; stroke-linejoin:round;">
<path d="M166478200 78000000
L165970200 77492000
" />
<path d="M166478200 78000000
L165970200 78508000
" />
<path d="M166478200 78000000
L164700200 78000000
" />
</g>
<g style="fill:#000000; fill-opacity:0.0; 
stroke:#000000; stroke-width:120000.000000; stroke-opacity:1; 
stroke-linecap:round; stroke-linejoin:round;">
<path d="M149452200 78050000
L146552200 78050000
" />
<path d="M148002200 78600000
L148002200 77500000
" />
<path d="M168927200 104800000
L168927200 111850000
" />
<path d="M158002200 97500000
L158002200 97750000
" />
<path d="M150077200 104800000
L150077200 111850000
" />
<path d="M158002200 97750000
L157127200 97750000
" />
<path d="M161877200 97750000
L161002200 97750000
" />
<path d="M161002200 97500000
L161002200 97750000
" />
<path d="M157502200 112325000
L161502200 112325000
" />
<path d="M161502200 112325000
L161502200 108325000
" />
<path d="M157502200 108325000
L157502200 112325000
" />
<path d="M161877200 118900000
L157127200 118900000
" />
<path d="M161002200 97500000
L158002200 97500000
" />
<path d="M157127200.000000 97750000.000000 A7050000.000000 7050000.000000 0.0 0 0 150077200.000000 104800000.000000" />
<path d="M150077200.000000 111850000.000000 A7050000.000000 7050000.000000 0.0 0 0 157127200.000000 118900000.000000" />
<path d="M168927200.000000 104800000.000000 A7050000.000000 7050000.000000 0.0 0 0 161877200.000000 97750000.000000" />
<path d="M161502200.000000 108325000.000000 A2000000.000000 2000000.000000 0.0 0 0 157502200.000000 108325000.000000" />
<path d="M161877200.000000 118900000.000000 A7050000.000000 7050000.000000 0.0 0 0 168927200.000000 111850000.000000" />
<circle cx="159502200.000000" cy="108325000.000000" r="250000.000000" /> 
<path d="M141002200 76600000
L141002200 75500000
" />
<path d="M142452200 76050000
L139552200 76050000
" />
<path d="M178002200 76600000
L178002200 75500000
" />
<path d="M179452200 76050000
L176552200 76050000
" />
<g >
</g>
<g >
</g>
<g >
</g>
<g >
</g>
<g >
</g>
<g >
</g>
<g >
</g>
<g >
</g>
<g >
</g>
<g >
</g>
<g >
</g>
<g >
</g>
<g >
</g>
<g >
</g>
<g >
</g>
<g >
</g>
<g >
</g>
<g >
</g>
<g >
</g>
<g >
</g>
<g >
</g>
<g >
</g>
<g >
</g>
<g >
</g>
<g >
</g>
<g >
</g>
<g >
</g>
<g >
</g>
<g >
</g>
<g >
</g>
<g >
</g>
<g >
</g>
<g >
</g>
<g >
</g>
<g >
</g>
<g >
</g>
<g >
</g>
<g >
</g>
<g >
</g>
<g >
</g>
<g >
</g>
<g >
</g>
<g >
</g>
<g >
</g>
<g >
</g>
<g >
</g>
<g >
</g>
<g >
</g>
<g >
</g>
<g >
</g>
<g >
</g>
<g >
</g>
<g >
</g>
<g >
</g>
<g >
</g>
<g >
</g>
<g >
</g>
<g >
</g>
<g >
</g>
<g >
</g>
<g >
</g>
<g >
</g>
<g >
</g>
<g >
</g>
<g >
</g>
<g >
</g>
<g >
</g>
<g >
</g>
<g >
</g>
<g >
</g>
<g >
</g>
<g >
</g>
<g >
</g>
<g >
</g>
<g >
</g>
<g >
</g>
<g >
</g>
<g >
</g>
<g >
</g>
<g >
</g>
</g> 
</svg>
