G04 #@! TF.GenerationSoftware,KiCad,Pcbnew,6.0.7+dfsg-1~bpo11+1*
G04 #@! TF.CreationDate,2022-10-07T10:39:21+00:00*
G04 #@! TF.ProjectId,redshift,72656473-6869-4667-942e-6b696361645f,0.2*
G04 #@! TF.SameCoordinates,Original*
G04 #@! TF.FileFunction,Paste,Top*
G04 #@! TF.FilePolarity,Positive*
%FSLAX46Y46*%
G04 Gerber Fmt 4.6, Leading zero omitted, Abs format (unit mm)*
G04 Created by KiCad (PCBNEW 6.0.7+dfsg-1~bpo11+1) date 2022-10-07 10:39:21*
%MOMM*%
%LPD*%
G01*
G04 APERTURE LIST*
%ADD10R,0.600000X1.150000*%
%ADD11R,0.300000X1.150000*%
%ADD12R,0.300000X0.450000*%
%ADD13R,0.800000X0.900000*%
%ADD14R,1.170000X0.400000*%
%ADD15R,1.050000X0.650000*%
%ADD16R,0.740000X2.400000*%
%ADD17R,1.168400X0.889000*%
%ADD18R,1.168400X0.482600*%
%ADD19C,0.240000*%
G04 APERTURE END LIST*
G36*
G01*
X30780000Y23435000D02*
X30780000Y23065000D01*
G75*
G02*
X30645000Y22930000I-135000J0D01*
G01*
X30375000Y22930000D01*
G75*
G02*
X30240000Y23065000I0J135000D01*
G01*
X30240000Y23435000D01*
G75*
G02*
X30375000Y23570000I135000J0D01*
G01*
X30645000Y23570000D01*
G75*
G02*
X30780000Y23435000I0J-135000D01*
G01*
G37*
G36*
G01*
X29760000Y23435000D02*
X29760000Y23065000D01*
G75*
G02*
X29625000Y22930000I-135000J0D01*
G01*
X29355000Y22930000D01*
G75*
G02*
X29220000Y23065000I0J135000D01*
G01*
X29220000Y23435000D01*
G75*
G02*
X29355000Y23570000I135000J0D01*
G01*
X29625000Y23570000D01*
G75*
G02*
X29760000Y23435000I0J-135000D01*
G01*
G37*
G36*
G01*
X26280000Y53922500D02*
X26280000Y53577500D01*
G75*
G02*
X26132500Y53430000I-147500J0D01*
G01*
X25837500Y53430000D01*
G75*
G02*
X25690000Y53577500I0J147500D01*
G01*
X25690000Y53922500D01*
G75*
G02*
X25837500Y54070000I147500J0D01*
G01*
X26132500Y54070000D01*
G75*
G02*
X26280000Y53922500I0J-147500D01*
G01*
G37*
G36*
G01*
X25310000Y53922500D02*
X25310000Y53577500D01*
G75*
G02*
X25162500Y53430000I-147500J0D01*
G01*
X24867500Y53430000D01*
G75*
G02*
X24720000Y53577500I0J147500D01*
G01*
X24720000Y53922500D01*
G75*
G02*
X24867500Y54070000I147500J0D01*
G01*
X25162500Y54070000D01*
G75*
G02*
X25310000Y53922500I0J-147500D01*
G01*
G37*
G36*
G01*
X27510000Y25330000D02*
X27510000Y25670000D01*
G75*
G02*
X27650000Y25810000I140000J0D01*
G01*
X27930000Y25810000D01*
G75*
G02*
X28070000Y25670000I0J-140000D01*
G01*
X28070000Y25330000D01*
G75*
G02*
X27930000Y25190000I-140000J0D01*
G01*
X27650000Y25190000D01*
G75*
G02*
X27510000Y25330000I0J140000D01*
G01*
G37*
G36*
G01*
X28470000Y25330000D02*
X28470000Y25670000D01*
G75*
G02*
X28610000Y25810000I140000J0D01*
G01*
X28890000Y25810000D01*
G75*
G02*
X29030000Y25670000I0J-140000D01*
G01*
X29030000Y25330000D01*
G75*
G02*
X28890000Y25190000I-140000J0D01*
G01*
X28610000Y25190000D01*
G75*
G02*
X28470000Y25330000I0J140000D01*
G01*
G37*
G36*
G01*
X17760000Y27670000D02*
X17760000Y27330000D01*
G75*
G02*
X17620000Y27190000I-140000J0D01*
G01*
X17340000Y27190000D01*
G75*
G02*
X17200000Y27330000I0J140000D01*
G01*
X17200000Y27670000D01*
G75*
G02*
X17340000Y27810000I140000J0D01*
G01*
X17620000Y27810000D01*
G75*
G02*
X17760000Y27670000I0J-140000D01*
G01*
G37*
G36*
G01*
X16800000Y27670000D02*
X16800000Y27330000D01*
G75*
G02*
X16660000Y27190000I-140000J0D01*
G01*
X16380000Y27190000D01*
G75*
G02*
X16240000Y27330000I0J140000D01*
G01*
X16240000Y27670000D01*
G75*
G02*
X16380000Y27810000I140000J0D01*
G01*
X16660000Y27810000D01*
G75*
G02*
X16800000Y27670000I0J-140000D01*
G01*
G37*
G36*
G01*
X17760000Y29670000D02*
X17760000Y29330000D01*
G75*
G02*
X17620000Y29190000I-140000J0D01*
G01*
X17340000Y29190000D01*
G75*
G02*
X17200000Y29330000I0J140000D01*
G01*
X17200000Y29670000D01*
G75*
G02*
X17340000Y29810000I140000J0D01*
G01*
X17620000Y29810000D01*
G75*
G02*
X17760000Y29670000I0J-140000D01*
G01*
G37*
G36*
G01*
X16800000Y29670000D02*
X16800000Y29330000D01*
G75*
G02*
X16660000Y29190000I-140000J0D01*
G01*
X16380000Y29190000D01*
G75*
G02*
X16240000Y29330000I0J140000D01*
G01*
X16240000Y29670000D01*
G75*
G02*
X16380000Y29810000I140000J0D01*
G01*
X16660000Y29810000D01*
G75*
G02*
X16800000Y29670000I0J-140000D01*
G01*
G37*
G36*
G01*
X33240000Y51730000D02*
X33240000Y52070000D01*
G75*
G02*
X33380000Y52210000I140000J0D01*
G01*
X33660000Y52210000D01*
G75*
G02*
X33800000Y52070000I0J-140000D01*
G01*
X33800000Y51730000D01*
G75*
G02*
X33660000Y51590000I-140000J0D01*
G01*
X33380000Y51590000D01*
G75*
G02*
X33240000Y51730000I0J140000D01*
G01*
G37*
G36*
G01*
X34200000Y51730000D02*
X34200000Y52070000D01*
G75*
G02*
X34340000Y52210000I140000J0D01*
G01*
X34620000Y52210000D01*
G75*
G02*
X34760000Y52070000I0J-140000D01*
G01*
X34760000Y51730000D01*
G75*
G02*
X34620000Y51590000I-140000J0D01*
G01*
X34340000Y51590000D01*
G75*
G02*
X34200000Y51730000I0J140000D01*
G01*
G37*
G36*
G01*
X24830000Y53030000D02*
X25170000Y53030000D01*
G75*
G02*
X25310000Y52890000I0J-140000D01*
G01*
X25310000Y52610000D01*
G75*
G02*
X25170000Y52470000I-140000J0D01*
G01*
X24830000Y52470000D01*
G75*
G02*
X24690000Y52610000I0J140000D01*
G01*
X24690000Y52890000D01*
G75*
G02*
X24830000Y53030000I140000J0D01*
G01*
G37*
G36*
G01*
X24830000Y52070000D02*
X25170000Y52070000D01*
G75*
G02*
X25310000Y51930000I0J-140000D01*
G01*
X25310000Y51650000D01*
G75*
G02*
X25170000Y51510000I-140000J0D01*
G01*
X24830000Y51510000D01*
G75*
G02*
X24690000Y51650000I0J140000D01*
G01*
X24690000Y51930000D01*
G75*
G02*
X24830000Y52070000I140000J0D01*
G01*
G37*
G36*
G01*
X20510000Y30830000D02*
X20510000Y31170000D01*
G75*
G02*
X20650000Y31310000I140000J0D01*
G01*
X20930000Y31310000D01*
G75*
G02*
X21070000Y31170000I0J-140000D01*
G01*
X21070000Y30830000D01*
G75*
G02*
X20930000Y30690000I-140000J0D01*
G01*
X20650000Y30690000D01*
G75*
G02*
X20510000Y30830000I0J140000D01*
G01*
G37*
G36*
G01*
X21470000Y30830000D02*
X21470000Y31170000D01*
G75*
G02*
X21610000Y31310000I140000J0D01*
G01*
X21890000Y31310000D01*
G75*
G02*
X22030000Y31170000I0J-140000D01*
G01*
X22030000Y30830000D01*
G75*
G02*
X21890000Y30690000I-140000J0D01*
G01*
X21610000Y30690000D01*
G75*
G02*
X21470000Y30830000I0J140000D01*
G01*
G37*
G36*
G01*
X28990000Y9580000D02*
X28990000Y9920000D01*
G75*
G02*
X29130000Y10060000I140000J0D01*
G01*
X29410000Y10060000D01*
G75*
G02*
X29550000Y9920000I0J-140000D01*
G01*
X29550000Y9580000D01*
G75*
G02*
X29410000Y9440000I-140000J0D01*
G01*
X29130000Y9440000D01*
G75*
G02*
X28990000Y9580000I0J140000D01*
G01*
G37*
G36*
G01*
X29950000Y9580000D02*
X29950000Y9920000D01*
G75*
G02*
X30090000Y10060000I140000J0D01*
G01*
X30370000Y10060000D01*
G75*
G02*
X30510000Y9920000I0J-140000D01*
G01*
X30510000Y9580000D01*
G75*
G02*
X30370000Y9440000I-140000J0D01*
G01*
X30090000Y9440000D01*
G75*
G02*
X29950000Y9580000I0J140000D01*
G01*
G37*
G36*
G01*
X27225000Y24077500D02*
X27225000Y24422500D01*
G75*
G02*
X27372500Y24570000I147500J0D01*
G01*
X27667500Y24570000D01*
G75*
G02*
X27815000Y24422500I0J-147500D01*
G01*
X27815000Y24077500D01*
G75*
G02*
X27667500Y23930000I-147500J0D01*
G01*
X27372500Y23930000D01*
G75*
G02*
X27225000Y24077500I0J147500D01*
G01*
G37*
G36*
G01*
X28195000Y24077500D02*
X28195000Y24422500D01*
G75*
G02*
X28342500Y24570000I147500J0D01*
G01*
X28637500Y24570000D01*
G75*
G02*
X28785000Y24422500I0J-147500D01*
G01*
X28785000Y24077500D01*
G75*
G02*
X28637500Y23930000I-147500J0D01*
G01*
X28342500Y23930000D01*
G75*
G02*
X28195000Y24077500I0J147500D01*
G01*
G37*
D10*
X25700000Y57245000D03*
X24900000Y57245000D03*
D11*
X23750000Y57245000D03*
X22750000Y57245000D03*
X22250000Y57245000D03*
X21250000Y57245000D03*
D10*
X19300000Y57245000D03*
X20100000Y57245000D03*
D11*
X20750000Y57245000D03*
X21750000Y57245000D03*
X23250000Y57245000D03*
X24250000Y57245000D03*
G36*
G01*
X17775000Y30775000D02*
X17225000Y30775000D01*
G75*
G02*
X17025000Y30975000I0J200000D01*
G01*
X17025000Y31375000D01*
G75*
G02*
X17225000Y31575000I200000J0D01*
G01*
X17775000Y31575000D01*
G75*
G02*
X17975000Y31375000I0J-200000D01*
G01*
X17975000Y30975000D01*
G75*
G02*
X17775000Y30775000I-200000J0D01*
G01*
G37*
G36*
G01*
X17775000Y32425000D02*
X17225000Y32425000D01*
G75*
G02*
X17025000Y32625000I0J200000D01*
G01*
X17025000Y33025000D01*
G75*
G02*
X17225000Y33225000I200000J0D01*
G01*
X17775000Y33225000D01*
G75*
G02*
X17975000Y33025000I0J-200000D01*
G01*
X17975000Y32625000D01*
G75*
G02*
X17775000Y32425000I-200000J0D01*
G01*
G37*
G36*
G01*
X27220000Y23077500D02*
X27220000Y23422500D01*
G75*
G02*
X27367500Y23570000I147500J0D01*
G01*
X27662500Y23570000D01*
G75*
G02*
X27810000Y23422500I0J-147500D01*
G01*
X27810000Y23077500D01*
G75*
G02*
X27662500Y22930000I-147500J0D01*
G01*
X27367500Y22930000D01*
G75*
G02*
X27220000Y23077500I0J147500D01*
G01*
G37*
G36*
G01*
X28190000Y23077500D02*
X28190000Y23422500D01*
G75*
G02*
X28337500Y23570000I147500J0D01*
G01*
X28632500Y23570000D01*
G75*
G02*
X28780000Y23422500I0J-147500D01*
G01*
X28780000Y23077500D01*
G75*
G02*
X28632500Y22930000I-147500J0D01*
G01*
X28337500Y22930000D01*
G75*
G02*
X28190000Y23077500I0J147500D01*
G01*
G37*
G36*
G01*
X32740000Y13580000D02*
X32740000Y13920000D01*
G75*
G02*
X32880000Y14060000I140000J0D01*
G01*
X33160000Y14060000D01*
G75*
G02*
X33300000Y13920000I0J-140000D01*
G01*
X33300000Y13580000D01*
G75*
G02*
X33160000Y13440000I-140000J0D01*
G01*
X32880000Y13440000D01*
G75*
G02*
X32740000Y13580000I0J140000D01*
G01*
G37*
G36*
G01*
X33700000Y13580000D02*
X33700000Y13920000D01*
G75*
G02*
X33840000Y14060000I140000J0D01*
G01*
X34120000Y14060000D01*
G75*
G02*
X34260000Y13920000I0J-140000D01*
G01*
X34260000Y13580000D01*
G75*
G02*
X34120000Y13440000I-140000J0D01*
G01*
X33840000Y13440000D01*
G75*
G02*
X33700000Y13580000I0J140000D01*
G01*
G37*
D12*
X33500000Y12700000D03*
X33000000Y12700000D03*
X32500000Y12700000D03*
X32500000Y11300000D03*
X33500000Y11300000D03*
G36*
G01*
X21740000Y21170000D02*
X21740000Y20830000D01*
G75*
G02*
X21600000Y20690000I-140000J0D01*
G01*
X21320000Y20690000D01*
G75*
G02*
X21180000Y20830000I0J140000D01*
G01*
X21180000Y21170000D01*
G75*
G02*
X21320000Y21310000I140000J0D01*
G01*
X21600000Y21310000D01*
G75*
G02*
X21740000Y21170000I0J-140000D01*
G01*
G37*
G36*
G01*
X20780000Y21170000D02*
X20780000Y20830000D01*
G75*
G02*
X20640000Y20690000I-140000J0D01*
G01*
X20360000Y20690000D01*
G75*
G02*
X20220000Y20830000I0J140000D01*
G01*
X20220000Y21170000D01*
G75*
G02*
X20360000Y21310000I140000J0D01*
G01*
X20640000Y21310000D01*
G75*
G02*
X20780000Y21170000I0J-140000D01*
G01*
G37*
G36*
G01*
X30420000Y30240000D02*
X30080000Y30240000D01*
G75*
G02*
X29940000Y30380000I0J140000D01*
G01*
X29940000Y30660000D01*
G75*
G02*
X30080000Y30800000I140000J0D01*
G01*
X30420000Y30800000D01*
G75*
G02*
X30560000Y30660000I0J-140000D01*
G01*
X30560000Y30380000D01*
G75*
G02*
X30420000Y30240000I-140000J0D01*
G01*
G37*
G36*
G01*
X30420000Y31200000D02*
X30080000Y31200000D01*
G75*
G02*
X29940000Y31340000I0J140000D01*
G01*
X29940000Y31620000D01*
G75*
G02*
X30080000Y31760000I140000J0D01*
G01*
X30420000Y31760000D01*
G75*
G02*
X30560000Y31620000I0J-140000D01*
G01*
X30560000Y31340000D01*
G75*
G02*
X30420000Y31200000I-140000J0D01*
G01*
G37*
G36*
G01*
X8030000Y31935000D02*
X8030000Y31565000D01*
G75*
G02*
X7895000Y31430000I-135000J0D01*
G01*
X7625000Y31430000D01*
G75*
G02*
X7490000Y31565000I0J135000D01*
G01*
X7490000Y31935000D01*
G75*
G02*
X7625000Y32070000I135000J0D01*
G01*
X7895000Y32070000D01*
G75*
G02*
X8030000Y31935000I0J-135000D01*
G01*
G37*
G36*
G01*
X7010000Y31935000D02*
X7010000Y31565000D01*
G75*
G02*
X6875000Y31430000I-135000J0D01*
G01*
X6605000Y31430000D01*
G75*
G02*
X6470000Y31565000I0J135000D01*
G01*
X6470000Y31935000D01*
G75*
G02*
X6605000Y32070000I135000J0D01*
G01*
X6875000Y32070000D01*
G75*
G02*
X7010000Y31935000I0J-135000D01*
G01*
G37*
D13*
X28850000Y30750000D03*
X28850000Y32150000D03*
X27750000Y32150000D03*
X27750000Y30750000D03*
G36*
G01*
X18330000Y55010000D02*
X18670000Y55010000D01*
G75*
G02*
X18810000Y54870000I0J-140000D01*
G01*
X18810000Y54590000D01*
G75*
G02*
X18670000Y54450000I-140000J0D01*
G01*
X18330000Y54450000D01*
G75*
G02*
X18190000Y54590000I0J140000D01*
G01*
X18190000Y54870000D01*
G75*
G02*
X18330000Y55010000I140000J0D01*
G01*
G37*
G36*
G01*
X18330000Y54050000D02*
X18670000Y54050000D01*
G75*
G02*
X18810000Y53910000I0J-140000D01*
G01*
X18810000Y53630000D01*
G75*
G02*
X18670000Y53490000I-140000J0D01*
G01*
X18330000Y53490000D01*
G75*
G02*
X18190000Y53630000I0J140000D01*
G01*
X18190000Y53910000D01*
G75*
G02*
X18330000Y54050000I140000J0D01*
G01*
G37*
D14*
X27730000Y52650000D03*
X27730000Y52000000D03*
X27730000Y51350000D03*
X29670000Y51350000D03*
X29670000Y52650000D03*
G36*
G01*
X27260000Y33330000D02*
X27260000Y33670000D01*
G75*
G02*
X27400000Y33810000I140000J0D01*
G01*
X27680000Y33810000D01*
G75*
G02*
X27820000Y33670000I0J-140000D01*
G01*
X27820000Y33330000D01*
G75*
G02*
X27680000Y33190000I-140000J0D01*
G01*
X27400000Y33190000D01*
G75*
G02*
X27260000Y33330000I0J140000D01*
G01*
G37*
G36*
G01*
X28220000Y33330000D02*
X28220000Y33670000D01*
G75*
G02*
X28360000Y33810000I140000J0D01*
G01*
X28640000Y33810000D01*
G75*
G02*
X28780000Y33670000I0J-140000D01*
G01*
X28780000Y33330000D01*
G75*
G02*
X28640000Y33190000I-140000J0D01*
G01*
X28360000Y33190000D01*
G75*
G02*
X28220000Y33330000I0J140000D01*
G01*
G37*
G36*
G01*
X27220000Y28330000D02*
X27220000Y28670000D01*
G75*
G02*
X27360000Y28810000I140000J0D01*
G01*
X27640000Y28810000D01*
G75*
G02*
X27780000Y28670000I0J-140000D01*
G01*
X27780000Y28330000D01*
G75*
G02*
X27640000Y28190000I-140000J0D01*
G01*
X27360000Y28190000D01*
G75*
G02*
X27220000Y28330000I0J140000D01*
G01*
G37*
G36*
G01*
X28180000Y28330000D02*
X28180000Y28670000D01*
G75*
G02*
X28320000Y28810000I140000J0D01*
G01*
X28600000Y28810000D01*
G75*
G02*
X28740000Y28670000I0J-140000D01*
G01*
X28740000Y28330000D01*
G75*
G02*
X28600000Y28190000I-140000J0D01*
G01*
X28320000Y28190000D01*
G75*
G02*
X28180000Y28330000I0J140000D01*
G01*
G37*
G36*
G01*
X14780000Y7922500D02*
X14780000Y7577500D01*
G75*
G02*
X14632500Y7430000I-147500J0D01*
G01*
X14337500Y7430000D01*
G75*
G02*
X14190000Y7577500I0J147500D01*
G01*
X14190000Y7922500D01*
G75*
G02*
X14337500Y8070000I147500J0D01*
G01*
X14632500Y8070000D01*
G75*
G02*
X14780000Y7922500I0J-147500D01*
G01*
G37*
G36*
G01*
X13810000Y7922500D02*
X13810000Y7577500D01*
G75*
G02*
X13662500Y7430000I-147500J0D01*
G01*
X13367500Y7430000D01*
G75*
G02*
X13220000Y7577500I0J147500D01*
G01*
X13220000Y7922500D01*
G75*
G02*
X13367500Y8070000I147500J0D01*
G01*
X13662500Y8070000D01*
G75*
G02*
X13810000Y7922500I0J-147500D01*
G01*
G37*
G36*
G01*
X17760000Y28670000D02*
X17760000Y28330000D01*
G75*
G02*
X17620000Y28190000I-140000J0D01*
G01*
X17340000Y28190000D01*
G75*
G02*
X17200000Y28330000I0J140000D01*
G01*
X17200000Y28670000D01*
G75*
G02*
X17340000Y28810000I140000J0D01*
G01*
X17620000Y28810000D01*
G75*
G02*
X17760000Y28670000I0J-140000D01*
G01*
G37*
G36*
G01*
X16800000Y28670000D02*
X16800000Y28330000D01*
G75*
G02*
X16660000Y28190000I-140000J0D01*
G01*
X16380000Y28190000D01*
G75*
G02*
X16240000Y28330000I0J140000D01*
G01*
X16240000Y28670000D01*
G75*
G02*
X16380000Y28810000I140000J0D01*
G01*
X16660000Y28810000D01*
G75*
G02*
X16800000Y28670000I0J-140000D01*
G01*
G37*
D15*
X35675000Y16425000D03*
X39825000Y16425000D03*
X39825000Y18575000D03*
X35675000Y18575000D03*
G36*
G01*
X28990000Y12580000D02*
X28990000Y12920000D01*
G75*
G02*
X29130000Y13060000I140000J0D01*
G01*
X29410000Y13060000D01*
G75*
G02*
X29550000Y12920000I0J-140000D01*
G01*
X29550000Y12580000D01*
G75*
G02*
X29410000Y12440000I-140000J0D01*
G01*
X29130000Y12440000D01*
G75*
G02*
X28990000Y12580000I0J140000D01*
G01*
G37*
G36*
G01*
X29950000Y12580000D02*
X29950000Y12920000D01*
G75*
G02*
X30090000Y13060000I140000J0D01*
G01*
X30370000Y13060000D01*
G75*
G02*
X30510000Y12920000I0J-140000D01*
G01*
X30510000Y12580000D01*
G75*
G02*
X30370000Y12440000I-140000J0D01*
G01*
X30090000Y12440000D01*
G75*
G02*
X29950000Y12580000I0J140000D01*
G01*
G37*
G36*
G01*
X4470000Y31577500D02*
X4470000Y31922500D01*
G75*
G02*
X4617500Y32070000I147500J0D01*
G01*
X4912500Y32070000D01*
G75*
G02*
X5060000Y31922500I0J-147500D01*
G01*
X5060000Y31577500D01*
G75*
G02*
X4912500Y31430000I-147500J0D01*
G01*
X4617500Y31430000D01*
G75*
G02*
X4470000Y31577500I0J147500D01*
G01*
G37*
G36*
G01*
X5440000Y31577500D02*
X5440000Y31922500D01*
G75*
G02*
X5587500Y32070000I147500J0D01*
G01*
X5882500Y32070000D01*
G75*
G02*
X6030000Y31922500I0J-147500D01*
G01*
X6030000Y31577500D01*
G75*
G02*
X5882500Y31430000I-147500J0D01*
G01*
X5587500Y31430000D01*
G75*
G02*
X5440000Y31577500I0J147500D01*
G01*
G37*
G36*
G01*
X43827500Y21780000D02*
X44172500Y21780000D01*
G75*
G02*
X44320000Y21632500I0J-147500D01*
G01*
X44320000Y21337500D01*
G75*
G02*
X44172500Y21190000I-147500J0D01*
G01*
X43827500Y21190000D01*
G75*
G02*
X43680000Y21337500I0J147500D01*
G01*
X43680000Y21632500D01*
G75*
G02*
X43827500Y21780000I147500J0D01*
G01*
G37*
G36*
G01*
X43827500Y20810000D02*
X44172500Y20810000D01*
G75*
G02*
X44320000Y20662500I0J-147500D01*
G01*
X44320000Y20367500D01*
G75*
G02*
X44172500Y20220000I-147500J0D01*
G01*
X43827500Y20220000D01*
G75*
G02*
X43680000Y20367500I0J147500D01*
G01*
X43680000Y20662500D01*
G75*
G02*
X43827500Y20810000I147500J0D01*
G01*
G37*
G36*
G01*
X23740000Y30830000D02*
X23740000Y31170000D01*
G75*
G02*
X23880000Y31310000I140000J0D01*
G01*
X24160000Y31310000D01*
G75*
G02*
X24300000Y31170000I0J-140000D01*
G01*
X24300000Y30830000D01*
G75*
G02*
X24160000Y30690000I-140000J0D01*
G01*
X23880000Y30690000D01*
G75*
G02*
X23740000Y30830000I0J140000D01*
G01*
G37*
G36*
G01*
X24700000Y30830000D02*
X24700000Y31170000D01*
G75*
G02*
X24840000Y31310000I140000J0D01*
G01*
X25120000Y31310000D01*
G75*
G02*
X25260000Y31170000I0J-140000D01*
G01*
X25260000Y30830000D01*
G75*
G02*
X25120000Y30690000I-140000J0D01*
G01*
X24840000Y30690000D01*
G75*
G02*
X24700000Y30830000I0J140000D01*
G01*
G37*
G36*
G01*
X17315000Y55030000D02*
X17685000Y55030000D01*
G75*
G02*
X17820000Y54895000I0J-135000D01*
G01*
X17820000Y54625000D01*
G75*
G02*
X17685000Y54490000I-135000J0D01*
G01*
X17315000Y54490000D01*
G75*
G02*
X17180000Y54625000I0J135000D01*
G01*
X17180000Y54895000D01*
G75*
G02*
X17315000Y55030000I135000J0D01*
G01*
G37*
G36*
G01*
X17315000Y54010000D02*
X17685000Y54010000D01*
G75*
G02*
X17820000Y53875000I0J-135000D01*
G01*
X17820000Y53605000D01*
G75*
G02*
X17685000Y53470000I-135000J0D01*
G01*
X17315000Y53470000D01*
G75*
G02*
X17180000Y53605000I0J135000D01*
G01*
X17180000Y53875000D01*
G75*
G02*
X17315000Y54010000I135000J0D01*
G01*
G37*
G36*
G01*
X19760000Y21170000D02*
X19760000Y20830000D01*
G75*
G02*
X19620000Y20690000I-140000J0D01*
G01*
X19340000Y20690000D01*
G75*
G02*
X19200000Y20830000I0J140000D01*
G01*
X19200000Y21170000D01*
G75*
G02*
X19340000Y21310000I140000J0D01*
G01*
X19620000Y21310000D01*
G75*
G02*
X19760000Y21170000I0J-140000D01*
G01*
G37*
G36*
G01*
X18800000Y21170000D02*
X18800000Y20830000D01*
G75*
G02*
X18660000Y20690000I-140000J0D01*
G01*
X18380000Y20690000D01*
G75*
G02*
X18240000Y20830000I0J140000D01*
G01*
X18240000Y21170000D01*
G75*
G02*
X18380000Y21310000I140000J0D01*
G01*
X18660000Y21310000D01*
G75*
G02*
X18800000Y21170000I0J-140000D01*
G01*
G37*
G36*
G01*
X11210000Y7565000D02*
X11210000Y7935000D01*
G75*
G02*
X11345000Y8070000I135000J0D01*
G01*
X11615000Y8070000D01*
G75*
G02*
X11750000Y7935000I0J-135000D01*
G01*
X11750000Y7565000D01*
G75*
G02*
X11615000Y7430000I-135000J0D01*
G01*
X11345000Y7430000D01*
G75*
G02*
X11210000Y7565000I0J135000D01*
G01*
G37*
G36*
G01*
X12230000Y7565000D02*
X12230000Y7935000D01*
G75*
G02*
X12365000Y8070000I135000J0D01*
G01*
X12635000Y8070000D01*
G75*
G02*
X12770000Y7935000I0J-135000D01*
G01*
X12770000Y7565000D01*
G75*
G02*
X12635000Y7430000I-135000J0D01*
G01*
X12365000Y7430000D01*
G75*
G02*
X12230000Y7565000I0J135000D01*
G01*
G37*
G36*
G01*
X25185000Y54470000D02*
X24815000Y54470000D01*
G75*
G02*
X24680000Y54605000I0J135000D01*
G01*
X24680000Y54875000D01*
G75*
G02*
X24815000Y55010000I135000J0D01*
G01*
X25185000Y55010000D01*
G75*
G02*
X25320000Y54875000I0J-135000D01*
G01*
X25320000Y54605000D01*
G75*
G02*
X25185000Y54470000I-135000J0D01*
G01*
G37*
G36*
G01*
X25185000Y55490000D02*
X24815000Y55490000D01*
G75*
G02*
X24680000Y55625000I0J135000D01*
G01*
X24680000Y55895000D01*
G75*
G02*
X24815000Y56030000I135000J0D01*
G01*
X25185000Y56030000D01*
G75*
G02*
X25320000Y55895000I0J-135000D01*
G01*
X25320000Y55625000D01*
G75*
G02*
X25185000Y55490000I-135000J0D01*
G01*
G37*
G36*
G01*
X34780000Y50972500D02*
X34780000Y50627500D01*
G75*
G02*
X34632500Y50480000I-147500J0D01*
G01*
X34337500Y50480000D01*
G75*
G02*
X34190000Y50627500I0J147500D01*
G01*
X34190000Y50972500D01*
G75*
G02*
X34337500Y51120000I147500J0D01*
G01*
X34632500Y51120000D01*
G75*
G02*
X34780000Y50972500I0J-147500D01*
G01*
G37*
G36*
G01*
X33810000Y50972500D02*
X33810000Y50627500D01*
G75*
G02*
X33662500Y50480000I-147500J0D01*
G01*
X33367500Y50480000D01*
G75*
G02*
X33220000Y50627500I0J147500D01*
G01*
X33220000Y50972500D01*
G75*
G02*
X33367500Y51120000I147500J0D01*
G01*
X33662500Y51120000D01*
G75*
G02*
X33810000Y50972500I0J-147500D01*
G01*
G37*
G36*
G01*
X30510000Y16170000D02*
X30510000Y15830000D01*
G75*
G02*
X30370000Y15690000I-140000J0D01*
G01*
X30090000Y15690000D01*
G75*
G02*
X29950000Y15830000I0J140000D01*
G01*
X29950000Y16170000D01*
G75*
G02*
X30090000Y16310000I140000J0D01*
G01*
X30370000Y16310000D01*
G75*
G02*
X30510000Y16170000I0J-140000D01*
G01*
G37*
G36*
G01*
X29550000Y16170000D02*
X29550000Y15830000D01*
G75*
G02*
X29410000Y15690000I-140000J0D01*
G01*
X29130000Y15690000D01*
G75*
G02*
X28990000Y15830000I0J140000D01*
G01*
X28990000Y16170000D01*
G75*
G02*
X29130000Y16310000I140000J0D01*
G01*
X29410000Y16310000D01*
G75*
G02*
X29550000Y16170000I0J-140000D01*
G01*
G37*
G36*
G01*
X31990000Y10080000D02*
X31990000Y10420000D01*
G75*
G02*
X32130000Y10560000I140000J0D01*
G01*
X32410000Y10560000D01*
G75*
G02*
X32550000Y10420000I0J-140000D01*
G01*
X32550000Y10080000D01*
G75*
G02*
X32410000Y9940000I-140000J0D01*
G01*
X32130000Y9940000D01*
G75*
G02*
X31990000Y10080000I0J140000D01*
G01*
G37*
G36*
G01*
X32950000Y10080000D02*
X32950000Y10420000D01*
G75*
G02*
X33090000Y10560000I140000J0D01*
G01*
X33370000Y10560000D01*
G75*
G02*
X33510000Y10420000I0J-140000D01*
G01*
X33510000Y10080000D01*
G75*
G02*
X33370000Y9940000I-140000J0D01*
G01*
X33090000Y9940000D01*
G75*
G02*
X32950000Y10080000I0J140000D01*
G01*
G37*
G36*
G01*
X23740000Y21170000D02*
X23740000Y20830000D01*
G75*
G02*
X23600000Y20690000I-140000J0D01*
G01*
X23320000Y20690000D01*
G75*
G02*
X23180000Y20830000I0J140000D01*
G01*
X23180000Y21170000D01*
G75*
G02*
X23320000Y21310000I140000J0D01*
G01*
X23600000Y21310000D01*
G75*
G02*
X23740000Y21170000I0J-140000D01*
G01*
G37*
G36*
G01*
X22780000Y21170000D02*
X22780000Y20830000D01*
G75*
G02*
X22640000Y20690000I-140000J0D01*
G01*
X22360000Y20690000D01*
G75*
G02*
X22220000Y20830000I0J140000D01*
G01*
X22220000Y21170000D01*
G75*
G02*
X22360000Y21310000I140000J0D01*
G01*
X22640000Y21310000D01*
G75*
G02*
X22780000Y21170000I0J-140000D01*
G01*
G37*
G36*
G01*
X27490000Y26330000D02*
X27490000Y26670000D01*
G75*
G02*
X27630000Y26810000I140000J0D01*
G01*
X27910000Y26810000D01*
G75*
G02*
X28050000Y26670000I0J-140000D01*
G01*
X28050000Y26330000D01*
G75*
G02*
X27910000Y26190000I-140000J0D01*
G01*
X27630000Y26190000D01*
G75*
G02*
X27490000Y26330000I0J140000D01*
G01*
G37*
G36*
G01*
X28450000Y26330000D02*
X28450000Y26670000D01*
G75*
G02*
X28590000Y26810000I140000J0D01*
G01*
X28870000Y26810000D01*
G75*
G02*
X29010000Y26670000I0J-140000D01*
G01*
X29010000Y26330000D01*
G75*
G02*
X28870000Y26190000I-140000J0D01*
G01*
X28590000Y26190000D01*
G75*
G02*
X28450000Y26330000I0J140000D01*
G01*
G37*
G36*
G01*
X13970000Y13315000D02*
X13970000Y13685000D01*
G75*
G02*
X14105000Y13820000I135000J0D01*
G01*
X14375000Y13820000D01*
G75*
G02*
X14510000Y13685000I0J-135000D01*
G01*
X14510000Y13315000D01*
G75*
G02*
X14375000Y13180000I-135000J0D01*
G01*
X14105000Y13180000D01*
G75*
G02*
X13970000Y13315000I0J135000D01*
G01*
G37*
G36*
G01*
X14990000Y13315000D02*
X14990000Y13685000D01*
G75*
G02*
X15125000Y13820000I135000J0D01*
G01*
X15395000Y13820000D01*
G75*
G02*
X15530000Y13685000I0J-135000D01*
G01*
X15530000Y13315000D01*
G75*
G02*
X15395000Y13180000I-135000J0D01*
G01*
X15125000Y13180000D01*
G75*
G02*
X14990000Y13315000I0J135000D01*
G01*
G37*
G36*
G01*
X13700000Y20450000D02*
X12450000Y20450000D01*
G75*
G02*
X12300000Y20600000I0J150000D01*
G01*
X12300000Y20900000D01*
G75*
G02*
X12450000Y21050000I150000J0D01*
G01*
X13700000Y21050000D01*
G75*
G02*
X13850000Y20900000I0J-150000D01*
G01*
X13850000Y20600000D01*
G75*
G02*
X13700000Y20450000I-150000J0D01*
G01*
G37*
G36*
G01*
X13700000Y21450000D02*
X12450000Y21450000D01*
G75*
G02*
X12300000Y21600000I0J150000D01*
G01*
X12300000Y21900000D01*
G75*
G02*
X12450000Y22050000I150000J0D01*
G01*
X13700000Y22050000D01*
G75*
G02*
X13850000Y21900000I0J-150000D01*
G01*
X13850000Y21600000D01*
G75*
G02*
X13700000Y21450000I-150000J0D01*
G01*
G37*
G36*
G01*
X13700000Y22450000D02*
X12450000Y22450000D01*
G75*
G02*
X12300000Y22600000I0J150000D01*
G01*
X12300000Y22900000D01*
G75*
G02*
X12450000Y23050000I150000J0D01*
G01*
X13700000Y23050000D01*
G75*
G02*
X13850000Y22900000I0J-150000D01*
G01*
X13850000Y22600000D01*
G75*
G02*
X13700000Y22450000I-150000J0D01*
G01*
G37*
G36*
G01*
X13700000Y23450000D02*
X12450000Y23450000D01*
G75*
G02*
X12300000Y23600000I0J150000D01*
G01*
X12300000Y23900000D01*
G75*
G02*
X12450000Y24050000I150000J0D01*
G01*
X13700000Y24050000D01*
G75*
G02*
X13850000Y23900000I0J-150000D01*
G01*
X13850000Y23600000D01*
G75*
G02*
X13700000Y23450000I-150000J0D01*
G01*
G37*
G36*
G01*
X13700000Y24450000D02*
X12450000Y24450000D01*
G75*
G02*
X12300000Y24600000I0J150000D01*
G01*
X12300000Y24900000D01*
G75*
G02*
X12450000Y25050000I150000J0D01*
G01*
X13700000Y25050000D01*
G75*
G02*
X13850000Y24900000I0J-150000D01*
G01*
X13850000Y24600000D01*
G75*
G02*
X13700000Y24450000I-150000J0D01*
G01*
G37*
G36*
G01*
X11200000Y18850000D02*
X9900000Y18850000D01*
G75*
G02*
X9650000Y19100000I0J250000D01*
G01*
X9650000Y19800000D01*
G75*
G02*
X9900000Y20050000I250000J0D01*
G01*
X11200000Y20050000D01*
G75*
G02*
X11450000Y19800000I0J-250000D01*
G01*
X11450000Y19100000D01*
G75*
G02*
X11200000Y18850000I-250000J0D01*
G01*
G37*
G36*
G01*
X11200000Y25450000D02*
X9900000Y25450000D01*
G75*
G02*
X9650000Y25700000I0J250000D01*
G01*
X9650000Y26400000D01*
G75*
G02*
X9900000Y26650000I250000J0D01*
G01*
X11200000Y26650000D01*
G75*
G02*
X11450000Y26400000I0J-250000D01*
G01*
X11450000Y25700000D01*
G75*
G02*
X11200000Y25450000I-250000J0D01*
G01*
G37*
D16*
X33210000Y3550000D03*
X33210000Y7450000D03*
X34480000Y3550000D03*
X34480000Y7450000D03*
X35750000Y3550000D03*
X35750000Y7450000D03*
X37020000Y3550000D03*
X37020000Y7450000D03*
X38290000Y3550000D03*
X38290000Y7450000D03*
G36*
G01*
X30510000Y15170000D02*
X30510000Y14830000D01*
G75*
G02*
X30370000Y14690000I-140000J0D01*
G01*
X30090000Y14690000D01*
G75*
G02*
X29950000Y14830000I0J140000D01*
G01*
X29950000Y15170000D01*
G75*
G02*
X30090000Y15310000I140000J0D01*
G01*
X30370000Y15310000D01*
G75*
G02*
X30510000Y15170000I0J-140000D01*
G01*
G37*
G36*
G01*
X29550000Y15170000D02*
X29550000Y14830000D01*
G75*
G02*
X29410000Y14690000I-140000J0D01*
G01*
X29130000Y14690000D01*
G75*
G02*
X28990000Y14830000I0J140000D01*
G01*
X28990000Y15170000D01*
G75*
G02*
X29130000Y15310000I140000J0D01*
G01*
X29410000Y15310000D01*
G75*
G02*
X29550000Y15170000I0J-140000D01*
G01*
G37*
G36*
G01*
X30790000Y24435000D02*
X30790000Y24065000D01*
G75*
G02*
X30655000Y23930000I-135000J0D01*
G01*
X30385000Y23930000D01*
G75*
G02*
X30250000Y24065000I0J135000D01*
G01*
X30250000Y24435000D01*
G75*
G02*
X30385000Y24570000I135000J0D01*
G01*
X30655000Y24570000D01*
G75*
G02*
X30790000Y24435000I0J-135000D01*
G01*
G37*
G36*
G01*
X29770000Y24435000D02*
X29770000Y24065000D01*
G75*
G02*
X29635000Y23930000I-135000J0D01*
G01*
X29365000Y23930000D01*
G75*
G02*
X29230000Y24065000I0J135000D01*
G01*
X29230000Y24435000D01*
G75*
G02*
X29365000Y24570000I135000J0D01*
G01*
X29635000Y24570000D01*
G75*
G02*
X29770000Y24435000I0J-135000D01*
G01*
G37*
D17*
X23516343Y53253200D03*
D18*
X23516343Y54950000D03*
X21484343Y54950001D03*
X21484343Y53049999D03*
D19*
X25500000Y23000000D03*
X25000000Y23000000D03*
X24500000Y23000000D03*
X23500000Y23000000D03*
X23000000Y23000000D03*
X22500000Y23000000D03*
X22000000Y23000000D03*
X21500000Y23000000D03*
X20500000Y23000000D03*
X20000000Y23000000D03*
X19500000Y23000000D03*
X25500000Y23500000D03*
X25000000Y23500000D03*
X24500000Y23500000D03*
X23500000Y23500000D03*
X22000000Y23500000D03*
X21500000Y23500000D03*
X20000000Y23500000D03*
X19500000Y23500000D03*
X25500000Y24000000D03*
X25000000Y24000000D03*
X22500000Y24000000D03*
X20000000Y24000000D03*
X19500000Y24000000D03*
X25000000Y25000000D03*
X23500000Y25000000D03*
X23000000Y25000000D03*
X22500000Y25000000D03*
X22000000Y25000000D03*
X21500000Y25000000D03*
X20000000Y25000000D03*
X19500000Y25000000D03*
X25500000Y25500000D03*
X25000000Y25500000D03*
X23500000Y25500000D03*
X22000000Y25500000D03*
X21500000Y25500000D03*
X20000000Y25500000D03*
X19500000Y25500000D03*
X25500000Y26000000D03*
X25000000Y26000000D03*
X24500000Y26000000D03*
X23500000Y26000000D03*
X23000000Y26000000D03*
X22000000Y26000000D03*
X20500000Y26000000D03*
X20000000Y26000000D03*
X19500000Y26000000D03*
X25500000Y26500000D03*
X25000000Y26500000D03*
X23500000Y26500000D03*
X22000000Y26500000D03*
X20000000Y26500000D03*
X19500000Y26500000D03*
X25500000Y27000000D03*
X25000000Y27000000D03*
X23500000Y27000000D03*
X23000000Y27000000D03*
X22500000Y27000000D03*
X20000000Y27000000D03*
X19500000Y27000000D03*
X25500000Y28000000D03*
X25000000Y28000000D03*
X22500000Y28000000D03*
X20000000Y28000000D03*
X19500000Y28000000D03*
X25500000Y28500000D03*
X25000000Y28500000D03*
X24500000Y28500000D03*
X23500000Y28500000D03*
X23000000Y28500000D03*
X22500000Y28500000D03*
X22000000Y28500000D03*
X21500000Y28500000D03*
X20500000Y28500000D03*
X20000000Y28500000D03*
X19500000Y28500000D03*
X25500000Y29000000D03*
X25000000Y29000000D03*
X24500000Y29000000D03*
X23500000Y29000000D03*
X23000000Y29000000D03*
X22500000Y29000000D03*
X21500000Y29000000D03*
X20500000Y29000000D03*
X20000000Y29000000D03*
X19500000Y29000000D03*
G36*
G01*
X28990000Y10580000D02*
X28990000Y10920000D01*
G75*
G02*
X29130000Y11060000I140000J0D01*
G01*
X29410000Y11060000D01*
G75*
G02*
X29550000Y10920000I0J-140000D01*
G01*
X29550000Y10580000D01*
G75*
G02*
X29410000Y10440000I-140000J0D01*
G01*
X29130000Y10440000D01*
G75*
G02*
X28990000Y10580000I0J140000D01*
G01*
G37*
G36*
G01*
X29950000Y10580000D02*
X29950000Y10920000D01*
G75*
G02*
X30090000Y11060000I140000J0D01*
G01*
X30370000Y11060000D01*
G75*
G02*
X30510000Y10920000I0J-140000D01*
G01*
X30510000Y10580000D01*
G75*
G02*
X30370000Y10440000I-140000J0D01*
G01*
X30090000Y10440000D01*
G75*
G02*
X29950000Y10580000I0J140000D01*
G01*
G37*
G36*
G01*
X26172500Y54470000D02*
X25827500Y54470000D01*
G75*
G02*
X25680000Y54617500I0J147500D01*
G01*
X25680000Y54912500D01*
G75*
G02*
X25827500Y55060000I147500J0D01*
G01*
X26172500Y55060000D01*
G75*
G02*
X26320000Y54912500I0J-147500D01*
G01*
X26320000Y54617500D01*
G75*
G02*
X26172500Y54470000I-147500J0D01*
G01*
G37*
G36*
G01*
X26172500Y55440000D02*
X25827500Y55440000D01*
G75*
G02*
X25680000Y55587500I0J147500D01*
G01*
X25680000Y55882500D01*
G75*
G02*
X25827500Y56030000I147500J0D01*
G01*
X26172500Y56030000D01*
G75*
G02*
X26320000Y55882500I0J-147500D01*
G01*
X26320000Y55587500D01*
G75*
G02*
X26172500Y55440000I-147500J0D01*
G01*
G37*
G36*
G01*
X31120000Y50615000D02*
X31120000Y50985000D01*
G75*
G02*
X31255000Y51120000I135000J0D01*
G01*
X31525000Y51120000D01*
G75*
G02*
X31660000Y50985000I0J-135000D01*
G01*
X31660000Y50615000D01*
G75*
G02*
X31525000Y50480000I-135000J0D01*
G01*
X31255000Y50480000D01*
G75*
G02*
X31120000Y50615000I0J135000D01*
G01*
G37*
G36*
G01*
X32140000Y50615000D02*
X32140000Y50985000D01*
G75*
G02*
X32275000Y51120000I135000J0D01*
G01*
X32545000Y51120000D01*
G75*
G02*
X32680000Y50985000I0J-135000D01*
G01*
X32680000Y50615000D01*
G75*
G02*
X32545000Y50480000I-135000J0D01*
G01*
X32275000Y50480000D01*
G75*
G02*
X32140000Y50615000I0J135000D01*
G01*
G37*
G36*
G01*
X29010000Y11580000D02*
X29010000Y11920000D01*
G75*
G02*
X29150000Y12060000I140000J0D01*
G01*
X29430000Y12060000D01*
G75*
G02*
X29570000Y11920000I0J-140000D01*
G01*
X29570000Y11580000D01*
G75*
G02*
X29430000Y11440000I-140000J0D01*
G01*
X29150000Y11440000D01*
G75*
G02*
X29010000Y11580000I0J140000D01*
G01*
G37*
G36*
G01*
X29970000Y11580000D02*
X29970000Y11920000D01*
G75*
G02*
X30110000Y12060000I140000J0D01*
G01*
X30390000Y12060000D01*
G75*
G02*
X30530000Y11920000I0J-140000D01*
G01*
X30530000Y11580000D01*
G75*
G02*
X30390000Y11440000I-140000J0D01*
G01*
X30110000Y11440000D01*
G75*
G02*
X29970000Y11580000I0J140000D01*
G01*
G37*
G36*
G01*
X19685000Y53470000D02*
X19315000Y53470000D01*
G75*
G02*
X19180000Y53605000I0J135000D01*
G01*
X19180000Y53875000D01*
G75*
G02*
X19315000Y54010000I135000J0D01*
G01*
X19685000Y54010000D01*
G75*
G02*
X19820000Y53875000I0J-135000D01*
G01*
X19820000Y53605000D01*
G75*
G02*
X19685000Y53470000I-135000J0D01*
G01*
G37*
G36*
G01*
X19685000Y54490000D02*
X19315000Y54490000D01*
G75*
G02*
X19180000Y54625000I0J135000D01*
G01*
X19180000Y54895000D01*
G75*
G02*
X19315000Y55030000I135000J0D01*
G01*
X19685000Y55030000D01*
G75*
G02*
X19820000Y54895000I0J-135000D01*
G01*
X19820000Y54625000D01*
G75*
G02*
X19685000Y54490000I-135000J0D01*
G01*
G37*
M02*
