G04 #@! TF.GenerationSoftware,KiCad,Pcbnew,6.0.7+dfsg-1~bpo11+1*
G04 #@! TF.CreationDate,2022-10-07T12:23:40+00:00*
G04 #@! TF.ProjectId,redshift,72656473-6869-4667-942e-6b696361645f,0.2*
G04 #@! TF.SameCoordinates,Original*
G04 #@! TF.FileFunction,Copper,L3,Inr*
G04 #@! TF.FilePolarity,Positive*
%FSLAX46Y46*%
G04 Gerber Fmt 4.6, Leading zero omitted, Abs format (unit mm)*
G04 Created by KiCad (PCBNEW 6.0.7+dfsg-1~bpo11+1) date 2022-10-07 12:23:40*
%MOMM*%
%LPD*%
G01*
G04 APERTURE LIST*
G04 #@! TA.AperFunction,ComponentPad*
%ADD10C,1.700000*%
G04 #@! TD*
G04 #@! TA.AperFunction,ComponentPad*
%ADD11O,2.700000X1.700000*%
G04 #@! TD*
G04 #@! TA.AperFunction,ComponentPad*
%ADD12O,1.050000X2.100000*%
G04 #@! TD*
G04 #@! TA.AperFunction,ComponentPad*
%ADD13O,1.000000X2.000000*%
G04 #@! TD*
G04 #@! TA.AperFunction,ComponentPad*
%ADD14R,1.350000X1.350000*%
G04 #@! TD*
G04 #@! TA.AperFunction,ComponentPad*
%ADD15O,1.350000X1.350000*%
G04 #@! TD*
G04 #@! TA.AperFunction,ComponentPad*
%ADD16R,1.400000X1.400000*%
G04 #@! TD*
G04 #@! TA.AperFunction,ComponentPad*
%ADD17C,1.400000*%
G04 #@! TD*
G04 #@! TA.AperFunction,ViaPad*
%ADD18C,0.450000*%
G04 #@! TD*
G04 #@! TA.AperFunction,ViaPad*
%ADD19C,0.500000*%
G04 #@! TD*
G04 #@! TA.AperFunction,ViaPad*
%ADD20C,0.800000*%
G04 #@! TD*
G04 #@! TA.AperFunction,Conductor*
%ADD21C,0.250000*%
G04 #@! TD*
G04 #@! TA.AperFunction,Conductor*
%ADD22C,0.450000*%
G04 #@! TD*
G04 APERTURE END LIST*
D10*
X14000000Y38500000D03*
X14000000Y41000000D03*
X14000000Y43500000D03*
D11*
X12000000Y46200000D03*
X12000000Y35800000D03*
D12*
X26820000Y57820000D03*
D13*
X26820000Y62000000D03*
X18180000Y62000000D03*
D12*
X18180000Y57820000D03*
D10*
X34000000Y44080000D03*
X34000000Y39000000D03*
X34000000Y33920000D03*
D14*
X42750000Y18500000D03*
D15*
X42750000Y16500000D03*
X42750000Y14500000D03*
X42750000Y12500000D03*
X42750000Y10500000D03*
X42750000Y8500000D03*
D16*
X27850000Y5015000D03*
D17*
X27850000Y6795000D03*
X27850000Y8575000D03*
X27850000Y10355000D03*
X27850000Y12135000D03*
X27850000Y13915000D03*
X27850000Y15695000D03*
X27850000Y17475000D03*
X17150000Y18365000D03*
X17150000Y16585000D03*
X17150000Y14805000D03*
X17150000Y13025000D03*
X17150000Y11245000D03*
X17150000Y9465000D03*
X17150000Y7685000D03*
X17150000Y5905000D03*
D10*
X41000000Y46080000D03*
X41000000Y41000000D03*
X41000000Y35920000D03*
X4000000Y46080000D03*
X4000000Y41000000D03*
X4000000Y35920000D03*
D18*
X31750000Y48500000D03*
D19*
X25700000Y53000000D03*
X32300000Y14900000D03*
X23500000Y31000000D03*
X31250000Y24250000D03*
X16000000Y29500000D03*
X30750000Y15000000D03*
X23500000Y20500000D03*
X30750000Y16000000D03*
X27250000Y26500000D03*
X8500000Y31750000D03*
X31400000Y51900000D03*
X19500000Y20500000D03*
X31250000Y23250000D03*
X27750000Y28000000D03*
X16000000Y27500000D03*
X21500000Y20500000D03*
X10750000Y7750000D03*
X24549011Y21549011D03*
X27250000Y25500000D03*
D20*
X38000000Y750000D03*
D19*
X16000000Y28500000D03*
X32250000Y9750000D03*
X21250000Y54500000D03*
X23042518Y27792518D03*
X23000000Y30000000D03*
X23750000Y54500000D03*
X21000000Y58750000D03*
X44000000Y22750000D03*
X25718767Y56218767D03*
X24000000Y58750000D03*
X24759355Y56495456D03*
X21143360Y26586598D03*
X4750000Y31250000D03*
D18*
X25250000Y20750000D03*
D19*
X21620878Y27870878D03*
X35725500Y14500000D03*
X13000000Y16500000D03*
X14475500Y16500000D03*
X20750000Y25500000D03*
X16024500Y19000000D03*
X13000000Y19000000D03*
X22750000Y23500000D03*
X14975500Y12750000D03*
X13000000Y12750000D03*
D18*
X20519107Y27979752D03*
D19*
X17500000Y21549011D03*
X14000000Y19524500D03*
X21500000Y21725500D03*
X21500000Y29750000D03*
X21700989Y24250000D03*
X29270000Y26500000D03*
X27000000Y56250000D03*
X30750000Y11750000D03*
X29250000Y28500000D03*
X13500000Y13500000D03*
X31250000Y22250000D03*
X19000000Y53750000D03*
X24451727Y24042359D03*
X19925500Y29475980D03*
X35750000Y5000000D03*
X25000000Y51000000D03*
X26600989Y31000000D03*
D20*
X34750000Y750000D03*
D19*
X30000000Y33250000D03*
X18475011Y27000000D03*
X22500000Y20500000D03*
X33000000Y12000000D03*
X25750000Y31000000D03*
X38250000Y5000000D03*
X35500000Y50750000D03*
X20500000Y20500000D03*
X34500000Y5000000D03*
X33750000Y10250000D03*
X25000000Y55090500D03*
X30750000Y12750000D03*
X30250000Y28500000D03*
X17000000Y53750000D03*
X34520000Y13730000D03*
X22528381Y31028381D03*
X29250000Y25500000D03*
X18374500Y56250000D03*
D18*
X26250000Y26500000D03*
D19*
X18500000Y20500000D03*
X14250000Y22750000D03*
X39750000Y20250000D03*
X20544503Y24500000D03*
X14250000Y21750000D03*
X20944011Y23500000D03*
X14250000Y20750000D03*
D18*
X22750000Y26480497D03*
X22750000Y25500000D03*
X24000000Y28250000D03*
X24000000Y27000000D03*
X18500000Y26000000D03*
D20*
X5750000Y41000000D03*
X6334080Y39232867D03*
D18*
X18750000Y28000000D03*
D19*
X35750000Y6125500D03*
X24250000Y25451727D03*
X40250000Y9725500D03*
D18*
X26250000Y25500000D03*
D19*
X38750000Y10250000D03*
X38750000Y11250000D03*
X30000000Y25000000D03*
X23397276Y24250011D03*
X26250000Y20750000D03*
X35725500Y13500000D03*
X37000000Y8750000D03*
X22500000Y22250000D03*
X44000000Y20000000D03*
X33250000Y5000000D03*
D21*
X31750000Y48500000D02*
X31375000Y48125000D01*
X32250000Y14950000D02*
X32250000Y47250000D01*
X32250000Y47250000D02*
X31375000Y48125000D01*
X26500000Y53000000D02*
X31375000Y48125000D01*
X32300000Y14900000D02*
X32250000Y14950000D01*
X25700000Y53000000D02*
X26500000Y53000000D01*
D22*
X25718767Y56218767D02*
X25036044Y56218767D01*
X25036044Y56218767D02*
X24759355Y56495456D01*
X24000000Y58750000D02*
X24759355Y57990645D01*
X24759355Y57990645D02*
X24759355Y56495456D01*
X21000000Y58750000D02*
X24000000Y58750000D01*
X44000000Y22750000D02*
X44000000Y45750000D01*
X44000000Y45750000D02*
X36250000Y53500000D01*
X28437534Y53500000D02*
X25718767Y56218767D01*
X36250000Y53500000D02*
X28437534Y53500000D01*
X44250000Y7750000D02*
X44250000Y17250000D01*
X44250000Y19750000D02*
X44000000Y20000000D01*
X44250000Y17250000D02*
X44250000Y19750000D01*
X35000000Y6750000D02*
X43250000Y6750000D01*
X44250000Y17250000D02*
X43500000Y16500000D01*
X33250000Y5000000D02*
X35000000Y6750000D01*
X43500000Y16500000D02*
X42750000Y16500000D01*
X43250000Y6750000D02*
X44250000Y7750000D01*
G04 #@! TA.AperFunction,Conductor*
G36*
X27941121Y63478998D02*
G01*
X27987614Y63425342D01*
X27999000Y63373000D01*
X27999000Y56013685D01*
X27997755Y56000000D01*
X27994707Y56000000D01*
X27996487Y55972847D01*
X27999730Y55923366D01*
X28000000Y55915125D01*
X28000000Y54772761D01*
X27979998Y54704640D01*
X27926342Y54658147D01*
X27856068Y54648043D01*
X27791488Y54677537D01*
X27784905Y54683666D01*
X26827523Y55641048D01*
X26793497Y55703360D01*
X26798562Y55774175D01*
X26841109Y55831011D01*
X26907629Y55855822D01*
X26936328Y55854592D01*
X26990206Y55846059D01*
X26990207Y55846059D01*
X27000000Y55844508D01*
X27009793Y55846059D01*
X27115513Y55862803D01*
X27115515Y55862804D01*
X27125304Y55864354D01*
X27238342Y55921950D01*
X27328050Y56011658D01*
X27385646Y56124696D01*
X27395408Y56186328D01*
X27403941Y56240207D01*
X27405492Y56250000D01*
X27385646Y56375304D01*
X27328050Y56488342D01*
X27238342Y56578050D01*
X27240174Y56579882D01*
X27205729Y56624549D01*
X27199653Y56695286D01*
X27232785Y56758077D01*
X27240305Y56765204D01*
X27325681Y56839683D01*
X27419693Y56973448D01*
X27479083Y57125776D01*
X27495500Y57250473D01*
X27495500Y58385996D01*
X27480819Y58507313D01*
X27423027Y58660255D01*
X27382759Y58718845D01*
X27334723Y58788738D01*
X27334722Y58788739D01*
X27330421Y58794997D01*
X27208348Y58903760D01*
X27201638Y58907313D01*
X27070566Y58976712D01*
X27070564Y58976713D01*
X27063855Y58980265D01*
X27003787Y58995353D01*
X26912655Y59018244D01*
X26912651Y59018244D01*
X26905284Y59020095D01*
X26897685Y59020135D01*
X26897683Y59020135D01*
X26829653Y59020491D01*
X26741790Y59020951D01*
X26734410Y59019179D01*
X26734408Y59019179D01*
X26590189Y58984556D01*
X26590185Y58984555D01*
X26582810Y58982784D01*
X26437524Y58907796D01*
X26431802Y58902804D01*
X26431800Y58902803D01*
X26320044Y58805312D01*
X26320041Y58805309D01*
X26314319Y58800317D01*
X26220307Y58666552D01*
X26160917Y58514224D01*
X26144500Y58389527D01*
X26144500Y57254004D01*
X26159181Y57132687D01*
X26216973Y56979745D01*
X26309579Y56845003D01*
X26315249Y56839952D01*
X26315250Y56839950D01*
X26370615Y56790622D01*
X26431652Y56736240D01*
X26438361Y56732688D01*
X26438362Y56732687D01*
X26569434Y56663288D01*
X26569436Y56663287D01*
X26576145Y56659735D01*
X26583508Y56657886D01*
X26583512Y56657884D01*
X26585142Y56657475D01*
X26586200Y56656853D01*
X26590602Y56655163D01*
X26590320Y56654429D01*
X26646338Y56621482D01*
X26678360Y56558117D01*
X26671040Y56487498D01*
X26666715Y56478068D01*
X26614354Y56375304D01*
X26594508Y56250000D01*
X26596059Y56240207D01*
X26596059Y56240206D01*
X26604592Y56186328D01*
X26595492Y56115917D01*
X26549770Y56061603D01*
X26481941Y56040631D01*
X26413542Y56059659D01*
X26391048Y56077523D01*
X26097659Y56370912D01*
X26074487Y56402804D01*
X26046817Y56457109D01*
X25957109Y56546817D01*
X25844071Y56604413D01*
X25834282Y56605963D01*
X25834280Y56605964D01*
X25728560Y56622708D01*
X25718767Y56624259D01*
X25708974Y56622708D01*
X25696675Y56620760D01*
X25593463Y56604413D01*
X25585390Y56600300D01*
X25547300Y56594267D01*
X25260855Y56594267D01*
X25192734Y56614269D01*
X25146241Y56667925D01*
X25134855Y56720267D01*
X25134855Y57731322D01*
X25154857Y57799443D01*
X25208513Y57845936D01*
X25280240Y57855822D01*
X25312948Y57850729D01*
X25352956Y57844500D01*
X25424145Y57844500D01*
X25463589Y57850149D01*
X25515943Y57857646D01*
X25515946Y57857647D01*
X25524829Y57858919D01*
X25648820Y57915294D01*
X25752004Y58004204D01*
X25826087Y58118499D01*
X25865113Y58248994D01*
X25865945Y58385196D01*
X25839383Y58478136D01*
X25830983Y58507527D01*
X25830982Y58507529D01*
X25828516Y58516158D01*
X25755835Y58631350D01*
X25723107Y58660255D01*
X25660473Y58715571D01*
X25653745Y58721513D01*
X25645622Y58725327D01*
X25645620Y58725328D01*
X25572211Y58759793D01*
X25530452Y58779399D01*
X25521588Y58780779D01*
X25521585Y58780780D01*
X25458103Y58790664D01*
X25427044Y58795500D01*
X25355855Y58795500D01*
X25316411Y58789851D01*
X25264057Y58782354D01*
X25264054Y58782353D01*
X25255171Y58781081D01*
X25131180Y58724706D01*
X25027996Y58635796D01*
X25023112Y58628261D01*
X24962176Y58534250D01*
X24908339Y58487966D01*
X24838027Y58478136D01*
X24773561Y58507881D01*
X24767349Y58513688D01*
X24378892Y58902145D01*
X24355720Y58934037D01*
X24328050Y58988342D01*
X24238342Y59078050D01*
X24125304Y59135646D01*
X24115515Y59137196D01*
X24115513Y59137197D01*
X24009793Y59153941D01*
X24000000Y59155492D01*
X23874696Y59135646D01*
X23866623Y59131533D01*
X23828533Y59125500D01*
X21171467Y59125500D01*
X21133377Y59131533D01*
X21125304Y59135646D01*
X21000000Y59155492D01*
X20990207Y59153941D01*
X20884487Y59137197D01*
X20884485Y59137196D01*
X20874696Y59135646D01*
X20761658Y59078050D01*
X20671950Y58988342D01*
X20614354Y58875304D01*
X20594508Y58750000D01*
X20596059Y58740207D01*
X20612359Y58637294D01*
X20614354Y58624696D01*
X20671950Y58511658D01*
X20761658Y58421950D01*
X20874696Y58364354D01*
X20884485Y58362804D01*
X20884487Y58362803D01*
X20990207Y58346059D01*
X21000000Y58344508D01*
X21125304Y58364354D01*
X21133377Y58368467D01*
X21171467Y58374500D01*
X23792273Y58374500D01*
X23860394Y58354498D01*
X23881368Y58337595D01*
X24346950Y57872013D01*
X24380976Y57809701D01*
X24383855Y57782918D01*
X24383855Y56666923D01*
X24377822Y56628833D01*
X24373709Y56620760D01*
X24353863Y56495456D01*
X24355414Y56485663D01*
X24361336Y56448276D01*
X24373709Y56370152D01*
X24431305Y56257114D01*
X24521013Y56167406D01*
X24575318Y56139736D01*
X24607210Y56116564D01*
X24732696Y55991078D01*
X24747421Y55972847D01*
X24748822Y55971307D01*
X24754472Y55962557D01*
X24762650Y55956110D01*
X24780509Y55942031D01*
X24784876Y55938150D01*
X24784942Y55938228D01*
X24788900Y55934874D01*
X24792582Y55931192D01*
X24796813Y55928169D01*
X24796816Y55928166D01*
X24801635Y55924723D01*
X24808096Y55920106D01*
X24812825Y55916555D01*
X24852644Y55885164D01*
X24861193Y55882162D01*
X24868563Y55876895D01*
X24917122Y55862373D01*
X24922763Y55860540D01*
X24939701Y55854592D01*
X24970592Y55843744D01*
X24976099Y55843267D01*
X24978806Y55843267D01*
X24981378Y55843156D01*
X24981538Y55843108D01*
X24981532Y55842964D01*
X24982150Y55842925D01*
X24988330Y55841077D01*
X25041599Y55843170D01*
X25046545Y55843267D01*
X25511040Y55843267D01*
X25579161Y55823265D01*
X25600135Y55806362D01*
X28134186Y53272311D01*
X28148911Y53254080D01*
X28150312Y53252540D01*
X28155962Y53243790D01*
X28164140Y53237343D01*
X28181999Y53223264D01*
X28186366Y53219383D01*
X28186432Y53219461D01*
X28190390Y53216107D01*
X28194072Y53212425D01*
X28198303Y53209402D01*
X28198306Y53209399D01*
X28203125Y53205956D01*
X28209586Y53201339D01*
X28214315Y53197788D01*
X28254134Y53166397D01*
X28262683Y53163395D01*
X28270053Y53158128D01*
X28318612Y53143606D01*
X28324253Y53141773D01*
X28364598Y53127605D01*
X28372082Y53124977D01*
X28377589Y53124500D01*
X28380296Y53124500D01*
X28382868Y53124389D01*
X28383028Y53124341D01*
X28383022Y53124197D01*
X28383640Y53124158D01*
X28389820Y53122310D01*
X28443089Y53124403D01*
X28448035Y53124500D01*
X36042273Y53124500D01*
X36110394Y53104498D01*
X36131368Y53087595D01*
X43587595Y45631368D01*
X43621621Y45569056D01*
X43624500Y45542273D01*
X43624500Y22921467D01*
X43618467Y22883377D01*
X43614354Y22875304D01*
X43594508Y22750000D01*
X43596059Y22740207D01*
X43612620Y22635646D01*
X43614354Y22624696D01*
X43671950Y22511658D01*
X43761658Y22421950D01*
X43874696Y22364354D01*
X43884485Y22362804D01*
X43884487Y22362803D01*
X43990207Y22346059D01*
X44000000Y22344508D01*
X44009793Y22346059D01*
X44115513Y22362803D01*
X44115515Y22362804D01*
X44125304Y22364354D01*
X44238342Y22421950D01*
X44328050Y22511658D01*
X44385646Y22624696D01*
X44387381Y22635646D01*
X44403941Y22740207D01*
X44405492Y22750000D01*
X44385646Y22875304D01*
X44381533Y22883377D01*
X44375500Y22921467D01*
X44375500Y45696503D01*
X44377979Y45719791D01*
X44378078Y45721889D01*
X44380269Y45732066D01*
X44376373Y45764984D01*
X44376029Y45770821D01*
X44375928Y45770813D01*
X44375500Y45775992D01*
X44375500Y45781193D01*
X44372372Y45799987D01*
X44371535Y45805863D01*
X44366800Y45845867D01*
X44365576Y45856210D01*
X44361654Y45864377D01*
X44360167Y45873313D01*
X44355223Y45882475D01*
X44355222Y45882479D01*
X44336094Y45917929D01*
X44333398Y45923220D01*
X44314897Y45961749D01*
X44314896Y45961750D01*
X44311463Y45968900D01*
X44307906Y45973131D01*
X44305974Y45975063D01*
X44304255Y45976937D01*
X44304181Y45977074D01*
X44304291Y45977174D01*
X44303868Y45977654D01*
X44300806Y45983329D01*
X44261632Y46019541D01*
X44258067Y46022970D01*
X36553348Y53727689D01*
X36538623Y53745920D01*
X36537222Y53747460D01*
X36531572Y53756210D01*
X36508942Y53774050D01*
X36467829Y53831931D01*
X36464535Y53902851D01*
X36500106Y53964294D01*
X36563249Y53996751D01*
X36586948Y53999000D01*
X41996710Y53999000D01*
X42003305Y53998827D01*
X42266322Y53985042D01*
X42266791Y53985017D01*
X42308840Y53982656D01*
X42321486Y53981303D01*
X42353265Y53976270D01*
X42518893Y53950037D01*
X42520170Y53949827D01*
X42629945Y53931174D01*
X42641449Y53928662D01*
X42758932Y53897183D01*
X42821271Y53880479D01*
X42823503Y53879858D01*
X42943493Y53845289D01*
X42953763Y53841846D01*
X43122270Y53777162D01*
X43125299Y53775954D01*
X43164316Y53759793D01*
X43245795Y53726043D01*
X43254780Y53721901D01*
X43413041Y53641263D01*
X43416786Y53639274D01*
X43533315Y53574871D01*
X43540992Y53570265D01*
X43688581Y53474419D01*
X43692869Y53471508D01*
X43802697Y53393581D01*
X43809079Y53388740D01*
X43945199Y53278511D01*
X43949863Y53274543D01*
X43968898Y53257533D01*
X44050758Y53184378D01*
X44055875Y53179539D01*
X44179539Y53055875D01*
X44184378Y53050758D01*
X44220987Y53009793D01*
X44274543Y52949863D01*
X44278511Y52945199D01*
X44388740Y52809079D01*
X44393581Y52802697D01*
X44471508Y52692869D01*
X44474419Y52688581D01*
X44570265Y52540992D01*
X44574871Y52533315D01*
X44639274Y52416786D01*
X44641263Y52413041D01*
X44721901Y52254780D01*
X44726043Y52245795D01*
X44775947Y52125317D01*
X44777169Y52122253D01*
X44841845Y51953765D01*
X44845289Y51943493D01*
X44879858Y51823503D01*
X44880490Y51821232D01*
X44928662Y51641449D01*
X44931174Y51629945D01*
X44949827Y51520170D01*
X44950037Y51518893D01*
X44967998Y51405492D01*
X44981303Y51321486D01*
X44982656Y51308841D01*
X44985023Y51266694D01*
X44985048Y51266223D01*
X44998827Y51003304D01*
X44999000Y50996710D01*
X44999000Y3003290D01*
X44998827Y2996696D01*
X44985048Y2733777D01*
X44985023Y2733306D01*
X44982656Y2691159D01*
X44981303Y2678514D01*
X44950037Y2481107D01*
X44949827Y2479830D01*
X44931174Y2370055D01*
X44928662Y2358551D01*
X44880490Y2178768D01*
X44879858Y2176497D01*
X44845289Y2056507D01*
X44841845Y2046235D01*
X44777169Y1877747D01*
X44775947Y1874683D01*
X44726043Y1754205D01*
X44721901Y1745220D01*
X44641263Y1586959D01*
X44639274Y1583214D01*
X44574871Y1466685D01*
X44570265Y1459008D01*
X44474419Y1311419D01*
X44471508Y1307131D01*
X44393581Y1197303D01*
X44388740Y1190921D01*
X44278511Y1054801D01*
X44274543Y1050137D01*
X44184378Y949242D01*
X44179539Y944125D01*
X44055875Y820461D01*
X44050758Y815622D01*
X43968898Y742467D01*
X43949863Y725457D01*
X43945199Y721489D01*
X43809079Y611260D01*
X43802697Y606419D01*
X43692869Y528492D01*
X43688581Y525581D01*
X43540992Y429735D01*
X43533315Y425129D01*
X43416786Y360726D01*
X43413041Y358737D01*
X43254780Y278099D01*
X43245795Y273957D01*
X43226530Y265977D01*
X43125299Y224046D01*
X43122270Y222838D01*
X42953765Y158155D01*
X42943493Y154711D01*
X42823503Y120142D01*
X42821271Y119521D01*
X42758932Y102817D01*
X42641449Y71338D01*
X42629945Y68826D01*
X42520170Y50173D01*
X42518893Y49963D01*
X42353265Y23730D01*
X42321486Y18697D01*
X42308840Y17344D01*
X42266791Y14983D01*
X42266322Y14958D01*
X42003305Y1173D01*
X41996710Y1000D01*
X35013724Y1000D01*
X34945603Y21002D01*
X34899110Y74658D01*
X34889006Y144932D01*
X34918500Y209512D01*
X34965507Y243409D01*
X35019993Y265977D01*
X35019998Y265980D01*
X35027625Y269139D01*
X35142621Y357379D01*
X35230861Y472375D01*
X35286330Y606291D01*
X35305250Y750000D01*
X35286330Y893709D01*
X35230861Y1027625D01*
X35142621Y1142621D01*
X35027625Y1230861D01*
X34893709Y1286330D01*
X34750000Y1305250D01*
X34606291Y1286330D01*
X34472375Y1230861D01*
X34357379Y1142621D01*
X34269139Y1027625D01*
X34213670Y893709D01*
X34194750Y750000D01*
X34213670Y606291D01*
X34269139Y472375D01*
X34357379Y357379D01*
X34472375Y269139D01*
X34480002Y265980D01*
X34480007Y265977D01*
X34534493Y243409D01*
X34589774Y198861D01*
X34612196Y131498D01*
X34594638Y62707D01*
X34542677Y14328D01*
X34486276Y1000D01*
X3003290Y1000D01*
X2996695Y1173D01*
X2733678Y14958D01*
X2733209Y14983D01*
X2691160Y17344D01*
X2678514Y18697D01*
X2646735Y23730D01*
X2481107Y49963D01*
X2479830Y50173D01*
X2370055Y68826D01*
X2358551Y71338D01*
X2241068Y102817D01*
X2178729Y119521D01*
X2176497Y120142D01*
X2056507Y154711D01*
X2046235Y158155D01*
X1877730Y222838D01*
X1874701Y224046D01*
X1773470Y265977D01*
X1754205Y273957D01*
X1745220Y278099D01*
X1586959Y358737D01*
X1583214Y360726D01*
X1466685Y425129D01*
X1459008Y429735D01*
X1311419Y525581D01*
X1307131Y528492D01*
X1197303Y606419D01*
X1190921Y611260D01*
X1054801Y721489D01*
X1050137Y725457D01*
X1031102Y742467D01*
X949242Y815622D01*
X944125Y820461D01*
X820461Y944125D01*
X815622Y949242D01*
X725457Y1050137D01*
X721489Y1054801D01*
X611260Y1190921D01*
X606419Y1197303D01*
X528492Y1307131D01*
X525581Y1311419D01*
X429735Y1459008D01*
X425129Y1466685D01*
X360726Y1583214D01*
X358737Y1586959D01*
X278099Y1745220D01*
X273957Y1754205D01*
X224053Y1874683D01*
X222831Y1877747D01*
X158155Y2046235D01*
X154711Y2056507D01*
X120142Y2176497D01*
X119510Y2178768D01*
X71338Y2358551D01*
X68826Y2370055D01*
X50173Y2479830D01*
X49963Y2481107D01*
X18697Y2678514D01*
X17344Y2691159D01*
X14977Y2733306D01*
X14952Y2733777D01*
X1173Y2996696D01*
X1000Y3003290D01*
X1000Y12750000D01*
X12594508Y12750000D01*
X12596059Y12740207D01*
X12611523Y12642573D01*
X12614354Y12624696D01*
X12671950Y12511658D01*
X12761658Y12421950D01*
X12874696Y12364354D01*
X12884485Y12362804D01*
X12884487Y12362803D01*
X12990207Y12346059D01*
X13000000Y12344508D01*
X13009793Y12346059D01*
X13115513Y12362803D01*
X13115515Y12362804D01*
X13125304Y12364354D01*
X13238342Y12421950D01*
X13328050Y12511658D01*
X13385646Y12624696D01*
X13388478Y12642573D01*
X13403941Y12740207D01*
X13405492Y12750000D01*
X14570008Y12750000D01*
X14571559Y12740207D01*
X14587023Y12642573D01*
X14589854Y12624696D01*
X14647450Y12511658D01*
X14737158Y12421950D01*
X14850196Y12364354D01*
X14859985Y12362804D01*
X14859987Y12362803D01*
X14965707Y12346059D01*
X14975500Y12344508D01*
X14985293Y12346059D01*
X15091013Y12362803D01*
X15091015Y12362804D01*
X15100804Y12364354D01*
X15213842Y12421950D01*
X15303550Y12511658D01*
X15361146Y12624696D01*
X15363978Y12642573D01*
X15379441Y12740207D01*
X15380992Y12750000D01*
X15361146Y12875304D01*
X15303550Y12988342D01*
X15213842Y13078050D01*
X15100804Y13135646D01*
X15091015Y13137196D01*
X15091013Y13137197D01*
X14985293Y13153941D01*
X14975500Y13155492D01*
X14965707Y13153941D01*
X14859987Y13137197D01*
X14859985Y13137196D01*
X14850196Y13135646D01*
X14737158Y13078050D01*
X14647450Y12988342D01*
X14589854Y12875304D01*
X14570008Y12750000D01*
X13405492Y12750000D01*
X13385646Y12875304D01*
X13381144Y12884140D01*
X13366380Y12913117D01*
X13353276Y12982893D01*
X13379976Y13048678D01*
X13438004Y13089584D01*
X13480289Y13093217D01*
X13480289Y13096059D01*
X13490207Y13096059D01*
X13500000Y13094508D01*
X13509793Y13096059D01*
X13615513Y13112803D01*
X13615515Y13112804D01*
X13625304Y13114354D01*
X13738342Y13171950D01*
X13828050Y13261658D01*
X13885646Y13374696D01*
X13891608Y13412335D01*
X13903941Y13490207D01*
X13905492Y13500000D01*
X13903941Y13509793D01*
X13887197Y13615513D01*
X13887196Y13615515D01*
X13885646Y13625304D01*
X13828050Y13738342D01*
X13738342Y13828050D01*
X13625304Y13885646D01*
X13615515Y13887196D01*
X13615513Y13887197D01*
X13509793Y13903941D01*
X13500000Y13905492D01*
X13490207Y13903941D01*
X13384487Y13887197D01*
X13384485Y13887196D01*
X13374696Y13885646D01*
X13261658Y13828050D01*
X13171950Y13738342D01*
X13114354Y13625304D01*
X13112804Y13615515D01*
X13112803Y13615513D01*
X13096059Y13509793D01*
X13094508Y13500000D01*
X13096059Y13490207D01*
X13108393Y13412335D01*
X13114354Y13374696D01*
X13118855Y13365863D01*
X13118856Y13365860D01*
X13133620Y13336883D01*
X13146724Y13267107D01*
X13120024Y13201322D01*
X13061996Y13160416D01*
X13019711Y13156783D01*
X13019711Y13153941D01*
X13009793Y13153941D01*
X13000000Y13155492D01*
X12990207Y13153941D01*
X12884487Y13137197D01*
X12884485Y13137196D01*
X12874696Y13135646D01*
X12761658Y13078050D01*
X12671950Y12988342D01*
X12614354Y12875304D01*
X12594508Y12750000D01*
X1000Y12750000D01*
X1000Y16500000D01*
X12594508Y16500000D01*
X12596059Y16490207D01*
X12611794Y16390861D01*
X12614354Y16374696D01*
X12671950Y16261658D01*
X12761658Y16171950D01*
X12874696Y16114354D01*
X12884485Y16112804D01*
X12884487Y16112803D01*
X12990207Y16096059D01*
X13000000Y16094508D01*
X13009793Y16096059D01*
X13115513Y16112803D01*
X13115515Y16112804D01*
X13125304Y16114354D01*
X13238342Y16171950D01*
X13328050Y16261658D01*
X13385646Y16374696D01*
X13388207Y16390861D01*
X13403941Y16490207D01*
X13405492Y16500000D01*
X14070008Y16500000D01*
X14071559Y16490207D01*
X14087294Y16390861D01*
X14089854Y16374696D01*
X14147450Y16261658D01*
X14237158Y16171950D01*
X14350196Y16114354D01*
X14359985Y16112804D01*
X14359987Y16112803D01*
X14465707Y16096059D01*
X14475500Y16094508D01*
X14485293Y16096059D01*
X14591013Y16112803D01*
X14591015Y16112804D01*
X14600804Y16114354D01*
X14713842Y16171950D01*
X14803550Y16261658D01*
X14861146Y16374696D01*
X14863707Y16390861D01*
X14879441Y16490207D01*
X14880992Y16500000D01*
X14867720Y16583800D01*
X14862697Y16615513D01*
X14862696Y16615515D01*
X14861146Y16625304D01*
X14803550Y16738342D01*
X14713842Y16828050D01*
X14600804Y16885646D01*
X14591015Y16887196D01*
X14591013Y16887197D01*
X14485293Y16903941D01*
X14475500Y16905492D01*
X14465707Y16903941D01*
X14359987Y16887197D01*
X14359985Y16887196D01*
X14350196Y16885646D01*
X14237158Y16828050D01*
X14147450Y16738342D01*
X14089854Y16625304D01*
X14088304Y16615515D01*
X14088303Y16615513D01*
X14083280Y16583800D01*
X14070008Y16500000D01*
X13405492Y16500000D01*
X13392220Y16583800D01*
X13387197Y16615513D01*
X13387196Y16615515D01*
X13385646Y16625304D01*
X13328050Y16738342D01*
X13238342Y16828050D01*
X13125304Y16885646D01*
X13115515Y16887196D01*
X13115513Y16887197D01*
X13009793Y16903941D01*
X13000000Y16905492D01*
X12990207Y16903941D01*
X12884487Y16887197D01*
X12884485Y16887196D01*
X12874696Y16885646D01*
X12761658Y16828050D01*
X12671950Y16738342D01*
X12614354Y16625304D01*
X12612804Y16615515D01*
X12612803Y16615513D01*
X12607780Y16583800D01*
X12594508Y16500000D01*
X1000Y16500000D01*
X1000Y19000000D01*
X12594508Y19000000D01*
X12614354Y18874696D01*
X12671950Y18761658D01*
X12761658Y18671950D01*
X12874696Y18614354D01*
X12884485Y18612804D01*
X12884487Y18612803D01*
X12990207Y18596059D01*
X13000000Y18594508D01*
X13009793Y18596059D01*
X13115513Y18612803D01*
X13115515Y18612804D01*
X13125304Y18614354D01*
X13238342Y18671950D01*
X13328050Y18761658D01*
X13385646Y18874696D01*
X13405492Y19000000D01*
X15619008Y19000000D01*
X15638854Y18874696D01*
X15696450Y18761658D01*
X15786158Y18671950D01*
X15899196Y18614354D01*
X15908985Y18612804D01*
X15908987Y18612803D01*
X16014707Y18596059D01*
X16024500Y18594508D01*
X16146211Y18613785D01*
X16146214Y18613785D01*
X16149804Y18614354D01*
X16149878Y18613890D01*
X16213700Y18615711D01*
X16274496Y18579047D01*
X16305819Y18515334D01*
X16306974Y18480683D01*
X16294815Y18365000D01*
X16295505Y18358435D01*
X16302874Y18288329D01*
X16313503Y18187197D01*
X16368750Y18017165D01*
X16458141Y17862335D01*
X16462559Y17857428D01*
X16462560Y17857427D01*
X16553924Y17755958D01*
X16577770Y17729474D01*
X16583109Y17725595D01*
X16683298Y17652803D01*
X16722407Y17624388D01*
X16728433Y17621705D01*
X16728440Y17621701D01*
X16799403Y17590107D01*
X16853499Y17544127D01*
X16874149Y17476200D01*
X16854797Y17407892D01*
X16799404Y17359893D01*
X16728438Y17328297D01*
X16728436Y17328296D01*
X16722408Y17325612D01*
X16577770Y17220526D01*
X16573357Y17215624D01*
X16573355Y17215623D01*
X16519384Y17155682D01*
X16458141Y17087665D01*
X16368750Y16932835D01*
X16313503Y16762803D01*
X16312813Y16756240D01*
X16312813Y16756239D01*
X16302081Y16654127D01*
X16294815Y16585000D01*
X16295505Y16578435D01*
X16302874Y16508329D01*
X16313503Y16407197D01*
X16315543Y16400920D01*
X16315543Y16400918D01*
X16337155Y16334405D01*
X16368750Y16237165D01*
X16372053Y16231443D01*
X16372054Y16231442D01*
X16426649Y16136880D01*
X16458141Y16082335D01*
X16462559Y16077428D01*
X16462560Y16077427D01*
X16516223Y16017829D01*
X16577770Y15949474D01*
X16583109Y15945595D01*
X16683298Y15872803D01*
X16722407Y15844388D01*
X16728433Y15841705D01*
X16728440Y15841701D01*
X16799403Y15810107D01*
X16853499Y15764127D01*
X16874149Y15696200D01*
X16854797Y15627892D01*
X16799404Y15579893D01*
X16728438Y15548297D01*
X16728436Y15548296D01*
X16722408Y15545612D01*
X16577770Y15440526D01*
X16458141Y15307665D01*
X16454838Y15301944D01*
X16398283Y15203987D01*
X16368750Y15152835D01*
X16364041Y15138342D01*
X16330183Y15034137D01*
X16313503Y14982803D01*
X16312813Y14976240D01*
X16312813Y14976239D01*
X16297238Y14828050D01*
X16294815Y14805000D01*
X16295505Y14798435D01*
X16312774Y14634137D01*
X16313503Y14627197D01*
X16368750Y14457165D01*
X16458141Y14302335D01*
X16462559Y14297428D01*
X16462560Y14297427D01*
X16501080Y14254647D01*
X16577770Y14169474D01*
X16583109Y14165595D01*
X16683298Y14092803D01*
X16722407Y14064388D01*
X16728433Y14061705D01*
X16728440Y14061701D01*
X16799403Y14030107D01*
X16853499Y13984127D01*
X16874149Y13916200D01*
X16854797Y13847892D01*
X16799404Y13799893D01*
X16728438Y13768297D01*
X16728436Y13768296D01*
X16722408Y13765612D01*
X16717067Y13761732D01*
X16717066Y13761731D01*
X16650356Y13713263D01*
X16577770Y13660526D01*
X16458141Y13527665D01*
X16454838Y13521944D01*
X16385560Y13401950D01*
X16368750Y13372835D01*
X16313503Y13202803D01*
X16312813Y13196240D01*
X16312813Y13196239D01*
X16302284Y13096059D01*
X16294815Y13025000D01*
X16295505Y13018435D01*
X16302874Y12948329D01*
X16313503Y12847197D01*
X16368750Y12677165D01*
X16458141Y12522335D01*
X16462559Y12517428D01*
X16462560Y12517427D01*
X16542216Y12428961D01*
X16577770Y12389474D01*
X16583109Y12385595D01*
X16683298Y12312803D01*
X16722407Y12284388D01*
X16728433Y12281705D01*
X16728440Y12281701D01*
X16799403Y12250107D01*
X16853499Y12204127D01*
X16874149Y12136200D01*
X16854797Y12067892D01*
X16799404Y12019893D01*
X16728438Y11988297D01*
X16728436Y11988296D01*
X16722408Y11985612D01*
X16577770Y11880526D01*
X16573357Y11875624D01*
X16573355Y11875623D01*
X16462560Y11752573D01*
X16458141Y11747665D01*
X16454838Y11741944D01*
X16380279Y11612803D01*
X16368750Y11592835D01*
X16313503Y11422803D01*
X16312813Y11416240D01*
X16312813Y11416239D01*
X16302081Y11314127D01*
X16294815Y11245000D01*
X16295505Y11238435D01*
X16307460Y11124696D01*
X16313503Y11067197D01*
X16368750Y10897165D01*
X16372053Y10891443D01*
X16372054Y10891442D01*
X16391555Y10857665D01*
X16458141Y10742335D01*
X16462559Y10737428D01*
X16462560Y10737427D01*
X16554205Y10635646D01*
X16577770Y10609474D01*
X16583109Y10605595D01*
X16683298Y10532803D01*
X16722407Y10504388D01*
X16728433Y10501705D01*
X16728440Y10501701D01*
X16799403Y10470107D01*
X16853499Y10424127D01*
X16874149Y10356200D01*
X16854797Y10287892D01*
X16799404Y10239893D01*
X16728438Y10208297D01*
X16728436Y10208296D01*
X16722408Y10205612D01*
X16717067Y10201732D01*
X16717066Y10201731D01*
X16596846Y10114386D01*
X16577770Y10100526D01*
X16573357Y10095624D01*
X16573355Y10095623D01*
X16493739Y10007201D01*
X16458141Y9967665D01*
X16454838Y9961944D01*
X16385019Y9841013D01*
X16368750Y9812835D01*
X16357585Y9778473D01*
X16335525Y9710578D01*
X16313503Y9642803D01*
X16312813Y9636240D01*
X16312813Y9636239D01*
X16302081Y9534127D01*
X16294815Y9465000D01*
X16295505Y9458435D01*
X16302874Y9388329D01*
X16313503Y9287197D01*
X16368750Y9117165D01*
X16458141Y8962335D01*
X16462559Y8957428D01*
X16462560Y8957427D01*
X16565298Y8843326D01*
X16577770Y8829474D01*
X16583109Y8825595D01*
X16683298Y8752803D01*
X16722407Y8724388D01*
X16728433Y8721705D01*
X16728440Y8721701D01*
X16799403Y8690107D01*
X16853499Y8644127D01*
X16874149Y8576200D01*
X16854797Y8507892D01*
X16799404Y8459893D01*
X16728438Y8428297D01*
X16728436Y8428296D01*
X16722408Y8425612D01*
X16577770Y8320526D01*
X16458141Y8187665D01*
X16368750Y8032835D01*
X16313503Y7862803D01*
X16312813Y7856240D01*
X16312813Y7856239D01*
X16302753Y7760527D01*
X16294815Y7685000D01*
X16295505Y7678435D01*
X16311688Y7524470D01*
X16313503Y7507197D01*
X16315543Y7500920D01*
X16315543Y7500918D01*
X16316220Y7498835D01*
X16368750Y7337165D01*
X16458141Y7182335D01*
X16462559Y7177428D01*
X16462560Y7177427D01*
X16570178Y7057906D01*
X16577770Y7049474D01*
X16583109Y7045595D01*
X16683298Y6972803D01*
X16722407Y6944388D01*
X16728433Y6941705D01*
X16728440Y6941701D01*
X16799403Y6910107D01*
X16853499Y6864127D01*
X16874149Y6796200D01*
X16854797Y6727892D01*
X16799404Y6679893D01*
X16728438Y6648297D01*
X16728436Y6648296D01*
X16722408Y6645612D01*
X16577770Y6540526D01*
X16573357Y6535624D01*
X16573355Y6535623D01*
X16489890Y6442926D01*
X16458141Y6407665D01*
X16454838Y6401944D01*
X16426878Y6353515D01*
X16368750Y6252835D01*
X16313503Y6082803D01*
X16312813Y6076240D01*
X16312813Y6076239D01*
X16301277Y5966477D01*
X16294815Y5905000D01*
X16295505Y5898435D01*
X16299885Y5856767D01*
X16313503Y5727197D01*
X16368750Y5557165D01*
X16458141Y5402335D01*
X16462559Y5397428D01*
X16462560Y5397427D01*
X16531341Y5321039D01*
X16577770Y5269474D01*
X16583109Y5265595D01*
X16632777Y5229509D01*
X16722407Y5164388D01*
X16728435Y5161704D01*
X16728437Y5161703D01*
X16879702Y5094356D01*
X16885733Y5091671D01*
X16973171Y5073085D01*
X17054152Y5055872D01*
X17054156Y5055872D01*
X17060609Y5054500D01*
X17239391Y5054500D01*
X17245844Y5055872D01*
X17245848Y5055872D01*
X17326829Y5073085D01*
X17414267Y5091671D01*
X17420298Y5094356D01*
X17571563Y5161703D01*
X17571565Y5161704D01*
X17577593Y5164388D01*
X17667224Y5229509D01*
X17716891Y5265595D01*
X17722230Y5269474D01*
X17768660Y5321039D01*
X17837440Y5397427D01*
X17837441Y5397428D01*
X17841859Y5402335D01*
X17931250Y5557165D01*
X17953167Y5624618D01*
X17993241Y5683224D01*
X18058637Y5710861D01*
X18128594Y5698754D01*
X18180900Y5650748D01*
X18199000Y5585682D01*
X18199000Y2235198D01*
X18198918Y2235000D01*
X18199000Y2234802D01*
X18199235Y2234235D01*
X18200000Y2233918D01*
X18200198Y2234000D01*
X26799802Y2234000D01*
X26800000Y2233918D01*
X26800765Y2234235D01*
X26801000Y2234802D01*
X26801082Y2235000D01*
X26801000Y2235198D01*
X26801000Y4151059D01*
X26821002Y4219180D01*
X26874658Y4265673D01*
X26944932Y4275777D01*
X27009512Y4246283D01*
X27031763Y4221062D01*
X27041496Y4206496D01*
X27051815Y4199601D01*
X27080958Y4180128D01*
X27080960Y4180127D01*
X27091278Y4173233D01*
X27135180Y4164500D01*
X28564820Y4164500D01*
X28608722Y4173233D01*
X28619040Y4180127D01*
X28619042Y4180128D01*
X28648185Y4199601D01*
X28658504Y4206496D01*
X28668235Y4221059D01*
X28684872Y4245958D01*
X28684873Y4245960D01*
X28691767Y4256278D01*
X28700500Y4300180D01*
X28700500Y5000000D01*
X32844508Y5000000D01*
X32864354Y4874696D01*
X32921950Y4761658D01*
X33011658Y4671950D01*
X33124696Y4614354D01*
X33134485Y4612804D01*
X33134487Y4612803D01*
X33240207Y4596059D01*
X33250000Y4594508D01*
X33259793Y4596059D01*
X33365513Y4612803D01*
X33365515Y4612804D01*
X33375304Y4614354D01*
X33488342Y4671950D01*
X33578050Y4761658D01*
X33605720Y4815962D01*
X33628891Y4847853D01*
X33880964Y5099926D01*
X33943276Y5133952D01*
X34014091Y5128887D01*
X34070927Y5086340D01*
X34095738Y5019820D01*
X34096059Y5010831D01*
X34096059Y5009793D01*
X34094508Y5000000D01*
X34114354Y4874696D01*
X34171950Y4761658D01*
X34261658Y4671950D01*
X34374696Y4614354D01*
X34384485Y4612804D01*
X34384487Y4612803D01*
X34490207Y4596059D01*
X34500000Y4594508D01*
X34509793Y4596059D01*
X34615513Y4612803D01*
X34615515Y4612804D01*
X34625304Y4614354D01*
X34738342Y4671950D01*
X34828050Y4761658D01*
X34885646Y4874696D01*
X34905492Y5000000D01*
X35344508Y5000000D01*
X35364354Y4874696D01*
X35421950Y4761658D01*
X35511658Y4671950D01*
X35624696Y4614354D01*
X35634485Y4612804D01*
X35634487Y4612803D01*
X35740207Y4596059D01*
X35750000Y4594508D01*
X35759793Y4596059D01*
X35865513Y4612803D01*
X35865515Y4612804D01*
X35875304Y4614354D01*
X35988342Y4671950D01*
X36078050Y4761658D01*
X36135646Y4874696D01*
X36155492Y5000000D01*
X37844508Y5000000D01*
X37864354Y4874696D01*
X37921950Y4761658D01*
X38011658Y4671950D01*
X38124696Y4614354D01*
X38134485Y4612804D01*
X38134487Y4612803D01*
X38240207Y4596059D01*
X38250000Y4594508D01*
X38259793Y4596059D01*
X38365513Y4612803D01*
X38365515Y4612804D01*
X38375304Y4614354D01*
X38488342Y4671950D01*
X38578050Y4761658D01*
X38635646Y4874696D01*
X38655492Y5000000D01*
X38640548Y5094356D01*
X38637197Y5115513D01*
X38637196Y5115515D01*
X38635646Y5125304D01*
X38578050Y5238342D01*
X38488342Y5328050D01*
X38375304Y5385646D01*
X38365515Y5387196D01*
X38365513Y5387197D01*
X38259793Y5403941D01*
X38250000Y5405492D01*
X38240207Y5403941D01*
X38134487Y5387197D01*
X38134485Y5387196D01*
X38124696Y5385646D01*
X38011658Y5328050D01*
X37921950Y5238342D01*
X37864354Y5125304D01*
X37862804Y5115515D01*
X37862803Y5115513D01*
X37859452Y5094356D01*
X37844508Y5000000D01*
X36155492Y5000000D01*
X36140548Y5094356D01*
X36137197Y5115513D01*
X36137196Y5115515D01*
X36135646Y5125304D01*
X36078050Y5238342D01*
X35988342Y5328050D01*
X35875304Y5385646D01*
X35865515Y5387196D01*
X35865513Y5387197D01*
X35759793Y5403941D01*
X35750000Y5405492D01*
X35740207Y5403941D01*
X35634487Y5387197D01*
X35634485Y5387196D01*
X35624696Y5385646D01*
X35511658Y5328050D01*
X35421950Y5238342D01*
X35364354Y5125304D01*
X35362804Y5115515D01*
X35362803Y5115513D01*
X35359452Y5094356D01*
X35344508Y5000000D01*
X34905492Y5000000D01*
X34890548Y5094356D01*
X34887197Y5115513D01*
X34887196Y5115515D01*
X34885646Y5125304D01*
X34828050Y5238342D01*
X34738342Y5328050D01*
X34625304Y5385646D01*
X34615515Y5387196D01*
X34615513Y5387197D01*
X34509793Y5403941D01*
X34500000Y5405492D01*
X34490207Y5403941D01*
X34489169Y5403941D01*
X34421048Y5423943D01*
X34374555Y5477599D01*
X34364451Y5547873D01*
X34393945Y5612453D01*
X34400074Y5619036D01*
X35118633Y6337595D01*
X35180945Y6371621D01*
X35207728Y6374500D01*
X35236418Y6374500D01*
X35304539Y6354498D01*
X35351032Y6300842D01*
X35360867Y6228790D01*
X35346059Y6135294D01*
X35344508Y6125500D01*
X35364354Y6000196D01*
X35421950Y5887158D01*
X35511658Y5797450D01*
X35624696Y5739854D01*
X35634485Y5738304D01*
X35634487Y5738303D01*
X35740207Y5721559D01*
X35750000Y5720008D01*
X35759793Y5721559D01*
X35865513Y5738303D01*
X35865515Y5738304D01*
X35875304Y5739854D01*
X35988342Y5797450D01*
X36078050Y5887158D01*
X36135646Y6000196D01*
X36155492Y6125500D01*
X36153941Y6135294D01*
X36139133Y6228790D01*
X36148233Y6299201D01*
X36193955Y6353515D01*
X36263582Y6374500D01*
X43196504Y6374500D01*
X43219801Y6372021D01*
X43221886Y6371923D01*
X43232066Y6369731D01*
X43264984Y6373627D01*
X43270821Y6373971D01*
X43270813Y6374072D01*
X43275992Y6374500D01*
X43281193Y6374500D01*
X43286321Y6375354D01*
X43286327Y6375354D01*
X43299987Y6377628D01*
X43305863Y6378465D01*
X43310952Y6379067D01*
X43356210Y6384424D01*
X43364377Y6388346D01*
X43373313Y6389833D01*
X43382475Y6394777D01*
X43382479Y6394778D01*
X43417929Y6413906D01*
X43423220Y6416602D01*
X43461749Y6435103D01*
X43461750Y6435104D01*
X43468900Y6438537D01*
X43473131Y6442094D01*
X43475063Y6444026D01*
X43476937Y6445745D01*
X43477074Y6445819D01*
X43477174Y6445709D01*
X43477654Y6446132D01*
X43483329Y6449194D01*
X43519540Y6488366D01*
X43522969Y6491931D01*
X44477692Y7446654D01*
X44495909Y7461367D01*
X44497460Y7462778D01*
X44506210Y7468428D01*
X44512658Y7476608D01*
X44512661Y7476610D01*
X44526734Y7494461D01*
X44530621Y7498835D01*
X44530543Y7498901D01*
X44533898Y7502860D01*
X44537576Y7506538D01*
X44540595Y7510762D01*
X44540602Y7510771D01*
X44548679Y7522074D01*
X44552243Y7526820D01*
X44577154Y7558420D01*
X44583603Y7566600D01*
X44586605Y7575148D01*
X44591872Y7582519D01*
X44606396Y7631083D01*
X44608231Y7636730D01*
X44622395Y7677064D01*
X44622395Y7677065D01*
X44625023Y7684548D01*
X44625500Y7690055D01*
X44625500Y7692762D01*
X44625611Y7695332D01*
X44625659Y7695494D01*
X44625804Y7695488D01*
X44625843Y7696108D01*
X44627691Y7702287D01*
X44625597Y7755581D01*
X44625500Y7760527D01*
X44625500Y17190667D01*
X44625842Y17196108D01*
X44627690Y17202286D01*
X44625597Y17255555D01*
X44625500Y17260501D01*
X44625500Y19696504D01*
X44627979Y19719792D01*
X44628078Y19721890D01*
X44630269Y19732067D01*
X44626373Y19764985D01*
X44626029Y19770821D01*
X44625928Y19770813D01*
X44625500Y19775992D01*
X44625500Y19781193D01*
X44622371Y19799993D01*
X44621534Y19805870D01*
X44616800Y19845866D01*
X44615576Y19856210D01*
X44611654Y19864377D01*
X44610167Y19873313D01*
X44605223Y19882475D01*
X44605222Y19882479D01*
X44586094Y19917929D01*
X44583398Y19923220D01*
X44564897Y19961749D01*
X44564896Y19961750D01*
X44561463Y19968900D01*
X44557906Y19973131D01*
X44555974Y19975063D01*
X44554255Y19976937D01*
X44554181Y19977074D01*
X44554291Y19977174D01*
X44553868Y19977654D01*
X44550806Y19983329D01*
X44532772Y20000000D01*
X44511633Y20019540D01*
X44508067Y20022970D01*
X44378892Y20152145D01*
X44355720Y20184037D01*
X44328050Y20238342D01*
X44238342Y20328050D01*
X44125304Y20385646D01*
X44115515Y20387196D01*
X44115513Y20387197D01*
X44009793Y20403941D01*
X44000000Y20405492D01*
X43990207Y20403941D01*
X43884487Y20387197D01*
X43884485Y20387196D01*
X43874696Y20385646D01*
X43761658Y20328050D01*
X43671950Y20238342D01*
X43614354Y20125304D01*
X43612804Y20115515D01*
X43612803Y20115513D01*
X43612374Y20112803D01*
X43594508Y20000000D01*
X43596059Y19990207D01*
X43608494Y19911697D01*
X43614354Y19874696D01*
X43671950Y19761658D01*
X43761658Y19671950D01*
X43805704Y19649507D01*
X43857318Y19600760D01*
X43874500Y19537241D01*
X43874500Y17457727D01*
X43854498Y17389606D01*
X43837595Y17368632D01*
X43532148Y17063185D01*
X43469836Y17029159D01*
X43399021Y17034224D01*
X43349417Y17067970D01*
X43309832Y17111934D01*
X43309831Y17111935D01*
X43305410Y17116845D01*
X43198365Y17194618D01*
X43170366Y17214961D01*
X43170365Y17214962D01*
X43165024Y17218842D01*
X43158996Y17221526D01*
X43158994Y17221527D01*
X43012530Y17286737D01*
X43012529Y17286737D01*
X43006499Y17289422D01*
X42921632Y17307461D01*
X42843221Y17324128D01*
X42843217Y17324128D01*
X42836764Y17325500D01*
X42663236Y17325500D01*
X42656783Y17324128D01*
X42656779Y17324128D01*
X42578369Y17307461D01*
X42493501Y17289422D01*
X42487472Y17286738D01*
X42487470Y17286737D01*
X42341007Y17221527D01*
X42341005Y17221526D01*
X42334977Y17218842D01*
X42329636Y17214962D01*
X42329635Y17214961D01*
X42217445Y17133450D01*
X42194590Y17116845D01*
X42190169Y17111935D01*
X42190168Y17111934D01*
X42105158Y17017520D01*
X42078478Y16987889D01*
X41991714Y16837611D01*
X41969448Y16769082D01*
X41958176Y16734388D01*
X41938092Y16672576D01*
X41919953Y16500000D01*
X41938092Y16327424D01*
X41991714Y16162389D01*
X42078478Y16012111D01*
X42194590Y15883155D01*
X42334976Y15781158D01*
X42341004Y15778474D01*
X42341006Y15778473D01*
X42439771Y15734500D01*
X42493501Y15710578D01*
X42572436Y15693800D01*
X42656779Y15675872D01*
X42656783Y15675872D01*
X42663236Y15674500D01*
X42836764Y15674500D01*
X42843217Y15675872D01*
X42843221Y15675872D01*
X42927564Y15693800D01*
X43006499Y15710578D01*
X43060229Y15734500D01*
X43158994Y15778473D01*
X43158996Y15778474D01*
X43165024Y15781158D01*
X43305410Y15883155D01*
X43421522Y16012111D01*
X43451904Y16064733D01*
X43503288Y16113726D01*
X43540332Y16126021D01*
X43550022Y16127634D01*
X43555863Y16128465D01*
X43560952Y16129067D01*
X43606210Y16134424D01*
X43614377Y16138346D01*
X43623313Y16139833D01*
X43632475Y16144777D01*
X43632479Y16144778D01*
X43667929Y16163906D01*
X43673218Y16166601D01*
X43693957Y16176560D01*
X43764023Y16188017D01*
X43829160Y16159775D01*
X43868689Y16100800D01*
X43874500Y16062977D01*
X43874500Y7957727D01*
X43854498Y7889606D01*
X43837595Y7868632D01*
X43131368Y7162405D01*
X43069056Y7128379D01*
X43042273Y7125500D01*
X35053496Y7125500D01*
X35030199Y7127979D01*
X35028114Y7128077D01*
X35017934Y7130269D01*
X34985014Y7126373D01*
X34979179Y7126029D01*
X34979187Y7125928D01*
X34974009Y7125500D01*
X34968807Y7125500D01*
X34950013Y7122372D01*
X34944146Y7121537D01*
X34930668Y7119942D01*
X34893791Y7115577D01*
X34885622Y7111654D01*
X34876687Y7110167D01*
X34832064Y7086089D01*
X34826801Y7083408D01*
X34810087Y7075382D01*
X34781100Y7061463D01*
X34776869Y7057906D01*
X34774937Y7055974D01*
X34773063Y7054255D01*
X34772926Y7054181D01*
X34772826Y7054291D01*
X34772346Y7053868D01*
X34766671Y7050806D01*
X34759602Y7043159D01*
X34759601Y7043158D01*
X34730460Y7011633D01*
X34727030Y7008067D01*
X33097855Y5378892D01*
X33065963Y5355720D01*
X33011658Y5328050D01*
X32921950Y5238342D01*
X32864354Y5125304D01*
X32862804Y5115515D01*
X32862803Y5115513D01*
X32859452Y5094356D01*
X32844508Y5000000D01*
X28700500Y5000000D01*
X28700500Y5729820D01*
X28691767Y5773722D01*
X28684873Y5784040D01*
X28684872Y5784042D01*
X28665399Y5813185D01*
X28658504Y5823504D01*
X28625429Y5845604D01*
X28619042Y5849872D01*
X28619040Y5849873D01*
X28608722Y5856767D01*
X28564820Y5865500D01*
X28405398Y5865500D01*
X28337277Y5885502D01*
X28290784Y5939158D01*
X28280680Y6009432D01*
X28310174Y6074012D01*
X28331337Y6093436D01*
X28361991Y6115707D01*
X28422230Y6159474D01*
X28541859Y6292335D01*
X28588793Y6373627D01*
X28627946Y6441442D01*
X28627947Y6441443D01*
X28631250Y6447165D01*
X28686497Y6617197D01*
X28697127Y6718329D01*
X28704495Y6788435D01*
X28705185Y6795000D01*
X28697919Y6864127D01*
X28687187Y6966239D01*
X28687187Y6966240D01*
X28686497Y6972803D01*
X28657690Y7061463D01*
X28643471Y7105223D01*
X28631250Y7142835D01*
X28541859Y7297665D01*
X28422230Y7430526D01*
X28370063Y7468428D01*
X28282935Y7531731D01*
X28282933Y7531732D01*
X28277593Y7535612D01*
X28271567Y7538295D01*
X28271560Y7538299D01*
X28200597Y7569893D01*
X28146501Y7615873D01*
X28125851Y7683800D01*
X28145203Y7752108D01*
X28200597Y7800107D01*
X28271560Y7831701D01*
X28271567Y7831705D01*
X28277593Y7834388D01*
X28316703Y7862803D01*
X28416891Y7935595D01*
X28422230Y7939474D01*
X28492782Y8017829D01*
X28537440Y8067427D01*
X28537441Y8067428D01*
X28541859Y8072335D01*
X28631250Y8227165D01*
X28686497Y8397197D01*
X28697127Y8498329D01*
X28704495Y8568435D01*
X28705185Y8575000D01*
X28697919Y8644127D01*
X28687187Y8746239D01*
X28687187Y8746240D01*
X28686792Y8750000D01*
X36594508Y8750000D01*
X36596059Y8740207D01*
X36610082Y8651671D01*
X36614354Y8624696D01*
X36671950Y8511658D01*
X36761658Y8421950D01*
X36874696Y8364354D01*
X36884485Y8362804D01*
X36884487Y8362803D01*
X36990207Y8346059D01*
X37000000Y8344508D01*
X37009793Y8346059D01*
X37115513Y8362803D01*
X37115515Y8362804D01*
X37125304Y8364354D01*
X37238342Y8421950D01*
X37316392Y8500000D01*
X41919953Y8500000D01*
X41938092Y8327424D01*
X41991714Y8162389D01*
X42078478Y8012111D01*
X42082899Y8007201D01*
X42188782Y7889606D01*
X42194590Y7883155D01*
X42334976Y7781158D01*
X42341004Y7778474D01*
X42341006Y7778473D01*
X42487470Y7713263D01*
X42493501Y7710578D01*
X42566974Y7694961D01*
X42656779Y7675872D01*
X42656783Y7675872D01*
X42663236Y7674500D01*
X42836764Y7674500D01*
X42843217Y7675872D01*
X42843221Y7675872D01*
X42933026Y7694961D01*
X43006499Y7710578D01*
X43012530Y7713263D01*
X43158994Y7778473D01*
X43158996Y7778474D01*
X43165024Y7781158D01*
X43305410Y7883155D01*
X43311219Y7889606D01*
X43417101Y8007201D01*
X43421522Y8012111D01*
X43508286Y8162389D01*
X43561908Y8327424D01*
X43580047Y8500000D01*
X43579218Y8507892D01*
X43567869Y8615863D01*
X43561908Y8672576D01*
X43508286Y8837611D01*
X43421522Y8987889D01*
X43305410Y9116845D01*
X43176470Y9210526D01*
X43170366Y9214961D01*
X43170365Y9214962D01*
X43165024Y9218842D01*
X43158996Y9221526D01*
X43158994Y9221527D01*
X43012530Y9286737D01*
X43012529Y9286737D01*
X43006499Y9289422D01*
X42901543Y9311731D01*
X42843221Y9324128D01*
X42843217Y9324128D01*
X42836764Y9325500D01*
X42663236Y9325500D01*
X42656783Y9324128D01*
X42656779Y9324128D01*
X42598457Y9311731D01*
X42493501Y9289422D01*
X42487472Y9286738D01*
X42487470Y9286737D01*
X42341007Y9221527D01*
X42341005Y9221526D01*
X42334977Y9218842D01*
X42329636Y9214962D01*
X42329635Y9214961D01*
X42234281Y9145682D01*
X42194590Y9116845D01*
X42078478Y8987889D01*
X41991714Y8837611D01*
X41938092Y8672576D01*
X41932131Y8615863D01*
X41920783Y8507892D01*
X41919953Y8500000D01*
X37316392Y8500000D01*
X37328050Y8511658D01*
X37385646Y8624696D01*
X37389919Y8651671D01*
X37403941Y8740207D01*
X37405492Y8750000D01*
X37400543Y8781246D01*
X37387197Y8865513D01*
X37387196Y8865515D01*
X37385646Y8875304D01*
X37328050Y8988342D01*
X37238342Y9078050D01*
X37125304Y9135646D01*
X37115515Y9137196D01*
X37115513Y9137197D01*
X37009793Y9153941D01*
X37000000Y9155492D01*
X36990207Y9153941D01*
X36884487Y9137197D01*
X36884485Y9137196D01*
X36874696Y9135646D01*
X36761658Y9078050D01*
X36671950Y8988342D01*
X36614354Y8875304D01*
X36612804Y8865515D01*
X36612803Y8865513D01*
X36599457Y8781246D01*
X36594508Y8750000D01*
X28686792Y8750000D01*
X28686497Y8752803D01*
X28631250Y8922835D01*
X28541859Y9077665D01*
X28493705Y9131145D01*
X28426645Y9205623D01*
X28426643Y9205624D01*
X28422230Y9210526D01*
X28317336Y9286737D01*
X28282935Y9311731D01*
X28282933Y9311732D01*
X28277593Y9315612D01*
X28271567Y9318295D01*
X28271560Y9318299D01*
X28200597Y9349893D01*
X28146501Y9395873D01*
X28125851Y9463800D01*
X28145203Y9532108D01*
X28200597Y9580107D01*
X28271560Y9611701D01*
X28271567Y9611705D01*
X28277593Y9614388D01*
X28316703Y9642803D01*
X28416891Y9715595D01*
X28422230Y9719474D01*
X28449716Y9750000D01*
X31844508Y9750000D01*
X31846059Y9740207D01*
X31860492Y9649082D01*
X31864354Y9624696D01*
X31921950Y9511658D01*
X32011658Y9421950D01*
X32124696Y9364354D01*
X32134485Y9362804D01*
X32134487Y9362803D01*
X32240207Y9346059D01*
X32250000Y9344508D01*
X32259793Y9346059D01*
X32365513Y9362803D01*
X32365515Y9362804D01*
X32375304Y9364354D01*
X32488342Y9421950D01*
X32578050Y9511658D01*
X32635646Y9624696D01*
X32639509Y9649082D01*
X32651612Y9725500D01*
X39844508Y9725500D01*
X39846059Y9715707D01*
X39861873Y9615863D01*
X39864354Y9600196D01*
X39921950Y9487158D01*
X40011658Y9397450D01*
X40124696Y9339854D01*
X40134485Y9338304D01*
X40134487Y9338303D01*
X40240207Y9321559D01*
X40250000Y9320008D01*
X40259793Y9321559D01*
X40365513Y9338303D01*
X40365515Y9338304D01*
X40375304Y9339854D01*
X40488342Y9397450D01*
X40578050Y9487158D01*
X40635646Y9600196D01*
X40638128Y9615863D01*
X40653941Y9715707D01*
X40655492Y9725500D01*
X40635646Y9850804D01*
X40578050Y9963842D01*
X40488342Y10053550D01*
X40375304Y10111146D01*
X40365515Y10112696D01*
X40365513Y10112697D01*
X40259793Y10129441D01*
X40250000Y10130992D01*
X40240207Y10129441D01*
X40134487Y10112697D01*
X40134485Y10112696D01*
X40124696Y10111146D01*
X40011658Y10053550D01*
X39921950Y9963842D01*
X39864354Y9850804D01*
X39844508Y9725500D01*
X32651612Y9725500D01*
X32653941Y9740207D01*
X32655492Y9750000D01*
X32650057Y9784318D01*
X32637197Y9865513D01*
X32637196Y9865515D01*
X32635646Y9875304D01*
X32578050Y9988342D01*
X32488342Y10078050D01*
X32375304Y10135646D01*
X32365515Y10137196D01*
X32365513Y10137197D01*
X32259793Y10153941D01*
X32250000Y10155492D01*
X32240207Y10153941D01*
X32134487Y10137197D01*
X32134485Y10137196D01*
X32124696Y10135646D01*
X32011658Y10078050D01*
X31921950Y9988342D01*
X31864354Y9875304D01*
X31862804Y9865515D01*
X31862803Y9865513D01*
X31849943Y9784318D01*
X31844508Y9750000D01*
X28449716Y9750000D01*
X28541859Y9852335D01*
X28605142Y9961944D01*
X28627946Y10001442D01*
X28627947Y10001443D01*
X28631250Y10007165D01*
X28686497Y10177197D01*
X28694149Y10250000D01*
X33344508Y10250000D01*
X33346059Y10240207D01*
X33362620Y10135646D01*
X33364354Y10124696D01*
X33421950Y10011658D01*
X33511658Y9921950D01*
X33624696Y9864354D01*
X33634485Y9862804D01*
X33634487Y9862803D01*
X33740207Y9846059D01*
X33750000Y9844508D01*
X33759793Y9846059D01*
X33865513Y9862803D01*
X33865515Y9862804D01*
X33875304Y9864354D01*
X33988342Y9921950D01*
X34078050Y10011658D01*
X34135646Y10124696D01*
X34137381Y10135646D01*
X34153941Y10240207D01*
X34155492Y10250000D01*
X38344508Y10250000D01*
X38346059Y10240207D01*
X38362620Y10135646D01*
X38364354Y10124696D01*
X38421950Y10011658D01*
X38511658Y9921950D01*
X38624696Y9864354D01*
X38634485Y9862804D01*
X38634487Y9862803D01*
X38740207Y9846059D01*
X38750000Y9844508D01*
X38759793Y9846059D01*
X38865513Y9862803D01*
X38865515Y9862804D01*
X38875304Y9864354D01*
X38988342Y9921950D01*
X39078050Y10011658D01*
X39135646Y10124696D01*
X39137381Y10135646D01*
X39153941Y10240207D01*
X39155492Y10250000D01*
X39145118Y10315500D01*
X39137197Y10365513D01*
X39137196Y10365515D01*
X39135646Y10375304D01*
X39078050Y10488342D01*
X39066392Y10500000D01*
X41919953Y10500000D01*
X41938092Y10327424D01*
X41940132Y10321145D01*
X41940133Y10321141D01*
X41960066Y10259793D01*
X41991714Y10162389D01*
X42078478Y10012111D01*
X42194590Y9883155D01*
X42334976Y9781158D01*
X42341004Y9778474D01*
X42341006Y9778473D01*
X42487470Y9713263D01*
X42493501Y9710578D01*
X42578369Y9692539D01*
X42656779Y9675872D01*
X42656783Y9675872D01*
X42663236Y9674500D01*
X42836764Y9674500D01*
X42843217Y9675872D01*
X42843221Y9675872D01*
X42921631Y9692539D01*
X43006499Y9710578D01*
X43012530Y9713263D01*
X43158994Y9778473D01*
X43158996Y9778474D01*
X43165024Y9781158D01*
X43305410Y9883155D01*
X43421522Y10012111D01*
X43508286Y10162389D01*
X43539934Y10259793D01*
X43559867Y10321141D01*
X43559868Y10321145D01*
X43561908Y10327424D01*
X43580047Y10500000D01*
X43561908Y10672576D01*
X43554816Y10694405D01*
X43535807Y10752908D01*
X43508286Y10837611D01*
X43421522Y10987889D01*
X43305410Y11116845D01*
X43165024Y11218842D01*
X43158996Y11221526D01*
X43158994Y11221527D01*
X43012530Y11286737D01*
X43012529Y11286737D01*
X43006499Y11289422D01*
X42921631Y11307461D01*
X42843221Y11324128D01*
X42843217Y11324128D01*
X42836764Y11325500D01*
X42663236Y11325500D01*
X42656783Y11324128D01*
X42656779Y11324128D01*
X42578369Y11307461D01*
X42493501Y11289422D01*
X42487472Y11286738D01*
X42487470Y11286737D01*
X42341007Y11221527D01*
X42341005Y11221526D01*
X42334977Y11218842D01*
X42329636Y11214962D01*
X42329635Y11214961D01*
X42265452Y11168329D01*
X42194590Y11116845D01*
X42078478Y10987889D01*
X41991714Y10837611D01*
X41964193Y10752908D01*
X41945185Y10694405D01*
X41938092Y10672576D01*
X41919953Y10500000D01*
X39066392Y10500000D01*
X38988342Y10578050D01*
X38875304Y10635646D01*
X38876294Y10637588D01*
X38828542Y10670241D01*
X38800905Y10735638D01*
X38813012Y10805595D01*
X38861019Y10857900D01*
X38875068Y10864317D01*
X38875304Y10864354D01*
X38988342Y10921950D01*
X39078050Y11011658D01*
X39135646Y11124696D01*
X39144072Y11177892D01*
X39153941Y11240207D01*
X39155492Y11250000D01*
X39150028Y11284500D01*
X39137197Y11365513D01*
X39137196Y11365515D01*
X39135646Y11375304D01*
X39078050Y11488342D01*
X38988342Y11578050D01*
X38875304Y11635646D01*
X38865515Y11637196D01*
X38865513Y11637197D01*
X38759793Y11653941D01*
X38750000Y11655492D01*
X38740207Y11653941D01*
X38634487Y11637197D01*
X38634485Y11637196D01*
X38624696Y11635646D01*
X38511658Y11578050D01*
X38421950Y11488342D01*
X38364354Y11375304D01*
X38362804Y11365515D01*
X38362803Y11365513D01*
X38349972Y11284500D01*
X38344508Y11250000D01*
X38346059Y11240207D01*
X38355929Y11177892D01*
X38364354Y11124696D01*
X38421950Y11011658D01*
X38511658Y10921950D01*
X38623367Y10865031D01*
X38624696Y10864354D01*
X38623706Y10862412D01*
X38671458Y10829759D01*
X38699095Y10764362D01*
X38686988Y10694405D01*
X38638981Y10642100D01*
X38624932Y10635683D01*
X38624696Y10635646D01*
X38511658Y10578050D01*
X38421950Y10488342D01*
X38364354Y10375304D01*
X38362804Y10365515D01*
X38362803Y10365513D01*
X38354882Y10315500D01*
X38344508Y10250000D01*
X34155492Y10250000D01*
X34145118Y10315500D01*
X34137197Y10365513D01*
X34137196Y10365515D01*
X34135646Y10375304D01*
X34078050Y10488342D01*
X33988342Y10578050D01*
X33875304Y10635646D01*
X33865515Y10637196D01*
X33865513Y10637197D01*
X33759793Y10653941D01*
X33750000Y10655492D01*
X33740207Y10653941D01*
X33634487Y10637197D01*
X33634485Y10637196D01*
X33624696Y10635646D01*
X33511658Y10578050D01*
X33421950Y10488342D01*
X33364354Y10375304D01*
X33362804Y10365515D01*
X33362803Y10365513D01*
X33354882Y10315500D01*
X33344508Y10250000D01*
X28694149Y10250000D01*
X28697127Y10278329D01*
X28704495Y10348435D01*
X28705185Y10355000D01*
X28697919Y10424127D01*
X28687187Y10526239D01*
X28687187Y10526240D01*
X28686497Y10532803D01*
X28631250Y10702835D01*
X28595728Y10764362D01*
X28545162Y10851944D01*
X28541859Y10857665D01*
X28488028Y10917450D01*
X28426645Y10985623D01*
X28426643Y10985624D01*
X28422230Y10990526D01*
X28325345Y11060918D01*
X28282935Y11091731D01*
X28282933Y11091732D01*
X28277593Y11095612D01*
X28271567Y11098295D01*
X28271560Y11098299D01*
X28200597Y11129893D01*
X28146501Y11175873D01*
X28125851Y11243800D01*
X28145203Y11312108D01*
X28200597Y11360107D01*
X28271560Y11391701D01*
X28271567Y11391705D01*
X28277593Y11394388D01*
X28315529Y11421950D01*
X28416891Y11495595D01*
X28422230Y11499474D01*
X28492981Y11578050D01*
X28537440Y11627427D01*
X28537441Y11627428D01*
X28541859Y11632335D01*
X28566995Y11675872D01*
X28609793Y11750000D01*
X30344508Y11750000D01*
X30346059Y11740207D01*
X30362620Y11635646D01*
X30364354Y11624696D01*
X30421950Y11511658D01*
X30511658Y11421950D01*
X30624696Y11364354D01*
X30634485Y11362804D01*
X30634487Y11362803D01*
X30740207Y11346059D01*
X30750000Y11344508D01*
X30759793Y11346059D01*
X30865513Y11362803D01*
X30865515Y11362804D01*
X30875304Y11364354D01*
X30988342Y11421950D01*
X31078050Y11511658D01*
X31135646Y11624696D01*
X31137381Y11635646D01*
X31153941Y11740207D01*
X31155492Y11750000D01*
X31150512Y11781442D01*
X31137197Y11865513D01*
X31137196Y11865515D01*
X31135646Y11875304D01*
X31078050Y11988342D01*
X31066392Y12000000D01*
X32594508Y12000000D01*
X32596059Y11990207D01*
X32603948Y11940400D01*
X32614354Y11874696D01*
X32671950Y11761658D01*
X32761658Y11671950D01*
X32874696Y11614354D01*
X32884485Y11612804D01*
X32884487Y11612803D01*
X32990207Y11596059D01*
X33000000Y11594508D01*
X33009793Y11596059D01*
X33115513Y11612803D01*
X33115515Y11612804D01*
X33125304Y11614354D01*
X33238342Y11671950D01*
X33328050Y11761658D01*
X33385646Y11874696D01*
X33396053Y11940400D01*
X33403941Y11990207D01*
X33405492Y12000000D01*
X33393130Y12078050D01*
X33387197Y12115513D01*
X33387196Y12115515D01*
X33385646Y12125304D01*
X33328050Y12238342D01*
X33238342Y12328050D01*
X33125304Y12385646D01*
X33115515Y12387196D01*
X33115513Y12387197D01*
X33009793Y12403941D01*
X33000000Y12405492D01*
X32990207Y12403941D01*
X32884487Y12387197D01*
X32884485Y12387196D01*
X32874696Y12385646D01*
X32761658Y12328050D01*
X32671950Y12238342D01*
X32614354Y12125304D01*
X32612804Y12115515D01*
X32612803Y12115513D01*
X32606870Y12078050D01*
X32594508Y12000000D01*
X31066392Y12000000D01*
X30988342Y12078050D01*
X30875304Y12135646D01*
X30876294Y12137588D01*
X30828542Y12170241D01*
X30800905Y12235638D01*
X30813012Y12305595D01*
X30861019Y12357900D01*
X30875068Y12364317D01*
X30875304Y12364354D01*
X30988342Y12421950D01*
X31066392Y12500000D01*
X41919953Y12500000D01*
X41938092Y12327424D01*
X41940132Y12321145D01*
X41940133Y12321141D01*
X41950814Y12288269D01*
X41991714Y12162389D01*
X42078478Y12012111D01*
X42194590Y11883155D01*
X42218872Y11865513D01*
X42318058Y11793450D01*
X42334976Y11781158D01*
X42341004Y11778474D01*
X42341006Y11778473D01*
X42426953Y11740207D01*
X42493501Y11710578D01*
X42578369Y11692539D01*
X42656779Y11675872D01*
X42656783Y11675872D01*
X42663236Y11674500D01*
X42836764Y11674500D01*
X42843217Y11675872D01*
X42843221Y11675872D01*
X42921632Y11692539D01*
X43006499Y11710578D01*
X43073047Y11740207D01*
X43158994Y11778473D01*
X43158996Y11778474D01*
X43165024Y11781158D01*
X43181943Y11793450D01*
X43281128Y11865513D01*
X43305410Y11883155D01*
X43421522Y12012111D01*
X43508286Y12162389D01*
X43549186Y12288269D01*
X43559867Y12321141D01*
X43559868Y12321145D01*
X43561908Y12327424D01*
X43580047Y12500000D01*
X43561908Y12672576D01*
X43551152Y12705682D01*
X43528822Y12774405D01*
X43508286Y12837611D01*
X43421522Y12987889D01*
X43366788Y13048678D01*
X43309832Y13111934D01*
X43309831Y13111935D01*
X43305410Y13116845D01*
X43187100Y13202803D01*
X43170366Y13214961D01*
X43170365Y13214962D01*
X43165024Y13218842D01*
X43158996Y13221526D01*
X43158994Y13221527D01*
X43012530Y13286737D01*
X43012529Y13286737D01*
X43006499Y13289422D01*
X42921632Y13307461D01*
X42843221Y13324128D01*
X42843217Y13324128D01*
X42836764Y13325500D01*
X42663236Y13325500D01*
X42656783Y13324128D01*
X42656779Y13324128D01*
X42578368Y13307461D01*
X42493501Y13289422D01*
X42487472Y13286738D01*
X42487470Y13286737D01*
X42341007Y13221527D01*
X42341005Y13221526D01*
X42334977Y13218842D01*
X42329636Y13214962D01*
X42329635Y13214961D01*
X42270436Y13171950D01*
X42194590Y13116845D01*
X42190169Y13111935D01*
X42190168Y13111934D01*
X42133212Y13048678D01*
X42078478Y12987889D01*
X41991714Y12837611D01*
X41971178Y12774405D01*
X41948849Y12705682D01*
X41938092Y12672576D01*
X41919953Y12500000D01*
X31066392Y12500000D01*
X31078050Y12511658D01*
X31135646Y12624696D01*
X31138478Y12642573D01*
X31153941Y12740207D01*
X31155492Y12750000D01*
X31135646Y12875304D01*
X31078050Y12988342D01*
X30988342Y13078050D01*
X30875304Y13135646D01*
X30865515Y13137196D01*
X30865513Y13137197D01*
X30759793Y13153941D01*
X30750000Y13155492D01*
X30740207Y13153941D01*
X30634487Y13137197D01*
X30634485Y13137196D01*
X30624696Y13135646D01*
X30511658Y13078050D01*
X30421950Y12988342D01*
X30364354Y12875304D01*
X30344508Y12750000D01*
X30346059Y12740207D01*
X30361523Y12642573D01*
X30364354Y12624696D01*
X30421950Y12511658D01*
X30511658Y12421950D01*
X30591742Y12381145D01*
X30624696Y12364354D01*
X30623706Y12362412D01*
X30671458Y12329759D01*
X30699095Y12264362D01*
X30686988Y12194405D01*
X30638981Y12142100D01*
X30624932Y12135683D01*
X30624696Y12135646D01*
X30511658Y12078050D01*
X30421950Y11988342D01*
X30364354Y11875304D01*
X30362804Y11865515D01*
X30362803Y11865513D01*
X30349488Y11781442D01*
X30344508Y11750000D01*
X28609793Y11750000D01*
X28627946Y11781442D01*
X28627947Y11781443D01*
X28631250Y11787165D01*
X28686497Y11957197D01*
X28689771Y11988342D01*
X28704495Y12128435D01*
X28705185Y12135000D01*
X28697919Y12204127D01*
X28687187Y12306239D01*
X28687187Y12306240D01*
X28686497Y12312803D01*
X28676196Y12344508D01*
X28633292Y12476550D01*
X28631250Y12482835D01*
X28617550Y12506565D01*
X28545162Y12631944D01*
X28541859Y12637665D01*
X28480616Y12705682D01*
X28426645Y12765623D01*
X28426643Y12765624D01*
X28422230Y12770526D01*
X28338540Y12831331D01*
X28282935Y12871731D01*
X28282933Y12871732D01*
X28277593Y12875612D01*
X28271567Y12878295D01*
X28271560Y12878299D01*
X28200597Y12909893D01*
X28146501Y12955873D01*
X28125851Y13023800D01*
X28145203Y13092108D01*
X28200597Y13140107D01*
X28271560Y13171701D01*
X28271567Y13171705D01*
X28277593Y13174388D01*
X28316703Y13202803D01*
X28416891Y13275595D01*
X28422230Y13279474D01*
X28431188Y13289422D01*
X28537440Y13407427D01*
X28537441Y13407428D01*
X28541859Y13412335D01*
X28631250Y13567165D01*
X28684159Y13730000D01*
X34114508Y13730000D01*
X34134354Y13604696D01*
X34191950Y13491658D01*
X34281658Y13401950D01*
X34394696Y13344354D01*
X34404485Y13342804D01*
X34404487Y13342803D01*
X34510207Y13326059D01*
X34520000Y13324508D01*
X34529793Y13326059D01*
X34635513Y13342803D01*
X34635515Y13342804D01*
X34645304Y13344354D01*
X34758342Y13401950D01*
X34848050Y13491658D01*
X34852300Y13500000D01*
X35320008Y13500000D01*
X35321559Y13490207D01*
X35333893Y13412335D01*
X35339854Y13374696D01*
X35397450Y13261658D01*
X35487158Y13171950D01*
X35600196Y13114354D01*
X35609985Y13112804D01*
X35609987Y13112803D01*
X35715707Y13096059D01*
X35725500Y13094508D01*
X35735293Y13096059D01*
X35841013Y13112803D01*
X35841015Y13112804D01*
X35850804Y13114354D01*
X35963842Y13171950D01*
X36053550Y13261658D01*
X36111146Y13374696D01*
X36117108Y13412335D01*
X36129441Y13490207D01*
X36130992Y13500000D01*
X36129441Y13509793D01*
X36112697Y13615513D01*
X36112696Y13615515D01*
X36111146Y13625304D01*
X36053550Y13738342D01*
X35963842Y13828050D01*
X35850804Y13885646D01*
X35851794Y13887588D01*
X35804042Y13920241D01*
X35776405Y13985638D01*
X35788512Y14055595D01*
X35836519Y14107900D01*
X35850568Y14114317D01*
X35850804Y14114354D01*
X35963842Y14171950D01*
X36053550Y14261658D01*
X36111146Y14374696D01*
X36117046Y14411944D01*
X36129441Y14490207D01*
X36130992Y14500000D01*
X41919953Y14500000D01*
X41938092Y14327424D01*
X41940132Y14321145D01*
X41940133Y14321141D01*
X41947838Y14297427D01*
X41991714Y14162389D01*
X42078478Y14012111D01*
X42194590Y13883155D01*
X42270435Y13828050D01*
X42309190Y13799893D01*
X42334976Y13781158D01*
X42341004Y13778474D01*
X42341006Y13778473D01*
X42450981Y13729509D01*
X42493501Y13710578D01*
X42578368Y13692539D01*
X42656779Y13675872D01*
X42656783Y13675872D01*
X42663236Y13674500D01*
X42836764Y13674500D01*
X42843217Y13675872D01*
X42843221Y13675872D01*
X42921632Y13692539D01*
X43006499Y13710578D01*
X43049019Y13729509D01*
X43158994Y13778473D01*
X43158996Y13778474D01*
X43165024Y13781158D01*
X43190811Y13799893D01*
X43229565Y13828050D01*
X43305410Y13883155D01*
X43421522Y14012111D01*
X43508286Y14162389D01*
X43552162Y14297427D01*
X43559867Y14321141D01*
X43559868Y14321145D01*
X43561908Y14327424D01*
X43580047Y14500000D01*
X43561908Y14672576D01*
X43556282Y14689893D01*
X43528728Y14774696D01*
X43508286Y14837611D01*
X43421522Y14987889D01*
X43360560Y15055595D01*
X43309832Y15111934D01*
X43309831Y15111935D01*
X43305410Y15116845D01*
X43165024Y15218842D01*
X43158996Y15221526D01*
X43158994Y15221527D01*
X43012530Y15286737D01*
X43012529Y15286737D01*
X43006499Y15289422D01*
X42920672Y15307665D01*
X42843221Y15324128D01*
X42843217Y15324128D01*
X42836764Y15325500D01*
X42663236Y15325500D01*
X42656783Y15324128D01*
X42656779Y15324128D01*
X42579328Y15307665D01*
X42493501Y15289422D01*
X42487472Y15286738D01*
X42487470Y15286737D01*
X42341007Y15221527D01*
X42341005Y15221526D01*
X42334977Y15218842D01*
X42329636Y15214962D01*
X42329635Y15214961D01*
X42204876Y15124318D01*
X42194590Y15116845D01*
X42190169Y15111935D01*
X42190168Y15111934D01*
X42139440Y15055595D01*
X42078478Y14987889D01*
X41991714Y14837611D01*
X41971272Y14774696D01*
X41943719Y14689893D01*
X41938092Y14672576D01*
X41919953Y14500000D01*
X36130992Y14500000D01*
X36122990Y14550526D01*
X36112697Y14615513D01*
X36112696Y14615515D01*
X36111146Y14625304D01*
X36053550Y14738342D01*
X35963842Y14828050D01*
X35850804Y14885646D01*
X35841015Y14887196D01*
X35841013Y14887197D01*
X35735293Y14903941D01*
X35725500Y14905492D01*
X35715707Y14903941D01*
X35609987Y14887197D01*
X35609985Y14887196D01*
X35600196Y14885646D01*
X35487158Y14828050D01*
X35397450Y14738342D01*
X35339854Y14625304D01*
X35338304Y14615515D01*
X35338303Y14615513D01*
X35328010Y14550526D01*
X35320008Y14500000D01*
X35321559Y14490207D01*
X35333955Y14411944D01*
X35339854Y14374696D01*
X35397450Y14261658D01*
X35487158Y14171950D01*
X35556191Y14136776D01*
X35600196Y14114354D01*
X35599206Y14112412D01*
X35646958Y14079759D01*
X35674595Y14014362D01*
X35662488Y13944405D01*
X35614481Y13892100D01*
X35600432Y13885683D01*
X35600196Y13885646D01*
X35487158Y13828050D01*
X35397450Y13738342D01*
X35339854Y13625304D01*
X35338304Y13615515D01*
X35338303Y13615513D01*
X35321559Y13509793D01*
X35320008Y13500000D01*
X34852300Y13500000D01*
X34905646Y13604696D01*
X34925492Y13730000D01*
X34923941Y13739793D01*
X34907197Y13845513D01*
X34907196Y13845515D01*
X34905646Y13855304D01*
X34848050Y13968342D01*
X34758342Y14058050D01*
X34645304Y14115646D01*
X34635515Y14117196D01*
X34635513Y14117197D01*
X34529793Y14133941D01*
X34520000Y14135492D01*
X34510207Y14133941D01*
X34404487Y14117197D01*
X34404485Y14117196D01*
X34394696Y14115646D01*
X34281658Y14058050D01*
X34191950Y13968342D01*
X34134354Y13855304D01*
X34132804Y13845515D01*
X34132803Y13845513D01*
X34116059Y13739793D01*
X34114508Y13730000D01*
X28684159Y13730000D01*
X28686497Y13737197D01*
X28691526Y13785039D01*
X28704495Y13908435D01*
X28705185Y13915000D01*
X28700507Y13959509D01*
X28687187Y14086239D01*
X28687187Y14086240D01*
X28686497Y14092803D01*
X28673131Y14133941D01*
X28633292Y14256550D01*
X28631250Y14262835D01*
X28541859Y14417665D01*
X28472669Y14494508D01*
X28426645Y14545623D01*
X28426643Y14545624D01*
X28422230Y14550526D01*
X28319308Y14625304D01*
X28282935Y14651731D01*
X28282933Y14651732D01*
X28277593Y14655612D01*
X28271567Y14658295D01*
X28271560Y14658299D01*
X28200597Y14689893D01*
X28146501Y14735873D01*
X28125851Y14803800D01*
X28145203Y14872108D01*
X28200597Y14920107D01*
X28271560Y14951701D01*
X28271567Y14951705D01*
X28277593Y14954388D01*
X28316703Y14982803D01*
X28416891Y15055595D01*
X28422230Y15059474D01*
X28469466Y15111934D01*
X28537440Y15187427D01*
X28537441Y15187428D01*
X28541859Y15192335D01*
X28631250Y15347165D01*
X28686497Y15517197D01*
X28697127Y15618329D01*
X28704495Y15688435D01*
X28705185Y15695000D01*
X28697919Y15764127D01*
X28687187Y15866239D01*
X28687187Y15866240D01*
X28686497Y15872803D01*
X28683134Y15883155D01*
X28633292Y16036550D01*
X28631250Y16042835D01*
X28583222Y16126023D01*
X28545162Y16191944D01*
X28541859Y16197665D01*
X28445558Y16304618D01*
X28426645Y16325623D01*
X28426643Y16325624D01*
X28422230Y16330526D01*
X28325345Y16400918D01*
X28282935Y16431731D01*
X28282933Y16431732D01*
X28277593Y16435612D01*
X28271567Y16438295D01*
X28271560Y16438299D01*
X28200597Y16469893D01*
X28146501Y16515873D01*
X28125851Y16583800D01*
X28145203Y16652108D01*
X28200597Y16700107D01*
X28271560Y16731701D01*
X28271567Y16731705D01*
X28277593Y16734388D01*
X28316703Y16762803D01*
X28416891Y16835595D01*
X28422230Y16839474D01*
X28541859Y16972335D01*
X28611278Y17092573D01*
X28627946Y17121442D01*
X28627947Y17121443D01*
X28631250Y17127165D01*
X28686497Y17297197D01*
X28697127Y17398329D01*
X28704495Y17468435D01*
X28705185Y17475000D01*
X28697919Y17544127D01*
X28687187Y17646239D01*
X28687187Y17646240D01*
X28686497Y17652803D01*
X28631250Y17822835D01*
X28541859Y17977665D01*
X28422230Y18110526D01*
X28325345Y18180918D01*
X28282935Y18211731D01*
X28282933Y18211732D01*
X28277593Y18215612D01*
X28271565Y18218296D01*
X28271563Y18218297D01*
X28120298Y18285644D01*
X28120297Y18285644D01*
X28114267Y18288329D01*
X28026829Y18306915D01*
X27945848Y18324128D01*
X27945844Y18324128D01*
X27939391Y18325500D01*
X27760609Y18325500D01*
X27754156Y18324128D01*
X27754152Y18324128D01*
X27673171Y18306915D01*
X27585733Y18288329D01*
X27579703Y18285644D01*
X27579702Y18285644D01*
X27428438Y18218297D01*
X27428436Y18218296D01*
X27422408Y18215612D01*
X27277770Y18110526D01*
X27158141Y17977665D01*
X27068750Y17822835D01*
X27064638Y17810180D01*
X27046833Y17755382D01*
X27006759Y17696776D01*
X26941363Y17669139D01*
X26871406Y17681246D01*
X26819100Y17729252D01*
X26801000Y17794318D01*
X26801000Y19494802D01*
X26801082Y19495000D01*
X26800765Y19495765D01*
X26800198Y19496000D01*
X26800000Y19496082D01*
X26799802Y19496000D01*
X18200198Y19496000D01*
X18200000Y19496082D01*
X18199802Y19496000D01*
X18199235Y19495765D01*
X18198918Y19495000D01*
X18199000Y19494802D01*
X18199000Y18684318D01*
X18178998Y18616197D01*
X18125342Y18569704D01*
X18055068Y18559600D01*
X17990488Y18589094D01*
X17953167Y18645382D01*
X17933292Y18706550D01*
X17931250Y18712835D01*
X17841859Y18867665D01*
X17835528Y18874696D01*
X17726645Y18995623D01*
X17726643Y18995624D01*
X17722230Y19000526D01*
X17577593Y19105612D01*
X17571565Y19108296D01*
X17571563Y19108297D01*
X17420298Y19175644D01*
X17420297Y19175644D01*
X17414267Y19178329D01*
X17326829Y19196915D01*
X17245848Y19214128D01*
X17245844Y19214128D01*
X17239391Y19215500D01*
X17060609Y19215500D01*
X17054156Y19214128D01*
X17054152Y19214128D01*
X16973171Y19196915D01*
X16885733Y19178329D01*
X16879703Y19175644D01*
X16879702Y19175644D01*
X16728438Y19108297D01*
X16728436Y19108296D01*
X16722408Y19105612D01*
X16717067Y19101732D01*
X16717066Y19101731D01*
X16611513Y19025042D01*
X16544645Y19001183D01*
X16475494Y19017264D01*
X16426013Y19068178D01*
X16413004Y19107266D01*
X16411699Y19115507D01*
X16411696Y19115515D01*
X16410146Y19125304D01*
X16352550Y19238342D01*
X16262842Y19328050D01*
X16149804Y19385646D01*
X16140015Y19387196D01*
X16140013Y19387197D01*
X16034293Y19403941D01*
X16024500Y19405492D01*
X16014707Y19403941D01*
X15908987Y19387197D01*
X15908985Y19387196D01*
X15899196Y19385646D01*
X15786158Y19328050D01*
X15696450Y19238342D01*
X15638854Y19125304D01*
X15619008Y19000000D01*
X13405492Y19000000D01*
X13385646Y19125304D01*
X13328050Y19238342D01*
X13238342Y19328050D01*
X13125304Y19385646D01*
X13115515Y19387196D01*
X13115513Y19387197D01*
X13009793Y19403941D01*
X13000000Y19405492D01*
X12990207Y19403941D01*
X12884487Y19387197D01*
X12884485Y19387196D01*
X12874696Y19385646D01*
X12761658Y19328050D01*
X12671950Y19238342D01*
X12614354Y19125304D01*
X12594508Y19000000D01*
X1000Y19000000D01*
X1000Y19524500D01*
X13594508Y19524500D01*
X13596059Y19514707D01*
X13600336Y19487706D01*
X13614354Y19399196D01*
X13671950Y19286158D01*
X13761658Y19196450D01*
X13874696Y19138854D01*
X13884485Y19137304D01*
X13884487Y19137303D01*
X13990207Y19120559D01*
X14000000Y19119008D01*
X14009793Y19120559D01*
X14115513Y19137303D01*
X14115515Y19137304D01*
X14125304Y19138854D01*
X14238342Y19196450D01*
X14328050Y19286158D01*
X14385646Y19399196D01*
X14399665Y19487706D01*
X14403941Y19514707D01*
X14405492Y19524500D01*
X14385646Y19649804D01*
X14328050Y19762842D01*
X14238342Y19852550D01*
X14125304Y19910146D01*
X14115515Y19911696D01*
X14115513Y19911697D01*
X14009793Y19928441D01*
X14000000Y19929992D01*
X13990207Y19928441D01*
X13884487Y19911697D01*
X13884485Y19911696D01*
X13874696Y19910146D01*
X13761658Y19852550D01*
X13671950Y19762842D01*
X13614354Y19649804D01*
X13594508Y19524500D01*
X1000Y19524500D01*
X1000Y20750000D01*
X13844508Y20750000D01*
X13846059Y20740207D01*
X13862620Y20635646D01*
X13864354Y20624696D01*
X13921950Y20511658D01*
X14011658Y20421950D01*
X14124696Y20364354D01*
X14134485Y20362804D01*
X14134487Y20362803D01*
X14240207Y20346059D01*
X14250000Y20344508D01*
X14259793Y20346059D01*
X14365513Y20362803D01*
X14365515Y20362804D01*
X14375304Y20364354D01*
X14488342Y20421950D01*
X14566392Y20500000D01*
X18094508Y20500000D01*
X18096059Y20490207D01*
X18112620Y20385646D01*
X18114354Y20374696D01*
X18171950Y20261658D01*
X18261658Y20171950D01*
X18374696Y20114354D01*
X18384485Y20112804D01*
X18384487Y20112803D01*
X18490207Y20096059D01*
X18500000Y20094508D01*
X18509793Y20096059D01*
X18615513Y20112803D01*
X18615515Y20112804D01*
X18625304Y20114354D01*
X18738342Y20171950D01*
X18828050Y20261658D01*
X18885646Y20374696D01*
X18887381Y20385646D01*
X18903941Y20490207D01*
X18905492Y20500000D01*
X20094508Y20500000D01*
X20096059Y20490207D01*
X20112620Y20385646D01*
X20114354Y20374696D01*
X20171950Y20261658D01*
X20261658Y20171950D01*
X20374696Y20114354D01*
X20384485Y20112804D01*
X20384487Y20112803D01*
X20490207Y20096059D01*
X20500000Y20094508D01*
X20509793Y20096059D01*
X20615513Y20112803D01*
X20615515Y20112804D01*
X20625304Y20114354D01*
X20738342Y20171950D01*
X20828050Y20261658D01*
X20885646Y20374696D01*
X20887381Y20385646D01*
X20903941Y20490207D01*
X20905492Y20500000D01*
X22094508Y20500000D01*
X22096059Y20490207D01*
X22112620Y20385646D01*
X22114354Y20374696D01*
X22171950Y20261658D01*
X22261658Y20171950D01*
X22374696Y20114354D01*
X22384485Y20112804D01*
X22384487Y20112803D01*
X22490207Y20096059D01*
X22500000Y20094508D01*
X22509793Y20096059D01*
X22615513Y20112803D01*
X22615515Y20112804D01*
X22625304Y20114354D01*
X22738342Y20171950D01*
X22828050Y20261658D01*
X22885646Y20374696D01*
X22887381Y20385646D01*
X22903941Y20490207D01*
X22905492Y20500000D01*
X22901289Y20526535D01*
X22887197Y20615513D01*
X22887196Y20615515D01*
X22885646Y20625304D01*
X22828050Y20738342D01*
X22816392Y20750000D01*
X24869819Y20750000D01*
X24888426Y20632518D01*
X24942427Y20526535D01*
X25026535Y20442427D01*
X25132518Y20388426D01*
X25250000Y20369819D01*
X25367482Y20388426D01*
X25473465Y20442427D01*
X25557573Y20526535D01*
X25611574Y20632518D01*
X25613125Y20642311D01*
X25616190Y20651744D01*
X25617806Y20651219D01*
X25643302Y20705010D01*
X25703568Y20742540D01*
X25774557Y20741531D01*
X25833732Y20702303D01*
X25861792Y20640866D01*
X25862802Y20634492D01*
X25864354Y20624696D01*
X25921950Y20511658D01*
X26011658Y20421950D01*
X26124696Y20364354D01*
X26134485Y20362804D01*
X26134487Y20362803D01*
X26240207Y20346059D01*
X26250000Y20344508D01*
X26259793Y20346059D01*
X26365513Y20362803D01*
X26365515Y20362804D01*
X26375304Y20364354D01*
X26488342Y20421950D01*
X26578050Y20511658D01*
X26635646Y20624696D01*
X26637381Y20635646D01*
X26653941Y20740207D01*
X26655492Y20750000D01*
X26643130Y20828050D01*
X26637197Y20865513D01*
X26637196Y20865515D01*
X26635646Y20875304D01*
X26578050Y20988342D01*
X26488342Y21078050D01*
X26375304Y21135646D01*
X26365515Y21137196D01*
X26365513Y21137197D01*
X26259793Y21153941D01*
X26250000Y21155492D01*
X26240207Y21153941D01*
X26134487Y21137197D01*
X26134485Y21137196D01*
X26124696Y21135646D01*
X26011658Y21078050D01*
X25921950Y20988342D01*
X25864354Y20875304D01*
X25862803Y20865511D01*
X25862802Y20865508D01*
X25861792Y20859134D01*
X25831378Y20794982D01*
X25771109Y20757457D01*
X25700120Y20758472D01*
X25640949Y20797706D01*
X25617650Y20848730D01*
X25616190Y20848256D01*
X25613125Y20857690D01*
X25611574Y20867482D01*
X25557573Y20973465D01*
X25473465Y21057573D01*
X25367482Y21111574D01*
X25250000Y21130181D01*
X25132518Y21111574D01*
X25026535Y21057573D01*
X24942427Y20973465D01*
X24888426Y20867482D01*
X24869819Y20750000D01*
X22816392Y20750000D01*
X22738342Y20828050D01*
X22625304Y20885646D01*
X22615515Y20887196D01*
X22615513Y20887197D01*
X22509793Y20903941D01*
X22500000Y20905492D01*
X22490207Y20903941D01*
X22384487Y20887197D01*
X22384485Y20887196D01*
X22374696Y20885646D01*
X22261658Y20828050D01*
X22171950Y20738342D01*
X22114354Y20625304D01*
X22112804Y20615515D01*
X22112803Y20615513D01*
X22098711Y20526535D01*
X22094508Y20500000D01*
X20905492Y20500000D01*
X20901289Y20526535D01*
X20887197Y20615513D01*
X20887196Y20615515D01*
X20885646Y20625304D01*
X20828050Y20738342D01*
X20738342Y20828050D01*
X20625304Y20885646D01*
X20615515Y20887196D01*
X20615513Y20887197D01*
X20509793Y20903941D01*
X20500000Y20905492D01*
X20490207Y20903941D01*
X20384487Y20887197D01*
X20384485Y20887196D01*
X20374696Y20885646D01*
X20261658Y20828050D01*
X20171950Y20738342D01*
X20114354Y20625304D01*
X20112804Y20615515D01*
X20112803Y20615513D01*
X20098711Y20526535D01*
X20094508Y20500000D01*
X18905492Y20500000D01*
X18901289Y20526535D01*
X18887197Y20615513D01*
X18887196Y20615515D01*
X18885646Y20625304D01*
X18828050Y20738342D01*
X18738342Y20828050D01*
X18625304Y20885646D01*
X18615515Y20887196D01*
X18615513Y20887197D01*
X18509793Y20903941D01*
X18500000Y20905492D01*
X18490207Y20903941D01*
X18384487Y20887197D01*
X18384485Y20887196D01*
X18374696Y20885646D01*
X18261658Y20828050D01*
X18171950Y20738342D01*
X18114354Y20625304D01*
X18112804Y20615515D01*
X18112803Y20615513D01*
X18098711Y20526535D01*
X18094508Y20500000D01*
X14566392Y20500000D01*
X14578050Y20511658D01*
X14635646Y20624696D01*
X14637381Y20635646D01*
X14653941Y20740207D01*
X14655492Y20750000D01*
X14643130Y20828050D01*
X14637197Y20865513D01*
X14637196Y20865515D01*
X14635646Y20875304D01*
X14578050Y20988342D01*
X14488342Y21078050D01*
X14375304Y21135646D01*
X14376294Y21137588D01*
X14328542Y21170241D01*
X14300905Y21235638D01*
X14313012Y21305595D01*
X14361019Y21357900D01*
X14375068Y21364317D01*
X14375304Y21364354D01*
X14488342Y21421950D01*
X14578050Y21511658D01*
X14597082Y21549011D01*
X17094508Y21549011D01*
X17114354Y21423707D01*
X17171950Y21310669D01*
X17261658Y21220961D01*
X17374696Y21163365D01*
X17384485Y21161815D01*
X17384487Y21161814D01*
X17490207Y21145070D01*
X17500000Y21143519D01*
X17509793Y21145070D01*
X17615513Y21161814D01*
X17615515Y21161815D01*
X17625304Y21163365D01*
X17738342Y21220961D01*
X17828050Y21310669D01*
X17885646Y21423707D01*
X17905492Y21549011D01*
X17897385Y21600196D01*
X17887197Y21664524D01*
X17887196Y21664526D01*
X17885646Y21674315D01*
X17859566Y21725500D01*
X21094508Y21725500D01*
X21096059Y21715707D01*
X21111873Y21615863D01*
X21114354Y21600196D01*
X21171950Y21487158D01*
X21261658Y21397450D01*
X21374696Y21339854D01*
X21384485Y21338304D01*
X21384487Y21338303D01*
X21490207Y21321559D01*
X21500000Y21320008D01*
X21509793Y21321559D01*
X21615513Y21338303D01*
X21615515Y21338304D01*
X21625304Y21339854D01*
X21738342Y21397450D01*
X21828050Y21487158D01*
X21885646Y21600196D01*
X21888128Y21615863D01*
X21903941Y21715707D01*
X21905492Y21725500D01*
X21885646Y21850804D01*
X21828050Y21963842D01*
X21738342Y22053550D01*
X21625304Y22111146D01*
X21615515Y22112696D01*
X21615513Y22112697D01*
X21509793Y22129441D01*
X21500000Y22130992D01*
X21490207Y22129441D01*
X21384487Y22112697D01*
X21384485Y22112696D01*
X21374696Y22111146D01*
X21261658Y22053550D01*
X21171950Y21963842D01*
X21114354Y21850804D01*
X21094508Y21725500D01*
X17859566Y21725500D01*
X17828050Y21787353D01*
X17738342Y21877061D01*
X17625304Y21934657D01*
X17615515Y21936207D01*
X17615513Y21936208D01*
X17509793Y21952952D01*
X17500000Y21954503D01*
X17490207Y21952952D01*
X17384487Y21936208D01*
X17384485Y21936207D01*
X17374696Y21934657D01*
X17261658Y21877061D01*
X17171950Y21787353D01*
X17114354Y21674315D01*
X17112804Y21664526D01*
X17112803Y21664524D01*
X17102615Y21600196D01*
X17094508Y21549011D01*
X14597082Y21549011D01*
X14635646Y21624696D01*
X14655492Y21750000D01*
X14640278Y21846059D01*
X14637197Y21865513D01*
X14637196Y21865515D01*
X14635646Y21875304D01*
X14578050Y21988342D01*
X14488342Y22078050D01*
X14375304Y22135646D01*
X14376294Y22137588D01*
X14328542Y22170241D01*
X14300905Y22235638D01*
X14303391Y22250000D01*
X22094508Y22250000D01*
X22096059Y22240207D01*
X22112620Y22135646D01*
X22114354Y22124696D01*
X22171950Y22011658D01*
X22261658Y21921950D01*
X22374696Y21864354D01*
X22384485Y21862804D01*
X22384487Y21862803D01*
X22490207Y21846059D01*
X22500000Y21844508D01*
X22509793Y21846059D01*
X22615513Y21862803D01*
X22615515Y21862804D01*
X22625304Y21864354D01*
X22738342Y21921950D01*
X22828050Y22011658D01*
X22885646Y22124696D01*
X22887381Y22135646D01*
X22903941Y22240207D01*
X22905492Y22250000D01*
X30844508Y22250000D01*
X30846059Y22240207D01*
X30862620Y22135646D01*
X30864354Y22124696D01*
X30921950Y22011658D01*
X31011658Y21921950D01*
X31124696Y21864354D01*
X31134485Y21862804D01*
X31134487Y21862803D01*
X31240207Y21846059D01*
X31250000Y21844508D01*
X31259793Y21846059D01*
X31365513Y21862803D01*
X31365515Y21862804D01*
X31375304Y21864354D01*
X31488342Y21921950D01*
X31578050Y22011658D01*
X31635646Y22124696D01*
X31637381Y22135646D01*
X31653941Y22240207D01*
X31655492Y22250000D01*
X31640278Y22346059D01*
X31637197Y22365513D01*
X31637196Y22365515D01*
X31635646Y22375304D01*
X31578050Y22488342D01*
X31488342Y22578050D01*
X31375304Y22635646D01*
X31365515Y22637196D01*
X31365513Y22637197D01*
X31259793Y22653941D01*
X31250000Y22655492D01*
X31240207Y22653941D01*
X31134487Y22637197D01*
X31134485Y22637196D01*
X31124696Y22635646D01*
X31011658Y22578050D01*
X30921950Y22488342D01*
X30864354Y22375304D01*
X30862804Y22365515D01*
X30862803Y22365513D01*
X30859722Y22346059D01*
X30844508Y22250000D01*
X22905492Y22250000D01*
X22890278Y22346059D01*
X22887197Y22365513D01*
X22887196Y22365515D01*
X22885646Y22375304D01*
X22828050Y22488342D01*
X22738342Y22578050D01*
X22625304Y22635646D01*
X22615515Y22637196D01*
X22615513Y22637197D01*
X22509793Y22653941D01*
X22500000Y22655492D01*
X22490207Y22653941D01*
X22384487Y22637197D01*
X22384485Y22637196D01*
X22374696Y22635646D01*
X22261658Y22578050D01*
X22171950Y22488342D01*
X22114354Y22375304D01*
X22112804Y22365515D01*
X22112803Y22365513D01*
X22109722Y22346059D01*
X22094508Y22250000D01*
X14303391Y22250000D01*
X14313012Y22305595D01*
X14361019Y22357900D01*
X14375068Y22364317D01*
X14375304Y22364354D01*
X14488342Y22421950D01*
X14578050Y22511658D01*
X14635646Y22624696D01*
X14637381Y22635646D01*
X14653941Y22740207D01*
X14655492Y22750000D01*
X14635646Y22875304D01*
X14578050Y22988342D01*
X14488342Y23078050D01*
X14375304Y23135646D01*
X14365515Y23137196D01*
X14365513Y23137197D01*
X14259793Y23153941D01*
X14250000Y23155492D01*
X14240207Y23153941D01*
X14134487Y23137197D01*
X14134485Y23137196D01*
X14124696Y23135646D01*
X14011658Y23078050D01*
X13921950Y22988342D01*
X13864354Y22875304D01*
X13844508Y22750000D01*
X13846059Y22740207D01*
X13862620Y22635646D01*
X13864354Y22624696D01*
X13921950Y22511658D01*
X14011658Y22421950D01*
X14085870Y22384137D01*
X14124696Y22364354D01*
X14123706Y22362412D01*
X14171458Y22329759D01*
X14199095Y22264362D01*
X14186988Y22194405D01*
X14138981Y22142100D01*
X14124932Y22135683D01*
X14124696Y22135646D01*
X14011658Y22078050D01*
X13921950Y21988342D01*
X13864354Y21875304D01*
X13862804Y21865515D01*
X13862803Y21865513D01*
X13859722Y21846059D01*
X13844508Y21750000D01*
X13864354Y21624696D01*
X13921950Y21511658D01*
X14011658Y21421950D01*
X14123367Y21365031D01*
X14124696Y21364354D01*
X14123706Y21362412D01*
X14171458Y21329759D01*
X14199095Y21264362D01*
X14186988Y21194405D01*
X14138981Y21142100D01*
X14124932Y21135683D01*
X14124696Y21135646D01*
X14011658Y21078050D01*
X13921950Y20988342D01*
X13864354Y20875304D01*
X13862804Y20865515D01*
X13862803Y20865513D01*
X13856870Y20828050D01*
X13844508Y20750000D01*
X1000Y20750000D01*
X1000Y23500000D01*
X20538519Y23500000D01*
X20558365Y23374696D01*
X20615961Y23261658D01*
X20705669Y23171950D01*
X20818707Y23114354D01*
X20828496Y23112804D01*
X20828498Y23112803D01*
X20934218Y23096059D01*
X20944011Y23094508D01*
X20953804Y23096059D01*
X21059524Y23112803D01*
X21059526Y23112804D01*
X21069315Y23114354D01*
X21182353Y23171950D01*
X21272061Y23261658D01*
X21329657Y23374696D01*
X21349503Y23500000D01*
X22344508Y23500000D01*
X22364354Y23374696D01*
X22421950Y23261658D01*
X22511658Y23171950D01*
X22624696Y23114354D01*
X22634485Y23112804D01*
X22634487Y23112803D01*
X22740207Y23096059D01*
X22750000Y23094508D01*
X22759793Y23096059D01*
X22865513Y23112803D01*
X22865515Y23112804D01*
X22875304Y23114354D01*
X22988342Y23171950D01*
X23078050Y23261658D01*
X23135646Y23374696D01*
X23155492Y23500000D01*
X23135646Y23625304D01*
X23099376Y23696488D01*
X23086272Y23766265D01*
X23112972Y23832050D01*
X23171000Y23872956D01*
X23241931Y23875996D01*
X23253610Y23871640D01*
X23253705Y23871931D01*
X23263138Y23868866D01*
X23271972Y23864365D01*
X23281761Y23862815D01*
X23281763Y23862814D01*
X23387483Y23846070D01*
X23397276Y23844519D01*
X23407069Y23846070D01*
X23512789Y23862814D01*
X23512791Y23862815D01*
X23522580Y23864365D01*
X23635618Y23921961D01*
X23725326Y24011669D01*
X23740963Y24042359D01*
X24046235Y24042359D01*
X24047786Y24032566D01*
X24064194Y23928972D01*
X24066081Y23917055D01*
X24123677Y23804017D01*
X24213385Y23714309D01*
X24326423Y23656713D01*
X24336212Y23655163D01*
X24336214Y23655162D01*
X24441934Y23638418D01*
X24451727Y23636867D01*
X24461520Y23638418D01*
X24567240Y23655162D01*
X24567242Y23655163D01*
X24577031Y23656713D01*
X24690069Y23714309D01*
X24779777Y23804017D01*
X24837373Y23917055D01*
X24839261Y23928972D01*
X24855668Y24032566D01*
X24857219Y24042359D01*
X24855451Y24053523D01*
X24838924Y24157872D01*
X24838923Y24157874D01*
X24837373Y24167663D01*
X24779777Y24280701D01*
X24690069Y24370409D01*
X24577031Y24428005D01*
X24567242Y24429555D01*
X24567240Y24429556D01*
X24461520Y24446300D01*
X24451727Y24447851D01*
X24441934Y24446300D01*
X24336214Y24429556D01*
X24336212Y24429555D01*
X24326423Y24428005D01*
X24213385Y24370409D01*
X24123677Y24280701D01*
X24066081Y24167663D01*
X24064531Y24157874D01*
X24064530Y24157872D01*
X24048003Y24053523D01*
X24046235Y24042359D01*
X23740963Y24042359D01*
X23782922Y24124707D01*
X23789726Y24167663D01*
X23801217Y24240218D01*
X23802768Y24250011D01*
X23796797Y24287712D01*
X23784473Y24365524D01*
X23784472Y24365526D01*
X23782922Y24375315D01*
X23725326Y24488353D01*
X23635618Y24578061D01*
X23522580Y24635657D01*
X23512791Y24637207D01*
X23512789Y24637208D01*
X23407069Y24653952D01*
X23397276Y24655503D01*
X23387483Y24653952D01*
X23281763Y24637208D01*
X23281761Y24637207D01*
X23271972Y24635657D01*
X23158934Y24578061D01*
X23069226Y24488353D01*
X23011630Y24375315D01*
X23010080Y24365526D01*
X23010079Y24365524D01*
X22997755Y24287712D01*
X22991784Y24250011D01*
X22993335Y24240218D01*
X23004827Y24167663D01*
X23011630Y24124707D01*
X23026227Y24096059D01*
X23047900Y24053523D01*
X23061004Y23983746D01*
X23034304Y23917961D01*
X22976276Y23877055D01*
X22905345Y23874015D01*
X22893666Y23878371D01*
X22893571Y23878080D01*
X22884137Y23881146D01*
X22875304Y23885646D01*
X22865515Y23887196D01*
X22865513Y23887197D01*
X22759793Y23903941D01*
X22750000Y23905492D01*
X22740207Y23903941D01*
X22634487Y23887197D01*
X22634485Y23887196D01*
X22624696Y23885646D01*
X22511658Y23828050D01*
X22421950Y23738342D01*
X22364354Y23625304D01*
X22344508Y23500000D01*
X21349503Y23500000D01*
X21329657Y23625304D01*
X21272061Y23738342D01*
X21182353Y23828050D01*
X21069315Y23885646D01*
X21059526Y23887196D01*
X21059524Y23887197D01*
X20953804Y23903941D01*
X20944011Y23905492D01*
X20934218Y23903941D01*
X20828498Y23887197D01*
X20828496Y23887196D01*
X20818707Y23885646D01*
X20705669Y23828050D01*
X20615961Y23738342D01*
X20558365Y23625304D01*
X20538519Y23500000D01*
X1000Y23500000D01*
X1000Y24500000D01*
X20139011Y24500000D01*
X20140562Y24490207D01*
X20151127Y24423504D01*
X20158857Y24374696D01*
X20216453Y24261658D01*
X20306161Y24171950D01*
X20419199Y24114354D01*
X20428988Y24112804D01*
X20428990Y24112803D01*
X20534710Y24096059D01*
X20544503Y24094508D01*
X20554296Y24096059D01*
X20660016Y24112803D01*
X20660018Y24112804D01*
X20669807Y24114354D01*
X20782845Y24171950D01*
X20860895Y24250000D01*
X21295497Y24250000D01*
X21297048Y24240207D01*
X21313791Y24134498D01*
X21315343Y24124696D01*
X21372939Y24011658D01*
X21462647Y23921950D01*
X21575685Y23864354D01*
X21585474Y23862804D01*
X21585476Y23862803D01*
X21691196Y23846059D01*
X21700989Y23844508D01*
X21710782Y23846059D01*
X21816502Y23862803D01*
X21816504Y23862804D01*
X21826293Y23864354D01*
X21939331Y23921950D01*
X22029039Y24011658D01*
X22086635Y24124696D01*
X22088188Y24134498D01*
X22104930Y24240207D01*
X22106481Y24250000D01*
X22103236Y24270491D01*
X22088186Y24365513D01*
X22088185Y24365515D01*
X22086635Y24375304D01*
X22029039Y24488342D01*
X21939331Y24578050D01*
X21826293Y24635646D01*
X21816504Y24637196D01*
X21816502Y24637197D01*
X21710782Y24653941D01*
X21700989Y24655492D01*
X21691196Y24653941D01*
X21585476Y24637197D01*
X21585474Y24637196D01*
X21575685Y24635646D01*
X21462647Y24578050D01*
X21372939Y24488342D01*
X21315343Y24375304D01*
X21313793Y24365515D01*
X21313792Y24365513D01*
X21298742Y24270491D01*
X21295497Y24250000D01*
X20860895Y24250000D01*
X20872553Y24261658D01*
X20930149Y24374696D01*
X20937880Y24423504D01*
X20948444Y24490207D01*
X20949995Y24500000D01*
X20937633Y24578050D01*
X20931700Y24615513D01*
X20931699Y24615515D01*
X20930149Y24625304D01*
X20872553Y24738342D01*
X20782845Y24828050D01*
X20774014Y24832550D01*
X20774008Y24832554D01*
X20721636Y24859239D01*
X20670021Y24907987D01*
X20652955Y24976902D01*
X20675856Y25044103D01*
X20731454Y25088255D01*
X20759128Y25095954D01*
X20814059Y25104654D01*
X20865512Y25112803D01*
X20865513Y25112803D01*
X20875304Y25114354D01*
X20988342Y25171950D01*
X21078050Y25261658D01*
X21135646Y25374696D01*
X21137381Y25385646D01*
X21153941Y25490207D01*
X21155492Y25500000D01*
X22369819Y25500000D01*
X22388426Y25382518D01*
X22392927Y25373685D01*
X22392927Y25373684D01*
X22412019Y25336214D01*
X22442427Y25276535D01*
X22526535Y25192427D01*
X22632518Y25138426D01*
X22750000Y25119819D01*
X22867482Y25138426D01*
X22973465Y25192427D01*
X23057573Y25276535D01*
X23087981Y25336214D01*
X23107073Y25373684D01*
X23107073Y25373685D01*
X23111574Y25382518D01*
X23122535Y25451727D01*
X23844508Y25451727D01*
X23846059Y25441934D01*
X23856869Y25373684D01*
X23864354Y25326423D01*
X23921950Y25213385D01*
X24011658Y25123677D01*
X24124696Y25066081D01*
X24134485Y25064531D01*
X24134487Y25064530D01*
X24240207Y25047786D01*
X24250000Y25046235D01*
X24259793Y25047786D01*
X24365513Y25064530D01*
X24365515Y25064531D01*
X24375304Y25066081D01*
X24488342Y25123677D01*
X24578050Y25213385D01*
X24635646Y25326423D01*
X24643132Y25373684D01*
X24653941Y25441934D01*
X24655492Y25451727D01*
X24650968Y25480289D01*
X24647846Y25500000D01*
X25869819Y25500000D01*
X25888426Y25382518D01*
X25892927Y25373685D01*
X25892927Y25373684D01*
X25912019Y25336214D01*
X25942427Y25276535D01*
X26026535Y25192427D01*
X26132518Y25138426D01*
X26250000Y25119819D01*
X26367482Y25138426D01*
X26473465Y25192427D01*
X26557573Y25276535D01*
X26587981Y25336214D01*
X26607073Y25373684D01*
X26607073Y25373685D01*
X26611574Y25382518D01*
X26630181Y25500000D01*
X28844508Y25500000D01*
X28846059Y25490207D01*
X28862620Y25385646D01*
X28864354Y25374696D01*
X28921950Y25261658D01*
X29011658Y25171950D01*
X29124696Y25114354D01*
X29134485Y25112804D01*
X29134487Y25112803D01*
X29240207Y25096059D01*
X29250000Y25094508D01*
X29259793Y25096059D01*
X29365513Y25112803D01*
X29365515Y25112804D01*
X29375304Y25114354D01*
X29389074Y25121370D01*
X29413117Y25133620D01*
X29482893Y25146724D01*
X29548678Y25120024D01*
X29589584Y25061996D01*
X29593217Y25019711D01*
X29596059Y25019711D01*
X29596059Y25009793D01*
X29594508Y25000000D01*
X29596059Y24990207D01*
X29612620Y24885646D01*
X29614354Y24874696D01*
X29671950Y24761658D01*
X29761658Y24671950D01*
X29874696Y24614354D01*
X29884485Y24612804D01*
X29884487Y24612803D01*
X29990207Y24596059D01*
X30000000Y24594508D01*
X30009793Y24596059D01*
X30115513Y24612803D01*
X30115515Y24612804D01*
X30125304Y24614354D01*
X30238342Y24671950D01*
X30328050Y24761658D01*
X30385646Y24874696D01*
X30387381Y24885646D01*
X30403941Y24990207D01*
X30405492Y25000000D01*
X30387626Y25112803D01*
X30387197Y25115513D01*
X30387196Y25115515D01*
X30385646Y25125304D01*
X30328050Y25238342D01*
X30238342Y25328050D01*
X30125304Y25385646D01*
X30115515Y25387196D01*
X30115513Y25387197D01*
X30009793Y25403941D01*
X30000000Y25405492D01*
X29990207Y25403941D01*
X29884487Y25387197D01*
X29884485Y25387196D01*
X29874696Y25385646D01*
X29865861Y25381144D01*
X29865860Y25381144D01*
X29836883Y25366380D01*
X29767107Y25353276D01*
X29701322Y25379976D01*
X29660416Y25438004D01*
X29656783Y25480289D01*
X29653941Y25480289D01*
X29653941Y25490207D01*
X29655492Y25500000D01*
X29653941Y25509793D01*
X29637197Y25615513D01*
X29637196Y25615515D01*
X29635646Y25625304D01*
X29578050Y25738342D01*
X29488342Y25828050D01*
X29479511Y25832550D01*
X29479505Y25832554D01*
X29378090Y25884228D01*
X29326475Y25932976D01*
X29309409Y26001891D01*
X29332310Y26069092D01*
X29387811Y26113167D01*
X29395304Y26114354D01*
X29415117Y26124449D01*
X29421753Y26127830D01*
X29508342Y26171950D01*
X29598050Y26261658D01*
X29655646Y26374696D01*
X29657872Y26388746D01*
X29673941Y26490207D01*
X29675492Y26500000D01*
X29673941Y26509793D01*
X29657197Y26615513D01*
X29657196Y26615515D01*
X29655646Y26625304D01*
X29598050Y26738342D01*
X29508342Y26828050D01*
X29395304Y26885646D01*
X29385515Y26887196D01*
X29385513Y26887197D01*
X29279793Y26903941D01*
X29270000Y26905492D01*
X29260207Y26903941D01*
X29154487Y26887197D01*
X29154485Y26887196D01*
X29144696Y26885646D01*
X29031658Y26828050D01*
X28941950Y26738342D01*
X28884354Y26625304D01*
X28882804Y26615515D01*
X28882803Y26615513D01*
X28866059Y26509793D01*
X28864508Y26500000D01*
X28866059Y26490207D01*
X28882129Y26388746D01*
X28884354Y26374696D01*
X28941950Y26261658D01*
X29031658Y26171950D01*
X29040489Y26167450D01*
X29040495Y26167446D01*
X29141910Y26115772D01*
X29193525Y26067024D01*
X29210591Y25998109D01*
X29187690Y25930908D01*
X29132189Y25886833D01*
X29124696Y25885646D01*
X29115865Y25881146D01*
X29115864Y25881146D01*
X29101219Y25873684D01*
X29011658Y25828050D01*
X28921950Y25738342D01*
X28864354Y25625304D01*
X28862804Y25615515D01*
X28862803Y25615513D01*
X28846059Y25509793D01*
X28844508Y25500000D01*
X26630181Y25500000D01*
X26611574Y25617482D01*
X26557573Y25723465D01*
X26473465Y25807573D01*
X26367482Y25861574D01*
X26279233Y25875551D01*
X26250546Y25889150D01*
X26220767Y25875551D01*
X26132518Y25861574D01*
X26026535Y25807573D01*
X25942427Y25723465D01*
X25888426Y25617482D01*
X25869819Y25500000D01*
X24647846Y25500000D01*
X24637197Y25567240D01*
X24637196Y25567242D01*
X24635646Y25577031D01*
X24578050Y25690069D01*
X24488342Y25779777D01*
X24375304Y25837373D01*
X24365515Y25838923D01*
X24365513Y25838924D01*
X24259793Y25855668D01*
X24250000Y25857219D01*
X24240207Y25855668D01*
X24134487Y25838924D01*
X24134485Y25838923D01*
X24124696Y25837373D01*
X24011658Y25779777D01*
X23921950Y25690069D01*
X23864354Y25577031D01*
X23862804Y25567242D01*
X23862803Y25567240D01*
X23849032Y25480289D01*
X23844508Y25451727D01*
X23122535Y25451727D01*
X23130181Y25500000D01*
X23111574Y25617482D01*
X23057573Y25723465D01*
X22973465Y25807573D01*
X22867482Y25861574D01*
X22840805Y25865799D01*
X22776651Y25896210D01*
X22750276Y25938566D01*
X22720630Y25893854D01*
X22659195Y25865799D01*
X22632518Y25861574D01*
X22526535Y25807573D01*
X22442427Y25723465D01*
X22388426Y25617482D01*
X22369819Y25500000D01*
X21155492Y25500000D01*
X21153941Y25509793D01*
X21137197Y25615513D01*
X21137196Y25615515D01*
X21135646Y25625304D01*
X21078050Y25738342D01*
X20988342Y25828050D01*
X20875304Y25885646D01*
X20865515Y25887196D01*
X20865513Y25887197D01*
X20759793Y25903941D01*
X20750000Y25905492D01*
X20740207Y25903941D01*
X20634487Y25887197D01*
X20634485Y25887196D01*
X20624696Y25885646D01*
X20511658Y25828050D01*
X20421950Y25738342D01*
X20364354Y25625304D01*
X20362804Y25615515D01*
X20362803Y25615513D01*
X20346059Y25509793D01*
X20344508Y25500000D01*
X20346059Y25490207D01*
X20362620Y25385646D01*
X20364354Y25374696D01*
X20421950Y25261658D01*
X20511658Y25171950D01*
X20520489Y25167450D01*
X20520495Y25167446D01*
X20572867Y25140761D01*
X20624482Y25092013D01*
X20641548Y25023098D01*
X20618647Y24955897D01*
X20563049Y24911745D01*
X20535375Y24904046D01*
X20480444Y24895346D01*
X20428991Y24887197D01*
X20428990Y24887197D01*
X20419199Y24885646D01*
X20306161Y24828050D01*
X20216453Y24738342D01*
X20158857Y24625304D01*
X20157307Y24615515D01*
X20157306Y24615513D01*
X20151373Y24578050D01*
X20139011Y24500000D01*
X1000Y24500000D01*
X1000Y27000000D01*
X18069519Y27000000D01*
X18071070Y26990207D01*
X18087631Y26885646D01*
X18089365Y26874696D01*
X18146961Y26761658D01*
X18236669Y26671950D01*
X18349707Y26614354D01*
X18359496Y26612804D01*
X18359498Y26612803D01*
X18379798Y26609588D01*
X18443951Y26579175D01*
X18481478Y26518907D01*
X18480464Y26447918D01*
X18441231Y26388746D01*
X18399023Y26365306D01*
X18392310Y26363125D01*
X18382518Y26361574D01*
X18276535Y26307573D01*
X18192427Y26223465D01*
X18138426Y26117482D01*
X18119819Y26000000D01*
X18138426Y25882518D01*
X18142927Y25873685D01*
X18142927Y25873684D01*
X18163722Y25832872D01*
X18192427Y25776535D01*
X18276535Y25692427D01*
X18382518Y25638426D01*
X18500000Y25619819D01*
X18617482Y25638426D01*
X18723465Y25692427D01*
X18807573Y25776535D01*
X18836278Y25832872D01*
X18857073Y25873684D01*
X18857073Y25873685D01*
X18861574Y25882518D01*
X18880181Y26000000D01*
X18861574Y26117482D01*
X18807573Y26223465D01*
X18723465Y26307573D01*
X18617482Y26361574D01*
X18596646Y26364874D01*
X18532492Y26395285D01*
X18494964Y26455552D01*
X18495976Y26526542D01*
X18535208Y26585714D01*
X18537143Y26586598D01*
X20737868Y26586598D01*
X20739419Y26576805D01*
X20754673Y26480497D01*
X20757714Y26461294D01*
X20815310Y26348256D01*
X20905018Y26258548D01*
X21018056Y26200952D01*
X21027845Y26199402D01*
X21027847Y26199401D01*
X21133567Y26182657D01*
X21143360Y26181106D01*
X21153153Y26182657D01*
X21258873Y26199401D01*
X21258875Y26199402D01*
X21268664Y26200952D01*
X21381702Y26258548D01*
X21471410Y26348256D01*
X21529006Y26461294D01*
X21532048Y26480497D01*
X22369819Y26480497D01*
X22388426Y26363015D01*
X22442427Y26257032D01*
X22526535Y26172924D01*
X22537286Y26167446D01*
X22621673Y26124449D01*
X22632518Y26118923D01*
X22642313Y26117372D01*
X22642315Y26117371D01*
X22659200Y26114696D01*
X22723352Y26084283D01*
X22749723Y26041929D01*
X22779367Y26086639D01*
X22840800Y26114696D01*
X22857685Y26117371D01*
X22857687Y26117372D01*
X22867482Y26118923D01*
X22878328Y26124449D01*
X22962714Y26167446D01*
X22973465Y26172924D01*
X23057573Y26257032D01*
X23111574Y26363015D01*
X23130181Y26480497D01*
X23127092Y26500000D01*
X25869819Y26500000D01*
X25888426Y26382518D01*
X25942427Y26276535D01*
X26026535Y26192427D01*
X26132518Y26138426D01*
X26142311Y26136875D01*
X26220767Y26124449D01*
X26249454Y26110850D01*
X26279233Y26124449D01*
X26357689Y26136875D01*
X26367482Y26138426D01*
X26473465Y26192427D01*
X26557573Y26276535D01*
X26611574Y26382518D01*
X26630181Y26500000D01*
X26627187Y26518907D01*
X26613125Y26607689D01*
X26611574Y26617482D01*
X26557573Y26723465D01*
X26473465Y26807573D01*
X26367482Y26861574D01*
X26250000Y26880181D01*
X26132518Y26861574D01*
X26026535Y26807573D01*
X25942427Y26723465D01*
X25888426Y26617482D01*
X25886875Y26607689D01*
X25872814Y26518907D01*
X25869819Y26500000D01*
X23127092Y26500000D01*
X23111574Y26597979D01*
X23105583Y26609738D01*
X23062073Y26695130D01*
X23057573Y26703962D01*
X22973465Y26788070D01*
X22867482Y26842071D01*
X22808741Y26851374D01*
X22759793Y26859127D01*
X22750000Y26860678D01*
X22740207Y26859127D01*
X22691259Y26851374D01*
X22632518Y26842071D01*
X22526535Y26788070D01*
X22442427Y26703962D01*
X22437927Y26695130D01*
X22394418Y26609738D01*
X22388426Y26597979D01*
X22369819Y26480497D01*
X21532048Y26480497D01*
X21547301Y26576805D01*
X21548852Y26586598D01*
X21540643Y26638426D01*
X21530557Y26702111D01*
X21530556Y26702113D01*
X21529006Y26711902D01*
X21471410Y26824940D01*
X21381702Y26914648D01*
X21268664Y26972244D01*
X21258875Y26973794D01*
X21258873Y26973795D01*
X21153153Y26990539D01*
X21143360Y26992090D01*
X21133567Y26990539D01*
X21027847Y26973795D01*
X21027845Y26973794D01*
X21018056Y26972244D01*
X20905018Y26914648D01*
X20815310Y26824940D01*
X20757714Y26711902D01*
X20756164Y26702113D01*
X20756163Y26702111D01*
X20746077Y26638426D01*
X20737868Y26586598D01*
X18537143Y26586598D01*
X18581958Y26607068D01*
X18581090Y26609738D01*
X18590523Y26612803D01*
X18600315Y26614354D01*
X18713353Y26671950D01*
X18803061Y26761658D01*
X18860657Y26874696D01*
X18862392Y26885646D01*
X18878952Y26990207D01*
X18880503Y27000000D01*
X23619819Y27000000D01*
X23638426Y26882518D01*
X23692427Y26776535D01*
X23776535Y26692427D01*
X23882518Y26638426D01*
X24000000Y26619819D01*
X24117482Y26638426D01*
X24223465Y26692427D01*
X24307573Y26776535D01*
X24361574Y26882518D01*
X24380181Y27000000D01*
X24361574Y27117482D01*
X24307573Y27223465D01*
X24223465Y27307573D01*
X24117482Y27361574D01*
X24000000Y27380181D01*
X23882518Y27361574D01*
X23776535Y27307573D01*
X23692427Y27223465D01*
X23638426Y27117482D01*
X23619819Y27000000D01*
X18880503Y27000000D01*
X18860657Y27125304D01*
X18803061Y27238342D01*
X18713353Y27328050D01*
X18600315Y27385646D01*
X18590526Y27387196D01*
X18590524Y27387197D01*
X18484804Y27403941D01*
X18475011Y27405492D01*
X18465218Y27403941D01*
X18359498Y27387197D01*
X18359496Y27387196D01*
X18349707Y27385646D01*
X18236669Y27328050D01*
X18146961Y27238342D01*
X18089365Y27125304D01*
X18069519Y27000000D01*
X1000Y27000000D01*
X1000Y28000000D01*
X18369819Y28000000D01*
X18388426Y27882518D01*
X18442427Y27776535D01*
X18526535Y27692427D01*
X18632518Y27638426D01*
X18750000Y27619819D01*
X18867482Y27638426D01*
X18973465Y27692427D01*
X19057573Y27776535D01*
X19111574Y27882518D01*
X19126974Y27979752D01*
X20138926Y27979752D01*
X20157533Y27862270D01*
X20211534Y27756287D01*
X20295642Y27672179D01*
X20322722Y27658381D01*
X20387206Y27625525D01*
X20401625Y27618178D01*
X20519107Y27599571D01*
X20636589Y27618178D01*
X20651009Y27625525D01*
X20715492Y27658381D01*
X20742572Y27672179D01*
X20826680Y27756287D01*
X20880681Y27862270D01*
X20882044Y27870878D01*
X21215386Y27870878D01*
X21216937Y27861085D01*
X21231439Y27769524D01*
X21235232Y27745574D01*
X21292828Y27632536D01*
X21382536Y27542828D01*
X21495574Y27485232D01*
X21505363Y27483682D01*
X21505365Y27483681D01*
X21611085Y27466937D01*
X21620878Y27465386D01*
X21630671Y27466937D01*
X21736391Y27483681D01*
X21736393Y27483682D01*
X21746182Y27485232D01*
X21859220Y27542828D01*
X21948928Y27632536D01*
X22006524Y27745574D01*
X22010318Y27769524D01*
X22013960Y27792518D01*
X22637026Y27792518D01*
X22638577Y27782725D01*
X22652879Y27692427D01*
X22656872Y27667214D01*
X22714468Y27554176D01*
X22804176Y27464468D01*
X22917214Y27406872D01*
X22927003Y27405322D01*
X22927005Y27405321D01*
X23032725Y27388577D01*
X23042518Y27387026D01*
X23052311Y27388577D01*
X23158031Y27405321D01*
X23158033Y27405322D01*
X23167822Y27406872D01*
X23280860Y27464468D01*
X23370568Y27554176D01*
X23428164Y27667214D01*
X23432158Y27692427D01*
X23446459Y27782725D01*
X23448010Y27792518D01*
X23437150Y27861085D01*
X23429715Y27908031D01*
X23429714Y27908033D01*
X23428164Y27917822D01*
X23370568Y28030860D01*
X23280860Y28120568D01*
X23167822Y28178164D01*
X23158033Y28179714D01*
X23158031Y28179715D01*
X23052311Y28196459D01*
X23042518Y28198010D01*
X23032725Y28196459D01*
X22927005Y28179715D01*
X22927003Y28179714D01*
X22917214Y28178164D01*
X22804176Y28120568D01*
X22714468Y28030860D01*
X22656872Y27917822D01*
X22655322Y27908033D01*
X22655321Y27908031D01*
X22647886Y27861085D01*
X22637026Y27792518D01*
X22013960Y27792518D01*
X22024819Y27861085D01*
X22026370Y27870878D01*
X22015038Y27942427D01*
X22008075Y27986391D01*
X22008074Y27986393D01*
X22006524Y27996182D01*
X21948928Y28109220D01*
X21859220Y28198928D01*
X21758986Y28250000D01*
X23619819Y28250000D01*
X23638426Y28132518D01*
X23642927Y28123685D01*
X23642927Y28123684D01*
X23656404Y28097234D01*
X23692427Y28026535D01*
X23776535Y27942427D01*
X23882518Y27888426D01*
X24000000Y27869819D01*
X24117482Y27888426D01*
X24223465Y27942427D01*
X24307573Y28026535D01*
X24343596Y28097234D01*
X24357073Y28123684D01*
X24357073Y28123685D01*
X24361574Y28132518D01*
X24380181Y28250000D01*
X24361574Y28367482D01*
X24307573Y28473465D01*
X24281038Y28500000D01*
X28844508Y28500000D01*
X28846059Y28490207D01*
X28862092Y28388981D01*
X28864354Y28374696D01*
X28921950Y28261658D01*
X29011658Y28171950D01*
X29124696Y28114354D01*
X29134485Y28112804D01*
X29134487Y28112803D01*
X29240207Y28096059D01*
X29250000Y28094508D01*
X29259793Y28096059D01*
X29365513Y28112803D01*
X29365515Y28112804D01*
X29375304Y28114354D01*
X29488342Y28171950D01*
X29578050Y28261658D01*
X29635646Y28374696D01*
X29637588Y28373706D01*
X29670241Y28421458D01*
X29735638Y28449095D01*
X29805595Y28436988D01*
X29857900Y28388981D01*
X29864317Y28374932D01*
X29864354Y28374696D01*
X29921950Y28261658D01*
X30011658Y28171950D01*
X30124696Y28114354D01*
X30134485Y28112804D01*
X30134487Y28112803D01*
X30240207Y28096059D01*
X30250000Y28094508D01*
X30259793Y28096059D01*
X30365513Y28112803D01*
X30365515Y28112804D01*
X30375304Y28114354D01*
X30488342Y28171950D01*
X30578050Y28261658D01*
X30635646Y28374696D01*
X30637909Y28388981D01*
X30653941Y28490207D01*
X30655492Y28500000D01*
X30647430Y28550905D01*
X30637197Y28615513D01*
X30637196Y28615515D01*
X30635646Y28625304D01*
X30578050Y28738342D01*
X30488342Y28828050D01*
X30375304Y28885646D01*
X30365515Y28887196D01*
X30365513Y28887197D01*
X30259793Y28903941D01*
X30250000Y28905492D01*
X30240207Y28903941D01*
X30134487Y28887197D01*
X30134485Y28887196D01*
X30124696Y28885646D01*
X30011658Y28828050D01*
X29921950Y28738342D01*
X29864354Y28625304D01*
X29862412Y28626294D01*
X29829759Y28578542D01*
X29764362Y28550905D01*
X29694405Y28563012D01*
X29642100Y28611019D01*
X29635683Y28625068D01*
X29635646Y28625304D01*
X29578050Y28738342D01*
X29488342Y28828050D01*
X29375304Y28885646D01*
X29365515Y28887196D01*
X29365513Y28887197D01*
X29259793Y28903941D01*
X29250000Y28905492D01*
X29240207Y28903941D01*
X29134487Y28887197D01*
X29134485Y28887196D01*
X29124696Y28885646D01*
X29011658Y28828050D01*
X28921950Y28738342D01*
X28864354Y28625304D01*
X28862804Y28615515D01*
X28862803Y28615513D01*
X28852570Y28550905D01*
X28844508Y28500000D01*
X24281038Y28500000D01*
X24223465Y28557573D01*
X24117482Y28611574D01*
X24000000Y28630181D01*
X23882518Y28611574D01*
X23776535Y28557573D01*
X23692427Y28473465D01*
X23638426Y28367482D01*
X23619819Y28250000D01*
X21758986Y28250000D01*
X21746182Y28256524D01*
X21736393Y28258074D01*
X21736391Y28258075D01*
X21630671Y28274819D01*
X21620878Y28276370D01*
X21611085Y28274819D01*
X21505365Y28258075D01*
X21505363Y28258074D01*
X21495574Y28256524D01*
X21382536Y28198928D01*
X21292828Y28109220D01*
X21235232Y27996182D01*
X21233682Y27986393D01*
X21233681Y27986391D01*
X21226718Y27942427D01*
X21215386Y27870878D01*
X20882044Y27870878D01*
X20899288Y27979752D01*
X20880681Y28097234D01*
X20826680Y28203217D01*
X20742572Y28287325D01*
X20636589Y28341326D01*
X20519107Y28359933D01*
X20401625Y28341326D01*
X20295642Y28287325D01*
X20211534Y28203217D01*
X20157533Y28097234D01*
X20138926Y27979752D01*
X19126974Y27979752D01*
X19130181Y28000000D01*
X19111574Y28117482D01*
X19057573Y28223465D01*
X18973465Y28307573D01*
X18867482Y28361574D01*
X18750000Y28380181D01*
X18632518Y28361574D01*
X18526535Y28307573D01*
X18442427Y28223465D01*
X18388426Y28117482D01*
X18369819Y28000000D01*
X1000Y28000000D01*
X1000Y29475980D01*
X19520008Y29475980D01*
X19521559Y29466187D01*
X19537688Y29364354D01*
X19539854Y29350676D01*
X19597450Y29237638D01*
X19687158Y29147930D01*
X19800196Y29090334D01*
X19809985Y29088784D01*
X19809987Y29088783D01*
X19915707Y29072039D01*
X19925500Y29070488D01*
X19935293Y29072039D01*
X20041013Y29088783D01*
X20041015Y29088784D01*
X20050804Y29090334D01*
X20163842Y29147930D01*
X20253550Y29237638D01*
X20311146Y29350676D01*
X20313313Y29364354D01*
X20329441Y29466187D01*
X20330992Y29475980D01*
X20311146Y29601284D01*
X20253550Y29714322D01*
X20217872Y29750000D01*
X21094508Y29750000D01*
X21096059Y29740207D01*
X21107583Y29667450D01*
X21114354Y29624696D01*
X21171950Y29511658D01*
X21261658Y29421950D01*
X21374696Y29364354D01*
X21384485Y29362804D01*
X21384487Y29362803D01*
X21490207Y29346059D01*
X21500000Y29344508D01*
X21509793Y29346059D01*
X21615513Y29362803D01*
X21615515Y29362804D01*
X21625304Y29364354D01*
X21738342Y29421950D01*
X21828050Y29511658D01*
X21885646Y29624696D01*
X21892418Y29667450D01*
X21903941Y29740207D01*
X21905492Y29750000D01*
X21888525Y29857125D01*
X21887197Y29865513D01*
X21887196Y29865515D01*
X21885646Y29875304D01*
X21828050Y29988342D01*
X21816392Y30000000D01*
X22594508Y30000000D01*
X22614354Y29874696D01*
X22671950Y29761658D01*
X22761658Y29671950D01*
X22874696Y29614354D01*
X22884485Y29612804D01*
X22884487Y29612803D01*
X22990207Y29596059D01*
X23000000Y29594508D01*
X23009793Y29596059D01*
X23115513Y29612803D01*
X23115515Y29612804D01*
X23125304Y29614354D01*
X23238342Y29671950D01*
X23328050Y29761658D01*
X23385646Y29874696D01*
X23405492Y30000000D01*
X23393130Y30078050D01*
X23387197Y30115513D01*
X23387196Y30115515D01*
X23385646Y30125304D01*
X23328050Y30238342D01*
X23238342Y30328050D01*
X23125304Y30385646D01*
X23115515Y30387196D01*
X23115513Y30387197D01*
X23009793Y30403941D01*
X23000000Y30405492D01*
X22990207Y30403941D01*
X22884487Y30387197D01*
X22884485Y30387196D01*
X22874696Y30385646D01*
X22761658Y30328050D01*
X22671950Y30238342D01*
X22614354Y30125304D01*
X22612804Y30115515D01*
X22612803Y30115513D01*
X22606870Y30078050D01*
X22594508Y30000000D01*
X21816392Y30000000D01*
X21738342Y30078050D01*
X21625304Y30135646D01*
X21615515Y30137196D01*
X21615513Y30137197D01*
X21509793Y30153941D01*
X21500000Y30155492D01*
X21490207Y30153941D01*
X21384487Y30137197D01*
X21384485Y30137196D01*
X21374696Y30135646D01*
X21261658Y30078050D01*
X21171950Y29988342D01*
X21114354Y29875304D01*
X21112804Y29865515D01*
X21112803Y29865513D01*
X21111475Y29857125D01*
X21094508Y29750000D01*
X20217872Y29750000D01*
X20163842Y29804030D01*
X20050804Y29861626D01*
X20041015Y29863176D01*
X20041013Y29863177D01*
X19935293Y29879921D01*
X19925500Y29881472D01*
X19915707Y29879921D01*
X19809987Y29863177D01*
X19809985Y29863176D01*
X19800196Y29861626D01*
X19687158Y29804030D01*
X19597450Y29714322D01*
X19539854Y29601284D01*
X19520008Y29475980D01*
X1000Y29475980D01*
X1000Y31250000D01*
X4344508Y31250000D01*
X4346059Y31240207D01*
X4359763Y31153685D01*
X4364354Y31124696D01*
X4421950Y31011658D01*
X4511658Y30921950D01*
X4624696Y30864354D01*
X4634485Y30862804D01*
X4634487Y30862803D01*
X4740207Y30846059D01*
X4750000Y30844508D01*
X4759793Y30846059D01*
X4865513Y30862803D01*
X4865515Y30862804D01*
X4875304Y30864354D01*
X4988342Y30921950D01*
X5078050Y31011658D01*
X5135646Y31124696D01*
X5140238Y31153685D01*
X5153941Y31240207D01*
X5155492Y31250000D01*
X5143130Y31328050D01*
X5137197Y31365513D01*
X5137196Y31365515D01*
X5135646Y31375304D01*
X5078050Y31488342D01*
X4988342Y31578050D01*
X4875304Y31635646D01*
X4865515Y31637196D01*
X4865513Y31637197D01*
X4759793Y31653941D01*
X4750000Y31655492D01*
X4740207Y31653941D01*
X4634487Y31637197D01*
X4634485Y31637196D01*
X4624696Y31635646D01*
X4511658Y31578050D01*
X4421950Y31488342D01*
X4364354Y31375304D01*
X4362804Y31365515D01*
X4362803Y31365513D01*
X4356870Y31328050D01*
X4344508Y31250000D01*
X1000Y31250000D01*
X1000Y35934037D01*
X2994757Y35934037D01*
X3011175Y35738517D01*
X3065258Y35549909D01*
X3068076Y35544426D01*
X3152123Y35380887D01*
X3152126Y35380883D01*
X3154944Y35375399D01*
X3276818Y35221631D01*
X3281511Y35217637D01*
X3281512Y35217636D01*
X3417003Y35102325D01*
X3426238Y35094465D01*
X3431616Y35091459D01*
X3431618Y35091458D01*
X3467932Y35071163D01*
X3597513Y34998743D01*
X3784118Y34938111D01*
X3978946Y34914879D01*
X3985081Y34915351D01*
X3985083Y34915351D01*
X4168434Y34929459D01*
X4168438Y34929460D01*
X4174576Y34929932D01*
X4363556Y34982697D01*
X4538689Y35071163D01*
X4568515Y35094465D01*
X4648781Y35157176D01*
X4693303Y35191960D01*
X4697477Y35196795D01*
X4817485Y35335827D01*
X4817485Y35335828D01*
X4821509Y35340489D01*
X4918425Y35511091D01*
X4980358Y35697268D01*
X4987130Y35750874D01*
X10495541Y35750874D01*
X10525935Y35549903D01*
X10528141Y35543908D01*
X10528141Y35543907D01*
X10531269Y35535405D01*
X10596119Y35359148D01*
X10599479Y35353728D01*
X10599480Y35353727D01*
X10699863Y35191824D01*
X10699866Y35191820D01*
X10703226Y35186401D01*
X10707612Y35181763D01*
X10831648Y35050599D01*
X10842881Y35038720D01*
X11009379Y34922137D01*
X11195919Y34841414D01*
X11241947Y34831798D01*
X11390144Y34800838D01*
X11390149Y34800837D01*
X11394880Y34799849D01*
X11399762Y34799593D01*
X11399871Y34799587D01*
X11399887Y34799587D01*
X11401539Y34799500D01*
X12550800Y34799500D01*
X12598793Y34804375D01*
X12695868Y34814235D01*
X12695870Y34814235D01*
X12702216Y34814880D01*
X12896172Y34875662D01*
X12912187Y34884539D01*
X12948751Y34904807D01*
X13073944Y34974203D01*
X13080869Y34980138D01*
X13144945Y35035058D01*
X13228271Y35106477D01*
X13232451Y35111865D01*
X13298372Y35196851D01*
X13352848Y35267081D01*
X13442587Y35449455D01*
X13464974Y35535398D01*
X13492212Y35639966D01*
X13492212Y35639969D01*
X13493822Y35646148D01*
X13504459Y35849126D01*
X13474065Y36050097D01*
X13403881Y36240852D01*
X13350345Y36327198D01*
X13300137Y36408176D01*
X13300134Y36408180D01*
X13296774Y36413599D01*
X13157119Y36561280D01*
X12990621Y36677863D01*
X12804081Y36758586D01*
X12758053Y36768202D01*
X12609856Y36799162D01*
X12609851Y36799163D01*
X12605120Y36800151D01*
X12600238Y36800407D01*
X12600129Y36800413D01*
X12600113Y36800413D01*
X12598461Y36800500D01*
X11449200Y36800500D01*
X11401207Y36795625D01*
X11304132Y36785765D01*
X11304130Y36785765D01*
X11297784Y36785120D01*
X11103828Y36724338D01*
X10926056Y36625797D01*
X10771729Y36493523D01*
X10767822Y36488486D01*
X10767820Y36488484D01*
X10713331Y36418237D01*
X10647152Y36332919D01*
X10557413Y36150545D01*
X10555804Y36144367D01*
X10555803Y36144365D01*
X10529603Y36043780D01*
X10506178Y35953852D01*
X10495541Y35750874D01*
X4987130Y35750874D01*
X5004949Y35891929D01*
X5005341Y35920000D01*
X4986194Y36115272D01*
X4984413Y36121171D01*
X4984412Y36121176D01*
X4931265Y36297207D01*
X4929484Y36303106D01*
X4837370Y36476347D01*
X4713361Y36628398D01*
X4562180Y36753465D01*
X4389585Y36846787D01*
X4295869Y36875797D01*
X4208039Y36902985D01*
X4208036Y36902986D01*
X4202152Y36904807D01*
X4196027Y36905451D01*
X4196026Y36905451D01*
X4013147Y36924673D01*
X4013146Y36924673D01*
X4007019Y36925317D01*
X3884383Y36914156D01*
X3817759Y36908093D01*
X3817758Y36908093D01*
X3811618Y36907534D01*
X3805704Y36905793D01*
X3805702Y36905793D01*
X3676734Y36867835D01*
X3623393Y36852136D01*
X3617928Y36849279D01*
X3454972Y36764088D01*
X3454968Y36764085D01*
X3449512Y36761233D01*
X3444712Y36757373D01*
X3444711Y36757373D01*
X3410326Y36729727D01*
X3296600Y36638289D01*
X3170480Y36487984D01*
X3167516Y36482592D01*
X3167513Y36482588D01*
X3132136Y36418237D01*
X3075956Y36316046D01*
X3074095Y36310179D01*
X3074094Y36310177D01*
X3052103Y36240852D01*
X3016628Y36129022D01*
X2994757Y35934037D01*
X1000Y35934037D01*
X1000Y38514037D01*
X12994757Y38514037D01*
X13011175Y38318517D01*
X13065258Y38129909D01*
X13068076Y38124426D01*
X13152123Y37960887D01*
X13152126Y37960883D01*
X13154944Y37955399D01*
X13276818Y37801631D01*
X13426238Y37674465D01*
X13431616Y37671459D01*
X13431618Y37671458D01*
X13467932Y37651163D01*
X13597513Y37578743D01*
X13784118Y37518111D01*
X13978946Y37494879D01*
X13985081Y37495351D01*
X13985083Y37495351D01*
X14168434Y37509459D01*
X14168438Y37509460D01*
X14174576Y37509932D01*
X14363556Y37562697D01*
X14538689Y37651163D01*
X14568515Y37674465D01*
X14688453Y37768171D01*
X14693303Y37771960D01*
X14723084Y37806461D01*
X14817485Y37915827D01*
X14817485Y37915828D01*
X14821509Y37920489D01*
X14918425Y38091091D01*
X14980358Y38277268D01*
X15004949Y38471929D01*
X15005341Y38500000D01*
X14986194Y38695272D01*
X14984413Y38701171D01*
X14984412Y38701176D01*
X14931265Y38877207D01*
X14929484Y38883106D01*
X14837370Y39056347D01*
X14713361Y39208398D01*
X14562180Y39333465D01*
X14389585Y39426787D01*
X14295868Y39455797D01*
X14208039Y39482985D01*
X14208036Y39482986D01*
X14202152Y39484807D01*
X14196027Y39485451D01*
X14196026Y39485451D01*
X14013147Y39504673D01*
X14013146Y39504673D01*
X14007019Y39505317D01*
X13884383Y39494156D01*
X13817759Y39488093D01*
X13817758Y39488093D01*
X13811618Y39487534D01*
X13805704Y39485793D01*
X13805702Y39485793D01*
X13676734Y39447835D01*
X13623393Y39432136D01*
X13617928Y39429279D01*
X13454972Y39344088D01*
X13454968Y39344085D01*
X13449512Y39341233D01*
X13444712Y39337373D01*
X13444711Y39337373D01*
X13410326Y39309727D01*
X13296600Y39218289D01*
X13170480Y39067984D01*
X13167516Y39062592D01*
X13167513Y39062588D01*
X13119611Y38975454D01*
X13075956Y38896046D01*
X13016628Y38709022D01*
X12994757Y38514037D01*
X1000Y38514037D01*
X1000Y39232867D01*
X5778830Y39232867D01*
X5797750Y39089158D01*
X5853219Y38955242D01*
X5941459Y38840246D01*
X6056455Y38752006D01*
X6190371Y38696537D01*
X6334080Y38677617D01*
X6477789Y38696537D01*
X6611705Y38752006D01*
X6726701Y38840246D01*
X6814941Y38955242D01*
X6870410Y39089158D01*
X6889330Y39232867D01*
X6870410Y39376576D01*
X6814941Y39510492D01*
X6726701Y39625488D01*
X6611705Y39713728D01*
X6477789Y39769197D01*
X6334080Y39788117D01*
X6190371Y39769197D01*
X6056455Y39713728D01*
X5941459Y39625488D01*
X5853219Y39510492D01*
X5797750Y39376576D01*
X5778830Y39232867D01*
X1000Y39232867D01*
X1000Y41014037D01*
X2994757Y41014037D01*
X3011175Y40818517D01*
X3065258Y40629909D01*
X3068076Y40624426D01*
X3152123Y40460887D01*
X3152126Y40460883D01*
X3154944Y40455399D01*
X3276818Y40301631D01*
X3426238Y40174465D01*
X3431616Y40171459D01*
X3431618Y40171458D01*
X3467932Y40151163D01*
X3597513Y40078743D01*
X3784118Y40018111D01*
X3978946Y39994879D01*
X3985081Y39995351D01*
X3985083Y39995351D01*
X4168434Y40009459D01*
X4168438Y40009460D01*
X4174576Y40009932D01*
X4363556Y40062697D01*
X4538689Y40151163D01*
X4568515Y40174465D01*
X4688453Y40268171D01*
X4693303Y40271960D01*
X4723084Y40306461D01*
X4817485Y40415827D01*
X4817485Y40415828D01*
X4821509Y40420489D01*
X4918425Y40591091D01*
X4980358Y40777268D01*
X4982975Y40797984D01*
X5011357Y40863060D01*
X5070416Y40902462D01*
X5141402Y40903679D01*
X5201777Y40866324D01*
X5224390Y40830410D01*
X5269139Y40722375D01*
X5357379Y40607379D01*
X5472375Y40519139D01*
X5606291Y40463670D01*
X5750000Y40444750D01*
X5893709Y40463670D01*
X6027625Y40519139D01*
X6142621Y40607379D01*
X6230861Y40722375D01*
X6286330Y40856291D01*
X6305250Y41000000D01*
X6303402Y41014037D01*
X12994757Y41014037D01*
X13011175Y40818517D01*
X13065258Y40629909D01*
X13068076Y40624426D01*
X13152123Y40460887D01*
X13152126Y40460883D01*
X13154944Y40455399D01*
X13276818Y40301631D01*
X13426238Y40174465D01*
X13431616Y40171459D01*
X13431618Y40171458D01*
X13467932Y40151163D01*
X13597513Y40078743D01*
X13784118Y40018111D01*
X13978946Y39994879D01*
X13985081Y39995351D01*
X13985083Y39995351D01*
X14168434Y40009459D01*
X14168438Y40009460D01*
X14174576Y40009932D01*
X14363556Y40062697D01*
X14538689Y40151163D01*
X14568515Y40174465D01*
X14688453Y40268171D01*
X14693303Y40271960D01*
X14723084Y40306461D01*
X14817485Y40415827D01*
X14817485Y40415828D01*
X14821509Y40420489D01*
X14918425Y40591091D01*
X14980358Y40777268D01*
X15004949Y40971929D01*
X15005341Y41000000D01*
X14986194Y41195272D01*
X14984413Y41201171D01*
X14984412Y41201176D01*
X14931265Y41377207D01*
X14929484Y41383106D01*
X14837370Y41556347D01*
X14713361Y41708398D01*
X14562180Y41833465D01*
X14389585Y41926787D01*
X14295869Y41955797D01*
X14208039Y41982985D01*
X14208036Y41982986D01*
X14202152Y41984807D01*
X14196027Y41985451D01*
X14196026Y41985451D01*
X14013147Y42004673D01*
X14013146Y42004673D01*
X14007019Y42005317D01*
X13884383Y41994156D01*
X13817759Y41988093D01*
X13817758Y41988093D01*
X13811618Y41987534D01*
X13805704Y41985793D01*
X13805702Y41985793D01*
X13676734Y41947835D01*
X13623393Y41932136D01*
X13617928Y41929279D01*
X13454972Y41844088D01*
X13454968Y41844085D01*
X13449512Y41841233D01*
X13444712Y41837373D01*
X13444711Y41837373D01*
X13410326Y41809727D01*
X13296600Y41718289D01*
X13170480Y41567984D01*
X13167516Y41562592D01*
X13167513Y41562588D01*
X13119819Y41475832D01*
X13075956Y41396046D01*
X13074095Y41390179D01*
X13074094Y41390177D01*
X13071851Y41383106D01*
X13016628Y41209022D01*
X12994757Y41014037D01*
X6303402Y41014037D01*
X6286330Y41143709D01*
X6230861Y41277625D01*
X6142621Y41392621D01*
X6027625Y41480861D01*
X5893709Y41536330D01*
X5750000Y41555250D01*
X5606291Y41536330D01*
X5472375Y41480861D01*
X5357379Y41392621D01*
X5269139Y41277625D01*
X5265980Y41269998D01*
X5265977Y41269993D01*
X5225462Y41172178D01*
X5180914Y41116897D01*
X5113551Y41094475D01*
X5044760Y41112033D01*
X4996381Y41163994D01*
X4986403Y41193145D01*
X4986194Y41195272D01*
X4984412Y41201176D01*
X4931265Y41377207D01*
X4929484Y41383106D01*
X4837370Y41556347D01*
X4713361Y41708398D01*
X4562180Y41833465D01*
X4389585Y41926787D01*
X4295869Y41955797D01*
X4208039Y41982985D01*
X4208036Y41982986D01*
X4202152Y41984807D01*
X4196027Y41985451D01*
X4196026Y41985451D01*
X4013147Y42004673D01*
X4013146Y42004673D01*
X4007019Y42005317D01*
X3884383Y41994156D01*
X3817759Y41988093D01*
X3817758Y41988093D01*
X3811618Y41987534D01*
X3805704Y41985793D01*
X3805702Y41985793D01*
X3676734Y41947835D01*
X3623393Y41932136D01*
X3617928Y41929279D01*
X3454972Y41844088D01*
X3454968Y41844085D01*
X3449512Y41841233D01*
X3444712Y41837373D01*
X3444711Y41837373D01*
X3410326Y41809727D01*
X3296600Y41718289D01*
X3170480Y41567984D01*
X3167516Y41562592D01*
X3167513Y41562588D01*
X3119819Y41475832D01*
X3075956Y41396046D01*
X3074095Y41390179D01*
X3074094Y41390177D01*
X3071851Y41383106D01*
X3016628Y41209022D01*
X2994757Y41014037D01*
X1000Y41014037D01*
X1000Y43514037D01*
X12994757Y43514037D01*
X13011175Y43318517D01*
X13065258Y43129909D01*
X13068076Y43124426D01*
X13152123Y42960887D01*
X13152126Y42960883D01*
X13154944Y42955399D01*
X13276818Y42801631D01*
X13426238Y42674465D01*
X13431616Y42671459D01*
X13431618Y42671458D01*
X13467932Y42651163D01*
X13597513Y42578743D01*
X13784118Y42518111D01*
X13978946Y42494879D01*
X13985081Y42495351D01*
X13985083Y42495351D01*
X14168434Y42509459D01*
X14168438Y42509460D01*
X14174576Y42509932D01*
X14363556Y42562697D01*
X14538689Y42651163D01*
X14568515Y42674465D01*
X14688453Y42768171D01*
X14693303Y42771960D01*
X14723084Y42806461D01*
X14817485Y42915827D01*
X14817485Y42915828D01*
X14821509Y42920489D01*
X14918425Y43091091D01*
X14980358Y43277268D01*
X15004949Y43471929D01*
X15005341Y43500000D01*
X14986194Y43695272D01*
X14984413Y43701171D01*
X14984412Y43701176D01*
X14931265Y43877207D01*
X14929484Y43883106D01*
X14837370Y44056347D01*
X14713361Y44208398D01*
X14562180Y44333465D01*
X14389585Y44426787D01*
X14254677Y44468548D01*
X14208039Y44482985D01*
X14208036Y44482986D01*
X14202152Y44484807D01*
X14196027Y44485451D01*
X14196026Y44485451D01*
X14013147Y44504673D01*
X14013146Y44504673D01*
X14007019Y44505317D01*
X13884383Y44494156D01*
X13817759Y44488093D01*
X13817758Y44488093D01*
X13811618Y44487534D01*
X13805704Y44485793D01*
X13805702Y44485793D01*
X13728619Y44463106D01*
X13623393Y44432136D01*
X13617928Y44429279D01*
X13454972Y44344088D01*
X13454968Y44344085D01*
X13449512Y44341233D01*
X13444712Y44337373D01*
X13444711Y44337373D01*
X13410326Y44309727D01*
X13296600Y44218289D01*
X13170480Y44067984D01*
X13167516Y44062592D01*
X13167513Y44062588D01*
X13159727Y44048425D01*
X13075956Y43896046D01*
X13016628Y43709022D01*
X12994757Y43514037D01*
X1000Y43514037D01*
X1000Y46094037D01*
X2994757Y46094037D01*
X3011175Y45898517D01*
X3065258Y45709909D01*
X3068076Y45704426D01*
X3152123Y45540887D01*
X3152126Y45540883D01*
X3154944Y45535399D01*
X3276818Y45381631D01*
X3281511Y45377637D01*
X3281512Y45377636D01*
X3401332Y45275662D01*
X3426238Y45254465D01*
X3431616Y45251459D01*
X3431618Y45251458D01*
X3497067Y45214880D01*
X3597513Y45158743D01*
X3784118Y45098111D01*
X3978946Y45074879D01*
X3985081Y45075351D01*
X3985083Y45075351D01*
X4168434Y45089459D01*
X4168438Y45089460D01*
X4174576Y45089932D01*
X4363556Y45142697D01*
X4538689Y45231163D01*
X4568515Y45254465D01*
X4688453Y45348171D01*
X4693303Y45351960D01*
X4723084Y45386461D01*
X4817485Y45495827D01*
X4817485Y45495828D01*
X4821509Y45500489D01*
X4918425Y45671091D01*
X4980358Y45857268D01*
X5004949Y46051929D01*
X5005341Y46080000D01*
X4998392Y46150874D01*
X10495541Y46150874D01*
X10525935Y45949903D01*
X10596119Y45759148D01*
X10599479Y45753728D01*
X10599480Y45753727D01*
X10699863Y45591824D01*
X10699866Y45591820D01*
X10703226Y45586401D01*
X10707612Y45581763D01*
X10788878Y45495827D01*
X10842881Y45438720D01*
X11009379Y45322137D01*
X11195919Y45241414D01*
X11226851Y45234952D01*
X11390144Y45200838D01*
X11390149Y45200837D01*
X11394880Y45199849D01*
X11399762Y45199593D01*
X11399871Y45199587D01*
X11399887Y45199587D01*
X11401539Y45199500D01*
X12550800Y45199500D01*
X12598793Y45204375D01*
X12695868Y45214235D01*
X12695870Y45214235D01*
X12702216Y45214880D01*
X12896172Y45275662D01*
X13073944Y45374203D01*
X13228271Y45506477D01*
X13246957Y45530566D01*
X13348939Y45662042D01*
X13352848Y45667081D01*
X13442587Y45849455D01*
X13445180Y45859409D01*
X13492212Y46039966D01*
X13492212Y46039969D01*
X13493822Y46046148D01*
X13504459Y46249126D01*
X13474065Y46450097D01*
X13403881Y46640852D01*
X13400535Y46646249D01*
X15641241Y46646249D01*
X15645448Y46646249D01*
X15645448Y35647267D01*
X15645387Y35646498D01*
X15645366Y35646447D01*
X15642278Y35646447D01*
X15654910Y35534255D01*
X15692193Y35427688D01*
X15752257Y35332090D01*
X15832090Y35252257D01*
X15927688Y35192193D01*
X15980971Y35173552D01*
X16027580Y35157245D01*
X16027582Y35157244D01*
X16034255Y35154910D01*
X16146447Y35142278D01*
X16146333Y35141269D01*
X16146645Y35141234D01*
X16146645Y35145448D01*
X18139358Y35145446D01*
X18153475Y35144653D01*
X18197998Y35139633D01*
X18200311Y35139350D01*
X18249086Y35132925D01*
X18249663Y35132849D01*
X18274827Y35126855D01*
X18317659Y35111865D01*
X18324246Y35109351D01*
X18365726Y35092167D01*
X18384539Y35082447D01*
X18423642Y35057875D01*
X18433307Y35051152D01*
X18468289Y35024309D01*
X18480679Y35013442D01*
X18513442Y34980679D01*
X18524309Y34968289D01*
X18551152Y34933307D01*
X18557875Y34923642D01*
X18582447Y34884539D01*
X18592167Y34865726D01*
X18609351Y34824246D01*
X18611865Y34817659D01*
X18626855Y34774827D01*
X18632849Y34749663D01*
X18639347Y34700338D01*
X18639633Y34697998D01*
X18644653Y34653475D01*
X18645446Y34639358D01*
X18645448Y32147267D01*
X18645387Y32146498D01*
X18645366Y32146447D01*
X18642278Y32146447D01*
X18654910Y32034255D01*
X18692193Y31927688D01*
X18752257Y31832090D01*
X18832090Y31752257D01*
X18927688Y31692193D01*
X18980971Y31673552D01*
X19027580Y31657245D01*
X19027582Y31657244D01*
X19034255Y31654910D01*
X19146447Y31642278D01*
X19146333Y31641269D01*
X19146645Y31641234D01*
X19146645Y31645448D01*
X22332438Y31645448D01*
X22400559Y31625446D01*
X22447052Y31571790D01*
X22457156Y31501516D01*
X22427662Y31436936D01*
X22389641Y31407181D01*
X22290039Y31356431D01*
X22200331Y31266723D01*
X22142735Y31153685D01*
X22141185Y31143896D01*
X22141184Y31143894D01*
X22136689Y31115513D01*
X22122889Y31028381D01*
X22124440Y31018588D01*
X22140459Y30917450D01*
X22142735Y30903077D01*
X22200331Y30790039D01*
X22290039Y30700331D01*
X22403077Y30642735D01*
X22412866Y30641185D01*
X22412868Y30641184D01*
X22518588Y30624440D01*
X22528381Y30622889D01*
X22538174Y30624440D01*
X22643894Y30641184D01*
X22643896Y30641185D01*
X22653685Y30642735D01*
X22766723Y30700331D01*
X22856431Y30790039D01*
X22914027Y30903077D01*
X22916304Y30917450D01*
X22929378Y31000000D01*
X25344508Y31000000D01*
X25346059Y30990207D01*
X25357583Y30917450D01*
X25364354Y30874696D01*
X25421950Y30761658D01*
X25511658Y30671950D01*
X25624696Y30614354D01*
X25634485Y30612804D01*
X25634487Y30612803D01*
X25740207Y30596059D01*
X25750000Y30594508D01*
X25759793Y30596059D01*
X25865513Y30612803D01*
X25865515Y30612804D01*
X25875304Y30614354D01*
X25988342Y30671950D01*
X26078050Y30761658D01*
X26078094Y30761614D01*
X26129785Y30801471D01*
X26200521Y30807545D01*
X26263312Y30774411D01*
X26270908Y30765644D01*
X26272939Y30761658D01*
X26362647Y30671950D01*
X26475685Y30614354D01*
X26485474Y30612804D01*
X26485476Y30612803D01*
X26591196Y30596059D01*
X26600989Y30594508D01*
X26610782Y30596059D01*
X26716502Y30612803D01*
X26716504Y30612804D01*
X26726293Y30614354D01*
X26839331Y30671950D01*
X26929039Y30761658D01*
X26986635Y30874696D01*
X26993407Y30917450D01*
X27004930Y30990207D01*
X27006481Y31000000D01*
X26986635Y31125304D01*
X26929039Y31238342D01*
X26839331Y31328050D01*
X26726293Y31385646D01*
X26716504Y31387196D01*
X26716502Y31387197D01*
X26610782Y31403941D01*
X26600989Y31405492D01*
X26591196Y31403941D01*
X26485476Y31387197D01*
X26485474Y31387196D01*
X26475685Y31385646D01*
X26362647Y31328050D01*
X26272939Y31238342D01*
X26272894Y31238387D01*
X26221212Y31198531D01*
X26150476Y31192454D01*
X26087683Y31225584D01*
X26080080Y31234358D01*
X26078050Y31238342D01*
X25988342Y31328050D01*
X25875304Y31385646D01*
X25865515Y31387196D01*
X25865513Y31387197D01*
X25816251Y31394999D01*
X25752098Y31425411D01*
X25749020Y31430354D01*
X25699536Y31398552D01*
X25683749Y31394999D01*
X25634487Y31387197D01*
X25634485Y31387196D01*
X25624696Y31385646D01*
X25511658Y31328050D01*
X25421950Y31238342D01*
X25364354Y31125304D01*
X25344508Y31000000D01*
X22929378Y31000000D01*
X22932322Y31018588D01*
X22933873Y31028381D01*
X22920073Y31115513D01*
X22915578Y31143894D01*
X22915577Y31143896D01*
X22914027Y31153685D01*
X22856431Y31266723D01*
X22766723Y31356431D01*
X22667121Y31407181D01*
X22615506Y31455930D01*
X22598440Y31524844D01*
X22621341Y31592046D01*
X22676938Y31636198D01*
X22724324Y31645448D01*
X25664038Y31645448D01*
X25732159Y31625446D01*
X25748603Y31606468D01*
X25754818Y31615841D01*
X25819813Y31644409D01*
X25835962Y31645448D01*
X26145068Y31645448D01*
X26146447Y31645339D01*
X26146447Y31642184D01*
X26221527Y31650650D01*
X26251606Y31654042D01*
X26251608Y31654042D01*
X26258645Y31654836D01*
X26365214Y31692138D01*
X26460811Y31752218D01*
X26540641Y31832064D01*
X26600703Y31927672D01*
X26637985Y32034248D01*
X26650616Y32146447D01*
X26651625Y32146333D01*
X26651660Y32146645D01*
X26647446Y32146645D01*
X26647447Y33250000D01*
X29594508Y33250000D01*
X29596059Y33240207D01*
X29604301Y33188171D01*
X29614354Y33124696D01*
X29671950Y33011658D01*
X29761658Y32921950D01*
X29874696Y32864354D01*
X29884485Y32862804D01*
X29884487Y32862803D01*
X29990207Y32846059D01*
X30000000Y32844508D01*
X30009793Y32846059D01*
X30115513Y32862803D01*
X30115515Y32862804D01*
X30125304Y32864354D01*
X30238342Y32921950D01*
X30328050Y33011658D01*
X30385646Y33124696D01*
X30395700Y33188171D01*
X30403941Y33240207D01*
X30405492Y33250000D01*
X30403941Y33259793D01*
X30387197Y33365513D01*
X30387196Y33365515D01*
X30385646Y33375304D01*
X30328050Y33488342D01*
X30238342Y33578050D01*
X30125304Y33635646D01*
X30115515Y33637196D01*
X30115513Y33637197D01*
X30009793Y33653941D01*
X30000000Y33655492D01*
X29990207Y33653941D01*
X29884487Y33637197D01*
X29884485Y33637196D01*
X29874696Y33635646D01*
X29761658Y33578050D01*
X29671950Y33488342D01*
X29614354Y33375304D01*
X29612804Y33365515D01*
X29612803Y33365513D01*
X29596059Y33259793D01*
X29594508Y33250000D01*
X26647447Y33250000D01*
X26647448Y34639358D01*
X26648241Y34653476D01*
X26653503Y34700142D01*
X26653778Y34702393D01*
X26659914Y34749224D01*
X26665918Y34774473D01*
X26681588Y34819242D01*
X26684087Y34825785D01*
X26700433Y34865236D01*
X26710155Y34884050D01*
X26735554Y34924464D01*
X26742274Y34934124D01*
X26768085Y34967755D01*
X26778947Y34980138D01*
X26812726Y35013911D01*
X26825113Y35024773D01*
X26858777Y35050599D01*
X26868416Y35057301D01*
X26908830Y35082690D01*
X26927633Y35092402D01*
X26967121Y35108755D01*
X26973668Y35111252D01*
X27018500Y35126935D01*
X27043667Y35132925D01*
X27087670Y35138713D01*
X27090006Y35138998D01*
X27117024Y35142040D01*
X27140257Y35144655D01*
X27154350Y35145446D01*
X28880490Y35145448D01*
X29145068Y35145448D01*
X29146447Y35145339D01*
X29146447Y35142184D01*
X29221527Y35150650D01*
X29251606Y35154042D01*
X29251608Y35154042D01*
X29258645Y35154836D01*
X29365214Y35192138D01*
X29371291Y35195957D01*
X29454816Y35248450D01*
X29454818Y35248451D01*
X29460811Y35252218D01*
X29540641Y35332064D01*
X29554250Y35353727D01*
X29596939Y35421680D01*
X29596940Y35421682D01*
X29600703Y35427672D01*
X29637985Y35534248D01*
X29650616Y35646447D01*
X29651625Y35646333D01*
X29651660Y35646645D01*
X29647446Y35646645D01*
X29647446Y46645651D01*
X29647505Y46646390D01*
X29647528Y46646447D01*
X29650616Y46646447D01*
X29637967Y46758632D01*
X29635631Y46765307D01*
X29635630Y46765311D01*
X29603011Y46858511D01*
X29600674Y46865189D01*
X29540608Y46960779D01*
X29460779Y47040608D01*
X29454791Y47044371D01*
X29454788Y47044373D01*
X29412984Y47070641D01*
X29365189Y47100674D01*
X29335026Y47111231D01*
X29265311Y47135630D01*
X29265307Y47135631D01*
X29258632Y47137967D01*
X29251603Y47138760D01*
X29251601Y47138760D01*
X29146447Y47150616D01*
X29146560Y47151619D01*
X29146249Y47151654D01*
X29146249Y47147446D01*
X27153531Y47147448D01*
X27139436Y47148239D01*
X27131944Y47149082D01*
X27094820Y47153262D01*
X27092622Y47153530D01*
X27043229Y47160029D01*
X27018063Y47166019D01*
X26975216Y47181009D01*
X26968614Y47183529D01*
X26927157Y47200699D01*
X26908339Y47210419D01*
X26905619Y47212128D01*
X26869213Y47235002D01*
X26859567Y47241712D01*
X26832903Y47262171D01*
X26824585Y47268554D01*
X26812194Y47279421D01*
X26779424Y47312191D01*
X26768556Y47324583D01*
X26741714Y47359565D01*
X26734988Y47369234D01*
X26734466Y47370065D01*
X26710419Y47408338D01*
X26700698Y47427157D01*
X26683526Y47468621D01*
X26681008Y47475220D01*
X26666021Y47518054D01*
X26660028Y47543230D01*
X26653541Y47592536D01*
X26653255Y47594875D01*
X26653024Y47596932D01*
X26648239Y47639428D01*
X26647448Y47653524D01*
X26647445Y50145651D01*
X26647504Y50146390D01*
X26647527Y50146447D01*
X26650615Y50146447D01*
X26637966Y50258631D01*
X26635630Y50265306D01*
X26635629Y50265310D01*
X26603010Y50358511D01*
X26600673Y50365189D01*
X26540607Y50460778D01*
X26460778Y50540607D01*
X26372602Y50596015D01*
X26371178Y50596910D01*
X26371176Y50596911D01*
X26365189Y50600673D01*
X26326098Y50614354D01*
X26265310Y50635629D01*
X26265306Y50635630D01*
X26258631Y50637966D01*
X26251602Y50638759D01*
X26251600Y50638759D01*
X26146447Y50650615D01*
X26146560Y50651619D01*
X26146252Y50651654D01*
X26146252Y50647446D01*
X25475470Y50647446D01*
X25407349Y50667448D01*
X25360856Y50721104D01*
X25350752Y50791378D01*
X25363203Y50830649D01*
X25381145Y50865863D01*
X25385646Y50874696D01*
X25405492Y51000000D01*
X25393130Y51078050D01*
X25387197Y51115513D01*
X25387196Y51115515D01*
X25385646Y51125304D01*
X25328050Y51238342D01*
X25238342Y51328050D01*
X25125304Y51385646D01*
X25115515Y51387196D01*
X25115513Y51387197D01*
X25009793Y51403941D01*
X25000000Y51405492D01*
X24990207Y51403941D01*
X24884487Y51387197D01*
X24884485Y51387196D01*
X24874696Y51385646D01*
X24761658Y51328050D01*
X24671950Y51238342D01*
X24614354Y51125304D01*
X24612804Y51115515D01*
X24612803Y51115513D01*
X24606870Y51078050D01*
X24594508Y51000000D01*
X24614354Y50874696D01*
X24618855Y50865863D01*
X24636797Y50830649D01*
X24649901Y50760872D01*
X24623201Y50695087D01*
X24565173Y50654181D01*
X24524530Y50647446D01*
X19146680Y50647446D01*
X19146637Y50647449D01*
X19146447Y50647528D01*
X19146447Y50650522D01*
X19034268Y50637893D01*
X18927712Y50600619D01*
X18832122Y50540568D01*
X18752291Y50460752D01*
X18692222Y50365173D01*
X18689886Y50358499D01*
X18689885Y50358497D01*
X18685532Y50346059D01*
X18654928Y50258624D01*
X18642278Y50146447D01*
X18641276Y50146560D01*
X18641241Y50146247D01*
X18645449Y50146247D01*
X18645446Y47653513D01*
X18644655Y47639417D01*
X18639872Y47596932D01*
X18639575Y47594504D01*
X18632733Y47542782D01*
X18626754Y47517703D01*
X18612439Y47476780D01*
X18609921Y47470181D01*
X18596722Y47438306D01*
X18591899Y47426660D01*
X18582181Y47407845D01*
X18564731Y47380066D01*
X18558448Y47370065D01*
X18551730Y47360405D01*
X18523831Y47324038D01*
X18512967Y47311650D01*
X18481219Y47279897D01*
X18468831Y47269031D01*
X18432475Y47241128D01*
X18422807Y47234401D01*
X18385047Y47210670D01*
X18366232Y47200948D01*
X18322674Y47182900D01*
X18316112Y47180394D01*
X18275272Y47166099D01*
X18250115Y47160107D01*
X18195262Y47152880D01*
X18192937Y47152596D01*
X18175381Y47150616D01*
X18154328Y47148242D01*
X18140209Y47147448D01*
X16158165Y47147446D01*
X16146680Y47147446D01*
X16146637Y47147449D01*
X16146447Y47147528D01*
X16146447Y47150522D01*
X16034268Y47137893D01*
X15927712Y47100619D01*
X15832122Y47040568D01*
X15752291Y46960752D01*
X15692222Y46865173D01*
X15689886Y46858499D01*
X15689885Y46858497D01*
X15657269Y46765311D01*
X15654928Y46758624D01*
X15654135Y46751594D01*
X15654135Y46751593D01*
X15652029Y46732919D01*
X15642278Y46646447D01*
X15641276Y46646560D01*
X15641241Y46646249D01*
X13400535Y46646249D01*
X13350345Y46727198D01*
X13300137Y46808176D01*
X13300134Y46808180D01*
X13296774Y46813599D01*
X13206052Y46909535D01*
X13161508Y46956639D01*
X13161507Y46956640D01*
X13157119Y46961280D01*
X12990621Y47077863D01*
X12804081Y47158586D01*
X12736095Y47172789D01*
X12609856Y47199162D01*
X12609851Y47199163D01*
X12605120Y47200151D01*
X12600238Y47200407D01*
X12600129Y47200413D01*
X12600113Y47200413D01*
X12598461Y47200500D01*
X11449200Y47200500D01*
X11401207Y47195625D01*
X11304132Y47185765D01*
X11304130Y47185765D01*
X11297784Y47185120D01*
X11103828Y47124338D01*
X10926056Y47025797D01*
X10771729Y46893523D01*
X10767822Y46888486D01*
X10767820Y46888484D01*
X10748011Y46862946D01*
X10647152Y46732919D01*
X10557413Y46550545D01*
X10555804Y46544367D01*
X10555803Y46544365D01*
X10529603Y46443780D01*
X10506178Y46353852D01*
X10495541Y46150874D01*
X4998392Y46150874D01*
X4986194Y46275272D01*
X4984413Y46281171D01*
X4984412Y46281176D01*
X4931265Y46457207D01*
X4929484Y46463106D01*
X4837370Y46636347D01*
X4713361Y46788398D01*
X4562180Y46913465D01*
X4389585Y47006787D01*
X4295868Y47035797D01*
X4208039Y47062985D01*
X4208036Y47062986D01*
X4202152Y47064807D01*
X4196027Y47065451D01*
X4196026Y47065451D01*
X4013147Y47084673D01*
X4013146Y47084673D01*
X4007019Y47085317D01*
X3884876Y47074201D01*
X3817759Y47068093D01*
X3817758Y47068093D01*
X3811618Y47067534D01*
X3805704Y47065793D01*
X3805702Y47065793D01*
X3703126Y47035603D01*
X3623393Y47012136D01*
X3617928Y47009279D01*
X3454972Y46924088D01*
X3454968Y46924085D01*
X3449512Y46921233D01*
X3444712Y46917373D01*
X3444711Y46917373D01*
X3420212Y46897675D01*
X3296600Y46798289D01*
X3170480Y46647984D01*
X3167516Y46642592D01*
X3167513Y46642588D01*
X3120061Y46556272D01*
X3075956Y46476046D01*
X3074095Y46470179D01*
X3074094Y46470177D01*
X3046292Y46382534D01*
X3016628Y46289022D01*
X2994757Y46094037D01*
X1000Y46094037D01*
X1000Y50996710D01*
X1173Y51003304D01*
X14952Y51266223D01*
X14977Y51266694D01*
X17344Y51308841D01*
X18697Y51321486D01*
X32002Y51405492D01*
X49963Y51518893D01*
X50173Y51520170D01*
X68826Y51629945D01*
X71338Y51641449D01*
X119510Y51821232D01*
X120142Y51823503D01*
X154711Y51943493D01*
X158155Y51953765D01*
X222831Y52122253D01*
X224053Y52125317D01*
X273957Y52245795D01*
X278099Y52254780D01*
X358737Y52413041D01*
X360726Y52416786D01*
X425129Y52533315D01*
X429735Y52540992D01*
X525581Y52688581D01*
X528492Y52692869D01*
X606419Y52802697D01*
X611260Y52809079D01*
X721489Y52945199D01*
X725457Y52949863D01*
X770262Y53000000D01*
X25294508Y53000000D01*
X25296059Y52990207D01*
X25303188Y52945199D01*
X25314354Y52874696D01*
X25371950Y52761658D01*
X25461658Y52671950D01*
X25574696Y52614354D01*
X25584485Y52612804D01*
X25584487Y52612803D01*
X25690207Y52596059D01*
X25700000Y52594508D01*
X25709793Y52596059D01*
X25815513Y52612803D01*
X25815515Y52612804D01*
X25825304Y52614354D01*
X25938342Y52671950D01*
X25953987Y52687595D01*
X26016299Y52721621D01*
X26043082Y52724500D01*
X26333694Y52724500D01*
X26401815Y52704498D01*
X26422789Y52687595D01*
X31152231Y47958153D01*
X31167900Y47939062D01*
X31176376Y47926376D01*
X31189062Y47917900D01*
X31208153Y47902231D01*
X31937595Y47172789D01*
X31971621Y47110477D01*
X31974500Y47083694D01*
X31974500Y15173597D01*
X31960767Y15116394D01*
X31914354Y15025304D01*
X31912804Y15015515D01*
X31912803Y15015513D01*
X31897693Y14920107D01*
X31894508Y14900000D01*
X31896059Y14890207D01*
X31908515Y14811565D01*
X31914354Y14774696D01*
X31971950Y14661658D01*
X32061658Y14571950D01*
X32174696Y14514354D01*
X32184485Y14512804D01*
X32184487Y14512803D01*
X32290207Y14496059D01*
X32300000Y14494508D01*
X32309793Y14496059D01*
X32415513Y14512803D01*
X32415515Y14512804D01*
X32425304Y14514354D01*
X32538342Y14571950D01*
X32628050Y14661658D01*
X32685646Y14774696D01*
X32691486Y14811565D01*
X32703941Y14890207D01*
X32705492Y14900000D01*
X32702307Y14920107D01*
X32687197Y15015513D01*
X32687196Y15015515D01*
X32685646Y15025304D01*
X32628050Y15138342D01*
X32562405Y15203987D01*
X32528379Y15266299D01*
X32525500Y15293082D01*
X32525500Y17810180D01*
X41924500Y17810180D01*
X41933233Y17766278D01*
X41940127Y17755960D01*
X41940128Y17755958D01*
X41940513Y17755382D01*
X41966496Y17716496D01*
X41976815Y17709601D01*
X42005958Y17690128D01*
X42005960Y17690127D01*
X42016278Y17683233D01*
X42060180Y17674500D01*
X43439820Y17674500D01*
X43483722Y17683233D01*
X43494040Y17690127D01*
X43494042Y17690128D01*
X43523185Y17709601D01*
X43533504Y17716496D01*
X43559487Y17755382D01*
X43559872Y17755958D01*
X43559873Y17755960D01*
X43566767Y17766278D01*
X43575500Y17810180D01*
X43575500Y19189820D01*
X43566767Y19233722D01*
X43559873Y19244040D01*
X43559872Y19244042D01*
X43540399Y19273185D01*
X43533504Y19283504D01*
X43523185Y19290399D01*
X43494042Y19309872D01*
X43494040Y19309873D01*
X43483722Y19316767D01*
X43439820Y19325500D01*
X42060180Y19325500D01*
X42016278Y19316767D01*
X42005960Y19309873D01*
X42005958Y19309872D01*
X41976815Y19290399D01*
X41966496Y19283504D01*
X41959601Y19273185D01*
X41940128Y19244042D01*
X41940127Y19244040D01*
X41933233Y19233722D01*
X41924500Y19189820D01*
X41924500Y17810180D01*
X32525500Y17810180D01*
X32525500Y20250000D01*
X39344508Y20250000D01*
X39346059Y20240207D01*
X39360007Y20152145D01*
X39364354Y20124696D01*
X39421950Y20011658D01*
X39511658Y19921950D01*
X39624696Y19864354D01*
X39634485Y19862804D01*
X39634487Y19862803D01*
X39740207Y19846059D01*
X39750000Y19844508D01*
X39759793Y19846059D01*
X39865513Y19862803D01*
X39865515Y19862804D01*
X39875304Y19864354D01*
X39988342Y19921950D01*
X40078050Y20011658D01*
X40135646Y20124696D01*
X40139994Y20152145D01*
X40153941Y20240207D01*
X40155492Y20250000D01*
X40143130Y20328050D01*
X40137197Y20365513D01*
X40137196Y20365515D01*
X40135646Y20375304D01*
X40078050Y20488342D01*
X39988342Y20578050D01*
X39875304Y20635646D01*
X39865515Y20637196D01*
X39865513Y20637197D01*
X39759793Y20653941D01*
X39750000Y20655492D01*
X39740207Y20653941D01*
X39634487Y20637197D01*
X39634485Y20637196D01*
X39624696Y20635646D01*
X39511658Y20578050D01*
X39421950Y20488342D01*
X39364354Y20375304D01*
X39362804Y20365515D01*
X39362803Y20365513D01*
X39356870Y20328050D01*
X39344508Y20250000D01*
X32525500Y20250000D01*
X32525500Y33934037D01*
X32994757Y33934037D01*
X33011175Y33738517D01*
X33065258Y33549909D01*
X33068076Y33544426D01*
X33152123Y33380887D01*
X33152126Y33380883D01*
X33154944Y33375399D01*
X33276818Y33221631D01*
X33281511Y33217637D01*
X33281512Y33217636D01*
X33390717Y33124696D01*
X33426238Y33094465D01*
X33431616Y33091459D01*
X33431618Y33091458D01*
X33467932Y33071163D01*
X33597513Y32998743D01*
X33784118Y32938111D01*
X33978946Y32914879D01*
X33985081Y32915351D01*
X33985083Y32915351D01*
X34168434Y32929459D01*
X34168438Y32929460D01*
X34174576Y32929932D01*
X34363556Y32982697D01*
X34538689Y33071163D01*
X34568515Y33094465D01*
X34688453Y33188171D01*
X34693303Y33191960D01*
X34723084Y33226461D01*
X34817485Y33335827D01*
X34817485Y33335828D01*
X34821509Y33340489D01*
X34918425Y33511091D01*
X34980358Y33697268D01*
X35004949Y33891929D01*
X35005341Y33920000D01*
X34986194Y34115272D01*
X34984413Y34121171D01*
X34984412Y34121176D01*
X34931265Y34297207D01*
X34929484Y34303106D01*
X34837370Y34476347D01*
X34713361Y34628398D01*
X34562180Y34753465D01*
X34389585Y34846787D01*
X34286297Y34878760D01*
X34208039Y34902985D01*
X34208036Y34902986D01*
X34202152Y34904807D01*
X34196027Y34905451D01*
X34196026Y34905451D01*
X34013147Y34924673D01*
X34013146Y34924673D01*
X34007019Y34925317D01*
X33884383Y34914156D01*
X33817759Y34908093D01*
X33817758Y34908093D01*
X33811618Y34907534D01*
X33805704Y34905793D01*
X33805702Y34905793D01*
X33713853Y34878760D01*
X33623393Y34852136D01*
X33617928Y34849279D01*
X33454972Y34764088D01*
X33454968Y34764085D01*
X33449512Y34761233D01*
X33444712Y34757373D01*
X33444711Y34757373D01*
X33434576Y34749224D01*
X33296600Y34638289D01*
X33170480Y34487984D01*
X33167516Y34482592D01*
X33167513Y34482588D01*
X33088813Y34339433D01*
X33075956Y34316046D01*
X33016628Y34129022D01*
X32994757Y33934037D01*
X32525500Y33934037D01*
X32525500Y35934037D01*
X39994757Y35934037D01*
X40011175Y35738517D01*
X40065258Y35549909D01*
X40068076Y35544426D01*
X40152123Y35380887D01*
X40152126Y35380883D01*
X40154944Y35375399D01*
X40276818Y35221631D01*
X40281511Y35217637D01*
X40281512Y35217636D01*
X40417003Y35102325D01*
X40426238Y35094465D01*
X40431616Y35091459D01*
X40431618Y35091458D01*
X40467932Y35071163D01*
X40597513Y34998743D01*
X40784118Y34938111D01*
X40978946Y34914879D01*
X40985081Y34915351D01*
X40985083Y34915351D01*
X41168434Y34929459D01*
X41168438Y34929460D01*
X41174576Y34929932D01*
X41363556Y34982697D01*
X41538689Y35071163D01*
X41568515Y35094465D01*
X41648781Y35157176D01*
X41693303Y35191960D01*
X41697477Y35196795D01*
X41817485Y35335827D01*
X41817485Y35335828D01*
X41821509Y35340489D01*
X41918425Y35511091D01*
X41980358Y35697268D01*
X42004949Y35891929D01*
X42005341Y35920000D01*
X41986194Y36115272D01*
X41984413Y36121171D01*
X41984412Y36121176D01*
X41931265Y36297207D01*
X41929484Y36303106D01*
X41837370Y36476347D01*
X41713361Y36628398D01*
X41562180Y36753465D01*
X41389585Y36846787D01*
X41295869Y36875797D01*
X41208039Y36902985D01*
X41208036Y36902986D01*
X41202152Y36904807D01*
X41196027Y36905451D01*
X41196026Y36905451D01*
X41013147Y36924673D01*
X41013146Y36924673D01*
X41007019Y36925317D01*
X40884383Y36914156D01*
X40817759Y36908093D01*
X40817758Y36908093D01*
X40811618Y36907534D01*
X40805704Y36905793D01*
X40805702Y36905793D01*
X40676734Y36867835D01*
X40623393Y36852136D01*
X40617928Y36849279D01*
X40454972Y36764088D01*
X40454968Y36764085D01*
X40449512Y36761233D01*
X40444712Y36757373D01*
X40444711Y36757373D01*
X40410326Y36729727D01*
X40296600Y36638289D01*
X40170480Y36487984D01*
X40167516Y36482592D01*
X40167513Y36482588D01*
X40132136Y36418237D01*
X40075956Y36316046D01*
X40074095Y36310179D01*
X40074094Y36310177D01*
X40052103Y36240852D01*
X40016628Y36129022D01*
X39994757Y35934037D01*
X32525500Y35934037D01*
X32525500Y39014037D01*
X32994757Y39014037D01*
X33011175Y38818517D01*
X33065258Y38629909D01*
X33068076Y38624426D01*
X33152123Y38460887D01*
X33152126Y38460883D01*
X33154944Y38455399D01*
X33276818Y38301631D01*
X33281511Y38297637D01*
X33281512Y38297636D01*
X33312321Y38271416D01*
X33426238Y38174465D01*
X33431616Y38171459D01*
X33431618Y38171458D01*
X33467932Y38151163D01*
X33597513Y38078743D01*
X33784118Y38018111D01*
X33978946Y37994879D01*
X33985081Y37995351D01*
X33985083Y37995351D01*
X34168434Y38009459D01*
X34168438Y38009460D01*
X34174576Y38009932D01*
X34363556Y38062697D01*
X34538689Y38151163D01*
X34568515Y38174465D01*
X34688453Y38268171D01*
X34693303Y38271960D01*
X34703167Y38283387D01*
X34817485Y38415827D01*
X34817485Y38415828D01*
X34821509Y38420489D01*
X34918425Y38591091D01*
X34980358Y38777268D01*
X35004949Y38971929D01*
X35005341Y39000000D01*
X34986194Y39195272D01*
X34984413Y39201171D01*
X34984412Y39201176D01*
X34931265Y39377207D01*
X34929484Y39383106D01*
X34837370Y39556347D01*
X34713361Y39708398D01*
X34562180Y39833465D01*
X34389585Y39926787D01*
X34295869Y39955797D01*
X34208039Y39982985D01*
X34208036Y39982986D01*
X34202152Y39984807D01*
X34196027Y39985451D01*
X34196026Y39985451D01*
X34013147Y40004673D01*
X34013146Y40004673D01*
X34007019Y40005317D01*
X33884383Y39994156D01*
X33817759Y39988093D01*
X33817758Y39988093D01*
X33811618Y39987534D01*
X33805704Y39985793D01*
X33805702Y39985793D01*
X33676734Y39947835D01*
X33623393Y39932136D01*
X33617928Y39929279D01*
X33454972Y39844088D01*
X33454968Y39844085D01*
X33449512Y39841233D01*
X33444712Y39837373D01*
X33444711Y39837373D01*
X33410326Y39809727D01*
X33296600Y39718289D01*
X33170480Y39567984D01*
X33167516Y39562592D01*
X33167513Y39562588D01*
X33142476Y39517045D01*
X33075956Y39396046D01*
X33016628Y39209022D01*
X32994757Y39014037D01*
X32525500Y39014037D01*
X32525500Y41014037D01*
X39994757Y41014037D01*
X40011175Y40818517D01*
X40065258Y40629909D01*
X40068076Y40624426D01*
X40152123Y40460887D01*
X40152126Y40460883D01*
X40154944Y40455399D01*
X40276818Y40301631D01*
X40426238Y40174465D01*
X40431616Y40171459D01*
X40431618Y40171458D01*
X40467932Y40151163D01*
X40597513Y40078743D01*
X40784118Y40018111D01*
X40978946Y39994879D01*
X40985081Y39995351D01*
X40985083Y39995351D01*
X41168434Y40009459D01*
X41168438Y40009460D01*
X41174576Y40009932D01*
X41363556Y40062697D01*
X41538689Y40151163D01*
X41568515Y40174465D01*
X41688453Y40268171D01*
X41693303Y40271960D01*
X41723084Y40306461D01*
X41817485Y40415827D01*
X41817485Y40415828D01*
X41821509Y40420489D01*
X41918425Y40591091D01*
X41980358Y40777268D01*
X42004949Y40971929D01*
X42005341Y41000000D01*
X41986194Y41195272D01*
X41984413Y41201171D01*
X41984412Y41201176D01*
X41931265Y41377207D01*
X41929484Y41383106D01*
X41837370Y41556347D01*
X41713361Y41708398D01*
X41562180Y41833465D01*
X41389585Y41926787D01*
X41295869Y41955797D01*
X41208039Y41982985D01*
X41208036Y41982986D01*
X41202152Y41984807D01*
X41196027Y41985451D01*
X41196026Y41985451D01*
X41013147Y42004673D01*
X41013146Y42004673D01*
X41007019Y42005317D01*
X40884383Y41994156D01*
X40817759Y41988093D01*
X40817758Y41988093D01*
X40811618Y41987534D01*
X40805704Y41985793D01*
X40805702Y41985793D01*
X40676734Y41947835D01*
X40623393Y41932136D01*
X40617928Y41929279D01*
X40454972Y41844088D01*
X40454968Y41844085D01*
X40449512Y41841233D01*
X40444712Y41837373D01*
X40444711Y41837373D01*
X40410326Y41809727D01*
X40296600Y41718289D01*
X40170480Y41567984D01*
X40167516Y41562592D01*
X40167513Y41562588D01*
X40119819Y41475832D01*
X40075956Y41396046D01*
X40074095Y41390179D01*
X40074094Y41390177D01*
X40071851Y41383106D01*
X40016628Y41209022D01*
X39994757Y41014037D01*
X32525500Y41014037D01*
X32525500Y44094037D01*
X32994757Y44094037D01*
X33011175Y43898517D01*
X33065258Y43709909D01*
X33068076Y43704426D01*
X33152123Y43540887D01*
X33152126Y43540883D01*
X33154944Y43535399D01*
X33276818Y43381631D01*
X33281511Y43377637D01*
X33281512Y43377636D01*
X33406321Y43271416D01*
X33426238Y43254465D01*
X33431616Y43251459D01*
X33431618Y43251458D01*
X33467932Y43231163D01*
X33597513Y43158743D01*
X33784118Y43098111D01*
X33978946Y43074879D01*
X33985081Y43075351D01*
X33985083Y43075351D01*
X34168434Y43089459D01*
X34168438Y43089460D01*
X34174576Y43089932D01*
X34363556Y43142697D01*
X34538689Y43231163D01*
X34568515Y43254465D01*
X34688453Y43348171D01*
X34693303Y43351960D01*
X34723084Y43386461D01*
X34817485Y43495827D01*
X34817485Y43495828D01*
X34821509Y43500489D01*
X34829206Y43514037D01*
X34915378Y43665728D01*
X34918425Y43671091D01*
X34980358Y43857268D01*
X35004949Y44051929D01*
X35005341Y44080000D01*
X34986194Y44275272D01*
X34984413Y44281171D01*
X34984412Y44281176D01*
X34931265Y44457207D01*
X34929484Y44463106D01*
X34837370Y44636347D01*
X34713361Y44788398D01*
X34562180Y44913465D01*
X34389585Y45006787D01*
X34295869Y45035797D01*
X34208039Y45062985D01*
X34208036Y45062986D01*
X34202152Y45064807D01*
X34196027Y45065451D01*
X34196026Y45065451D01*
X34013147Y45084673D01*
X34013146Y45084673D01*
X34007019Y45085317D01*
X33884383Y45074156D01*
X33817759Y45068093D01*
X33817758Y45068093D01*
X33811618Y45067534D01*
X33805704Y45065793D01*
X33805702Y45065793D01*
X33676734Y45027835D01*
X33623393Y45012136D01*
X33617928Y45009279D01*
X33454972Y44924088D01*
X33454968Y44924085D01*
X33449512Y44921233D01*
X33444712Y44917373D01*
X33444711Y44917373D01*
X33410326Y44889727D01*
X33296600Y44798289D01*
X33170480Y44647984D01*
X33167516Y44642592D01*
X33167513Y44642588D01*
X33092048Y44505317D01*
X33075956Y44476046D01*
X33074095Y44470179D01*
X33074094Y44470177D01*
X33046292Y44382534D01*
X33016628Y44289022D01*
X32994757Y44094037D01*
X32525500Y44094037D01*
X32525500Y46094037D01*
X39994757Y46094037D01*
X40011175Y45898517D01*
X40065258Y45709909D01*
X40068076Y45704426D01*
X40152123Y45540887D01*
X40152126Y45540883D01*
X40154944Y45535399D01*
X40276818Y45381631D01*
X40281511Y45377637D01*
X40281512Y45377636D01*
X40401332Y45275662D01*
X40426238Y45254465D01*
X40431616Y45251459D01*
X40431618Y45251458D01*
X40497067Y45214880D01*
X40597513Y45158743D01*
X40784118Y45098111D01*
X40978946Y45074879D01*
X40985081Y45075351D01*
X40985083Y45075351D01*
X41168434Y45089459D01*
X41168438Y45089460D01*
X41174576Y45089932D01*
X41363556Y45142697D01*
X41538689Y45231163D01*
X41568515Y45254465D01*
X41688453Y45348171D01*
X41693303Y45351960D01*
X41723084Y45386461D01*
X41817485Y45495827D01*
X41817485Y45495828D01*
X41821509Y45500489D01*
X41918425Y45671091D01*
X41980358Y45857268D01*
X42004949Y46051929D01*
X42005341Y46080000D01*
X41986194Y46275272D01*
X41984413Y46281171D01*
X41984412Y46281176D01*
X41931265Y46457207D01*
X41929484Y46463106D01*
X41837370Y46636347D01*
X41713361Y46788398D01*
X41562180Y46913465D01*
X41389585Y47006787D01*
X41295868Y47035797D01*
X41208039Y47062985D01*
X41208036Y47062986D01*
X41202152Y47064807D01*
X41196027Y47065451D01*
X41196026Y47065451D01*
X41013147Y47084673D01*
X41013146Y47084673D01*
X41007019Y47085317D01*
X40884876Y47074201D01*
X40817759Y47068093D01*
X40817758Y47068093D01*
X40811618Y47067534D01*
X40805704Y47065793D01*
X40805702Y47065793D01*
X40703126Y47035603D01*
X40623393Y47012136D01*
X40617928Y47009279D01*
X40454972Y46924088D01*
X40454968Y46924085D01*
X40449512Y46921233D01*
X40444712Y46917373D01*
X40444711Y46917373D01*
X40420212Y46897675D01*
X40296600Y46798289D01*
X40170480Y46647984D01*
X40167516Y46642592D01*
X40167513Y46642588D01*
X40120061Y46556272D01*
X40075956Y46476046D01*
X40074095Y46470179D01*
X40074094Y46470177D01*
X40046292Y46382534D01*
X40016628Y46289022D01*
X39994757Y46094037D01*
X32525500Y46094037D01*
X32525500Y47210457D01*
X32527921Y47235039D01*
X32528476Y47237829D01*
X32530897Y47250000D01*
X32514568Y47332091D01*
X32509515Y47357495D01*
X32448624Y47448624D01*
X32435936Y47457102D01*
X32416844Y47472772D01*
X31913073Y47976543D01*
X31879047Y48038855D01*
X31884112Y48109670D01*
X31926659Y48166506D01*
X31944964Y48177904D01*
X31964630Y48187924D01*
X31964636Y48187929D01*
X31973465Y48192427D01*
X32057573Y48276535D01*
X32111574Y48382518D01*
X32130181Y48500000D01*
X32111574Y48617482D01*
X32057573Y48723465D01*
X31973465Y48807573D01*
X31867482Y48861574D01*
X31750000Y48880181D01*
X31632518Y48861574D01*
X31526535Y48807573D01*
X31442427Y48723465D01*
X31437929Y48714636D01*
X31437924Y48714630D01*
X31427904Y48694964D01*
X31379155Y48643349D01*
X31310240Y48626284D01*
X31243039Y48649186D01*
X31226543Y48663073D01*
X29139616Y50750000D01*
X35094508Y50750000D01*
X35096059Y50740207D01*
X35112139Y50638684D01*
X35114354Y50624696D01*
X35171950Y50511658D01*
X35261658Y50421950D01*
X35374696Y50364354D01*
X35384485Y50362804D01*
X35384487Y50362803D01*
X35490207Y50346059D01*
X35500000Y50344508D01*
X35509793Y50346059D01*
X35615513Y50362803D01*
X35615515Y50362804D01*
X35625304Y50364354D01*
X35738342Y50421950D01*
X35828050Y50511658D01*
X35885646Y50624696D01*
X35887862Y50638684D01*
X35903941Y50740207D01*
X35905492Y50750000D01*
X35903646Y50761658D01*
X35887197Y50865513D01*
X35887196Y50865515D01*
X35885646Y50875304D01*
X35828050Y50988342D01*
X35738342Y51078050D01*
X35625304Y51135646D01*
X35615515Y51137196D01*
X35615513Y51137197D01*
X35509793Y51153941D01*
X35500000Y51155492D01*
X35490207Y51153941D01*
X35384487Y51137197D01*
X35384485Y51137196D01*
X35374696Y51135646D01*
X35261658Y51078050D01*
X35171950Y50988342D01*
X35114354Y50875304D01*
X35112804Y50865515D01*
X35112803Y50865513D01*
X35096354Y50761658D01*
X35094508Y50750000D01*
X29139616Y50750000D01*
X26722772Y53166844D01*
X26707102Y53185936D01*
X26705515Y53188311D01*
X26698624Y53198624D01*
X26675623Y53213993D01*
X26675622Y53213994D01*
X26667557Y53219383D01*
X26639183Y53238342D01*
X26639182Y53238342D01*
X26607495Y53259515D01*
X26595326Y53261936D01*
X26595325Y53261936D01*
X26527133Y53275500D01*
X26512172Y53278476D01*
X26512171Y53278476D01*
X26500000Y53280897D01*
X26487829Y53278476D01*
X26485039Y53277921D01*
X26460457Y53275500D01*
X26043082Y53275500D01*
X25974961Y53295502D01*
X25953987Y53312405D01*
X25938342Y53328050D01*
X25825304Y53385646D01*
X25815515Y53387196D01*
X25815513Y53387197D01*
X25709793Y53403941D01*
X25700000Y53405492D01*
X25690207Y53403941D01*
X25584487Y53387197D01*
X25584485Y53387196D01*
X25574696Y53385646D01*
X25461658Y53328050D01*
X25371950Y53238342D01*
X25314354Y53125304D01*
X25312804Y53115515D01*
X25312803Y53115513D01*
X25302547Y53050758D01*
X25294508Y53000000D01*
X770262Y53000000D01*
X779013Y53009793D01*
X815622Y53050758D01*
X820461Y53055875D01*
X944125Y53179539D01*
X949242Y53184378D01*
X1031102Y53257533D01*
X1050137Y53274543D01*
X1054801Y53278511D01*
X1190921Y53388740D01*
X1197303Y53393581D01*
X1307131Y53471508D01*
X1311419Y53474419D01*
X1459008Y53570265D01*
X1466685Y53574871D01*
X1583214Y53639274D01*
X1586959Y53641263D01*
X1745220Y53721901D01*
X1754205Y53726043D01*
X1835684Y53759793D01*
X1874701Y53775954D01*
X1877730Y53777162D01*
X2046237Y53841846D01*
X2056507Y53845289D01*
X2176497Y53879858D01*
X2178729Y53880479D01*
X2241068Y53897183D01*
X2358551Y53928662D01*
X2370055Y53931174D01*
X2479830Y53949827D01*
X2481107Y53950037D01*
X2646735Y53976270D01*
X2678514Y53981303D01*
X2691160Y53982656D01*
X2733209Y53985017D01*
X2733678Y53985042D01*
X2996695Y53998827D01*
X3003290Y53999000D01*
X14986315Y53999000D01*
X15000000Y53997755D01*
X15000000Y53994707D01*
X15076634Y53999730D01*
X15084875Y54000000D01*
X16486577Y54000000D01*
X16554698Y53979998D01*
X16601191Y53926342D01*
X16611026Y53854290D01*
X16594508Y53750000D01*
X16614354Y53624696D01*
X16671950Y53511658D01*
X16761658Y53421950D01*
X16874696Y53364354D01*
X16884485Y53362804D01*
X16884487Y53362803D01*
X16990207Y53346059D01*
X17000000Y53344508D01*
X17009793Y53346059D01*
X17115513Y53362803D01*
X17115515Y53362804D01*
X17125304Y53364354D01*
X17238342Y53421950D01*
X17328050Y53511658D01*
X17385646Y53624696D01*
X17405492Y53750000D01*
X18594508Y53750000D01*
X18614354Y53624696D01*
X18671950Y53511658D01*
X18761658Y53421950D01*
X18874696Y53364354D01*
X18884485Y53362804D01*
X18884487Y53362803D01*
X18990207Y53346059D01*
X19000000Y53344508D01*
X19009793Y53346059D01*
X19115513Y53362803D01*
X19115515Y53362804D01*
X19125304Y53364354D01*
X19238342Y53421950D01*
X19328050Y53511658D01*
X19385646Y53624696D01*
X19405492Y53750000D01*
X19391775Y53836605D01*
X19387197Y53865513D01*
X19387196Y53865515D01*
X19385646Y53875304D01*
X19328050Y53988342D01*
X19238342Y54078050D01*
X19125304Y54135646D01*
X19115515Y54137196D01*
X19115513Y54137197D01*
X19009793Y54153941D01*
X19000000Y54155492D01*
X18990207Y54153941D01*
X18884487Y54137197D01*
X18884485Y54137196D01*
X18874696Y54135646D01*
X18761658Y54078050D01*
X18671950Y53988342D01*
X18614354Y53875304D01*
X18612804Y53865515D01*
X18612803Y53865513D01*
X18608225Y53836605D01*
X18594508Y53750000D01*
X17405492Y53750000D01*
X17391775Y53836605D01*
X17387197Y53865513D01*
X17387196Y53865515D01*
X17385646Y53875304D01*
X17328050Y53988342D01*
X17238342Y54078050D01*
X17125304Y54135646D01*
X17115511Y54137197D01*
X17115508Y54137198D01*
X17106287Y54138659D01*
X17042135Y54169072D01*
X17004609Y54229341D01*
X17000000Y54263107D01*
X17000000Y54500000D01*
X20844508Y54500000D01*
X20864354Y54374696D01*
X20921950Y54261658D01*
X21011658Y54171950D01*
X21124696Y54114354D01*
X21134485Y54112804D01*
X21134487Y54112803D01*
X21240207Y54096059D01*
X21250000Y54094508D01*
X21259793Y54096059D01*
X21365513Y54112803D01*
X21365515Y54112804D01*
X21375304Y54114354D01*
X21488342Y54171950D01*
X21578050Y54261658D01*
X21635646Y54374696D01*
X21655492Y54500000D01*
X23344508Y54500000D01*
X23364354Y54374696D01*
X23421950Y54261658D01*
X23511658Y54171950D01*
X23624696Y54114354D01*
X23634485Y54112804D01*
X23634487Y54112803D01*
X23740207Y54096059D01*
X23750000Y54094508D01*
X23759793Y54096059D01*
X23865513Y54112803D01*
X23865515Y54112804D01*
X23875304Y54114354D01*
X23988342Y54171950D01*
X24078050Y54261658D01*
X24135646Y54374696D01*
X24155492Y54500000D01*
X24135646Y54625304D01*
X24078050Y54738342D01*
X23988342Y54828050D01*
X23875304Y54885646D01*
X23865515Y54887196D01*
X23865513Y54887197D01*
X23759793Y54903941D01*
X23750000Y54905492D01*
X23740207Y54903941D01*
X23634487Y54887197D01*
X23634485Y54887196D01*
X23624696Y54885646D01*
X23511658Y54828050D01*
X23421950Y54738342D01*
X23364354Y54625304D01*
X23344508Y54500000D01*
X21655492Y54500000D01*
X21635646Y54625304D01*
X21578050Y54738342D01*
X21488342Y54828050D01*
X21375304Y54885646D01*
X21365515Y54887196D01*
X21365513Y54887197D01*
X21259793Y54903941D01*
X21250000Y54905492D01*
X21240207Y54903941D01*
X21134487Y54887197D01*
X21134485Y54887196D01*
X21124696Y54885646D01*
X21011658Y54828050D01*
X20921950Y54738342D01*
X20864354Y54625304D01*
X20844508Y54500000D01*
X17000000Y54500000D01*
X17000000Y55090500D01*
X24594508Y55090500D01*
X24614354Y54965196D01*
X24671950Y54852158D01*
X24761658Y54762450D01*
X24874696Y54704854D01*
X24884485Y54703304D01*
X24884487Y54703303D01*
X24990207Y54686559D01*
X25000000Y54685008D01*
X25009793Y54686559D01*
X25115513Y54703303D01*
X25115515Y54703304D01*
X25125304Y54704854D01*
X25238342Y54762450D01*
X25328050Y54852158D01*
X25385646Y54965196D01*
X25405492Y55090500D01*
X25385646Y55215804D01*
X25328050Y55328842D01*
X25238342Y55418550D01*
X25125304Y55476146D01*
X25115515Y55477696D01*
X25115513Y55477697D01*
X25009793Y55494441D01*
X25000000Y55495992D01*
X24990207Y55494441D01*
X24884487Y55477697D01*
X24884485Y55477696D01*
X24874696Y55476146D01*
X24761658Y55418550D01*
X24671950Y55328842D01*
X24614354Y55215804D01*
X24594508Y55090500D01*
X17000000Y55090500D01*
X17000000Y55915125D01*
X17000270Y55923366D01*
X17004108Y55981922D01*
X17005293Y56000000D01*
X17002076Y56000000D01*
X17001000Y56009737D01*
X17001000Y57254004D01*
X17504500Y57254004D01*
X17519181Y57132687D01*
X17576973Y56979745D01*
X17669579Y56845003D01*
X17675249Y56839952D01*
X17675250Y56839950D01*
X17730615Y56790622D01*
X17791652Y56736240D01*
X17798361Y56732688D01*
X17798362Y56732687D01*
X17929434Y56663288D01*
X17929436Y56663287D01*
X17936145Y56659735D01*
X17945143Y56657475D01*
X17957998Y56654246D01*
X18019194Y56618252D01*
X18051215Y56554886D01*
X18043895Y56484268D01*
X18039571Y56474842D01*
X17988854Y56375304D01*
X17969008Y56250000D01*
X17970559Y56240207D01*
X17979093Y56186328D01*
X17988854Y56124696D01*
X18046450Y56011658D01*
X18136158Y55921950D01*
X18249196Y55864354D01*
X18258985Y55862804D01*
X18258987Y55862803D01*
X18364707Y55846059D01*
X18374500Y55844508D01*
X18384293Y55846059D01*
X18490013Y55862803D01*
X18490015Y55862804D01*
X18499804Y55864354D01*
X18612842Y55921950D01*
X18702550Y56011658D01*
X18760146Y56124696D01*
X18769908Y56186328D01*
X18778441Y56240207D01*
X18779992Y56250000D01*
X18760146Y56375304D01*
X18702550Y56488342D01*
X18612842Y56578050D01*
X18612456Y56578247D01*
X18572317Y56630300D01*
X18566243Y56701036D01*
X18599376Y56763827D01*
X18606894Y56770952D01*
X18685681Y56839683D01*
X18779693Y56973448D01*
X18839083Y57125776D01*
X18855500Y57250473D01*
X18855500Y58254804D01*
X19134055Y58254804D01*
X19171484Y58123842D01*
X19244165Y58008650D01*
X19346255Y57918487D01*
X19354378Y57914673D01*
X19354380Y57914672D01*
X19413607Y57886865D01*
X19469548Y57860601D01*
X19478412Y57859221D01*
X19478415Y57859220D01*
X19541897Y57849336D01*
X19572956Y57844500D01*
X19644145Y57844500D01*
X19683589Y57850149D01*
X19735943Y57857646D01*
X19735946Y57857647D01*
X19744829Y57858919D01*
X19868820Y57915294D01*
X19972004Y58004204D01*
X20046087Y58118499D01*
X20085113Y58248994D01*
X20085945Y58385196D01*
X20059383Y58478136D01*
X20050983Y58507527D01*
X20050982Y58507529D01*
X20048516Y58516158D01*
X19975835Y58631350D01*
X19943107Y58660255D01*
X19880473Y58715571D01*
X19873745Y58721513D01*
X19865622Y58725327D01*
X19865620Y58725328D01*
X19792211Y58759793D01*
X19750452Y58779399D01*
X19741588Y58780779D01*
X19741585Y58780780D01*
X19678103Y58790664D01*
X19647044Y58795500D01*
X19575855Y58795500D01*
X19536411Y58789851D01*
X19484057Y58782354D01*
X19484054Y58782353D01*
X19475171Y58781081D01*
X19351180Y58724706D01*
X19247996Y58635796D01*
X19243112Y58628261D01*
X19182177Y58534250D01*
X19173913Y58521501D01*
X19171342Y58512904D01*
X19171341Y58512902D01*
X19167415Y58499773D01*
X19134887Y58391006D01*
X19134832Y58382030D01*
X19134832Y58382029D01*
X19134736Y58366301D01*
X19134055Y58254804D01*
X18855500Y58254804D01*
X18855500Y58385996D01*
X18840819Y58507313D01*
X18783027Y58660255D01*
X18742759Y58718845D01*
X18694723Y58788738D01*
X18694722Y58788739D01*
X18690421Y58794997D01*
X18568348Y58903760D01*
X18561638Y58907313D01*
X18430566Y58976712D01*
X18430564Y58976713D01*
X18423855Y58980265D01*
X18363787Y58995353D01*
X18272655Y59018244D01*
X18272651Y59018244D01*
X18265284Y59020095D01*
X18257685Y59020135D01*
X18257683Y59020135D01*
X18189653Y59020491D01*
X18101790Y59020951D01*
X18094410Y59019179D01*
X18094408Y59019179D01*
X17950189Y58984556D01*
X17950185Y58984555D01*
X17942810Y58982784D01*
X17797524Y58907796D01*
X17791802Y58902804D01*
X17791800Y58902803D01*
X17680044Y58805312D01*
X17680041Y58805309D01*
X17674319Y58800317D01*
X17580307Y58666552D01*
X17520917Y58514224D01*
X17504500Y58389527D01*
X17504500Y57254004D01*
X17001000Y57254004D01*
X17001000Y61459075D01*
X17529500Y61459075D01*
X17544929Y61336942D01*
X17605432Y61184129D01*
X17702037Y61051163D01*
X17828674Y60946400D01*
X17977387Y60876421D01*
X17985170Y60874936D01*
X17985174Y60874935D01*
X18131044Y60847109D01*
X18131046Y60847109D01*
X18138830Y60845624D01*
X18220845Y60850784D01*
X18294949Y60855446D01*
X18294951Y60855446D01*
X18302860Y60855944D01*
X18310396Y60858393D01*
X18310398Y60858393D01*
X18365882Y60876421D01*
X18459171Y60906732D01*
X18597940Y60994798D01*
X18710448Y61114607D01*
X18752720Y61191498D01*
X18785807Y61251684D01*
X18789627Y61258632D01*
X18809734Y61336942D01*
X18828529Y61410145D01*
X18828529Y61410148D01*
X18830500Y61417823D01*
X18830500Y61459075D01*
X26169500Y61459075D01*
X26184929Y61336942D01*
X26245432Y61184129D01*
X26342037Y61051163D01*
X26468674Y60946400D01*
X26617387Y60876421D01*
X26625170Y60874936D01*
X26625174Y60874935D01*
X26771044Y60847109D01*
X26771046Y60847109D01*
X26778830Y60845624D01*
X26860845Y60850784D01*
X26934949Y60855446D01*
X26934951Y60855446D01*
X26942860Y60855944D01*
X26950396Y60858393D01*
X26950398Y60858393D01*
X27005882Y60876421D01*
X27099171Y60906732D01*
X27237940Y60994798D01*
X27350448Y61114607D01*
X27392720Y61191498D01*
X27425807Y61251684D01*
X27429627Y61258632D01*
X27449734Y61336942D01*
X27468529Y61410145D01*
X27468529Y61410148D01*
X27470500Y61417823D01*
X27470500Y62540925D01*
X27455071Y62663058D01*
X27394568Y62815871D01*
X27297963Y62948837D01*
X27171326Y63053600D01*
X27022613Y63123579D01*
X27014830Y63125064D01*
X27014826Y63125065D01*
X26868956Y63152891D01*
X26868954Y63152891D01*
X26861170Y63154376D01*
X26779155Y63149216D01*
X26705051Y63144554D01*
X26705049Y63144554D01*
X26697140Y63144056D01*
X26689604Y63141607D01*
X26689602Y63141607D01*
X26647637Y63127972D01*
X26540829Y63093268D01*
X26402060Y63005202D01*
X26289552Y62885393D01*
X26285735Y62878449D01*
X26285733Y62878447D01*
X26244506Y62803455D01*
X26210373Y62741368D01*
X26208403Y62733696D01*
X26208402Y62733693D01*
X26188247Y62655193D01*
X26169500Y62582177D01*
X26169500Y61459075D01*
X18830500Y61459075D01*
X18830500Y62540925D01*
X18815071Y62663058D01*
X18754568Y62815871D01*
X18657963Y62948837D01*
X18531326Y63053600D01*
X18382613Y63123579D01*
X18374830Y63125064D01*
X18374826Y63125065D01*
X18228956Y63152891D01*
X18228954Y63152891D01*
X18221170Y63154376D01*
X18139155Y63149216D01*
X18065051Y63144554D01*
X18065049Y63144554D01*
X18057140Y63144056D01*
X18049604Y63141607D01*
X18049602Y63141607D01*
X18007637Y63127972D01*
X17900829Y63093268D01*
X17762060Y63005202D01*
X17649552Y62885393D01*
X17645735Y62878449D01*
X17645733Y62878447D01*
X17604506Y62803455D01*
X17570373Y62741368D01*
X17568403Y62733696D01*
X17568402Y62733693D01*
X17548247Y62655193D01*
X17529500Y62582177D01*
X17529500Y61459075D01*
X17001000Y61459075D01*
X17001000Y63373000D01*
X17021002Y63441121D01*
X17074658Y63487614D01*
X17127000Y63499000D01*
X27873000Y63499000D01*
X27941121Y63478998D01*
G37*
G04 #@! TD.AperFunction*
M02*
