M48
; DRILL file {KiCad 6.0.7+dfsg-1~bpo11+1} date Fri Oct  7 12:23:39 2022
; FORMAT={-:-/ absolute / metric / decimal}
; #@! TF.CreationDate,2022-10-07T12:23:39+00:00
; #@! TF.GenerationSoftware,Kicad,Pcbnew,6.0.7+dfsg-1~bpo11+1
; #@! TF.FileFunction,MixedPlating,1,4
FMAT,2
METRIC
; #@! TA.AperFunction,Plated,PTH,ViaDrill
T1C0.250
; #@! TA.AperFunction,Plated,PTH,ViaDrill
T2C0.300
; #@! TA.AperFunction,Plated,PTH,ViaDrill
T3C0.400
; #@! TA.AperFunction,Plated,PTH,ComponentDrill
T4C0.600
; #@! TA.AperFunction,Plated,PTH,ComponentDrill
T5C0.700
; #@! TA.AperFunction,Plated,PTH,ComponentDrill
T6C0.800
; #@! TA.AperFunction,Plated,PTH,ComponentDrill
T7C1.000
; #@! TA.AperFunction,NonPlated,NPTH,ComponentDrill
T8C0.650
%
G90
G05
T1
X18.5Y26.0
X22.75Y26.48
X22.75Y25.5
T2
X4.75Y31.25
X8.5Y31.75
X10.75Y7.75
X13.0Y19.0
X13.0Y16.5
X13.0Y12.75
X13.5Y13.5
X14.0Y19.524
X14.25Y22.75
X14.25Y21.75
X14.25Y20.75
X14.475Y16.5
X14.975Y12.75
X16.0Y29.5
X16.0Y28.5
X16.0Y27.5
X16.024Y19.0
X17.0Y53.75
X17.5Y21.549
X18.374Y56.25
X18.475Y27.0
X18.5Y20.5
X18.75Y28.0
X19.0Y53.75
X19.5Y20.5
X19.925Y29.476
X20.5Y20.5
X20.519Y27.98
X20.545Y24.5
X20.75Y25.5
X20.944Y23.5
X21.0Y58.75
X21.143Y26.587
X21.25Y54.5
X21.5Y29.75
X21.5Y21.726
X21.5Y20.5
X21.621Y27.871
X21.701Y24.25
X22.5Y22.25
X22.5Y20.5
X22.528Y31.028
X22.75Y23.5
X23.0Y30.0
X23.043Y27.793
X23.397Y24.25
X23.5Y31.0
X23.5Y20.5
X23.75Y54.5
X24.0Y58.75
X24.0Y28.25
X24.0Y27.0
X24.25Y25.452
X24.452Y24.042
X24.549Y21.549
X24.759Y56.495
X25.0Y55.09
X25.0Y51.0
X25.25Y20.75
X25.7Y53.0
X25.719Y56.219
X25.75Y31.0
X26.25Y26.5
X26.25Y25.5
X26.25Y20.75
X26.601Y31.0
X27.0Y56.25
X27.25Y26.5
X27.25Y25.5
X27.75Y28.0
X29.25Y28.5
X29.25Y25.5
X29.27Y26.5
X30.0Y33.25
X30.0Y25.0
X30.25Y28.5
X30.75Y16.0
X30.75Y15.0
X30.75Y12.75
X30.75Y11.75
X31.25Y24.25
X31.25Y23.25
X31.25Y22.25
X31.4Y51.9
X31.75Y48.5
X32.25Y9.75
X32.3Y14.9
X33.0Y12.0
X33.25Y5.0
X33.75Y10.25
X34.5Y5.0
X34.52Y13.73
X35.5Y50.75
X35.725Y14.5
X35.725Y13.5
X35.75Y6.125
X35.75Y5.0
X37.0Y8.75
X38.25Y5.0
X38.75Y11.25
X38.75Y10.25
X39.75Y20.25
X40.25Y9.726
X44.0Y22.75
X44.0Y20.0
T3
X5.75Y41.0
X6.334Y39.233
X34.75Y0.75
X38.0Y0.75
T5
X17.15Y18.365
X17.15Y16.585
X17.15Y14.805
X17.15Y13.025
X17.15Y11.245
X17.15Y9.465
X17.15Y7.685
X17.15Y5.905
X27.85Y17.475
X27.85Y15.695
X27.85Y13.915
X27.85Y12.135
X27.85Y10.355
X27.85Y8.575
X27.85Y6.795
X27.85Y5.015
T6
X42.75Y18.5
X42.75Y16.5
X42.75Y14.5
X42.75Y12.5
X42.75Y10.5
X42.75Y8.5
T7
X4.0Y46.08
X4.0Y41.0
X4.0Y35.92
X14.0Y43.5
X14.0Y41.0
X14.0Y38.5
X34.0Y44.08
X34.0Y39.0
X34.0Y33.92
X41.0Y46.08
X41.0Y41.0
X41.0Y35.92
T8
X19.61Y58.32
X25.39Y58.32
T4
G00X18.18Y61.6
M15
G01X18.18Y62.4
M16
G05
G00X18.18Y57.27
M15
G01X18.18Y58.37
M16
G05
G00X26.82Y61.6
M15
G01X26.82Y62.4
M16
G05
G00X26.82Y57.27
M15
G01X26.82Y58.37
M16
G05
T7
G00X12.5Y46.2
M15
G01X11.5Y46.2
M16
G05
G00X12.5Y35.8
M15
G01X11.5Y35.8
M16
G05
T0
M30
