<?xml version="1.0" standalone="no"?>
 <!DOCTYPE svg PUBLIC "-//W3C//DTD SVG 1.1//EN" 
 "http://www.w3.org/Graphics/SVG/1.1/DTD/svg11.dtd"> 
<svg
  xmlns:svg="http://www.w3.org/2000/svg"
  xmlns="http://www.w3.org/2000/svg"
  xmlns:xlink="http://www.w3.org/1999/xlink"
  version="1.1"
  width="29.700220cm" height="21.000720cm" viewBox="0 0 297002200 210007200">
<title>SVG Picture created as redshift-B_Fab.svg date 2022/10/07 12:24:08 </title>
  <desc>Picture generated by PCBNEW </desc>
<g style="fill:#000000; fill-opacity:1.000000;stroke:#000000; stroke-opacity:1.000000;
stroke-linecap:round; stroke-linejoin:round;"
 transform="translate(0 0) scale(1 1)">
</g>
<g style="fill:#000000; fill-opacity:0.0; 
stroke:#000000; stroke-width:0.000000; stroke-opacity:1; 
stroke-linecap:round; stroke-linejoin:round;">
</g>
<g style="fill:#000000; fill-opacity:0.0; 
stroke:#000000; stroke-width:150000.000000; stroke-opacity:1; 
stroke-linecap:round; stroke-linejoin:round;">
<g transform="rotate(-90.000000 171752200.000000 106000000.000000)">
<text x="171752200.000000" y="106500000.000000"
transform="scale(-1 1) translate(-343504400.000000 0)"
textLength="6662143.000000" font-size="1333333.000000" lengthAdjust="spacingAndGlyphs"
text-anchor="middle" opacity="0">TestPoint</text>
</g>
<g class="stroked-text"><desc>TestPoint</desc>
<path d="M172299820 102666666
L172299820 103238095
" />
<path d="M171299820 102952380
L172299820 102952380
" />
<path d="M171347439 103952380
L171299820 103857142
L171299820 103666666
L171347439 103571428
L171442677 103523809
L171823629 103523809
L171918867 103571428
L171966486 103666666
L171966486 103857142
L171918867 103952380
L171823629 104000000
L171728391 104000000
L171633153 103523809
" />
<path d="M171347439 104380952
L171299820 104476190
L171299820 104666666
L171347439 104761904
L171442677 104809523
L171490296 104809523
L171585534 104761904
L171633153 104666666
L171633153 104523809
L171680772 104428571
L171776010 104380952
L171823629 104380952
L171918867 104428571
L171966486 104523809
L171966486 104666666
L171918867 104761904
" />
<path d="M171966486 105095238
L171966486 105476190
" />
<path d="M172299820 105238095
L171442677 105238095
L171347439 105285714
L171299820 105380952
L171299820 105476190
" />
<path d="M171299820 105809523
L172299820 105809523
L172299820 106190476
L172252200 106285714
L172204581 106333333
L172109343 106380952
L171966486 106380952
L171871248 106333333
L171823629 106285714
L171776010 106190476
L171776010 105809523
" />
<path d="M171299820 106952380
L171347439 106857142
L171395058 106809523
L171490296 106761904
L171776010 106761904
L171871248 106809523
L171918867 106857142
L171966486 106952380
L171966486 107095238
L171918867 107190476
L171871248 107238095
L171776010 107285714
L171490296 107285714
L171395058 107238095
L171347439 107190476
L171299820 107095238
L171299820 106952380
" />
<path d="M171299820 107714285
L171966486 107714285
" />
<path d="M172299820 107714285
L172252200 107666666
L172204581 107714285
L172252200 107761904
L172299820 107714285
L172204581 107714285
" />
<path d="M171966486 108190476
L171299820 108190476
" />
<path d="M171871248 108190476
L171918867 108238095
L171966486 108333333
L171966486 108476190
L171918867 108571428
L171823629 108619047
L171299820 108619047
" />
<path d="M171966486 108952380
L171966486 109333333
" />
<path d="M172299820 109095238
L171442677 109095238
L171347439 109142857
L171299820 109238095
L171299820 109333333
" />
</g><g transform="rotate(-90.000000 168352200.000000 106000000.000000)">
<text x="168352200.000000" y="106500000.000000"
transform="scale(-1 1) translate(-336704400.000000 0)"
textLength="2519286.000000" font-size="1333333.000000" lengthAdjust="spacingAndGlyphs"
text-anchor="middle" opacity="0">TP5</text>
</g>
<g class="stroked-text"><desc>TP5</desc>
<path d="M168899820 104738095
L168899820 105309523
" />
<path d="M167899820 105023809
L168899820 105023809
" />
<path d="M167899820 105642857
L168899820 105642857
L168899820 106023809
L168852200 106119047
L168804581 106166666
L168709343 106214285
L168566486 106214285
L168471248 106166666
L168423629 106119047
L168376010 106023809
L168376010 105642857
" />
<path d="M168899820 107119047
L168899820 106642857
L168423629 106595238
L168471248 106642857
L168518867 106738095
L168518867 106976190
L168471248 107071428
L168423629 107119047
L168328391 107166666
L168090296 107166666
L167995058 107119047
L167947439 107071428
L167899820 106976190
L167899820 106738095
L167947439 106642857
L167995058 106595238
" />
</g><g transform="rotate(-90.000000 142252200.000000 80500000.000000)">
<text x="142252200.000000" y="81000000.000000"
transform="scale(-1 1) translate(-284504400.000000 0)"
textLength="6662143.000000" font-size="1333333.000000" lengthAdjust="spacingAndGlyphs"
text-anchor="middle" opacity="0">TestPoint</text>
</g>
<g class="stroked-text"><desc>TestPoint</desc>
<path d="M142799820 77166666
L142799820 77738095
" />
<path d="M141799820 77452380
L142799820 77452380
" />
<path d="M141847439 78452380
L141799820 78357142
L141799820 78166666
L141847439 78071428
L141942677 78023809
L142323629 78023809
L142418867 78071428
L142466486 78166666
L142466486 78357142
L142418867 78452380
L142323629 78500000
L142228391 78500000
L142133153 78023809
" />
<path d="M141847439 78880952
L141799820 78976190
L141799820 79166666
L141847439 79261904
L141942677 79309523
L141990296 79309523
L142085534 79261904
L142133153 79166666
L142133153 79023809
L142180772 78928571
L142276010 78880952
L142323629 78880952
L142418867 78928571
L142466486 79023809
L142466486 79166666
L142418867 79261904
" />
<path d="M142466486 79595238
L142466486 79976190
" />
<path d="M142799820 79738095
L141942677 79738095
L141847439 79785714
L141799820 79880952
L141799820 79976190
" />
<path d="M141799820 80309523
L142799820 80309523
L142799820 80690476
L142752200 80785714
L142704581 80833333
L142609343 80880952
L142466486 80880952
L142371248 80833333
L142323629 80785714
L142276010 80690476
L142276010 80309523
" />
<path d="M141799820 81452380
L141847439 81357142
L141895058 81309523
L141990296 81261904
L142276010 81261904
L142371248 81309523
L142418867 81357142
L142466486 81452380
L142466486 81595238
L142418867 81690476
L142371248 81738095
L142276010 81785714
L141990296 81785714
L141895058 81738095
L141847439 81690476
L141799820 81595238
L141799820 81452380
" />
<path d="M141799820 82214285
L142466486 82214285
" />
<path d="M142799820 82214285
L142752200 82166666
L142704581 82214285
L142752200 82261904
L142799820 82214285
L142704581 82214285
" />
<path d="M142466486 82690476
L141799820 82690476
" />
<path d="M142371248 82690476
L142418867 82738095
L142466486 82833333
L142466486 82976190
L142418867 83071428
L142323629 83119047
L141799820 83119047
" />
<path d="M142466486 83452380
L142466486 83833333
" />
<path d="M142799820 83595238
L141942677 83595238
L141847439 83642857
L141799820 83738095
L141799820 83833333
" />
</g><g transform="rotate(-90.000000 138852200.000000 80500000.000000)">
<text x="138852200.000000" y="81000000.000000"
transform="scale(-1 1) translate(-277704400.000000 0)"
textLength="2519286.000000" font-size="1333333.000000" lengthAdjust="spacingAndGlyphs"
text-anchor="middle" opacity="0">TP6</text>
</g>
<g class="stroked-text"><desc>TP6</desc>
<path d="M139399820 79238095
L139399820 79809523
" />
<path d="M138399820 79523809
L139399820 79523809
" />
<path d="M138399820 80142857
L139399820 80142857
L139399820 80523809
L139352200 80619047
L139304581 80666666
L139209343 80714285
L139066486 80714285
L138971248 80666666
L138923629 80619047
L138876010 80523809
L138876010 80142857
" />
<path d="M139399820 81571428
L139399820 81380952
L139352200 81285714
L139304581 81238095
L139161724 81142857
L138971248 81095238
L138590296 81095238
L138495058 81142857
L138447439 81190476
L138399820 81285714
L138399820 81476190
L138447439 81571428
L138495058 81619047
L138590296 81666666
L138828391 81666666
L138923629 81619047
L138971248 81571428
L139018867 81476190
L139018867 81285714
L138971248 81190476
L138923629 81142857
L138828391 81095238
" />
</g><g transform="rotate(-90.000000 172752200.000000 75250000.000000)">
<text x="172752200.000000" y="75750000.000000"
transform="scale(-1 1) translate(-345504400.000000 0)"
textLength="6662143.000000" font-size="1333333.000000" lengthAdjust="spacingAndGlyphs"
text-anchor="middle" opacity="0">TestPoint</text>
</g>
<g class="stroked-text"><desc>TestPoint</desc>
<path d="M173299820 71916666
L173299820 72488095
" />
<path d="M172299820 72202380
L173299820 72202380
" />
<path d="M172347439 73202380
L172299820 73107142
L172299820 72916666
L172347439 72821428
L172442677 72773809
L172823629 72773809
L172918867 72821428
L172966486 72916666
L172966486 73107142
L172918867 73202380
L172823629 73250000
L172728391 73250000
L172633153 72773809
" />
<path d="M172347439 73630952
L172299820 73726190
L172299820 73916666
L172347439 74011904
L172442677 74059523
L172490296 74059523
L172585534 74011904
L172633153 73916666
L172633153 73773809
L172680772 73678571
L172776010 73630952
L172823629 73630952
L172918867 73678571
L172966486 73773809
L172966486 73916666
L172918867 74011904
" />
<path d="M172966486 74345238
L172966486 74726190
" />
<path d="M173299820 74488095
L172442677 74488095
L172347439 74535714
L172299820 74630952
L172299820 74726190
" />
<path d="M172299820 75059523
L173299820 75059523
L173299820 75440476
L173252200 75535714
L173204581 75583333
L173109343 75630952
L172966486 75630952
L172871248 75583333
L172823629 75535714
L172776010 75440476
L172776010 75059523
" />
<path d="M172299820 76202380
L172347439 76107142
L172395058 76059523
L172490296 76011904
L172776010 76011904
L172871248 76059523
L172918867 76107142
L172966486 76202380
L172966486 76345238
L172918867 76440476
L172871248 76488095
L172776010 76535714
L172490296 76535714
L172395058 76488095
L172347439 76440476
L172299820 76345238
L172299820 76202380
" />
<path d="M172299820 76964285
L172966486 76964285
" />
<path d="M173299820 76964285
L173252200 76916666
L173204581 76964285
L173252200 77011904
L173299820 76964285
L173204581 76964285
" />
<path d="M172966486 77440476
L172299820 77440476
" />
<path d="M172871248 77440476
L172918867 77488095
L172966486 77583333
L172966486 77726190
L172918867 77821428
L172823629 77869047
L172299820 77869047
" />
<path d="M172966486 78202380
L172966486 78583333
" />
<path d="M173299820 78345238
L172442677 78345238
L172347439 78392857
L172299820 78488095
L172299820 78583333
" />
</g><g transform="rotate(-90.000000 169352200.000000 75250000.000000)">
<text x="169352200.000000" y="75750000.000000"
transform="scale(-1 1) translate(-338704400.000000 0)"
textLength="2519286.000000" font-size="1333333.000000" lengthAdjust="spacingAndGlyphs"
text-anchor="middle" opacity="0">TP9</text>
</g>
<g class="stroked-text"><desc>TP9</desc>
<path d="M169899820 73988095
L169899820 74559523
" />
<path d="M168899820 74273809
L169899820 74273809
" />
<path d="M168899820 74892857
L169899820 74892857
L169899820 75273809
L169852200 75369047
L169804581 75416666
L169709343 75464285
L169566486 75464285
L169471248 75416666
L169423629 75369047
L169376010 75273809
L169376010 74892857
" />
<path d="M168899820 75940476
L168899820 76130952
L168947439 76226190
L168995058 76273809
L169137915 76369047
L169328391 76416666
L169709343 76416666
L169804581 76369047
L169852200 76321428
L169899820 76226190
L169899820 76035714
L169852200 75940476
L169804581 75892857
L169709343 75845238
L169471248 75845238
L169376010 75892857
L169328391 75940476
L169280772 76035714
L169280772 76226190
L169328391 76321428
L169376010 76369047
L169471248 76416666
" />
</g><g transform="rotate(-90.000000 142252200.000000 85500000.000000)">
<text x="142252200.000000" y="86000000.000000"
transform="scale(-1 1) translate(-284504400.000000 0)"
textLength="6662143.000000" font-size="1333333.000000" lengthAdjust="spacingAndGlyphs"
text-anchor="middle" opacity="0">TestPoint</text>
</g>
<g class="stroked-text"><desc>TestPoint</desc>
<path d="M142799820 82166666
L142799820 82738095
" />
<path d="M141799820 82452380
L142799820 82452380
" />
<path d="M141847439 83452380
L141799820 83357142
L141799820 83166666
L141847439 83071428
L141942677 83023809
L142323629 83023809
L142418867 83071428
L142466486 83166666
L142466486 83357142
L142418867 83452380
L142323629 83500000
L142228391 83500000
L142133153 83023809
" />
<path d="M141847439 83880952
L141799820 83976190
L141799820 84166666
L141847439 84261904
L141942677 84309523
L141990296 84309523
L142085534 84261904
L142133153 84166666
L142133153 84023809
L142180772 83928571
L142276010 83880952
L142323629 83880952
L142418867 83928571
L142466486 84023809
L142466486 84166666
L142418867 84261904
" />
<path d="M142466486 84595238
L142466486 84976190
" />
<path d="M142799820 84738095
L141942677 84738095
L141847439 84785714
L141799820 84880952
L141799820 84976190
" />
<path d="M141799820 85309523
L142799820 85309523
L142799820 85690476
L142752200 85785714
L142704581 85833333
L142609343 85880952
L142466486 85880952
L142371248 85833333
L142323629 85785714
L142276010 85690476
L142276010 85309523
" />
<path d="M141799820 86452380
L141847439 86357142
L141895058 86309523
L141990296 86261904
L142276010 86261904
L142371248 86309523
L142418867 86357142
L142466486 86452380
L142466486 86595238
L142418867 86690476
L142371248 86738095
L142276010 86785714
L141990296 86785714
L141895058 86738095
L141847439 86690476
L141799820 86595238
L141799820 86452380
" />
<path d="M141799820 87214285
L142466486 87214285
" />
<path d="M142799820 87214285
L142752200 87166666
L142704581 87214285
L142752200 87261904
L142799820 87214285
L142704581 87214285
" />
<path d="M142466486 87690476
L141799820 87690476
" />
<path d="M142371248 87690476
L142418867 87738095
L142466486 87833333
L142466486 87976190
L142418867 88071428
L142323629 88119047
L141799820 88119047
" />
<path d="M142466486 88452380
L142466486 88833333
" />
<path d="M142799820 88595238
L141942677 88595238
L141847439 88642857
L141799820 88738095
L141799820 88833333
" />
</g><g transform="rotate(-90.000000 138852200.000000 85500000.000000)">
<text x="138852200.000000" y="86000000.000000"
transform="scale(-1 1) translate(-277704400.000000 0)"
textLength="2519286.000000" font-size="1333333.000000" lengthAdjust="spacingAndGlyphs"
text-anchor="middle" opacity="0">TP7</text>
</g>
<g class="stroked-text"><desc>TP7</desc>
<path d="M139399820 84238095
L139399820 84809523
" />
<path d="M138399820 84523809
L139399820 84523809
" />
<path d="M138399820 85142857
L139399820 85142857
L139399820 85523809
L139352200 85619047
L139304581 85666666
L139209343 85714285
L139066486 85714285
L138971248 85666666
L138923629 85619047
L138876010 85523809
L138876010 85142857
" />
<path d="M139399820 86047619
L139399820 86714285
L138399820 86285714
" />
</g><g transform="rotate(-90.000000 176252200.000000 81000000.000000)">
<text x="176252200.000000" y="81500000.000000"
transform="scale(-1 1) translate(-352504400.000000 0)"
textLength="6662143.000000" font-size="1333333.000000" lengthAdjust="spacingAndGlyphs"
text-anchor="middle" opacity="0">TestPoint</text>
</g>
<g class="stroked-text"><desc>TestPoint</desc>
<path d="M176799820 77666666
L176799820 78238095
" />
<path d="M175799820 77952380
L176799820 77952380
" />
<path d="M175847439 78952380
L175799820 78857142
L175799820 78666666
L175847439 78571428
L175942677 78523809
L176323629 78523809
L176418867 78571428
L176466486 78666666
L176466486 78857142
L176418867 78952380
L176323629 79000000
L176228391 79000000
L176133153 78523809
" />
<path d="M175847439 79380952
L175799820 79476190
L175799820 79666666
L175847439 79761904
L175942677 79809523
L175990296 79809523
L176085534 79761904
L176133153 79666666
L176133153 79523809
L176180772 79428571
L176276010 79380952
L176323629 79380952
L176418867 79428571
L176466486 79523809
L176466486 79666666
L176418867 79761904
" />
<path d="M176466486 80095238
L176466486 80476190
" />
<path d="M176799820 80238095
L175942677 80238095
L175847439 80285714
L175799820 80380952
L175799820 80476190
" />
<path d="M175799820 80809523
L176799820 80809523
L176799820 81190476
L176752200 81285714
L176704581 81333333
L176609343 81380952
L176466486 81380952
L176371248 81333333
L176323629 81285714
L176276010 81190476
L176276010 80809523
" />
<path d="M175799820 81952380
L175847439 81857142
L175895058 81809523
L175990296 81761904
L176276010 81761904
L176371248 81809523
L176418867 81857142
L176466486 81952380
L176466486 82095238
L176418867 82190476
L176371248 82238095
L176276010 82285714
L175990296 82285714
L175895058 82238095
L175847439 82190476
L175799820 82095238
L175799820 81952380
" />
<path d="M175799820 82714285
L176466486 82714285
" />
<path d="M176799820 82714285
L176752200 82666666
L176704581 82714285
L176752200 82761904
L176799820 82714285
L176704581 82714285
" />
<path d="M176466486 83190476
L175799820 83190476
" />
<path d="M176371248 83190476
L176418867 83238095
L176466486 83333333
L176466486 83476190
L176418867 83571428
L176323629 83619047
L175799820 83619047
" />
<path d="M176466486 83952380
L176466486 84333333
" />
<path d="M176799820 84095238
L175942677 84095238
L175847439 84142857
L175799820 84238095
L175799820 84333333
" />
</g><g transform="rotate(-90.000000 172852200.000000 81000000.000000)">
<text x="172852200.000000" y="81500000.000000"
transform="scale(-1 1) translate(-345704400.000000 0)"
textLength="3471667.000000" font-size="1333333.000000" lengthAdjust="spacingAndGlyphs"
text-anchor="middle" opacity="0">TP13</text>
</g>
<g class="stroked-text"><desc>TP13</desc>
<path d="M173399820 79261904
L173399820 79833333
" />
<path d="M172399820 79547619
L173399820 79547619
" />
<path d="M172399820 80166666
L173399820 80166666
L173399820 80547619
L173352200 80642857
L173304581 80690476
L173209343 80738095
L173066486 80738095
L172971248 80690476
L172923629 80642857
L172876010 80547619
L172876010 80166666
" />
<path d="M172399820 81690476
L172399820 81119047
" />
<path d="M172399820 81404761
L173399820 81404761
L173256962 81309523
L173161724 81214285
L173114105 81119047
" />
<path d="M173399820 82023809
L173399820 82642857
L173018867 82309523
L173018867 82452380
L172971248 82547619
L172923629 82595238
L172828391 82642857
L172590296 82642857
L172495058 82595238
L172447439 82547619
L172399820 82452380
L172399820 82166666
L172447439 82071428
L172495058 82023809
" />
</g><g transform="rotate(-90.000000 171752200.000000 100000000.000000)">
<text x="171752200.000000" y="100500000.000000"
transform="scale(-1 1) translate(-343504400.000000 0)"
textLength="6662143.000000" font-size="1333333.000000" lengthAdjust="spacingAndGlyphs"
text-anchor="middle" opacity="0">TestPoint</text>
</g>
<g class="stroked-text"><desc>TestPoint</desc>
<path d="M172299820 96666666
L172299820 97238095
" />
<path d="M171299820 96952380
L172299820 96952380
" />
<path d="M171347439 97952380
L171299820 97857142
L171299820 97666666
L171347439 97571428
L171442677 97523809
L171823629 97523809
L171918867 97571428
L171966486 97666666
L171966486 97857142
L171918867 97952380
L171823629 98000000
L171728391 98000000
L171633153 97523809
" />
<path d="M171347439 98380952
L171299820 98476190
L171299820 98666666
L171347439 98761904
L171442677 98809523
L171490296 98809523
L171585534 98761904
L171633153 98666666
L171633153 98523809
L171680772 98428571
L171776010 98380952
L171823629 98380952
L171918867 98428571
L171966486 98523809
L171966486 98666666
L171918867 98761904
" />
<path d="M171966486 99095238
L171966486 99476190
" />
<path d="M172299820 99238095
L171442677 99238095
L171347439 99285714
L171299820 99380952
L171299820 99476190
" />
<path d="M171299820 99809523
L172299820 99809523
L172299820 100190476
L172252200 100285714
L172204581 100333333
L172109343 100380952
L171966486 100380952
L171871248 100333333
L171823629 100285714
L171776010 100190476
L171776010 99809523
" />
<path d="M171299820 100952380
L171347439 100857142
L171395058 100809523
L171490296 100761904
L171776010 100761904
L171871248 100809523
L171918867 100857142
L171966486 100952380
L171966486 101095238
L171918867 101190476
L171871248 101238095
L171776010 101285714
L171490296 101285714
L171395058 101238095
L171347439 101190476
L171299820 101095238
L171299820 100952380
" />
<path d="M171299820 101714285
L171966486 101714285
" />
<path d="M172299820 101714285
L172252200 101666666
L172204581 101714285
L172252200 101761904
L172299820 101714285
L172204581 101714285
" />
<path d="M171966486 102190476
L171299820 102190476
" />
<path d="M171871248 102190476
L171918867 102238095
L171966486 102333333
L171966486 102476190
L171918867 102571428
L171823629 102619047
L171299820 102619047
" />
<path d="M171966486 102952380
L171966486 103333333
" />
<path d="M172299820 103095238
L171442677 103095238
L171347439 103142857
L171299820 103238095
L171299820 103333333
" />
</g><g transform="rotate(-90.000000 168352200.000000 100000000.000000)">
<text x="168352200.000000" y="100500000.000000"
transform="scale(-1 1) translate(-336704400.000000 0)"
textLength="2519286.000000" font-size="1333333.000000" lengthAdjust="spacingAndGlyphs"
text-anchor="middle" opacity="0">TP3</text>
</g>
<g class="stroked-text"><desc>TP3</desc>
<path d="M168899820 98738095
L168899820 99309523
" />
<path d="M167899820 99023809
L168899820 99023809
" />
<path d="M167899820 99642857
L168899820 99642857
L168899820 100023809
L168852200 100119047
L168804581 100166666
L168709343 100214285
L168566486 100214285
L168471248 100166666
L168423629 100119047
L168376010 100023809
L168376010 99642857
" />
<path d="M168899820 100547619
L168899820 101166666
L168518867 100833333
L168518867 100976190
L168471248 101071428
L168423629 101119047
L168328391 101166666
L168090296 101166666
L167995058 101119047
L167947439 101071428
L167899820 100976190
L167899820 100690476
L167947439 100595238
L167995058 100547619
" />
</g><g transform="rotate(-90.000000 149752200.000000 77500000.000000)">
<text x="149752200.000000" y="78000000.000000"
transform="scale(-1 1) translate(-299504400.000000 0)"
textLength="6662143.000000" font-size="1333333.000000" lengthAdjust="spacingAndGlyphs"
text-anchor="middle" opacity="0">TestPoint</text>
</g>
<g class="stroked-text"><desc>TestPoint</desc>
<path d="M150299820 74166666
L150299820 74738095
" />
<path d="M149299820 74452380
L150299820 74452380
" />
<path d="M149347439 75452380
L149299820 75357142
L149299820 75166666
L149347439 75071428
L149442677 75023809
L149823629 75023809
L149918867 75071428
L149966486 75166666
L149966486 75357142
L149918867 75452380
L149823629 75500000
L149728391 75500000
L149633153 75023809
" />
<path d="M149347439 75880952
L149299820 75976190
L149299820 76166666
L149347439 76261904
L149442677 76309523
L149490296 76309523
L149585534 76261904
L149633153 76166666
L149633153 76023809
L149680772 75928571
L149776010 75880952
L149823629 75880952
L149918867 75928571
L149966486 76023809
L149966486 76166666
L149918867 76261904
" />
<path d="M149966486 76595238
L149966486 76976190
" />
<path d="M150299820 76738095
L149442677 76738095
L149347439 76785714
L149299820 76880952
L149299820 76976190
" />
<path d="M149299820 77309523
L150299820 77309523
L150299820 77690476
L150252200 77785714
L150204581 77833333
L150109343 77880952
L149966486 77880952
L149871248 77833333
L149823629 77785714
L149776010 77690476
L149776010 77309523
" />
<path d="M149299820 78452380
L149347439 78357142
L149395058 78309523
L149490296 78261904
L149776010 78261904
L149871248 78309523
L149918867 78357142
L149966486 78452380
L149966486 78595238
L149918867 78690476
L149871248 78738095
L149776010 78785714
L149490296 78785714
L149395058 78738095
L149347439 78690476
L149299820 78595238
L149299820 78452380
" />
<path d="M149299820 79214285
L149966486 79214285
" />
<path d="M150299820 79214285
L150252200 79166666
L150204581 79214285
L150252200 79261904
L150299820 79214285
L150204581 79214285
" />
<path d="M149966486 79690476
L149299820 79690476
" />
<path d="M149871248 79690476
L149918867 79738095
L149966486 79833333
L149966486 79976190
L149918867 80071428
L149823629 80119047
L149299820 80119047
" />
<path d="M149966486 80452380
L149966486 80833333
" />
<path d="M150299820 80595238
L149442677 80595238
L149347439 80642857
L149299820 80738095
L149299820 80833333
" />
</g><g transform="rotate(-90.000000 146352200.000000 77500000.000000)">
<text x="146352200.000000" y="78000000.000000"
transform="scale(-1 1) translate(-292704400.000000 0)"
textLength="3471667.000000" font-size="1333333.000000" lengthAdjust="spacingAndGlyphs"
text-anchor="middle" opacity="0">TP10</text>
</g>
<g class="stroked-text"><desc>TP10</desc>
<path d="M146899820 75761904
L146899820 76333333
" />
<path d="M145899820 76047619
L146899820 76047619
" />
<path d="M145899820 76666666
L146899820 76666666
L146899820 77047619
L146852200 77142857
L146804581 77190476
L146709343 77238095
L146566486 77238095
L146471248 77190476
L146423629 77142857
L146376010 77047619
L146376010 76666666
" />
<path d="M145899820 78190476
L145899820 77619047
" />
<path d="M145899820 77904761
L146899820 77904761
L146756962 77809523
L146661724 77714285
L146614105 77619047
" />
<path d="M146899820 78809523
L146899820 78904761
L146852200 79000000
L146804581 79047619
L146709343 79095238
L146518867 79142857
L146280772 79142857
L146090296 79095238
L145995058 79047619
L145947439 79000000
L145899820 78904761
L145899820 78809523
L145947439 78714285
L145995058 78666666
L146090296 78619047
L146280772 78571428
L146518867 78571428
L146709343 78619047
L146804581 78666666
L146852200 78714285
L146899820 78809523
" />
</g><g transform="rotate(-90.000000 149752200.000000 82500000.000000)">
<text x="149752200.000000" y="83000000.000000"
transform="scale(-1 1) translate(-299504400.000000 0)"
textLength="6662143.000000" font-size="1333333.000000" lengthAdjust="spacingAndGlyphs"
text-anchor="middle" opacity="0">TestPoint</text>
</g>
<g class="stroked-text"><desc>TestPoint</desc>
<path d="M150299820 79166666
L150299820 79738095
" />
<path d="M149299820 79452380
L150299820 79452380
" />
<path d="M149347439 80452380
L149299820 80357142
L149299820 80166666
L149347439 80071428
L149442677 80023809
L149823629 80023809
L149918867 80071428
L149966486 80166666
L149966486 80357142
L149918867 80452380
L149823629 80500000
L149728391 80500000
L149633153 80023809
" />
<path d="M149347439 80880952
L149299820 80976190
L149299820 81166666
L149347439 81261904
L149442677 81309523
L149490296 81309523
L149585534 81261904
L149633153 81166666
L149633153 81023809
L149680772 80928571
L149776010 80880952
L149823629 80880952
L149918867 80928571
L149966486 81023809
L149966486 81166666
L149918867 81261904
" />
<path d="M149966486 81595238
L149966486 81976190
" />
<path d="M150299820 81738095
L149442677 81738095
L149347439 81785714
L149299820 81880952
L149299820 81976190
" />
<path d="M149299820 82309523
L150299820 82309523
L150299820 82690476
L150252200 82785714
L150204581 82833333
L150109343 82880952
L149966486 82880952
L149871248 82833333
L149823629 82785714
L149776010 82690476
L149776010 82309523
" />
<path d="M149299820 83452380
L149347439 83357142
L149395058 83309523
L149490296 83261904
L149776010 83261904
L149871248 83309523
L149918867 83357142
L149966486 83452380
L149966486 83595238
L149918867 83690476
L149871248 83738095
L149776010 83785714
L149490296 83785714
L149395058 83738095
L149347439 83690476
L149299820 83595238
L149299820 83452380
" />
<path d="M149299820 84214285
L149966486 84214285
" />
<path d="M150299820 84214285
L150252200 84166666
L150204581 84214285
L150252200 84261904
L150299820 84214285
L150204581 84214285
" />
<path d="M149966486 84690476
L149299820 84690476
" />
<path d="M149871248 84690476
L149918867 84738095
L149966486 84833333
L149966486 84976190
L149918867 85071428
L149823629 85119047
L149299820 85119047
" />
<path d="M149966486 85452380
L149966486 85833333
" />
<path d="M150299820 85595238
L149442677 85595238
L149347439 85642857
L149299820 85738095
L149299820 85833333
" />
</g><g transform="rotate(-90.000000 146352200.000000 82500000.000000)">
<text x="146352200.000000" y="83000000.000000"
transform="scale(-1 1) translate(-292704400.000000 0)"
textLength="3471667.000000" font-size="1333333.000000" lengthAdjust="spacingAndGlyphs"
text-anchor="middle" opacity="0">TP11</text>
</g>
<g class="stroked-text"><desc>TP11</desc>
<path d="M146899820 80761904
L146899820 81333333
" />
<path d="M145899820 81047619
L146899820 81047619
" />
<path d="M145899820 81666666
L146899820 81666666
L146899820 82047619
L146852200 82142857
L146804581 82190476
L146709343 82238095
L146566486 82238095
L146471248 82190476
L146423629 82142857
L146376010 82047619
L146376010 81666666
" />
<path d="M145899820 83190476
L145899820 82619047
" />
<path d="M145899820 82904761
L146899820 82904761
L146756962 82809523
L146661724 82714285
L146614105 82619047
" />
<path d="M145899820 84142857
L145899820 83571428
" />
<path d="M145899820 83857142
L146899820 83857142
L146756962 83761904
L146661724 83666666
L146614105 83571428
" />
</g><g transform="rotate(-90.000000 179752200.000000 75500000.000000)">
<text x="179752200.000000" y="76000000.000000"
transform="scale(-1 1) translate(-359504400.000000 0)"
textLength="6662143.000000" font-size="1333333.000000" lengthAdjust="spacingAndGlyphs"
text-anchor="middle" opacity="0">TestPoint</text>
</g>
<g class="stroked-text"><desc>TestPoint</desc>
<path d="M180299820 72166666
L180299820 72738095
" />
<path d="M179299820 72452380
L180299820 72452380
" />
<path d="M179347439 73452380
L179299820 73357142
L179299820 73166666
L179347439 73071428
L179442677 73023809
L179823629 73023809
L179918867 73071428
L179966486 73166666
L179966486 73357142
L179918867 73452380
L179823629 73500000
L179728391 73500000
L179633153 73023809
" />
<path d="M179347439 73880952
L179299820 73976190
L179299820 74166666
L179347439 74261904
L179442677 74309523
L179490296 74309523
L179585534 74261904
L179633153 74166666
L179633153 74023809
L179680772 73928571
L179776010 73880952
L179823629 73880952
L179918867 73928571
L179966486 74023809
L179966486 74166666
L179918867 74261904
" />
<path d="M179966486 74595238
L179966486 74976190
" />
<path d="M180299820 74738095
L179442677 74738095
L179347439 74785714
L179299820 74880952
L179299820 74976190
" />
<path d="M179299820 75309523
L180299820 75309523
L180299820 75690476
L180252200 75785714
L180204581 75833333
L180109343 75880952
L179966486 75880952
L179871248 75833333
L179823629 75785714
L179776010 75690476
L179776010 75309523
" />
<path d="M179299820 76452380
L179347439 76357142
L179395058 76309523
L179490296 76261904
L179776010 76261904
L179871248 76309523
L179918867 76357142
L179966486 76452380
L179966486 76595238
L179918867 76690476
L179871248 76738095
L179776010 76785714
L179490296 76785714
L179395058 76738095
L179347439 76690476
L179299820 76595238
L179299820 76452380
" />
<path d="M179299820 77214285
L179966486 77214285
" />
<path d="M180299820 77214285
L180252200 77166666
L180204581 77214285
L180252200 77261904
L180299820 77214285
L180204581 77214285
" />
<path d="M179966486 77690476
L179299820 77690476
" />
<path d="M179871248 77690476
L179918867 77738095
L179966486 77833333
L179966486 77976190
L179918867 78071428
L179823629 78119047
L179299820 78119047
" />
<path d="M179966486 78452380
L179966486 78833333
" />
<path d="M180299820 78595238
L179442677 78595238
L179347439 78642857
L179299820 78738095
L179299820 78833333
" />
</g><g transform="rotate(-90.000000 176352200.000000 75500000.000000)">
<text x="176352200.000000" y="76000000.000000"
transform="scale(-1 1) translate(-352704400.000000 0)"
textLength="2519286.000000" font-size="1333333.000000" lengthAdjust="spacingAndGlyphs"
text-anchor="middle" opacity="0">TP2</text>
</g>
<g class="stroked-text"><desc>TP2</desc>
<path d="M176899820 74238095
L176899820 74809523
" />
<path d="M175899820 74523809
L176899820 74523809
" />
<path d="M175899820 75142857
L176899820 75142857
L176899820 75523809
L176852200 75619047
L176804581 75666666
L176709343 75714285
L176566486 75714285
L176471248 75666666
L176423629 75619047
L176376010 75523809
L176376010 75142857
" />
<path d="M176804581 76095238
L176852200 76142857
L176899820 76238095
L176899820 76476190
L176852200 76571428
L176804581 76619047
L176709343 76666666
L176614105 76666666
L176471248 76619047
L175899820 76047619
L175899820 76666666
" />
</g><g transform="rotate(-90.000000 176252200.000000 75250000.000000)">
<text x="176252200.000000" y="75750000.000000"
transform="scale(-1 1) translate(-352504400.000000 0)"
textLength="6662143.000000" font-size="1333333.000000" lengthAdjust="spacingAndGlyphs"
text-anchor="middle" opacity="0">TestPoint</text>
</g>
<g class="stroked-text"><desc>TestPoint</desc>
<path d="M176799820 71916666
L176799820 72488095
" />
<path d="M175799820 72202380
L176799820 72202380
" />
<path d="M175847439 73202380
L175799820 73107142
L175799820 72916666
L175847439 72821428
L175942677 72773809
L176323629 72773809
L176418867 72821428
L176466486 72916666
L176466486 73107142
L176418867 73202380
L176323629 73250000
L176228391 73250000
L176133153 72773809
" />
<path d="M175847439 73630952
L175799820 73726190
L175799820 73916666
L175847439 74011904
L175942677 74059523
L175990296 74059523
L176085534 74011904
L176133153 73916666
L176133153 73773809
L176180772 73678571
L176276010 73630952
L176323629 73630952
L176418867 73678571
L176466486 73773809
L176466486 73916666
L176418867 74011904
" />
<path d="M176466486 74345238
L176466486 74726190
" />
<path d="M176799820 74488095
L175942677 74488095
L175847439 74535714
L175799820 74630952
L175799820 74726190
" />
<path d="M175799820 75059523
L176799820 75059523
L176799820 75440476
L176752200 75535714
L176704581 75583333
L176609343 75630952
L176466486 75630952
L176371248 75583333
L176323629 75535714
L176276010 75440476
L176276010 75059523
" />
<path d="M175799820 76202380
L175847439 76107142
L175895058 76059523
L175990296 76011904
L176276010 76011904
L176371248 76059523
L176418867 76107142
L176466486 76202380
L176466486 76345238
L176418867 76440476
L176371248 76488095
L176276010 76535714
L175990296 76535714
L175895058 76488095
L175847439 76440476
L175799820 76345238
L175799820 76202380
" />
<path d="M175799820 76964285
L176466486 76964285
" />
<path d="M176799820 76964285
L176752200 76916666
L176704581 76964285
L176752200 77011904
L176799820 76964285
L176704581 76964285
" />
<path d="M176466486 77440476
L175799820 77440476
" />
<path d="M176371248 77440476
L176418867 77488095
L176466486 77583333
L176466486 77726190
L176418867 77821428
L176323629 77869047
L175799820 77869047
" />
<path d="M176466486 78202380
L176466486 78583333
" />
<path d="M176799820 78345238
L175942677 78345238
L175847439 78392857
L175799820 78488095
L175799820 78583333
" />
</g><g transform="rotate(-90.000000 172852200.000000 75250000.000000)">
<text x="172852200.000000" y="75750000.000000"
transform="scale(-1 1) translate(-345704400.000000 0)"
textLength="2519286.000000" font-size="1333333.000000" lengthAdjust="spacingAndGlyphs"
text-anchor="middle" opacity="0">TP8</text>
</g>
<g class="stroked-text"><desc>TP8</desc>
<path d="M173399820 73988095
L173399820 74559523
" />
<path d="M172399820 74273809
L173399820 74273809
" />
<path d="M172399820 74892857
L173399820 74892857
L173399820 75273809
L173352200 75369047
L173304581 75416666
L173209343 75464285
L173066486 75464285
L172971248 75416666
L172923629 75369047
L172876010 75273809
L172876010 74892857
" />
<path d="M172971248 76035714
L173018867 75940476
L173066486 75892857
L173161724 75845238
L173209343 75845238
L173304581 75892857
L173352200 75940476
L173399820 76035714
L173399820 76226190
L173352200 76321428
L173304581 76369047
L173209343 76416666
L173161724 76416666
L173066486 76369047
L173018867 76321428
L172971248 76226190
L172971248 76035714
L172923629 75940476
L172876010 75892857
L172780772 75845238
L172590296 75845238
L172495058 75892857
L172447439 75940476
L172399820 76035714
L172399820 76226190
L172447439 76321428
L172495058 76369047
L172590296 76416666
L172780772 76416666
L172876010 76369047
L172923629 76321428
L172971248 76226190
" />
</g><g transform="rotate(-90.000000 145752200.000000 117250000.000000)">
<text x="145752200.000000" y="117750000.000000"
transform="scale(-1 1) translate(-291504400.000000 0)"
textLength="6662143.000000" font-size="1333333.000000" lengthAdjust="spacingAndGlyphs"
text-anchor="middle" opacity="0">TestPoint</text>
</g>
<g class="stroked-text"><desc>TestPoint</desc>
<path d="M146299820 113916666
L146299820 114488095
" />
<path d="M145299820 114202380
L146299820 114202380
" />
<path d="M145347439 115202380
L145299820 115107142
L145299820 114916666
L145347439 114821428
L145442677 114773809
L145823629 114773809
L145918867 114821428
L145966486 114916666
L145966486 115107142
L145918867 115202380
L145823629 115250000
L145728391 115250000
L145633153 114773809
" />
<path d="M145347439 115630952
L145299820 115726190
L145299820 115916666
L145347439 116011904
L145442677 116059523
L145490296 116059523
L145585534 116011904
L145633153 115916666
L145633153 115773809
L145680772 115678571
L145776010 115630952
L145823629 115630952
L145918867 115678571
L145966486 115773809
L145966486 115916666
L145918867 116011904
" />
<path d="M145966486 116345238
L145966486 116726190
" />
<path d="M146299820 116488095
L145442677 116488095
L145347439 116535714
L145299820 116630952
L145299820 116726190
" />
<path d="M145299820 117059523
L146299820 117059523
L146299820 117440476
L146252200 117535714
L146204581 117583333
L146109343 117630952
L145966486 117630952
L145871248 117583333
L145823629 117535714
L145776010 117440476
L145776010 117059523
" />
<path d="M145299820 118202380
L145347439 118107142
L145395058 118059523
L145490296 118011904
L145776010 118011904
L145871248 118059523
L145918867 118107142
L145966486 118202380
L145966486 118345238
L145918867 118440476
L145871248 118488095
L145776010 118535714
L145490296 118535714
L145395058 118488095
L145347439 118440476
L145299820 118345238
L145299820 118202380
" />
<path d="M145299820 118964285
L145966486 118964285
" />
<path d="M146299820 118964285
L146252200 118916666
L146204581 118964285
L146252200 119011904
L146299820 118964285
L146204581 118964285
" />
<path d="M145966486 119440476
L145299820 119440476
" />
<path d="M145871248 119440476
L145918867 119488095
L145966486 119583333
L145966486 119726190
L145918867 119821428
L145823629 119869047
L145299820 119869047
" />
<path d="M145966486 120202380
L145966486 120583333
" />
<path d="M146299820 120345238
L145442677 120345238
L145347439 120392857
L145299820 120488095
L145299820 120583333
" />
</g><g transform="rotate(-90.000000 142352200.000000 117250000.000000)">
<text x="142352200.000000" y="117750000.000000"
transform="scale(-1 1) translate(-284704400.000000 0)"
textLength="3471667.000000" font-size="1333333.000000" lengthAdjust="spacingAndGlyphs"
text-anchor="middle" opacity="0">TP12</text>
</g>
<g class="stroked-text"><desc>TP12</desc>
<path d="M142899820 115511904
L142899820 116083333
" />
<path d="M141899820 115797619
L142899820 115797619
" />
<path d="M141899820 116416666
L142899820 116416666
L142899820 116797619
L142852200 116892857
L142804581 116940476
L142709343 116988095
L142566486 116988095
L142471248 116940476
L142423629 116892857
L142376010 116797619
L142376010 116416666
" />
<path d="M141899820 117940476
L141899820 117369047
" />
<path d="M141899820 117654761
L142899820 117654761
L142756962 117559523
L142661724 117464285
L142614105 117369047
" />
<path d="M142804581 118321428
L142852200 118369047
L142899820 118464285
L142899820 118702380
L142852200 118797619
L142804581 118845238
L142709343 118892857
L142614105 118892857
L142471248 118845238
L141899820 118273809
L141899820 118892857
" />
</g><text x="145002200.000000" y="113250000.000000"
transform="scale(-1 1) translate(-290004400.000000 0)"
textLength="6662143.000000" font-size="1333333.000000" lengthAdjust="spacingAndGlyphs"
text-anchor="middle" opacity="0">TestPoint</text>
<g class="stroked-text"><desc>TestPoint</desc>
<path d="M141668867 112202380
L142240296 112202380
" />
<path d="M141954581 113202380
L141954581 112202380
" />
<path d="M142954581 113154761
L142859343 113202380
L142668867 113202380
L142573629 113154761
L142526010 113059523
L142526010 112678571
L142573629 112583333
L142668867 112535714
L142859343 112535714
L142954581 112583333
L143002200 112678571
L143002200 112773809
L142526010 112869047
" />
<path d="M143383153 113154761
L143478391 113202380
L143668867 113202380
L143764105 113154761
L143811724 113059523
L143811724 113011904
L143764105 112916666
L143668867 112869047
L143526010 112869047
L143430772 112821428
L143383153 112726190
L143383153 112678571
L143430772 112583333
L143526010 112535714
L143668867 112535714
L143764105 112583333
" />
<path d="M144097439 112535714
L144478391 112535714
" />
<path d="M144240296 112202380
L144240296 113059523
L144287915 113154761
L144383153 113202380
L144478391 113202380
" />
<path d="M144811724 113202380
L144811724 112202380
L145192677 112202380
L145287915 112250000
L145335534 112297619
L145383153 112392857
L145383153 112535714
L145335534 112630952
L145287915 112678571
L145192677 112726190
L144811724 112726190
" />
<path d="M145954581 113202380
L145859343 113154761
L145811724 113107142
L145764105 113011904
L145764105 112726190
L145811724 112630952
L145859343 112583333
L145954581 112535714
L146097439 112535714
L146192677 112583333
L146240296 112630952
L146287915 112726190
L146287915 113011904
L146240296 113107142
L146192677 113154761
L146097439 113202380
L145954581 113202380
" />
<path d="M146716486 113202380
L146716486 112535714
" />
<path d="M146716486 112202380
L146668867 112250000
L146716486 112297619
L146764105 112250000
L146716486 112202380
L146716486 112297619
" />
<path d="M147192677 112535714
L147192677 113202380
" />
<path d="M147192677 112630952
L147240296 112583333
L147335534 112535714
L147478391 112535714
L147573629 112583333
L147621248 112678571
L147621248 113202380
" />
<path d="M147954581 112535714
L148335534 112535714
" />
<path d="M148097439 112202380
L148097439 113059523
L148145058 113154761
L148240296 113202380
L148335534 113202380
" />
</g><text x="145002200.000000" y="109850000.000000"
transform="scale(-1 1) translate(-290004400.000000 0)"
textLength="3471667.000000" font-size="1333333.000000" lengthAdjust="spacingAndGlyphs"
text-anchor="middle" opacity="0">TP18</text>
<g class="stroked-text"><desc>TP18</desc>
<path d="M143264105 108802380
L143835534 108802380
" />
<path d="M143549820 109802380
L143549820 108802380
" />
<path d="M144168867 109802380
L144168867 108802380
L144549820 108802380
L144645058 108850000
L144692677 108897619
L144740296 108992857
L144740296 109135714
L144692677 109230952
L144645058 109278571
L144549820 109326190
L144168867 109326190
" />
<path d="M145692677 109802380
L145121248 109802380
" />
<path d="M145406962 109802380
L145406962 108802380
L145311724 108945238
L145216486 109040476
L145121248 109088095
" />
<path d="M146264105 109230952
L146168867 109183333
L146121248 109135714
L146073629 109040476
L146073629 108992857
L146121248 108897619
L146168867 108850000
L146264105 108802380
L146454581 108802380
L146549820 108850000
L146597439 108897619
L146645058 108992857
L146645058 109040476
L146597439 109135714
L146549820 109183333
L146454581 109230952
L146264105 109230952
L146168867 109278571
L146121248 109326190
L146073629 109421428
L146073629 109611904
L146121248 109707142
L146168867 109754761
L146264105 109802380
L146454581 109802380
L146549820 109754761
L146597439 109707142
L146645058 109611904
L146645058 109421428
L146597439 109326190
L146549820 109278571
L146454581 109230952
" />
</g><text x="149252200.000000" y="71500000.000000"
transform="scale(-1 1) translate(-298504400.000000 0)"
textLength="6662143.000000" font-size="1333333.000000" lengthAdjust="spacingAndGlyphs"
text-anchor="middle" opacity="0">TestPoint</text>
<g class="stroked-text"><desc>TestPoint</desc>
<path d="M145918867 70452380
L146490296 70452380
" />
<path d="M146204581 71452380
L146204581 70452380
" />
<path d="M147204581 71404761
L147109343 71452380
L146918867 71452380
L146823629 71404761
L146776010 71309523
L146776010 70928571
L146823629 70833333
L146918867 70785714
L147109343 70785714
L147204581 70833333
L147252200 70928571
L147252200 71023809
L146776010 71119047
" />
<path d="M147633153 71404761
L147728391 71452380
L147918867 71452380
L148014105 71404761
L148061724 71309523
L148061724 71261904
L148014105 71166666
L147918867 71119047
L147776010 71119047
L147680772 71071428
L147633153 70976190
L147633153 70928571
L147680772 70833333
L147776010 70785714
L147918867 70785714
L148014105 70833333
" />
<path d="M148347439 70785714
L148728391 70785714
" />
<path d="M148490296 70452380
L148490296 71309523
L148537915 71404761
L148633153 71452380
L148728391 71452380
" />
<path d="M149061724 71452380
L149061724 70452380
L149442677 70452380
L149537915 70500000
L149585534 70547619
L149633153 70642857
L149633153 70785714
L149585534 70880952
L149537915 70928571
L149442677 70976190
L149061724 70976190
" />
<path d="M150204581 71452380
L150109343 71404761
L150061724 71357142
L150014105 71261904
L150014105 70976190
L150061724 70880952
L150109343 70833333
L150204581 70785714
L150347439 70785714
L150442677 70833333
L150490296 70880952
L150537915 70976190
L150537915 71261904
L150490296 71357142
L150442677 71404761
L150347439 71452380
L150204581 71452380
" />
<path d="M150966486 71452380
L150966486 70785714
" />
<path d="M150966486 70452380
L150918867 70500000
L150966486 70547619
L151014105 70500000
L150966486 70452380
L150966486 70547619
" />
<path d="M151442677 70785714
L151442677 71452380
" />
<path d="M151442677 70880952
L151490296 70833333
L151585534 70785714
L151728391 70785714
L151823629 70833333
L151871248 70928571
L151871248 71452380
" />
<path d="M152204581 70785714
L152585534 70785714
" />
<path d="M152347439 70452380
L152347439 71309523
L152395058 71404761
L152490296 71452380
L152585534 71452380
" />
</g><text x="149252200.000000" y="68100000.000000"
transform="scale(-1 1) translate(-298504400.000000 0)"
textLength="3471667.000000" font-size="1333333.000000" lengthAdjust="spacingAndGlyphs"
text-anchor="middle" opacity="0">TP17</text>
<g class="stroked-text"><desc>TP17</desc>
<path d="M147514105 67052380
L148085534 67052380
" />
<path d="M147799820 68052380
L147799820 67052380
" />
<path d="M148418867 68052380
L148418867 67052380
L148799820 67052380
L148895058 67100000
L148942677 67147619
L148990296 67242857
L148990296 67385714
L148942677 67480952
L148895058 67528571
L148799820 67576190
L148418867 67576190
" />
<path d="M149942677 68052380
L149371248 68052380
" />
<path d="M149656962 68052380
L149656962 67052380
L149561724 67195238
L149466486 67290476
L149371248 67338095
" />
<path d="M150276010 67052380
L150942677 67052380
L150514105 68052380
" />
</g><g transform="rotate(-90.000000 152002200.000000 117250000.000000)">
<text x="152002200.000000" y="117750000.000000"
transform="scale(-1 1) translate(-304004400.000000 0)"
textLength="6662143.000000" font-size="1333333.000000" lengthAdjust="spacingAndGlyphs"
text-anchor="middle" opacity="0">TestPoint</text>
</g>
<g class="stroked-text"><desc>TestPoint</desc>
<path d="M152549820 113916666
L152549820 114488095
" />
<path d="M151549820 114202380
L152549820 114202380
" />
<path d="M151597439 115202380
L151549820 115107142
L151549820 114916666
L151597439 114821428
L151692677 114773809
L152073629 114773809
L152168867 114821428
L152216486 114916666
L152216486 115107142
L152168867 115202380
L152073629 115250000
L151978391 115250000
L151883153 114773809
" />
<path d="M151597439 115630952
L151549820 115726190
L151549820 115916666
L151597439 116011904
L151692677 116059523
L151740296 116059523
L151835534 116011904
L151883153 115916666
L151883153 115773809
L151930772 115678571
L152026010 115630952
L152073629 115630952
L152168867 115678571
L152216486 115773809
L152216486 115916666
L152168867 116011904
" />
<path d="M152216486 116345238
L152216486 116726190
" />
<path d="M152549820 116488095
L151692677 116488095
L151597439 116535714
L151549820 116630952
L151549820 116726190
" />
<path d="M151549820 117059523
L152549820 117059523
L152549820 117440476
L152502200 117535714
L152454581 117583333
L152359343 117630952
L152216486 117630952
L152121248 117583333
L152073629 117535714
L152026010 117440476
L152026010 117059523
" />
<path d="M151549820 118202380
L151597439 118107142
L151645058 118059523
L151740296 118011904
L152026010 118011904
L152121248 118059523
L152168867 118107142
L152216486 118202380
L152216486 118345238
L152168867 118440476
L152121248 118488095
L152026010 118535714
L151740296 118535714
L151645058 118488095
L151597439 118440476
L151549820 118345238
L151549820 118202380
" />
<path d="M151549820 118964285
L152216486 118964285
" />
<path d="M152549820 118964285
L152502200 118916666
L152454581 118964285
L152502200 119011904
L152549820 118964285
L152454581 118964285
" />
<path d="M152216486 119440476
L151549820 119440476
" />
<path d="M152121248 119440476
L152168867 119488095
L152216486 119583333
L152216486 119726190
L152168867 119821428
L152073629 119869047
L151549820 119869047
" />
<path d="M152216486 120202380
L152216486 120583333
" />
<path d="M152549820 120345238
L151692677 120345238
L151597439 120392857
L151549820 120488095
L151549820 120583333
" />
</g><g transform="rotate(-90.000000 148602200.000000 117250000.000000)">
<text x="148602200.000000" y="117750000.000000"
transform="scale(-1 1) translate(-297204400.000000 0)"
textLength="3471667.000000" font-size="1333333.000000" lengthAdjust="spacingAndGlyphs"
text-anchor="middle" opacity="0">TP16</text>
</g>
<g class="stroked-text"><desc>TP16</desc>
<path d="M149149820 115511904
L149149820 116083333
" />
<path d="M148149820 115797619
L149149820 115797619
" />
<path d="M148149820 116416666
L149149820 116416666
L149149820 116797619
L149102200 116892857
L149054581 116940476
L148959343 116988095
L148816486 116988095
L148721248 116940476
L148673629 116892857
L148626010 116797619
L148626010 116416666
" />
<path d="M148149820 117940476
L148149820 117369047
" />
<path d="M148149820 117654761
L149149820 117654761
L149006962 117559523
L148911724 117464285
L148864105 117369047
" />
<path d="M149149820 118797619
L149149820 118607142
L149102200 118511904
L149054581 118464285
L148911724 118369047
L148721248 118321428
L148340296 118321428
L148245058 118369047
L148197439 118416666
L148149820 118511904
L148149820 118702380
L148197439 118797619
L148245058 118845238
L148340296 118892857
L148578391 118892857
L148673629 118845238
L148721248 118797619
L148768867 118702380
L148768867 118511904
L148721248 118416666
L148673629 118369047
L148578391 118321428
" />
</g><g transform="rotate(-90.000000 179752200.000000 80500000.000000)">
<text x="179752200.000000" y="81000000.000000"
transform="scale(-1 1) translate(-359504400.000000 0)"
textLength="6662143.000000" font-size="1333333.000000" lengthAdjust="spacingAndGlyphs"
text-anchor="middle" opacity="0">TestPoint</text>
</g>
<g class="stroked-text"><desc>TestPoint</desc>
<path d="M180299820 77166666
L180299820 77738095
" />
<path d="M179299820 77452380
L180299820 77452380
" />
<path d="M179347439 78452380
L179299820 78357142
L179299820 78166666
L179347439 78071428
L179442677 78023809
L179823629 78023809
L179918867 78071428
L179966486 78166666
L179966486 78357142
L179918867 78452380
L179823629 78500000
L179728391 78500000
L179633153 78023809
" />
<path d="M179347439 78880952
L179299820 78976190
L179299820 79166666
L179347439 79261904
L179442677 79309523
L179490296 79309523
L179585534 79261904
L179633153 79166666
L179633153 79023809
L179680772 78928571
L179776010 78880952
L179823629 78880952
L179918867 78928571
L179966486 79023809
L179966486 79166666
L179918867 79261904
" />
<path d="M179966486 79595238
L179966486 79976190
" />
<path d="M180299820 79738095
L179442677 79738095
L179347439 79785714
L179299820 79880952
L179299820 79976190
" />
<path d="M179299820 80309523
L180299820 80309523
L180299820 80690476
L180252200 80785714
L180204581 80833333
L180109343 80880952
L179966486 80880952
L179871248 80833333
L179823629 80785714
L179776010 80690476
L179776010 80309523
" />
<path d="M179299820 81452380
L179347439 81357142
L179395058 81309523
L179490296 81261904
L179776010 81261904
L179871248 81309523
L179918867 81357142
L179966486 81452380
L179966486 81595238
L179918867 81690476
L179871248 81738095
L179776010 81785714
L179490296 81785714
L179395058 81738095
L179347439 81690476
L179299820 81595238
L179299820 81452380
" />
<path d="M179299820 82214285
L179966486 82214285
" />
<path d="M180299820 82214285
L180252200 82166666
L180204581 82214285
L180252200 82261904
L180299820 82214285
L180204581 82214285
" />
<path d="M179966486 82690476
L179299820 82690476
" />
<path d="M179871248 82690476
L179918867 82738095
L179966486 82833333
L179966486 82976190
L179918867 83071428
L179823629 83119047
L179299820 83119047
" />
<path d="M179966486 83452380
L179966486 83833333
" />
<path d="M180299820 83595238
L179442677 83595238
L179347439 83642857
L179299820 83738095
L179299820 83833333
" />
</g><g transform="rotate(-90.000000 176352200.000000 80500000.000000)">
<text x="176352200.000000" y="81000000.000000"
transform="scale(-1 1) translate(-352704400.000000 0)"
textLength="2519286.000000" font-size="1333333.000000" lengthAdjust="spacingAndGlyphs"
text-anchor="middle" opacity="0">TP4</text>
</g>
<g class="stroked-text"><desc>TP4</desc>
<path d="M176899820 79238095
L176899820 79809523
" />
<path d="M175899820 79523809
L176899820 79523809
" />
<path d="M175899820 80142857
L176899820 80142857
L176899820 80523809
L176852200 80619047
L176804581 80666666
L176709343 80714285
L176566486 80714285
L176471248 80666666
L176423629 80619047
L176376010 80523809
L176376010 80142857
" />
<path d="M176566486 81571428
L175899820 81571428
" />
<path d="M176947439 81333333
L176233153 81095238
L176233153 81714285
" />
</g><g transform="rotate(-90.000000 149002200.000000 117250000.000000)">
<text x="149002200.000000" y="117750000.000000"
transform="scale(-1 1) translate(-298004400.000000 0)"
textLength="6662143.000000" font-size="1333333.000000" lengthAdjust="spacingAndGlyphs"
text-anchor="middle" opacity="0">TestPoint</text>
</g>
<g class="stroked-text"><desc>TestPoint</desc>
<path d="M149549820 113916666
L149549820 114488095
" />
<path d="M148549820 114202380
L149549820 114202380
" />
<path d="M148597439 115202380
L148549820 115107142
L148549820 114916666
L148597439 114821428
L148692677 114773809
L149073629 114773809
L149168867 114821428
L149216486 114916666
L149216486 115107142
L149168867 115202380
L149073629 115250000
L148978391 115250000
L148883153 114773809
" />
<path d="M148597439 115630952
L148549820 115726190
L148549820 115916666
L148597439 116011904
L148692677 116059523
L148740296 116059523
L148835534 116011904
L148883153 115916666
L148883153 115773809
L148930772 115678571
L149026010 115630952
L149073629 115630952
L149168867 115678571
L149216486 115773809
L149216486 115916666
L149168867 116011904
" />
<path d="M149216486 116345238
L149216486 116726190
" />
<path d="M149549820 116488095
L148692677 116488095
L148597439 116535714
L148549820 116630952
L148549820 116726190
" />
<path d="M148549820 117059523
L149549820 117059523
L149549820 117440476
L149502200 117535714
L149454581 117583333
L149359343 117630952
L149216486 117630952
L149121248 117583333
L149073629 117535714
L149026010 117440476
L149026010 117059523
" />
<path d="M148549820 118202380
L148597439 118107142
L148645058 118059523
L148740296 118011904
L149026010 118011904
L149121248 118059523
L149168867 118107142
L149216486 118202380
L149216486 118345238
L149168867 118440476
L149121248 118488095
L149026010 118535714
L148740296 118535714
L148645058 118488095
L148597439 118440476
L148549820 118345238
L148549820 118202380
" />
<path d="M148549820 118964285
L149216486 118964285
" />
<path d="M149549820 118964285
L149502200 118916666
L149454581 118964285
L149502200 119011904
L149549820 118964285
L149454581 118964285
" />
<path d="M149216486 119440476
L148549820 119440476
" />
<path d="M149121248 119440476
L149168867 119488095
L149216486 119583333
L149216486 119726190
L149168867 119821428
L149073629 119869047
L148549820 119869047
" />
<path d="M149216486 120202380
L149216486 120583333
" />
<path d="M149549820 120345238
L148692677 120345238
L148597439 120392857
L148549820 120488095
L148549820 120583333
" />
</g><g transform="rotate(-90.000000 145602200.000000 117250000.000000)">
<text x="145602200.000000" y="117750000.000000"
transform="scale(-1 1) translate(-291204400.000000 0)"
textLength="3471667.000000" font-size="1333333.000000" lengthAdjust="spacingAndGlyphs"
text-anchor="middle" opacity="0">TP14</text>
</g>
<g class="stroked-text"><desc>TP14</desc>
<path d="M146149820 115511904
L146149820 116083333
" />
<path d="M145149820 115797619
L146149820 115797619
" />
<path d="M145149820 116416666
L146149820 116416666
L146149820 116797619
L146102200 116892857
L146054581 116940476
L145959343 116988095
L145816486 116988095
L145721248 116940476
L145673629 116892857
L145626010 116797619
L145626010 116416666
" />
<path d="M145149820 117940476
L145149820 117369047
" />
<path d="M145149820 117654761
L146149820 117654761
L146006962 117559523
L145911724 117464285
L145864105 117369047
" />
<path d="M145816486 118797619
L145149820 118797619
" />
<path d="M146197439 118559523
L145483153 118321428
L145483153 118940476
" />
</g><g transform="rotate(-90.000000 171752200.000000 102500000.000000)">
<text x="171752200.000000" y="103000000.000000"
transform="scale(-1 1) translate(-343504400.000000 0)"
textLength="6662143.000000" font-size="1333333.000000" lengthAdjust="spacingAndGlyphs"
text-anchor="middle" opacity="0">TestPoint</text>
</g>
<g class="stroked-text"><desc>TestPoint</desc>
<path d="M172299820 99166666
L172299820 99738095
" />
<path d="M171299820 99452380
L172299820 99452380
" />
<path d="M171347439 100452380
L171299820 100357142
L171299820 100166666
L171347439 100071428
L171442677 100023809
L171823629 100023809
L171918867 100071428
L171966486 100166666
L171966486 100357142
L171918867 100452380
L171823629 100500000
L171728391 100500000
L171633153 100023809
" />
<path d="M171347439 100880952
L171299820 100976190
L171299820 101166666
L171347439 101261904
L171442677 101309523
L171490296 101309523
L171585534 101261904
L171633153 101166666
L171633153 101023809
L171680772 100928571
L171776010 100880952
L171823629 100880952
L171918867 100928571
L171966486 101023809
L171966486 101166666
L171918867 101261904
" />
<path d="M171966486 101595238
L171966486 101976190
" />
<path d="M172299820 101738095
L171442677 101738095
L171347439 101785714
L171299820 101880952
L171299820 101976190
" />
<path d="M171299820 102309523
L172299820 102309523
L172299820 102690476
L172252200 102785714
L172204581 102833333
L172109343 102880952
L171966486 102880952
L171871248 102833333
L171823629 102785714
L171776010 102690476
L171776010 102309523
" />
<path d="M171299820 103452380
L171347439 103357142
L171395058 103309523
L171490296 103261904
L171776010 103261904
L171871248 103309523
L171918867 103357142
L171966486 103452380
L171966486 103595238
L171918867 103690476
L171871248 103738095
L171776010 103785714
L171490296 103785714
L171395058 103738095
L171347439 103690476
L171299820 103595238
L171299820 103452380
" />
<path d="M171299820 104214285
L171966486 104214285
" />
<path d="M172299820 104214285
L172252200 104166666
L172204581 104214285
L172252200 104261904
L172299820 104214285
L172204581 104214285
" />
<path d="M171966486 104690476
L171299820 104690476
" />
<path d="M171871248 104690476
L171918867 104738095
L171966486 104833333
L171966486 104976190
L171918867 105071428
L171823629 105119047
L171299820 105119047
" />
<path d="M171966486 105452380
L171966486 105833333
" />
<path d="M172299820 105595238
L171442677 105595238
L171347439 105642857
L171299820 105738095
L171299820 105833333
" />
</g><g transform="rotate(-90.000000 168352200.000000 102500000.000000)">
<text x="168352200.000000" y="103000000.000000"
transform="scale(-1 1) translate(-336704400.000000 0)"
textLength="2519286.000000" font-size="1333333.000000" lengthAdjust="spacingAndGlyphs"
text-anchor="middle" opacity="0">TP1</text>
</g>
<g class="stroked-text"><desc>TP1</desc>
<path d="M168899820 101238095
L168899820 101809523
" />
<path d="M167899820 101523809
L168899820 101523809
" />
<path d="M167899820 102142857
L168899820 102142857
L168899820 102523809
L168852200 102619047
L168804581 102666666
L168709343 102714285
L168566486 102714285
L168471248 102666666
L168423629 102619047
L168376010 102523809
L168376010 102142857
" />
<path d="M167899820 103666666
L167899820 103095238
" />
<path d="M167899820 103380952
L168899820 103380952
L168756962 103285714
L168661724 103190476
L168614105 103095238
" />
</g><g transform="rotate(-90.000000 176252200.000000 78000000.000000)">
<text x="176252200.000000" y="78500000.000000"
transform="scale(-1 1) translate(-352504400.000000 0)"
textLength="6662143.000000" font-size="1333333.000000" lengthAdjust="spacingAndGlyphs"
text-anchor="middle" opacity="0">TestPoint</text>
</g>
<g class="stroked-text"><desc>TestPoint</desc>
<path d="M176799820 74666666
L176799820 75238095
" />
<path d="M175799820 74952380
L176799820 74952380
" />
<path d="M175847439 75952380
L175799820 75857142
L175799820 75666666
L175847439 75571428
L175942677 75523809
L176323629 75523809
L176418867 75571428
L176466486 75666666
L176466486 75857142
L176418867 75952380
L176323629 76000000
L176228391 76000000
L176133153 75523809
" />
<path d="M175847439 76380952
L175799820 76476190
L175799820 76666666
L175847439 76761904
L175942677 76809523
L175990296 76809523
L176085534 76761904
L176133153 76666666
L176133153 76523809
L176180772 76428571
L176276010 76380952
L176323629 76380952
L176418867 76428571
L176466486 76523809
L176466486 76666666
L176418867 76761904
" />
<path d="M176466486 77095238
L176466486 77476190
" />
<path d="M176799820 77238095
L175942677 77238095
L175847439 77285714
L175799820 77380952
L175799820 77476190
" />
<path d="M175799820 77809523
L176799820 77809523
L176799820 78190476
L176752200 78285714
L176704581 78333333
L176609343 78380952
L176466486 78380952
L176371248 78333333
L176323629 78285714
L176276010 78190476
L176276010 77809523
" />
<path d="M175799820 78952380
L175847439 78857142
L175895058 78809523
L175990296 78761904
L176276010 78761904
L176371248 78809523
L176418867 78857142
L176466486 78952380
L176466486 79095238
L176418867 79190476
L176371248 79238095
L176276010 79285714
L175990296 79285714
L175895058 79238095
L175847439 79190476
L175799820 79095238
L175799820 78952380
" />
<path d="M175799820 79714285
L176466486 79714285
" />
<path d="M176799820 79714285
L176752200 79666666
L176704581 79714285
L176752200 79761904
L176799820 79714285
L176704581 79714285
" />
<path d="M176466486 80190476
L175799820 80190476
" />
<path d="M176371248 80190476
L176418867 80238095
L176466486 80333333
L176466486 80476190
L176418867 80571428
L176323629 80619047
L175799820 80619047
" />
<path d="M176466486 80952380
L176466486 81333333
" />
<path d="M176799820 81095238
L175942677 81095238
L175847439 81142857
L175799820 81238095
L175799820 81333333
" />
</g><g transform="rotate(-90.000000 172852200.000000 78000000.000000)">
<text x="172852200.000000" y="78500000.000000"
transform="scale(-1 1) translate(-345704400.000000 0)"
textLength="3471667.000000" font-size="1333333.000000" lengthAdjust="spacingAndGlyphs"
text-anchor="middle" opacity="0">TP15</text>
</g>
<g class="stroked-text"><desc>TP15</desc>
<path d="M173399820 76261904
L173399820 76833333
" />
<path d="M172399820 76547619
L173399820 76547619
" />
<path d="M172399820 77166666
L173399820 77166666
L173399820 77547619
L173352200 77642857
L173304581 77690476
L173209343 77738095
L173066486 77738095
L172971248 77690476
L172923629 77642857
L172876010 77547619
L172876010 77166666
" />
<path d="M172399820 78690476
L172399820 78119047
" />
<path d="M172399820 78404761
L173399820 78404761
L173256962 78309523
L173161724 78214285
L173114105 78119047
" />
<path d="M173399820 79595238
L173399820 79119047
L172923629 79071428
L172971248 79119047
L173018867 79214285
L173018867 79452380
L172971248 79547619
L172923629 79595238
L172828391 79642857
L172590296 79642857
L172495058 79595238
L172447439 79547619
L172399820 79452380
L172399820 79214285
L172447439 79119047
L172495058 79071428
" />
</g><g >
</g>
<g >
</g>
<g >
</g>
<g >
</g>
<g >
</g>
<g >
</g>
<g >
</g>
<g >
</g>
<g >
</g>
<g >
</g>
<g >
</g>
<g >
</g>
<g >
</g>
<g >
</g>
<g >
</g>
<g >
</g>
<g >
</g>
<g >
</g>
<g >
</g>
<g >
</g>
<g >
</g>
<g >
</g>
<g >
</g>
<g >
</g>
<g >
</g>
<g >
</g>
<g >
</g>
<g >
</g>
<g >
</g>
<g >
</g>
<g >
</g>
<g >
</g>
<g >
</g>
<g >
</g>
<g >
</g>
<g >
</g>
<g >
</g>
<g >
</g>
<g >
</g>
<g >
</g>
<g >
</g>
<g >
</g>
<g >
</g>
<g >
</g>
<g >
</g>
<g >
</g>
<g >
</g>
<g >
</g>
<g >
</g>
<g >
</g>
<g >
</g>
<g >
</g>
<g >
</g>
<g >
</g>
<g >
</g>
<g >
</g>
<g >
</g>
<g >
</g>
<g >
</g>
<g >
</g>
<g >
</g>
<g >
</g>
<g >
</g>
<g >
</g>
<g >
</g>
<g >
</g>
<g >
</g>
<g >
</g>
<g >
</g>
<g >
</g>
<g >
</g>
<g >
</g>
<g >
</g>
<g >
</g>
<g >
</g>
<g >
</g>
<g >
</g>
<g >
</g>
<g >
</g>
<g >
</g>
</g> 
</svg>
