<?xml version='1.0' encoding='ASCII' standalone='yes'?>
<svg xmlns="http://www.w3.org/2000/svg" version="1.1" width="29.700220cm" height="21.000720cm" viewBox="0 0 297002200 210007200">
            <title>Picture generated by PcbDraw </title>
            <desc>Picture generated by PcbDraw</desc>
        <defs><clipPath id="cut-off"><path d=" M 130646448.0 83353553.0 L 130646448.0 72353553.0 A 499952 499952 0 0 1 131146446.991165 71853648.002208 L 133146447.0 71853552.0 A 500047 500047 0 0 0 133646446.997696 71353552.0 L 133646449.0 68853553.0 A 499952 499952 0 0 1 134146446.991165 68353648.002208 L 141146447.0 68353554.0 A 500045 500045 0 0 1 141646444.997791 68853553.0 L 141646448.0 71353553.0 A 499951 499951 0 0 0 142146448.0 71853550.997696 L 144146447.0 71853554.0 A 500046 500046 0 0 1 144646445.997791 72353553.0 L 144646446.0 83353553.0 A 500046 500046 0 0 1 144146447.008837 83853645.99779 L 142146447.0 83853554.0 A 499952 499952 0 0 0 141646448.002209 84353553.0 L 141646446.0 86853553.0 A 500046 500046 0 0 1 141146447.008837 87353645.99779 L 134146447.0 87353552.0 A 499952 499952 0 0 1 133646448.002209 86853553.0 L 133646446.0 84353553.0 A 500046 500046 0 0 0 133146447.0 83853554.002209 L 131146447.0 83853552.0 A 499952 499952 0 0 1 130646448.002209 83353553.0  M 118000000.0 65000000.0 L 130000000.0 65000000.0 A 2000000 2000000 0 0 0 132000000.0 63000000.0 L 132000000.0 55500000.0 L 143000000.0 55500000.0 L 143000000.0 63000000.0 A 2000000 2000000 0 0 0 145000000.0 65000000.0 L 157000000.0 65000000.0 A 3000000 3000000 0 0 1 160000000.0 68000000.0 L 160000000.0 116000000.0 A 3000000 3000000 0 0 1 157000000.0 119000000.0 L 118000000.0 119000000.0 A 3000000 3000000 0 0 1 115000000.0 116000000.0 L 115000000.0 68000000.0 A 3000000 3000000 0 0 1 118000000.0 65000000.0  M 141800000.0 116765000.0 L 133200000.0 116765000.0 L 133200000.0 99505000.0 L 141800000.0 99505000.0 L 141800000.0 116765000.0 " style="fill-rule: evenodd;"/></clipPath><mask id="pads-mask-silkscreen"><rect x="104484524" y="37175000" width="62780953" height="85742501" fill="white"/><g style="fill:#000000; fill-opacity:0.0;  stroke:#000000; stroke-width:0.000000; stroke-opacity:1;  stroke-linecap:round; stroke-linejoin:round;">
<g style="fill:#000000; fill-opacity:1.0;  stroke:#000000; stroke-width:1.000000; stroke-opacity:1;  stroke-linecap:round; stroke-linejoin:round;">
<circle cx="129000000.000000" cy="80500000.000000" r="850000.000000"/> 
</g>
<g style="fill:#000000; fill-opacity:1.0;  stroke:#000000; stroke-width:1.000000; stroke-opacity:1;  stroke-linecap:round; stroke-linejoin:round;">
<circle cx="129000000.000000" cy="78000000.000000" r="850000.000000"/> 
</g>
<g style="fill:#000000; fill-opacity:1.0;  stroke:#000000; stroke-width:1.000000; stroke-opacity:1;  stroke-linecap:round; stroke-linejoin:round;">
<circle cx="129000000.000000" cy="75500000.000000" r="850000.000000"/> 
</g>
<g style="fill:#000000; fill-opacity:0.0;  stroke:#000000; stroke-width:1700000.000000; stroke-opacity:1;  stroke-linecap:round; stroke-linejoin:round;">
<path d="M127500000 72800000 L126500000 72800000 "/>
<path d="M127500000 83200000 L126500000 83200000 "/>
</g>
<g style="fill:#000000; fill-opacity:1.0;  stroke:#000000; stroke-width:1.000000; stroke-opacity:1;  stroke-linecap:round; stroke-linejoin:round;">
<circle cx="134610000.000000" cy="60680000.000000" r="325000.000000"/> 
</g>
<g style="fill:#000000; fill-opacity:1.0;  stroke:#000000; stroke-width:1.000000; stroke-opacity:1;  stroke-linecap:round; stroke-linejoin:round;">
<circle cx="140390000.000000" cy="60680000.000000" r="325000.000000"/> 
</g>
<g style="fill:#000000; fill-opacity:0.0;  stroke:#000000; stroke-width:1050000.000000; stroke-opacity:1;  stroke-linecap:round; stroke-linejoin:round;">
<path d="M141820000 61705000 L141820000 60655000 "/>
</g>
<g style="fill:#000000; fill-opacity:0.0;  stroke:#000000; stroke-width:1000000.000000; stroke-opacity:1;  stroke-linecap:round; stroke-linejoin:round;">
<path d="M141820000 57500000 L141820000 56500000 "/>
<path d="M133180000 57500000 L133180000 56500000 "/>
</g>
<g style="fill:#000000; fill-opacity:0.0;  stroke:#000000; stroke-width:1050000.000000; stroke-opacity:1;  stroke-linecap:round; stroke-linejoin:round;">
<path d="M133180000 61705000 L133180000 60655000 "/>
</g>
<g style="fill:#000000; fill-opacity:1.0;  stroke:#000000; stroke-width:1.000000; stroke-opacity:1;  stroke-linecap:round; stroke-linejoin:round;">
<circle cx="149000000.000000" cy="74920000.000000" r="850000.000000"/> 
</g>
<g style="fill:#000000; fill-opacity:1.0;  stroke:#000000; stroke-width:1.000000; stroke-opacity:1;  stroke-linecap:round; stroke-linejoin:round;">
<circle cx="149000000.000000" cy="80000000.000000" r="850000.000000"/> 
</g>
<g style="fill:#000000; fill-opacity:1.0;  stroke:#000000; stroke-width:1.000000; stroke-opacity:1;  stroke-linecap:round; stroke-linejoin:round;">
<circle cx="149000000.000000" cy="85080000.000000" r="850000.000000"/> 
</g>
<g style="fill:#000000; fill-opacity:1.0;  stroke:#000000; stroke-width:1.000000; stroke-opacity:1;  stroke-linecap:round; stroke-linejoin:round;">
<path style="fill:#000000; fill-opacity:1.0;  stroke:#000000; stroke-width:1.000000; stroke-opacity:1;  stroke-linecap:round; stroke-linejoin:round;fill-rule:evenodd;" d="M 157075000.000000,101175000.000000 157075000.000000,99825000.000000 158425000.000000,99825000.000000 158425000.000000,101175000.000000 Z"/> 
<circle cx="157750000.000000" cy="102500000.000000" r="675000.000000"/> 
<circle cx="157750000.000000" cy="104500000.000000" r="675000.000000"/> 
<circle cx="157750000.000000" cy="106500000.000000" r="675000.000000"/> 
<circle cx="157750000.000000" cy="108500000.000000" r="675000.000000"/> 
<circle cx="157750000.000000" cy="110500000.000000" r="675000.000000"/> 
</g>
<g style="fill:#000000; fill-opacity:1.0;  stroke:#000000; stroke-width:1.000000; stroke-opacity:1;  stroke-linecap:round; stroke-linejoin:round;">
<path style="fill:#000000; fill-opacity:1.0;  stroke:#000000; stroke-width:1.000000; stroke-opacity:1;  stroke-linecap:round; stroke-linejoin:round;fill-rule:evenodd;" d="M 143550000.000000,113285000.000000 143550000.000000,114685000.000000 142150000.000000,114685000.000000 142150000.000000,113285000.000000 Z"/> 
<circle cx="142850000.000000" cy="112205000.000000" r="700000.000000"/> 
</g>
<g style="fill:#000000; fill-opacity:1.0;  stroke:#000000; stroke-width:1.000000; stroke-opacity:1;  stroke-linecap:round; stroke-linejoin:round;">
<circle cx="142850000.000000" cy="110425000.000000" r="700000.000000"/> 
</g>
<g style="fill:#000000; fill-opacity:1.0;  stroke:#000000; stroke-width:1.000000; stroke-opacity:1;  stroke-linecap:round; stroke-linejoin:round;">
<circle cx="142850000.000000" cy="108645000.000000" r="700000.000000"/> 
</g>
<g style="fill:#000000; fill-opacity:1.0;  stroke:#000000; stroke-width:1.000000; stroke-opacity:1;  stroke-linecap:round; stroke-linejoin:round;">
<circle cx="142850000.000000" cy="106865000.000000" r="700000.000000"/> 
</g>
<g style="fill:#000000; fill-opacity:1.0;  stroke:#000000; stroke-width:1.000000; stroke-opacity:1;  stroke-linecap:round; stroke-linejoin:round;">
<circle cx="142850000.000000" cy="105085000.000000" r="700000.000000"/> 
</g>
<g style="fill:#000000; fill-opacity:1.0;  stroke:#000000; stroke-width:1.000000; stroke-opacity:1;  stroke-linecap:round; stroke-linejoin:round;">
<circle cx="142850000.000000" cy="103305000.000000" r="700000.000000"/> 
</g>
<g style="fill:#000000; fill-opacity:1.0;  stroke:#000000; stroke-width:1.000000; stroke-opacity:1;  stroke-linecap:round; stroke-linejoin:round;">
<circle cx="142850000.000000" cy="101525000.000000" r="700000.000000"/> 
</g>
<g style="fill:#000000; fill-opacity:1.0;  stroke:#000000; stroke-width:1.000000; stroke-opacity:1;  stroke-linecap:round; stroke-linejoin:round;">
<circle cx="132150000.000000" cy="100635000.000000" r="700000.000000"/> 
</g>
<g style="fill:#000000; fill-opacity:1.0;  stroke:#000000; stroke-width:1.000000; stroke-opacity:1;  stroke-linecap:round; stroke-linejoin:round;">
<circle cx="132150000.000000" cy="102415000.000000" r="700000.000000"/> 
</g>
<g style="fill:#000000; fill-opacity:1.0;  stroke:#000000; stroke-width:1.000000; stroke-opacity:1;  stroke-linecap:round; stroke-linejoin:round;">
<circle cx="132150000.000000" cy="104195000.000000" r="700000.000000"/> 
</g>
<g style="fill:#000000; fill-opacity:1.0;  stroke:#000000; stroke-width:1.000000; stroke-opacity:1;  stroke-linecap:round; stroke-linejoin:round;">
<circle cx="132150000.000000" cy="105975000.000000" r="700000.000000"/> 
</g>
<g style="fill:#000000; fill-opacity:1.0;  stroke:#000000; stroke-width:1.000000; stroke-opacity:1;  stroke-linecap:round; stroke-linejoin:round;">
<circle cx="132150000.000000" cy="107755000.000000" r="700000.000000"/> 
</g>
<g style="fill:#000000; fill-opacity:1.0;  stroke:#000000; stroke-width:1.000000; stroke-opacity:1;  stroke-linecap:round; stroke-linejoin:round;">
<circle cx="132150000.000000" cy="109535000.000000" r="700000.000000"/> 
</g>
<g style="fill:#000000; fill-opacity:1.0;  stroke:#000000; stroke-width:1.000000; stroke-opacity:1;  stroke-linecap:round; stroke-linejoin:round;">
<circle cx="132150000.000000" cy="111315000.000000" r="700000.000000"/> 
</g>
<g style="fill:#000000; fill-opacity:1.0;  stroke:#000000; stroke-width:1.000000; stroke-opacity:1;  stroke-linecap:round; stroke-linejoin:round;">
<circle cx="132150000.000000" cy="113095000.000000" r="700000.000000"/> 
</g>
<g style="fill:#000000; fill-opacity:1.0;  stroke:#000000; stroke-width:1.000000; stroke-opacity:1;  stroke-linecap:round; stroke-linejoin:round;">
<circle cx="156000000.000000" cy="72920000.000000" r="850000.000000"/> 
</g>
<g style="fill:#000000; fill-opacity:1.0;  stroke:#000000; stroke-width:1.000000; stroke-opacity:1;  stroke-linecap:round; stroke-linejoin:round;">
<circle cx="156000000.000000" cy="78000000.000000" r="850000.000000"/> 
</g>
<g style="fill:#000000; fill-opacity:1.0;  stroke:#000000; stroke-width:1.000000; stroke-opacity:1;  stroke-linecap:round; stroke-linejoin:round;">
<circle cx="156000000.000000" cy="83080000.000000" r="850000.000000"/> 
</g>
<g style="fill:#000000; fill-opacity:1.0;  stroke:#000000; stroke-width:1.000000; stroke-opacity:1;  stroke-linecap:round; stroke-linejoin:round;">
<circle cx="119000000.000000" cy="72920000.000000" r="850000.000000"/> 
</g>
<g style="fill:#000000; fill-opacity:1.0;  stroke:#000000; stroke-width:1.000000; stroke-opacity:1;  stroke-linecap:round; stroke-linejoin:round;">
<circle cx="119000000.000000" cy="78000000.000000" r="850000.000000"/> 
</g>
<g style="fill:#000000; fill-opacity:1.0;  stroke:#000000; stroke-width:1.000000; stroke-opacity:1;  stroke-linecap:round; stroke-linejoin:round;">
<circle cx="119000000.000000" cy="83080000.000000" r="850000.000000"/> 
</g>
<g style="fill:#000000; fill-opacity:1.0;  stroke:#000000; stroke-width:1.000000; stroke-opacity:1;  stroke-linecap:round; stroke-linejoin:round;">
<circle cx="127000000.000000" cy="106000000.000000" r="750000.000000"/> 
</g>
<g style="fill:#000000; fill-opacity:1.0;  stroke:#000000; stroke-width:1.000000; stroke-opacity:1;  stroke-linecap:round; stroke-linejoin:round;">
<circle cx="156500000.000000" cy="80500000.000000" r="750000.000000"/> 
</g>
<g style="fill:#000000; fill-opacity:1.0;  stroke:#000000; stroke-width:1.000000; stroke-opacity:1;  stroke-linecap:round; stroke-linejoin:round;">
<circle cx="126000000.000000" cy="75250000.000000" r="750000.000000"/> 
</g>
<g style="fill:#000000; fill-opacity:1.0;  stroke:#000000; stroke-width:1.000000; stroke-opacity:1;  stroke-linecap:round; stroke-linejoin:round;">
<circle cx="156500000.000000" cy="85500000.000000" r="750000.000000"/> 
</g>
<g style="fill:#000000; fill-opacity:1.0;  stroke:#000000; stroke-width:1.000000; stroke-opacity:1;  stroke-linecap:round; stroke-linejoin:round;">
<circle cx="122500000.000000" cy="81000000.000000" r="750000.000000"/> 
</g>
<g style="fill:#000000; fill-opacity:1.0;  stroke:#000000; stroke-width:1.000000; stroke-opacity:1;  stroke-linecap:round; stroke-linejoin:round;">
<circle cx="127000000.000000" cy="100000000.000000" r="750000.000000"/> 
</g>
<g style="fill:#000000; fill-opacity:1.0;  stroke:#000000; stroke-width:1.000000; stroke-opacity:1;  stroke-linecap:round; stroke-linejoin:round;">
<circle cx="149000000.000000" cy="77500000.000000" r="750000.000000"/> 
</g>
<g style="fill:#000000; fill-opacity:1.0;  stroke:#000000; stroke-width:1.000000; stroke-opacity:1;  stroke-linecap:round; stroke-linejoin:round;">
<circle cx="149000000.000000" cy="82500000.000000" r="750000.000000"/> 
</g>
<g style="fill:#000000; fill-opacity:1.0;  stroke:#000000; stroke-width:1.000000; stroke-opacity:1;  stroke-linecap:round; stroke-linejoin:round;">
<circle cx="119000000.000000" cy="75500000.000000" r="750000.000000"/> 
</g>
<g style="fill:#000000; fill-opacity:1.0;  stroke:#000000; stroke-width:1.000000; stroke-opacity:1;  stroke-linecap:round; stroke-linejoin:round;">
<circle cx="122500000.000000" cy="75250000.000000" r="750000.000000"/> 
</g>
<g style="fill:#000000; fill-opacity:1.0;  stroke:#000000; stroke-width:1.000000; stroke-opacity:1;  stroke-linecap:round; stroke-linejoin:round;">
<circle cx="153000000.000000" cy="117250000.000000" r="750000.000000"/> 
</g>
<g style="fill:#000000; fill-opacity:1.0;  stroke:#000000; stroke-width:1.000000; stroke-opacity:1;  stroke-linecap:round; stroke-linejoin:round;">
<circle cx="152000000.000000" cy="111000000.000000" r="750000.000000"/> 
</g>
<g style="fill:#000000; fill-opacity:1.0;  stroke:#000000; stroke-width:1.000000; stroke-opacity:1;  stroke-linecap:round; stroke-linejoin:round;">
<circle cx="147750000.000000" cy="69250000.000000" r="750000.000000"/> 
</g>
<g style="fill:#000000; fill-opacity:1.0;  stroke:#000000; stroke-width:1.000000; stroke-opacity:1;  stroke-linecap:round; stroke-linejoin:round;">
<circle cx="146750000.000000" cy="117250000.000000" r="750000.000000"/> 
</g>
<g style="fill:#000000; fill-opacity:1.0;  stroke:#000000; stroke-width:1.000000; stroke-opacity:1;  stroke-linecap:round; stroke-linejoin:round;">
<circle cx="119000000.000000" cy="80500000.000000" r="750000.000000"/> 
</g>
<g style="fill:#000000; fill-opacity:1.0;  stroke:#000000; stroke-width:1.000000; stroke-opacity:1;  stroke-linecap:round; stroke-linejoin:round;">
<circle cx="149750000.000000" cy="117250000.000000" r="750000.000000"/> 
</g>
<g style="fill:#000000; fill-opacity:1.0;  stroke:#000000; stroke-width:1.000000; stroke-opacity:1;  stroke-linecap:round; stroke-linejoin:round;">
<circle cx="127000000.000000" cy="102500000.000000" r="750000.000000"/> 
</g>
<g style="fill:#000000; fill-opacity:1.0;  stroke:#000000; stroke-width:1.000000; stroke-opacity:1;  stroke-linecap:round; stroke-linejoin:round;">
<circle cx="122500000.000000" cy="78000000.000000" r="750000.000000"/> 
</g>
</g> 
</mask></defs><g transform="scale(-1,1) translate(-297002200,0)" id="boardContainer"><g clip-path="url(#cut-off)" mask="url(#pads-mask-silkscreen)"><g id="substrate-board" style="fill:#143324; fill-opacity:0.25098039215686274; stroke:#143324;"><path d=" M 130646448.0 83353553.0 L 130646448.0 72353553.0 A 499952 499952 0 0 1 131146446.991165 71853648.002208 L 133146447.0 71853552.0 A 500047 500047 0 0 0 133646446.997696 71353552.0 L 133646449.0 68853553.0 A 499952 499952 0 0 1 134146446.991165 68353648.002208 L 141146447.0 68353554.0 A 500045 500045 0 0 1 141646444.997791 68853553.0 L 141646448.0 71353553.0 A 499951 499951 0 0 0 142146448.0 71853550.997696 L 144146447.0 71853554.0 A 500046 500046 0 0 1 144646445.997791 72353553.0 L 144646446.0 83353553.0 A 500046 500046 0 0 1 144146447.008837 83853645.99779 L 142146447.0 83853554.0 A 499952 499952 0 0 0 141646448.002209 84353553.0 L 141646446.0 86853553.0 A 500046 500046 0 0 1 141146447.008837 87353645.99779 L 134146447.0 87353552.0 A 499952 499952 0 0 1 133646448.002209 86853553.0 L 133646446.0 84353553.0 A 500046 500046 0 0 0 133146447.0 83853554.002209 L 131146447.0 83853552.0 A 499952 499952 0 0 1 130646448.002209 83353553.0  M 118000000.0 65000000.0 L 130000000.0 65000000.0 A 2000000 2000000 0 0 0 132000000.0 63000000.0 L 132000000.0 55500000.0 L 143000000.0 55500000.0 L 143000000.0 63000000.0 A 2000000 2000000 0 0 0 145000000.0 65000000.0 L 157000000.0 65000000.0 A 3000000 3000000 0 0 1 160000000.0 68000000.0 L 160000000.0 116000000.0 A 3000000 3000000 0 0 1 157000000.0 119000000.0 L 118000000.0 119000000.0 A 3000000 3000000 0 0 1 115000000.0 116000000.0 L 115000000.0 68000000.0 A 3000000 3000000 0 0 1 118000000.0 65000000.0  M 141800000.0 116765000.0 L 133200000.0 116765000.0 L 133200000.0 99505000.0 L 141800000.0 99505000.0 L 141800000.0 116765000.0 " style="fill-rule: evenodd;"/><g style="fill-opacity: 0.0;stroke-width: 100000.000000;stroke-opacity: 1;stroke-linecap: round;stroke-linejoin: round">
<path d="M133146447.008931 71853646.997790 A500047.000000 500047.000000 0.0 0 0 133646446.997696 71353552.000000"/>
<path d="M144646446 83353553 L144646446 72353553 "/>
<path d="M142146447 83853554 L144146447 83853552 "/>
<path d="M133646448.002209 86853553.000000 A499952.000000 499952.000000 0.0 0 0 134146447.000000 87353551.997791"/>
<path d="M141646444.997791 68853553.000000 A500045.000000 500045.000000 0.0 0 0 141146447.000000 68353555.002209"/>
<path d="M132000000 55500000 L143000000 55500000 "/>
<path d="M141146447.008837 87353645.997790 A500046.000000 500046.000000 0.0 0 0 141646445.997791 86853553.000000"/>
<path d="M144646445.997791 72353553.000000 A500046.000000 500046.000000 0.0 0 0 144146447.000000 71853554.002209"/>
<path d="M157000000.000000 119000000.000000 A3000000.000000 3000000.000000 0.0 0 0 160000000.000000 116000000.000000"/>
<path d="M160000000 68000000 L160000000 116000000 "/>
<path d="M131146446.991165 71853648.002208 A499952.000000 499952.000000 0.0 0 0 130646448.002209 72353553.000000"/>
<path d="M130646448.002209 83353553.000000 A499952.000000 499952.000000 0.0 0 0 131146447.000000 83853551.997791"/>
<path d="M134146446.991165 68353648.002208 A499952.000000 499952.000000 0.0 0 0 133646448.002209 68853553.000000"/>
<path d="M132000000 55500000 L132000000 63000000 "/>
<path d="M141646445 68853553 L141646448 71353553 "/>
<path d="M141646449.002209 71353553.000094 A499951.000000 499951.000000 0.0 0 0 142146448.000000 71853550.997696"/>
<path d="M142146447 71853552 L144146447 71853554 "/>
<path d="M143000000.000000 63000000.000000 A2000000.000000 2000000.000000 0.0 0 0 145000000.000000 65000000.000000"/>
<path d="M133646445.997791 84353553.000000 A500046.000000 500046.000000 0.0 0 0 133146447.000000 83853554.002209"/>
<path d="M145000000 65000000 L157000000 65000000 "/>
<path d="M160000000.000000 68000000.000000 A3000000.000000 3000000.000000 0.0 0 0 157000000.000000 65000000.000000"/>
<path d="M144146447.008837 83853645.997790 A500046.000000 500046.000000 0.0 0 0 144646445.997791 83353553.000000"/>
<path d="M141146447 68353554 L134146447 68353554 "/>
<path d="M141646448 84353553 L141646446 86853553 "/>
<path d="M118000000 119000000 L157000000 119000000 "/>
<path d="M142146446.991165 83853648.002208 A499952.000000 499952.000000 0.0 0 0 141646448.002209 84353553.000000"/>
<path d="M118000000.000000 65000000.000000 A3000000.000000 3000000.000000 0.0 0 0 115000000.000000 68000000.000000"/>
<path d="M133146447 71853552 L131146447 71853554 "/>
<path d="M133646446 71353553 L133646449 68853553 "/>
<path d="M133146447 83853554 L131146447 83853552 "/>
<path d="M133646448 86853553 L133646446 84353553 "/>
<path d="M134146447 87353552 L141146447 87353552 "/>
<path d="M115000000 116000000 L115000000 68000000 "/>
<path d="M143000000 63000000 L143000000 55500000 "/>
<path d="M130000000.000000 65000000.000000 A2000000.000000 2000000.000000 0.0 0 0 132000000.000000 63000000.000000"/>
<path d="M115000000.000000 116000000.000000 A3000000.000000 3000000.000000 0.0 0 0 118000000.000000 119000000.000000"/>
<path d="M130646448 83353553 L130646448 72353553 "/>
<path d="M118000000 65000000 L130000000 65000000 "/>
</g>
<g style="fill-opacity: 0.0;stroke-width: 50000.000000;stroke-opacity: 1;stroke-linecap: round;stroke-linejoin: round">
<path d="M133200000 116765000 L133200000 99505000 "/>
<path d="M141800000 99505000 L141800000 116765000 "/>
<path d="M141800000 99505000 L133200000 99505000 "/>
<path d="M141800000 116765000 L133200000 116765000 "/>
</g> 
</g></g></g></svg>
