<?xml version="1.0" standalone="no"?>
 <!DOCTYPE svg PUBLIC "-//W3C//DTD SVG 1.1//EN" 
 "http://www.w3.org/Graphics/SVG/1.1/DTD/svg11.dtd"> 
<svg
  xmlns:svg="http://www.w3.org/2000/svg"
  xmlns="http://www.w3.org/2000/svg"
  xmlns:xlink="http://www.w3.org/1999/xlink"
  version="1.1"
  width="29.700220cm" height="21.000720cm" viewBox="0 0 297002200 210007200">
<title>SVG Picture created as redshift-Edge_Cuts.svg date 2022/10/07 12:23:53 </title>
  <desc>Picture generated by PCBNEW </desc>
<g style="fill:#000000; fill-opacity:1.000000;stroke:#000000; stroke-opacity:1.000000;
stroke-linecap:round; stroke-linejoin:round;"
 transform="translate(0 0) scale(1 1)">
</g>
<g style="fill:#000000; fill-opacity:0.0; 
stroke:#000000; stroke-width:0.000000; stroke-opacity:1; 
stroke-linecap:round; stroke-linejoin:round;">
</g>
<g style="fill:#000000; fill-opacity:0.0; 
stroke:#000000; stroke-width:100000.000000; stroke-opacity:1; 
stroke-linecap:round; stroke-linejoin:round;">
<path d="M163355753.002304 71353552.000000 A500047.000000 500047.000000 0.0 0 0 163855752.991069 71853646.997790" />
<path d="M152355754 83353553
L152355754 72353553
" />
<path d="M154855753 83853554
L152855753 83853552
" />
<path d="M162855753.000000 87353551.997791 A499952.000000 499952.000000 0.0 0 0 163355751.997791 86853553.000000" />
<path d="M155855753.000000 68353555.002209 A500045.000000 500045.000000 0.0 0 0 155355755.002209 68853553.000000" />
<path d="M165002200 55500000
L154002200 55500000
" />
<path d="M155355754.002209 86853553.000000 A500046.000000 500046.000000 0.0 0 0 155855752.991163 87353645.997790" />
<path d="M152855753.000000 71853554.002209 A500046.000000 500046.000000 0.0 0 0 152355754.002209 72353553.000000" />
<path d="M137002200.000000 116000000.000000 A3000000.000000 3000000.000000 0.0 0 0 140002200.000000 119000000.000000" />
<path d="M137002200 68000000
L137002200 116000000
" />
<path d="M166355751.997791 72353553.000000 A499952.000000 499952.000000 0.0 0 0 165855753.008835 71853648.002208" />
<path d="M165855753.000000 83853551.997791 A499952.000000 499952.000000 0.0 0 0 166355751.997791 83353553.000000" />
<path d="M163355751.997791 68853553.000000 A499952.000000 499952.000000 0.0 0 0 162855753.008835 68353648.002208" />
<path d="M165002200 55500000
L165002200 63000000
" />
<path d="M155355755 68853553
L155355752 71353553
" />
<path d="M154855752.000000 71853550.997696 A499951.000000 499951.000000 0.0 0 0 155355750.997791 71353553.000094" />
<path d="M154855753 71853552
L152855753 71853554
" />
<path d="M152002200.000000 65000000.000000 A2000000.000000 2000000.000000 0.0 0 0 154002200.000000 63000000.000000" />
<path d="M163855753.000000 83853554.002209 A500046.000000 500046.000000 0.0 0 0 163355754.002209 84353553.000000" />
<path d="M152002200 65000000
L140002200 65000000
" />
<path d="M140002200.000000 65000000.000000 A3000000.000000 3000000.000000 0.0 0 0 137002200.000000 68000000.000000" />
<path d="M152355754.002209 83353553.000000 A500046.000000 500046.000000 0.0 0 0 152855752.991163 83853645.997790" />
<path d="M155855753 68353554
L162855753 68353554
" />
<path d="M155355752 84353553
L155355754 86853553
" />
<path d="M179002200 119000000
L140002200 119000000
" />
<path d="M155355751.997791 84353553.000000 A499952.000000 499952.000000 0.0 0 0 154855753.008835 83853648.002208" />
<path d="M182002200.000000 68000000.000000 A3000000.000000 3000000.000000 0.0 0 0 179002200.000000 65000000.000000" />
<path d="M163855753 71853552
L165855753 71853554
" />
<path d="M163355754 71353553
L163355751 68853553
" />
<path d="M163855753 83853554
L165855753 83853552
" />
<path d="M163355752 86853553
L163355754 84353553
" />
<path d="M162855753 87353552
L155855753 87353552
" />
<path d="M182002200 116000000
L182002200 68000000
" />
<path d="M154002200 63000000
L154002200 55500000
" />
<path d="M165002200.000000 63000000.000000 A2000000.000000 2000000.000000 0.0 0 0 167002200.000000 65000000.000000" />
<path d="M179002200.000000 119000000.000000 A3000000.000000 3000000.000000 0.0 0 0 182002200.000000 116000000.000000" />
<path d="M166355752 83353553
L166355752 72353553
" />
<path d="M179002200 65000000
L167002200 65000000
" />
</g>
<g style="fill:#000000; fill-opacity:0.0; 
stroke:#000000; stroke-width:50000.000000; stroke-opacity:1; 
stroke-linecap:round; stroke-linejoin:round;">
<path d="M163802200 116765000
L163802200 99505000
" />
<path d="M155202200 99505000
L155202200 116765000
" />
<path d="M155202200 99505000
L163802200 99505000
" />
<path d="M155202200 116765000
L163802200 116765000
" />
<g >
</g>
<g >
</g>
<g >
</g>
<g >
</g>
<g >
</g>
<g >
</g>
<g >
</g>
<g >
</g>
<g >
</g>
<g >
</g>
<g >
</g>
<g >
</g>
<g >
</g>
<g >
</g>
<g >
</g>
<g >
</g>
<g >
</g>
<g >
</g>
<g >
</g>
<g >
</g>
<g >
</g>
<g >
</g>
<g >
</g>
<g >
</g>
<g >
</g>
<g >
</g>
<g >
</g>
<g >
</g>
<g >
</g>
<g >
</g>
<g >
</g>
<g >
</g>
<g >
</g>
<g >
</g>
<g >
</g>
<g >
</g>
<g >
</g>
<g >
</g>
<g >
</g>
<g >
</g>
<g >
</g>
<g >
</g>
<g >
</g>
<g >
</g>
<g >
</g>
<g >
</g>
<g >
</g>
<g >
</g>
<g >
</g>
<g >
</g>
<g >
</g>
<g >
</g>
<g >
</g>
<g >
</g>
<g >
</g>
<g >
</g>
<g >
</g>
<g >
</g>
<g >
</g>
<g >
</g>
<g >
</g>
<g >
</g>
<g >
</g>
<g >
</g>
<g >
</g>
<g >
</g>
<g >
</g>
<g >
</g>
<g >
</g>
<g >
</g>
<g >
</g>
<g >
</g>
<g >
</g>
<g >
</g>
<g >
</g>
<g >
</g>
<g >
</g>
<g >
</g>
<g >
</g>
<g >
</g>
</g> 
</svg>
