<?xml version="1.0" standalone="no"?>
 <!DOCTYPE svg PUBLIC "-//W3C//DTD SVG 1.1//EN" 
 "http://www.w3.org/Graphics/SVG/1.1/DTD/svg11.dtd"> 
<svg
  xmlns:svg="http://www.w3.org/2000/svg"
  xmlns="http://www.w3.org/2000/svg"
  xmlns:xlink="http://www.w3.org/1999/xlink"
  version="1.1"
  width="29.700220cm" height="21.000720cm" viewBox="0 0 297002200 210007200">
<title>SVG Picture created as redshift-B_Silkscreen.svg date 2022/10/07 10:39:34 </title>
  <desc>Picture generated by PCBNEW </desc>
<g style="fill:#000000; fill-opacity:1.000000;stroke:#000000; stroke-opacity:1.000000;
stroke-linecap:round; stroke-linejoin:round;"
 transform="translate(0 0) scale(1 1)">
</g>
<g style="fill:#000000; fill-opacity:0.0; 
stroke:#000000; stroke-width:0.000000; stroke-opacity:1; 
stroke-linecap:round; stroke-linejoin:round;">
</g>
<g style="fill:#000000; fill-opacity:0.0; 
stroke:#000000; stroke-width:69999.000000; stroke-opacity:1; 
stroke-linecap:round; stroke-linejoin:round;">
</g>
<g style="fill:#000000; fill-opacity:1.0; 
stroke:#000000; stroke-width:69999.000000; stroke-opacity:1; 
stroke-linecap:round; stroke-linejoin:round;">
<path style="fill:#000000; fill-opacity:1.0; 
stroke:#000000; stroke-width:69999.000000; stroke-opacity:1; 
stroke-linecap:round; stroke-linejoin:round;fill-rule:evenodd;"
d="M 178581650.000000,108177582.000000
178580239.000000,108177687.000000
178578834.000000,108177859.000000
178577438.000000,108178097.000000
178576053.000000,108178400.000000
178574681.000000,108178765.000000
178573323.000000,108179190.000000
178571983.000000,108179675.000000
178569362.000000,108180814.000000
178566836.000000,108182169.000000
178564421.000000,108183725.000000
178562134.000000,108185470.000000
178559993.000000,108187388.000000
178558014.000000,108189467.000000
178556214.000000,108191692.000000
178555387.000000,108192855.000000
178554612.000000,108194050.000000
178553890.000000,108195274.000000
178553223.000000,108196526.000000
178552614.000000,108197805.000000
178552065.000000,108199108.000000
178551578.000000,108200434.000000
178551155.000000,108201782.000000
178550798.000000,108203148.000000
178550510.000000,108204533.000000
178440036.000000,108798502.000000
178439749.000000,108799897.000000
178439397.000000,108801296.000000
178438507.000000,108804098.000000
178437382.000000,108806888.000000
178436038.000000,108809649.000000
178434491.000000,108812362.000000
178432758.000000,108815008.000000
178430855.000000,108817570.000000
178428798.000000,108820030.000000
178426605.000000,108822368.000000
178424290.000000,108824567.000000
178421871.000000,108826608.000000
178419364.000000,108828473.000000
178416785.000000,108830143.000000
178414151.000000,108831602.000000
178411478.000000,108832829.000000
178410132.000000,108833350.000000
178408782.000000,108833807.000000
177945544.000000,109019232.000000
177942909.000000,109020379.000000
177940118.000000,109021336.000000
177937196.000000,109022104.000000
177934166.000000,109022684.000000
177931053.000000,109023079.000000
177927881.000000,109023290.000000
177924674.000000,109023320.000000
177921456.000000,109023169.000000
177918251.000000,109022840.000000
177915085.000000,109022334.000000
177911980.000000,109021653.000000
177908961.000000,109020799.000000
177906052.000000,109019774.000000
177903278.000000,109018579.000000
177900662.000000,109017216.000000
177898229.000000,109015687.000000
177406559.000000,108678333.000000
177405373.000000,108677564.000000
177404152.000000,108676856.000000
177402899.000000,108676207.000000
177401615.000000,108675617.000000
177400304.000000,108675087.000000
177398968.000000,108674616.000000
177396234.000000,108673849.000000
177393434.000000,108673315.000000
177390589.000000,108673012.000000
177387722.000000,108672938.000000
177384853.000000,108673091.000000
177382004.000000,108673469.000000
177379198.000000,108674069.000000
177376455.000000,108674890.000000
177373798.000000,108675931.000000
177371247.000000,108677188.000000
177370019.000000,108677897.000000
177368825.000000,108678660.000000
177367669.000000,108679475.000000
177366553.000000,108680344.000000
177365480.000000,108681266.000000
177364453.000000,108682240.000000
176921327.000000,109125438.000000
176920357.000000,109126462.000000
176919438.000000,109127531.000000
176918572.000000,109128644.000000
176917759.000000,109129798.000000
176916999.000000,109130989.000000
176916292.000000,109132215.000000
176915639.000000,109133474.000000
176915039.000000,109134762.000000
176914493.000000,109136077.000000
176914002.000000,109137416.000000
176913183.000000,109140157.000000
176912583.000000,109142962.000000
176912206.000000,109145810.000000
176912053.000000,109148679.000000
176912126.000000,109151548.000000
176912427.000000,109154395.000000
176912663.000000,109155803.000000
176912957.000000,109157198.000000
176913310.000000,109158577.000000
176913720.000000,109159936.000000
176914189.000000,109161274.000000
176914717.000000,109162588.000000
176915304.000000,109163874.000000
176915950.000000,109165131.000000
176916655.000000,109166355.000000
176917420.000000,109167544.000000
177248915.000000,109650460.000000
177250420.000000,109652888.000000
177251740.000000,109655489.000000
177252876.000000,109658240.000000
177253825.000000,109661117.000000
177254588.000000,109664095.000000
177255164.000000,109667151.000000
177255553.000000,109670262.000000
177255753.000000,109673402.000000
177255764.000000,109676550.000000
177255586.000000,109679680.000000
177255218.000000,109682768.000000
177254659.000000,109685792.000000
177253909.000000,109688727.000000
177252968.000000,109691550.000000
177251833.000000,109694236.000000
177250506.000000,109696762.000000
177136777.000000,109909751.000000
177136168.000000,109911022.000000
177135633.000000,109912303.000000
177135172.000000,109913593.000000
177134782.000000,109914890.000000
177134464.000000,109916191.000000
177134217.000000,109917495.000000
177134039.000000,109918798.000000
177133930.000000,109920098.000000
177133888.000000,109921394.000000
177133914.000000,109922684.000000
177134007.000000,109923964.000000
177134164.000000,109925232.000000
177134386.000000,109926487.000000
177134672.000000,109927727.000000
177135020.000000,109928948.000000
177135431.000000,109930149.000000
177135903.000000,109931327.000000
177136434.000000,109932480.000000
177137026.000000,109933607.000000
177137675.000000,109934704.000000
177138383.000000,109935769.000000
177139147.000000,109936801.000000
177139967.000000,109937797.000000
177140843.000000,109938754.000000
177141772.000000,109939671.000000
177142755.000000,109940546.000000
177143791.000000,109941375.000000
177144878.000000,109942157.000000
177146016.000000,109942889.000000
177147204.000000,109943570.000000
177148441.000000,109944197.000000
177149726.000000,109944767.000000
178210840.000000,110383986.000000
178212160.000000,110384497.000000
178213501.000000,110384941.000000
178214859.000000,110385317.000000
178216233.000000,110385628.000000
178217619.000000,110385874.000000
178219015.000000,110386055.000000
178221828.000000,110386229.000000
178224651.000000,110386156.000000
178227464.000000,110385843.000000
178230246.000000,110385297.000000
178232978.000000,110384526.000000
178235638.000000,110383535.000000
178238207.000000,110382332.000000
178240663.000000,110380923.000000
178242988.000000,110379315.000000
178245160.000000,110377516.000000
178246183.000000,110376547.000000
178247160.000000,110375532.000000
178248088.000000,110374473.000000
178248966.000000,110373370.000000
178249790.000000,110372224.000000
178250559.000000,110371036.000000
178283187.000000,110317789.000000
178285631.000000,110313941.000000
178288421.000000,110309838.000000
178291496.000000,110305555.000000
178294795.000000,110301168.000000
178298258.000000,110296751.000000
178301823.000000,110292379.000000
178305429.000000,110288129.000000
178309015.000000,110284075.000000
178333167.000000,110248794.000000
178359390.000000,110215121.000000
178387591.000000,110183147.000000
178417680.000000,110152966.000000
178449565.000000,110124669.000000
178483155.000000,110098349.000000
178518360.000000,110074098.000000
178555087.000000,110052008.000000
178593246.000000,110032171.000000
178612834.000000,110023126.000000
178632745.000000,110014680.000000
178652969.000000,110006843.000000
178673494.000000,109999626.000000
178694308.000000,109993043.000000
178715401.000000,109987103.000000
178736760.000000,109981819.000000
178758374.000000,109977202.000000
178780232.000000,109973264.000000
178802323.000000,109970016.000000
178824635.000000,109967470.000000
178847157.000000,109965637.000000
178869876.000000,109964528.000000
178892783.000000,109964156.000000
178928451.000000,109965058.000000
178963651.000000,109967736.000000
178998339.000000,109972144.000000
179032472.000000,109978241.000000
179066006.000000,109985982.000000
179098898.000000,109995324.000000
179131105.000000,110006224.000000
179162581.000000,110018636.000000
179193285.000000,110032519.000000
179223173.000000,110047829.000000
179252200.000000,110064521.000000
179280324.000000,110082552.000000
179307500.000000,110101880.000000
179333686.000000,110122459.000000
179358837.000000,110144247.000000
179382910.000000,110167200.000000
179405862.000000,110191274.000000
179427649.000000,110216426.000000
179448227.000000,110242612.000000
179467554.000000,110269789.000000
179485584.000000,110297913.000000
179502275.000000,110326940.000000
179517583.000000,110356827.000000
179531465.000000,110387530.000000
179543877.000000,110419006.000000
179554775.000000,110451212.000000
179564116.000000,110484102.000000
179571856.000000,110517635.000000
179577953.000000,110551766.000000
179582361.000000,110586452.000000
179585038.000000,110621648.000000
179585940.000000,110657313.000000
179585038.000000,110692977.000000
179582361.000000,110728173.000000
179577953.000000,110762856.000000
179571856.000000,110796985.000000
179564116.000000,110830514.000000
179554775.000000,110863401.000000
179543877.000000,110895602.000000
179531465.000000,110927073.000000
179517583.000000,110957771.000000
179502275.000000,110987653.000000
179485584.000000,111016674.000000
179467554.000000,111044791.000000
179448227.000000,111071962.000000
179427649.000000,111098141.000000
179405862.000000,111123287.000000
179382910.000000,111147354.000000
179358837.000000,111170300.000000
179333686.000000,111192081.000000
179307500.000000,111212654.000000
179280324.000000,111231975.000000
179252200.000000,111250000.000000
179223173.000000,111266686.000000
179193285.000000,111281990.000000
179162581.000000,111295868.000000
179131105.000000,111308275.000000
179098898.000000,111319170.000000
179066006.000000,111328508.000000
179032472.000000,111336246.000000
178998339.000000,111342340.000000
178963651.000000,111346747.000000
178928451.000000,111349423.000000
178892783.000000,111350325.000000
178847157.000000,111348846.000000
178802323.000000,111344470.000000
178758374.000000,111337289.000000
178715401.000000,111327395.000000
178673494.000000,111314879.000000
178632745.000000,111299834.000000
178593246.000000,111282352.000000
178555087.000000,111262524.000000
178518360.000000,111240442.000000
178483155.000000,111216198.000000
178449565.000000,111189884.000000
178417680.000000,111161592.000000
178387591.000000,111131413.000000
178359390.000000,111099440.000000
178333167.000000,111065765.000000
178309015.000000,111030479.000000
178305429.000000,111026447.000000
178301823.000000,111022211.000000
178298258.000000,111017849.000000
178294795.000000,111013436.000000
178291496.000000,111009051.000000
178288421.000000,111004772.000000
178285631.000000,111000675.000000
178283187.000000,110996838.000000
178250559.000000,110943518.000000
178249790.000000,110942337.000000
178248966.000000,110941198.000000
178248088.000000,110940101.000000
178247160.000000,110939048.000000
178246183.000000,110938039.000000
178245160.000000,110937075.000000
178244095.000000,110936157.000000
178242988.000000,110935286.000000
178241844.000000,110934463.000000
178240663.000000,110933688.000000
178239450.000000,110932962.000000
178238207.000000,110932287.000000
178236935.000000,110931663.000000
178235638.000000,110931091.000000
178234318.000000,110930571.000000
178232978.000000,110930106.000000
178231620.000000,110929694.000000
178230246.000000,110929338.000000
178228860.000000,110929038.000000
178227464.000000,110928796.000000
178226060.000000,110928611.000000
178224651.000000,110928485.000000
178223240.000000,110928418.000000
178221828.000000,110928412.000000
178220419.000000,110928467.000000
178219015.000000,110928584.000000
178217619.000000,110928764.000000
178216233.000000,110929008.000000
178214859.000000,110929317.000000
178213501.000000,110929691.000000
178212160.000000,110930132.000000
178210840.000000,110930640.000000
177149654.000000,111369786.000000
177148369.000000,111370357.000000
177147133.000000,111370983.000000
177145947.000000,111371664.000000
177144810.000000,111372396.000000
177143726.000000,111373177.000000
177142693.000000,111374005.000000
177141713.000000,111374878.000000
177140787.000000,111375794.000000
177139915.000000,111376750.000000
177139099.000000,111377745.000000
177138339.000000,111378776.000000
177137636.000000,111379840.000000
177136990.000000,111380936.000000
177136404.000000,111382061.000000
177135876.000000,111383214.000000
177135409.000000,111384391.000000
177135002.000000,111385591.000000
177134658.000000,111386812.000000
177134376.000000,111388050.000000
177134157.000000,111389305.000000
177134003.000000,111390573.000000
177133914.000000,111391854.000000
177133891.000000,111393143.000000
177133934.000000,111394440.000000
177134045.000000,111395741.000000
177134224.000000,111397045.000000
177134472.000000,111398350.000000
177134790.000000,111399653.000000
177135178.000000,111400952.000000
177135638.000000,111402244.000000
177136171.000000,111403528.000000
177136777.000000,111404802.000000
177250506.000000,111617792.000000
177251834.000000,111620324.000000
177252969.000000,111623015.000000
177253912.000000,111625840.000000
177254664.000000,111628777.000000
177255225.000000,111631802.000000
177255596.000000,111634890.000000
177255776.000000,111638019.000000
177255767.000000,111641165.000000
177255568.000000,111644304.000000
177255181.000000,111647412.000000
177254605.000000,111650466.000000
177253841.000000,111653442.000000
177252890.000000,111656316.000000
177251751.000000,111659066.000000
177250426.000000,111661666.000000
177248915.000000,111664094.000000
176917420.000000,112147083.000000
176916655.000000,112148268.000000
176915950.000000,112149489.000000
176915304.000000,112150743.000000
176914717.000000,112152026.000000
176914189.000000,112153337.000000
176913720.000000,112154672.000000
176912957.000000,112157406.000000
176912427.000000,112160205.000000
176912126.000000,112163049.000000
176912053.000000,112165914.000000
176912206.000000,112168780.000000
176912583.000000,112171625.000000
176913183.000000,112174426.000000
176914002.000000,112177163.000000
176915039.000000,112179814.000000
176916292.000000,112182356.000000
176916999.000000,112183580.000000
176917759.000000,112184768.000000
176918572.000000,112185919.000000
176919438.000000,112187029.000000
176920357.000000,112188096.000000
176921327.000000,112189116.000000
177364453.000000,112632386.000000
177365480.000000,112633364.000000
177366553.000000,112634288.000000
177367669.000000,112635158.000000
177368825.000000,112635976.000000
177370019.000000,112636739.000000
177371247.000000,112637449.000000
177372508.000000,112638104.000000
177373798.000000,112638705.000000
177375114.000000,112639251.000000
177376455.000000,112639743.000000
177379198.000000,112640560.000000
177382004.000000,112641155.000000
177384853.000000,112641527.000000
177387722.000000,112641672.000000
177390589.000000,112641590.000000
177393434.000000,112641279.000000
177394841.000000,112641037.000000
177396234.000000,112640737.000000
177397611.000000,112640378.000000
177398968.000000,112639961.000000
177400304.000000,112639486.000000
177401615.000000,112638951.000000
177402899.000000,112638358.000000
177404152.000000,112637705.000000
177405373.000000,112636993.000000
177406559.000000,112636220.000000
177898229.000000,112298794.000000
177900662.000000,112297278.000000
177903278.000000,112295927.000000
177906052.000000,112294742.000000
177908961.000000,112293725.000000
177911980.000000,112292878.000000
177915085.000000,112292203.000000
177918251.000000,112291702.000000
177921456.000000,112291377.000000
177924674.000000,112291229.000000
177927881.000000,112291260.000000
177931053.000000,112291473.000000
177934166.000000,112291869.000000
177937196.000000,112292450.000000
177940118.000000,112293218.000000
177942909.000000,112294174.000000
177945544.000000,112295322.000000
178408709.000000,112480747.000000
178410059.000000,112481207.000000
178411405.000000,112481730.000000
178414079.000000,112482958.000000
178416713.000000,112484414.000000
178419292.000000,112486080.000000
178421799.000000,112487938.000000
178424218.000000,112489971.000000
178426532.000000,112492160.000000
178428726.000000,112494488.000000
178430782.000000,112496937.000000
178432685.000000,112499489.000000
178434419.000000,112502127.000000
178435965.000000,112504833.000000
178437310.000000,112507589.000000
178438435.000000,112510377.000000
178438910.000000,112511778.000000
178439325.000000,112513180.000000
178439677.000000,112514581.000000
178439963.000000,112515980.000000
178550510.000000,113109949.000000
178550798.000000,113111330.000000
178551154.000000,113112694.000000
178551576.000000,113114040.000000
178552062.000000,113115365.000000
178552609.000000,113116669.000000
178553216.000000,113117948.000000
178553881.000000,113119201.000000
178554601.000000,113120427.000000
178555374.000000,113121624.000000
178556198.000000,113122790.000000
178557071.000000,113123923.000000
178557991.000000,113125021.000000
178558956.000000,113126083.000000
178559963.000000,113127107.000000
178561011.000000,113128092.000000
178562098.000000,113129034.000000
178563221.000000,113129933.000000
178564378.000000,113130787.000000
178565567.000000,113131594.000000
178566787.000000,113132352.000000
178568034.000000,113133060.000000
178569307.000000,113133715.000000
178570604.000000,113134317.000000
178571922.000000,113134863.000000
178573260.000000,113135351.000000
178574615.000000,113135779.000000
178575986.000000,113136147.000000
178577369.000000,113136452.000000
178578764.000000,113136692.000000
178580168.000000,113136866.000000
178581578.000000,113136971.000000
178582993.000000,113137007.000000
179209735.000000,113137079.000000
179211154.000000,113137047.000000
179212567.000000,113136946.000000
179213972.000000,113136776.000000
179215369.000000,113136541.000000
179216753.000000,113136241.000000
179218124.000000,113135879.000000
179219480.000000,113135455.000000
179220818.000000,113134973.000000
179222136.000000,113134433.000000
179223433.000000,113133838.000000
179225952.000000,113132487.000000
179228360.000000,113130934.000000
179230639.000000,113129193.000000
179232774.000000,113127278.000000
179234748.000000,113125202.000000
179236545.000000,113122981.000000
179238148.000000,113120627.000000
179238871.000000,113119405.000000
179239540.000000,113118155.000000
179240152.000000,113116879.000000
179240706.000000,113115578.000000
179241199.000000,113114255.000000
179241628.000000,113112910.000000
179241994.000000,113111547.000000
179242292.000000,113110166.000000
179355514.000000,112501221.000000
179356164.000000,112498429.000000
179357059.000000,112495621.000000
179358185.000000,112492816.000000
179359525.000000,112490032.000000
179361064.000000,112487289.000000
179362786.000000,112484605.000000
179364674.000000,112481999.000000
179366713.000000,112479489.000000
179368887.000000,112477094.000000
179371180.000000,112474833.000000
179373577.000000,112472725.000000
179376061.000000,112470787.000000
179378616.000000,112469039.000000
179381227.000000,112467499.000000
179383877.000000,112466187.000000
179386552.000000,112465120.000000
179822008.000000,112278465.000000
179824615.000000,112277256.000000
179827379.000000,112276240.000000
179830275.000000,112275416.000000
179833279.000000,112274782.000000
179836368.000000,112274336.000000
179839518.000000,112274077.000000
179842705.000000,112274003.000000
179845904.000000,112274114.000000
179849093.000000,112274406.000000
179852247.000000,112274879.000000
179855343.000000,112275532.000000
179858356.000000,112276362.000000
179861263.000000,112277369.000000
179864039.000000,112278550.000000
179866662.000000,112279905.000000
179869106.000000,112281431.000000
180386242.000000,112636220.000000
180387428.000000,112636986.000000
180388648.000000,112637693.000000
180389900.000000,112638341.000000
180391183.000000,112638930.000000
180392492.000000,112639461.000000
180393826.000000,112639934.000000
180396555.000000,112640706.000000
180399350.000000,112641246.000000
180402189.000000,112641558.000000
180405050.000000,112641642.000000
180407912.000000,112641499.000000
180410754.000000,112641131.000000
180413554.000000,112640541.000000
180416290.000000,112639728.000000
180418942.000000,112638695.000000
180421488.000000,112637442.000000
180422715.000000,112636735.000000
180423907.000000,112635973.000000
180425062.000000,112635157.000000
180426177.000000,112634287.000000
180427249.000000,112633363.000000
180428276.000000,112632386.000000
180871401.000000,112189188.000000
180872379.000000,112188161.000000
180873303.000000,112187089.000000
180874175.000000,112185974.000000
180874994.000000,112184819.000000
180875759.000000,112183627.000000
180876470.000000,112182401.000000
180877128.000000,112181142.000000
180877731.000000,112179855.000000
180878280.000000,112178541.000000
180878775.000000,112177203.000000
180879598.000000,112174466.000000
180880200.000000,112171666.000000
180880578.000000,112168825.000000
180880730.000000,112165963.000000
180880655.000000,112163102.000000
180880350.000000,112160263.000000
180880111.000000,112158859.000000
180879813.000000,112157468.000000
180879457.000000,112156094.000000
180879042.000000,112154739.000000
180878569.000000,112153405.000000
180878036.000000,112152096.000000
180877444.000000,112150813.000000
180876792.000000,112149561.000000
180876080.000000,112148340.000000
180875308.000000,112147155.000000
180514224.000000,111620975.000000
180512703.000000,111618541.000000
180511348.000000,111615923.000000
180510162.000000,111613146.000000
180509145.000000,111610233.000000
180508301.000000,111607209.000000
180507630.000000,111604100.000000
180507134.000000,111600929.000000
180506815.000000,111597721.000000
180506674.000000,111594500.000000
180506714.000000,111591291.000000
180506935.000000,111588118.000000
180507339.000000,111585007.000000
180507929.000000,111581981.000000
180508705.000000,111579065.000000
180509669.000000,111576283.000000
180510824.000000,111573660.000000
180683661.000000,111151515.000000
180684138.000000,111150173.000000
180684679.000000,111148835.000000
180685281.000000,111147502.000000
180685942.000000,111146178.000000
180687434.000000,111143562.000000
180689134.000000,111141003.000000
180691026.000000,111138515.000000
180693090.000000,111136115.000000
180695310.000000,111133818.000000
180697666.000000,111131641.000000
180700141.000000,111129598.000000
180702716.000000,111127707.000000
180705373.000000,111125982.000000
180708094.000000,111124439.000000
180710861.000000,111123094.000000
180713656.000000,111121963.000000
180716460.000000,111121062.000000
180717860.000000,111120702.000000
180719256.000000,111120406.000000
181349109.000000,111003204.000000
181350493.000000,111002913.000000
181351860.000000,111002554.000000
181353207.000000,111002129.000000
181354533.000000,111001641.000000
181355836.000000,111001092.000000
181357115.000000,111000483.000000
181358367.000000,110999818.000000
181359592.000000,110999097.000000
181360786.000000,110998324.000000
181361950.000000,110997499.000000
181363080.000000,110996626.000000
181364175.000000,110995706.000000
181365233.000000,110994742.000000
181366253.000000,110993735.000000
181367233.000000,110992687.000000
181368172.000000,110991602.000000
181369066.000000,110990480.000000
181369916.000000,110989324.000000
181370718.000000,110988135.000000
181371472.000000,110986917.000000
181372176.000000,110985671.000000
181372827.000000,110984399.000000
181373425.000000,110983104.000000
181373966.000000,110981786.000000
181374451.000000,110980450.000000
181374877.000000,110979095.000000
181375241.000000,110977726.000000
181375544.000000,110976343.000000
181375782.000000,110974949.000000
181375954.000000,110973546.000000
181376059.000000,110972135.000000
181376094.000000,110970720.000000
181376094.000000,110343978.000000
181376059.000000,110342566.000000
181375954.000000,110341159.000000
181375782.000000,110339758.000000
181375544.000000,110338366.000000
181375241.000000,110336985.000000
181374877.000000,110335617.000000
181374451.000000,110334264.000000
181373966.000000,110332928.000000
181373425.000000,110331611.000000
181372827.000000,110330316.000000
181371472.000000,110327798.000000
181369916.000000,110325390.000000
181368172.000000,110323111.000000
181366253.000000,110320975.000000
181364175.000000,110319002.000000
181361950.000000,110317206.000000
181360786.000000,110316381.000000
181359592.000000,110315606.000000
181358367.000000,110314885.000000
181357115.000000,110314218.000000
181355836.000000,110313609.000000
181354533.000000,110313059.000000
181353207.000000,110312570.000000
181351860.000000,110312145.000000
181350493.000000,110311786.000000
181349109.000000,110311494.000000
180719256.000000,110194292.000000
180716460.000000,110193637.000000
180713656.000000,110192737.000000
180710861.000000,110191608.000000
180708094.000000,110190265.000000
180705373.000000,110188724.000000
180702716.000000,110187002.000000
180700141.000000,110185112.000000
180697666.000000,110183072.000000
180695310.000000,110180896.000000
180693090.000000,110178600.000000
180691026.000000,110176200.000000
180689134.000000,110173711.000000
180687434.000000,110171150.000000
180685942.000000,110168531.000000
180684679.000000,110165870.000000
180683661.000000,110163183.000000
180510824.000000,109741038.000000
180509669.000000,109738409.000000
180508705.000000,109735622.000000
180507929.000000,109732701.000000
180507339.000000,109729671.000000
180506935.000000,109726556.000000
180506714.000000,109723381.000000
180506674.000000,109720171.000000
180506815.000000,109716950.000000
180507134.000000,109713742.000000
180507630.000000,109710572.000000
180508301.000000,109707465.000000
180509145.000000,109704445.000000
180510162.000000,109701536.000000
180511348.000000,109698763.000000
180512703.000000,109696151.000000
180514224.000000,109693723.000000
180875308.000000,109167544.000000
180876080.000000,109166355.000000
180876792.000000,109165131.000000
180877444.000000,109163874.000000
180878036.000000,109162588.000000
180878569.000000,109161274.000000
180879042.000000,109159936.000000
180879813.000000,109157198.000000
180880350.000000,109154395.000000
180880655.000000,109151548.000000
180880730.000000,109148679.000000
180880578.000000,109145810.000000
180880200.000000,109142962.000000
180879598.000000,109140157.000000
180878775.000000,109137416.000000
180877731.000000,109134762.000000
180876470.000000,109132215.000000
180875759.000000,109130989.000000
180874994.000000,109129798.000000
180874175.000000,109128644.000000
180873303.000000,109127531.000000
180872379.000000,109126462.000000
180871401.000000,109125438.000000
180428276.000000,108682312.000000
180427249.000000,108681338.000000
180426177.000000,108680416.000000
180425062.000000,108679547.000000
180423907.000000,108678730.000000
180422715.000000,108677967.000000
180421488.000000,108677257.000000
180420230.000000,108676600.000000
180418942.000000,108675998.000000
180417628.000000,108675449.000000
180416290.000000,108674955.000000
180413554.000000,108674132.000000
180410754.000000,108673529.000000
180407912.000000,108673149.000000
180405050.000000,108672995.000000
180402189.000000,108673068.000000
180399350.000000,108673371.000000
180397946.000000,108673609.000000
180396555.000000,108673906.000000
180395181.000000,108674261.000000
180393826.000000,108674674.000000
180392492.000000,108675147.000000
180391183.000000,108675679.000000
180389900.000000,108676271.000000
180388648.000000,108676922.000000
180387428.000000,108677634.000000
180386242.000000,108678405.000000
179869106.000000,109033268.000000
179866662.000000,109034780.000000
179864039.000000,109036122.000000
179861263.000000,109037292.000000
179858356.000000,109038288.000000
179855343.000000,109039109.000000
179852247.000000,109039754.000000
179849093.000000,109040220.000000
179845904.000000,109040507.000000
179842705.000000,109040613.000000
179839518.000000,109040536.000000
179836368.000000,109040276.000000
179833279.000000,109039830.000000
179830275.000000,109039197.000000
179827379.000000,109038375.000000
179824615.000000,109037364.000000
179822008.000000,109036161.000000
179386552.000000,108849434.000000
179385212.000000,108848936.000000
179383877.000000,108848375.000000
179381227.000000,108847071.000000
179378616.000000,108845542.000000
179376061.000000,108843804.000000
179373577.000000,108841877.000000
179371180.000000,108839779.000000
179368887.000000,108837528.000000
179366713.000000,108835142.000000
179364674.000000,108832640.000000
179362786.000000,108830040.000000
179361064.000000,108827360.000000
179359525.000000,108824619.000000
179358185.000000,108821834.000000
179357059.000000,108819025.000000
179356582.000000,108817617.000000
179356164.000000,108816209.000000
179355807.000000,108814804.000000
179355514.000000,108813405.000000
179242292.000000,108204533.000000
179241994.000000,108203145.000000
179241629.000000,108201776.000000
179241199.000000,108200426.000000
179240707.000000,108199098.000000
179240155.000000,108197793.000000
179239543.000000,108196513.000000
179238876.000000,108195259.000000
179238154.000000,108194034.000000
179237379.000000,108192839.000000
179236554.000000,108191675.000000
179235681.000000,108190545.000000
179234761.000000,108189450.000000
179233797.000000,108188392.000000
179232792.000000,108187373.000000
179231745.000000,108186393.000000
179230661.000000,108185456.000000
179229541.000000,108184562.000000
179228387.000000,108183713.000000
179227201.000000,108182912.000000
179225985.000000,108182159.000000
179224741.000000,108181457.000000
179223472.000000,108180807.000000
179222178.000000,108180210.000000
179220863.000000,108179670.000000
179219529.000000,108179186.000000
179218176.000000,108178761.000000
179216808.000000,108178397.000000
179215427.000000,108178096.000000
179214034.000000,108177858.000000
179212632.000000,108177687.000000
179211222.000000,108177582.000000
179209808.000000,108177547.000000
178583066.000000,108177547.000000
Z" /> 
</g>
<g style="fill:#000000; fill-opacity:1.0; 
stroke:#000000; stroke-width:120000.000000; stroke-opacity:1; 
stroke-linecap:round; stroke-linejoin:round;">
</g>
<g style="fill:#000000; fill-opacity:0.0; 
stroke:#000000; stroke-width:120000.000000; stroke-opacity:1; 
stroke-linecap:round; stroke-linejoin:round;">
<path d="M171502200 105000000
L176502200 105000000
" />
<path d="M176502200 105000000
L176502200 88000000
" />
<path d="M176502200 88000000
L171502200 88000000
" />
<path d="M171502200 88000000
L171502200 105000000
" />
</g>
<g style="fill:#000000; fill-opacity:1.0; 
stroke:#000000; stroke-width:21200.000000; stroke-opacity:1; 
stroke-linecap:round; stroke-linejoin:round;">
<path style="fill:#000000; fill-opacity:1.0; 
stroke:#000000; stroke-width:21200.000000; stroke-opacity:1; 
stroke-linecap:round; stroke-linejoin:round;fill-rule:evenodd;"
d="M 171502200.000000,105000000.000000
176502200.000000,105000000.000000
176502200.000000,88000000.000000
171502200.000000,88000000.000000
" /> 
</g>
<g style="fill:#000000; fill-opacity:1.0; 
stroke:#000000; stroke-width:150000.000000; stroke-opacity:1; 
stroke-linecap:round; stroke-linejoin:round;">
</g>
<g style="fill:#000000; fill-opacity:0.0; 
stroke:#000000; stroke-width:150000.000000; stroke-opacity:1; 
stroke-linecap:round; stroke-linejoin:round;">
<text x="172752200.000000" y="78500000.000000"
transform="scale(-1 1) translate(-345504400.000000 0)"
textLength="805000.000000" font-size="1333333.000000" lengthAdjust="spacingAndGlyphs"
text-anchor="middle" opacity="0">B</text>
<g class="stroked-text"><desc>B</desc>
<path d="M172823629 77928571
L172966486 77976190
L173014105 78023809
L173061724 78119047
L173061724 78261904
L173014105 78357142
L172966486 78404761
L172871248 78452380
L172490296 78452380
L172490296 77452380
L172823629 77452380
L172918867 77500000
L172966486 77547619
L173014105 77642857
L173014105 77738095
L172966486 77833333
L172918867 77880952
L172823629 77928571
L172490296 77928571
" />
</g><text x="144002200.000000" y="116000000.000000"
transform="scale(-1 1) translate(-288004400.000000 0)"
textLength="2471667.000000" font-size="1333333.000000" lengthAdjust="spacingAndGlyphs"
text-anchor="middle" opacity="0">3v3</text>
<g class="stroked-text"><desc>3v3</desc>
<path d="M142811724 114952380
L143430772 114952380
L143097439 115333333
L143240296 115333333
L143335534 115380952
L143383153 115428571
L143430772 115523809
L143430772 115761904
L143383153 115857142
L143335534 115904761
L143240296 115952380
L142954581 115952380
L142859343 115904761
L142811724 115857142
" />
<path d="M143764105 115285714
L144002200 115952380
L144240296 115285714
" />
<path d="M144526010 114952380
L145145058 114952380
L144811724 115333333
L144954581 115333333
L145049820 115380952
L145097439 115428571
L145145058 115523809
L145145058 115761904
L145097439 115857142
L145049820 115904761
L144954581 115952380
L144668867 115952380
L144573629 115904761
L144526010 115857142
" />
</g><text x="167502200.000000" y="106375000.000000"
transform="scale(-1 1) translate(-335004400.000000 0)"
textLength="2519286.000000" font-size="1000000.000000" lengthAdjust="spacingAndGlyphs"
text-anchor="middle" opacity="0">MISO</text>
<g class="stroked-text"><desc>MISO</desc>
<path d="M166323629 106339285
L166323629 105589285
L166573629 106125000
L166823629 105589285
L166823629 106339285
" />
<path d="M167180772 106339285
L167180772 105589285
" />
<path d="M167502200 106303571
L167609343 106339285
L167787915 106339285
L167859343 106303571
L167895058 106267857
L167930772 106196428
L167930772 106125000
L167895058 106053571
L167859343 106017857
L167787915 105982142
L167645058 105946428
L167573629 105910714
L167537915 105875000
L167502200 105803571
L167502200 105732142
L167537915 105660714
L167573629 105625000
L167645058 105589285
L167823629 105589285
L167930772 105625000
" />
<path d="M168395058 105589285
L168537915 105589285
L168609343 105625000
L168680772 105696428
L168716486 105839285
L168716486 106089285
L168680772 106232142
L168609343 106303571
L168537915 106339285
L168395058 106339285
L168323629 106303571
L168252200 106232142
L168216486 106089285
L168216486 105839285
L168252200 105696428
L168323629 105625000
L168395058 105589285
" />
</g><text x="149252200.000000" y="68000000.000000"
transform="scale(-1 1) translate(-298504400.000000 0)"
textLength="1519286.000000" font-size="1333333.000000" lengthAdjust="spacingAndGlyphs"
text-anchor="middle" opacity="0">5v</text>
<g class="stroked-text"><desc>5v</desc>
<path d="M149109343 66952380
L148633153 66952380
L148585534 67428571
L148633153 67380952
L148728391 67333333
L148966486 67333333
L149061724 67380952
L149109343 67428571
L149156962 67523809
L149156962 67761904
L149109343 67857142
L149061724 67904761
L148966486 67952380
L148728391 67952380
L148633153 67904761
L148585534 67857142
" />
<path d="M149490296 67285714
L149728391 67952380
L149966486 67285714
" />
</g><text x="172752200.000000" y="81500000.000000"
transform="scale(-1 1) translate(-345504400.000000 0)"
textLength="662143.000000" font-size="1333333.000000" lengthAdjust="spacingAndGlyphs"
text-anchor="middle" opacity="0">A</text>
<g class="stroked-text"><desc>A</desc>
<path d="M172514105 81166666
L172990296 81166666
" />
<path d="M172418867 81452380
L172752200 80452380
L173085534 81452380
" />
</g><text x="167752200.000000" y="102875000.000000"
transform="scale(-1 1) translate(-335504400.000000 0)"
textLength="2019286.000000" font-size="1000000.000000" lengthAdjust="spacingAndGlyphs"
text-anchor="middle" opacity="0">SCK</text>
<g class="stroked-text"><desc>SCK</desc>
<path d="M166787915 102803571
L166895058 102839285
L167073629 102839285
L167145058 102803571
L167180772 102767857
L167216486 102696428
L167216486 102625000
L167180772 102553571
L167145058 102517857
L167073629 102482142
L166930772 102446428
L166859343 102410714
L166823629 102375000
L166787915 102303571
L166787915 102232142
L166823629 102160714
L166859343 102125000
L166930772 102089285
L167109343 102089285
L167216486 102125000
" />
<path d="M167966486 102767857
L167930772 102803571
L167823629 102839285
L167752200 102839285
L167645058 102803571
L167573629 102732142
L167537915 102660714
L167502200 102517857
L167502200 102410714
L167537915 102267857
L167573629 102196428
L167645058 102125000
L167752200 102089285
L167823629 102089285
L167930772 102125000
L167966486 102160714
" />
<path d="M168287915 102839285
L168287915 102089285
" />
<path d="M168716486 102839285
L168395058 102410714
" />
<path d="M168716486 102089285
L168287915 102517857
" />
</g><text x="150252200.000000" y="116000000.000000"
transform="scale(-1 1) translate(-300504400.000000 0)"
textLength="2471667.000000" font-size="1333333.000000" lengthAdjust="spacingAndGlyphs"
text-anchor="middle" opacity="0">1v9</text>
<g class="stroked-text"><desc>1v9</desc>
<path d="M149680772 115952380
L149109343 115952380
" />
<path d="M149395058 115952380
L149395058 114952380
L149299820 115095238
L149204581 115190476
L149109343 115238095
" />
<path d="M150014105 115285714
L150252200 115952380
L150490296 115285714
" />
<path d="M150918867 115952380
L151109343 115952380
L151204581 115904761
L151252200 115857142
L151347439 115714285
L151395058 115523809
L151395058 115142857
L151347439 115047619
L151299820 115000000
L151204581 114952380
L151014105 114952380
L150918867 115000000
L150871248 115047619
L150823629 115142857
L150823629 115380952
L150871248 115476190
L150918867 115523809
L151014105 115571428
L151204581 115571428
L151299820 115523809
L151347439 115476190
L151395058 115380952
" />
</g><text x="145002200.000000" y="109750000.000000"
transform="scale(-1 1) translate(-290004400.000000 0)"
textLength="2233571.000000" font-size="1333333.000000" lengthAdjust="spacingAndGlyphs"
text-anchor="middle" opacity="0">ISP</text>
<g class="stroked-text"><desc>ISP</desc>
<path d="M144026010 109702380
L144026010 108702380
" />
<path d="M144454581 109654761
L144597439 109702380
L144835534 109702380
L144930772 109654761
L144978391 109607142
L145026010 109511904
L145026010 109416666
L144978391 109321428
L144930772 109273809
L144835534 109226190
L144645058 109178571
L144549820 109130952
L144502200 109083333
L144454581 108988095
L144454581 108892857
L144502200 108797619
L144549820 108750000
L144645058 108702380
L144883153 108702380
L145026010 108750000
" />
<path d="M145454581 109702380
L145454581 108702380
L145835534 108702380
L145930772 108750000
L145978391 108797619
L146026010 108892857
L146026010 109035714
L145978391 109130952
L145930772 109178571
L145835534 109226190
L145454581 109226190
" />
</g><text x="147252200.000000" y="116000000.000000"
transform="scale(-1 1) translate(-294504400.000000 0)"
textLength="2852619.000000" font-size="1333333.000000" lengthAdjust="spacingAndGlyphs"
text-anchor="middle" opacity="0">GND</text>
<g class="stroked-text"><desc>GND</desc>
<path d="M146490296 115000000
L146395058 114952380
L146252200 114952380
L146109343 115000000
L146014105 115095238
L145966486 115190476
L145918867 115380952
L145918867 115523809
L145966486 115714285
L146014105 115809523
L146109343 115904761
L146252200 115952380
L146347439 115952380
L146490296 115904761
L146537915 115857142
L146537915 115523809
L146347439 115523809
" />
<path d="M146966486 115952380
L146966486 114952380
L147537915 115952380
L147537915 114952380
" />
<path d="M148014105 115952380
L148014105 114952380
L148252200 114952380
L148395058 115000000
L148490296 115095238
L148537915 115190476
L148585534 115380952
L148585534 115523809
L148537915 115714285
L148490296 115809523
L148395058 115904761
L148252200 115952380
L148014105 115952380
" />
</g><text x="174752200.000000" y="71500000.000000"
transform="scale(-1 1) translate(-349504400.000000 0)"
textLength="2043095.000000" font-size="1333333.000000" lengthAdjust="spacingAndGlyphs"
text-anchor="middle" opacity="0">D+</text>
<g class="stroked-text"><desc>D+</desc>
<path d="M173871248 71452380
L173871248 70452380
L174109343 70452380
L174252200 70500000
L174347439 70595238
L174395058 70690476
L174442677 70880952
L174442677 71023809
L174395058 71214285
L174347439 71309523
L174252200 71404761
L174109343 71452380
L173871248 71452380
" />
<path d="M174871248 71071428
L175633153 71071428
" />
<path d="M175252200 71452380
L175252200 70690476
" />
</g><text x="171002200.000000" y="71500000.000000"
transform="scale(-1 1) translate(-342004400.000000 0)"
textLength="2043095.000000" font-size="1333333.000000" lengthAdjust="spacingAndGlyphs"
text-anchor="middle" opacity="0">D-</text>
<g class="stroked-text"><desc>D-</desc>
<path d="M170121248 71452380
L170121248 70452380
L170359343 70452380
L170502200 70500000
L170597439 70595238
L170645058 70690476
L170692677 70880952
L170692677 71023809
L170645058 71214285
L170597439 71309523
L170502200 71404761
L170359343 71452380
L170121248 71452380
" />
<path d="M171121248 71071428
L171883153 71071428
" />
</g></g>
<g style="fill:#000000; fill-opacity:0.0; 
stroke:#000000; stroke-width:125000.000000; stroke-opacity:1; 
stroke-linecap:round; stroke-linejoin:round;">
<text x="167502200.000000" y="100375000.000000"
transform="scale(-1 1) translate(-335004400.000000 0)"
textLength="2519286.000000" font-size="1000000.000000" lengthAdjust="spacingAndGlyphs"
text-anchor="middle" opacity="0">MOSI</text>
<g class="stroked-text"><desc>MOSI</desc>
<path d="M166323629 100339285
L166323629 99589285
L166573629 100125000
L166823629 99589285
L166823629 100339285
" />
<path d="M167323629 99589285
L167466486 99589285
L167537915 99625000
L167609343 99696428
L167645058 99839285
L167645058 100089285
L167609343 100232142
L167537915 100303571
L167466486 100339285
L167323629 100339285
L167252200 100303571
L167180772 100232142
L167145058 100089285
L167145058 99839285
L167180772 99696428
L167252200 99625000
L167323629 99589285
" />
<path d="M167930772 100303571
L168037915 100339285
L168216486 100339285
L168287915 100303571
L168323629 100267857
L168359343 100196428
L168359343 100125000
L168323629 100053571
L168287915 100017857
L168216486 99982142
L168073629 99946428
L168002200 99910714
L167966486 99875000
L167930772 99803571
L167930772 99732142
L167966486 99660714
L168002200 99625000
L168073629 99589285
L168252200 99589285
L168359343 99625000
" />
<path d="M168680772 100339285
L168680772 99589285
" />
</g></g>
<g style="fill:#000000; fill-opacity:0.0; 
stroke:#000000; stroke-width:150000.000000; stroke-opacity:1; 
stroke-linecap:round; stroke-linejoin:round;">
<g transform="rotate(270.000000 175934200.000000 111500000.000000)">
<text x="175934200.000000" y="111900000.000000"
transform="scale(-1 1) translate(-351868400.000000 0)"
textLength="10085119.000000" font-size="1066666.000000" lengthAdjust="spacingAndGlyphs"
text-anchor="middle" opacity="0">CERN-OHL-P v2</text>
</g>
<g class="stroked-text"><desc>CERN-OHL-P v2</desc>
<path d="M175648486 107023809
L175610391 106985714
L175572296 106871428
L175572296 106795238
L175610391 106680952
L175686581 106604761
L175762772 106566666
L175915153 106528571
L176029439 106528571
L176181820 106566666
L176258010 106604761
L176334200 106680952
L176372296 106795238
L176372296 106871428
L176334200 106985714
L176296105 107023809
" />
<path d="M175991343 107366666
L175991343 107633333
" />
<path d="M175572296 107747619
L175572296 107366666
L176372296 107366666
L176372296 107747619
" />
<path d="M175572296 108547619
L175953248 108280952
" />
<path d="M175572296 108090476
L176372296 108090476
L176372296 108395238
L176334200 108471428
L176296105 108509523
L176219915 108547619
L176105629 108547619
L176029439 108509523
L175991343 108471428
L175953248 108395238
L175953248 108090476
" />
<path d="M175572296 108890476
L176372296 108890476
L175572296 109347619
L176372296 109347619
" />
<path d="M175877058 109728571
L175877058 110338095
" />
<path d="M176372296 110871428
L176372296 111023809
L176334200 111100000
L176258010 111176190
L176105629 111214285
L175838962 111214285
L175686581 111176190
L175610391 111100000
L175572296 111023809
L175572296 110871428
L175610391 110795238
L175686581 110719047
L175838962 110680952
L176105629 110680952
L176258010 110719047
L176334200 110795238
L176372296 110871428
" />
<path d="M175572296 111557142
L176372296 111557142
" />
<path d="M175991343 111557142
L175991343 112014285
" />
<path d="M175572296 112014285
L176372296 112014285
" />
<path d="M175572296 112776190
L175572296 112395238
L176372296 112395238
" />
<path d="M175877058 113042857
L175877058 113652380
" />
<path d="M175572296 114033333
L176372296 114033333
L176372296 114338095
L176334200 114414285
L176296105 114452380
L176219915 114490476
L176105629 114490476
L176029439 114452380
L175991343 114414285
L175953248 114338095
L175953248 114033333
" />
<path d="M176105629 115366666
L175572296 115557142
L176105629 115747619
" />
<path d="M176296105 116014285
L176334200 116052380
L176372296 116128571
L176372296 116319047
L176334200 116395238
L176296105 116433333
L176219915 116471428
L176143724 116471428
L176029439 116433333
L175572296 115976190
L175572296 116471428
" />
</g><g transform="rotate(270.000000 174646200.000000 111500000.000000)">
<text x="174646200.000000" y="111900000.000000"
transform="scale(-1 1) translate(-349292400.000000 0)"
textLength="195000.000000" font-size="1066666.000000" lengthAdjust="spacingAndGlyphs"
text-anchor="middle" opacity="0"></text>
</g>
<g class="stroked-text"><desc></desc>
</g><g transform="rotate(270.000000 173358200.000000 111500000.000000)">
<text x="173358200.000000" y="111900000.000000"
transform="scale(-1 1) translate(-346716400.000000 0)"
textLength="6440476.000000" font-size="1066666.000000" lengthAdjust="spacingAndGlyphs"
text-anchor="middle" opacity="0">github.com</text>
</g>
<g class="stroked-text"><desc>github.com</desc>
<path d="M173529629 108738095
L172882010 108738095
L172805820 108700000
L172767724 108661904
L172729629 108585714
L172729629 108471428
L172767724 108395238
" />
<path d="M173034391 108738095
L172996296 108661904
L172996296 108509523
L173034391 108433333
L173072486 108395238
L173148677 108357142
L173377248 108357142
L173453439 108395238
L173491534 108433333
L173529629 108509523
L173529629 108661904
L173491534 108738095
" />
<path d="M172996296 109119047
L173529629 109119047
" />
<path d="M173796296 109119047
L173758200 109080952
L173720105 109119047
L173758200 109157142
L173796296 109119047
L173720105 109119047
" />
<path d="M173529629 109385714
L173529629 109690476
" />
<path d="M173796296 109500000
L173110581 109500000
L173034391 109538095
L172996296 109614285
L172996296 109690476
" />
<path d="M172996296 109957142
L173796296 109957142
" />
<path d="M172996296 110300000
L173415343 110300000
L173491534 110261904
L173529629 110185714
L173529629 110071428
L173491534 109995238
L173453439 109957142
" />
<path d="M173529629 111023809
L172996296 111023809
" />
<path d="M173529629 110680952
L173110581 110680952
L173034391 110719047
L172996296 110795238
L172996296 110909523
L173034391 110985714
L173072486 111023809
" />
<path d="M172996296 111404761
L173796296 111404761
" />
<path d="M173491534 111404761
L173529629 111480952
L173529629 111633333
L173491534 111709523
L173453439 111747619
L173377248 111785714
L173148677 111785714
L173072486 111747619
L173034391 111709523
L172996296 111633333
L172996296 111480952
L173034391 111404761
" />
<path d="M173072486 112128571
L173034391 112166666
L172996296 112128571
L173034391 112090476
L173072486 112128571
L172996296 112128571
" />
<path d="M173034391 112852380
L172996296 112776190
L172996296 112623809
L173034391 112547619
L173072486 112509523
L173148677 112471428
L173377248 112471428
L173453439 112509523
L173491534 112547619
L173529629 112623809
L173529629 112776190
L173491534 112852380
" />
<path d="M172996296 113309523
L173034391 113233333
L173072486 113195238
L173148677 113157142
L173377248 113157142
L173453439 113195238
L173491534 113233333
L173529629 113309523
L173529629 113423809
L173491534 113500000
L173453439 113538095
L173377248 113576190
L173148677 113576190
L173072486 113538095
L173034391 113500000
L172996296 113423809
L172996296 113309523
" />
<path d="M172996296 113919047
L173529629 113919047
" />
<path d="M173453439 113919047
L173491534 113957142
L173529629 114033333
L173529629 114147619
L173491534 114223809
L173415343 114261904
L172996296 114261904
" />
<path d="M173415343 114261904
L173491534 114300000
L173529629 114376190
L173529629 114490476
L173491534 114566666
L173415343 114604761
L172996296 114604761
" />
</g><g transform="rotate(270.000000 172070200.000000 111500000.000000)">
<text x="172070200.000000" y="111900000.000000"
transform="scale(-1 1) translate(-344140400.000000 0)"
textLength="10852619.000000" font-size="1066666.000000" lengthAdjust="spacingAndGlyphs"
text-anchor="middle" opacity="0">Dekanova/redshift</text>
</g>
<g class="stroked-text"><desc>Dekanova/redshift</desc>
<path d="M171708296 106166666
L172508296 106166666
L172508296 106357142
L172470200 106471428
L172394010 106547619
L172317820 106585714
L172165439 106623809
L172051153 106623809
L171898772 106585714
L171822581 106547619
L171746391 106471428
L171708296 106357142
L171708296 106166666
" />
<path d="M171746391 107271428
L171708296 107195238
L171708296 107042857
L171746391 106966666
L171822581 106928571
L172127343 106928571
L172203534 106966666
L172241629 107042857
L172241629 107195238
L172203534 107271428
L172127343 107309523
L172051153 107309523
L171974962 106928571
" />
<path d="M171708296 107652380
L172508296 107652380
" />
<path d="M172013058 107728571
L171708296 107957142
" />
<path d="M172241629 107957142
L171936867 107652380
" />
<path d="M171708296 108642857
L172127343 108642857
L172203534 108604761
L172241629 108528571
L172241629 108376190
L172203534 108300000
" />
<path d="M171746391 108642857
L171708296 108566666
L171708296 108376190
L171746391 108300000
L171822581 108261904
L171898772 108261904
L171974962 108300000
L172013058 108376190
L172013058 108566666
L172051153 108642857
" />
<path d="M172241629 109023809
L171708296 109023809
" />
<path d="M172165439 109023809
L172203534 109061904
L172241629 109138095
L172241629 109252380
L172203534 109328571
L172127343 109366666
L171708296 109366666
" />
<path d="M171708296 109861904
L171746391 109785714
L171784486 109747619
L171860677 109709523
L172089248 109709523
L172165439 109747619
L172203534 109785714
L172241629 109861904
L172241629 109976190
L172203534 110052380
L172165439 110090476
L172089248 110128571
L171860677 110128571
L171784486 110090476
L171746391 110052380
L171708296 109976190
L171708296 109861904
" />
<path d="M172241629 110395238
L171708296 110585714
L172241629 110776190
" />
<path d="M171708296 111423809
L172127343 111423809
L172203534 111385714
L172241629 111309523
L172241629 111157142
L172203534 111080952
" />
<path d="M171746391 111423809
L171708296 111347619
L171708296 111157142
L171746391 111080952
L171822581 111042857
L171898772 111042857
L171974962 111080952
L172013058 111157142
L172013058 111347619
L172051153 111423809
" />
<path d="M172546391 112376190
L171517820 111690476
" />
<path d="M171708296 112642857
L172241629 112642857
" />
<path d="M172089248 112642857
L172165439 112680952
L172203534 112719047
L172241629 112795238
L172241629 112871428
" />
<path d="M171746391 113442857
L171708296 113366666
L171708296 113214285
L171746391 113138095
L171822581 113100000
L172127343 113100000
L172203534 113138095
L172241629 113214285
L172241629 113366666
L172203534 113442857
L172127343 113480952
L172051153 113480952
L171974962 113100000
" />
<path d="M171708296 114166666
L172508296 114166666
" />
<path d="M171746391 114166666
L171708296 114090476
L171708296 113938095
L171746391 113861904
L171784486 113823809
L171860677 113785714
L172089248 113785714
L172165439 113823809
L172203534 113861904
L172241629 113938095
L172241629 114090476
L172203534 114166666
" />
<path d="M171746391 114509523
L171708296 114585714
L171708296 114738095
L171746391 114814285
L171822581 114852380
L171860677 114852380
L171936867 114814285
L171974962 114738095
L171974962 114623809
L172013058 114547619
L172089248 114509523
L172127343 114509523
L172203534 114547619
L172241629 114623809
L172241629 114738095
L172203534 114814285
" />
<path d="M171708296 115195238
L172508296 115195238
" />
<path d="M171708296 115538095
L172127343 115538095
L172203534 115500000
L172241629 115423809
L172241629 115309523
L172203534 115233333
L172165439 115195238
" />
<path d="M171708296 115919047
L172241629 115919047
" />
<path d="M172508296 115919047
L172470200 115880952
L172432105 115919047
L172470200 115957142
L172508296 115919047
L172432105 115919047
" />
<path d="M172241629 116185714
L172241629 116490476
" />
<path d="M171708296 116300000
L172394010 116300000
L172470200 116338095
L172508296 116414285
L172508296 116490476
" />
<path d="M172241629 116642857
L172241629 116947619
" />
<path d="M172508296 116757142
L171822581 116757142
L171746391 116795238
L171708296 116871428
L171708296 116947619
" />
</g></g>
<g style="fill:#000000; fill-opacity:0.0; 
stroke:#000000; stroke-width:120000.000000; stroke-opacity:1; 
stroke-linecap:round; stroke-linejoin:round;">
<circle cx="170002200.000000" cy="106000000.000000" r="950000.000000" /> 
<circle cx="140502200.000000" cy="80500000.000000" r="950000.000000" /> 
<circle cx="171002200.000000" cy="75250000.000000" r="950000.000000" /> 
<circle cx="140502200.000000" cy="85500000.000000" r="950000.000000" /> 
</g>
<g style="fill:#000000; fill-opacity:1.0; 
stroke:#000000; stroke-width:1.000000; stroke-opacity:1; 
stroke-linecap:round; stroke-linejoin:round;">
<path style="fill:#000000; fill-opacity:1.0; 
stroke:#000000; stroke-width:1.000000; stroke-opacity:1; 
stroke-linecap:round; stroke-linejoin:round;fill-rule:evenodd;"
d="M 178606150.000000,96181580.000000
179261788.000000,95952980.000000
179261788.000000,95949805.000000
178606150.000000,95721205.000000
Z" /> 
<path style="fill:#000000; fill-opacity:1.0; 
stroke:#000000; stroke-width:1.000000; stroke-opacity:1; 
stroke-linecap:round; stroke-linejoin:round;fill-rule:evenodd;"
d="M 179860143.000000,97595513.000000
179860143.000000,95999017.000000
179331638.000000,95999017.000000
178172762.000000,96418117.000000
178172762.000000,96332392.000000
178539475.000000,96203805.000000
178539475.000000,95697392.000000
178172762.000000,95568805.000000
178172762.000000,95486255.000000
179331638.000000,95903767.000000
179331638.000000,95999017.000000
179860143.000000,95999017.000000
179860143.000000,95381480.000000
179331638.000000,95381480.000000
178172762.000000,94962380.000000
178172762.000000,94867130.000000
179331638.000000,94449617.000000
179331638.000000,94535342.000000
178248962.000000,94914755.000000
178248962.000000,94917930.000000
179331638.000000,95297342.000000
179331638.000000,95381480.000000
179860143.000000,95381480.000000
179860143.000000,93838430.000000
179347513.000000,93838430.000000
179337739.000000,93947273.000000
179308420.000000,94043614.000000
179259555.000000,94127454.000000
179191144.000000,94198792.000000
179105071.000000,94255744.000000
179003223.000000,94296423.000000
178885600.000000,94320831.000000
178752200.000000,94328967.000000
178618800.000000,94320831.000000
178501177.000000,94296423.000000
178399329.000000,94255744.000000
178313256.000000,94198792.000000
178244845.000000,94127454.000000
178195980.000000,94043614.000000
178166661.000000,93947273.000000
178156887.000000,93838430.000000
178166611.000000,93729636.000000
178195781.000000,93633444.000000
178244398.000000,93549852.000000
178312462.000000,93478861.000000
178398287.000000,93422257.000000
178500184.000000,93381825.000000
178618155.000000,93357566.000000
178752200.000000,93349480.000000
178886245.000000,93357566.000000
179004216.000000,93381825.000000
179106113.000000,93422257.000000
179191938.000000,93478861.000000
179260002.000000,93549852.000000
179308619.000000,93633444.000000
179337789.000000,93729636.000000
179347513.000000,93838430.000000
179860143.000000,93838430.000000
179860143.000000,93141517.000000
179331638.000000,93141517.000000
178172762.000000,93141517.000000
178172762.000000,93051030.000000
179210988.000000,92423967.000000
179210988.000000,92420792.000000
178172762.000000,92420792.000000
178172762.000000,92343005.000000
179331638.000000,92343005.000000
179331638.000000,92435080.000000
178293412.000000,93060555.000000
178293412.000000,93063730.000000
179331638.000000,93063730.000000
179331638.000000,93141517.000000
179860143.000000,93141517.000000
179860143.000000,91731817.000000
179331638.000000,91731817.000000
178172762.000000,92150917.000000
178172762.000000,92065192.000000
178539475.000000,91936605.000000
178539475.000000,91430192.000000
178172762.000000,91301605.000000
178172762.000000,91219055.000000
179331638.000000,91636567.000000
179331638.000000,91731817.000000
179860143.000000,91731817.000000
179860143.000000,91090467.000000
179331638.000000,91090467.000000
178776013.000000,90512617.000000
178172762.000000,91106342.000000
178172762.000000,91006330.000000
178745850.000000,90447530.000000
178745850.000000,90444355.000000
178172762.000000,90444355.000000
178172762.000000,90364980.000000
179331638.000000,90364980.000000
179331638.000000,90444355.000000
178806175.000000,90444355.000000
178806175.000000,90447530.000000
179331638.000000,90988867.000000
179331638.000000,91090467.000000
179860143.000000,91090467.000000
179860143.000000,90101455.000000
179331638.000000,90101455.000000
179263375.000000,90101455.000000
179263375.000000,89525192.000000
178834750.000000,89525192.000000
178834750.000000,90069705.000000
178768075.000000,90069705.000000
178768075.000000,89525192.000000
178241025.000000,89525192.000000
178241025.000000,90101455.000000
178172762.000000,90101455.000000
178172762.000000,89445817.000000
179331638.000000,89445817.000000
179331638.000000,90101455.000000
179860143.000000,90101455.000000
179860143.000000,88675880.000000
179347513.000000,88675880.000000
179340359.000000,88793825.000000
179318898.000000,88897895.000000
179283131.000000,88988088.000000
179233056.000000,89064406.000000
179168674.000000,89126847.000000
179089985.000000,89175413.000000
178996989.000000,89210103.000000
178889685.000000,89230917.000000
178768075.000000,89237855.000000
178639801.000000,89230917.000000
178526618.000000,89210103.000000
178428526.000000,89175413.000000
178345526.000000,89126847.000000
178277616.000000,89064406.000000
178224797.000000,88988088.000000
178187070.000000,88897895.000000
178164433.000000,88793825.000000
178156887.000000,88675880.000000
178163237.000000,88540545.000000
178182287.000000,88417117.000000
179322113.000000,88417117.000000
179341163.000000,88542133.000000
179347513.000000,88675880.000000
179860143.000000,88675880.000000
179860143.000000,87904487.000000
177644257.000000,87904487.000000
177644257.000000,96930747.000000
Z" /> 
<path style="fill:#000000; fill-opacity:1.0; 
stroke:#000000; stroke-width:1.000000; stroke-opacity:1; 
stroke-linecap:round; stroke-linejoin:round;fill-rule:evenodd;"
d="M 178229912.000000,88588964.000000
178225150.000000,88675880.000000
178233336.000000,88792263.000000
178257892.000000,88892177.000000
178298820.000000,88975620.000000
178356119.000000,89042592.000000
178430979.000000,89093987.000000
178524592.000000,89130698.000000
178636957.000000,89152725.000000
178768075.000000,89160067.000000
178890461.000000,89152675.000000
178995683.000000,89130500.000000
179083739.000000,89093541.000000
179154631.000000,89041798.000000
179209152.000000,88974578.000000
179248095.000000,88891184.000000
179271461.000000,88791618.000000
179279250.000000,88675880.000000
179274488.000000,88588964.000000
179260200.000000,88496492.000000
178244200.000000,88496492.000000
Z" /> 
<path style="fill:#000000; fill-opacity:1.0; 
stroke:#000000; stroke-width:1.000000; stroke-opacity:1; 
stroke-linecap:round; stroke-linejoin:round;fill-rule:evenodd;"
d="M 178606150.000000,91914380.000000
179261788.000000,91685780.000000
179261788.000000,91682605.000000
178606150.000000,91454005.000000
Z" /> 
<path style="fill:#000000; fill-opacity:1.0; 
stroke:#000000; stroke-width:1.000000; stroke-opacity:1; 
stroke-linecap:round; stroke-linejoin:round;fill-rule:evenodd;"
d="M 178631252.000000,93437040.000000
178525584.000000,93456834.000000
178435196.000000,93489825.000000
178360087.000000,93536011.000000
178285122.000000,93616532.000000
178240143.000000,93717339.000000
178225150.000000,93838430.000000
178240143.000000,93959609.000000
178285122.000000,94060680.000000
178360087.000000,94141642.000000
178435196.000000,94188176.000000
178525584.000000,94221414.000000
178631252.000000,94241357.000000
178752200.000000,94248005.000000
178873148.000000,94241357.000000
178978816.000000,94221414.000000
179069204.000000,94188176.000000
179144313.000000,94141642.000000
179219278.000000,94060680.000000
179264257.000000,93959609.000000
179279250.000000,93838430.000000
179264257.000000,93717339.000000
179219278.000000,93616532.000000
179144313.000000,93536011.000000
179069204.000000,93489825.000000
178978816.000000,93456834.000000
178873148.000000,93437040.000000
178752200.000000,93430442.000000
Z" /> 
</g>
<g style="fill:#000000; fill-opacity:0.0; 
stroke:#000000; stroke-width:120000.000000; stroke-opacity:1; 
stroke-linecap:round; stroke-linejoin:round;">
<circle cx="174502200.000000" cy="81000000.000000" r="950000.000000" /> 
<circle cx="170002200.000000" cy="100000000.000000" r="950000.000000" /> 
<circle cx="148002200.000000" cy="77500000.000000" r="950000.000000" /> 
<circle cx="148002200.000000" cy="82500000.000000" r="950000.000000" /> 
<circle cx="178002200.000000" cy="75500000.000000" r="950000.000000" /> 
<circle cx="174502200.000000" cy="75250000.000000" r="950000.000000" /> 
<circle cx="144002200.000000" cy="117250000.000000" r="950000.000000" /> 
<circle cx="145002200.000000" cy="111000000.000000" r="950000.000000" /> 
<circle cx="149252200.000000" cy="69250000.000000" r="950000.000000" /> 
</g>
<g style="fill:#000000; fill-opacity:1.0; 
stroke:#000000; stroke-width:1.000000; stroke-opacity:1; 
stroke-linecap:round; stroke-linejoin:round;">
<path style="fill:#000000; fill-opacity:1.0; 
stroke:#000000; stroke-width:1.000000; stroke-opacity:1; 
stroke-linecap:round; stroke-linejoin:round;fill-rule:evenodd;"
d="M 177644257.000000,97262154.000000
177644257.000000,101073080.000000
179860143.000000,101737846.000000
179860143.000000,100208025.000000
179347513.000000,100208025.000000
179338076.000000,100308038.000000
179309765.000000,100392175.000000
179262581.000000,100460438.000000
179198464.000000,100510708.000000
179119353.000000,100540871.000000
179025250.000000,100550925.000000
178920740.000000,100537078.000000
178812525.000000,100495539.000000
178700606.000000,100426306.000000
178627740.000000,100368299.000000
178545666.000000,100293972.000000
178454385.000000,100203326.000000
178353896.000000,100096360.000000
178244200.000000,99973075.000000
178241025.000000,99973075.000000
178241025.000000,100560450.000000
178172762.000000,100560450.000000
178172762.000000,99861950.000000
178241025.000000,99861950.000000
178337862.000000,99973185.000000
178427292.000000,100071941.000000
178509312.000000,100158217.000000
178583925.000000,100232014.000000
178651129.000000,100293331.000000
178710925.000000,100342169.000000
178819933.000000,100413165.000000
178922592.000000,100455763.000000
179018900.000000,100469963.000000
179128636.000000,100452500.000000
179210194.000000,100400113.000000
179260795.000000,100315181.000000
179277663.000000,100200088.000000
179267432.000000,100093196.000000
179236740.000000,99988421.000000
179185588.000000,99885763.000000
179264963.000000,99885763.000000
179310824.000000,99989303.000000
179338340.000000,100096724.000000
179347513.000000,100208025.000000
179860143.000000,100208025.000000
179860143.000000,99577788.000000
178368025.000000,99577788.000000
178172762.000000,99577788.000000
178172762.000000,99487300.000000
178368025.000000,99487300.000000
178368025.000000,99577788.000000
179860143.000000,99577788.000000
179860143.000000,98847537.000000
179347513.000000,98847537.000000
179338211.000000,98942787.000000
179310305.000000,99025337.000000
179263797.000000,99095187.000000
179198684.000000,99152337.000000
179114969.000000,99196787.000000
179012649.000000,99228537.000000
178891726.000000,99247588.000000
178752200.000000,99253937.000000
178612674.000000,99247588.000000
178491751.000000,99228537.000000
178389431.000000,99196787.000000
178305716.000000,99152337.000000
178240603.000000,99095187.000000
178194095.000000,99025337.000000
178166189.000000,98942787.000000
178156887.000000,98847537.000000
178166189.000000,98751915.000000
178194095.000000,98669043.000000
178240603.000000,98598920.000000
178305716.000000,98541547.000000
178389431.000000,98496923.000000
178491751.000000,98465049.000000
178612674.000000,98445925.000000
178752200.000000,98439550.000000
178891726.000000,98445925.000000
179012649.000000,98465049.000000
179114969.000000,98496923.000000
179198684.000000,98541547.000000
179263797.000000,98598920.000000
179310305.000000,98669043.000000
179338211.000000,98751915.000000
179347513.000000,98847537.000000
179860143.000000,98847537.000000
179860143.000000,97926920.000000
Z" /> 
<path style="fill:#000000; fill-opacity:1.0; 
stroke:#000000; stroke-width:1.000000; stroke-opacity:1; 
stroke-linecap:round; stroke-linejoin:round;fill-rule:evenodd;"
d="M 178612370.000000,98525631.000000
178494053.000000,98545751.000000
178397248.000000,98579282.000000
178321955.000000,98626227.000000
178268174.000000,98686584.000000
178235906.000000,98760355.000000
178225150.000000,98847537.000000
178239437.000000,98947462.000000
178282300.000000,99029218.000000
178353737.000000,99092806.000000
178426862.000000,99128575.000000
178517647.000000,99154123.000000
178626093.000000,99169453.000000
178752200.000000,99174562.000000
178878307.000000,99169453.000000
178986753.000000,99154123.000000
179077538.000000,99128575.000000
179150663.000000,99092806.000000
179222100.000000,99029218.000000
179264963.000000,98947462.000000
179279250.000000,98847537.000000
179268494.000000,98760355.000000
179236226.000000,98686584.000000
179182445.000000,98626227.000000
179107152.000000,98579282.000000
179010347.000000,98545751.000000
178892030.000000,98525631.000000
178752200.000000,98518925.000000
Z" /> 
</g>
<g style="fill:#000000; fill-opacity:0.0; 
stroke:#000000; stroke-width:120000.000000; stroke-opacity:1; 
stroke-linecap:round; stroke-linejoin:round;">
<circle cx="150252200.000000" cy="117250000.000000" r="950000.000000" /> 
<circle cx="178002200.000000" cy="80500000.000000" r="950000.000000" /> 
<circle cx="147252200.000000" cy="117250000.000000" r="950000.000000" /> 
<circle cx="170002200.000000" cy="102500000.000000" r="950000.000000" /> 
<circle cx="174502200.000000" cy="78000000.000000" r="950000.000000" /> 
<g >
</g>
<g >
</g>
<g >
</g>
<g >
</g>
<g >
</g>
<g >
</g>
<g >
</g>
<g >
</g>
<g >
</g>
<g >
</g>
<g >
</g>
<g >
</g>
<g >
</g>
<g >
</g>
<g >
</g>
<g >
</g>
<g >
</g>
<g >
</g>
<g >
</g>
<g >
</g>
<g >
</g>
<g >
</g>
<g >
</g>
<g >
</g>
<g >
</g>
<g >
</g>
<g >
</g>
<g >
</g>
<g >
</g>
<g >
</g>
<g >
</g>
<g >
</g>
<g >
</g>
<g >
</g>
<g >
</g>
<g >
</g>
<g >
</g>
<g >
</g>
<g >
</g>
<g >
</g>
<g >
</g>
<g >
</g>
<g >
</g>
<g >
</g>
<g >
</g>
<g >
</g>
<g >
</g>
<g >
</g>
<g >
</g>
<g >
</g>
<g >
</g>
<g >
</g>
<g >
</g>
<g >
</g>
<g >
</g>
<g >
</g>
<g >
</g>
<g >
</g>
<g >
</g>
<g >
</g>
<g >
</g>
<g >
</g>
<g >
</g>
<g >
</g>
<g >
</g>
<g >
</g>
<g >
</g>
<g >
</g>
<g >
</g>
<g >
</g>
<g >
</g>
<g >
</g>
<g >
</g>
<g >
</g>
<g >
</g>
<g >
</g>
<g >
</g>
<g >
</g>
<g >
</g>
<g >
</g>
</g> 
</svg>
