<?xml version="1.0" standalone="no"?>
 <!DOCTYPE svg PUBLIC "-//W3C//DTD SVG 1.1//EN" 
 "http://www.w3.org/Graphics/SVG/1.1/DTD/svg11.dtd"> 
<svg
  xmlns:svg="http://www.w3.org/2000/svg"
  xmlns="http://www.w3.org/2000/svg"
  xmlns:xlink="http://www.w3.org/1999/xlink"
  version="1.1"
  width="29.700220cm" height="21.000720cm" viewBox="0 0 297002200 210007200">
<title>SVG Picture created as redshift-User_Drawings.svg date 2022/10/07 12:23:55 </title>
  <desc>Picture generated by PCBNEW </desc>
<g style="fill:#000000; fill-opacity:1.000000;stroke:#000000; stroke-opacity:1.000000;
stroke-linecap:round; stroke-linejoin:round;"
 transform="translate(0 0) scale(1 1)">
</g>
<g style="fill:#000000; fill-opacity:0.0; 
stroke:#000000; stroke-width:0.000000; stroke-opacity:1; 
stroke-linecap:round; stroke-linejoin:round;">
</g>
<g style="fill:#000000; fill-opacity:0.0; 
stroke:#000000; stroke-width:150000.000000; stroke-opacity:1; 
stroke-linecap:round; stroke-linejoin:round;">
<path d="M133500000 78000000
L146000000 78000000
" />
<path d="M137500000 47750000
L137500000 37250000
" />
<g transform="rotate(-90.000000 126500000.000000 59500000.000000)">
<text x="126500000.000000" y="60000000.000000"
textLength="7575952.000000" font-size="1333333.000000" lengthAdjust="spacingAndGlyphs"
text-anchor="middle" opacity="0">0.3740 in</text>
</g>
<g class="stroked-text"><desc>0.3740 in</desc>
<path d="M125952380 62761904
L125952380 62666666
L126000000 62571428
L126047619 62523809
L126142857 62476190
L126333333 62428571
L126571428 62428571
L126761904 62476190
L126857142 62523809
L126904761 62571428
L126952380 62666666
L126952380 62761904
L126904761 62857142
L126857142 62904761
L126761904 62952380
L126571428 63000000
L126333333 63000000
L126142857 62952380
L126047619 62904761
L126000000 62857142
L125952380 62761904
" />
<path d="M126857142 62000000
L126904761 61952380
L126952380 62000000
L126904761 62047619
L126857142 62000000
L126952380 62000000
" />
<path d="M125952380 61619047
L125952380 61000000
L126333333 61333333
L126333333 61190476
L126380952 61095238
L126428571 61047619
L126523809 61000000
L126761904 61000000
L126857142 61047619
L126904761 61095238
L126952380 61190476
L126952380 61476190
L126904761 61571428
L126857142 61619047
" />
<path d="M125952380 60666666
L125952380 60000000
L126952380 60428571
" />
<path d="M126285714 59190476
L126952380 59190476
" />
<path d="M125904761 59428571
L126619047 59666666
L126619047 59047619
" />
<path d="M125952380 58476190
L125952380 58380952
L126000000 58285714
L126047619 58238095
L126142857 58190476
L126333333 58142857
L126571428 58142857
L126761904 58190476
L126857142 58238095
L126904761 58285714
L126952380 58380952
L126952380 58476190
L126904761 58571428
L126857142 58619047
L126761904 58666666
L126571428 58714285
L126333333 58714285
L126142857 58666666
L126047619 58619047
L126000000 58571428
L125952380 58476190
" />
<path d="M126952380 56952380
L126285714 56952380
" />
<path d="M125952380 56952380
L126000000 57000000
L126047619 56952380
L126000000 56904761
L125952380 56952380
L126047619 56952380
" />
<path d="M126285714 56476190
L126952380 56476190
" />
<path d="M126380952 56476190
L126333333 56428571
L126285714 56333333
L126285714 56190476
L126333333 56095238
L126428571 56047619
L126952380 56047619
" />
</g><path d="M131500000 55500000
L129413580 55500000
" />
<path d="M131500000 65000000
L129413580 65000000
" />
<path d="M130000000 55500000
L130000000 65000000
" />
<path d="M130000000 55500000
L130000000 65000000
" />
<path d="M130000000 55500000
L129413579 56626504
" />
<path d="M130000000 55500000
L130586421 56626504
" />
<path d="M130000000 65000000
L130586421 63873496
" />
<path d="M130000000 65000000
L129413579 63873496
" />
<text x="137000000.000000" y="122500000.000000"
textLength="7575952.000000" font-size="1333333.000000" lengthAdjust="spacingAndGlyphs"
text-anchor="middle" opacity="0">1.7717 in</text>
<g class="stroked-text"><desc>1.7717 in</desc>
<path d="M134071428 122452380
L133500000 122452380
" />
<path d="M133785714 122452380
L133785714 121452380
L133690476 121595238
L133595238 121690476
L133500000 121738095
" />
<path d="M134500000 122357142
L134547619 122404761
L134500000 122452380
L134452380 122404761
L134500000 122357142
L134500000 122452380
" />
<path d="M134880952 121452380
L135547619 121452380
L135119047 122452380
" />
<path d="M135833333 121452380
L136500000 121452380
L136071428 122452380
" />
<path d="M137404761 122452380
L136833333 122452380
" />
<path d="M137119047 122452380
L137119047 121452380
L137023809 121595238
L136928571 121690476
L136833333 121738095
" />
<path d="M137738095 121452380
L138404761 121452380
L137976190 122452380
" />
<path d="M139547619 122452380
L139547619 121785714
" />
<path d="M139547619 121452380
L139500000 121500000
L139547619 121547619
L139595238 121500000
L139547619 121452380
L139547619 121547619
" />
<path d="M140023809 121785714
L140023809 122452380
" />
<path d="M140023809 121880952
L140071428 121833333
L140166666 121785714
L140309523 121785714
L140404761 121833333
L140452380 121928571
L140452380 122452380
" />
</g><path d="M115000000 119500000
L115000000 122586419
" />
<path d="M160000000 119500000
L160000000 122586419
" />
<path d="M115000000 121999999
L132734524 121999999
" />
<path d="M141265476 121999999
L160000000 121999999
" />
<path d="M115000000 121999999
L116126504 122586420
" />
<path d="M115000000 121999999
L116126504 121413578
" />
<path d="M160000000 121999999
L158873496 121413578
" />
<path d="M160000000 121999999
L158873496 122586420
" />
<g transform="rotate(-90.000000 108250000.000000 86000000.000000)">
<text x="108250000.000000" y="86500000.000000"
textLength="7575952.000000" font-size="1333333.000000" lengthAdjust="spacingAndGlyphs"
text-anchor="middle" opacity="0">1.7057 in</text>
</g>
<g class="stroked-text"><desc>1.7057 in</desc>
<path d="M108702380 88928571
L108702380 89500000
" />
<path d="M108702380 89214285
L107702380 89214285
L107845238 89309523
L107940476 89404761
L107988095 89500000
" />
<path d="M108607142 88500000
L108654761 88452380
L108702380 88500000
L108654761 88547619
L108607142 88500000
L108702380 88500000
" />
<path d="M107702380 88119047
L107702380 87452380
L108702380 87880952
" />
<path d="M107702380 86880952
L107702380 86785714
L107750000 86690476
L107797619 86642857
L107892857 86595238
L108083333 86547619
L108321428 86547619
L108511904 86595238
L108607142 86642857
L108654761 86690476
L108702380 86785714
L108702380 86880952
L108654761 86976190
L108607142 87023809
L108511904 87071428
L108321428 87119047
L108083333 87119047
L107892857 87071428
L107797619 87023809
L107750000 86976190
L107702380 86880952
" />
<path d="M107702380 85642857
L107702380 86119047
L108178571 86166666
L108130952 86119047
L108083333 86023809
L108083333 85785714
L108130952 85690476
L108178571 85642857
L108273809 85595238
L108511904 85595238
L108607142 85642857
L108654761 85690476
L108702380 85785714
L108702380 86023809
L108654761 86119047
L108607142 86166666
" />
<path d="M107702380 85261904
L107702380 84595238
L108702380 85023809
" />
<path d="M108702380 83452380
L108035714 83452380
" />
<path d="M107702380 83452380
L107750000 83500000
L107797619 83452380
L107750000 83404761
L107702380 83452380
L107797619 83452380
" />
<path d="M108035714 82976190
L108702380 82976190
" />
<path d="M108130952 82976190
L108083333 82928571
L108035714 82833333
L108035714 82690476
L108083333 82595238
L108178571 82547619
L108702380 82547619
" />
</g><path d="M137000000 65000000
L107913580 65000000
" />
<path d="M137000000 108325000
L107913580 108325000
" />
<path d="M108500000 65000000
L108500000 81734524
" />
<path d="M108500000 90265476
L108500000 108325000
" />
<path d="M108500000 65000000
L107913579 66126504
" />
<path d="M108500000 65000000
L109086421 66126504
" />
<path d="M108500000 108325000
L109086421 107198496
" />
<path d="M108500000 108325000
L107913579 107198496
" />
<g transform="rotate(-90.000000 129750000.000000 49500000.000000)">
<text x="129750000.000000" y="50000000.000000"
textLength="7575952.000000" font-size="1333333.000000" lengthAdjust="spacingAndGlyphs"
text-anchor="middle" opacity="0">0.0492 in</text>
</g>
<g class="stroked-text"><desc>0.0492 in</desc>
<path d="M129202380 52761904
L129202380 52666666
L129250000 52571428
L129297619 52523809
L129392857 52476190
L129583333 52428571
L129821428 52428571
L130011904 52476190
L130107142 52523809
L130154761 52571428
L130202380 52666666
L130202380 52761904
L130154761 52857142
L130107142 52904761
L130011904 52952380
L129821428 53000000
L129583333 53000000
L129392857 52952380
L129297619 52904761
L129250000 52857142
L129202380 52761904
" />
<path d="M130107142 52000000
L130154761 51952380
L130202380 52000000
L130154761 52047619
L130107142 52000000
L130202380 52000000
" />
<path d="M129202380 51333333
L129202380 51238095
L129250000 51142857
L129297619 51095238
L129392857 51047619
L129583333 51000000
L129821428 51000000
L130011904 51047619
L130107142 51095238
L130154761 51142857
L130202380 51238095
L130202380 51333333
L130154761 51428571
L130107142 51476190
L130011904 51523809
L129821428 51571428
L129583333 51571428
L129392857 51523809
L129297619 51476190
L129250000 51428571
L129202380 51333333
" />
<path d="M129535714 50142857
L130202380 50142857
" />
<path d="M129154761 50380952
L129869047 50619047
L129869047 50000000
" />
<path d="M130202380 49571428
L130202380 49380952
L130154761 49285714
L130107142 49238095
L129964285 49142857
L129773809 49095238
L129392857 49095238
L129297619 49142857
L129250000 49190476
L129202380 49285714
L129202380 49476190
L129250000 49571428
L129297619 49619047
L129392857 49666666
L129630952 49666666
L129726190 49619047
L129773809 49571428
L129821428 49476190
L129821428 49285714
L129773809 49190476
L129726190 49142857
L129630952 49095238
" />
<path d="M129297619 48714285
L129250000 48666666
L129202380 48571428
L129202380 48333333
L129250000 48238095
L129297619 48190476
L129392857 48142857
L129488095 48142857
L129630952 48190476
L130202380 48761904
L130202380 48142857
" />
<path d="M130202380 46952380
L129535714 46952380
" />
<path d="M129202380 46952380
L129250000 47000000
L129297619 46952380
L129250000 46904761
L129202380 46952380
L129297619 46952380
" />
<path d="M129535714 46476190
L130202380 46476190
" />
<path d="M129630952 46476190
L129583333 46428571
L129535714 46333333
L129535714 46190476
L129583333 46095238
L129678571 46047619
L130202380 46047619
" />
</g><path d="M131500000 55500000
L128913580 55500000
" />
<path d="M131500000 54250000
L128913580 54250000
" />
<path d="M129500000 55500000
L129500000 54250000
" />
<path d="M129500000 55500000
L129500000 54250000
" />
<path d="M129500000 55500000
L130086421 54373496
" />
<path d="M129500000 55500000
L128913579 54373496
" />
<path d="M129500000 54250000
L128913579 55376504
" />
<path d="M129500000 54250000
L130086421 55376504
" />
<g transform="rotate(-90.000000 163500000.000000 87500000.000000)">
<text x="163500000.000000" y="88000000.000000"
textLength="7575952.000000" font-size="1333333.000000" lengthAdjust="spacingAndGlyphs"
text-anchor="middle" opacity="0">2.5000 in</text>
</g>
<g class="stroked-text"><desc>2.5000 in</desc>
<path d="M163047619 91000000
L163000000 90952380
L162952380 90857142
L162952380 90619047
L163000000 90523809
L163047619 90476190
L163142857 90428571
L163238095 90428571
L163380952 90476190
L163952380 91047619
L163952380 90428571
" />
<path d="M163857142 90000000
L163904761 89952380
L163952380 90000000
L163904761 90047619
L163857142 90000000
L163952380 90000000
" />
<path d="M162952380 89047619
L162952380 89523809
L163428571 89571428
L163380952 89523809
L163333333 89428571
L163333333 89190476
L163380952 89095238
L163428571 89047619
L163523809 89000000
L163761904 89000000
L163857142 89047619
L163904761 89095238
L163952380 89190476
L163952380 89428571
L163904761 89523809
L163857142 89571428
" />
<path d="M162952380 88380952
L162952380 88285714
L163000000 88190476
L163047619 88142857
L163142857 88095238
L163333333 88047619
L163571428 88047619
L163761904 88095238
L163857142 88142857
L163904761 88190476
L163952380 88285714
L163952380 88380952
L163904761 88476190
L163857142 88523809
L163761904 88571428
L163571428 88619047
L163333333 88619047
L163142857 88571428
L163047619 88523809
L163000000 88476190
L162952380 88380952
" />
<path d="M162952380 87428571
L162952380 87333333
L163000000 87238095
L163047619 87190476
L163142857 87142857
L163333333 87095238
L163571428 87095238
L163761904 87142857
L163857142 87190476
L163904761 87238095
L163952380 87333333
L163952380 87428571
L163904761 87523809
L163857142 87571428
L163761904 87619047
L163571428 87666666
L163333333 87666666
L163142857 87619047
L163047619 87571428
L163000000 87523809
L162952380 87428571
" />
<path d="M162952380 86476190
L162952380 86380952
L163000000 86285714
L163047619 86238095
L163142857 86190476
L163333333 86142857
L163571428 86142857
L163761904 86190476
L163857142 86238095
L163904761 86285714
L163952380 86380952
L163952380 86476190
L163904761 86571428
L163857142 86619047
L163761904 86666666
L163571428 86714285
L163333333 86714285
L163142857 86666666
L163047619 86619047
L163000000 86571428
L162952380 86476190
" />
<path d="M163952380 84952380
L163285714 84952380
" />
<path d="M162952380 84952380
L163000000 85000000
L163047619 84952380
L163000000 84904761
L162952380 84952380
L163047619 84952380
" />
<path d="M163285714 84476190
L163952380 84476190
" />
<path d="M163380952 84476190
L163333333 84428571
L163285714 84333333
L163285714 84190476
L163333333 84095238
L163428571 84047619
L163952380 84047619
" />
</g><path d="M160500000 55500000
L164086420 55500000
" />
<path d="M160500000 119000000
L164086420 119000000
" />
<path d="M163500000 55500000
L163500000 83234524
" />
<path d="M163500000 91765476
L163500000 119000000
" />
<path d="M163500000 55500000
L162913579 56626504
" />
<path d="M163500000 55500000
L164086421 56626504
" />
<path d="M163500000 119000000
L164086421 117873496
" />
<path d="M163500000 119000000
L162913579 117873496
" />
<g transform="rotate(-90.000000 132302000.000000 78000000.000000)">
<text x="132302000.000000" y="78500000.000000"
textLength="9099762.000000" font-size="1333333.000000" lengthAdjust="spacingAndGlyphs"
text-anchor="middle" opacity="0">Shaft insert</text>
</g>
<g class="stroked-text"><desc>Shaft insert</desc>
<path d="M132706761 82261904
L132754380 82119047
L132754380 81880952
L132706761 81785714
L132659142 81738095
L132563904 81690476
L132468666 81690476
L132373428 81738095
L132325809 81785714
L132278190 81880952
L132230571 82071428
L132182952 82166666
L132135333 82214285
L132040095 82261904
L131944857 82261904
L131849619 82214285
L131802000 82166666
L131754380 82071428
L131754380 81833333
L131802000 81690476
" />
<path d="M132754380 81261904
L131754380 81261904
" />
<path d="M132754380 80833333
L132230571 80833333
L132135333 80880952
L132087714 80976190
L132087714 81119047
L132135333 81214285
L132182952 81261904
" />
<path d="M132754380 79928571
L132230571 79928571
L132135333 79976190
L132087714 80071428
L132087714 80261904
L132135333 80357142
" />
<path d="M132706761 79928571
L132754380 80023809
L132754380 80261904
L132706761 80357142
L132611523 80404761
L132516285 80404761
L132421047 80357142
L132373428 80261904
L132373428 80023809
L132325809 79928571
" />
<path d="M132087714 79595238
L132087714 79214285
" />
<path d="M132754380 79452380
L131897238 79452380
L131802000 79404761
L131754380 79309523
L131754380 79214285
" />
<path d="M132087714 79023809
L132087714 78642857
" />
<path d="M131754380 78880952
L132611523 78880952
L132706761 78833333
L132754380 78738095
L132754380 78642857
" />
<path d="M132754380 77547619
L132087714 77547619
" />
<path d="M131754380 77547619
L131802000 77595238
L131849619 77547619
L131802000 77500000
L131754380 77547619
L131849619 77547619
" />
<path d="M132087714 77071428
L132754380 77071428
" />
<path d="M132182952 77071428
L132135333 77023809
L132087714 76928571
L132087714 76785714
L132135333 76690476
L132230571 76642857
L132754380 76642857
" />
<path d="M132706761 76214285
L132754380 76119047
L132754380 75928571
L132706761 75833333
L132611523 75785714
L132563904 75785714
L132468666 75833333
L132421047 75928571
L132421047 76071428
L132373428 76166666
L132278190 76214285
L132230571 76214285
L132135333 76166666
L132087714 76071428
L132087714 75928571
L132135333 75833333
" />
<path d="M132706761 74976190
L132754380 75071428
L132754380 75261904
L132706761 75357142
L132611523 75404761
L132230571 75404761
L132135333 75357142
L132087714 75261904
L132087714 75071428
L132135333 74976190
L132230571 74928571
L132325809 74928571
L132421047 75404761
" />
<path d="M132754380 74500000
L132087714 74500000
" />
<path d="M132278190 74500000
L132182952 74452380
L132135333 74404761
L132087714 74309523
L132087714 74214285
" />
<path d="M132087714 74023809
L132087714 73642857
" />
<path d="M131754380 73880952
L132611523 73880952
L132706761 73833333
L132754380 73738095
L132754380 73642857
" />
</g></g>
<g style="fill:#000000; fill-opacity:0.0; 
stroke:#000000; stroke-width:100000.000000; stroke-opacity:1; 
stroke-linecap:round; stroke-linejoin:round;">
<path d="M130524000 78000000
L131032000 77492000
" />
<path d="M130524000 78000000
L131032000 78508000
" />
<path d="M130524000 78000000
L132302000 78000000
" />
</g>
<g style="fill:#000000; fill-opacity:0.0; 
stroke:#000000; stroke-width:120000.000000; stroke-opacity:1; 
stroke-linecap:round; stroke-linejoin:round;">
<path d="M147550000 78050000
L150450000 78050000
" />
<path d="M149000000 78600000
L149000000 77500000
" />
<path d="M128075000 104800000
L128075000 111850000
" />
<path d="M139000000 97500000
L139000000 97750000
" />
<path d="M146925000 104800000
L146925000 111850000
" />
<path d="M139000000 97750000
L139875000 97750000
" />
<path d="M135125000 97750000
L136000000 97750000
" />
<path d="M136000000 97500000
L136000000 97750000
" />
<path d="M139500000 112325000
L135500000 112325000
" />
<path d="M135500000 112325000
L135500000 108325000
" />
<path d="M139500000 108325000
L139500000 112325000
" />
<path d="M135125000 118900000
L139875000 118900000
" />
<path d="M136000000 97500000
L139000000 97500000
" />
<path d="M146925000.000000 104800000.000000 A7050000.000000 7050000.000000 0.0 0 0 139875000.000000 97750000.000000" />
<path d="M139875000.000000 118900000.000000 A7050000.000000 7050000.000000 0.0 0 0 146925000.000000 111850000.000000" />
<path d="M135125000.000000 97750000.000000 A7050000.000000 7050000.000000 0.0 0 0 128075000.000000 104800000.000000" />
<path d="M139500000.000000 108325000.000000 A2000000.000000 2000000.000000 0.0 0 0 135500000.000000 108325000.000000" />
<path d="M128075000.000000 111850000.000000 A7050000.000000 7050000.000000 0.0 0 0 135125000.000000 118900000.000000" />
<circle cx="137500000.000000" cy="108325000.000000" r="250000.000000" /> 
<path d="M156000000 76600000
L156000000 75500000
" />
<path d="M154550000 76050000
L157450000 76050000
" />
<path d="M119000000 76600000
L119000000 75500000
" />
<path d="M117550000 76050000
L120450000 76050000
" />
<g >
</g>
<g >
</g>
<g >
</g>
<g >
</g>
<g >
</g>
<g >
</g>
<g >
</g>
<g >
</g>
<g >
</g>
<g >
</g>
<g >
</g>
<g >
</g>
<g >
</g>
<g >
</g>
<g >
</g>
<g >
</g>
<g >
</g>
<g >
</g>
<g >
</g>
<g >
</g>
<g >
</g>
<g >
</g>
<g >
</g>
<g >
</g>
<g >
</g>
<g >
</g>
<g >
</g>
<g >
</g>
<g >
</g>
<g >
</g>
<g >
</g>
<g >
</g>
<g >
</g>
<g >
</g>
<g >
</g>
<g >
</g>
<g >
</g>
<g >
</g>
<g >
</g>
<g >
</g>
<g >
</g>
<g >
</g>
<g >
</g>
<g >
</g>
<g >
</g>
<g >
</g>
<g >
</g>
<g >
</g>
<g >
</g>
<g >
</g>
<g >
</g>
<g >
</g>
<g >
</g>
<g >
</g>
<g >
</g>
<g >
</g>
<g >
</g>
<g >
</g>
<g >
</g>
<g >
</g>
<g >
</g>
<g >
</g>
<g >
</g>
<g >
</g>
<g >
</g>
<g >
</g>
<g >
</g>
<g >
</g>
<g >
</g>
<g >
</g>
<g >
</g>
<g >
</g>
<g >
</g>
<g >
</g>
<g >
</g>
<g >
</g>
<g >
</g>
<g >
</g>
<g >
</g>
<g >
</g>
</g> 
</svg>
