<?xml version="1.0" standalone="no"?>
 <!DOCTYPE svg PUBLIC "-//W3C//DTD SVG 1.1//EN" 
 "http://www.w3.org/Graphics/SVG/1.1/DTD/svg11.dtd"> 
<svg
  xmlns:svg="http://www.w3.org/2000/svg"
  xmlns="http://www.w3.org/2000/svg"
  xmlns:xlink="http://www.w3.org/1999/xlink"
  version="1.1"
  width="29.700220cm" height="21.000720cm" viewBox="0 0 297002200 210007200">
<title>SVG Picture created as redshift-F_Silkscreen.svg date 2022/10/07 12:24:09 </title>
  <desc>Picture generated by PCBNEW </desc>
<g style="fill:#000000; fill-opacity:1.000000;stroke:#000000; stroke-opacity:1.000000;
stroke-linecap:round; stroke-linejoin:round;"
 transform="translate(0 0) scale(1 1)">
</g>
<g style="fill:#000000; fill-opacity:0.0; 
stroke:#000000; stroke-width:0.000000; stroke-opacity:1; 
stroke-linecap:round; stroke-linejoin:round;">
</g>
<g style="fill:#000000; fill-opacity:0.0; 
stroke:#000000; stroke-width:187500.000000; stroke-opacity:1; 
stroke-linecap:round; stroke-linejoin:round;">
<text x="156250000.000000" y="110875000.000000"
textLength="2302143.000000" font-size="1000000.000000" lengthAdjust="spacingAndGlyphs"
text-anchor="end" opacity="0">CLK</text>
<g class="stroked-text"><desc>CLK</desc>
<path d="M154628125 110767857
L154592410 110803571
L154485267 110839285
L154413839 110839285
L154306696 110803571
L154235267 110732142
L154199553 110660714
L154163839 110517857
L154163839 110410714
L154199553 110267857
L154235267 110196428
L154306696 110125000
L154413839 110089285
L154485267 110089285
L154592410 110125000
L154628125 110160714
" />
<path d="M155306696 110839285
L154949553 110839285
L154949553 110089285
" />
<path d="M155556696 110839285
L155556696 110089285
" />
<path d="M155985267 110839285
L155663839 110410714
" />
<path d="M155985267 110089285
L155556696 110517857
" />
</g><text x="156000000.000000" y="106875000.000000"
textLength="2136607.000000" font-size="1000000.000000" lengthAdjust="spacingAndGlyphs"
text-anchor="end" opacity="0">DIO</text>
<g class="stroked-text"><desc>DIO</desc>
<path d="M154163839 106839285
L154163839 106089285
L154342410 106089285
L154449553 106125000
L154520982 106196428
L154556696 106267857
L154592410 106410714
L154592410 106517857
L154556696 106660714
L154520982 106732142
L154449553 106803571
L154342410 106839285
L154163839 106839285
" />
<path d="M154913839 106839285
L154913839 106089285
" />
<path d="M155413839 106089285
L155556696 106089285
L155628125 106125000
L155699553 106196428
L155735267 106339285
L155735267 106589285
L155699553 106732142
L155628125 106803571
L155556696 106839285
L155413839 106839285
L155342410 106803571
L155270982 106732142
L155235267 106589285
L155235267 106339285
L155270982 106196428
L155342410 106125000
L155413839 106089285
" />
</g><text x="156000000.000000" y="102875000.000000"
textLength="2029464.000000" font-size="1000000.000000" lengthAdjust="spacingAndGlyphs"
text-anchor="end" opacity="0">VIN</text>
<g class="stroked-text"><desc>VIN</desc>
<path d="M154163839 102089285
L154413839 102839285
L154663839 102089285
" />
<path d="M154913839 102839285
L154913839 102089285
" />
<path d="M155270982 102839285
L155270982 102089285
L155699553 102839285
L155699553 102089285
" />
</g><text x="156250000.000000" y="100875000.000000"
textLength="2529464.000000" font-size="1000000.000000" lengthAdjust="spacingAndGlyphs"
text-anchor="end" opacity="0">GND</text>
<g class="stroked-text"><desc>GND</desc>
<path d="M154413839 100125000
L154342410 100089285
L154235267 100089285
L154128125 100125000
L154056696 100196428
L154020982 100267857
L153985267 100410714
L153985267 100517857
L154020982 100660714
L154056696 100732142
L154128125 100803571
L154235267 100839285
L154306696 100839285
L154413839 100803571
L154449553 100767857
L154449553 100517857
L154306696 100517857
" />
<path d="M154770982 100839285
L154770982 100089285
L155199553 100839285
L155199553 100089285
" />
<path d="M155556696 100839285
L155556696 100089285
L155735267 100089285
L155842410 100125000
L155913839 100196428
L155949553 100267857
L155985267 100410714
L155985267 100517857
L155949553 100660714
L155913839 100732142
L155842410 100803571
L155735267 100839285
L155556696 100839285
" />
</g><text x="156250000.000000" y="108875000.000000"
textLength="2600893.000000" font-size="1000000.000000" lengthAdjust="spacingAndGlyphs"
text-anchor="end" opacity="0">SWO</text>
<g class="stroked-text"><desc>SWO</desc>
<path d="M153913839 108803571
L154020982 108839285
L154199553 108839285
L154270982 108803571
L154306696 108767857
L154342410 108696428
L154342410 108625000
L154306696 108553571
L154270982 108517857
L154199553 108482142
L154056696 108446428
L153985267 108410714
L153949553 108375000
L153913839 108303571
L153913839 108232142
L153949553 108160714
L153985267 108125000
L154056696 108089285
L154235267 108089285
L154342410 108125000
" />
<path d="M154592410 108089285
L154770982 108839285
L154913839 108303571
L155056696 108839285
L155235267 108089285
" />
<path d="M155663839 108089285
L155806696 108089285
L155878125 108125000
L155949553 108196428
L155985267 108339285
L155985267 108589285
L155949553 108732142
L155878125 108803571
L155806696 108839285
L155663839 108839285
L155592410 108803571
L155520982 108732142
L155485267 108589285
L155485267 108339285
L155520982 108196428
L155592410 108125000
L155663839 108089285
" />
</g><text x="156000000.000000" y="104875000.000000"
textLength="2279464.000000" font-size="1000000.000000" lengthAdjust="spacingAndGlyphs"
text-anchor="end" opacity="0">RST</text>
<g class="stroked-text"><desc>RST</desc>
<path d="M154449553 104839285
L154199553 104482142
" />
<path d="M154020982 104839285
L154020982 104089285
L154306696 104089285
L154378125 104125000
L154413839 104160714
L154449553 104232142
L154449553 104339285
L154413839 104410714
L154378125 104446428
L154306696 104482142
L154020982 104482142
" />
<path d="M154735267 104803571
L154842410 104839285
L155020982 104839285
L155092410 104803571
L155128125 104767857
L155163839 104696428
L155163839 104625000
L155128125 104553571
L155092410 104517857
L155020982 104482142
L154878125 104446428
L154806696 104410714
L154770982 104375000
L154735267 104303571
L154735267 104232142
L154770982 104160714
L154806696 104125000
L154878125 104089285
L155056696 104089285
L155163839 104125000
" />
<path d="M155378125 104089285
L155806696 104089285
" />
<path d="M155592410 104839285
L155592410 104089285
" />
</g></g>
<g style="fill:#000000; fill-opacity:0.0; 
stroke:#000000; stroke-width:150000.000000; stroke-opacity:1; 
stroke-linecap:round; stroke-linejoin:round;">
<text x="145000000.000000" y="97500000.000000"
textLength="2196131.000000" font-size="1333333.000000" lengthAdjust="spacingAndGlyphs"
text-anchor="middle" opacity="0">R6</text>
<g class="stroked-text"><desc>R6</desc>
<path d="M144833333 97452380
L144500000 96976190
" />
<path d="M144261904 97452380
L144261904 96452380
L144642857 96452380
L144738095 96500000
L144785714 96547619
L144833333 96642857
L144833333 96785714
L144785714 96880952
L144738095 96928571
L144642857 96976190
L144261904 96976190
" />
<path d="M145690476 96452380
L145500000 96452380
L145404761 96500000
L145357142 96547619
L145261904 96690476
L145214285 96880952
L145214285 97261904
L145261904 97357142
L145309523 97404761
L145404761 97452380
L145595238 97452380
L145690476 97404761
L145738095 97357142
L145785714 97261904
L145785714 97023809
L145738095 96928571
L145690476 96880952
L145595238 96833333
L145404761 96833333
L145309523 96880952
L145261904 96928571
L145214285 97023809
" />
</g><text x="145770000.000000" y="93000000.000000"
textLength="3099762.000000" font-size="1333333.000000" lengthAdjust="spacingAndGlyphs"
text-anchor="middle" opacity="0">C24</text>
<g class="stroked-text"><desc>C24</desc>
<path d="M145127142 92857142
L145079523 92904761
L144936666 92952380
L144841428 92952380
L144698571 92904761
L144603333 92809523
L144555714 92714285
L144508095 92523809
L144508095 92380952
L144555714 92190476
L144603333 92095238
L144698571 92000000
L144841428 91952380
L144936666 91952380
L145079523 92000000
L145127142 92047619
" />
<path d="M145508095 92047619
L145555714 92000000
L145650952 91952380
L145889047 91952380
L145984285 92000000
L146031904 92047619
L146079523 92142857
L146079523 92238095
L146031904 92380952
L145460476 92952380
L146079523 92952380
" />
<path d="M146936666 92285714
L146936666 92952380
" />
<path d="M146698571 91904761
L146460476 92619047
L147079523 92619047
" />
</g></g>
<g style="fill:#000000; fill-opacity:0.0; 
stroke:#000000; stroke-width:125000.000000; stroke-opacity:1; 
stroke-linecap:round; stroke-linejoin:round;">
<text x="129500000.000000" y="91750000.000000"
textLength="3099762.000000" font-size="1333333.000000" lengthAdjust="spacingAndGlyphs"
text-anchor="middle" opacity="0">C11</text>
<g class="stroked-text"><desc>C11</desc>
<path d="M128857142 91678571
L128809523 91702380
L128666666 91726190
L128571428 91726190
L128428571 91702380
L128333333 91654761
L128285714 91607142
L128238095 91511904
L128238095 91440476
L128285714 91345238
L128333333 91297619
L128428571 91250000
L128571428 91226190
L128666666 91226190
L128809523 91250000
L128857142 91273809
" />
<path d="M129809523 91726190
L129238095 91726190
" />
<path d="M129523809 91726190
L129523809 91226190
L129428571 91297619
L129333333 91345238
L129238095 91369047
" />
<path d="M130761904 91726190
L130190476 91726190
" />
<path d="M130476190 91726190
L130476190 91226190
L130380952 91297619
L130285714 91345238
L130190476 91369047
" />
</g><text x="129500000.000000" y="89750000.000000"
textLength="3067262.000000" font-size="1333333.000000" lengthAdjust="spacingAndGlyphs"
text-anchor="middle" opacity="0">C13</text>
<g class="stroked-text"><desc>C13</desc>
<path d="M128857142 89678571
L128809523 89702380
L128666666 89726190
L128571428 89726190
L128428571 89702380
L128333333 89654761
L128285714 89607142
L128238095 89511904
L128238095 89440476
L128285714 89345238
L128333333 89297619
L128428571 89250000
L128571428 89226190
L128666666 89226190
L128809523 89250000
L128857142 89273809
" />
<path d="M129809523 89726190
L129238095 89726190
" />
<path d="M129523809 89726190
L129523809 89226190
L129428571 89297619
L129333333 89345238
L129238095 89369047
" />
<path d="M130142857 89226190
L130761904 89226190
L130428571 89416666
L130571428 89416666
L130666666 89440476
L130714285 89464285
L130761904 89511904
L130761904 89630952
L130714285 89678571
L130666666 89702380
L130571428 89726190
L130285714 89726190
L130190476 89702380
L130142857 89678571
" />
</g></g>
<g style="fill:#000000; fill-opacity:0.0; 
stroke:#000000; stroke-width:150000.000000; stroke-opacity:1; 
stroke-linecap:round; stroke-linejoin:round;">
<text x="149000000.000000" y="66440000.000000"
textLength="3067262.000000" font-size="1333333.000000" lengthAdjust="spacingAndGlyphs"
text-anchor="middle" opacity="0">C10</text>
<g class="stroked-text"><desc>C10</desc>
<path d="M148357142 66297142
L148309523 66344761
L148166666 66392380
L148071428 66392380
L147928571 66344761
L147833333 66249523
L147785714 66154285
L147738095 65963809
L147738095 65820952
L147785714 65630476
L147833333 65535238
L147928571 65440000
L148071428 65392380
L148166666 65392380
L148309523 65440000
L148357142 65487619
" />
<path d="M149309523 66392380
L148738095 66392380
" />
<path d="M149023809 66392380
L149023809 65392380
L148928571 65535238
L148833333 65630476
L148738095 65678095
" />
<path d="M149928571 65392380
L150023809 65392380
L150119047 65440000
L150166666 65487619
L150214285 65582857
L150261904 65773333
L150261904 66011428
L150214285 66201904
L150166666 66297142
L150119047 66344761
L150023809 66392380
L149928571 66392380
L149833333 66344761
L149785714 66297142
L149738095 66201904
L149690476 66011428
L149690476 65773333
L149738095 65582857
L149785714 65487619
L149833333 65440000
L149928571 65392380
" />
</g><g transform="rotate(-90.000000 123920000.000000 78000000.000000)">
<text x="123920000.000000" y="78500000.000000"
textLength="4099762.000000" font-size="1333333.000000" lengthAdjust="spacingAndGlyphs"
text-anchor="middle" opacity="0">ENC1</text>
</g>
<g class="stroked-text"><desc>ENC1</desc>
<path d="M123848571 79714285
L123848571 79380952
" />
<path d="M124372380 79238095
L124372380 79714285
L123372380 79714285
L123372380 79238095
" />
<path d="M124372380 78809523
L123372380 78809523
L124372380 78238095
L123372380 78238095
" />
<path d="M124277142 77190476
L124324761 77238095
L124372380 77380952
L124372380 77476190
L124324761 77619047
L124229523 77714285
L124134285 77761904
L123943809 77809523
L123800952 77809523
L123610476 77761904
L123515238 77714285
L123420000 77619047
L123372380 77476190
L123372380 77380952
L123420000 77238095
L123467619 77190476
" />
<path d="M124372380 76238095
L124372380 76809523
" />
<path d="M124372380 76523809
L123372380 76523809
L123515238 76619047
L123610476 76714285
L123658095 76809523
" />
</g><text x="136270000.000000" y="87000000.000000"
textLength="3099762.000000" font-size="1333333.000000" lengthAdjust="spacingAndGlyphs"
text-anchor="middle" opacity="0">C14</text>
<g class="stroked-text"><desc>C14</desc>
<path d="M135627142 86857142
L135579523 86904761
L135436666 86952380
L135341428 86952380
L135198571 86904761
L135103333 86809523
L135055714 86714285
L135008095 86523809
L135008095 86380952
L135055714 86190476
L135103333 86095238
L135198571 86000000
L135341428 85952380
L135436666 85952380
L135579523 86000000
L135627142 86047619
" />
<path d="M136579523 86952380
L136008095 86952380
" />
<path d="M136293809 86952380
L136293809 85952380
L136198571 86095238
L136103333 86190476
L136008095 86238095
" />
<path d="M137436666 86285714
L137436666 86952380
" />
<path d="M137198571 85904761
L136960476 86619047
L137579523 86619047
" />
</g><text x="150500000.000000" y="109625000.000000"
textLength="3099762.000000" font-size="1333333.000000" lengthAdjust="spacingAndGlyphs"
text-anchor="middle" opacity="0">C20</text>
<g class="stroked-text"><desc>C20</desc>
<path d="M149857142 109517857
L149809523 109553571
L149666666 109589285
L149571428 109589285
L149428571 109553571
L149333333 109482142
L149285714 109410714
L149238095 109267857
L149238095 109160714
L149285714 109017857
L149333333 108946428
L149428571 108875000
L149571428 108839285
L149666666 108839285
L149809523 108875000
L149857142 108910714
" />
<path d="M150238095 108910714
L150285714 108875000
L150380952 108839285
L150619047 108839285
L150714285 108875000
L150761904 108910714
L150809523 108982142
L150809523 109053571
L150761904 109160714
L150190476 109589285
L150809523 109589285
" />
<path d="M151428571 108839285
L151523809 108839285
L151619047 108875000
L151666666 108910714
L151714285 108982142
L151761904 109125000
L151761904 109303571
L151714285 109446428
L151666666 109517857
L151619047 109553571
L151523809 109589285
L151428571 109589285
L151333333 109553571
L151285714 109517857
L151238095 109446428
L151190476 109303571
L151190476 109125000
L151238095 108982142
L151285714 108910714
L151333333 108875000
L151428571 108839285
" />
</g><text x="145250000.000000" y="94250000.000000"
textLength="2147381.000000" font-size="1333333.000000" lengthAdjust="spacingAndGlyphs"
text-anchor="middle" opacity="0">D3</text>
<g class="stroked-text"><desc>D3</desc>
<path d="M144511904 94202380
L144511904 93202380
L144750000 93202380
L144892857 93250000
L144988095 93345238
L145035714 93440476
L145083333 93630952
L145083333 93773809
L145035714 93964285
L144988095 94059523
L144892857 94154761
L144750000 94202380
L144511904 94202380
" />
<path d="M145416666 93202380
L146035714 93202380
L145702380 93583333
L145845238 93583333
L145940476 93630952
L145988095 93678571
L146035714 93773809
L146035714 94011904
L145988095 94107142
L145940476 94154761
L145845238 94202380
L145559523 94202380
L145464285 94154761
L145416666 94107142
" />
</g><text x="132500000.000000" y="85500000.000000"
textLength="1956905.000000" font-size="1333333.000000" lengthAdjust="spacingAndGlyphs"
text-anchor="middle" opacity="0">L1</text>
<g class="stroked-text"><desc>L1</desc>
<path d="M132333333 85452380
L131857142 85452380
L131857142 84452380
" />
<path d="M133190476 85452380
L132619047 85452380
" />
<path d="M132904761 85452380
L132904761 84452380
L132809523 84595238
L132714285 84690476
L132619047 84738095
" />
</g><text x="143000000.000000" y="97500000.000000"
textLength="2147381.000000" font-size="1333333.000000" lengthAdjust="spacingAndGlyphs"
text-anchor="middle" opacity="0">D4</text>
<g class="stroked-text"><desc>D4</desc>
<path d="M142261904 97452380
L142261904 96452380
L142500000 96452380
L142642857 96500000
L142738095 96595238
L142785714 96690476
L142833333 96880952
L142833333 97023809
L142785714 97214285
L142738095 97309523
L142642857 97404761
L142500000 97452380
L142261904 97452380
" />
<path d="M143690476 96785714
L143690476 97452380
" />
<path d="M143452380 96404761
L143214285 97119047
L143833333 97119047
" />
</g></g>
<g style="fill:#000000; fill-opacity:0.0; 
stroke:#000000; stroke-width:125000.000000; stroke-opacity:1; 
stroke-linecap:round; stroke-linejoin:round;">
<text x="135980000.000000" y="99250000.000000"
textLength="2147381.000000" font-size="1333333.000000" lengthAdjust="spacingAndGlyphs"
text-anchor="middle" opacity="0">C4</text>
<g class="stroked-text"><desc>C4</desc>
<path d="M135813333 99178571
L135765714 99202380
L135622857 99226190
L135527619 99226190
L135384761 99202380
L135289523 99154761
L135241904 99107142
L135194285 99011904
L135194285 98940476
L135241904 98845238
L135289523 98797619
L135384761 98750000
L135527619 98726190
L135622857 98726190
L135765714 98750000
L135813333 98773809
" />
<path d="M136670476 98892857
L136670476 99226190
" />
<path d="M136432380 98702380
L136194285 99059523
L136813333 99059523
" />
</g></g>
<g style="fill:#000000; fill-opacity:0.0; 
stroke:#000000; stroke-width:150000.000000; stroke-opacity:1; 
stroke-linecap:round; stroke-linejoin:round;">
<g transform="rotate(-90.000000 146500000.000000 88000000.000000)">
<text x="146500000.000000" y="88500000.000000"
textLength="3067262.000000" font-size="1333333.000000" lengthAdjust="spacingAndGlyphs"
text-anchor="middle" opacity="0">C15</text>
</g>
<g class="stroked-text"><desc>C15</desc>
<path d="M146857142 88642857
L146904761 88690476
L146952380 88833333
L146952380 88928571
L146904761 89071428
L146809523 89166666
L146714285 89214285
L146523809 89261904
L146380952 89261904
L146190476 89214285
L146095238 89166666
L146000000 89071428
L145952380 88928571
L145952380 88833333
L146000000 88690476
L146047619 88642857
" />
<path d="M146952380 87690476
L146952380 88261904
" />
<path d="M146952380 87976190
L145952380 87976190
L146095238 88071428
L146190476 88166666
L146238095 88261904
" />
<path d="M145952380 86785714
L145952380 87261904
L146428571 87309523
L146380952 87261904
L146333333 87166666
L146333333 86928571
L146380952 86833333
L146428571 86785714
L146523809 86738095
L146761904 86738095
L146857142 86785714
L146904761 86833333
L146952380 86928571
L146952380 87166666
L146904761 87261904
L146857142 87309523
" />
</g><text x="122250000.000000" y="86500000.000000"
textLength="2147381.000000" font-size="1333333.000000" lengthAdjust="spacingAndGlyphs"
text-anchor="middle" opacity="0">R4</text>
<g class="stroked-text"><desc>R4</desc>
<path d="M122083333 86452380
L121750000 85976190
" />
<path d="M121511904 86452380
L121511904 85452380
L121892857 85452380
L121988095 85500000
L122035714 85547619
L122083333 85642857
L122083333 85785714
L122035714 85880952
L121988095 85928571
L121892857 85976190
L121511904 85976190
" />
<path d="M122940476 85785714
L122940476 86452380
" />
<path d="M122702380 85404761
L122464285 86119047
L123083333 86119047
" />
</g><text x="142900000.000000" y="69220000.000000"
textLength="1475000.000000" font-size="853333.000000" lengthAdjust="spacingAndGlyphs"
text-anchor="middle" opacity="0">U2</text>
<g class="stroked-text"><desc>U2</desc>
<path d="M142412380 68549523
L142412380 69067619
L142442857 69128571
L142473333 69159047
L142534285 69189523
L142656190 69189523
L142717142 69159047
L142747619 69128571
L142778095 69067619
L142778095 68549523
" />
<path d="M143052380 68610476
L143082857 68580000
L143143809 68549523
L143296190 68549523
L143357142 68580000
L143387619 68610476
L143418095 68671428
L143418095 68732380
L143387619 68823809
L143021904 69189523
L143418095 69189523
" />
</g><text x="143020000.000000" y="84840000.000000"
textLength="3099762.000000" font-size="1333333.000000" lengthAdjust="spacingAndGlyphs"
text-anchor="middle" opacity="0">C23</text>
<g class="stroked-text"><desc>C23</desc>
<path d="M142377142 84697142
L142329523 84744761
L142186666 84792380
L142091428 84792380
L141948571 84744761
L141853333 84649523
L141805714 84554285
L141758095 84363809
L141758095 84220952
L141805714 84030476
L141853333 83935238
L141948571 83840000
L142091428 83792380
L142186666 83792380
L142329523 83840000
L142377142 83887619
" />
<path d="M142758095 83887619
L142805714 83840000
L142900952 83792380
L143139047 83792380
L143234285 83840000
L143281904 83887619
L143329523 83982857
L143329523 84078095
L143281904 84220952
L142710476 84792380
L143329523 84792380
" />
<path d="M143662857 83792380
L144281904 83792380
L143948571 84173333
L144091428 84173333
L144186666 84220952
L144234285 84268571
L144281904 84363809
L144281904 84601904
L144234285 84697142
L144186666 84744761
L144091428 84792380
L143805714 84792380
L143710476 84744761
L143662857 84697142
" />
</g><text x="145250000.000000" y="90640000.000000"
textLength="2147381.000000" font-size="1333333.000000" lengthAdjust="spacingAndGlyphs"
text-anchor="middle" opacity="0">C6</text>
<g class="stroked-text"><desc>C6</desc>
<path d="M145083333 90497142
L145035714 90544761
L144892857 90592380
L144797619 90592380
L144654761 90544761
L144559523 90449523
L144511904 90354285
L144464285 90163809
L144464285 90020952
L144511904 89830476
L144559523 89735238
L144654761 89640000
L144797619 89592380
L144892857 89592380
L145035714 89640000
L145083333 89687619
" />
<path d="M145940476 89592380
L145750000 89592380
L145654761 89640000
L145607142 89687619
L145511904 89830476
L145464285 90020952
L145464285 90401904
L145511904 90497142
L145559523 90544761
L145654761 90592380
L145845238 90592380
L145940476 90544761
L145988095 90497142
L146035714 90401904
L146035714 90163809
L145988095 90068571
L145940476 90020952
L145845238 89973333
L145654761 89973333
L145559523 90020952
L145511904 90068571
L145464285 90163809
" />
</g><text x="129028497.000000" y="110548291.000000"
textLength="2147381.000000" font-size="1333333.000000" lengthAdjust="spacingAndGlyphs"
text-anchor="middle" opacity="0">D5</text>
<g class="stroked-text"><desc>D5</desc>
<path d="M128290401 110500671
L128290401 109500671
L128528497 109500671
L128671354 109548291
L128766592 109643529
L128814211 109738767
L128861830 109929243
L128861830 110072100
L128814211 110262576
L128766592 110357814
L128671354 110453052
L128528497 110500671
L128290401 110500671
" />
<path d="M129766592 109500671
L129290401 109500671
L129242782 109976862
L129290401 109929243
L129385639 109881624
L129623735 109881624
L129718973 109929243
L129766592 109976862
L129814211 110072100
L129814211 110310195
L129766592 110405433
L129718973 110453052
L129623735 110500671
L129385639 110500671
L129290401 110453052
L129242782 110405433
" />
</g></g>
<g style="fill:#000000; fill-opacity:0.0; 
stroke:#000000; stroke-width:125000.000000; stroke-opacity:1; 
stroke-linecap:round; stroke-linejoin:round;">
<text x="129500000.000000" y="90750000.000000"
textLength="3099762.000000" font-size="1333333.000000" lengthAdjust="spacingAndGlyphs"
text-anchor="middle" opacity="0">C12</text>
<g class="stroked-text"><desc>C12</desc>
<path d="M128857142 90678571
L128809523 90702380
L128666666 90726190
L128571428 90726190
L128428571 90702380
L128333333 90654761
L128285714 90607142
L128238095 90511904
L128238095 90440476
L128285714 90345238
L128333333 90297619
L128428571 90250000
L128571428 90226190
L128666666 90226190
L128809523 90250000
L128857142 90273809
" />
<path d="M129809523 90726190
L129238095 90726190
" />
<path d="M129523809 90726190
L129523809 90226190
L129428571 90297619
L129333333 90345238
L129238095 90369047
" />
<path d="M130190476 90273809
L130238095 90250000
L130333333 90226190
L130571428 90226190
L130666666 90250000
L130714285 90273809
L130761904 90321428
L130761904 90369047
L130714285 90440476
L130142857 90726190
L130761904 90726190
" />
</g></g>
<g style="fill:#000000; fill-opacity:0.0; 
stroke:#000000; stroke-width:150000.000000; stroke-opacity:1; 
stroke-linecap:round; stroke-linejoin:round;">
<text x="152750000.000000" y="104600000.000000"
textLength="3210119.000000" font-size="1333333.000000" lengthAdjust="spacingAndGlyphs"
text-anchor="middle" opacity="0">SW4</text>
<g class="stroked-text"><desc>SW4</desc>
<path d="M151416666 104504761
L151559523 104552380
L151797619 104552380
L151892857 104504761
L151940476 104457142
L151988095 104361904
L151988095 104266666
L151940476 104171428
L151892857 104123809
L151797619 104076190
L151607142 104028571
L151511904 103980952
L151464285 103933333
L151416666 103838095
L151416666 103742857
L151464285 103647619
L151511904 103600000
L151607142 103552380
L151845238 103552380
L151988095 103600000
" />
<path d="M152321428 103552380
L152559523 104552380
L152750000 103838095
L152940476 104552380
L153178571 103552380
" />
<path d="M153988095 103885714
L153988095 104552380
" />
<path d="M153750000 103504761
L153511904 104219047
L154130952 104219047
" />
</g><text x="150500000.000000" y="106625000.000000"
textLength="3099762.000000" font-size="1333333.000000" lengthAdjust="spacingAndGlyphs"
text-anchor="middle" opacity="0">C22</text>
<g class="stroked-text"><desc>C22</desc>
<path d="M149857142 106517857
L149809523 106553571
L149666666 106589285
L149571428 106589285
L149428571 106553571
L149333333 106482142
L149285714 106410714
L149238095 106267857
L149238095 106160714
L149285714 106017857
L149333333 105946428
L149428571 105875000
L149571428 105839285
L149666666 105839285
L149809523 105875000
L149857142 105910714
" />
<path d="M150238095 105910714
L150285714 105875000
L150380952 105839285
L150619047 105839285
L150714285 105875000
L150761904 105910714
L150809523 105982142
L150809523 106053571
L150761904 106160714
L150190476 106589285
L150809523 106589285
" />
<path d="M151190476 105910714
L151238095 105875000
L151333333 105839285
L151571428 105839285
L151666666 105875000
L151714285 105910714
L151761904 105982142
L151761904 106053571
L151714285 106160714
L151142857 106589285
L151761904 106589285
" />
</g><text x="120250000.000000" y="86580000.000000"
textLength="2147381.000000" font-size="1333333.000000" lengthAdjust="spacingAndGlyphs"
text-anchor="middle" opacity="0">D2</text>
<g class="stroked-text"><desc>D2</desc>
<path d="M119511904 86532380
L119511904 85532380
L119750000 85532380
L119892857 85580000
L119988095 85675238
L120035714 85770476
L120083333 85960952
L120083333 86103809
L120035714 86294285
L119988095 86389523
L119892857 86484761
L119750000 86532380
L119511904 86532380
" />
<path d="M120464285 85627619
L120511904 85580000
L120607142 85532380
L120845238 85532380
L120940476 85580000
L120988095 85627619
L121035714 85722857
L121035714 85818095
L120988095 85960952
L120416666 86532380
L121035714 86532380
" />
</g><g transform="rotate(-90.000000 159000000.000000 95000000.000000)">
<text x="159000000.000000" y="95500000.000000"
textLength="2147381.000000" font-size="1333333.000000" lengthAdjust="spacingAndGlyphs"
text-anchor="middle" opacity="0">D7</text>
</g>
<g class="stroked-text"><desc>D7</desc>
<path d="M159452380 95738095
L158452380 95738095
L158452380 95500000
L158500000 95357142
L158595238 95261904
L158690476 95214285
L158880952 95166666
L159023809 95166666
L159214285 95214285
L159309523 95261904
L159404761 95357142
L159452380 95500000
L159452380 95738095
" />
<path d="M158452380 94833333
L158452380 94166666
L159452380 94595238
" />
</g><text x="149000000.000000" y="88500000.000000"
textLength="3242619.000000" font-size="1333333.000000" lengthAdjust="spacingAndGlyphs"
text-anchor="middle" opacity="0">SW3</text>
<g class="stroked-text"><desc>SW3</desc>
<path d="M147666666 88404761
L147809523 88452380
L148047619 88452380
L148142857 88404761
L148190476 88357142
L148238095 88261904
L148238095 88166666
L148190476 88071428
L148142857 88023809
L148047619 87976190
L147857142 87928571
L147761904 87880952
L147714285 87833333
L147666666 87738095
L147666666 87642857
L147714285 87547619
L147761904 87500000
L147857142 87452380
L148095238 87452380
L148238095 87500000
" />
<path d="M148571428 87452380
L148809523 88452380
L149000000 87738095
L149190476 88452380
L149428571 87452380
" />
<path d="M149714285 87452380
L150333333 87452380
L150000000 87833333
L150142857 87833333
L150238095 87880952
L150285714 87928571
L150333333 88023809
L150333333 88261904
L150285714 88357142
L150238095 88404761
L150142857 88452380
L149857142 88452380
L149761904 88404761
L149714285 88357142
" />
</g></g>
<g style="fill:#000000; fill-opacity:0.0; 
stroke:#000000; stroke-width:125000.000000; stroke-opacity:1; 
stroke-linecap:round; stroke-linejoin:round;">
<text x="133892164.000000" y="99250000.000000"
textLength="2147381.000000" font-size="1333333.000000" lengthAdjust="spacingAndGlyphs"
text-anchor="middle" opacity="0">C3</text>
<g class="stroked-text"><desc>C3</desc>
<path d="M133725497 99178571
L133677878 99202380
L133535021 99226190
L133439783 99226190
L133296925 99202380
L133201687 99154761
L133154068 99107142
L133106449 99011904
L133106449 98940476
L133154068 98845238
L133201687 98797619
L133296925 98750000
L133439783 98726190
L133535021 98726190
L133677878 98750000
L133725497 98773809
" />
<path d="M134058830 98726190
L134677878 98726190
L134344544 98916666
L134487402 98916666
L134582640 98940476
L134630259 98964285
L134677878 99011904
L134677878 99130952
L134630259 99178571
L134582640 99202380
L134487402 99226190
L134201687 99226190
L134106449 99202380
L134058830 99178571
" />
</g></g>
<g style="fill:#000000; fill-opacity:0.0; 
stroke:#000000; stroke-width:150000.000000; stroke-opacity:1; 
stroke-linecap:round; stroke-linejoin:round;">
<text x="126990000.000000" y="110580000.000000"
textLength="2114881.000000" font-size="1333333.000000" lengthAdjust="spacingAndGlyphs"
text-anchor="middle" opacity="0">R7</text>
<g class="stroked-text"><desc>R7</desc>
<path d="M126823333 110532380
L126490000 110056190
" />
<path d="M126251904 110532380
L126251904 109532380
L126632857 109532380
L126728095 109580000
L126775714 109627619
L126823333 109722857
L126823333 109865714
L126775714 109960952
L126728095 110008571
L126632857 110056190
L126251904 110056190
" />
<path d="M127156666 109532380
L127823333 109532380
L127394761 110532380
" />
</g><text x="149250000.000000" y="69870000.000000"
textLength="2147381.000000" font-size="1333333.000000" lengthAdjust="spacingAndGlyphs"
text-anchor="middle" opacity="0">D6</text>
<g class="stroked-text"><desc>D6</desc>
<path d="M148511904 69822380
L148511904 68822380
L148750000 68822380
L148892857 68870000
L148988095 68965238
L149035714 69060476
L149083333 69250952
L149083333 69393809
L149035714 69584285
L148988095 69679523
L148892857 69774761
L148750000 69822380
L148511904 69822380
" />
<path d="M149940476 68822380
L149750000 68822380
L149654761 68870000
L149607142 68917619
L149511904 69060476
L149464285 69250952
L149464285 69631904
L149511904 69727142
L149559523 69774761
L149654761 69822380
L149845238 69822380
L149940476 69774761
L149988095 69727142
L150035714 69631904
L150035714 69393809
L149988095 69298571
L149940476 69250952
L149845238 69203333
L149654761 69203333
L149559523 69250952
L149511904 69298571
L149464285 69393809
" />
</g></g>
<g style="fill:#000000; fill-opacity:0.0; 
stroke:#000000; stroke-width:125000.000000; stroke-opacity:1; 
stroke-linecap:round; stroke-linejoin:round;">
<text x="147500000.000000" y="103375000.000000"
textLength="3099762.000000" font-size="1333333.000000" lengthAdjust="spacingAndGlyphs"
text-anchor="middle" opacity="0">C17</text>
<g class="stroked-text"><desc>C17</desc>
<path d="M146857142 103267857
L146809523 103303571
L146666666 103339285
L146571428 103339285
L146428571 103303571
L146333333 103232142
L146285714 103160714
L146238095 103017857
L146238095 102910714
L146285714 102767857
L146333333 102696428
L146428571 102625000
L146571428 102589285
L146666666 102589285
L146809523 102625000
L146857142 102660714
" />
<path d="M147809523 103339285
L147238095 103339285
" />
<path d="M147523809 103339285
L147523809 102589285
L147428571 102696428
L147333333 102767857
L147238095 102803571
" />
<path d="M148142857 102589285
L148809523 102589285
L148380952 103339285
" />
</g><text x="137980000.000000" y="99250000.000000"
textLength="2114881.000000" font-size="1333333.000000" lengthAdjust="spacingAndGlyphs"
text-anchor="middle" opacity="0">C5</text>
<g class="stroked-text"><desc>C5</desc>
<path d="M137813333 99178571
L137765714 99202380
L137622857 99226190
L137527619 99226190
L137384761 99202380
L137289523 99154761
L137241904 99107142
L137194285 99011904
L137194285 98940476
L137241904 98845238
L137289523 98797619
L137384761 98750000
L137527619 98726190
L137622857 98726190
L137765714 98750000
L137813333 98773809
" />
<path d="M138718095 98726190
L138241904 98726190
L138194285 98964285
L138241904 98940476
L138337142 98916666
L138575238 98916666
L138670476 98940476
L138718095 98964285
L138765714 99011904
L138765714 99130952
L138718095 99178571
L138670476 99202380
L138575238 99226190
L138337142 99226190
L138241904 99202380
L138194285 99178571
" />
</g></g>
<g style="fill:#000000; fill-opacity:0.0; 
stroke:#000000; stroke-width:150000.000000; stroke-opacity:1; 
stroke-linecap:round; stroke-linejoin:round;">
<text x="145770000.000000" y="91750000.000000"
textLength="3067262.000000" font-size="1333333.000000" lengthAdjust="spacingAndGlyphs"
text-anchor="middle" opacity="0">C16</text>
<g class="stroked-text"><desc>C16</desc>
<path d="M145127142 91607142
L145079523 91654761
L144936666 91702380
L144841428 91702380
L144698571 91654761
L144603333 91559523
L144555714 91464285
L144508095 91273809
L144508095 91130952
L144555714 90940476
L144603333 90845238
L144698571 90750000
L144841428 90702380
L144936666 90702380
L145079523 90750000
L145127142 90797619
" />
<path d="M146079523 91702380
L145508095 91702380
" />
<path d="M145793809 91702380
L145793809 90702380
L145698571 90845238
L145603333 90940476
L145508095 90988095
" />
<path d="M146936666 90702380
L146746190 90702380
L146650952 90750000
L146603333 90797619
L146508095 90940476
L146460476 91130952
L146460476 91511904
L146508095 91607142
L146555714 91654761
L146650952 91702380
L146841428 91702380
L146936666 91654761
L146984285 91607142
L147031904 91511904
L147031904 91273809
L146984285 91178571
L146936666 91130952
L146841428 91083333
L146650952 91083333
L146555714 91130952
L146508095 91178571
L146460476 91273809
" />
</g><text x="129750000.000000" y="104830000.000000"
textLength="2147381.000000" font-size="1333333.000000" lengthAdjust="spacingAndGlyphs"
text-anchor="middle" opacity="0">R8</text>
<g class="stroked-text"><desc>R8</desc>
<path d="M129583333 104782380
L129250000 104306190
" />
<path d="M129011904 104782380
L129011904 103782380
L129392857 103782380
L129488095 103830000
L129535714 103877619
L129583333 103972857
L129583333 104115714
L129535714 104210952
L129488095 104258571
L129392857 104306190
L129011904 104306190
" />
<path d="M130154761 104210952
L130059523 104163333
L130011904 104115714
L129964285 104020476
L129964285 103972857
L130011904 103877619
L130059523 103830000
L130154761 103782380
L130345238 103782380
L130440476 103830000
L130488095 103877619
L130535714 103972857
L130535714 104020476
L130488095 104115714
L130440476 104163333
L130345238 104210952
L130154761 104210952
L130059523 104258571
L130011904 104306190
L129964285 104401428
L129964285 104591904
L130011904 104687142
L130059523 104734761
L130154761 104782380
L130345238 104782380
L130440476 104734761
L130488095 104687142
L130535714 104591904
L130535714 104401428
L130488095 104306190
L130440476 104258571
L130345238 104210952
" />
</g><g transform="rotate(-90.000000 123450000.000000 96250000.000000)">
<text x="123450000.000000" y="96750000.000000"
textLength="1909286.000000" font-size="1333333.000000" lengthAdjust="spacingAndGlyphs"
text-anchor="middle" opacity="0">J2</text>
</g>
<g class="stroked-text"><desc>J2</desc>
<path d="M122902380 96583333
L123616666 96583333
L123759523 96630952
L123854761 96726190
L123902380 96869047
L123902380 96964285
" />
<path d="M122997619 96154761
L122950000 96107142
L122902380 96011904
L122902380 95773809
L122950000 95678571
L122997619 95630952
L123092857 95583333
L123188095 95583333
L123330952 95630952
L123902380 96202380
L123902380 95583333
" />
</g><g transform="rotate(-90.000000 146515000.000000 113500000.000000)">
<text x="146515000.000000" y="114000000.000000"
textLength="1909286.000000" font-size="1333333.000000" lengthAdjust="spacingAndGlyphs"
text-anchor="middle" opacity="0">J4</text>
</g>
<g class="stroked-text"><desc>J4</desc>
<path d="M145967380 113833333
L146681666 113833333
L146824523 113880952
L146919761 113976190
L146967380 114119047
L146967380 114214285
" />
<path d="M146300714 112928571
L146967380 112928571
" />
<path d="M145919761 113166666
L146634047 113404761
L146634047 112785714
" />
</g><text x="157750000.000000" y="98940000.000000"
textLength="1909286.000000" font-size="1333333.000000" lengthAdjust="spacingAndGlyphs"
text-anchor="middle" opacity="0">J3</text>
<g class="stroked-text"><desc>J3</desc>
<path d="M157416666 97892380
L157416666 98606666
L157369047 98749523
L157273809 98844761
L157130952 98892380
L157035714 98892380
" />
<path d="M157797619 97892380
L158416666 97892380
L158083333 98273333
L158226190 98273333
L158321428 98320952
L158369047 98368571
L158416666 98463809
L158416666 98701904
L158369047 98797142
L158321428 98844761
L158226190 98892380
L157940476 98892380
L157845238 98844761
L157797619 98797142
" />
</g><text x="147500000.000000" y="104375000.000000"
textLength="3099762.000000" font-size="1333333.000000" lengthAdjust="spacingAndGlyphs"
text-anchor="middle" opacity="0">C18</text>
<g class="stroked-text"><desc>C18</desc>
<path d="M146857142 104267857
L146809523 104303571
L146666666 104339285
L146571428 104339285
L146428571 104303571
L146333333 104232142
L146285714 104160714
L146238095 104017857
L146238095 103910714
L146285714 103767857
L146333333 103696428
L146428571 103625000
L146571428 103589285
L146666666 103589285
L146809523 103625000
L146857142 103660714
" />
<path d="M147809523 104339285
L147238095 104339285
" />
<path d="M147523809 104339285
L147523809 103589285
L147428571 103696428
L147333333 103767857
L147238095 103803571
" />
<path d="M148380952 103910714
L148285714 103875000
L148238095 103839285
L148190476 103767857
L148190476 103732142
L148238095 103660714
L148285714 103625000
L148380952 103589285
L148571428 103589285
L148666666 103625000
L148714285 103660714
L148761904 103732142
L148761904 103767857
L148714285 103839285
L148666666 103875000
L148571428 103910714
L148380952 103910714
L148285714 103946428
L148238095 103982142
L148190476 104053571
L148190476 104196428
L148238095 104267857
L148285714 104303571
L148380952 104339285
L148571428 104339285
L148666666 104303571
L148714285 104267857
L148761904 104196428
L148761904 104053571
L148714285 103982142
L148666666 103946428
L148571428 103910714
" />
</g><text x="147250000.000000" y="94250000.000000"
textLength="2147381.000000" font-size="1333333.000000" lengthAdjust="spacingAndGlyphs"
text-anchor="middle" opacity="0">R5</text>
<g class="stroked-text"><desc>R5</desc>
<path d="M147083333 94202380
L146750000 93726190
" />
<path d="M146511904 94202380
L146511904 93202380
L146892857 93202380
L146988095 93250000
L147035714 93297619
L147083333 93392857
L147083333 93535714
L147035714 93630952
L146988095 93678571
L146892857 93726190
L146511904 93726190
" />
<path d="M147988095 93202380
L147511904 93202380
L147464285 93678571
L147511904 93630952
L147607142 93583333
L147845238 93583333
L147940476 93630952
L147988095 93678571
L148035714 93773809
L148035714 94011904
L147988095 94107142
L147940476 94154761
L147845238 94202380
L147607142 94202380
L147511904 94154761
L147464285 94107142
" />
</g><text x="137500000.000000" y="118295000.000000"
textLength="2195000.000000" font-size="1333333.000000" lengthAdjust="spacingAndGlyphs"
text-anchor="middle" opacity="0">U1</text>
<g class="stroked-text"><desc>U1</desc>
<path d="M136738095 117247380
L136738095 118056904
L136785714 118152142
L136833333 118199761
L136928571 118247380
L137119047 118247380
L137214285 118199761
L137261904 118152142
L137309523 118056904
L137309523 117247380
" />
<path d="M138309523 118247380
L137738095 118247380
" />
<path d="M138023809 118247380
L138023809 117247380
L137928571 117390238
L137833333 117485476
L137738095 117533095
" />
</g><text x="150500000.000000" y="108625000.000000"
textLength="3099762.000000" font-size="1333333.000000" lengthAdjust="spacingAndGlyphs"
text-anchor="middle" opacity="0">C19</text>
<g class="stroked-text"><desc>C19</desc>
<path d="M149857142 108517857
L149809523 108553571
L149666666 108589285
L149571428 108589285
L149428571 108553571
L149333333 108482142
L149285714 108410714
L149238095 108267857
L149238095 108160714
L149285714 108017857
L149333333 107946428
L149428571 107875000
L149571428 107839285
L149666666 107839285
L149809523 107875000
L149857142 107910714
" />
<path d="M150809523 108589285
L150238095 108589285
" />
<path d="M150523809 108589285
L150523809 107839285
L150428571 107946428
L150333333 108017857
L150238095 108053571
" />
<path d="M151285714 108589285
L151476190 108589285
L151571428 108553571
L151619047 108517857
L151714285 108410714
L151761904 108267857
L151761904 107982142
L151714285 107910714
L151666666 107875000
L151571428 107839285
L151380952 107839285
L151285714 107875000
L151238095 107910714
L151190476 107982142
L151190476 108160714
L151238095 108232142
L151285714 108267857
L151380952 108303571
L151571428 108303571
L151666666 108267857
L151714285 108232142
L151761904 108160714
" />
</g><text x="156000000.000000" y="86500000.000000"
textLength="3242619.000000" font-size="1333333.000000" lengthAdjust="spacingAndGlyphs"
text-anchor="middle" opacity="0">SW2</text>
<g class="stroked-text"><desc>SW2</desc>
<path d="M154666666 86404761
L154809523 86452380
L155047619 86452380
L155142857 86404761
L155190476 86357142
L155238095 86261904
L155238095 86166666
L155190476 86071428
L155142857 86023809
L155047619 85976190
L154857142 85928571
L154761904 85880952
L154714285 85833333
L154666666 85738095
L154666666 85642857
L154714285 85547619
L154761904 85500000
L154857142 85452380
L155095238 85452380
L155238095 85500000
" />
<path d="M155571428 85452380
L155809523 86452380
L156000000 85738095
L156190476 86452380
L156428571 85452380
" />
<path d="M156761904 85547619
L156809523 85500000
L156904761 85452380
L157142857 85452380
L157238095 85500000
L157285714 85547619
L157333333 85642857
L157333333 85738095
L157285714 85880952
L156714285 86452380
L157333333 86452380
" />
</g><text x="146746359.000000" y="69950000.000000"
textLength="3099762.000000" font-size="1333333.000000" lengthAdjust="spacingAndGlyphs"
text-anchor="middle" opacity="0">R13</text>
<g class="stroked-text"><desc>R13</desc>
<path d="M146103501 69902380
L145770168 69426190
" />
<path d="M145532073 69902380
L145532073 68902380
L145913025 68902380
L146008263 68950000
L146055882 68997619
L146103501 69092857
L146103501 69235714
L146055882 69330952
L146008263 69378571
L145913025 69426190
L145532073 69426190
" />
<path d="M147055882 69902380
L146484454 69902380
" />
<path d="M146770168 69902380
L146770168 68902380
L146674930 69045238
L146579692 69140476
L146484454 69188095
" />
<path d="M147389216 68902380
L148008263 68902380
L147674930 69283333
L147817787 69283333
L147913025 69330952
L147960644 69378571
L148008263 69473809
L148008263 69711904
L147960644 69807142
L147913025 69854761
L147817787 69902380
L147532073 69902380
L147436835 69854761
L147389216 69807142
" />
</g><text x="150500000.000000" y="107625000.000000"
textLength="3099762.000000" font-size="1333333.000000" lengthAdjust="spacingAndGlyphs"
text-anchor="middle" opacity="0">C21</text>
<g class="stroked-text"><desc>C21</desc>
<path d="M149857142 107517857
L149809523 107553571
L149666666 107589285
L149571428 107589285
L149428571 107553571
L149333333 107482142
L149285714 107410714
L149238095 107267857
L149238095 107160714
L149285714 107017857
L149333333 106946428
L149428571 106875000
L149571428 106839285
L149666666 106839285
L149809523 106875000
L149857142 106910714
" />
<path d="M150238095 106910714
L150285714 106875000
L150380952 106839285
L150619047 106839285
L150714285 106875000
L150761904 106910714
L150809523 106982142
L150809523 107053571
L150761904 107160714
L150190476 107589285
L150809523 107589285
" />
<path d="M151761904 107589285
L151190476 107589285
" />
<path d="M151476190 107589285
L151476190 106839285
L151380952 106946428
L151285714 107017857
L151190476 107053571
" />
</g><text x="117250000.000000" y="85850000.000000"
textLength="3242619.000000" font-size="1333333.000000" lengthAdjust="spacingAndGlyphs"
text-anchor="middle" opacity="0">SW1</text>
<g class="stroked-text"><desc>SW1</desc>
<path d="M115916666 85754761
L116059523 85802380
L116297619 85802380
L116392857 85754761
L116440476 85707142
L116488095 85611904
L116488095 85516666
L116440476 85421428
L116392857 85373809
L116297619 85326190
L116107142 85278571
L116011904 85230952
L115964285 85183333
L115916666 85088095
L115916666 84992857
L115964285 84897619
L116011904 84850000
L116107142 84802380
L116345238 84802380
L116488095 84850000
" />
<path d="M116821428 84802380
L117059523 85802380
L117250000 85088095
L117440476 85802380
L117678571 84802380
" />
<path d="M118583333 85802380
L118011904 85802380
" />
<path d="M118297619 85802380
L118297619 84802380
L118202380 84945238
L118107142 85040476
L118011904 85088095
" />
</g></g>
<g style="fill:#000000; fill-opacity:0.0; 
stroke:#000000; stroke-width:120000.000000; stroke-opacity:1; 
stroke-linecap:round; stroke-linejoin:round;">
<path d="M145153641 96130000
L144846359 96130000
" />
<path d="M145153641 95370000
L144846359 95370000
" />
<path d="M143162164 93140000
L143377836 93140000
" />
<path d="M143162164 93860000
L143377836 93860000
" />
<path d="M132107836 91860000
L131892164 91860000
" />
<path d="M132107836 91140000
L131892164 91140000
" />
<path d="M132107836 89140000
L131892164 89140000
" />
<path d="M132107836 89860000
L131892164 89860000
" />
<path d="M148892164 67460000
L149107836 67460000
" />
<path d="M148892164 66740000
L149107836 66740000
" />
<path d="M139640000 66622164
L139640000 66837836
" />
<path d="M140360000 66622164
L140360000 66837836
" />
<path d="M130070000 83020000
L129070000 83020000
" />
<path d="M130070000 72980000
L130070000 73980000
" />
<path d="M124680000 83020000
L125480000 83020000
" />
<path d="M130070000 72980000
L129070000 72980000
" />
<path d="M130070000 83020000
L130070000 82020000
" />
<path d="M124680000 83020000
L124680000 82020000
" />
<path d="M124680000 72980000
L124680000 73980000
" />
<path d="M124680000 72980000
L125480000 72980000
" />
<path d="M136162164 87640000
L136377836 87640000
" />
<path d="M136162164 88360000
L136377836 88360000
" />
<path d="M144642164 109610000
L144857836 109610000
" />
<path d="M144642164 108890000
L144857836 108890000
" />
</g>
<g style="fill:#000000; fill-opacity:0.0; 
stroke:#000000; stroke-width:100000.000000; stroke-opacity:1; 
stroke-linecap:round; stroke-linejoin:round;">
<circle cx="141915000.000000" cy="94750000.000000" r="50000.000000" /> 
</g>
<g style="fill:#000000; fill-opacity:0.0; 
stroke:#000000; stroke-width:200000.000000; stroke-opacity:1; 
stroke-linecap:round; stroke-linejoin:round;">
<path d="M142290000 54400000
L132710000 54400000
" />
<path d="M142290000 59650000
L142290000 58400000
" />
<path d="M142290000 55680000
L142290000 54400000
" />
<path d="M132710000 54400000
L132710000 55680000
" />
<path d="M132710000 59650000
L132710000 58400000
" />
</g>
<g style="fill:#000000; fill-opacity:0.0; 
stroke:#000000; stroke-width:120000.000000; stroke-opacity:1; 
stroke-linecap:round; stroke-linejoin:round;">
<path d="M133022500 87237258
L133022500 86762742
" />
<path d="M131977500 87237258
L131977500 86762742
" />
</g>
<g style="fill:#000000; fill-opacity:0.0; 
stroke:#000000; stroke-width:100000.000000; stroke-opacity:1; 
stroke-linecap:round; stroke-linejoin:round;">
<circle cx="141910000.000000" cy="95750000.000000" r="50000.000000" /> 
</g>
<g style="fill:#000000; fill-opacity:0.0; 
stroke:#000000; stroke-width:120000.000000; stroke-opacity:1; 
stroke-linecap:round; stroke-linejoin:round;">
<path d="M148392164 105610000
L148607836 105610000
" />
<path d="M148392164 104890000
L148607836 104890000
" />
<path d="M148900000 106100000
L148900000 107650000
" />
<path d="M147100000 107650000
L147100000 106350000
" />
<path d="M136087836 98360000
L135872164 98360000
" />
<path d="M136087836 97640000
L135872164 97640000
" />
<path d="M145610000 88107836
L145610000 87892164
" />
<path d="M144890000 88107836
L144890000 87892164
" />
<path d="M122403641 87630000
L122096359 87630000
" />
<path d="M122403641 86870000
L122096359 86870000
" />
<path d="M144450000 88900000
L144450000 86200000
" />
<path d="M142150000 88900000
L144450000 88900000
" />
<path d="M133140000 64642164
L133140000 64857836
" />
<path d="M133860000 64642164
L133860000 64857836
" />
</g>
<g style="fill:#000000; fill-opacity:0.0; 
stroke:#000000; stroke-width:127000.000000; stroke-opacity:1; 
stroke-linecap:round; stroke-linejoin:round;">
<path d="M144325000 65830000
L143075000 65830000
" />
<path d="M143075000 68170000
L144325000 68170000
" />
</g>
<g style="fill:#000000; fill-opacity:0.0; 
stroke:#000000; stroke-width:200000.000000; stroke-opacity:1; 
stroke-linecap:round; stroke-linejoin:round;">
<circle cx="141600000.000000" cy="66100000.000000" r="100000.000000" /> 
</g>
<g style="fill:#000000; fill-opacity:0.0; 
stroke:#000000; stroke-width:120000.000000; stroke-opacity:1; 
stroke-linecap:round; stroke-linejoin:round;">
<path d="M142912164 85860000
L143127836 85860000
" />
<path d="M142912164 85140000
L143127836 85140000
" />
<path d="M142872164 90140000
L143087836 90140000
" />
<path d="M142872164 90860000
L143087836 90860000
" />
</g>
<g style="fill:#000000; fill-opacity:0.0; 
stroke:#000000; stroke-width:100000.000000; stroke-opacity:1; 
stroke-linecap:round; stroke-linejoin:round;">
<circle cx="130090000.000000" cy="111250000.000000" r="50000.000000" /> 
</g>
<g style="fill:#000000; fill-opacity:0.0; 
stroke:#000000; stroke-width:120000.000000; stroke-opacity:1; 
stroke-linecap:round; stroke-linejoin:round;">
<path d="M132107836 90140000
L131892164 90140000
" />
<path d="M132107836 90860000
L131892164 90860000
" />
<path d="M154950000 99920000
L154950000 99800000
" />
<path d="M154950000 102070000
L154950000 100930000
" />
<path d="M154950000 103200000
L154950000 103080000
" />
<path d="M150550000 103200000
L154950000 103200000
" />
<path d="M150550000 103080000
L150550000 103200000
" />
<path d="M150550000 99800000
L150550000 99920000
" />
<path d="M154950000 99800000
L150550000 99800000
" />
<path d="M150550000 100930000
L150550000 102070000
" />
<path d="M144642164 105890000
L144857836 105890000
" />
<path d="M144642164 106610000
L144857836 106610000
" />
</g>
<g style="fill:#000000; fill-opacity:0.0; 
stroke:#000000; stroke-width:100000.000000; stroke-opacity:1; 
stroke-linecap:round; stroke-linejoin:round;">
<circle cx="119160000.000000" cy="87250000.000000" r="50000.000000" /> 
<circle cx="159000000.000000" cy="96910000.000000" r="50000.000000" /> 
</g>
<g style="fill:#000000; fill-opacity:0.0; 
stroke:#000000; stroke-width:120000.000000; stroke-opacity:1; 
stroke-linecap:round; stroke-linejoin:round;">
<path d="M152020000 86520000
L151020000 86520000
" />
<path d="M145980000 86520000
L145980000 85520000
" />
<path d="M152020000 73480000
L152020000 74480000
" />
<path d="M152020000 86520000
L152020000 85520000
" />
<path d="M145980000 73480000
L146980000 73480000
" />
<path d="M152020000 73480000
L151020000 73480000
" />
<path d="M145980000 86520000
L146980000 86520000
" />
<path d="M148100000 77500000
L149900000 77500000
" />
<path d="M148100000 78600000
L149900000 78600000
" />
<path d="M145980000 73480000
L145980000 74480000
" />
<path d="M149900000.000000 78600000.000000 A550000.000000 550000.000000 0.0 0 0 149900000.000000 77500000.000000" />
<path d="M148100000.000000 77500000.000000 A550000.000000 550000.000000 0.0 0 0 148100000.000000 78600000.000000" />
<path d="M139392164 87640000
L139607836 87640000
" />
<path d="M139392164 88360000
L139607836 88360000
" />
<path d="M132880000 64596359
L132880000 64903641
" />
<path d="M132120000 64596359
L132120000 64903641
" />
<path d="M134107836 98360000
L133892164 98360000
" />
<path d="M134107836 97640000
L133892164 97640000
" />
<path d="M126836359 111630000
L127143641 111630000
" />
<path d="M126836359 110870000
L127143641 110870000
" />
<path d="M139620000 63903641
L139620000 63596359
" />
<path d="M140380000 63903641
L140380000 63596359
" />
</g>
<g style="fill:#000000; fill-opacity:0.0; 
stroke:#000000; stroke-width:100000.000000; stroke-opacity:1; 
stroke-linecap:round; stroke-linejoin:round;">
<circle cx="150090000.000000" cy="68200000.000000" r="50000.000000" /> 
</g>
<g style="fill:#000000; fill-opacity:0.0; 
stroke:#000000; stroke-width:120000.000000; stroke-opacity:1; 
stroke-linecap:round; stroke-linejoin:round;">
<path d="M144857836 103360000
L144642164 103360000
" />
<path d="M144857836 102640000
L144642164 102640000
" />
<path d="M147642164 109110000
L147857836 109110000
" />
<path d="M147642164 108390000
L147857836 108390000
" />
<path d="M138087836 97640000
L137872164 97640000
" />
<path d="M138087836 98360000
L137872164 98360000
" />
<path d="M143142164 92140000
L143357836 92140000
" />
<path d="M143142164 92860000
L143357836 92860000
" />
<path d="M129596359 105120000
L129903641 105120000
" />
<path d="M129596359 105880000
L129903641 105880000
" />
<path d="M126710000 99860000
L127860000 99860000
" />
<path d="M127860000 99860000
L127860000 98810000
" />
<path d="M124740000 98690000
L124740000 93810000
" />
<path d="M126710000 92640000
L127860000 92640000
" />
<path d="M127860000 92640000
L127860000 93690000
" />
<path d="M127860000 98810000
L128850000 98810000
" />
<path d="M147515000 111735000
L147580000 111735000
" />
<path d="M153920000 111735000
L153985000 111735000
" />
<path d="M153985000 115265000
L153985000 111735000
" />
<path d="M147580000 116590000
L147580000 115265000
" />
<path d="M153920000 115265000
L153985000 115265000
" />
<path d="M147515000 115265000
L147580000 115265000
" />
<path d="M147515000 115265000
L147515000 111735000
" />
<path d="M158810000 101500000
L158810000 111560000
" />
<path d="M156690000 99440000
L157750000 99440000
" />
<path d="M156690000 100500000
L156690000 99440000
" />
<path d="M156690000 101500000
L156690000 111560000
" />
<path d="M156690000 111560000
L158810000 111560000
" />
<path d="M156690000 101500000
L158810000 101500000
" />
<path d="M144857836 103640000
L144642164 103640000
" />
<path d="M144857836 104360000
L144642164 104360000
" />
<path d="M145163641 94370000
L144856359 94370000
" />
<path d="M145163641 95130000
L144856359 95130000
" />
<path d="M137196148 63501400
L137804540 63501400
" />
<path d="M136801843 65375961
L136801843 64624039
" />
<path d="M138198843 64624040
L138198843 64969560
" />
<path d="M137804540 66498600
L137196148 66498600
" />
<path d="M142150000 115235000
L143550000 115235000
" />
</g>
<g style="fill:#000000; fill-opacity:0.0; 
stroke:#000000; stroke-width:127000.000000; stroke-opacity:1; 
stroke-linecap:round; stroke-linejoin:round;">
<path d="M140500000 96550000
L141050000 96000000
" />
<path d="M140500000 96550000
L133950000 96550000
" />
<path d="M133950000 96550000
L133950000 89450000
" />
<path d="M141050000 89450000
L141050000 96000000
" />
<path d="M133950000 89450000
L141050000 89450000
" />
</g>
<g style="fill:#000000; fill-opacity:0.0; 
stroke:#000000; stroke-width:200000.000000; stroke-opacity:1; 
stroke-linecap:round; stroke-linejoin:round;">
<circle cx="141000000.000000" cy="96500000.000000" r="100000.000000" /> 
</g>
<g style="fill:#000000; fill-opacity:0.0; 
stroke:#000000; stroke-width:120000.000000; stroke-opacity:1; 
stroke-linecap:round; stroke-linejoin:round;">
<path d="M144642164 107890000
L144857836 107890000
" />
<path d="M144642164 108610000
L144857836 108610000
" />
<path d="M152980000 71480000
L153980000 71480000
" />
<path d="M152980000 71480000
L152980000 72480000
" />
<path d="M152980000 84520000
L153980000 84520000
" />
<path d="M159020000 71480000
L159020000 72480000
" />
<path d="M159020000 84520000
L158020000 84520000
" />
<path d="M155100000 75500000
L156900000 75500000
" />
<path d="M159020000 71480000
L158020000 71480000
" />
<path d="M159020000 84520000
L159020000 83520000
" />
<path d="M155100000 76600000
L156900000 76600000
" />
<path d="M152980000 84520000
L152980000 83520000
" />
<path d="M156900000.000000 76600000.000000 A550000.000000 550000.000000 0.0 0 0 156900000.000000 75500000.000000" />
<path d="M155100000.000000 75500000.000000 A550000.000000 550000.000000 0.0 0 0 155100000.000000 76600000.000000" />
<path d="M146746359 67820000
L147053641 67820000
" />
<path d="M146746359 68580000
L147053641 68580000
" />
<path d="M144662164 106890000
L144877836 106890000
" />
<path d="M144662164 107610000
L144877836 107610000
" />
<path d="M118100000 75500000
L119900000 75500000
" />
<path d="M118100000 76600000
L119900000 76600000
" />
<path d="M122020000 71480000
L122020000 72480000
" />
<path d="M122020000 84520000
L121020000 84520000
" />
<path d="M122020000 71480000
L121020000 71480000
" />
<path d="M115980000 71480000
L115980000 72480000
" />
<path d="M115980000 71480000
L116980000 71480000
" />
<path d="M115980000 84520000
L115980000 83520000
" />
<path d="M122020000 84520000
L122020000 83520000
" />
<path d="M115980000 84520000
L116980000 84520000
" />
<path d="M118100000.000000 75500000.000000 A550000.000000 550000.000000 0.0 0 0 118100000.000000 76600000.000000" />
<path d="M119900000.000000 76600000.000000 A550000.000000 550000.000000 0.0 0 0 119900000.000000 75500000.000000" />
<path d="M134120000 64903641
L134120000 64596359
" />
<path d="M134880000 64903641
L134880000 64596359
" />
<g >
</g>
<g >
</g>
<g >
</g>
<g >
</g>
<g >
</g>
<g >
</g>
<g >
</g>
<g >
</g>
<g >
</g>
<g >
</g>
<g >
</g>
<g >
</g>
<g >
</g>
<g >
</g>
<g >
</g>
<g >
</g>
<g >
</g>
<g >
</g>
<g >
</g>
<g >
</g>
<g >
</g>
<g >
</g>
<g >
</g>
<g >
</g>
<g >
</g>
<g >
</g>
<g >
</g>
<g >
</g>
<g >
</g>
<g >
</g>
<g >
</g>
<g >
</g>
<g >
</g>
<g >
</g>
<g >
</g>
<g >
</g>
<g >
</g>
<g >
</g>
<g >
</g>
<g >
</g>
<g >
</g>
<g >
</g>
<g >
</g>
<g >
</g>
<g >
</g>
<g >
</g>
<g >
</g>
<g >
</g>
<g >
</g>
<g >
</g>
<g >
</g>
<g >
</g>
<g >
</g>
<g >
</g>
<g >
</g>
<g >
</g>
<g >
</g>
<g >
</g>
<g >
</g>
<g >
</g>
<g >
</g>
<g >
</g>
<g >
</g>
<g >
</g>
<g >
</g>
<g >
</g>
<g >
</g>
<g >
</g>
<g >
</g>
<g >
</g>
<g >
</g>
<g >
</g>
<g >
</g>
<g >
</g>
<g >
</g>
<g >
</g>
<g >
</g>
<g >
</g>
<g >
</g>
<g >
</g>
</g> 
</svg>
